<svg width="589" height="311" viewBox="0 0 589 311" fill="none" xmlns="http://www.w3.org/2000/svg">
<g id="11" name="Cao Bằng">
<path class="district" id="1113" name="TP Cao Bằng" fill-rule="evenodd" clip-rule="evenodd" d="M406.498 213.502L405.472 218.635L401.365 220.688V222.741L399.312 223.767H397.259L394.179 217.608L385.967 220.688L382.887 210.422L378.781 208.369L373.648 197.076L370.568 199.13L371.595 201.183L366.462 197.076L367.488 192.97L366.462 191.944L365.435 195.023L364.409 191.944L362.355 190.917L363.382 189.89H361.329V191.944L358.249 192.97L356.196 196.05L349.01 185.784L345.93 188.864H343.877V184.757L340.797 183.731L342.85 180.651H344.904L342.85 177.571L343.877 169.359H346.957L349.01 167.306L350.037 160.12L351.063 159.093L355.169 161.146L361.329 167.306L365.435 165.252L367.488 170.385L372.621 172.439L371.595 173.465L375.701 178.598H379.807L381.86 186.811L383.914 187.837L380.834 190.917L381.86 192.97L384.94 191.944L391.1 195.023L396.233 206.316L400.339 209.395L401.365 208.369L405.472 213.502H406.498Z" fill="#D147AC" fill-opacity="0.5" stroke="#0000FF" stroke-opacity="0.4" stroke-linecap="round" stroke-linejoin="round"/>
<path class="district" id="1112" name="Bảo Lạc" fill-rule="evenodd" clip-rule="evenodd" d="M119.056 183.731L122.136 176.545L115.977 166.279L117.003 164.226L123.163 160.12L122.136 158.066L124.189 152.934H139.588L140.615 146.774L143.694 143.694L139.588 135.482L133.429 138.561H131.375L130.349 135.482L131.375 125.216H135.482L137.535 122.136L133.429 112.897L134.455 108.791L139.588 105.711V101.605L134.455 96.4718L136.508 89.2857L121.11 80.0465V75.9402L114.95 76.9668L113.924 75.9402L117.003 73.887L114.95 66.701L110.844 65.6744L108.791 62.5947L105.711 61.5681L110.844 56.4352H114.95V49.2492L120.083 45.1429V42.0631L112.897 36.9302V28.7176L110.844 23.5847L111.87 19.4784L113.924 17.4252L117.003 21.5316H123.163L124.189 19.4784L128.296 18.4518L132.402 22.5581L140.615 16.3987L154.987 24.6113H167.306V21.5316L171.412 23.5847L172.439 27.691H174.492L173.465 32.8239L178.598 36.9302L181.678 35.9036L191.944 40.01L197.076 48.2226L203.236 53.3555L206.316 54.3821L209.395 51.3023H211.449L217.608 59.5149L215.555 61.5681H221.714L217.608 66.701L219.661 67.7276L220.688 71.8339L227.874 76.9668V79.0199L223.767 82.0997L218.635 81.0731L217.608 83.1262L216.581 82.0997V84.1528L218.635 85.1794L225.821 99.5515L223.767 103.658V108.791L225.821 112.897L229.927 114.95L228.9 117.003H225.821L230.953 125.216H226.847L224.794 127.269L223.767 126.243L221.714 129.322L219.661 128.296L216.581 135.482L210.422 137.535L215.555 145.748L204.262 157.04L200.156 154.987L195.023 156.013L193.997 158.066L189.89 154.987H183.731L181.678 159.093L178.598 154.987H176.545L173.465 156.013L171.412 159.093L168.332 158.066L163.199 164.226L162.173 160.12L159.093 164.226L150.88 161.146L146.774 165.252L143.694 172.439H131.375L129.322 175.518L126.243 176.545L127.269 184.757H122.136L119.056 183.731Z" fill="#D1475A" fill-opacity="0.5" stroke="#0000FF" stroke-opacity="0.4" stroke-linecap="round" stroke-linejoin="round"/>
<path class="district" id="1111" name="Bảo Lâm" fill-rule="evenodd" clip-rule="evenodd" d="M88.2591 198.103L86.206 193.997V190.917L88.2591 189.89L84.1528 180.651L89.2857 173.465L80.0465 164.226L79.0199 160.12L81.0731 156.013L76.9668 150.88L77.9934 148.827L69.7807 147.801L66.701 141.641L60.5415 140.615L46.1694 127.269L35.9037 124.189L31.7973 125.216L29.7442 119.056L24.6113 118.03L22.5581 112.897L14.3455 107.764L7.15947 108.791L1 103.658L2.02658 97.4983L13.3189 100.578L15.3721 99.5515V89.2857L17.4252 87.2326L16.3987 85.1794L21.5316 84.1528L26.6645 79.0199V76.9668L33.8505 75.9402L36.9302 73.887V59.5149L42.0631 53.3555H51.3023L58.4884 49.2492L61.5681 50.2757L66.701 48.2226L68.7542 50.2757L71.8339 48.2226L84.1528 46.1694L86.206 35.9037L96.4718 19.4784L95.4452 14.3455L99.5515 5.10631H107.764L111.87 1L112.897 11.2658L110.844 14.3455L112.897 15.3721V17.4252L110.844 23.5847L112.897 28.7176V35.9037L115.977 38.9834H118.03L120.083 45.1429L114.95 48.2226V56.4352H110.844L104.684 61.5681L114.95 66.701L117.003 70.8073V72.8605L113.924 75.9402L114.95 76.9668L121.11 75.9402L120.083 79.0199L122.136 81.0731L136.508 89.2857L134.455 95.4452L139.588 100.578V105.711L134.455 107.764L133.429 112.897L137.535 122.136L135.482 125.216H131.375L130.349 135.482L131.375 138.561L139.588 135.482L143.694 143.694L140.615 146.774L139.588 152.934H124.189L122.136 158.066L123.163 160.12L115.977 166.279L122.136 176.545L118.03 185.784L112.897 184.757L110.844 188.864L104.684 190.917L102.631 198.103H89.2857H88.2591Z" fill="#D18847" fill-opacity="0.5" stroke="#0000FF" stroke-opacity="0.4" stroke-linecap="round" stroke-linejoin="round"/>
<path class="district" id="1110" name="Hạ Lang" fill-rule="evenodd" clip-rule="evenodd" d="M543.033 206.316L544.06 209.395L545.086 208.369L548.166 211.449V213.502L540.98 219.661L534.821 217.608L531.741 220.688L528.661 218.635L527.635 220.688L519.422 221.714L514.289 217.608V215.555H512.236L511.209 209.395L498.89 212.475L495.811 206.316L497.864 203.236L493.757 200.156V196.05L497.864 193.997L499.917 189.89H502.997L501.97 185.784L491.704 181.678L487.598 177.571L489.651 173.465L486.571 169.359H482.465V163.199L484.518 161.146V156.013H486.571L492.731 149.854L491.704 146.774L496.837 141.641L498.89 142.668L502.997 139.588V136.508L508.13 139.588L511.209 137.535H520.449V133.429L529.688 130.349L531.741 127.269L535.847 128.296L538.927 126.243L546.113 117.003L547.14 111.87L549.193 110.844L553.299 112.897V114.95L557.405 118.03L562.538 120.083V126.243L564.591 124.189L571.777 125.216L573.831 123.163H581.017L583.07 124.189V126.243L585.123 125.216L588.203 129.322L583.07 136.508L582.043 141.641L575.884 144.721L572.804 142.668L571.777 145.748L569.724 144.721V149.854L565.618 150.88L566.645 151.907L561.512 154.987L563.565 156.013L559.458 158.066L561.512 160.12V164.226L566.645 168.332H563.565L559.458 173.465L557.405 172.439L559.458 176.545L558.432 181.678L553.299 183.731L550.219 189.89H548.166L549.193 191.944L545.086 197.076H547.14L548.166 200.156L546.113 204.262L543.033 205.289V206.316Z" fill="#B7E830" fill-opacity="0.5" stroke="#0000FF" stroke-opacity="0.4" stroke-linecap="round" stroke-linejoin="round"/>
<path class="district" id="1109" name="Hà Quảng" fill-rule="evenodd" clip-rule="evenodd" d="M343.877 132.402L342.85 128.296L336.691 121.11H334.638L332.585 124.189H322.319L320.266 127.269L313.08 123.163L305.894 115.977L303.841 108.791L299.734 106.738L297.681 107.764L295.628 105.711L294.601 109.817L291.522 111.87L286.389 121.11L277.149 114.95V105.711L269.963 96.4718V92.3655L266.884 90.3123L265.857 83.1263L262.777 81.0731L259.698 82.0997L258.671 80.0465L259.698 69.7807L266.884 70.8073L273.043 74.9136V72.8605L275.096 73.8871L278.176 65.6744V57.4618L276.123 55.4086V53.3555L278.176 52.3289L282.282 54.3821L286.389 52.3289L298.708 53.3555L303.841 50.2758H307.947L310 52.3289L311.027 51.3023L314.106 55.4086L316.159 53.3555L319.239 55.4086L324.372 54.3821V52.3289L326.425 51.3023L336.691 54.3821L338.744 56.4352H342.85L344.904 54.3821H346.957L347.983 56.4352L351.063 55.4086L353.116 57.4618L352.09 58.4884L357.223 62.5947V64.6478L358.249 63.6213L359.276 66.701L364.409 69.7807L363.382 72.8605L365.435 73.8871V75.9402H367.488L368.515 80.0465L372.621 82.0997L374.674 87.2326L367.488 94.4186L364.409 93.392L360.302 96.4718L361.329 98.5249L359.276 103.658L355.169 108.791L356.196 107.764L359.276 109.817L353.116 113.924L355.169 115.977L353.116 118.03L355.169 130.349L350.037 135.482L349.01 133.429L344.904 132.402H343.877Z" fill="#49E830" fill-opacity="0.5" stroke="#0000FF" stroke-opacity="0.4" stroke-linecap="round" stroke-linejoin="round"/>
<path class="district" id="1108" name="Hòa An" fill-rule="evenodd" clip-rule="evenodd" d="M287.415 178.598L283.309 177.571V170.385L280.229 164.226L283.309 158.066L285.362 156.013L286.389 157.04L298.708 145.748L289.468 134.455L288.442 132.402L291.522 126.243L286.389 121.11L287.415 117.003L291.522 111.87H293.575L295.628 105.711L297.681 107.764H302.814L308.973 120.083L310 119.056L311.027 122.136L317.186 124.189L320.266 127.269L322.319 124.189H332.585L334.638 121.11H336.691L342.851 128.296V132.402L350.037 134.455L355.169 130.349L354.143 128.296L358.249 130.349L362.355 126.243L365.435 129.322H369.542L376.728 138.561L382.887 140.615L380.834 144.721L382.887 147.801L393.153 154.987H395.206V157.04L400.339 160.12L404.445 170.385L406.498 185.784L408.552 186.811L412.658 195.023V211.449L414.711 216.581L418.817 218.635L424.977 228.9V231.98L421.897 234.033V237.113L427.03 239.166V245.326L416.764 246.352L410.605 242.246L409.578 234.033L407.525 233.007L409.578 229.927L403.419 220.688L406.498 214.528L403.419 213.502V210.422L401.365 208.369L400.339 209.395L396.233 206.316L391.1 195.023L385.967 191.944H380.834L383.914 187.837L381.86 186.811L380.834 179.625L378.781 177.571L374.674 178.598L371.595 173.465L372.621 172.439L369.542 171.412L365.435 165.252L361.329 167.306L359.276 163.199L351.063 159.093L349.01 167.306L346.957 170.385L344.904 169.359L342.851 177.571L344.904 179.625L340.797 182.704L341.824 184.757H343.877V188.864H345.93L349.01 185.784L356.196 195.023L360.302 192.97L361.329 189.89H363.382L362.355 190.917L364.409 191.944L365.435 195.023V192.97H367.488L366.462 196.05L370.568 201.183V199.13L373.648 196.05L378.781 208.369L382.887 210.422L385.967 220.688L377.754 222.741L376.728 220.688L370.568 219.661L366.462 210.422L365.435 211.449L362.355 209.395L358.249 211.449L349.01 221.714L351.063 226.847L353.116 227.874L351.063 234.033L346.957 236.086L345.93 234.033H342.851L337.718 238.14L333.611 231.98H336.691L340.797 227.874V225.821L339.771 222.741L333.611 219.661L332.585 214.528L329.505 213.502L319.239 218.635L317.186 217.608L319.239 202.209L323.346 195.023L329.505 188.864V182.704L322.319 181.678L324.372 178.598L323.346 173.465L313.08 168.332L302.814 172.439L301.787 174.492L300.761 173.465L299.734 175.518L293.575 173.465L291.522 179.625L287.415 178.598Z" fill="#30E886" fill-opacity="0.5" stroke="#0000FF" stroke-opacity="0.4" stroke-linecap="round" stroke-linejoin="round"/>
<path class="district" id="1107" name="Nguyên Bình" fill-rule="evenodd" clip-rule="evenodd" d="M336.691 238.14L334.638 239.166L335.664 241.219L333.611 246.352H327.452L324.372 244.299L321.292 247.379L315.133 246.352L313.08 245.326L314.106 243.272L311.027 241.219L313.08 238.14H310L311.027 234.033L307.947 230.953L302.814 229.927L306.92 223.767H297.681L293.575 220.688L289.468 226.847L277.15 229.927L276.123 233.007L263.804 238.14L262.777 241.219L258.671 243.272L255.591 241.219L248.405 242.246L247.379 246.352L240.193 254.565L237.113 250.458L238.14 249.432L225.821 244.299L221.714 243.272L214.528 246.352L212.475 245.326L213.502 242.246L208.369 244.299L202.209 243.272L196.05 233.007H191.944L189.89 229.927V226.847L192.97 222.741L190.917 219.661L187.837 216.581L182.704 217.608L180.651 213.502L183.731 209.395L182.704 206.316L178.598 203.236L177.571 200.156L173.465 199.13V197.076L178.598 193.997L182.704 185.784L190.917 177.571L191.944 174.492L186.811 173.465L184.757 171.412L182.704 166.279L185.784 163.199V161.146L181.678 160.12L182.704 156.013L189.89 154.987L193.997 158.066L195.023 156.013L200.156 154.987L204.262 157.04L207.342 152.934H210.422L212.475 148.827L215.555 146.774L213.502 140.615L210.422 138.561L211.449 136.508H215.555L219.661 130.349V133.429L225.821 135.482L228.9 141.641L236.086 143.694L238.14 148.827L241.219 147.801L250.458 152.934V154.987L246.352 158.066L247.379 159.093L244.299 162.173V164.226L251.485 166.279L254.565 164.226L258.671 174.492L262.777 175.518L265.857 173.465L269.963 178.598L272.017 176.545L273.043 171.412H276.123L277.15 166.279L280.229 165.252L283.309 169.359V177.571L291.522 179.625L293.575 173.465L299.734 175.518L300.761 173.465L301.787 174.492L302.814 172.439L313.08 168.332L321.292 171.412L324.372 177.571L322.319 181.678L329.505 182.704V188.864L323.346 195.023L319.239 202.209L317.186 217.608L318.213 218.635L325.399 214.528H331.558L332.585 219.661L339.771 222.741L340.797 225.821V227.874L336.691 230.953H333.611L335.664 236.086L336.691 238.14Z" fill="#30DCE8" fill-opacity="0.5" stroke="#0000FF" stroke-opacity="0.4" stroke-linecap="round" stroke-linejoin="round"/>
<path class="district" id="1106" name="Phục Hòa" fill-rule="evenodd" clip-rule="evenodd" d="M492.731 251.485L493.757 262.777H491.704V264.831L489.651 263.804L490.678 261.751L488.625 262.777L484.518 266.884V269.963L475.279 270.99L469.12 267.91L471.173 263.804H473.226V258.671L471.173 256.618L469.12 257.645L467.066 253.538H461.934L459.88 255.591L452.694 248.405L446.535 251.485L440.375 248.405L435.243 240.193L426.003 237.113L427.03 239.166H424.977L421.897 237.113V234.033L427.03 228.9L429.083 233.007L434.216 224.794L439.349 223.767L444.482 225.821L445.508 221.714L453.721 218.635L457.827 222.741L460.907 220.688H466.04L469.12 217.608L466.04 213.502L467.066 207.342L469.12 206.316L462.96 197.076L468.093 192.97V184.757L473.226 187.837L472.199 188.864L476.306 192.97L478.359 193.997L480.412 191.944L485.545 193.997L490.678 186.811L489.651 185.784L491.704 182.704H495.811L501.97 185.784L502.997 188.864L499.917 189.89L497.864 193.997L493.757 195.023V200.156L496.837 203.236L495.811 209.395L498.89 212.475L502.997 211.449L500.944 215.555L502.997 219.661L499.917 221.714V230.953L495.811 233.007L496.837 238.14L492.731 244.299V249.432V251.485Z" fill="#306EE8" fill-opacity="0.5" stroke="#0000FF" stroke-opacity="0.4" stroke-linecap="round" stroke-linejoin="round"/>
<path class="district" id="1105" name="Quảng Yên" fill-rule="evenodd" clip-rule="evenodd" d="M462.96 196.05L466.04 203.236L469.12 206.316L467.066 207.342L466.04 213.502L469.12 217.608L466.04 220.688L463.987 219.661L458.854 222.741L453.721 218.635L445.508 221.714L444.482 225.821L436.269 223.767L429.083 231.98L422.924 226.847L420.87 220.688L414.711 216.581L412.658 212.475L413.684 203.236L411.631 202.209L410.605 197.076L412.658 196.05L408.552 186.811H406.498L404.445 178.598V171.412L407.525 173.465L406.498 166.279H408.552L409.578 163.199L406.498 157.04L408.552 153.96H410.605L408.552 138.561L412.658 136.508H420.87L422.924 135.482V133.429L424.977 135.482L428.056 133.429L436.269 138.561L438.322 133.429L443.455 137.535L442.429 141.641L447.561 149.854L457.827 156.013V153.96L462.96 158.066L467.066 157.04L472.199 163.199L471.173 167.306L474.252 170.385H476.306L480.412 166.279H482.465L481.439 169.359H486.571L487.598 172.439H489.651L487.598 177.571L491.704 181.678L489.651 184.757L490.678 186.811L488.625 191.944L485.545 193.997L480.412 191.944L478.359 193.997L473.226 190.917V187.837L469.12 184.757L467.066 186.811V193.997L462.96 196.05Z" fill="#6130E8" fill-opacity="0.5" stroke="#0000FF" stroke-opacity="0.4" stroke-linecap="round" stroke-linejoin="round"/>
<path class="district" id="1104" name="Thạch An" fill-rule="evenodd" clip-rule="evenodd" d="M353.116 278.176L350.037 280.229V284.336L347.983 286.389V290.495L344.904 296.654H342.851L338.744 290.495L333.611 288.442L327.452 295.628L323.346 292.548L321.292 293.575V291.522L317.186 293.575L314.106 291.522L315.133 290.495L312.053 287.415L314.106 284.336L311.027 274.07L314.106 272.017L319.239 263.804L318.213 259.698L320.266 248.405L324.372 244.299L326.425 246.352H332.585L335.664 242.246L334.638 240.193L341.824 236.086L342.851 234.033H345.93L346.957 236.086L351.063 234.033L353.116 228.9L349.01 221.714L358.249 211.449H361.329L362.355 209.395L365.435 211.449L366.462 210.422L370.568 218.635L380.834 222.741L394.179 217.608L396.233 221.714L399.312 223.767L401.365 220.688H403.419L410.605 229.927L407.525 231.98L410.605 239.166L409.578 242.246H411.631L413.684 245.326L426.003 246.352V237.113L435.243 240.193L443.455 250.458L446.535 251.485L452.694 248.405L459.88 255.591L461.934 253.538H467.066L469.12 257.645H473.226V263.804H471.173L469.12 267.91L475.279 270.99L485.545 269.963L484.518 274.07H486.571L487.598 276.123V281.256L485.545 284.336L475.279 285.362L470.146 293.575L460.907 290.495L458.854 292.548L459.88 295.628L455.774 296.654L458.854 297.681L455.774 300.761L456.801 302.814H458.854L457.827 305.894L453.721 307.947L447.561 310H441.402L438.322 307.947L434.216 310L430.11 304.867L423.95 303.841L416.764 308.973L410.605 310L403.419 303.841L404.445 296.654L399.312 292.548L400.339 289.468L398.286 287.415L397.259 289.468L392.126 288.442L389.047 284.336L382.887 282.282V279.203L378.781 273.043L365.435 267.91L362.355 268.937L361.329 270.99H358.249L352.09 278.176H353.116Z" fill="#D030E8" fill-opacity="0.5" stroke="#0000FF" stroke-opacity="0.4" stroke-linecap="round" stroke-linejoin="round"/>
<path class="district" id="1103" name="Thông Nông" fill-rule="evenodd" clip-rule="evenodd" d="M283.309 158.066L280.229 164.226L281.256 165.252L277.149 166.279L276.123 171.412H273.043L272.017 176.545L269.963 178.598L265.857 173.465L262.777 175.518L258.671 174.492V172.439H256.618L254.565 164.226L252.512 166.279L244.299 164.226V162.173L247.379 160.12L246.352 158.066L250.458 154.987V152.934L241.219 147.801H237.113V143.694L227.874 140.615L225.821 135.482L221.714 134.455L219.661 130.349V128.296L220.688 129.322L223.767 126.243L224.794 127.269L230.953 125.216L225.821 118.03L228.9 117.003L229.927 114.95L226.847 113.924L223.767 108.791L225.821 99.5515L218.635 85.1794L216.581 84.1528L218.635 80.0465L220.688 82.0997L226.847 80.0465L229.927 84.1528L233.007 83.1262L231.98 80.0465L235.06 74.9136L246.352 71.8339L254.565 74.9136H259.698V82.0997L264.831 81.0731L266.884 85.1794V90.3123L269.963 92.3654V95.4452L274.07 102.631L277.149 104.684V114.95L291.522 126.243L288.442 134.455L298.708 145.748L287.415 157.04L285.362 156.013L283.309 158.066Z" fill="#E83092" fill-opacity="0.5" stroke="#0000FF" stroke-opacity="0.4" stroke-linecap="round" stroke-linejoin="round"/>
<path class="district" id="1102" name="Trà Lĩnh" fill-rule="evenodd" clip-rule="evenodd" d="M401.365 165.252L398.286 158.066L382.887 147.801L380.834 144.721L382.887 141.641L376.728 138.561L369.542 129.322H365.435L362.355 126.243L358.249 130.349L354.143 127.269L353.116 118.03L355.169 115.977L353.116 113.924L359.276 109.817L356.196 107.764L355.169 108.791V106.738L358.249 105.711L361.329 99.5515V94.4186L368.515 93.392L371.595 96.4718H373.648L372.621 98.5249L374.674 100.578L382.887 103.658L384.94 99.5515L388.02 101.605L389.047 100.578L391.1 104.684L393.153 102.631L396.233 103.658V100.578L405.472 108.791L411.631 103.658V98.5249L416.764 96.4718L421.897 98.5249L424.977 97.4983L428.056 100.578L431.136 99.5515L434.216 102.631H436.269L437.296 109.817L445.508 121.11L439.349 123.163L435.243 122.136L437.296 126.243L436.269 127.269H434.216L432.163 130.349L427.03 128.296L423.95 131.375L427.03 134.455L424.977 135.482L421.897 133.429L422.924 135.482L420.87 136.508H412.658L408.551 139.588L410.605 152.934L406.498 157.04L407.525 161.146L409.578 162.173L406.498 166.279L407.525 172.439L404.445 171.412L403.419 167.306L401.365 165.252Z" fill="#E83D30" fill-opacity="0.5" stroke="#0000FF" stroke-opacity="0.4" stroke-linecap="round" stroke-linejoin="round"/>
<path class="district" id="1101" name="Trùng Khánh" fill-rule="evenodd" clip-rule="evenodd" d="M482.465 166.279L474.252 170.385L471.173 167.306L472.199 164.226L469.12 158.066H462.96L458.854 153.96L457.827 156.013L454.748 152.934H450.641L447.561 149.854L442.429 141.641V136.508L438.322 133.429L436.269 138.561L429.083 133.429L427.03 134.455L423.95 131.375L427.03 128.296L431.136 130.349L432.163 128.296L433.189 129.322L434.216 127.269H436.269V122.136L439.349 123.163L445.508 121.11L437.296 110.844L436.269 103.658L429.083 97.4983V95.4452L434.216 93.392L437.296 97.4983L443.455 89.2857H445.508L448.588 92.3655L449.615 89.2857H452.694V86.206L455.774 89.2857L459.88 87.2326L460.907 88.2591L463.987 84.1528L461.934 83.1262L462.96 79.0199L466.04 75.9402L467.066 71.8339L470.146 70.8073H472.199L474.252 73.887L477.332 72.8605L478.359 77.9934L481.439 81.0731H485.545L487.598 83.1262L489.651 80.0465L495.811 76.9668H497.864L498.89 79.0199L499.917 77.9934L504.023 84.1528L502.997 85.1794L505.05 89.2857L511.209 94.4186L510.183 95.4452L514.289 96.4718L513.262 99.5515L516.342 100.578L519.422 104.684L524.555 99.5515L525.581 93.392H528.661V95.4452L533.794 93.392L540.98 96.4718L543.033 99.5515V101.605L539.953 103.658L540.98 105.711L543.033 108.791L546.113 107.764L549.193 110.844L536.874 128.296L532.767 127.269L529.688 130.349L519.422 134.455L520.449 137.535H511.209L508.13 139.588L502.997 136.508V139.588L499.917 142.668L496.837 141.641L491.704 146.774L492.731 149.854L486.571 156.013H484.518L482.465 165.252V166.279Z" fill="#D147AC" fill-opacity="0.5" stroke="#0000FF" stroke-opacity="0.4" stroke-linecap="round" stroke-linejoin="round"/>
</g>
</svg>
