<svg width="464" height="448" viewBox="0 0 464 448" fill="none" xmlns="http://www.w3.org/2000/svg">
<g id="12" name="Lạng Sơn">
<path class="district" id="1211" name="TP Lạng Sơn" fill-rule="evenodd" clip-rule="evenodd" d="M231 266L229 265L230 268H228L221 263L225 256L223 255L226 250L227 243L222 237V235L224 233V229L225 230L232 227L234 223V214L236 211L241 214V216L244 218L246 222L244 225L245 226L241 231L246 239L249 237L251 241L253 242L254 240L257 243L258 246L254 250L258 254H239L238 258L234 259V262H232L231 266Z" fill="#D147AC" fill-opacity="0.5" stroke="#0000FF" stroke-opacity="0.4" stroke-linecap="round" stroke-linejoin="round"/>
<path class="district" id="1210" name="Bắc Sơn" fill-rule="evenodd" clip-rule="evenodd" d="M46 312L49 309L48 303L51 301L53 296L52 291L48 287L46 290H44L37 285L31 283L30 281H28V279L21 276L16 267L10 269L7 268V266L5 265L6 260L1 253L3 252L4 249H6L5 246L9 244L7 242L9 230L8 224L13 222L16 220V218L20 216L22 218L31 217L30 210L32 209L31 207L33 204L40 205L47 203L57 206L59 204L62 205V208L64 209L69 210L71 208L73 210L78 199L82 197L89 202V206L94 211H98L99 209H105L108 211L107 212L110 217L108 227H115L119 234L118 237H116L115 239L116 244L119 246L116 247V251L114 254V277L106 281L107 279H105L102 282L103 284L101 288L97 289L87 302L81 303L77 301L69 306L61 308L53 314L48 311L46 312Z" fill="#D1475A" fill-opacity="0.5" stroke="#0000FF" stroke-opacity="0.4" stroke-linecap="round" stroke-linejoin="round"/>
<path class="district" id="1209" name="Bình Gia" fill-rule="evenodd" clip-rule="evenodd" d="M30 218L18 217L16 218V220H14V213L3 207L7 203L6 201L2 202V199L5 197L7 198L8 186L6 184V174L2 171L1 168L4 165L2 156L3 154H8L11 149L24 151L26 142L28 141V139H31L34 136V133L32 132L35 130L37 126L38 127L45 117H48L52 113V111L48 108L47 102L51 96H53L55 86H58L60 83L67 85L71 83L73 84L75 83L74 82L76 79L79 81L78 84L81 89H86L89 93L103 92L109 95L112 94L117 99L116 107L120 116L122 117L126 114L123 113L122 106L125 110L129 112V114L133 118V122L138 123L139 121H143L146 127L140 131L141 132L138 135L139 136L134 142L129 144L126 150L129 160V166L125 169V173L130 178L127 187L128 190H130V192H132L135 189L142 194L146 193V203L150 202L155 203L156 205L162 204L161 210L163 213L161 215H150L147 218L146 216L144 222H141L137 226H133L132 231L131 230L130 232L123 235L119 234L115 227H108L110 218L107 213L108 212L105 209L95 211L89 206V202L87 200L85 201L82 197L78 199L73 210L71 208L69 210L64 209L60 204L57 206L47 203L40 205L33 204L32 209L30 210L31 217L30 218Z" fill="#D18847" fill-opacity="0.5" stroke="#0000FF" stroke-opacity="0.4" stroke-linecap="round" stroke-linejoin="round"/>
<path class="district" id="1208" name="Cao Lộc" fill-rule="evenodd" clip-rule="evenodd" d="M199 278L202 277L200 274L201 271L196 265L200 258L212 251L209 246L214 245L216 247L226 248L223 255L225 257L221 262L223 265L228 267L226 272L223 273V275L218 280H215L213 283L207 286L206 283L201 285L199 280V278ZM224 233L220 237L217 234V232L211 234L204 229H196L194 228L195 223L198 222L199 219L202 222L203 221L202 216L207 213L206 207H211L215 201L219 203V198H221L225 193L226 194L231 190L233 183H235L236 179L237 180L245 177L252 181L254 185L253 186H257L259 192L262 193H269L270 190L272 189L274 191L282 189L287 190L295 194L299 192L303 197L302 203L305 207V210H314L316 214L323 211L327 202L331 205L339 204L341 208L343 207L345 210L349 211L352 216L351 217L353 223L350 229L346 230L340 236L339 235L331 244H324L316 247L310 243L298 242L292 244L285 242L275 255V260L270 264L268 268L266 267L265 262H261V265L254 271H251L248 275L247 274L240 278H238V276L241 274L239 271L238 272L231 267L232 262H234L235 258H238V256L242 253L245 255H249L251 252L252 254H257L254 250L258 246L257 243L254 240L253 242H251L249 237L246 239L241 231L246 223L244 218L237 211L234 214L233 225L228 229H224V233Z" fill="#B7E830" fill-opacity="0.5" stroke="#0000FF" stroke-opacity="0.4" stroke-linecap="round" stroke-linejoin="round"/>
<path class="district" id="1207" name="Chi Lăng" fill-rule="evenodd" clip-rule="evenodd" d="M240 319L244 323L246 322L250 327V336L247 342L249 347L247 351L246 350L242 352V355L244 357L241 363L233 360L231 357L225 355L221 351V341L210 336L208 338L201 337L198 339L190 336L183 340L174 339L171 342H169L167 344L168 346L158 356L159 359L157 365L149 356L142 358L139 357L134 352L129 351V347L131 344L130 340L126 335L127 332L120 322L119 315L121 314L120 313L122 312V310L119 303L124 302L123 304L128 306L129 304H132L136 300L135 298H132L130 288L133 282L139 281L144 277L150 282L155 283L159 279L165 280L169 277L168 275L172 274L182 282L183 288L186 285L192 286L196 283L197 279L199 278L200 285L205 283L207 286L215 280H218L223 275V273H225L226 270L230 268L229 266H231L237 272L239 271L241 273L238 276V278H240L247 274L248 275L251 271H255L261 263L265 262L267 268L270 270L267 276L268 280L264 284V288L259 291V293L256 292L252 295V298L247 299L248 302L246 303V305L244 307L242 306V310L245 313L240 318V319Z" fill="#49E830" fill-opacity="0.5" stroke="#0000FF" stroke-opacity="0.4" stroke-linecap="round" stroke-linejoin="round"/>
<path class="district" id="1206" name="Đình Lập" fill-rule="evenodd" clip-rule="evenodd" d="M368 427L366 428L364 435H361L359 439L353 438L349 445L344 447L340 446L337 439L326 434L328 425L325 418L328 415L327 413L332 409L326 403L323 402L313 409L312 406L309 404L305 408L304 402L300 406H298L291 398V394H293L295 390L291 388L290 385L296 379L295 374H297L300 370L304 371L309 368L313 372L319 371L321 370L320 366L324 365L325 360L329 359L330 354L338 342L334 337L336 335V332L332 327V321L334 319L335 323L337 325L341 324L342 328L344 329L349 327V323L351 321L350 318L353 316L351 314L357 306L359 312L364 315L368 305H370L374 301H381L383 299L388 301L389 295L400 286L403 288L402 291L411 298L415 297L421 299L422 294L427 289L432 287L435 288V286L440 284L442 288L445 289V291L448 290L447 295L453 304L456 305L458 308L456 310L459 311L460 314H462L461 318L463 324L459 328L462 333L460 337L462 341L454 344H450L448 342L445 343L443 341L438 342L436 347L434 348V352L430 354L425 353L421 356L420 360L415 357L413 359L409 358L406 362L407 366H409L412 371H416L417 382L420 386L417 395L419 398L418 399L420 400L419 403L421 408L424 410V416L427 418L425 421L426 422L424 429L418 432L413 427L412 423L409 422L403 427H398L393 432L388 430L384 432L382 431L383 430H377L369 427H368Z" fill="#30E886" fill-opacity="0.5" stroke="#0000FF" stroke-opacity="0.4" stroke-linecap="round" stroke-linejoin="round"/>
<path class="district" id="1205" name="Hữu Lũng" fill-rule="evenodd" clip-rule="evenodd" d="M152 372L156 379L151 384L146 385V389L142 399H140L136 403L131 402L130 404L126 401L124 403H118L117 405L114 406L115 410L118 412L116 416L112 415L108 419L104 420L100 418L90 419L84 412L86 410V405L88 403L86 399L81 400L79 397L77 399L78 401H74L71 398L72 397H70L71 390L69 389L71 382L66 381L64 383L61 382L60 384L56 385L54 384L53 381H48L28 374V341L34 338L38 332L37 330L39 327L36 322L41 318V315L44 312L48 311L53 314L61 308L69 306L77 301L81 303L87 302L96 290L98 288H101L103 285L102 282L105 279H107L106 281L110 280L109 285L112 289L111 291L108 292L110 294L109 296L115 302H120L119 303L121 305L122 312L119 315V320L124 330L127 332L126 335L131 343L129 351L137 353L141 358L149 356L153 359V362L157 365L151 370L152 372Z" fill="#30DCE8" fill-opacity="0.5" stroke="#0000FF" stroke-opacity="0.4" stroke-linecap="round" stroke-linejoin="round"/>
<path class="district" id="1204" name="Lộc Bình" fill-rule="evenodd" clip-rule="evenodd" d="M276 372L277 369L280 370L281 366L279 363L276 362L273 355L265 354L260 356L253 351V348L247 351L249 347L247 343L250 336V327L246 322L244 323L240 319L245 313L242 310V306L244 307L246 305V303L248 302L247 299H250L254 293L258 292L259 294V291L263 288V286L268 280L267 276L270 270L267 268L273 262L275 255L285 242L292 244L297 242L310 243L316 247L323 244L325 245L332 243L334 251H338L345 256L354 258L361 257L367 264H372V266L377 271H379V273L382 276L387 277L391 281L394 280L400 285L395 289V291H393L389 295L388 301L383 299L381 301H375L373 303L368 304L367 310L364 315L359 312L357 306L355 307L353 312L351 313L353 316L350 317L351 320L349 323V327L345 329L342 328L341 325H337L335 323L334 319L332 321V326L336 332L334 336L338 342L333 352L330 353L329 358L325 360L324 365L320 366L321 370L314 372L310 370V368H307L305 371L300 370L297 374H295L296 379L291 383L286 380L276 379L274 381L272 374L276 372Z" fill="#306EE8" fill-opacity="0.5" stroke="#0000FF" stroke-opacity="0.4" stroke-linecap="round" stroke-linejoin="round"/>
<path class="district" id="1203" name="Tràng Định" fill-rule="evenodd" clip-rule="evenodd" d="M122 106L123 113L126 114L123 115L122 117L120 116L116 107L117 99L112 94L109 95L103 92L89 93L86 89L80 88L78 84L79 81L76 79L74 81L75 83L73 84L72 83L67 85L60 83L58 86L55 85L56 78L52 73L48 72L46 68H43L39 61L41 52L47 45L45 41L40 36L36 35L34 31L37 19L39 17V13L47 4H50L54 1L61 5L63 4L69 8L71 14L80 21L88 22L87 25L92 29L91 35L98 42L104 41L111 36L117 37L121 42H123L124 40H127L128 42H134L144 38L145 35L141 33L145 31L143 29L146 28L145 25L147 23L156 26L160 21L159 20L166 17H171L174 24L180 27L178 32L180 34L177 37H175L174 40H171L170 45L172 47L174 48V46H176L178 49H180V47L185 50L190 49V51L192 52L198 49L207 51L206 58L210 62L209 70H213L217 74L215 78L218 81L217 84L222 95L220 101L216 103L214 102V107L211 110V112L208 113L206 111L196 120L191 117L186 121L185 124L181 121L182 120L179 117L166 114L162 115V119L160 120L158 118L161 126L155 123L154 125L150 126L149 124L143 121L133 123V118L129 114V112L123 107L122 106Z" fill="#6130E8" fill-opacity="0.5" stroke="#0000FF" stroke-opacity="0.4" stroke-linecap="round" stroke-linejoin="round"/>
<path class="district" id="1202" name="Văn Lãng" fill-rule="evenodd" clip-rule="evenodd" d="M194 228L193 229L191 225L187 227L183 218L185 216L186 210L183 203L187 201L185 198L189 195L185 193L184 181V184L181 186L180 185L181 180H178L180 177L177 178L176 180L175 179V181L171 180L167 182L165 180L160 184L161 190L159 189L153 194H143L135 189L132 192L128 190L127 187L130 178L125 173V169L129 166L126 150L129 144L134 143L139 137L138 135L141 133L140 131L146 127L143 121L149 124V126L155 123L161 127L158 119L160 120L162 115L166 114L179 117L182 120L181 121L185 124L189 118L190 119L193 117L196 120L200 115L211 111L214 113L213 116H215L218 119H223V121L220 122V125L217 128L219 130V139L226 144V147L224 149V157L220 162V165L223 168L224 173L215 182V188L219 193V203L215 201L212 203L211 207L207 206V213H205L202 216L203 221L202 222L199 219L195 223L194 227V228Z" fill="#D030E8" fill-opacity="0.5" stroke="#0000FF" stroke-opacity="0.4" stroke-linecap="round" stroke-linejoin="round"/>
<path class="district" id="1201" name="Văn Quang" fill-rule="evenodd" clip-rule="evenodd" d="M110 280L114 277V254L116 247L119 246L116 244V237H118L121 234L122 235L130 232L133 230V226H137L141 222L144 223L146 216V218L150 215L161 216L163 214L161 210L162 204L156 205L155 203L151 202L146 203V193L148 195L150 193L153 194L159 189H161L160 183L165 180L167 182L171 180L174 181L180 177L178 179L181 182L180 184L181 186L184 184L183 181L185 183V193L189 195L185 198L187 200L186 202L183 203V205H185L186 208L185 215L183 218L185 220L186 227L191 225L192 229H205V231L211 234L217 231L219 237L221 236V234L222 237L227 242L226 247L220 248L216 247L215 245L209 246L212 250L205 256L200 258L196 265L201 271L200 274L202 276L197 278L196 283L192 286L187 285L183 288L182 282L172 274L168 275L169 277L165 280L159 279L156 283H153L145 279L144 277L143 279L134 282L131 285L130 291L131 296L136 299L128 306L123 304L124 302H115L110 296L108 292L111 291L112 289L109 286L110 281V280Z" fill="#E83092" fill-opacity="0.5" stroke="#0000FF" stroke-opacity="0.4" stroke-linecap="round" stroke-linejoin="round"/>
</g>
</svg>
