<svg width="596" height="371" viewBox="0 0 596 371" fill="none" xmlns="http://www.w3.org/2000/svg">
<g id="14" name="Quảng Ninh">
<path class="district" id="1413" name="Ba Chẽ" fill-rule="evenodd" clip-rule="evenodd" d="M269 204L270 206H273V208H278L281 210L285 207L290 206L292 198L303 194L307 191L310 192L315 188L322 194L326 192L327 193L328 187L333 182L335 175H337L333 171L334 167L329 155L330 149L329 146L327 145V141L323 142L318 137L314 138L315 137L312 135L298 132L297 128L301 123L297 118L293 119L288 114L287 110L284 109L278 114H273L268 119L263 117L259 119L257 118L258 117H252L246 114L241 115L239 122H236L234 126L228 125L224 132L217 134L218 138L213 144L209 146H202L195 150L196 154L200 157L199 166L197 167L198 173L203 172L204 174L212 170V172L218 177L221 188L227 181L234 177L236 172L245 168H253L257 171L267 170L270 172V174L273 176L274 175L280 181L283 182L277 188L274 194L270 197V203L269 204Z" fill="#0288D1" fill-opacity="0.49" stroke="#0288D1" stroke-width="2" stroke-linecap="round" stroke-linejoin="round"/>
<path class="district" id="1412" name="Bình Liêu" fill-rule="evenodd" clip-rule="evenodd" d="M366 86L377 87L381 83V81H387L388 77L396 73L395 67L397 64L393 58L396 55H407L408 58L409 57L414 59H418L423 55L422 51L425 45L423 42H428L429 35L425 28V25L420 24L417 20H414L413 22H408L404 31L401 29L397 31L395 29H387L382 27L387 21L382 16L381 4L376 1L361 8L357 12L358 13L354 16V18H352L349 21L350 23L345 28L337 26V28L329 31H325L323 29L320 30L318 28L313 29L311 34L309 35V39L305 41L309 48L307 50L309 54L315 60L320 59L321 63L327 67L329 70V79L330 78L337 81V87L347 90L344 85L351 78L365 80L366 85V86Z" fill="#817717" fill-opacity="0.47" stroke="#817717" stroke-width="2" stroke-linecap="round" stroke-linejoin="round"/>
<g class="district" id="1411" name="Cẩm Phả">
<path fill-rule="evenodd" clip-rule="evenodd" d="M284 279L283 280L285 279H284ZM284 275L283 274L281 276L280 280H283V276L284 277L285 274L284 275ZM289 271V273L290 271H289ZM297 267L296 266V268L298 267H297ZM297 264L296 262L301 263L305 260L310 263L311 261L313 262V264L316 265L317 262L316 264L318 263L324 266L328 264L329 261V263H332L340 255L339 254L342 250L339 245L341 238L339 232L344 227L342 225L346 221L350 213L357 206L355 200V190H344L341 189L339 186L341 174L335 175L333 181L327 189V193L326 192L323 194L315 188L310 192L308 191L295 198H292L290 205L294 206V213L304 220L301 224H290L289 227L285 228L283 234L280 237L281 242L279 243L278 248L274 249V251H272L273 250L269 252L270 265L266 277H268L274 283L275 281L280 284L277 280L279 276L277 277L285 272L287 268V271L289 270L290 266V268L292 266L291 265L293 267L295 262L296 264H297ZM318 264L316 265L319 264H318ZM331 264V266L330 265L331 264ZM334 263L333 262L334 264V263Z" fill="#0F9D58" fill-opacity="0.52"/>
<path d="M320 267L319 266M291 270V271M295 269H296M293 268L294 267L295 268M288 275H287M283 280L284 279H285L283 280ZM283 280H280L281 276L283 274L284 275L285 274L284 277L283 276V280ZM285 280L286 279M293 273H294M291 274L290 273M290 271L289 273V271H290ZM290 271V272M290 274V275M288 274H287M293 271H292M338 262H337L338 263M339 261V262M339 260L338 261M337 266H336M335 265H334M333 266L334 267M332 266L331 265H332M316 265L313 264V262L311 261L310 263L305 260L301 263L296 262L297 264H296L295 262L293 267L291 265L292 266L290 268V266L289 270L287 271V268L285 272L277 277L279 276L277 280L280 284L275 281L274 283L268 277H266L270 265L269 252L273 250L272 251H274V249L278 248L279 243L281 242L280 237L283 234L285 228L289 227L290 224H301L304 220L294 213V206L290 205L292 198H295L308 191L310 192L315 188L323 194L326 192L327 193V189L333 181L335 175L341 174L339 186L341 189L344 190H355V200L357 206L350 213L346 221L342 225L344 227L339 232L341 238L339 245L342 250L339 254L340 255L332 263H329V261L328 264L324 266L318 263L316 264L317 262L316 265ZM316 265L318 264H319L316 265ZM299 264L298 265M297 267L296 266V268L298 267H297ZM331 264V266L330 265L331 264ZM334 263L333 262L334 264V263Z" stroke="#0F9D58" stroke-width="2" stroke-linecap="round" stroke-linejoin="round"/>
</g>
<g class="district" id="1410" name="Cô Tô">
<path fill-rule="evenodd" clip-rule="evenodd" d="M517 243L514 246L512 244L509 245L508 249H506L502 254L499 260V270L501 269V267H505V263L510 261V258L518 251H520L518 244L517 243ZM505 246V249L506 246H505ZM492 270V272L494 271L492 270ZM490 269L492 266L482 255L476 252L471 260L474 262V265H477L481 268L483 274L480 275L474 284L477 283L479 279L484 278L490 272L489 269H490ZM521 237L519 240H521V238V237ZM488 232L486 234L487 235L488 232ZM507 220L505 222L507 221V220ZM504 216L498 220L499 221L504 217V216ZM489 241L483 244V249L488 248L490 246V242L489 241ZM496 208L494 210H496V208ZM521 203L520 204L522 207V204L521 203ZM576 184L573 186L576 187V185V184ZM574 180V182L575 180H574ZM560 164L554 165L551 168L552 170L562 171V167L560 164ZM519 198L515 202L520 198H519ZM522 196L519 197L522 198L521 197L522 196ZM514 206L515 209V206H514Z" fill="#3949AB" fill-opacity="0.49"/>
<path d="M495 247V248M498 266L497 267M481 241V242M516 240V241M497 210L498 211M513 203V204M497 207V208M518 210H519M517 243L514 246L512 244L509 245L508 249H506L502 254L499 260V270L501 269V267H505V263L510 261V258L518 251H520L518 244L517 243ZM505 246V249L506 246H505ZM492 270V272L494 271L492 270ZM490 269L492 266L482 255L476 252L471 260L474 262V265H477L481 268L483 274L480 275L474 284L477 283L479 279L484 278L490 272L489 269H490ZM521 237L519 240H521V238V237ZM488 232L486 234L487 235L488 232ZM507 220L505 222L507 221V220ZM504 216L498 220L499 221L504 217V216ZM489 241L483 244V249L488 248L490 246V242L489 241ZM496 208L494 210H496V208ZM521 203L520 204L522 207V204L521 203ZM576 184L573 186L576 187V185V184ZM574 180V182L575 180H574ZM560 164L554 165L551 168L552 170L562 171V167L560 164ZM519 198L515 202L520 198H519ZM522 196L519 197L522 198L521 197L522 196ZM514 206L515 209V206H514Z" stroke="#3949AB" stroke-width="2" stroke-linecap="round" stroke-linejoin="round"/>
</g>
<g class="district" id="1409" name="Đầm Hà">
<path fill-rule="evenodd" clip-rule="evenodd" d="M431 171H429L430 172L431 171ZM439 166L434 169L437 170V168L439 167V166ZM423 170L416 174L421 173L424 170H423ZM438 159L433 162L432 161V163L421 167V169L429 166L426 168L428 169L427 170H429L433 165L439 162L433 164L440 160L438 159ZM404 157L405 155L400 158H402L401 159L404 161V157ZM404 157L406 159L410 157L408 159L409 160L406 161L409 162L410 160L411 161V159H419V157L414 155V153H409L407 155L406 154L405 156L404 157ZM430 151L429 152L431 151H430ZM398 150L399 151L396 152L398 158L400 157L402 155L399 154L403 155L402 153L405 154L409 152L407 150L404 152L399 150H398ZM445 142V140L444 142H445ZM435 149L434 148L435 150V149ZM415 148L414 149L417 150L415 147V148ZM414 147H417V149H419L421 147L424 148L427 146L426 145L430 142L429 140L432 139L435 135V132L441 126L439 125L441 124L438 122L437 123H442L441 118L443 117L440 115L434 105V103L437 101L432 98L429 92L430 91L428 89L430 86L421 77L403 66L395 67L396 73L392 74L389 77L388 81H381V83L377 87L376 90L379 94V100L377 104L378 107H380L379 110L384 115L388 112L390 113V116L393 120L397 121L396 126L403 134L407 146L411 149H413V147H414Z" fill="#E65100" fill-opacity="0.52"/>
<path d="M424 169L423 170M423 170L416 174L421 173L424 170H423ZM421 169L420 168M421 169V167L432 163V161L433 162L438 159L440 160L433 164L439 162L433 165L429 170H427L428 169L426 168L429 166L421 169ZM399 158H400M400 158L405 155L404 157M400 158H402L401 159L404 161M401 161H404M404 161V157M413 160L414 161M404 157L406 159L410 157L408 159L409 160L406 161L409 162L410 160L411 161V159H419V157L414 155V153H409L407 155L406 154L405 156L404 157ZM400 157L398 158L396 152L399 151L398 150H399L404 152L407 150L409 152L405 154L402 153L403 155L399 154L402 155L400 157ZM400 157L399 156M405 151H406M451 127V128M451 126L452 127V126M447 142H445M445 142V140L444 142H445ZM437 139H436M443 144H442M417 149H418M417 149V148M417 149V147M417 149H419L421 147L424 148L427 146L426 145L430 142L429 140L432 139L435 135V132L441 126L439 125L441 124L438 122L437 123H442L441 118L443 117L440 115L434 105V103L437 101L432 98L429 92L430 91L428 89L430 86L421 77L403 66L395 67L396 73L392 74L389 77L388 81H381V83L377 87L376 90L379 94V100L377 104L378 107H380L379 110L384 115L388 112L390 113V116L393 120L397 121L396 126L403 134L407 146L411 149H413M434 148H433M434 148L435 149V150L434 148ZM427 148H426M429 148L428 147M417 147H414H413V149M417 147L416 148M413 149L410 146M431 171H429L430 172L431 171ZM439 166L434 169L437 170V168L439 167V166ZM430 151L429 152L431 151H430ZM415 148L414 149L417 150L415 147V148Z" stroke="#E65100" stroke-width="2" stroke-linecap="round" stroke-linejoin="round"/>
</g>
<path class="district" id="1408" name="Đông Triều" fill-rule="evenodd" clip-rule="evenodd" d="M64 253H66L70 257L75 256L77 253L81 254V252L86 251L87 248L90 249V247H92L94 249H97L98 247H100L98 237H100L101 230L102 231L103 228L100 226L96 219H94L93 215L96 211L95 209H97L99 196L95 194L90 196L77 192L75 190L74 195H64L62 191H56L57 189L53 186H39L34 174L32 173L28 175L24 173V182L21 183L22 189L19 193L20 196L19 198H17L16 204H18V210L11 216H9L8 214L2 215L1 219L6 224L2 230L4 234H7V236L19 234L23 237V239L29 238L31 240L29 243H32L33 241L36 242L45 239H52L63 248V252L64 253Z" fill="#F9A825" fill-opacity="0.44" stroke="#F9A825" stroke-width="2" stroke-linecap="round" stroke-linejoin="round"/>
<g class="district" id="1407" name="Hạ Long">
<path fill-rule="evenodd" clip-rule="evenodd" d="M201 284L195 286L197 288V294L201 295L204 288L202 284H201ZM255 285L259 284L262 290L265 289L266 287L278 286L280 284L276 281L275 283L271 281L268 277H266L270 265L269 253L272 250L274 251V249L278 248L279 243H281L280 238L286 227H288L290 224H301L304 220L294 213V207L292 205H290L289 207H285L281 210L278 208L273 209V206L269 205L271 201L270 198L277 188L282 184V181H280L274 175L273 176L267 170L257 171L255 169L245 168L236 172L234 177L230 179L221 188L219 185V179L212 173V170L205 174L204 172L194 173L192 179L190 180L189 186L186 187L185 193L182 195L175 189L169 191L163 189L160 193H156L154 192V188L142 187V196L147 203L149 210L147 215L149 217L145 218L147 224L143 232L150 238V240L148 244L145 245V248H156L160 252L169 247V251L164 257L167 262L165 265V271L167 273L174 274L178 277L177 281L184 290V287L191 283L192 280L198 279L201 283L199 279L200 278L203 280L212 279L214 280H212L214 282H216L227 277L233 282H235L236 280L241 281L246 285L252 286L254 285L253 284L255 282L254 285H255Z" fill="#F57C00" fill-opacity="0.5"/>
<path d="M188 293V292H189M280 287H279M280 285H279M261 291V290M254 285L252 286L246 285L241 281L236 280L235 282H233L227 277L216 282H214L212 280H214L212 279L203 280L200 278L199 279L201 283L198 279L192 280L191 283L184 287V290L177 281L178 277L174 274L167 273L165 271V265L167 262L164 257L169 251V247L160 252L156 248H145V245L148 244L150 240V238L143 232L147 224L145 218L149 217L147 215L149 210L147 203L142 196V187L154 188V192L156 193H160L163 189L169 191L175 189L182 195L185 193L186 187L189 186L190 180L192 179L194 173L204 172L205 174L212 170V173L219 179V185L221 188L230 179L234 177L236 172L245 168L255 169L257 171L267 170L273 176L274 175L280 181H282V184L277 188L270 198L271 201L269 205L273 206V209L278 208L281 210L285 207H289L290 205H292L294 207V213L304 220L301 224H290L288 227H286L280 238L281 243H279L278 248L274 249V251L272 250L269 253L270 265L266 277H268L271 281L275 283L276 281L280 284L278 286L266 287L265 289L262 290L259 284L255 285H254ZM254 285L253 284L255 282L254 285ZM259 285V287M201 284L195 286L197 288V294L201 295L204 288L202 284H201Z" stroke="#F57C00" stroke-width="2" stroke-linecap="round" stroke-linejoin="round"/>
</g>
<g class="district" id="1406" name="Hải Hà">
<path fill-rule="evenodd" clip-rule="evenodd" d="M453 159L451 160H453V159ZM441 154L439 156L440 157L442 155L441 154ZM493 145H487L480 147L479 149L480 151L488 146L493 147L495 145H493ZM462 152L461 153L463 152H462ZM447 150V152L445 151L442 154V156L449 151L447 150ZM461 144L454 146V148L451 147L449 149L450 153L446 154L443 157L455 150L461 144ZM503 121L496 123L490 128H488L485 131H487L486 132H481L462 143H467L470 139L473 140L472 143L480 138L481 139L482 137L492 133L499 126L505 123L503 122V121ZM471 124H469L470 126L471 124ZM481 116H477L476 119H483V117L481 116ZM486 109H483V111L485 112V109H486ZM478 105L480 103L479 100L481 101L480 99L483 95L482 96L481 94V92H483V87L488 84L492 78L499 77L498 68L487 61L484 62L481 52L477 50L478 48L474 44H472V32L475 28L474 21L478 11H475L473 14L468 15L466 18L453 23L450 21L443 24L428 23L425 25V28L429 35L428 42H424L425 45L422 50L423 54L418 59L409 57L408 58L407 55H396L393 58L394 62L397 64L395 66H402L409 71H412L421 77L430 86L428 89L432 97L437 101L434 104L440 115L443 117L446 116L445 117L447 118L449 116L448 114L449 115L454 111L455 112V110H463L466 109L467 107L474 106L476 104L478 105Z" fill="#795548" fill-opacity="0.56"/>
<path d="M458 156L455 157M454 157V158M456 131V132M456 127H457M458 125H457M470 123V122M490 86H489M453 159L451 160H453V159ZM441 154L439 156L440 157L442 155L441 154ZM493 145H487L480 147L479 149L480 151L488 146L493 147L495 145H493ZM462 152L461 153L463 152H462ZM447 150V152L445 151L442 154V156L449 151L447 150ZM461 144L454 146V148L451 147L449 149L450 153L446 154L443 157L455 150L461 144ZM503 121L496 123L490 128H488L485 131H487L486 132H481L462 143H467L470 139L473 140L472 143L480 138L481 139L482 137L492 133L499 126L505 123L503 122V121ZM471 124H469L470 126L471 124ZM481 116H477L476 119H483V117L481 116ZM486 109H483V111L485 112V109H486ZM478 105L480 103L479 100L481 101L480 99L483 95L482 96L481 94V92H483V87L488 84L492 78L499 77L498 68L487 61L484 62L481 52L477 50L478 48L474 44H472V32L475 28L474 21L478 11H475L473 14L468 15L466 18L453 23L450 21L443 24L428 23L425 25V28L429 35L428 42H424L425 45L422 50L423 54L418 59L409 57L408 58L407 55H396L393 58L394 62L397 64L395 66H402L409 71H412L421 77L430 86L428 89L432 97L437 101L434 104L440 115L443 117L446 116L445 117L447 118L449 116L448 114L449 115L454 111L455 112V110H463L466 109L467 107L474 106L476 104L478 105Z" stroke="#795548" stroke-width="2" stroke-linecap="round" stroke-linejoin="round"/>
</g>
<g class="district" id="1405" name="Móng Cái">
<path fill-rule="evenodd" clip-rule="evenodd" d="M544 120L547 122H551L552 119L558 113L563 110L564 111L566 109H569V107L572 106H556L535 112H521L507 119L513 118L516 115L520 117L517 118L518 121H525L515 124L516 125H514L516 121L514 122L515 123L512 127L514 129L526 122L535 120L537 122L536 121L540 120L544 121V120ZM584 61L583 64L590 62H586L584 61ZM587 51L583 48L584 50L587 51ZM527 99L519 107L524 106L526 103L528 105L532 107L533 105V107L536 105V103H534L536 101L530 100L528 102L530 99H526H527ZM556 91L557 94L555 93L556 95H558L556 91ZM554 91V89V92V91ZM518 81L531 80L530 82H533L529 83L528 87L530 88L527 89L531 91L532 88L531 93L534 94L535 92V95H539L537 96L538 98L539 97L538 101L539 100L543 105H545L544 103L546 102L545 105H549V103L553 104V101H555L552 95L553 89L557 87V92L560 90L559 92L562 91L567 82L571 79L579 74L591 72L595 69L588 68L581 71L579 69V67L582 66L579 63L582 65L583 63L579 62V60L584 59H581L583 57L581 54L582 53L586 56L588 55L583 50V47H568L564 49L562 48L557 52L552 50L548 40L549 39L541 31H534L532 28H530V24L527 23L530 20L528 18L529 17L528 15L525 14L523 8L517 5L516 7L513 8V10H511L506 5L505 6L503 4H498L495 6L492 5L489 8L483 10H479L476 20H474L475 28L472 31V44H474L478 48L477 50L481 52L484 61H487L498 68L499 77L506 78V81L510 87L509 92L515 81H518Z" fill="#673AB7" fill-opacity="0.47"/>
<path d="M514 114V115M584 61L583 64L590 62H586L584 61ZM584 61H585M583 63L582 62M583 63L582 65L579 63L582 66L579 67V69L581 71L588 68L595 69L591 72L579 74L571 79L567 82L562 91L559 92L560 90L557 92V87M583 63L579 62V60L584 59H581L583 57L581 54L582 53L586 56L588 55L583 50V47H568L564 49L562 48L557 52L552 50L548 40L549 39L541 31H534L532 28H530V24L527 23L530 20L528 18L529 17L528 15L525 14L523 8L517 5L516 7L513 8V10H511L506 5L505 6L503 4H498L495 6L492 5L489 8L483 10H479L476 20H474L475 28L472 31V44H474L478 48L477 50L481 52L484 61H487L498 68L499 77L506 78V81L510 87L509 92L515 81H518L531 80L530 82H533L529 83L528 87L530 88L527 89L531 91L532 88L531 93L534 94L535 92V95H539L537 96L538 98L539 97L538 101L539 100L543 105H545M536 98L537 99M554 92L555 97M554 92V89V91M554 92V91M528 105L526 103L524 106L519 107L527 99H526H530L528 102M528 105V102M528 105L532 107L533 105V107L536 105V103H534L536 101L530 100L528 102M534 99H533M559 94H560M558 93V92M556 90L557 89M557 90V88V87M557 87L553 89L552 95L555 101H553V104L549 103V105H545M553 90L554 91M545 105L544 103L546 102L545 105ZM544 120L547 122H551L552 119L558 113L563 110L564 111L566 109H569V107L572 106H556L535 112H521L507 119L513 118L516 115L520 117L517 118L518 121H525L515 124L516 125H514L516 121L514 122L515 123L512 127L514 129L526 122L535 120L537 122L536 121L540 120L544 121V120ZM587 51L583 48L584 50L587 51ZM556 91L557 94L555 93L556 95H558L556 91Z" stroke="#673AB7" stroke-width="2" stroke-linecap="round" stroke-linejoin="round"/>
</g>
<g class="district" id="1404" name="Quảng Yên">
<path fill-rule="evenodd" clip-rule="evenodd" d="M157 314L158 308L164 299L171 298V296L186 297L187 294L186 295L184 293V290L177 282L178 277L174 274H170L165 271V265L167 263L164 257L169 251V248L167 247L160 252L156 248L155 249L147 247L142 256L133 255L131 266L128 269L121 271L122 295L115 308L121 321L126 325L139 328L145 334L158 326L157 318V314Z" fill="#9C27B0" fill-opacity="0.47"/>
<path d="M188 297V296M186 294V293M186 295L187 294L186 297L171 296V298L164 299L158 308L157 314V318L158 326L145 334L139 328L126 325L121 321L115 308L122 295L121 271L128 269L131 266L133 255L142 256L147 247L155 249L156 248L160 252L167 247L169 248V251L164 257L167 263L165 265V271L170 274H174L178 277L177 282L184 290V293L186 295Z" stroke="#9C27B0" stroke-width="2" stroke-linecap="round" stroke-linejoin="round"/>
</g>
<path class="district" id="1403" name="Tiên Yên" fill-rule="evenodd" clip-rule="evenodd" d="M360 179L368 168L367 162L369 155L371 153L377 152L388 154V147H407L403 134L396 127L397 122L390 116L389 112L387 114H384L379 110L381 107L380 108L377 104L379 100V95L376 90L377 87L366 86L365 80L359 78L358 80L356 78H352L347 81L344 85L347 90H341L339 87H337L338 85L336 80L330 78L329 79L330 72L327 67L321 63V60L313 59L307 50L309 48L305 41L300 40L296 43L295 47L290 44L288 46L284 45L281 49L282 53H284L287 58H291L292 69L294 70L295 73L292 82L294 85L293 86L295 87L294 90L296 95L299 97V103L302 105L300 108L301 109L299 116L297 118L301 122L297 128V131L310 136L314 135V137H318L323 141H327V145L329 146L330 149L329 155L334 167L333 170L336 175L341 174L339 186L340 189L346 190L356 184L360 179Z" fill="#C2185B" fill-opacity="0.39" stroke="#C2185B" stroke-width="2" stroke-linecap="round" stroke-linejoin="round"/>
<path class="district" id="1402" name="Uông Bí" fill-rule="evenodd" clip-rule="evenodd" d="M145 248V245L148 244L150 240L148 235L143 232L147 224L145 218L149 217L147 215L150 210L147 203L140 200L129 203L108 198L105 199L99 196L97 209H95L96 211L93 214L94 219H96L99 226L103 228L102 231L101 230L100 237H98L100 246L97 249H94L92 247H90V249L87 248V250L81 252V254L91 259L99 261L114 262L118 265L121 271L131 266L130 262L132 261L133 255L142 256L145 253L146 248H145Z" fill="#0288D1" fill-opacity="0.49" stroke="#0288D1" stroke-width="2" stroke-linecap="round" stroke-linejoin="round"/>
<g class="district" id="1401" name="Vân Đồn">
<path fill-rule="evenodd" clip-rule="evenodd" d="M377 362L368 370H373L377 366V362ZM349 355L346 360L350 359V356L349 355ZM384 348L378 353V355L380 356L385 348H384ZM354 335L351 338V347L354 348L355 351V349H357L359 340L354 336V335ZM327 334L326 335H328L327 334ZM319 326V328L320 326H319ZM336 320L335 325L337 327V321L336 320ZM328 318L327 319L330 327L329 328L331 337H340L339 335L344 341L346 339L344 338V327L343 330H341L337 328L335 326L334 324L333 331L332 323L328 319V318ZM347 320L346 321H348L347 320ZM357 317L355 319L356 320L357 318V317ZM331 317L330 320L331 321L332 319L331 317ZM373 310L376 314L374 311L373 310ZM315 313L316 315L315 314V313ZM374 301L377 304L376 301H374ZM340 315L341 314V316L345 313H348L341 309H349V307H347L346 305L347 304H345L346 308L343 306L344 305L342 303L340 304L341 305H337L334 303L332 306L328 302L325 303V308L327 311L328 307L331 305L330 308L332 314H335V316L339 315H340ZM312 297L319 308L323 310L322 311V308L315 299L312 297ZM348 302L347 303H349L348 302ZM311 298L310 299H312L311 298ZM319 294L317 297L319 304L321 306L322 305L323 307L320 294H319ZM322 296L325 299L323 297L322 296ZM348 282L349 281H347L348 282H346L344 285L348 283V282ZM346 274L344 277H341L337 282L332 284L331 286L329 283H325L323 284L324 285L321 284L320 286V283L318 286L323 289L325 288L333 290L339 287L346 280L348 276H346V278V275V274ZM403 292L410 287L406 281L409 273L401 279L399 284L400 285L393 298L394 294L390 295L389 297L388 296L379 302H382L379 303L378 306L384 309L385 311L384 315L381 317L382 318L377 329V333L381 331L386 315L389 310L394 306L402 293L403 292ZM367 298L359 302L357 303L363 306L366 305L370 301L368 299L367 298ZM334 300L332 301H334V300ZM330 300L332 305L334 303L331 302L332 301L330 302V300ZM340 299L338 300L343 301L341 300L340 299ZM344 298L352 294L353 295L361 290L369 281L371 274L369 273L361 280L360 283V281L358 283L355 291L346 293L339 297L331 298L342 299L344 298ZM322 289H320L319 291L327 293L329 295L333 294L330 291L325 290L322 289ZM364 274L362 276L364 275V274ZM398 242L397 240V242H398ZM455 175L459 170L458 169L454 175H455ZM450 186L451 181L454 178L453 177L450 179L448 185H446L444 190L445 207L448 205L447 198L450 189V186ZM442 207H440V209L442 207ZM420 202V200L417 203V205L419 203L420 202ZM431 194L434 187L433 186L430 194H431ZM419 178L420 177L412 181L416 179L419 178ZM435 212L419 233V247L414 252V257L411 260L412 265H414L411 267V273L416 269L420 251L424 245V242L428 235L427 233L430 228V224L435 214V212ZM408 234L405 238V240L408 241V234ZM404 238L403 237V239L404 238ZM403 240L401 238L402 240H403ZM389 237L388 238L390 237H389ZM418 225L417 228L418 226V225ZM389 224L387 225H389V224ZM419 221L418 224L420 222L419 221ZM416 226V228L417 227L416 226ZM385 226V228L386 226H385ZM414 234L413 235L415 237V235L414 234ZM384 237L385 236L383 237H384ZM394 235L390 236H394V235ZM368 234L366 236H368V234ZM392 232L390 231L389 234V232L386 233L389 235L390 233L393 234V232H392ZM415 228V231L416 230L415 228ZM383 228L382 229L385 228H383ZM427 212V214L428 212H427ZM402 219L401 218L402 220V219ZM417 217L418 212L411 217L407 215L404 219V223L400 224L401 226L403 225L399 227L400 228L398 226L397 227L398 230L401 231L400 232L402 236L410 230V228L403 227L412 228L417 218V217ZM418 209L417 206L414 209L412 208L413 207H411L408 213L411 215L416 210L418 209ZM361 263L360 262V264L361 263ZM344 258L343 260H345V258H344ZM358 270L357 271L359 270H358ZM357 270L356 269L358 270H357ZM367 269H365L367 271V269ZM395 290L401 273H399V271L400 270V272H402L403 269L401 266L403 268L406 267L405 266L407 263H405L403 259L405 258L404 254L406 252V249L408 250L410 246L408 243H406V248L401 256L399 254L401 251V245L394 252L391 260V254L387 261L382 266L383 268H379L383 271V269H385L378 283L377 282L361 294H358L356 297L350 299L349 303H354L355 300L371 293H373L374 295L369 297L374 298L379 295L380 296L382 294L383 295L386 293H391V291H394L395 290ZM380 274L381 273L379 270L367 287H369L373 282L378 279L380 275V274ZM367 242L366 243L368 242H367ZM393 249L392 248L393 250V249ZM360 247L359 249L362 248H360L361 247H360ZM388 246H386L387 247L388 245V246ZM405 245H403L404 248V246L405 245ZM398 233L396 236L393 239H391L387 243V245H385H389L391 243L390 244H392V242L390 241L393 243L397 239L400 240L398 238L401 237L400 234L398 236V234H400L399 233H398ZM359 238L363 236H361V234L366 233H364V231L365 232L370 227V230H372L373 228L374 229L377 223L378 224V222L382 220L384 217L392 213L394 210H396L402 205L403 206V204L407 202L406 201L409 200L411 198L410 197H412L415 192H417V190L418 191L422 187L424 182L427 180L428 175H424L420 179L414 181V183L412 184V181L408 184L407 183L406 184L408 186L406 187L407 186L403 184L405 186L403 185V188V186H401L400 183L399 184L394 180L399 183L401 181L399 179L398 180V178H400L396 174V172L394 173H392L394 172H391V170H393L389 168L390 167L388 165V154L377 152L369 154L367 170L356 184L346 190H355V200L357 206L350 213L346 221L342 225L344 226L339 231L341 237L339 245L342 250L345 245L350 242L352 243L359 238ZM368 259V257L369 259H368ZM373 255L372 254V256L373 255ZM368 251L364 256L365 257L368 251ZM369 253L370 252L369 254V253ZM349 249L347 246H345L344 254L347 249H349ZM404 250V248L402 247L403 249H401V252L404 250ZM372 252L371 249V252H372ZM355 249L354 250L356 249H355ZM358 250V248L357 250H358ZM384 250L383 248L385 250H384Z" fill="#FBC02D" fill-opacity="0.71"/>
<path d="M343 357V358M346 343V344M362 342L363 343M381 338V339M327 327V328M316 322V323M325 325V326M335 326L337 328L341 330H343L344 327V338L346 339L344 341L339 335L340 337H331L329 328L330 327L327 319L328 318V319L332 323L333 331L334 324L335 326ZM335 326L336 325M326 322V323M323 321H324M310 310L311 309V310M316 311V313M315 310V311M373 313V314M318 312V313M322 313L323 314M351 308H350M349 310H350M317 309V310M319 310L320 311M314 309L313 310M309 298H310M336 301L337 302M326 301V300L327 299M347 304L346 305L347 307H349V309H341L348 313H345L341 316V314L340 315H339L335 316V314H332L330 308L331 305L328 307L327 311L325 308V303L328 302L332 306L334 303M347 304H345L346 308L343 306L344 305L342 303M347 304H348M342 303L340 304L341 305H337L334 303M342 303V302M334 303L332 305L330 300V302L332 301M334 303L331 302L332 301M349 303H347L348 302L349 303ZM349 303L350 299L356 297L358 294H361L377 282L378 283L385 269H383V271L379 268H383L382 266L387 261L391 254V260L394 252L401 245V251L399 254L401 256L406 248V243H408L410 246M349 303H354L355 300L371 293H373L374 295L369 297L374 298L379 295L380 296L382 294L383 295L386 293H391V291H394L395 290L401 273H399V271L400 270V272H402L403 269L401 266L403 268L406 267L405 266L407 263H405L403 259L405 258L404 254L406 252V249L408 250L410 246M314 294V295M313 296V295M316 292V293V294M319 293V294M319 294L317 297L319 304L321 306L322 305L323 307L320 294H319ZM325 299V300M325 299L322 296L323 297L325 299ZM316 296H317M323 294H324M317 292L318 293M336 272L337 273M351 290H350M364 289L362 290M327 281H324M366 287L365 288M350 287H349M349 283V286M348 282L349 281M348 282L347 281H349M348 282H346L344 285L348 283V282ZM349 281L348 280H349M359 302L367 298L368 299L370 301L366 305L363 306L357 303L359 302ZM359 302L358 301M332 301L334 300V301H332ZM346 292L345 293M344 293H342M343 299L344 300M326 298V299M329 298H330M341 294H338M325 279H326M334 278L333 279M327 277V278M328 277V278M339 276V275L341 273M333 274V275M347 278L348 279M364 273V274M364 274L362 276L364 275V274ZM354 275L353 274M410 246V247M358 243V242L357 243M361 241V242M368 240L367 241M377 241L376 240M365 239H363M386 239H387M366 239H367M373 239L374 238H375M385 239H384M412 181L420 177L419 178L416 179L412 181ZM412 181V184L414 183V181L420 179L424 175H428L427 180L424 182L422 187L418 191L417 190V192H415L412 197H410L411 198L409 200L406 201L407 202L403 204V206L402 205L396 210H394L392 213L384 217L382 220L378 222V224L377 223L374 229L373 228L372 230H370V227L365 232L364 231V233H366L361 234V236H363L359 238L352 243L350 242L345 245L342 250L339 245L341 237L339 231L344 226L342 225L346 221L350 213L357 206L355 200V190H346L356 184L367 170L369 154L377 152L388 154V165L390 167L389 168L393 170H391V172H394L392 173H394M412 181L408 184L407 183L406 184L408 186L406 187L407 186L403 184L405 186L403 185V188V186H401L400 183L399 184L394 180L399 183L401 181L399 179L398 180V178H400L396 174V172L394 173M401 182V183M420 210L421 209M364 237L363 238M369 236L368 237M377 238V237M390 237L388 238L389 237H390ZM390 237H391M394 227H393M385 228V226H386L385 228ZM385 228L382 229M385 228H383L382 229M371 228H370M412 235L413 236M397 233H396M370 233L371 232M364 234H365M378 235H379V234M406 235H405M391 234H390M381 230V229H382M388 230V231M383 230H382M429 217H430M429 212L428 211L427 212M426 213V215M427 212V214L428 212H427ZM424 217L423 218M403 215V217M406 216H405M376 269V270M358 269V270M358 270L357 271L359 270H358ZM358 270L356 269L357 270H358ZM345 268H346M356 267L355 266M361 268V269M366 268H364M353 268H354V269H352M347 266V267M357 266H356M352 265H351V264M352 263L353 264M344 263V262H343M355 259V258M362 261V262M355 262H354M348 262H347M348 261H349M360 261H361M375 272V273M366 272L365 273M350 271L351 272M360 272V271M367 271H366M367 271L365 269H367V271ZM364 271H362M343 270V269M365 270H364M377 270V267M368 273L369 272M356 244H355M360 242V243M365 242L364 243M357 246L358 245M392 244V245M392 244H390L391 243L389 245H385H387V243L391 239H393L396 236L398 233M392 244V242L390 241L393 243L397 239L400 240L398 238L401 237L400 234M391 245H390M382 250H381M381 249V248M352 247L353 248M364 248V247M363 248V246M385 247V248M389 247L390 246M394 246V247M404 248L403 245H405L404 246V248ZM404 248V250L401 252M404 248L402 247L403 249H401V252M398 233L397 232M398 233H399L400 234M400 234L398 236V234H400ZM394 173V175M346 258H347M352 258H351M365 257V258M365 257L364 256L368 251M365 257L368 251M379 254H378M370 253V254M404 251H403M402 253L401 252M362 253L361 252L362 251M373 253V254M369 253H368M369 253L370 252L369 254M369 253V254M381 252H382L383 253M360 252H359M378 251H379V250M374 252V250M380 256H379M354 255V256V257M368 255H369V254M366 258V256M359 257L360 256M366 254H365M367 250L368 251M369 250H368M377 362L368 370H373L377 366V362ZM349 355L346 360L350 359V356L349 355ZM384 348L378 353V355L380 356L385 348H384ZM354 335L351 338V347L354 348L355 351V349H357L359 340L354 336V335ZM327 334L326 335H328L327 334ZM319 326V328L320 326H319ZM336 320L335 325L337 327V321L336 320ZM347 320L346 321H348L347 320ZM357 317L355 319L356 320L357 318V317ZM331 317L330 320L331 321L332 319L331 317ZM373 310L376 314L374 311L373 310ZM315 313L316 315L315 314V313ZM374 301L377 304L376 301H374ZM312 297L319 308L323 310L322 311V308L315 299L312 297ZM311 298L310 299H312L311 298ZM346 274L344 277H341L337 282L332 284L331 286L329 283H325L323 284L324 285L321 284L320 286V283L318 286L323 289L325 288L333 290L339 287L346 280L348 276H346V278V275V274ZM403 292L410 287L406 281L409 273L401 279L399 284L400 285L393 298L394 294L390 295L389 297L388 296L379 302H382L379 303L378 306L384 309L385 311L384 315L381 317L382 318L377 329V333L381 331L386 315L389 310L394 306L402 293L403 292ZM340 299L338 300L343 301L341 300L340 299ZM344 298L352 294L353 295L361 290L369 281L371 274L369 273L361 280L360 283V281L358 283L355 291L346 293L339 297L331 298L342 299L344 298ZM322 289H320L319 291L327 293L329 295L333 294L330 291L325 290L322 289ZM398 242L397 240V242H398ZM455 175L459 170L458 169L454 175H455ZM450 186L451 181L454 178L453 177L450 179L448 185H446L444 190L445 207L448 205L447 198L450 189V186ZM442 207H440V209L442 207ZM420 202V200L417 203V205L419 203L420 202ZM431 194L434 187L433 186L430 194H431ZM435 212L419 233V247L414 252V257L411 260L412 265H414L411 267V273L416 269L420 251L424 245V242L428 235L427 233L430 228V224L435 214V212ZM408 234L405 238V240L408 241V234ZM404 238L403 237V239L404 238ZM403 240L401 238L402 240H403ZM418 225L417 228L418 226V225ZM389 224L387 225H389V224ZM419 221L418 224L420 222L419 221ZM416 226V228L417 227L416 226ZM414 234L413 235L415 237V235L414 234ZM384 237L385 236L383 237H384ZM394 235L390 236H394V235ZM368 234L366 236H368V234ZM392 232L390 231L389 234V232L386 233L389 235L390 233L393 234V232H392ZM415 228V231L416 230L415 228ZM402 219L401 218L402 220V219ZM417 217L418 212L411 217L407 215L404 219V223L400 224L401 226L403 225L399 227L400 228L398 226L397 227L398 230L401 231L400 232L402 236L410 230V228L403 227L412 228L417 218V217ZM418 209L417 206L414 209L412 208L413 207H411L408 213L411 215L416 210L418 209ZM361 263L360 262V264L361 263ZM344 258L343 260H345V258H344ZM380 274L381 273L379 270L367 287H369L373 282L378 279L380 275V274ZM367 242L366 243L368 242H367ZM393 249L392 248L393 250V249ZM360 247L359 249L362 248H360L361 247H360ZM388 246H386L387 247L388 245V246ZM368 259V257L369 259H368ZM373 255L372 254V256L373 255ZM349 249L347 246H345L344 254L347 249H349ZM372 252L371 249V252H372ZM355 249L354 250L356 249H355ZM358 250V248L357 250H358ZM384 250L383 248L385 250H384Z" stroke="#FBC02D" stroke-width="2" stroke-linecap="round" stroke-linejoin="round"/>
</g>
</g>
</svg>
