<svg width="777" height="436" viewBox="0 0 777 436" fill="none" xmlns="http://www.w3.org/2000/svg">
<g id="15" name="Hải Phòng">
<path id="1514" class="district" name="Đồ Sơn" fill-rule="evenodd" clip-rule="evenodd" d="M398.284 362.421H400.918V365.06L396.967 363.74L398.284 362.421ZM375.912 328.109L378.543 330.748L377.226 332.07L382.492 334.708L379.86 342.625L381.176 346.586H386.439L393.02 355.821L386.439 357.141L385.123 354.503L387.756 353.183L383.807 349.225H379.86L377.226 343.944L378.543 338.666L375.912 336.028L369.331 334.708L371.962 330.748L370.646 329.429L360.118 326.79L358.801 321.513L354.854 320.193L353.537 314.913L329.848 325.471L320.635 332.07L316.688 330.748V322.831L323.269 318.873L321.952 316.232L327.216 309.636L320.635 299.077V293.801L316.688 292.481L318.005 288.519L315.371 285.881L304.843 291.161L303.527 281.923L295.633 279.284L300.896 276.642H311.424L332.482 271.365L344.326 288.519L365.382 283.242L374.595 304.358L381.176 308.316L385.123 306.996L386.439 309.636L378.543 324.151L375.912 328.109Z" fill="#D147AC" fill-opacity="0.5" stroke="#0000FF" stroke-opacity="0.4" stroke-linecap="round" stroke-linejoin="round"/>
<path id="1513" class="district" name="Dương Kinh" fill-rule="evenodd" clip-rule="evenodd" d="M346.957 251.571V254.21L357.488 259.489L365.382 283.242L344.326 288.519L332.482 271.365L311.424 276.642H291.682L292.999 271.365L291.682 272.684L287.735 270.046L286.418 263.449H290.366L295.633 246.292L294.316 238.375L291.682 237.055L278.522 239.695H261.414V242.333L256.149 246.292H248.253L245.621 244.972L248.253 241.013L239.04 231.776V229.137L241.673 223.858L248.253 225.178L249.569 213.301L252.201 214.62L254.833 211.982L262.73 214.62L266.677 213.301V210.663L279.839 211.982L283.786 208.023L285.103 198.785H287.735L291.682 201.425V215.94L294.316 219.899L303.527 226.498L318.005 231.776L320.635 235.735V246.292L323.269 251.571L329.848 254.21H337.746L346.957 251.571Z" fill="#D1475A" fill-opacity="0.5" stroke="#0000FF" stroke-opacity="0.4" stroke-linecap="round" stroke-linejoin="round"/>
<path id="1512" class="district" name="Hải An" fill-rule="evenodd" clip-rule="evenodd" d="M362.751 233.096L356.171 231.776L349.59 238.375V248.931L337.746 254.21H329.848L321.952 250.251L320.635 235.735L318.005 231.776L314.058 229.137H308.791L294.316 219.899L291.682 215.94V201.425L287.735 198.785V196.146L295.633 182.949L294.316 181.629L299.58 178.99L296.946 172.393L303.527 169.753L300.896 161.835L307.477 163.155L310.107 159.196L314.058 161.835L318.005 159.196L320.635 160.516L324.585 152.598L333.796 146H339.062L343.01 161.835L354.854 180.31L365.382 190.867L373.279 194.826L400.918 197.466L416.709 214.62L407.498 215.94L406.181 218.58V237.055L362.751 233.096Z" fill="#D18847" fill-opacity="0.5" stroke="#0000FF" stroke-opacity="0.4" stroke-linecap="round" stroke-linejoin="round"/>
<path id="1511" class="district" name="Hồng Bằng" fill-rule="evenodd" clip-rule="evenodd" d="M256.149 172.393H250.885L249.569 163.155L239.04 165.794L233.776 160.516H221.932L220.615 156.557L215.351 153.917L214.036 146L202.191 142.041L199.558 140.722V138.082L196.927 139.402L195.61 136.762L191.663 135.443L192.978 130.164L196.927 124.885L199.558 126.205V130.164H202.191L206.139 134.123L207.455 131.484L211.403 134.123L212.72 140.722L215.351 143.361L250.885 146L265.361 156.557H277.205V164.475L273.258 169.753L256.149 172.393Z" fill="#B7E830" fill-opacity="0.5" stroke="#0000FF" stroke-opacity="0.4" stroke-linecap="round" stroke-linejoin="round"/>
<path id="1510" class="district" name="Kiến An" fill-rule="evenodd" clip-rule="evenodd" d="M244.305 254.21L240.357 259.489H236.409L233.776 258.169V252.89L228.512 251.571L227.196 244.972L223.248 246.292L220.615 252.89V246.292L215.351 244.972V251.571L210.087 255.53L206.139 252.89L208.772 242.333L199.558 235.735L202.191 234.416L200.875 231.776L195.61 227.817L189.03 233.096L187.714 231.776L208.772 210.663H214.036L233.776 197.466H237.724L242.988 201.425L245.621 200.105L246.937 196.146L240.357 189.548L242.988 182.949H248.253L254.833 188.228L260.097 198.785V206.704L266.677 210.663V213.301L264.047 214.62L254.833 211.982L252.201 214.62L249.569 213.301L248.253 225.178L241.673 223.858L239.04 229.137V231.776L248.253 241.013L245.621 244.972L248.253 246.292L246.937 247.611L250.885 254.21L249.569 255.53L245.621 252.89L244.305 254.21Z" fill="#49E830" fill-opacity="0.5" stroke="#0000FF" stroke-opacity="0.4" stroke-linecap="round" stroke-linejoin="round"/>
<path id="1509" class="district" name="Lê Chân" fill-rule="evenodd" clip-rule="evenodd" d="M257.466 192.187L248.253 182.949L253.517 173.713L269.311 169.753L277.205 176.351L281.154 182.949L279.839 185.589L285.103 189.548L282.471 196.146L285.103 198.785L283.786 208.023L279.839 211.982L266.677 210.663L261.414 208.023L260.097 198.785L257.466 192.187Z" fill="#30E886" fill-opacity="0.5" stroke="#0000FF" stroke-opacity="0.4" stroke-linecap="round" stroke-linejoin="round"/>
<path id="1508" class="district" name="Ngô Quyền" fill-rule="evenodd" clip-rule="evenodd" d="M285.103 189.548L281.154 188.228L282.471 186.908L279.839 178.99L277.205 177.67L278.522 176.351H275.892L270.628 171.073L277.205 164.475V156.557L294.316 147.32L310.107 159.196L307.477 163.155L300.896 160.516L303.527 169.753L296.946 172.393V177.67L299.58 178.99L294.316 181.629L295.633 182.949L287.735 198.785L282.471 196.146L285.103 190.867V189.548Z" fill="#30DCE8" fill-opacity="0.5" stroke="#0000FF" stroke-opacity="0.4" stroke-linecap="round" stroke-linejoin="round"/>
<path id="1507" class="district" name="An Dương" fill-rule="evenodd" clip-rule="evenodd" d="M208.772 210.663L181.134 202.744L175.87 176.351L171.921 175.032L158.761 178.99L156.129 171.073L152.181 168.434L145.6 172.393L141.652 171.073L144.284 164.475L141.652 156.557L144.284 155.237L146.916 148.638L142.969 146L139.02 147.319L142.969 140.722H136.388L135.072 138.082V134.123H137.703L139.02 131.484H135.072V124.885L131.124 123.566L129.807 119.607L123.227 116.967V109.05H125.86V111.689L128.491 113.009L131.124 107.73L137.703 102.452L141.652 105.091L142.969 103.771L141.652 101.132H139.02L136.388 93.2142L139.02 89.2553L137.703 80.0177L141.652 76.0587H149.548V90.5748L156.129 91.8945L162.709 82.6571L161.393 72.0998L169.29 73.4195L171.921 81.3374L164.025 87.9356L165.342 91.8945L169.29 93.2142L174.554 91.8945L185.082 76.0587L192.978 83.9766L194.294 99.8124L207.455 102.452L214.036 106.41L215.351 113.009L214.036 127.525L211.403 134.123L207.455 131.484L206.139 134.123L202.191 130.164H199.558V126.205L196.927 124.885L191.663 134.123L196.927 139.402L199.558 138.082V140.722L214.036 146L215.351 153.917L219.3 155.237L221.932 160.516H233.776L239.04 165.794L249.569 163.155V169.753L253.517 173.713L248.253 182.949H242.988L240.357 186.908V189.548L246.937 196.146L245.621 200.105L244.305 201.425L235.093 197.466L214.036 210.663H208.772Z" fill="#306EE8" fill-opacity="0.5" stroke="#0000FF" stroke-opacity="0.4" stroke-linecap="round" stroke-linejoin="round"/>
<path id="1506" class="district" name="An Lão" fill-rule="evenodd" clip-rule="evenodd" d="M207.455 284.562L210.087 287.201H207.455L204.823 289.839L206.139 292.481L199.558 297.758H195.61L198.242 300.397L194.294 304.358L162.709 280.604L146.916 274.004L142.967 270.046L141.652 266.087L146.916 259.489L145.6 255.53L136.388 246.292L131.124 230.457L125.86 229.137L116.647 239.695L112.699 241.013L108.75 238.375L104.802 226.498L112.699 213.301V208.023L110.067 205.384H86.3773L85.0612 202.744L92.9578 193.507L94.2739 185.589L86.3773 180.31L74.5327 167.114L79.7971 164.475L78.481 157.876H90.3256L95.5897 165.794L96.9058 173.713L99.538 172.393L103.486 161.835L112.699 164.475L120.595 163.155L119.279 173.713L123.227 175.031L129.807 167.114V160.516L136.388 156.557H141.652L144.284 164.475L141.652 171.073L142.967 172.393L152.181 168.434L156.129 171.073L158.761 178.99L171.921 175.031L174.554 176.351L181.134 202.744L208.772 210.663V213.301L187.714 231.776L189.03 233.096L195.61 227.817L200.875 231.776L202.191 233.096L199.558 235.735L208.772 242.333L206.139 252.89L210.087 255.53L212.72 254.21V258.169L215.351 259.489L216.667 263.447L225.881 267.407V271.365L223.248 272.684L224.564 275.324L228.512 276.642L225.881 280.604L224.564 277.964L212.72 281.923L211.403 279.284L208.772 280.604L210.087 284.562H207.455Z" fill="#6130E8" fill-opacity="0.5" stroke="#0000FF" stroke-opacity="0.4" stroke-linecap="round" stroke-linejoin="round"/>
<g id="1505" class="district" name="Cát Hải">
<path id="Vector" fill-rule="evenodd" clip-rule="evenodd" d="M716.771 419.165L719.403 416.527L722.035 420.485L716.771 419.165ZM769.413 416.527L775.994 419.165L769.413 417.845V416.527ZM704.928 408.607L706.241 407.288L707.558 409.927H704.928V408.607ZM619.382 330.748L620.698 329.429V332.07L619.382 330.748ZM703.611 405.968L704.928 404.65V407.288L703.611 405.968ZM707.558 412.568L712.822 413.887L711.508 417.845L710.192 412.568L708.875 415.207L707.558 412.568ZM723.352 407.288L725.983 403.33V408.607L728.616 405.968L731.247 407.288L727.299 408.607H731.247L729.933 412.568L724.667 409.927L723.352 407.288ZM598.326 322.831H595.693L598.326 321.513V322.831ZM614.118 321.513L616.75 326.789L610.171 320.193L614.118 321.513ZM602.273 320.193L603.59 318.873V322.831L602.273 320.193ZM647.02 328.109L648.337 325.471L649.65 326.789L647.02 330.748V328.109ZM633.859 292.481L635.175 291.161L636.492 295.119L633.859 292.481ZM594.376 313.593H591.746L593.062 312.274L594.376 313.593ZM602.273 309.636L604.907 308.316L606.22 310.954H603.59L602.273 309.636ZM640.439 300.397L641.756 297.758V300.397H640.439ZM586.482 306.996L591.746 310.954H586.482V306.996ZM650.967 305.677L652.284 304.358L654.917 310.954L652.284 308.316L650.967 305.677ZM636.492 308.316V305.677L637.807 308.316H640.439L637.807 312.274L636.492 308.316ZM649.65 300.397L653.601 297.758L652.284 299.077L654.917 305.677L650.967 303.036V300.397H649.65ZM641.756 303.036L644.386 305.677L641.756 304.358V303.036ZM624.648 317.554L625.962 316.232L627.278 320.193L625.962 318.873L624.648 317.554ZM597.009 313.593L598.326 318.873H600.956L599.643 321.513L597.009 318.873L594.376 320.193V313.593H597.009ZM637.807 316.232L639.123 313.593L641.756 318.873L637.807 317.554V316.232ZM652.284 293.801L653.601 292.481L657.548 295.119V297.758H654.917V295.119L652.284 293.801ZM639.123 296.439L640.439 293.801H643.073L639.123 300.397L641.756 301.716L635.175 303.036V300.397H637.807L635.175 299.077H637.807L633.859 295.119L637.807 296.439H639.123ZM423.29 260.807L419.343 259.489L420.656 252.89L423.29 255.53V259.489V260.807ZM672.025 243.652L673.341 246.292L672.025 244.972V243.652ZM675.973 238.375L678.605 241.013L675.973 239.695V238.375ZM673.341 235.735L675.973 237.055H672.025L673.341 235.735ZM458.822 233.096L441.714 237.055H406.181L404.865 222.539L407.498 215.94L416.709 214.62L454.875 192.187L456.192 201.425V198.785L462.773 202.744L465.403 208.023L471.983 211.982L481.197 222.539H483.828V225.178L479.88 229.137L466.72 234.416H462.773L460.139 231.776L458.822 233.096ZM674.656 219.899L675.973 221.219L672.025 223.858L674.656 219.899ZM672.025 215.94H674.656L675.973 218.58L672.025 215.94ZM644.386 202.744V205.384L643.073 202.744H644.386ZM557.527 157.876L554.896 156.557L556.213 155.237L557.527 157.876ZM562.79 159.196L564.107 161.835H558.843V159.196H562.79ZM536.471 157.876H539.101L536.471 160.516V155.237V157.876ZM519.36 155.237L520.677 152.598L523.311 159.196L519.36 155.237ZM525.941 155.237H521.994H524.627V152.598L525.941 153.917V155.237ZM527.258 148.638L525.941 146L528.575 148.638H527.258ZM635.175 197.466L636.492 200.105L633.859 198.785L635.175 197.466ZM639.123 196.146L640.439 197.466L637.807 198.785V196.146H639.123ZM510.15 200.105L514.097 204.064L515.413 209.343L508.833 219.899L510.15 225.178L503.569 227.817L500.935 226.498L499.622 219.899L493.041 210.663L496.988 204.064L498.305 205.384V202.744L510.15 198.785V200.105ZM635.175 214.62V217.26L633.859 214.62H635.175ZM516.73 204.064L519.36 202.744V209.343H516.73L514.097 204.064H516.73ZM514.097 196.146L520.677 197.466L516.73 200.105L515.413 198.785V201.425L518.046 202.744L516.73 204.064H511.466L510.15 198.785L514.097 196.146ZM645.703 198.785L648.337 201.425L647.02 200.105L639.123 204.064V201.425L641.756 202.744L643.073 200.105L645.703 198.785ZM623.331 182.949L625.962 186.908L624.648 188.228V184.269L623.331 182.949ZM560.16 178.99L558.843 177.67H561.477L560.16 178.99ZM507.516 176.351L512.783 182.949V180.31H516.73L523.311 181.629L525.941 186.908L524.627 192.187L519.36 196.146L514.097 194.826L510.15 197.466L499.622 200.105L491.724 206.704L486.461 200.105L503.569 176.351H507.516ZM520.677 173.713L524.627 178.99L521.994 180.31V175.032L520.677 173.713ZM579.901 167.114L575.952 164.475L579.901 165.794V167.114ZM536.471 163.155L539.101 165.794H536.471V168.434L533.839 167.114L535.154 160.516L536.471 163.155ZM537.788 148.638L544.365 151.278L541.735 152.598L545.682 155.237L546.999 152.598L549.632 157.876L552.263 153.917L553.579 155.237L550.946 160.516H553.579V163.155H550.946L549.632 165.794L546.999 164.475L548.316 163.155H544.365V167.114H540.418L541.735 164.475L537.788 161.835L541.735 160.516L540.418 155.237L543.052 156.557L539.101 148.638V152.598L536.471 149.958V147.319L537.788 148.638ZM653.601 268.726L654.917 270.046L652.284 268.726H653.601ZM647.02 285.881L652.284 288.519L650.967 289.839L647.02 287.201V285.881ZM591.746 288.519L589.112 291.161L587.796 289.839L590.429 285.881L593.062 287.201L591.746 288.519ZM632.543 287.201V284.562H637.807L636.492 287.201H633.859H632.543ZM652.284 279.284L658.864 281.923L654.917 283.242L650.967 280.604L652.284 279.284ZM579.901 279.284L572.005 280.604L575.952 288.519H573.32L577.268 296.439L575.952 301.716L570.688 288.519V283.242L566.741 285.881L569.371 287.201V289.839L565.424 288.519V292.481L562.79 283.242L560.16 285.881L557.527 279.284L545.682 272.684V268.726L548.316 271.365H553.579L552.263 262.127L546.999 259.489L548.316 255.53L544.365 252.89L545.682 250.251L543.052 248.931L540.418 251.571L539.101 244.972L529.89 235.735L531.207 234.416L498.305 230.457V223.858L502.252 227.817L512.783 230.457L518.046 229.137L507.516 227.817L510.15 225.178V219.899L514.097 215.94L512.783 210.663L521.994 209.343V213.301L527.258 219.899L524.627 215.94V213.301H527.258L524.627 210.663L527.258 209.343L523.311 208.023L527.258 206.704L524.627 200.105L527.258 197.466L524.627 194.826L520.677 202.744L516.73 201.425L521.994 198.785L520.677 196.146L525.941 193.507L529.89 182.949L528.575 177.67L527.258 181.629L524.627 180.31L528.575 176.351L529.89 167.114L527.258 164.475H521.994V159.196L524.627 160.516L525.941 157.876H529.89V147.319L533.839 152.598L529.89 164.475L533.839 165.794L532.522 171.073H537.788L536.471 178.99L539.101 177.67L537.788 176.351H540.418L537.788 172.393H541.735V169.753H548.316L553.579 176.351V171.073H556.213V168.434L557.527 171.073L558.843 168.434L556.213 177.67V180.31H558.843L562.79 177.67L561.477 175.032L564.107 173.713L561.477 172.393V168.434L565.424 167.114L568.056 169.753H573.32L566.741 165.794L570.688 164.475L579.901 171.073L575.952 181.629L579.901 178.99L581.218 173.713L586.482 186.908H591.746L587.796 185.589L586.482 181.629L589.112 178.99H586.482L583.848 172.393L586.482 169.753L587.796 172.393L589.112 171.073L583.848 165.794L591.746 164.475V167.114L595.693 168.434L593.062 164.475L595.693 165.794L598.326 163.155L597.009 167.114L599.643 169.753V163.155L602.273 165.794V163.155L606.22 165.794L608.854 163.155V165.794L611.486 167.114V164.475V173.713L614.118 171.073L615.435 176.351L618.067 175.032V178.99L620.698 177.67V185.589L618.067 188.228L616.75 197.466L618.067 200.105L615.435 198.785V201.425H618.067L620.698 205.384V211.982L625.962 214.62L620.698 208.023L628.595 204.064V201.425L625.962 205.384L620.698 198.785L623.331 190.867V201.425L628.595 197.466V194.826H635.175L629.912 197.466L633.859 200.105L631.226 201.425V205.384L636.492 204.064L633.859 206.704V210.663L639.123 209.343L636.492 208.023V205.384L640.439 206.704L641.756 210.663L637.807 214.62H641.756L644.386 217.26L643.073 214.62L647.02 208.023L645.703 205.384H649.65H654.917L652.284 209.343L653.601 206.704L654.917 209.343L657.548 208.023L658.864 210.663H662.811L661.497 211.982L664.128 219.899H666.761L665.445 218.58L668.078 217.26L673.341 221.219L670.709 219.899L672.025 223.858L669.392 227.817L673.341 225.178L674.656 226.498L675.973 221.219L678.605 225.178L677.289 227.817L679.922 229.137L681.237 234.416L678.605 235.735H681.237L678.605 241.013L679.922 238.375H677.289V231.776V234.416H673.341L672.025 231.776L669.392 235.735V231.776L660.181 227.817H662.811L660.181 225.178H664.128L661.497 221.219L658.864 225.178L656.231 223.858V226.498L652.284 221.219L650.967 222.539L657.548 227.817L654.917 230.457L658.864 229.137L657.548 230.457L662.811 231.776L664.128 234.416L666.761 231.776L665.445 234.416L668.078 235.735L666.761 238.375L665.445 237.055L666.761 239.695H669.392L666.761 241.013L673.341 248.931L672.025 250.251L669.392 246.292L666.761 247.611L664.128 248.931L665.445 252.89L662.811 248.931H660.181V251.571L657.548 250.251V247.611H654.917L657.548 246.292L654.917 243.652H657.548L658.864 239.695L657.548 238.375L656.231 241.013H653.601L649.65 238.375L650.967 241.013H653.601V243.652L652.284 242.333L654.917 244.972H650.967L653.601 247.611L649.65 244.972L650.967 242.333L647.02 239.695L648.337 237.055L647.02 235.735V239.695L637.807 225.178L640.439 223.858L636.492 219.899V211.982L632.543 210.663V213.301H629.912V208.023L627.278 206.704V209.343H624.648L628.595 213.301L627.278 215.94L633.859 219.899L636.492 225.178L635.175 227.817L639.123 229.137L636.492 230.457L639.123 234.416H635.175H641.756L644.386 242.333L647.02 241.013V244.972H631.226L629.912 242.333V248.931H632.543L633.859 244.972H637.807V247.611L645.703 246.292L648.337 248.931L643.073 247.611L644.386 250.251H647.02L636.492 252.89L641.756 248.931L640.439 247.611L637.807 250.251L635.175 246.292L633.859 251.571L632.543 250.251L631.226 252.89L625.962 254.21H620.698L619.382 256.849L616.75 255.53L619.382 258.169L618.067 259.489L622.014 255.53L628.595 260.807L629.912 259.489L627.278 258.169H629.912L631.226 262.127L623.331 263.447V266.088L620.698 262.127V266.088L618.067 263.447L615.435 260.807L616.75 256.849L611.486 255.53L610.171 251.571L615.435 254.21L616.75 252.89L615.435 250.251L610.171 248.931L611.486 243.652L607.537 241.013V254.21L608.854 256.849L610.171 255.53L612.801 263.447H615.435L618.067 270.046L623.331 272.684V275.324L624.648 274.004L632.543 277.964L633.859 276.642L639.123 279.284V281.923H644.386L643.073 285.881L645.703 287.201V291.161L640.439 293.801L637.807 292.481L639.123 291.161H636.492L641.756 289.839L637.807 285.881V283.242L636.492 284.562L628.595 280.604V285.881L632.543 288.519L633.859 292.481L629.912 301.716L633.859 303.036L632.543 310.954L628.595 309.636L629.912 313.593L627.278 312.274V316.232H624.648L623.331 313.593V317.554H620.698L618.067 314.913H620.698V312.274L624.648 310.954V308.316L620.698 303.036L622.014 301.716L618.067 300.397L616.75 301.716L619.382 304.358H616.75L618.067 306.996H615.435L614.118 297.758H606.22L607.537 301.716L608.854 299.077L610.171 309.636L606.22 308.316L600.956 300.397L599.643 306.996L593.062 303.036L589.112 297.758L594.376 295.119L599.643 301.716V295.119L602.273 293.801L607.537 296.439L610.171 293.801L612.801 296.439L616.75 292.481L614.118 289.839L611.486 292.481L606.22 289.839L603.59 291.161V288.519H597.009V291.161H594.376L591.746 289.839V287.201H595.693L591.746 281.923L594.376 279.284H586.482L587.796 284.562L582.532 283.242V279.284H579.901ZM644.386 270.046H647.02L645.703 272.684L648.337 275.324L649.65 272.684L654.917 276.642L652.284 279.284L650.967 274.004L649.65 277.964L647.02 275.324L645.703 276.642L643.073 272.684L644.386 270.046ZM628.595 267.407L631.226 268.726L629.912 270.046H633.859V272.684H636.492L629.912 274.004L628.595 270.046V267.407ZM637.807 266.088L644.386 267.407L643.073 270.046L639.123 268.726L643.073 271.365H639.123L635.175 267.407L637.807 266.088ZM625.962 266.088L628.595 267.407H625.962V266.088ZM677.289 255.53V259.489L675.973 258.169L677.289 255.53ZM631.226 264.769H633.859L631.226 268.726L629.912 264.769H631.226ZM625.962 263.447L628.595 264.769L625.962 266.088V263.447ZM653.601 262.127L660.181 267.407V271.365L652.284 262.127H653.601ZM650.967 264.769L652.284 266.088L648.337 264.769H650.967ZM648.337 259.489L653.601 260.807L649.65 263.447L648.337 262.127V264.769L647.02 260.807L648.337 259.489ZM652.284 251.571L654.917 254.21H658.864L660.181 259.489V255.53L662.811 256.849L661.497 254.21L666.761 255.53L664.128 260.807L662.811 258.169L664.128 262.127L668.078 259.489L666.761 262.127L660.181 266.088L652.284 252.89V251.571ZM672.025 254.21L673.341 256.849L669.392 260.807V255.53L672.025 254.21ZM641.756 252.89L644.386 256.849H641.756V252.89ZM635.175 251.571L640.439 258.169L639.123 259.489L633.859 251.571H635.175ZM647.02 251.571V258.169L644.386 254.21L645.703 252.89L647.02 251.571Z" fill="#D030E8" fill-opacity="0.5"/>
<path id="Vector_2" d="M633.859 292.481L635.175 291.161L636.492 295.119L633.859 292.481ZM633.859 292.481L632.543 288.519L628.595 285.881V280.604L636.492 284.562L637.807 283.242V285.881L641.756 289.839L636.492 291.161H639.123L637.807 292.481L640.439 293.801M633.859 292.481L629.912 301.716L633.859 303.036L632.543 310.954L628.595 309.636L629.912 313.593L627.278 312.274V316.232H624.648L623.331 313.593V317.554H620.698L618.067 314.913H620.698V312.274L624.648 310.954V308.316L620.698 303.036L622.014 301.716L618.067 300.397L616.75 301.716L619.382 304.358H616.75L618.067 306.996H615.435L614.118 297.758H606.22L607.537 301.716L608.854 299.077L610.171 309.636L606.22 308.316L600.956 300.397L599.643 306.996L593.062 303.036L589.112 297.758L594.376 295.119L599.643 301.716V295.119L602.273 293.801L607.537 296.439L610.171 293.801L612.801 296.439L616.75 292.481L614.118 289.839L611.486 292.481L606.22 289.839L603.59 291.161V288.519H597.009V291.161H594.376L591.746 289.839V287.201H595.693L591.746 281.923L594.376 279.284H586.482L587.796 284.562L582.532 283.242V279.284H579.901L572.005 280.604L575.952 288.519H573.32L577.268 296.439L575.952 301.716L570.688 288.519V283.242L566.741 285.881L569.371 287.201V289.839L565.424 288.519V292.481L562.79 283.242L560.16 285.881L557.527 279.284L545.682 272.684V268.726L548.316 271.365H553.579L552.263 262.127L546.999 259.489L548.316 255.53L544.365 252.89L545.682 250.251L543.052 248.931L540.418 251.571L539.101 244.972L529.89 235.735L531.207 234.416L498.305 230.457V223.858L502.252 227.817L512.783 230.457L518.046 229.137L507.516 227.817L510.15 225.178M640.439 293.801L639.123 296.439H637.807L633.859 295.119L637.807 299.077H635.175L637.807 300.397H635.175V303.036L641.756 301.716L639.123 300.397L643.073 293.801H640.439ZM640.439 293.801L645.703 291.161V287.201L643.073 285.881L644.386 281.923H639.123V279.284L633.859 276.642L632.543 277.964L624.648 274.004L623.331 275.324V272.684L618.067 270.046L615.435 263.447H612.801L610.171 255.53L608.854 256.849L607.537 254.21V241.013L611.486 243.652L610.171 248.931L615.435 250.251L616.75 252.89L615.435 254.21L610.171 251.571L611.486 255.53L616.75 256.849L615.435 260.807L618.067 263.447L620.698 266.088V262.127L623.331 266.088V263.447L631.226 262.127L629.912 258.169H627.278L629.912 259.489L628.595 260.807L622.014 255.53L618.067 259.489L619.382 258.169L616.75 255.53L619.382 256.849L620.698 254.21H625.962L631.226 252.89L632.543 250.251L633.859 251.571M510.15 225.178V219.899L514.097 215.94L512.783 210.663L521.994 209.343V213.301L527.258 219.899L524.627 215.94V213.301H527.258L524.627 210.663L527.258 209.343L523.311 208.023L527.258 206.704L524.627 200.105L527.258 197.466L524.627 194.826L520.677 202.744L516.73 201.425L521.994 198.785L520.677 196.146L525.941 193.507L529.89 182.949L528.575 177.67L527.258 181.629L524.627 180.31L528.575 176.351L529.89 167.114L527.258 164.475H521.994V159.196L524.627 160.516L525.941 157.876H529.89V147.319L533.839 152.598L529.89 164.475L533.839 165.794L532.522 171.073H537.788L536.471 178.99L539.101 177.67L537.788 176.351H540.418L537.788 172.393H541.735V169.753H548.316L553.579 176.351V171.073H556.213V168.434L557.527 171.073L558.843 168.434L556.213 177.67V180.31H558.843L562.79 177.67L561.477 175.032L564.107 173.713L561.477 172.393V168.434L565.424 167.114L568.056 169.753H573.32L566.741 165.794L570.688 164.475L579.901 171.073L575.952 181.629L579.901 178.99L581.218 173.713L586.482 186.908H591.746L587.796 185.589L586.482 181.629L589.112 178.99H586.482L583.848 172.393L586.482 169.753L587.796 172.393L589.112 171.073L583.848 165.794L591.746 164.475V167.114L595.693 168.434L593.062 164.475L595.693 165.794L598.326 163.155L597.009 167.114L599.643 169.753V163.155L602.273 165.794V163.155L606.22 165.794L608.854 163.155V165.794L611.486 167.114V164.475V173.713L614.118 171.073L615.435 176.351L618.067 175.032V178.99L620.698 177.67V185.589L618.067 188.228L616.75 197.466L618.067 200.105L615.435 198.785V201.425H618.067L620.698 205.384V211.982L625.962 214.62L620.698 208.023L628.595 204.064V201.425L625.962 205.384L620.698 198.785L623.331 190.867V201.425L628.595 197.466V194.826H635.175L629.912 197.466L633.859 200.105L631.226 201.425V205.384L636.492 204.064L633.859 206.704V210.663L639.123 209.343L636.492 208.023V205.384L640.439 206.704L641.756 210.663L637.807 214.62H641.756L644.386 217.26L643.073 214.62L647.02 208.023L645.703 205.384H649.65H654.917L652.284 209.343L653.601 206.704L654.917 209.343L657.548 208.023L658.864 210.663H662.811L661.497 211.982L664.128 219.899H666.761L665.445 218.58L668.078 217.26L673.341 221.219L670.709 219.899L672.025 223.858M510.15 225.178L508.833 219.899L515.413 209.343L514.097 204.064M510.15 225.178L503.569 227.817L500.935 226.498L499.622 219.899L493.041 210.663L496.988 204.064L498.305 205.384V202.744L510.15 198.785M594.376 313.593H591.746L593.062 312.274L594.376 313.593ZM594.376 313.593V320.193L597.009 318.873L599.643 321.513L600.956 318.873H598.326L597.009 313.593H594.376ZM633.859 251.571L635.175 246.292L637.807 250.251L640.439 247.611L641.756 248.931L636.492 252.89L647.02 250.251H644.386L643.073 247.611L648.337 248.931L645.703 246.292L637.807 247.611V244.972H633.859L632.543 248.931H629.912V242.333L631.226 244.972H647.02V241.013L644.386 242.333L641.756 234.416H635.175H639.123L636.492 230.457L639.123 229.137L635.175 227.817L636.492 225.178L633.859 219.899L627.278 215.94L628.595 213.301L624.648 209.343H627.278V206.704L629.912 208.023V213.301H632.543V210.663L636.492 211.982V219.899L640.439 223.858L637.807 225.178L647.02 239.695M633.859 251.571L639.123 259.489L640.439 258.169L635.175 251.571H633.859ZM678.605 241.013L675.973 238.375V239.695L678.605 241.013ZM678.605 241.013L681.237 235.735H678.605L681.237 234.416L679.922 229.137L677.289 227.817L678.605 225.178L675.973 221.219M678.605 241.013L679.922 238.375H677.289V231.776V234.416H673.341L672.025 231.776L669.392 235.735V231.776L660.181 227.817H662.811L660.181 225.178H664.128L661.497 221.219L658.864 225.178L656.231 223.858V226.498L652.284 221.219L650.967 222.539L657.548 227.817L654.917 230.457L658.864 229.137L657.548 230.457L662.811 231.776L664.128 234.416L666.761 231.776L665.445 234.416L668.078 235.735L666.761 238.375L665.445 237.055L666.761 239.695H669.392L666.761 241.013L673.341 248.931L672.025 250.251L669.392 246.292L666.761 247.611L664.128 248.931L665.445 252.89L662.811 248.931H660.181V251.571L657.548 250.251V247.611H654.917L657.548 246.292L654.917 243.652H657.548L658.864 239.695L657.548 238.375L656.231 241.013H653.601M675.973 221.219L674.656 219.899L672.025 223.858M675.973 221.219L672.025 223.858M675.973 221.219L674.656 226.498L673.341 225.178L669.392 227.817L672.025 223.858M653.601 241.013L649.65 238.375L650.967 241.013H653.601ZM653.601 241.013V243.652L652.284 242.333L654.917 244.972H650.967L653.601 247.611L649.65 244.972L650.967 242.333L647.02 239.695M514.097 204.064L510.15 200.105V198.785M514.097 204.064L516.73 209.343H519.36V202.744L516.73 204.064M514.097 204.064H516.73M510.15 198.785L511.466 204.064H516.73M510.15 198.785L514.097 196.146L520.677 197.466L516.73 200.105L515.413 198.785V201.425L518.046 202.744L516.73 204.064M652.284 279.284L658.864 281.923L654.917 283.242L650.967 280.604L652.284 279.284ZM652.284 279.284L654.917 276.642L649.65 272.684L648.337 275.324L645.703 272.684L647.02 270.046H644.386L643.073 272.684L645.703 276.642L647.02 275.324L649.65 277.964L650.967 274.004L652.284 279.284ZM647.02 239.695L648.337 237.055L647.02 235.735V239.695ZM628.595 267.407L631.226 268.726M628.595 267.407V270.046L629.912 274.004L636.492 272.684H633.859V270.046H629.912L631.226 268.726M628.595 267.407L625.962 266.088M628.595 267.407H625.962V266.088M631.226 268.726L633.859 264.769H631.226H629.912L631.226 268.726ZM625.962 266.088L628.595 264.769L625.962 263.447V266.088ZM648.337 264.769L652.284 266.088L650.967 264.769H648.337ZM648.337 264.769V262.127L649.65 263.447L653.601 260.807L648.337 259.489L647.02 260.807L648.337 264.769ZM716.771 419.165L719.403 416.527L722.035 420.485L716.771 419.165ZM769.413 416.527L775.994 419.165L769.413 417.845V416.527ZM704.928 408.607L706.241 407.288L707.558 409.927H704.928V408.607ZM619.382 330.748L620.698 329.429V332.07L619.382 330.748ZM703.611 405.968L704.928 404.65V407.288L703.611 405.968ZM707.558 412.568L712.822 413.887L711.508 417.845L710.192 412.568L708.875 415.207L707.558 412.568ZM723.352 407.288L725.983 403.33V408.607L728.616 405.968L731.247 407.288L727.299 408.607H731.247L729.933 412.568L724.667 409.927L723.352 407.288ZM598.326 322.831H595.693L598.326 321.513V322.831ZM614.118 321.513L616.75 326.789L610.171 320.193L614.118 321.513ZM602.273 320.193L603.59 318.873V322.831L602.273 320.193ZM647.02 328.109L648.337 325.471L649.65 326.789L647.02 330.748V328.109ZM602.273 309.636L604.907 308.316L606.22 310.954H603.59L602.273 309.636ZM640.439 300.397L641.756 297.758V300.397H640.439ZM586.482 306.996L591.746 310.954H586.482V306.996ZM650.967 305.677L652.284 304.358L654.917 310.954L652.284 308.316L650.967 305.677ZM636.492 308.316V305.677L637.807 308.316H640.439L637.807 312.274L636.492 308.316ZM649.65 300.397L653.601 297.758L652.284 299.077L654.917 305.677L650.967 303.036V300.397H649.65ZM641.756 303.036L644.386 305.677L641.756 304.358V303.036ZM624.648 317.554L625.962 316.232L627.278 320.193L625.962 318.873L624.648 317.554ZM637.807 316.232L639.123 313.593L641.756 318.873L637.807 317.554V316.232ZM652.284 293.801L653.601 292.481L657.548 295.119V297.758H654.917V295.119L652.284 293.801ZM423.29 260.807L419.343 259.489L420.656 252.89L423.29 255.53V259.489V260.807ZM672.025 243.652L673.341 246.292L672.025 244.972V243.652ZM673.341 235.735L675.973 237.055H672.025L673.341 235.735ZM458.822 233.096L441.714 237.055H406.181L404.865 222.539L407.498 215.94L416.709 214.62L454.875 192.187L456.192 201.425V198.785L462.773 202.744L465.403 208.023L471.983 211.982L481.197 222.539H483.828V225.178L479.88 229.137L466.72 234.416H462.773L460.139 231.776L458.822 233.096ZM672.025 215.94H674.656L675.973 218.58L672.025 215.94ZM644.386 202.744V205.384L643.073 202.744H644.386ZM557.527 157.876L554.896 156.557L556.213 155.237L557.527 157.876ZM562.79 159.196L564.107 161.835H558.843V159.196H562.79ZM536.471 157.876H539.101L536.471 160.516V155.237V157.876ZM519.36 155.237L520.677 152.598L523.311 159.196L519.36 155.237ZM525.941 155.237H521.994H524.627V152.598L525.941 153.917V155.237ZM527.258 148.638L525.941 146L528.575 148.638H527.258ZM635.175 197.466L636.492 200.105L633.859 198.785L635.175 197.466ZM639.123 196.146L640.439 197.466L637.807 198.785V196.146H639.123ZM635.175 214.62V217.26L633.859 214.62H635.175ZM645.703 198.785L648.337 201.425L647.02 200.105L639.123 204.064V201.425L641.756 202.744L643.073 200.105L645.703 198.785ZM623.331 182.949L625.962 186.908L624.648 188.228V184.269L623.331 182.949ZM560.16 178.99L558.843 177.67H561.477L560.16 178.99ZM507.516 176.351L512.783 182.949V180.31H516.73L523.311 181.629L525.941 186.908L524.627 192.187L519.36 196.146L514.097 194.826L510.15 197.466L499.622 200.105L491.724 206.704L486.461 200.105L503.569 176.351H507.516ZM520.677 173.713L524.627 178.99L521.994 180.31V175.032L520.677 173.713ZM579.901 167.114L575.952 164.475L579.901 165.794V167.114ZM536.471 163.155L539.101 165.794H536.471V168.434L533.839 167.114L535.154 160.516L536.471 163.155ZM537.788 148.638L544.365 151.278L541.735 152.598L545.682 155.237L546.999 152.598L549.632 157.876L552.263 153.917L553.579 155.237L550.946 160.516H553.579V163.155H550.946L549.632 165.794L546.999 164.475L548.316 163.155H544.365V167.114H540.418L541.735 164.475L537.788 161.835L541.735 160.516L540.418 155.237L543.052 156.557L539.101 148.638V152.598L536.471 149.958V147.319L537.788 148.638ZM653.601 268.726L654.917 270.046L652.284 268.726H653.601ZM647.02 285.881L652.284 288.519L650.967 289.839L647.02 287.201V285.881ZM591.746 288.519L589.112 291.161L587.796 289.839L590.429 285.881L593.062 287.201L591.746 288.519ZM632.543 287.201V284.562H637.807L636.492 287.201H633.859H632.543ZM637.807 266.088L644.386 267.407L643.073 270.046L639.123 268.726L643.073 271.365H639.123L635.175 267.407L637.807 266.088ZM677.289 255.53V259.489L675.973 258.169L677.289 255.53ZM653.601 262.127L660.181 267.407V271.365L652.284 262.127H653.601ZM652.284 251.571L654.917 254.21H658.864L660.181 259.489V255.53L662.811 256.849L661.497 254.21L666.761 255.53L664.128 260.807L662.811 258.169L664.128 262.127L668.078 259.489L666.761 262.127L660.181 266.088L652.284 252.89V251.571ZM672.025 254.21L673.341 256.849L669.392 260.807V255.53L672.025 254.21ZM641.756 252.89L644.386 256.849H641.756V252.89ZM647.02 251.571V258.169L644.386 254.21L645.703 252.89L647.02 251.571Z" stroke="#0000FF" stroke-opacity="0.4"/>
</g>
<path id="1504" class="district" name="Kiến Thụy" fill-rule="evenodd" clip-rule="evenodd" d="M320.635 332.07L306.16 343.944L295.632 345.266V351.863L290.366 349.225L275.892 333.389H269.311L246.937 342.625L242.988 339.986L240.357 325.471L235.093 321.513H231.145L216.667 330.748L210.087 329.429L198.242 306.996L194.294 304.358L198.242 300.397L195.61 297.758L198.242 295.119L199.558 297.758L206.139 292.481L204.823 289.839L208.772 287.201L207.455 284.562H210.087L208.772 281.923L211.403 279.284L212.72 281.923L224.564 277.964L225.881 280.604L228.512 277.964L223.248 272.684L225.881 267.407L216.667 263.447L215.351 259.489L212.72 258.169L215.351 246.292H220.615V252.89L223.248 246.292L227.196 244.972L228.512 251.571L233.776 252.89V258.169L240.357 259.489L245.621 252.89L249.569 255.53L250.885 254.21L246.937 248.931L248.253 246.292H256.149L261.414 242.333V239.695H278.522L291.682 237.055L294.316 238.375L295.632 246.292L290.366 263.447H286.418L287.735 268.726L291.682 272.684L292.999 271.365L291.682 276.642H295.632V279.284L303.527 281.923L304.843 291.161L312.741 285.881L318.005 288.519L316.688 292.481L320.635 293.8V299.077L327.216 309.636L321.952 316.232L323.269 318.873L316.688 322.831L315.371 329.429L320.635 330.748V332.07Z" fill="#E83092" fill-opacity="0.5" stroke="#0000FF" stroke-opacity="0.4" stroke-linecap="round" stroke-linejoin="round"/>
<path id="1503" class="district" name="Thủy Nguyen" fill-rule="evenodd" clip-rule="evenodd" d="M264.047 155.237L250.885 146L219.3 144.681L212.72 140.722L211.403 134.123L214.036 127.525V106.41L207.455 102.451L194.294 99.8122V87.9356L192.978 83.9766L185.082 76.0588L186.398 72.0999L178.502 61.5427V49.666L175.87 47.0266L162.709 44.3873L158.761 41.7481L156.129 35.1497L150.864 29.8715L149.548 24.593L152.181 14.0357L156.129 12.716L160.077 2.15895L162.709 8.75715L166.657 11.3964L171.921 4.7982L183.766 7.43749L187.714 3.47859L194.294 4.7982L203.506 0.839294H207.455L217.984 10.0768H227.196L237.724 2.15895H242.988L264.047 10.0768L274.575 16.675L296.946 23.2732H327.216L339.062 25.9125L343.01 29.8715L354.854 50.9855V80.0177L357.488 106.41L352.22 123.566L343.01 134.123L339.062 146H333.796L325.901 152.598L320.635 160.516L318.005 159.196L314.058 161.835L294.316 147.319L273.258 157.876L265.361 156.557L264.047 155.237Z" fill="#E83D30" fill-opacity="0.5" stroke="#0000FF" stroke-opacity="0.4" stroke-linecap="round" stroke-linejoin="round"/>
<path id="1502" class="district" name="Tiên Lãng" fill-rule="evenodd" clip-rule="evenodd" d="M260.097 412.568L246.937 420.485L241.673 413.887L225.881 404.649L214.036 407.288L203.506 404.649L194.294 392.772L190.346 378.256L167.973 354.503L157.445 350.544L149.548 349.225L141.652 358.463L124.543 367.698L110.066 359.782L108.75 357.141L111.383 321.513L108.75 316.232L115.33 293.8L117.963 276.642L114.015 270.046L115.33 267.407L104.802 263.449L95.5897 268.726L90.3256 266.087L95.5897 254.21L94.2736 246.292L90.3256 237.055L82.4293 227.817L96.9058 218.58L104.802 226.498L108.75 238.375L112.699 241.013L116.646 239.695L125.86 229.137L131.124 230.457L136.388 246.292L145.6 255.53L146.916 259.489L141.652 266.087L142.969 270.046L146.916 274.004L162.709 280.604L198.242 306.996L210.087 329.429L216.667 330.751L225.881 324.151L235.093 321.513L240.357 325.471L242.988 339.986L246.937 342.625L269.311 333.389H275.892L281.154 337.348L290.366 349.225L295.633 351.863L296.946 367.698L286.418 388.813L278.522 399.372L260.097 412.568Z" fill="#D147AC" fill-opacity="0.5" stroke="#0000FF" stroke-opacity="0.4" stroke-linecap="round" stroke-linejoin="round"/>
<path id="1501" class="district" name="Vĩnh Bảo" fill-rule="evenodd" clip-rule="evenodd" d="M86.3773 424.442L79.7971 433.68L69.2686 435L67.9525 424.442L65.3203 420.485L58.7401 415.207L49.5277 412.568L53.4758 402.01V392.772L44.2633 382.215V378.256L38.9992 370.338L11.3618 346.586L0.833344 341.306L13.9939 324.151L12.6779 317.554H16.6261L15.31 314.913L17.9421 313.593L10.0458 306.996L8.72972 300.397L13.9939 293.801L28.4705 297.758L37.6831 309.636L44.2633 303.036L45.5795 295.119L48.2116 293.801L50.8435 295.119L52.1597 299.077L49.5277 306.996L54.7918 308.316L58.7401 306.996L64.0042 299.077L61.3724 295.119L50.8435 288.519L52.1597 285.881H64.0042L69.2686 276.642L71.9008 275.324L81.1132 279.284L87.6933 276.642L95.5897 268.726L104.802 263.449L115.33 267.407L114.015 270.046L117.963 276.642L115.33 293.801L108.75 316.232L111.383 321.513L108.75 357.141L110.066 359.783L124.543 367.698L141.652 358.463L149.548 349.225L157.445 350.544L167.973 354.503L190.346 378.256L194.294 391.453L186.398 395.411L179.818 404.65L162.709 412.568H160.077L153.497 405.968L142.967 404.65L136.388 409.927L135.072 424.442L125.86 429.722L115.33 431.042L114.015 424.442L106.118 417.845L90.3256 415.207L89.0095 416.527L86.3773 424.442Z" fill="#D1475A" fill-opacity="0.5" stroke="#0000FF" stroke-opacity="0.4" stroke-linecap="round" stroke-linejoin="round"/>
</g>
</svg>
