<svg width="529" height="481" viewBox="0 0 529 481" fill="none" xmlns="http://www.w3.org/2000/svg">
<g id="17" name="Thái Bình">
<path id="1708" class="district" name="TP Thái Bình" fill-rule="evenodd" clip-rule="evenodd" d="M222.034 326.666L223.342 331.897L219.418 335.821H207.647L202.416 329.282L207.647 326.666L205.032 320.126L206.339 313.587L199.8 304.432L201.108 300.508L189.337 299.2V293.968L184.105 290.045L188.029 286.121L194.568 271.734L205.032 258.655L215.495 250.808L218.111 253.424L220.726 252.116L223.342 233.805L224.65 235.113L225.958 232.497L231.189 239.037H236.421L237.729 236.421H244.268L245.576 229.882L246.884 232.497L249.5 228.574H252.116L250.808 229.882L253.424 231.189V233.805L257.347 231.189L259.963 233.805L262.579 245.576L271.734 246.884L270.426 252.116L274.35 254.732L269.118 257.347L267.811 263.887V269.118L270.426 271.734L267.811 274.35L270.426 275.658L267.811 276.966L270.426 280.889H265.195L262.579 283.505H274.35L278.274 291.353L276.966 299.2L280.889 304.432L256.039 309.663L252.116 308.355L250.808 305.739L232.497 316.203L233.805 318.818L222.034 326.666Z" fill="#D147AC" fill-opacity="0.5" stroke="#0000FF" stroke-opacity="0.4" stroke-linecap="round" stroke-linejoin="round"/>
<path id="1707" class="district" name="Đông Hưng" fill-rule="evenodd" clip-rule="evenodd" d="M178.874 237.729L176.258 241.653H173.642L161.871 231.189L155.332 233.805L148.792 232.497L140.945 227.266V219.418L127.866 216.803L126.558 212.879L130.482 202.416L134.405 203.724L135.713 199.8L137.021 203.724L138.329 201.108H140.945L142.253 195.876H139.637L134.405 190.645L135.713 184.105L139.637 178.874L137.021 174.95L139.637 173.642V176.258L142.253 177.566L147.484 174.95V177.566L154.024 178.874L157.947 174.95L154.024 173.642L151.408 167.103H160.563L164.487 164.487L167.103 155.332L171.026 152.716L172.334 148.792L174.95 147.484L178.874 150.1L181.489 147.484H186.721L189.337 139.637H193.261L203.724 133.097L202.416 134.405L199.8 131.789L205.032 129.174V125.25L202.416 122.634L205.032 118.711L207.647 121.326L210.263 118.711H215.495L211.571 123.942L215.495 125.25L220.726 122.634L223.342 123.942L220.726 129.174L223.342 133.097L222.034 135.713L224.65 138.329V142.253L240.345 130.482L245.576 135.713V140.945L249.5 143.561H254.732L258.655 140.945L259.963 142.253L261.271 138.329H263.887L266.503 142.253L271.734 139.637L270.426 134.405H267.811L269.118 133.097L273.042 134.405L275.658 130.482L280.889 129.174L282.197 133.097L290.045 140.945L295.276 142.253L301.816 139.637L303.124 142.253L300.508 150.1L307.047 155.332L313.587 154.024L316.203 163.179L322.742 168.411L314.895 181.489L326.666 195.876L322.742 198.492L325.358 203.724L313.587 208.955L317.511 214.187L320.126 232.497L317.511 240.345L308.355 246.884L288.737 252.116L262.579 245.576L258.655 231.189L253.424 233.805V231.189L250.808 229.882L252.116 228.574H249.5L246.884 232.497V229.882L244.268 236.421L231.189 239.037L227.266 232.497L224.65 235.113L223.342 233.805L225.958 231.189L224.65 227.266H197.184L188.029 222.034H177.566L180.182 235.113L178.874 237.729Z" fill="#D1475A" fill-opacity="0.5" stroke="#0000FF" stroke-opacity="0.4" stroke-linecap="round" stroke-linejoin="round"/>
<path id="1706" class="district" name="Hưng Hà" fill-rule="evenodd" clip-rule="evenodd" d="M105.632 219.418L101.708 216.803L93.8605 218.111L84.7053 211.571L78.1658 215.495L72.9342 214.187L66.3947 182.797L62.4711 176.258L57.2395 169.718L36.3132 163.179L29.7737 159.255L25.85 154.024L24.5421 134.405L15.3868 121.326L6.23158 114.787L1 113.479L24.5421 104.324V101.708L16.6947 95.1684L7.53947 91.2447L11.4632 86.0132L23.2342 83.3974L33.6974 72.9342H42.8526L57.2395 86.0132L61.1632 87.321L65.0868 83.3974V75.55L69.0105 72.9342L76.8579 75.55L96.4763 88.6289L116.095 89.9368L117.403 88.6289L109.555 78.1658L112.171 75.55L122.634 72.9342L126.558 70.3184L130.482 62.4711L140.945 57.2395L143.561 63.7789L142.253 72.9342L161.871 79.4737L163.179 82.0895L169.718 79.4737L171.026 82.0895H168.411V93.8605H174.95L178.874 96.4763L180.182 95.1684L177.566 103.016L178.874 105.632L181.489 104.324L184.105 106.939L182.797 112.171L185.413 116.095L189.337 118.711L190.645 122.634H202.416L205.032 125.25V129.174L199.8 130.482L202.416 134.405L203.724 133.097L193.261 139.637H189.337L188.029 147.484H181.489L178.874 150.1L176.258 147.484L173.642 148.792L167.103 155.332L164.487 164.487L160.563 167.103L152.716 165.795L151.408 169.718L157.947 174.95L155.332 178.874L147.484 177.566V174.95L144.868 173.642L142.253 177.566L139.637 176.258V173.642L137.021 174.95L139.637 178.874L137.021 180.182L134.405 189.337L142.253 195.876L140.945 201.108H135.713L134.405 203.724L130.482 202.416L126.558 212.879L127.866 216.803L121.326 220.726L109.555 222.034L105.632 219.418Z" fill="#D18847" fill-opacity="0.5" stroke="#0000FF" stroke-opacity="0.4" stroke-linecap="round" stroke-linejoin="round"/>
<path id="1705" class="district" name="Kiến Xương" fill-rule="evenodd" clip-rule="evenodd" d="M350.208 406.447L358.055 410.371L355.439 427.374L361.979 429.989L363.287 428.682L371.134 435.221L364.595 443.068L344.976 448.3L324.05 444.376L318.818 441.761L304.432 426.066L290.045 405.139L273.042 393.368L266.503 392.061V388.137L256.039 377.674V369.826L253.424 368.518V365.903L244.268 359.363L246.884 343.668L250.808 346.284H253.424L254.732 343.668L252.116 335.821H248.192L244.268 329.282L252.116 326.666L253.424 320.126L249.5 314.895V305.739L256.039 309.663L279.582 304.432L274.35 283.505H262.579L265.195 280.889H270.426L267.811 276.966L270.426 275.658L267.811 274.35L270.426 271.734L267.811 270.426V263.887L269.118 257.347L274.35 254.732L270.426 252.116L271.734 246.884L291.353 252.116L308.355 246.884L312.279 242.961L320.126 240.345L321.434 245.576L330.589 248.192L344.976 231.189L350.208 229.882L354.132 235.113L358.055 244.268L359.363 254.732L356.747 267.811L348.9 280.889L350.208 284.813L361.979 283.505L363.287 286.121L369.826 287.429L359.363 299.2L354.132 308.355L355.439 310.971L350.208 318.818L343.668 322.742L346.284 325.358H350.208L348.9 326.666L352.824 334.513L354.132 344.976L355.439 343.668L356.747 346.284L351.516 351.516L354.132 352.824L355.439 356.747L350.208 359.363L343.668 358.055L346.284 364.595L350.208 367.211L347.592 376.366V378.982L350.208 380.289L346.284 386.829L350.208 403.832V406.447Z" fill="#B7E830" fill-opacity="0.5" stroke="#0000FF" stroke-opacity="0.4" stroke-linecap="round" stroke-linejoin="round"/>
<path id="1704" class="district" name="Quỳnh Phụ" fill-rule="evenodd" clip-rule="evenodd" d="M327.974 159.255L320.126 165.795L316.203 163.179L313.587 154.024L307.047 155.332L300.508 150.1L303.124 142.253L301.816 139.637L295.276 142.253L290.045 140.945L282.197 133.097L280.889 129.174L273.042 134.405L269.118 133.097L267.811 134.405H270.426L271.734 139.637L266.503 142.253L263.887 138.329H261.271L259.963 142.253L258.655 140.945L254.732 143.561H249.5L240.345 130.482L224.65 142.253V138.329L222.034 137.021L223.342 133.097L220.726 129.174L223.342 125.25L220.726 122.634L215.495 125.25L211.571 123.942L215.495 118.711H210.263L208.955 121.326L205.032 118.711L202.416 122.634L194.568 123.942L190.645 122.634L189.337 118.711H186.721L182.797 112.171L184.105 106.939L177.566 104.324L181.489 97.7842L180.182 95.1684L178.874 96.4763L172.334 92.5526L168.411 93.8605V83.3974L171.026 82.0895L169.718 79.4737L163.179 82.0895L161.871 79.4737L151.408 76.8579L147.484 72.9342H142.253L143.561 63.7789L140.945 57.2395L157.947 49.3921L159.255 45.4684L156.639 42.8526L144.868 40.2368L139.637 36.3132V33.6974L155.332 25.85L157.947 27.1579L161.871 36.3132L173.642 37.6211L178.874 35.0053L172.334 27.1579V20.6184L177.566 19.3105L181.489 21.9263L182.797 33.6974L189.337 41.5447L207.647 31.0816L218.111 20.6184H227.266L232.497 28.4658H246.884L256.039 20.6184L266.503 19.3105L280.889 4.92368L291.353 1L292.661 7.53947L300.508 14.0789L297.892 15.3868L299.2 18.0026H295.276L296.584 24.5421L283.505 41.5447L293.968 46.7763L307.047 59.8553L321.434 70.3184L326.666 78.1658V82.0895L335.821 92.5526V101.708L331.897 112.171L344.976 117.403L331.897 127.866V125.25L326.666 122.634L325.358 123.942L327.974 125.25V130.482L334.513 137.021L331.897 139.637L339.745 146.176L334.513 152.716L333.205 151.408L327.974 159.255Z" fill="#49E830" fill-opacity="0.5" stroke="#0000FF" stroke-opacity="0.4" stroke-linecap="round" stroke-linejoin="round"/>
<path id="1703" class="district" name="Thái Thụy" fill-rule="evenodd" clip-rule="evenodd" d="M478.382 266.503L474.458 262.579V235.113L477.074 236.421L479.689 257.347L478.382 266.503ZM456.147 215.495L461.379 227.266L471.842 233.805L475.766 256.039L473.15 263.887L454.839 258.655L439.145 261.271L431.297 265.195L394.676 292.661L385.521 290.045L377.674 283.505L372.442 282.197L350.208 284.813L348.9 280.889L356.747 267.811L359.363 256.039L358.055 244.268L354.132 235.113L350.208 229.882H347.592L330.589 248.192L321.434 245.576L320.126 240.345H317.511L320.126 232.497L317.511 214.187L312.279 208.955L325.358 203.724L322.742 198.492L326.666 195.876L314.895 181.489L317.511 174.95L322.742 169.718L320.126 165.795L339.745 146.176L331.897 139.637L334.513 137.021L331.897 135.713L327.974 125.25L325.358 123.942L326.666 122.634L331.897 125.25V127.866L344.976 117.403L350.208 123.942V133.097H360.671L368.518 123.942L372.442 114.787L388.137 117.403L395.984 123.942L397.292 130.482L406.447 129.174L416.911 123.942L418.218 109.555L424.758 104.324L435.221 105.632L441.761 112.171H444.376L461.379 104.324L467.918 95.1684L475.766 92.5526L484.921 104.324L492.768 106.939L507.155 104.324L522.85 113.479L528.082 120.018L516.311 129.174L515.003 134.405L508.463 135.713L499.308 146.176L488.845 150.1L482.305 155.332L469.226 169.718L465.303 178.874L460.071 182.797L465.303 193.261L458.763 197.184L461.379 199.8L456.147 211.571V215.495Z" fill="#30E886" fill-opacity="0.5" stroke="#0000FF" stroke-opacity="0.4" stroke-linecap="round" stroke-linejoin="round"/>
<path id="1702" class="district" name="Tiền Hải" fill-rule="evenodd" clip-rule="evenodd" d="M488.845 431.297L483.613 452.224L479.689 480.997L466.611 498L454.839 473.15L443.068 462.687L405.139 420.834L389.445 428.682H376.366L371.134 435.221L363.287 428.682L361.979 429.989L355.439 427.374L358.055 410.371L350.208 406.447L346.284 392.061V386.829L350.208 380.289L347.592 378.982L350.208 367.211L346.284 364.595L343.668 358.055L350.208 359.363L355.439 356.747V352.824L351.516 351.516L356.747 346.284L355.439 343.668L354.132 344.976L352.824 334.513L348.9 326.666L350.208 325.358H346.284L343.668 322.742L350.208 318.818L355.439 312.279L354.132 308.355L359.363 299.2L361.979 296.584L363.287 297.892L369.826 287.429L363.287 286.121L361.979 283.505H377.674L385.521 290.045L394.676 292.661L431.297 265.195L439.145 261.271L454.839 258.655L473.15 263.887L471.842 265.195L474.458 288.737L471.842 303.124L456.147 360.671L452.224 368.518L454.839 373.75V381.597L469.226 414.295L484.921 424.758L488.845 431.297ZM471.842 318.818L470.534 317.511L473.15 309.663L478.382 305.739L479.689 291.353H482.305L484.921 296.584V301.816L482.305 305.739L471.842 318.818Z" fill="#30DCE8" fill-opacity="0.5" stroke="#0000FF" stroke-opacity="0.4" stroke-linecap="round" stroke-linejoin="round"/>
<path id="1701" class="district" name="Vũ Thư" fill-rule="evenodd" clip-rule="evenodd" d="M263.887 386.829L266.503 388.137V392.061H257.347L244.268 385.521L235.113 373.75L229.882 361.979L223.342 359.363L208.955 375.058L168.411 407.755L155.332 410.371L148.792 406.447L144.868 401.216L142.253 390.753L144.868 380.289L172.334 356.747L176.258 346.284L174.95 342.361L171.026 334.513L164.487 330.589H129.174L109.555 322.742L103.016 313.587V305.739L112.171 291.353L117.403 276.966V266.503L112.171 259.963L104.324 256.039L84.7053 254.732L76.8579 249.5L72.9342 239.037V214.187L78.1658 215.495L84.7053 211.571L93.8605 218.111L101.708 216.803L109.555 222.034L121.326 220.726L127.866 216.803L140.945 219.418V225.958L148.792 232.497L155.332 233.805L160.563 231.189L173.642 241.653H176.258L180.182 235.113L177.566 222.034H188.029L197.184 227.266L207.647 228.574L215.495 225.958L224.65 227.266L225.958 229.882L222.034 236.421L220.726 252.116L218.111 253.424L215.495 250.808L205.032 258.655L184.105 290.045L189.337 293.968V299.2L197.184 297.892L198.492 300.508H201.108L199.8 303.124L202.416 307.047L201.108 308.355L206.339 313.587L205.032 320.126L207.647 326.666L202.416 329.282L207.647 335.821H219.418L224.65 329.282L222.034 326.666L233.805 318.818L232.497 316.203L248.192 307.047L249.5 314.895L253.424 320.126L252.116 326.666L244.268 329.282L248.192 335.821H252.116L254.732 343.668L250.808 346.284L246.884 343.668L242.961 352.824L244.268 359.363L248.192 364.595L253.424 365.903V368.518L256.039 369.826V377.674L263.887 386.829Z" fill="#306EE8" fill-opacity="0.5" stroke="#0000FF" stroke-opacity="0.4" stroke-linecap="round" stroke-linejoin="round"/>
</g>
</svg>
