<svg width="526" height="456" viewBox="0 0 526 456" fill="none" xmlns="http://www.w3.org/2000/svg">
<g id="18" name="Nam Định">
<path id="1810" class="district" name="TP Nam Định" fill-rule="evenodd" clip-rule="evenodd" d="M221.545 89.218L225.848 91.3697L223.697 92.4455L225.848 95.673L226.924 94.5972L223.697 98.9005V91.3697L221.545 89.218ZM211.863 103.204L209.711 105.355H205.408V102.128H207.559L208.635 98.9005H205.408L203.256 94.5972L202.18 95.673L200.028 87.0664L201.104 81.6872H194.649L190.346 78.4597V80.6114H188.194L187.118 85.9905H183.891V82.763L181.739 84.9147L180.664 91.3697H176.36L170.981 88.1422L169.905 89.218L163.45 84.9147L166.678 78.4597L163.45 72.0047L164.526 66.6256L156.995 62.3223L152.692 63.3981L153.768 59.0948L156.995 60.1706L158.071 58.019H165.602L168.829 55.8673V49.4123L172.057 48.3365L173.133 46.1848L172.057 42.9573L177.436 41.8815L182.815 48.3365L187.118 44.0332L189.27 36.5024L192.498 35.4265L193.573 37.5782H196.801L200.028 41.8815V35.4265L210.787 36.5024V40.8057L212.938 42.9573L215.09 41.8815L219.393 44.0332V47.2607L222.621 49.4123L221.545 59.0948L225.848 60.1706V66.6256L230.152 72.0047L226.924 70.9289L224.773 73.0806L222.621 70.9289L216.166 69.8531V73.0806L214.014 74.1564V79.5355L211.863 80.6114L214.014 87.0664V93.5213L210.787 96.7488L211.863 98.9005V103.204Z" fill="#D147AC" fill-opacity="0.5" stroke="#0000FF" stroke-opacity="0.4" stroke-linecap="round" stroke-linejoin="round"/>
<path id="1809" class="district" name="Giao Thủy" fill-rule="evenodd" clip-rule="evenodd" d="M337.735 271.033L336.659 266.73L337.735 262.427L340.962 260.275V254.896L335.583 247.365L336.659 235.531L345.265 224.773L348.493 217.242L353.872 188.194L360.327 183.891L377.54 182.815L383.995 180.664L397.981 172.057L399.057 167.754L407.664 174.209L424.877 177.436L441.014 173.133L450.697 161.299H461.455L473.289 154.844L515.246 197.877L524.929 218.318L519.55 224.773L518.474 236.607L501.261 249.517H493.73L494.806 245.213L490.502 240.91H488.351L485.123 232.303L481.896 231.227L476.517 234.455L473.289 231.227L471.137 232.303L467.91 229.076H463.607L452.848 235.531L441.014 234.455L436.711 236.607L404.436 240.91L396.905 245.213L385.071 246.289L363.555 255.972L364.63 257.047L362.479 259.199L348.493 267.806L338.81 271.033H337.735Z" fill="#D1475A" fill-opacity="0.5" stroke="#0000FF" stroke-opacity="0.4" stroke-linecap="round" stroke-linejoin="round"/>
<path id="1808" class="district" name="Hải Hậu" fill-rule="evenodd" clip-rule="evenodd" d="M215.09 409.815L216.166 401.209L221.545 392.602L225.848 378.616L223.697 370.009L225.848 352.796L224.773 346.341L219.393 335.583L215.09 321.597L204.332 310.839L201.104 302.232L207.559 286.095L234.455 283.943H237.682L236.607 286.095H249.517L260.275 239.834L252.744 234.455L250.592 228L254.896 225.848L251.668 220.469L259.199 210.787L266.73 209.711L277.488 220.469H283.943L294.701 211.863L296.853 215.09L293.626 225.848L299.005 228V232.303H302.232V226.924L305.46 224.773L307.611 225.848L306.536 226.924L308.687 228V236.607L314.066 237.682L315.142 216.166H318.37L324.825 220.469L329.128 219.393L333.431 221.545L332.355 219.393L334.507 218.318L336.659 220.469L342.038 216.166L339.886 215.09L343.114 212.938V216.166L347.417 219.393L345.265 224.773L336.659 235.531L335.583 247.365L340.962 254.896V260.275L337.735 262.427L336.659 265.654L337.735 271.033H340.962V274.261L315.142 301.156L314.066 304.384L299.005 321.597L287.171 332.355L281.791 340.962L255.972 368.934L235.531 395.829L221.545 410.891L211.863 418.422L212.938 415.194L215.09 409.815Z" fill="#D18847" fill-opacity="0.5" stroke="#0000FF" stroke-opacity="0.4" stroke-linecap="round" stroke-linejoin="round"/>
<path id="1807" class="district" name="Mỹ Lộc" fill-rule="evenodd" clip-rule="evenodd" d="M233.379 48.3365L225.848 60.1706L221.545 59.0948L222.621 49.4123L219.393 47.2607V44.0332L215.09 41.8815L212.938 42.9573L209.711 38.654L210.787 37.5782L201.104 35.4265L198.953 36.5024L201.104 40.8057L200.028 41.8815L198.953 38.654L193.573 37.5782L192.498 35.4265L188.194 37.5782L187.118 44.0332L182.815 48.3365L179.588 42.9573H172.057L173.133 46.1848L172.057 48.3365L168.829 49.4123V54.7915L165.602 58.019H159.147L156.995 60.1706L153.768 59.0948L152.692 63.3981L156.995 62.3223L164.526 66.6256L162.374 72.0047L153.768 74.1564V72.0047L151.616 70.9289L150.54 74.1564L139.782 75.2322L130.1 61.2464H122.569L123.645 51.564L125.796 48.3365L124.72 45.109H126.872L123.645 42.9573L120.417 46.1848H106.431L107.507 38.654L104.28 37.5782V34.3507L102.128 36.5024L97.8246 35.4265V33.2749L94.5972 32.1991V26.8199L105.355 23.5924L111.81 30.0474L119.341 27.8957L122.569 33.2749H125.796L126.872 30.0474L133.327 37.5782L138.706 38.654L144.085 30.0474L143.009 24.6682L137.63 19.2891L139.782 18.2133L138.706 17.1374H140.858V13.91L138.706 12.8341L139.782 10.6825L148.389 8.53081L150.54 4.22749H158.071L162.374 1L166.678 5.30332H170.981L169.905 18.2133L170.981 22.5166L175.284 26.8199L177.436 27.8957L183.891 24.6682L195.725 23.5924L200.028 18.2133H202.18L204.332 13.91L209.711 18.2133L226.924 19.2891L233.379 22.5166L237.682 27.8957V36.5024L235.531 40.8057L233.379 48.3365Z" fill="#B7E830" fill-opacity="0.5" stroke="#0000FF" stroke-opacity="0.4" stroke-linecap="round" stroke-linejoin="round"/>
<path id="1806" class="district" name="Nam Trực" fill-rule="evenodd" clip-rule="evenodd" d="M196.801 205.408L184.967 183.891L189.27 181.739L186.043 173.133L183.891 172.057L181.739 165.602L176.36 159.147L192.498 145.161L194.649 138.706L189.27 137.63L188.194 135.479V131.175L194.649 116.114L190.346 115.038L188.194 120.417L182.815 119.341L180.664 116.114L186.043 94.5972L191.422 89.218L194.649 81.6872H201.104L200.028 87.0664L202.18 95.673L203.256 94.5972L205.408 98.9005H208.635L207.559 102.128H205.408V105.355H209.711L211.863 103.204L210.787 96.7488L214.014 93.5213V84.9147L211.863 80.6114L214.014 74.1564L216.166 73.0806V69.8531L222.621 70.9289L224.773 73.0806L226.924 70.9289L237.682 77.3839L247.365 80.6114H276.412L281.791 83.8389L286.095 93.5213L285.019 98.9005L279.64 105.355L260.275 121.493L258.123 130.1L260.275 138.706L263.502 143.009L268.882 146.237L257.047 160.223L267.806 169.905L271.033 175.284L267.806 176.36L266.73 180.664H264.578L260.275 184.967H255.972L257.047 189.27H254.896L252.744 193.573L247.365 194.649L246.289 197.877L244.137 196.801V198.953L241.986 200.028L238.758 197.877L241.986 191.422H239.834L238.758 184.967H231.227L228 186.043L229.076 193.573H226.924V196.801H223.697L224.773 194.649L217.242 198.953L216.166 195.725L210.787 196.801L211.863 200.028H208.635V203.256L204.332 204.332L202.18 209.711L198.953 208.635L196.801 205.408ZM226.924 184.967H230.152L226.924 183.891V184.967ZM223.697 98.9005L226.924 94.5972L225.848 95.673L223.697 92.4455H225.848L221.545 89.218L223.697 93.5213V98.9005Z" fill="#49E830" fill-opacity="0.5" stroke="#0000FF" stroke-opacity="0.4" stroke-linecap="round" stroke-linejoin="round"/>
<path id="1805" class="district" name="Nghĩa Hưng" fill-rule="evenodd" clip-rule="evenodd" d="M135.479 448.545L138.706 430.256L148.389 404.436L150.54 379.692L154.844 374.313L164.526 371.085L172.057 363.555L174.209 357.1L175.284 339.886L183.891 320.521L191.422 312.991L193.573 307.611L187.118 255.972L179.588 230.152L175.284 229.076L146.237 238.758L144.085 237.682L140.858 230.152L137.63 214.014V209.711L154.844 193.573L163.45 195.725L168.829 194.649L170.981 192.498L174.209 186.043L172.057 168.829L176.36 159.147L178.512 160.223L183.891 172.057L186.043 173.133L189.27 181.739L184.967 183.891L200.028 209.711L197.877 211.863L201.104 212.938L203.256 228L208.635 222.621L209.711 226.924L212.938 230.152L214.014 238.758L216.166 241.986L207.559 254.896L203.256 265.654L201.104 278.564V302.232L204.332 310.839L215.09 321.597L219.393 335.583L224.773 346.341L225.848 352.796L223.697 370.009L225.848 378.616L221.545 392.602L216.166 401.209L211.863 418.422L203.256 430.256L200.028 424.877L181.739 436.711H169.905V445.318L141.934 455H136.554L135.479 448.545Z" fill="#30E886" fill-opacity="0.5" stroke="#0000FF" stroke-opacity="0.4" stroke-linecap="round" stroke-linejoin="round"/>
<g id="1804" class="district" name="Trực Ninh">
<path fill-rule="evenodd" clip-rule="evenodd" d="M230.152 184.967H226.924L229.076 183.891L230.152 184.967ZM287.171 218.318L283.943 220.469H277.488L266.73 209.711L259.199 210.787L251.668 220.469L254.896 225.848L250.592 228L252.744 234.455H254.896L260.275 239.834L249.517 286.095H236.607L237.682 283.943L207.559 286.095L202.18 300.081L201.104 278.564L203.256 265.654L210.787 249.517L216.166 245.213V241.986L214.014 238.758L215.09 233.379L209.711 226.924L208.635 222.621L203.256 228L201.104 212.938L197.877 211.863L202.18 209.711L204.332 204.332L208.635 203.256V200.028H211.863L210.787 196.801L216.166 195.725L217.242 198.953L221.545 196.801V194.649H224.773L223.697 196.801H226.924V194.649L229.076 193.573L228 186.043L230.152 184.967H238.758V189.27L239.834 191.422H241.986L238.758 197.877L239.834 198.953H244.137V196.801L246.289 197.877L247.365 194.649L250.592 195.725L252.744 191.422L257.047 189.27L255.972 186.043L266.73 180.664V177.436L271.033 175.284L267.806 169.905L257.047 160.223L268.882 146.237L279.64 144.085L292.55 134.403H300.081L306.536 131.175H310.839L311.915 132.251L305.46 141.934L304.384 147.313L305.46 168.829L306.536 170.981L309.763 172.057L317.294 169.905L319.445 170.981V174.209L312.991 194.649L303.308 205.408L294.701 211.863L287.171 218.318Z" fill="#30DCE8" fill-opacity="0.5"/>
<path d="M230.152 184.967H226.924L229.076 183.891L230.152 184.967ZM230.152 184.967L228 186.043L229.076 193.573L226.924 194.649V196.801H223.697L224.773 194.649H221.545V196.801L217.242 198.953L216.166 195.725L210.787 196.801L211.863 200.028H208.635V203.256L204.332 204.332L202.18 209.711L197.877 211.863L201.104 212.938L203.256 228L208.635 222.621L209.711 226.924L215.09 233.379L214.014 238.758L216.166 241.986V245.213L210.787 249.517L203.256 265.654L201.104 278.564L202.18 300.081L207.559 286.095L237.682 283.943L236.607 286.095H249.517L260.275 239.834L254.896 234.455H252.744L250.592 228L254.896 225.848L251.668 220.469L259.199 210.787L266.73 209.711L277.488 220.469H283.943L287.171 218.318L294.701 211.863L303.308 205.408L312.991 194.649L319.445 174.209V170.981L317.294 169.905L309.763 172.057L306.536 170.981L305.46 168.829L304.384 147.313L305.46 141.934L311.915 132.251L310.839 131.175H306.536L300.081 134.403H292.55L279.64 144.085L268.882 146.237L257.047 160.223L267.806 169.905L271.033 175.284L266.73 177.436V180.664L255.972 186.043L257.047 189.27L252.744 191.422L250.592 195.725L247.365 194.649L246.289 197.877L244.137 196.801V198.953H239.834L238.758 197.877L241.986 191.422H239.834L238.758 189.27V184.967H230.152Z" stroke="#0000FF" stroke-opacity="0.4" stroke-linecap="round" stroke-linejoin="round"/>
</g>
<path id="1803" class="district" name="Vụ Bản" fill-rule="evenodd" clip-rule="evenodd" d="M166.678 161.299L164.526 163.45L162.374 161.299L159.147 164.526L139.782 167.754V158.071L137.63 156.995H127.948V159.147L124.72 160.223L113.962 150.54L112.886 152.692L110.735 151.616V153.768L108.583 154.844L104.28 152.692L106.431 144.085L111.81 137.63L113.962 131.175V125.796L116.114 122.569L113.962 120.417L115.038 117.19L111.81 112.886H109.659L108.583 115.038L103.204 113.962L97.8246 116.114L92.4455 113.962L91.3697 110.735L93.5213 107.507L91.3697 104.28L93.5213 103.204L94.5972 99.9763L93.5213 93.5213L95.673 92.4455L97.8246 87.0663L95.673 82.763L84.9147 85.9905L76.3081 72.0047L79.5355 65.5498L80.6114 56.9431L84.9147 51.564L83.8389 47.2607L91.3697 46.1848L94.5972 42.9573V32.1991L97.8246 33.2749V35.4265L102.128 36.5024L103.204 34.3507L105.355 36.5024L104.28 37.5782L107.507 38.654L106.431 46.1848H120.417L123.645 42.9573L126.872 44.0332L124.72 45.109L125.796 48.3365L123.645 51.564L122.569 61.2464H130.1L139.782 75.2322L150.54 74.1564L151.616 70.9289L153.768 72.0047V74.1564L162.374 72.0047L163.45 68.7773L166.678 78.4597L163.45 84.9147L174.209 90.2938H180.664L182.815 82.763L183.891 85.9905H187.118L188.194 80.6114L190.346 81.6872V78.4597L194.649 81.6872L191.422 89.218L186.043 94.5972L180.664 112.886V116.114L184.967 120.417H188.194L190.346 115.038L194.649 116.114L188.194 131.175L189.27 137.63L194.649 138.706L192.498 145.161L176.36 159.147L174.209 164.526L169.905 163.45L166.678 161.299Z" fill="#306EE8" fill-opacity="0.5" stroke="#0000FF" stroke-opacity="0.4" stroke-linecap="round" stroke-linejoin="round"/>
<path id="1802" class="district" name="Xuân Trường" fill-rule="evenodd" clip-rule="evenodd" d="M296.853 228L293.626 225.848L296.853 216.166L294.701 211.863L303.308 205.408L312.991 194.649L319.446 170.981L315.142 169.905L309.763 172.057L306.536 170.981L305.46 168.829L304.384 147.313L305.46 141.934L311.915 132.251L306.536 131.175L300.081 134.403H292.55L302.232 124.72L312.991 117.19L324.825 104.28H326.976L330.204 106.431L334.507 116.114L342.038 125.796L352.796 131.175L365.706 132.251L379.692 141.934L399.057 167.754L397.981 172.057L383.995 180.664L377.54 182.815L360.327 183.891L356.024 186.043L353.872 188.194L347.417 219.393L343.114 216.166V212.938L339.886 215.09L342.038 216.166L336.659 220.469L332.355 219.393L333.431 221.545L329.128 219.393L324.825 220.469L318.37 216.166H315.142L314.066 237.682L308.687 236.607V228L306.536 226.924L307.611 225.848L305.46 224.773L303.308 226.924L302.232 232.303H299.005V228H296.853Z" fill="#6130E8" fill-opacity="0.5" stroke="#0000FF" stroke-opacity="0.4" stroke-linecap="round" stroke-linejoin="round"/>
<path id="1801" class="district" name="Ý Yên" fill-rule="evenodd" clip-rule="evenodd" d="M90.2938 232.303L85.9905 226.924L83.8389 219.393L89.218 217.242H98.9005L99.9763 212.938L97.8246 208.635L93.5213 205.408L76.3081 210.787L53.7156 204.332L47.2607 198.953L46.1848 195.725L50.4882 184.967L48.3365 173.133L35.4265 158.071L11.7583 146.237L10.6825 144.085L17.1374 140.858L22.5166 133.327L25.7441 124.72L24.6682 122.569H14.9858L11.7583 120.417V113.962L9.60664 108.583L11.7583 106.431L7.45498 105.355L4.22749 102.128L1 88.1422L4.22749 85.9905H16.0616L22.5166 81.6872L20.3649 75.2322L27.8957 72.0047L33.2749 63.3981L40.8057 65.5498L42.9573 52.6398L45.109 50.4882L47.2607 59.0948L49.4123 58.019L50.4882 60.1706L56.9431 61.2465L53.7156 69.8531L52.6398 81.6872H54.7915L56.9431 85.9905H59.0948L56.9431 88.1422L58.019 89.218L61.2464 88.1422L60.1706 82.763L62.3223 81.6872V88.1422L64.4739 82.763L72.0047 84.9147L77.3839 82.763L82.763 83.8389L84.9147 85.9905L94.5972 82.763L96.7488 84.9147V90.2938L93.5213 93.5213L94.5972 99.9763L93.5213 103.204L91.3697 104.28L93.5213 107.507L91.3697 110.735L92.4455 113.962L95.673 116.114L103.204 113.962L106.431 116.114V113.962L108.583 115.038L109.659 112.886H111.81L115.038 117.19L113.962 120.417L116.114 122.569L113.962 124.72L111.81 137.63L107.507 141.934L104.28 152.692L108.583 154.844L110.735 153.768V151.616L112.886 152.692V150.54L122.569 160.223L127.948 159.147V156.995H137.63L139.782 158.071V167.754L159.147 164.526L162.374 161.299L164.526 163.45L166.678 161.299L174.209 164.526L172.057 168.829L174.209 186.043L168.829 194.649L164.526 195.725L154.844 193.573L137.63 209.711L135.479 206.483H131.175L127.948 209.711L120.417 228L107.507 236.607L98.9005 237.682L94.5972 235.531L90.2938 232.303Z" fill="#D030E8" fill-opacity="0.5" stroke="#0000FF" stroke-opacity="0.4" stroke-linecap="round" stroke-linejoin="round"/>
</g>
</svg>
