<svg width="394" height="524" viewBox="0 0 394 524" fill="none" xmlns="http://www.w3.org/2000/svg">
<g id="19" name="Phú Thọ">
<path id="1913" class="district" name="TP Việt Trì" fill-rule="evenodd" clip-rule="evenodd" d="M331.281 287.911L329.613 266.226H309.596L291.247 251.213L306.26 237.868L301.255 232.864V229.528L307.928 217.851L319.604 226.191L326.277 222.855L331.281 211.179L336.285 212.847L339.621 209.511L342.957 214.515L337.953 217.851L342.957 226.191L349.63 222.855L352.966 232.864L361.306 244.54L384.66 256.217L391.332 264.557L393 271.23L387.996 277.902V296.251L384.66 297.919V294.583L376.319 291.247L361.306 274.566L351.298 272.898L342.957 281.238L334.617 284.574L331.281 287.911Z" fill="#D147AC" fill-opacity="0.5" stroke="#0000FF" stroke-opacity="0.4" stroke-linecap="round" stroke-linejoin="round"/>
<path id="1912" class="district" name="Phú Thọ" fill-rule="evenodd" clip-rule="evenodd" d="M277.902 217.851L276.234 216.183V219.519L271.23 217.851L267.894 221.187L262.889 212.847L251.213 211.179L246.209 221.187L247.877 229.528L236.2 231.196L231.196 211.179L226.191 212.847V209.511H229.528L227.86 206.174L221.187 204.506L222.855 201.17H226.191V196.166L232.864 197.834L237.868 187.826H244.54L254.549 169.477L252.881 167.809L259.553 166.14L257.885 169.477H269.562L274.566 174.481H281.238L286.243 179.485V184.489H282.906L284.574 189.494L281.238 196.166L286.243 204.506H282.906L281.238 212.847L277.902 216.183V217.851Z" fill="#D1475A" fill-opacity="0.5" stroke="#0000FF" stroke-opacity="0.4" stroke-linecap="round" stroke-linejoin="round"/>
<path id="1911" class="district" name="Cẩm Khê" fill-rule="evenodd" clip-rule="evenodd" d="M202.838 292.915L206.174 286.243L204.506 279.57H197.834V272.898L192.83 262.889L194.498 257.885L186.157 251.213L189.494 246.209L186.157 242.872H181.153L174.481 234.532L169.477 237.868L167.809 236.2L166.14 239.536L162.804 231.196L152.796 226.191L151.128 221.187L146.123 219.519L139.451 211.179L131.111 206.174V202.838L121.102 192.83H117.766L111.094 186.157L112.762 166.14L106.089 162.804L101.085 152.796V147.791L104.421 144.455L111.094 147.791L121.102 144.455L124.438 147.791L131.111 146.123L142.787 151.128V144.455L162.804 156.132H167.809L171.145 161.136V167.809L176.149 174.481L189.494 177.817L196.166 187.826L206.174 189.494L211.179 202.838V219.519L226.191 232.864L227.86 252.881L237.868 259.553L236.2 266.226L227.86 262.889V276.234L224.523 279.57H217.851L216.183 287.911L204.506 294.583L202.838 292.915Z" fill="#D18847" fill-opacity="0.5" stroke="#0000FF" stroke-opacity="0.4" stroke-linecap="round" stroke-linejoin="round"/>
<path id="1910" class="district" name="Đoan Hùng" fill-rule="evenodd" clip-rule="evenodd" d="M249.545 136.115H241.204L232.864 131.111L241.204 124.438L239.536 122.77L231.196 119.434L227.86 121.102L216.183 114.43H207.843L206.174 106.089L209.511 99.417L202.838 92.7447L194.498 89.4085L191.162 94.4128L181.153 96.0809V87.7404H177.817L179.485 86.0723L174.481 77.7319L172.813 79.4L151.128 67.7234H141.119L139.451 59.383L134.447 61.0511L137.783 57.7149L132.779 52.7106L124.438 51.0426L127.774 39.366L131.111 36.0298L129.443 32.6936H132.779L131.111 29.3574L136.115 26.0213L127.774 17.6809H131.111L129.443 16.0128H132.779V12.6766L151.128 22.6851L152.796 19.3489L159.468 26.0213L169.477 24.3532L172.813 27.6894L176.149 24.3532V19.3489L172.813 12.6766L167.809 11.0085L171.145 6.00426L167.809 2.66809L176.149 1L181.153 9.34043L192.83 11.0085L196.166 16.0128L204.506 12.6766L209.511 24.3532L222.855 21.017L232.864 29.3574L231.196 31.0255L234.532 34.3617L244.54 39.366L247.877 37.6979L257.885 41.034L259.553 51.0426L251.213 59.383L256.217 67.7234H264.557L267.894 76.0638L262.889 77.7319L266.226 86.0723L281.238 104.421L277.902 109.426L279.57 116.098L276.234 121.102L267.894 127.774H262.889L261.221 134.447H251.213L249.545 136.115Z" fill="#B7E830" fill-opacity="0.5" stroke="#0000FF" stroke-opacity="0.4" stroke-linecap="round" stroke-linejoin="round"/>
<g id="1909" class="district" name="Hạ Hòa">
<path fill-rule="evenodd" clip-rule="evenodd" d="M166.14 149.46L162.804 156.132L154.464 149.46H149.46L141.119 144.455L144.455 147.792L142.787 151.128L131.111 146.123L126.106 147.792L119.434 144.455L116.098 147.792L104.421 142.787L101.085 152.796L94.4128 154.464L86.0723 144.455L76.0638 147.792V132.779L62.7191 116.098L44.3702 121.102L34.3617 116.098L37.6979 107.757L52.7106 102.753V87.7404L49.3745 84.4043L51.0425 76.0638L46.0383 71.0596L47.7064 69.3915L49.3745 72.7277H57.7149V57.7149L72.7277 51.0426L82.7362 41.0341H91.0766V44.3702L97.7489 49.3745V42.7021L106.089 39.366V34.3617L102.753 31.0255L116.098 26.0213L114.43 22.6851L117.766 21.017H131.111L136.115 26.0213L132.779 32.6936H129.443L131.111 36.0298L127.774 39.366V47.7064L124.438 51.0426L132.779 52.7106L137.783 57.7149L134.447 61.0511H139.451L141.119 67.7234H151.128L167.809 77.7319H174.481L179.485 84.4043L177.817 87.7404H181.153L179.485 96.0809L191.162 94.4128L194.498 89.4085L204.506 94.4128L196.166 99.417V107.757L191.162 112.762L189.494 111.094L186.157 116.098H179.485L174.481 119.434L169.477 132.779L161.136 142.787L166.14 147.792V149.46Z" fill="#49E830" fill-opacity="0.5"/>
<path d="M91.0766 41.0341H82.7362L72.7277 51.0426L57.7149 57.7149V72.7277H49.3745L47.7064 69.3915L46.0383 71.0596L51.0425 76.0638L49.3745 84.4043L52.7106 87.7404V102.753L37.6979 107.757L34.3617 116.098L44.3702 121.102L62.7191 116.098L76.0638 132.779V147.792L86.0723 144.455L94.4128 154.464L101.085 152.796L104.421 142.787L116.098 147.792L119.434 144.455L126.106 147.792L131.111 146.123L142.787 151.128L144.455 147.792L141.119 144.455L149.46 149.46H154.464L162.804 156.132L166.14 149.46V147.792L161.136 142.787L169.477 132.779L174.481 119.434L179.485 116.098H186.157L189.494 111.094L191.162 112.762L196.166 107.757V99.417L204.506 94.4128L194.498 89.4085L191.162 94.4128L179.485 96.0809L181.153 87.7404H177.817L179.485 84.4043L174.481 77.7319H167.809L151.128 67.7234H141.119L139.451 61.0511H134.447L137.783 57.7149L132.779 52.7106L124.438 51.0426L127.774 47.7064V39.366L131.111 36.0298L129.443 32.6936H132.779L136.115 26.0213L131.111 21.017H117.766L114.43 22.6851L116.098 26.0213L102.753 31.0255L106.089 34.3617V39.366L97.7489 42.7021V49.3745L91.0766 44.3702V41.0341ZM91.0766 41.0341L89.4085 42.7021" stroke="#0000FF" stroke-opacity="0.4" stroke-linecap="round" stroke-linejoin="round"/>
</g>
<path id="1908" class="district" name="Lâm Thao" fill-rule="evenodd" clip-rule="evenodd" d="M304.591 307.928L291.247 296.251L276.234 287.911L271.23 279.57L279.57 272.898L282.906 266.226L279.57 257.885L281.238 249.545L266.226 226.191L271.23 217.851H277.902L282.906 204.506H289.579L292.915 209.511L294.583 207.843L302.923 211.179L307.928 217.851L301.255 227.86L304.591 237.868L302.923 241.204L296.251 242.872V246.209L291.247 251.213L309.596 266.226L317.936 264.557L331.281 267.894V299.587L321.272 307.928L311.264 309.596L304.591 307.928Z" fill="#30E886" fill-opacity="0.5" stroke="#0000FF" stroke-opacity="0.4" stroke-linecap="round" stroke-linejoin="round"/>
<path id="1907" class="district" name="Phù Ninh" fill-rule="evenodd" clip-rule="evenodd" d="M352.966 217.851V227.86L349.63 224.523L342.957 226.191L337.953 217.851L342.957 214.515L339.621 209.511L336.285 212.847L331.281 211.179L326.277 222.855L319.604 227.86L307.928 219.519L302.923 211.179L294.583 207.843L292.915 209.511L289.579 204.506H286.243L281.238 196.166L284.574 189.494L282.906 184.489H286.243L284.574 181.153L287.911 179.485L269.562 169.477H264.557L261.221 172.813L257.885 169.477L259.553 166.14L257.885 167.809L252.881 164.472V157.8L242.872 149.46L246.209 142.787L244.54 134.447L257.885 136.115L266.226 126.106L267.894 127.774L279.57 117.766L286.243 116.098L294.583 121.102L296.251 136.115L301.255 137.783L307.928 134.447L312.932 139.451L311.264 147.791L316.268 152.796L319.604 169.477L324.609 179.485V197.834H327.945L332.949 191.162L341.289 187.826L349.63 189.494L357.97 202.838L352.966 214.515V217.851Z" fill="#30DCE8" fill-opacity="0.5" stroke="#0000FF" stroke-opacity="0.4" stroke-linecap="round" stroke-linejoin="round"/>
<path id="1906" class="district" name="Tam Nông" fill-rule="evenodd" clip-rule="evenodd" d="M286.243 309.596L282.906 314.6L272.898 319.604L274.566 321.272L256.217 327.945L249.545 319.604L251.213 317.936L246.209 302.923L229.528 309.596L226.191 304.591L212.847 307.928L211.179 304.591H207.843L204.506 294.583L216.183 287.911L217.851 279.57L219.519 281.238L227.86 276.234V262.889L234.532 266.226L244.54 256.217V236.2L247.877 231.196L246.209 221.187L251.213 211.179L262.889 212.847L267.894 221.187L266.226 226.191L281.238 249.545L279.57 261.221L282.906 264.557L279.57 272.898L271.23 279.57L272.898 284.574L304.591 307.928H319.604L331.281 299.587L326.277 321.272L311.264 317.936V322.94L302.923 324.609L299.587 317.936H294.583V314.6L287.911 311.264L286.243 309.596Z" fill="#306EE8" fill-opacity="0.5" stroke="#0000FF" stroke-opacity="0.4" stroke-linecap="round" stroke-linejoin="round"/>
<path id="1905" class="district" name="Tân Sơn" fill-rule="evenodd" clip-rule="evenodd" d="M139.451 443.043L142.787 454.719L137.783 459.723L132.779 454.719L126.106 459.723L127.774 453.051L119.434 444.711L109.426 439.706L111.094 438.038L97.7489 434.702L92.7447 429.698L87.7404 433.034H77.7319L72.7277 426.362H62.7191L61.0511 423.026L67.7234 421.357L69.3915 414.685L62.7191 404.677L61.0511 393L54.3787 389.664L52.7106 384.66L42.7021 382.991L36.0298 374.651L27.6894 372.983L26.0213 366.311L29.3574 356.302L24.3532 352.966L29.3574 346.294L32.6936 332.949L26.0213 324.609L21.017 322.94L24.3532 316.268L26.0213 317.936V314.6L22.6851 306.26L24.3532 302.923L17.6809 297.919L19.3489 267.894L7.67234 262.889L1 252.881L9.34043 249.545H22.6851L24.3532 247.877L21.017 241.204H26.0213L27.6894 232.864L31.0255 231.196L37.6979 242.872L44.3702 246.209L52.7106 244.54L59.383 256.217H67.7234L77.7319 266.226V271.23L92.7447 269.562L97.7489 276.234H102.753L111.094 281.238H116.098L119.434 277.902L122.77 281.238L126.106 279.57L137.783 284.574L144.455 291.247L154.464 294.583L162.804 302.923V307.928L169.477 319.604L176.149 322.94L171.145 326.277L182.821 344.626L177.817 349.63L184.489 351.298L181.153 352.966L184.489 357.97V377.987L179.485 381.323H169.477L172.813 391.332H169.477L164.472 398.004H181.153L186.157 406.345L182.821 409.681L186.157 429.698L179.485 431.366L181.153 436.37L164.472 434.702L154.464 443.043L147.791 441.374L139.451 443.043Z" fill="#6130E8" fill-opacity="0.5" stroke="#0000FF" stroke-opacity="0.4" stroke-linecap="round" stroke-linejoin="round"/>
<path id="1904" class="district" name="Thanh Ba" fill-rule="evenodd" clip-rule="evenodd" d="M236.2 231.196L247.877 229.528L244.54 236.2V256.217L237.868 259.553L227.86 252.881L226.191 232.864L211.179 219.519L207.843 211.179L211.179 202.838L206.174 189.494L197.834 187.826L189.494 179.485L176.149 174.481L171.145 167.809L169.477 157.8L164.472 156.132V144.455H161.136L176.149 117.766H182.821L189.494 111.094L191.162 112.762L196.166 107.757L197.834 97.749L204.506 94.4128L209.511 99.417L206.174 104.421L207.843 114.43H214.515L241.204 124.438L232.864 131.111L244.54 136.115L246.209 146.123L242.872 147.792L252.881 157.8L251.213 159.468L254.549 169.477L251.213 171.145L246.209 181.153L247.877 182.821L242.872 187.826L236.2 189.494L232.864 197.834L227.86 196.166L221.187 204.506L229.528 207.843H226.191V211.179H231.196L236.2 224.523V231.196Z" fill="#D030E8" fill-opacity="0.5" stroke="#0000FF" stroke-opacity="0.4" stroke-linecap="round" stroke-linejoin="round"/>
<path id="1903" class="district" name="Thanh Sơn" fill-rule="evenodd" clip-rule="evenodd" d="M304.591 519.774L292.915 518.106L291.247 514.77L284.574 518.106L279.57 508.098H276.234L274.566 511.434L267.894 508.098V504.762H264.557L256.217 508.098V511.434H249.545L247.877 513.102L251.213 518.106L242.872 519.774V523.111H237.868L232.864 514.77L241.204 501.426L231.196 496.421V501.426L219.519 506.43H212.847V509.766H194.498L181.153 498.089L171.145 494.753L156.132 468.064L154.464 469.732L147.791 463.06L146.123 464.728L137.783 461.391L142.787 454.719L139.451 443.043H154.464L159.468 436.37L164.472 434.702L181.153 436.37L179.485 431.366H182.821L186.157 426.362L182.821 416.353V409.681L186.157 406.345L181.153 398.004H164.472L172.813 386.328L169.477 381.323L184.489 379.655V357.97L181.153 352.966H184.489V349.63H177.817L182.821 344.626L171.145 327.945L176.149 322.94L174.481 321.272H179.485L194.498 334.617L209.511 336.285V332.949L211.179 337.953H217.851V317.936L212.847 307.928L226.191 304.591L229.528 309.596L237.868 304.591L239.536 306.26L241.204 302.923H246.209L251.213 317.936L249.545 319.604L254.549 324.609L259.553 336.285L279.57 347.962L281.238 354.634L276.234 356.302L277.902 361.306L266.226 359.638L256.217 362.974L261.221 367.979L262.889 381.323L269.562 384.66L274.566 391.332L276.234 394.668H272.898L279.57 408.013L287.911 401.34L292.915 403.009L281.238 416.353L277.902 414.685L274.566 419.689L267.894 421.357V424.694L291.247 464.728H299.587V468.064L304.591 463.06H307.928L312.932 468.064L324.609 508.098L306.26 511.434L307.928 516.438L304.591 519.774Z" fill="#E83092" fill-opacity="0.5" stroke="#0000FF" stroke-opacity="0.4" stroke-linecap="round" stroke-linejoin="round"/>
<path id="1902" class="district" name="Thanh Thủy" fill-rule="evenodd" clip-rule="evenodd" d="M297.919 451.383L306.26 463.06L299.587 468.064V464.728H292.915L287.911 459.723L274.566 433.034L267.894 426.362V421.357L286.243 413.017L294.583 403.008L287.911 401.34L279.57 408.013L272.898 394.668H276.234L274.566 391.332L269.562 384.66H266.226L261.221 379.655V367.979L256.217 362.974L266.226 359.638L276.234 361.306V356.302L281.238 354.634V347.962L259.553 336.285L256.217 327.945L272.898 321.272L286.243 309.596L291.247 314.6L294.583 312.932V317.936H301.255L302.923 324.608L309.596 322.94L311.264 317.936L326.277 321.272L307.928 341.289L294.583 349.63L289.579 362.974L291.247 369.647L301.255 379.655L309.596 396.336L307.928 408.013L301.255 416.353L292.915 434.702L296.251 446.379L297.919 451.383Z" fill="#E83D30" fill-opacity="0.5" stroke="#0000FF" stroke-opacity="0.4" stroke-linecap="round" stroke-linejoin="round"/>
<path id="1901" class="district" name="Yên Lập" fill-rule="evenodd" clip-rule="evenodd" d="M202.838 292.915L216.183 312.932L217.851 337.953H211.179L209.511 332.949V336.285L194.498 334.617V331.281H189.494V327.945L179.485 321.272L169.477 319.604V316.268L162.804 309.596V302.923L154.464 294.583L144.455 291.247L137.783 284.574L127.774 279.57L122.77 281.238L119.434 277.902L112.762 281.238L99.417 276.234L92.7447 269.562L77.7319 271.23L69.3915 256.217H59.383L52.7106 244.54L54.3787 241.204L51.0426 232.864L44.3702 226.191L42.7021 219.519L46.0383 212.847L51.0426 214.515L59.383 199.502L57.7149 189.494L61.0511 187.826V177.817L49.3745 157.8L51.0426 156.132L44.3702 142.787L46.0383 129.443L41.034 121.102L62.7191 114.43L76.0638 132.779V146.123L79.4 147.791L86.0723 144.455L94.4128 154.464L101.085 152.796L104.421 159.468L112.762 166.14L111.094 184.489L114.43 189.494L122.77 194.498L131.111 202.838L132.779 207.843L144.455 214.515L152.796 226.191L162.804 231.196L166.14 237.868L174.481 234.532L181.153 241.204H186.157L189.494 244.54L186.157 251.213L194.498 257.885V269.562L197.834 271.23V279.57H202.838L206.174 286.243L204.506 291.247L202.838 292.915Z" fill="#D147AC" fill-opacity="0.5" stroke="#0000FF" stroke-opacity="0.4" stroke-linecap="round" stroke-linejoin="round"/>
</g>
</svg>
