<svg width="473" height="481" viewBox="0 0 473 481" fill="none" xmlns="http://www.w3.org/2000/svg">
<g id="20" name="Thái Nguyên">
<path id="2009" class="district" name="Sông Công" fill-rule="evenodd" clip-rule="evenodd" d="M239.051 405.686L220.347 402.285L215.245 393.783L203.343 398.884L198.242 395.484L199.942 386.982L174.437 371.679L176.137 368.278L171.036 361.477L181.238 349.574L186.339 347.874L205.043 352.975V358.076L208.444 359.776L210.144 354.675L215.245 351.274L216.946 344.473L228.848 351.274L240.751 349.574L244.152 351.274V354.675L247.552 349.574L250.953 352.975L249.253 354.675L254.354 351.274L257.755 344.473L256.054 341.072L259.455 337.671L267.957 339.372L266.256 342.773L273.058 354.675L267.957 352.975V356.375L262.856 358.076L259.455 364.877L242.451 381.881L247.552 395.484L239.051 400.585L240.751 405.686H239.051Z" fill="#D147AC" fill-opacity="0.5" stroke="#0000FF" stroke-opacity="0.4" stroke-linecap="round" stroke-linejoin="round"/>
<path id="2008" class="district" name="TP Thái Nguyên" fill-rule="evenodd" clip-rule="evenodd" d="M257.755 342.773L254.354 351.274L249.253 354.675L250.953 352.975L245.852 349.574L244.152 352.975L242.451 349.574L230.549 351.274L216.946 344.473L215.245 349.574L210.144 352.975L208.444 359.776L205.043 358.076L203.343 351.274L186.339 347.874L181.238 349.574L171.036 361.477L165.935 358.076L169.336 354.675V337.671L165.935 334.271L162.534 335.971L164.235 339.372L152.332 337.671L147.231 332.57L145.531 334.271L142.13 329.17L145.531 317.267L140.43 313.866L148.931 305.365L143.83 300.264L147.231 295.162H160.834L176.137 305.365H182.939L186.339 300.264L182.939 295.162L184.639 286.661L177.838 283.26L184.639 278.159L179.538 276.458L184.639 273.058L188.04 266.256V261.155H184.639L193.141 254.354L198.242 256.054L208.444 267.957L211.845 266.256L213.545 271.357L220.347 273.058L222.047 276.458L223.747 274.758V278.159H227.148L230.549 283.26L228.848 284.96H232.249L237.35 279.859V274.758L239.051 278.159H256.054L264.556 283.26V291.762H261.155L259.455 298.563L257.755 296.863L249.253 300.264V303.664L254.354 301.964L261.155 312.166L269.657 310.466L273.058 320.668L267.957 324.069L269.657 337.671H259.455L256.054 341.072L257.755 342.773Z" fill="#D1475A" fill-opacity="0.5" stroke="#0000FF" stroke-opacity="0.4" stroke-linecap="round" stroke-linejoin="round"/>
<path id="2007" class="district" name="Phổ Yên" fill-rule="evenodd" clip-rule="evenodd" d="M257.755 480.502H244.152L237.35 473.7V468.599L233.949 466.899L235.65 463.498L232.249 461.798L233.949 453.296L237.35 454.996L235.65 448.195L222.047 449.895L210.144 443.094H203.343L193.141 448.195L194.841 449.895L191.44 460.097L184.639 454.996V451.596L176.137 446.495L179.538 439.693L174.437 426.09L167.635 422.69L157.433 426.09L152.332 422.69L154.032 410.787L148.931 412.487L142.13 403.986L148.931 395.484L150.632 386.982H154.032V378.48L160.834 376.78L162.534 371.679L145.531 358.076L152.332 354.675L131.928 341.072L125.126 339.372L118.325 332.57L121.726 320.668L140.43 313.866L145.531 317.267L142.13 329.17L145.531 334.271L147.231 332.57L152.332 337.671L159.134 339.372H164.235V334.271L169.336 337.671L171.036 339.372L167.635 358.076L176.137 366.578L174.437 371.679L198.242 386.982V395.484L203.343 398.884L213.545 393.783L218.646 397.184L220.347 402.285L240.751 405.686L239.051 400.585L247.552 397.184L242.451 381.881L249.253 373.379H256.054V392.083H264.556L267.957 395.484V405.686L273.058 422.69L281.56 424.39L290.061 437.993V446.495L286.661 451.596L269.657 448.195L267.957 449.895L259.455 465.199L266.256 463.498V468.599H256.054L250.953 473.7L256.054 480.502H257.755Z" fill="#D18847" fill-opacity="0.5" stroke="#0000FF" stroke-opacity="0.4" stroke-linecap="round" stroke-linejoin="round"/>
<path id="2006" class="district" name="Đại Từ" fill-rule="evenodd" clip-rule="evenodd" d="M131.928 403.986L123.426 393.783H109.823L104.722 385.282L96.2202 380.181L99.6209 369.978L92.8195 368.278L84.3177 361.477L77.5162 344.473L67.3141 342.773V339.372L57.1119 330.87L48.6101 317.267H43.509L31.6065 310.466L23.1047 296.863L12.9025 286.661L14.6029 276.458L7.80144 267.957L2.70036 249.253L7.80144 245.852V240.751L1 235.65L6.10108 230.549H9.50181L11.2022 222.047L16.3032 220.347L14.6029 216.946L24.8051 208.444L21.4043 199.942L29.9061 189.74L36.7076 193.141L41.8087 191.44L43.509 196.542L60.5126 201.643L67.3141 198.242V191.44L70.7148 188.04H84.3177L92.8195 182.939L96.2202 186.339V191.44L103.022 198.242L104.722 215.245L101.321 218.646L118.325 225.448L120.025 223.747L125.126 230.549L123.426 239.051L126.827 240.751L128.527 245.852L152.332 256.054L155.733 254.354V257.755L159.134 259.455V266.256L164.235 267.957L167.635 278.159L171.036 276.458L177.838 284.96L184.639 286.661L186.339 290.061H182.939L186.339 300.264L182.939 305.365H177.838L160.834 295.162H147.231L143.83 300.264L148.931 305.365L142.13 313.866L121.726 318.968L118.325 332.57L125.126 339.372L131.928 341.072L147.231 351.274L150.632 354.675L147.231 358.076L162.534 371.679L160.834 376.78L155.733 378.48V381.881L152.332 383.581L154.032 386.982L148.931 390.383V395.484L142.13 403.986L143.83 409.087L147.231 410.787L142.13 405.686L131.928 403.986Z" fill="#B7E830" fill-opacity="0.5" stroke="#0000FF" stroke-opacity="0.4" stroke-linecap="round" stroke-linejoin="round"/>
<path id="2005" class="district" name="Định Hóa" fill-rule="evenodd" clip-rule="evenodd" d="M29.9061 189.74L31.6065 188.04L24.8051 182.939L14.6029 186.339L11.2022 179.538L14.6029 171.036L11.2022 164.235V147.231L21.4043 143.83L26.5054 148.931L33.3069 142.13L31.6065 125.126L26.5054 114.924L29.9061 108.123L43.509 104.722V96.2202L48.6101 94.5199L45.2094 67.3141L50.3105 60.5126L57.1119 62.213L62.213 60.5126L60.5126 55.4116H65.6137L63.9134 43.509L69.0144 29.9061L77.5162 26.5054L79.2166 23.1047L87.7184 24.8051L89.4188 19.704H99.6209L103.022 14.6029L108.123 16.3032L113.224 12.9025L120.025 1L137.029 7.80144V11.2022L143.83 18.0036L152.332 16.3032L159.134 23.1047L162.534 19.704L167.635 21.4043L177.838 41.8087L176.137 52.0108L181.238 62.213L186.339 63.9134L184.639 72.4152L188.04 77.5162L177.838 89.4188L164.235 96.2202H148.931L138.729 106.422L142.13 109.823L140.43 111.523H137.029L130.227 118.325H121.726V121.726L116.625 123.426L114.924 128.527H111.523V138.729L118.325 145.531H125.126L128.527 152.332L121.726 167.635H116.625L109.823 160.834L99.6209 164.235L97.9206 169.336L94.5199 171.036L91.1191 184.639L84.3177 188.04H70.7148L67.3141 191.44V198.242L60.5126 201.643L43.509 196.542L41.8087 191.44L36.7076 193.141L29.9061 189.74Z" fill="#49E830" fill-opacity="0.5" stroke="#0000FF" stroke-opacity="0.4" stroke-linecap="round" stroke-linejoin="round"/>
<path id="2004" class="district" name="Đông Hỷ" fill-rule="evenodd" clip-rule="evenodd" d="M356.375 335.971L358.076 341.072L351.274 352.975L347.874 351.274L341.072 339.372L342.773 335.971L337.671 330.87L329.17 327.469L325.769 329.17L317.267 324.069H307.065V320.668L300.264 317.267L295.162 324.069L288.361 320.668L283.26 308.765L278.159 307.065L264.556 312.166L261.155 310.466L256.054 301.964L250.953 303.664L249.253 300.264L261.155 296.863V291.762H264.556L266.256 286.661L262.856 281.56L256.054 278.159H240.751L237.35 274.758L235.65 281.56L228.848 284.96V278.159L225.448 279.859L223.747 274.758H216.946L211.845 266.256L208.444 267.957L203.343 264.556L199.942 257.755L194.841 254.354L196.542 242.451L193.141 237.35L199.942 228.848L210.144 225.448L215.245 216.946L211.845 210.144L206.744 208.444L205.043 201.643L194.841 198.242L201.643 191.44V188.04L196.542 186.339L194.841 182.939L196.542 176.137L199.942 174.437L198.242 165.935L203.343 154.032L201.643 150.632L210.144 137.029H233.949L240.751 133.628L239.051 140.43L235.65 142.13V154.032L230.549 157.433L237.35 171.036V177.838L256.054 184.639L273.058 181.238L274.758 182.939L276.458 199.942L274.758 205.043L271.357 206.744V213.545H261.155L257.755 218.646L259.455 222.047L256.054 223.747V228.848H259.455L257.755 230.549L262.856 237.35L267.957 239.051L281.56 235.65L298.563 227.148H313.866L320.668 230.549L324.069 244.152L341.072 254.354L344.473 269.657L351.274 271.357L361.477 288.361L369.978 290.061L366.578 296.863H361.477L356.375 303.664L358.076 307.065L354.675 312.166L344.473 318.968L346.173 320.668L342.773 324.069L352.975 325.769L359.776 332.57L356.375 334.271V335.971Z" fill="#30E886" fill-opacity="0.5" stroke="#0000FF" stroke-opacity="0.4" stroke-linecap="round" stroke-linejoin="round"/>
<path id="2003" class="district" name="Phú Bình" fill-rule="evenodd" clip-rule="evenodd" d="M288.361 432.892L283.26 429.491L281.56 424.39L271.357 419.289L273.058 415.888H269.657V402.285L264.556 392.083H256.054L257.755 383.581L254.354 371.679L259.455 361.477L267.957 356.375V352.975L273.058 354.675L266.256 344.473L269.657 339.372V308.765L274.758 305.365L283.26 308.765L288.361 318.968L295.162 324.069L300.264 317.267L307.065 320.668V324.069H317.267L324.069 329.17L327.469 327.469L339.372 332.57L342.773 335.971L341.072 339.372L344.473 346.173L352.975 358.076L351.274 366.578L347.874 369.978L354.675 378.48L349.574 385.282L356.375 395.484L351.274 405.686H346.173L341.072 410.787L346.173 424.39V427.791L341.072 432.892L342.773 434.592L339.372 437.993L334.271 429.491H322.368L317.267 422.69L315.567 424.39L307.065 417.588L301.964 407.386L298.563 410.787V431.191L295.162 427.791L290.061 432.892L288.361 431.191V432.892Z" fill="#30DCE8" fill-opacity="0.5" stroke="#0000FF" stroke-opacity="0.4" stroke-linecap="round" stroke-linejoin="round"/>
<path id="2002" class="district" name="Phú Lương" fill-rule="evenodd" clip-rule="evenodd" d="M104.722 215.245L103.022 199.942L96.2202 191.44L92.8195 181.238L94.5199 171.036L97.9206 169.336L99.6209 164.235L106.422 160.834L113.224 162.534L116.625 167.635L123.426 165.935V160.834L128.527 152.332L125.126 145.531H118.325L116.625 140.43L111.523 138.729L113.224 128.527L118.325 123.426H121.726V120.025L130.227 118.325L131.928 114.924L140.43 111.523L142.13 109.823L138.729 108.123L145.531 101.321V97.9206H155.733L160.834 94.5198L164.235 96.2202L177.838 89.4188L182.939 92.8195V99.6209L189.74 106.422L182.939 109.823V125.126L174.437 145.531L177.838 148.931L176.137 152.332L181.238 157.433L193.141 162.534H199.942V174.437L196.542 176.137L194.841 181.238L196.542 186.339L201.643 188.04V191.44L194.841 198.242L205.043 201.643L206.744 208.444L211.845 210.144L215.245 216.946V220.347L210.144 225.448L199.942 228.848L193.141 237.35L196.542 242.451V256.054L194.841 254.354L184.639 261.155H188.04L184.639 264.556L188.04 269.657L179.538 276.458L184.639 278.159L177.838 283.26L171.036 276.458L169.336 278.159L164.235 267.957L159.134 266.256V259.455L155.733 256.054H150.632L143.83 250.953L128.527 245.852V240.751L123.426 239.051L125.126 230.549L120.025 223.747H113.224L103.022 216.946L104.722 215.245Z" fill="#306EE8" fill-opacity="0.5" stroke="#0000FF" stroke-opacity="0.4" stroke-linecap="round" stroke-linejoin="round"/>
<path id="2001" class="district" name="Võ Nhai" fill-rule="evenodd" clip-rule="evenodd" d="M441.394 291.762L439.693 296.863L432.892 293.462L424.39 281.56L414.188 284.96L412.487 283.26L403.986 288.361L383.581 283.26L373.379 286.661L371.679 291.762L361.477 288.361L356.375 283.26L351.274 271.357L344.473 269.657L339.372 252.653L337.671 254.354L334.271 249.253L324.069 245.852L322.368 233.949L315.567 227.148H300.264L288.361 230.549L283.26 235.65L262.856 239.051L257.755 230.549L259.455 228.848H256.054V223.747H259.455V213.545H271.357V206.744L274.758 205.043L276.458 199.942L274.758 182.939L273.058 181.238L256.054 184.639L237.35 177.838L230.549 157.433L235.65 154.032V142.13L240.751 133.628L239.051 126.827H250.953L257.755 114.924L269.657 103.022H278.159L291.762 97.9206L300.264 91.1191V86.018L307.065 82.6173L305.365 80.917L308.765 72.4152L325.769 79.2166L337.671 67.3141L335.971 62.213L342.773 53.7112L349.574 57.1119L361.477 72.4152H383.581L403.986 82.6173L405.686 96.2202L395.484 104.722L397.184 113.224L393.783 131.928L397.184 135.329L395.484 138.729H390.383L392.083 145.531H388.682L386.982 150.632L383.581 152.332L392.083 164.235L390.383 172.736L393.783 177.838L398.884 179.538L407.386 176.137L417.588 191.44L429.491 196.542V199.942L444.794 205.043L456.697 215.245H460.097L463.498 210.144L470.3 215.245L472 220.347L470.3 230.549L463.498 237.35L465.199 247.552L456.697 252.653L451.596 257.755V262.856L443.094 269.657V274.758L448.195 278.159L444.794 281.56L446.495 286.661L441.394 291.762Z" fill="#6130E8" fill-opacity="0.5" stroke="#0000FF" stroke-opacity="0.4" stroke-linecap="round" stroke-linejoin="round"/>
</g>
</svg>
