<svg width="524" height="450" viewBox="0 0 524 450" fill="none" xmlns="http://www.w3.org/2000/svg">
<g id="21" name="Yên Bái">
<path id="2109" class="district" name="TP Yên Bái" fill-rule="evenodd" clip-rule="evenodd" d="M428.905 294.15H424.177L422.995 291.786L415.902 289.422H405.264L406.446 284.694L402.9 271.691L408.81 270.509L411.174 268.145L409.992 266.963L413.538 258.689H417.084L420.631 262.235H422.995L427.723 257.507L431.269 258.689L433.633 253.96L432.451 252.778L437.179 245.686L431.269 236.23L433.633 232.683L441.908 242.14L440.726 244.504L444.272 246.868L445.454 251.596L446.636 250.414L453.728 259.871H458.456L460.821 262.235L457.274 266.963V269.327H460.821L458.456 275.237L460.821 281.148L459.639 287.058L454.91 289.422L458.456 292.968H460.821L453.728 297.697L452.546 295.332H447.818L440.726 287.058H438.361V284.694L427.723 283.512L425.359 288.24L428.905 292.968V294.15Z" fill="#D147AC" fill-opacity="0.5" stroke="#0000FF" stroke-opacity="0.4" stroke-linecap="round" stroke-linejoin="round"/>
<path id="2108" class="district" name="Nghĩa Lộ" fill-rule="evenodd" clip-rule="evenodd" d="M245.686 333.158L244.504 329.612L246.868 328.43L248.05 323.702L255.142 324.884L261.053 316.61H263.417L259.871 315.427V313.063L256.325 316.61L253.96 309.517L261.053 308.335L262.235 311.881H265.781L269.327 310.699L271.691 308.335L270.509 307.153L272.873 308.335L271.691 314.245L274.055 317.792L278.784 320.156L271.691 333.158L270.509 330.794V333.158L263.417 331.976L261.053 334.34H256.325L253.96 337.887H251.596L250.414 335.522L245.686 336.704L244.504 334.34L245.686 333.158Z" fill="#D1475A" fill-opacity="0.5" stroke="#0000FF" stroke-opacity="0.4" stroke-linecap="round" stroke-linejoin="round"/>
<path id="2107" class="district" name="Lục Yên" fill-rule="evenodd" clip-rule="evenodd" d="M393.443 152.303L376.894 157.032L367.438 168.852L357.982 166.488L354.435 164.124L352.071 158.214L343.797 152.303L341.433 147.575L336.704 145.211L335.522 140.483L330.794 138.119L324.884 129.844L317.792 128.662L314.245 123.934L315.427 122.752L303.607 114.478L296.515 101.475L291.786 99.1108L292.968 94.3826L296.515 90.8364L295.332 88.4723L297.697 84.9261L301.243 83.7441L298.879 82.562L301.243 69.5594L300.061 64.8311L303.607 62.467L301.243 58.9208V54.1926L303.607 51.8285H308.335L310.699 55.3747L316.61 54.1926L318.974 56.5567L314.245 41.19L315.427 37.6438H317.792L320.156 34.0976L314.245 31.7335L307.153 35.2797L301.243 29.3694V15.1847L311.881 1H314.245L315.427 3.36412L318.974 2.18206L326.066 8.09235L329.612 5.72823L334.34 9.27441L336.704 8.09235L341.433 14.0026H353.253L361.528 17.5488L360.346 19.9129L363.892 27.0053V31.7335L360.346 36.4617L361.528 44.7361H366.256L368.62 49.4644H375.712V56.5567L383.987 58.9208L385.169 56.5567L393.443 57.7388L399.354 56.5567L401.718 54.1926V50.6464L406.446 51.8285V54.1926L413.538 50.6464L418.266 57.7388L417.084 62.467L421.813 70.7414L419.449 73.1055L421.813 81.38V92.0185L425.359 94.3826L424.177 96.7467L428.905 101.475V105.021L425.359 108.567L427.723 114.478L420.631 119.206L424.177 127.48L425.359 145.211L421.813 146.393L422.995 154.668L419.449 158.214L421.813 164.124L414.72 160.578L412.356 164.124L413.538 167.67H411.174L408.81 166.488V161.76L402.9 153.485L398.172 157.032L395.807 153.485L393.443 152.303Z" fill="#D18847" fill-opacity="0.5" stroke="#0000FF" stroke-opacity="0.4" stroke-linecap="round" stroke-linejoin="round"/>
<path id="2106" class="district" name="Mù Căng Chải" fill-rule="evenodd" clip-rule="evenodd" d="M177.127 271.691L180.673 275.237L184.219 284.694H188.947L198.404 290.604L196.04 292.968V297.697L185.401 295.332L177.127 297.697L173.58 292.968H161.76L159.396 291.786V289.422L144.029 288.24L140.483 289.422L138.119 296.515L134.573 300.061L109.749 296.515L87.2902 302.425L83.7441 298.879L70.7414 295.332L61.285 288.24L58.9208 290.604L56.5567 289.422L53.0106 291.786L49.4644 287.058L44.7361 288.24L43.5541 285.876H41.19L36.4617 291.786L32.9156 289.422H22.277L23.4591 279.966L17.5488 276.42L16.3668 271.691L11.6385 268.145L14.0026 266.963V259.871L16.3668 257.507L19.9129 255.142L23.4591 257.507L24.6412 255.142L29.3694 256.325V249.232H34.0976L35.2797 243.322L25.8232 224.409H23.4591L18.7309 217.317L14.0026 216.135L15.1847 213.77L2.18206 199.586L1 179.491L3.36412 173.58H9.27441L15.1847 167.67L18.7309 172.398L24.6412 174.763L32.9156 166.488V162.942L36.4617 157.032L43.5541 152.303L45.9182 153.485L48.2823 159.396L45.9182 166.488L54.1926 174.763H67.1953L80.1979 180.673H84.9261L89.6544 174.763L105.021 179.491L106.203 181.855L113.296 185.401L115.66 184.219L119.206 186.583L133.391 188.947L148.757 181.855V172.398L146.393 167.67L139.301 161.76L141.665 159.396L158.214 167.67H167.67L172.398 164.124L175.945 170.034L190.129 174.763L191.311 183.037L201.95 193.675L199.586 205.496L196.04 210.224L198.404 216.135L212.588 223.227L218.499 231.501L229.137 233.865V239.776L217.317 244.504L205.496 240.958L192.493 231.501L184.219 233.865L181.855 226.773L179.491 229.137L175.945 226.773H168.852L165.306 223.227L166.488 237.412L168.852 236.23L174.763 251.596H178.309L179.491 253.96L178.309 266.963L175.945 269.327L177.127 270.509V271.691Z" fill="#B7E830" fill-opacity="0.5" stroke="#0000FF" stroke-opacity="0.4" stroke-linecap="round" stroke-linejoin="round"/>
<path id="2105" class="district" name="Trạm Tấu" fill-rule="evenodd" clip-rule="evenodd" d="M311.881 357.982L328.43 361.528L329.612 365.074L327.248 372.166L331.976 373.348L330.794 376.894L334.34 385.169L327.248 387.533L322.52 393.443L310.699 389.897L303.607 396.989L302.425 404.082L298.879 409.992H287.058L282.33 407.628L277.602 408.81L266.963 425.359L259.871 428.905L257.507 433.633L252.778 437.179L240.958 433.633L235.047 435.997L230.319 432.451V426.541L226.773 420.631L220.863 418.266L216.135 413.538H205.496L198.404 405.264L197.222 408.81L192.493 411.174L186.583 401.718L180.673 399.354L178.309 395.807L179.491 387.533H175.945L171.216 381.623V375.712L175.945 367.438V356.799L171.216 350.889L170.034 344.979L173.58 336.704L178.309 335.522L173.58 322.52L174.763 320.156H178.309L187.765 313.063L188.947 309.517L196.04 302.425V294.15L198.404 290.604L203.132 289.422L206.678 290.604L209.042 295.332L220.863 301.243L223.227 297.697H225.591L226.773 301.243L231.501 303.607H236.23L237.412 301.243L243.322 308.335V318.974H240.958V323.702H246.868L244.504 334.34L245.686 336.704L250.414 335.522L255.142 340.251L253.96 348.525L258.689 350.889V353.253L256.325 355.617L255.142 354.435V356.799L252.778 355.617V357.982H250.414L252.778 361.528L259.871 357.982L266.963 359.164L271.691 354.435L279.966 352.071L282.33 347.343L289.422 343.797H295.332L292.968 347.343H305.971L313.063 354.435L311.881 356.799V357.982Z" fill="#49E830" fill-opacity="0.5" stroke="#0000FF" stroke-opacity="0.4" stroke-linecap="round" stroke-linejoin="round"/>
<path id="2104" class="district" name="Trấn Yên" fill-rule="evenodd" clip-rule="evenodd" d="M422.995 348.525L419.449 353.253H417.084L405.264 343.797H401.718L399.354 341.433L395.807 342.615L391.079 337.887H387.533L379.259 353.253L374.53 352.071L368.62 354.435L367.438 350.889L360.346 353.253L347.343 344.979L346.161 336.704L337.887 333.158L334.34 334.34L329.612 328.43L330.794 315.427L335.522 311.881L336.705 303.607L340.251 301.243L339.069 298.879L341.433 292.968H348.525L349.707 284.694L346.161 281.148L344.979 270.509L347.343 265.781L349.707 263.417L359.164 261.053L356.799 252.778L361.528 244.504H363.892L365.074 246.868V243.322L369.802 237.412L370.984 238.594L373.348 236.23L375.712 238.594L380.441 236.23L378.077 235.047L379.259 230.319L374.53 229.137V219.681L370.984 217.317L368.62 211.406L379.259 207.86L383.987 201.95L382.805 197.222L392.261 192.493L406.446 204.314L408.81 216.135L418.267 217.317L425.359 222.045L433.633 232.683L431.269 236.23L437.179 245.686L431.269 257.507H427.723L425.359 261.053L421.813 262.235L417.084 258.689H413.538L409.992 266.963L411.174 268.145L408.81 270.509L402.9 271.691L405.264 276.42V288.24L408.81 290.604L415.902 289.422L422.995 291.786L424.177 294.15H427.723L428.905 292.968L425.359 285.876L427.723 283.512H433.633L438.361 284.694L439.544 288.24L440.726 287.058L447.818 294.15L453.728 296.515L451.364 302.425L439.544 307.153V317.792H434.815L432.451 315.427L431.269 316.61L434.815 320.156L433.633 326.066L435.997 328.43V337.887L431.269 341.433L425.359 342.615L422.995 346.161V348.525Z" fill="#30E886" fill-opacity="0.5" stroke="#0000FF" stroke-opacity="0.4" stroke-linecap="round" stroke-linejoin="round"/>
<path id="2103" class="district" name="Văn Chấn" fill-rule="evenodd" clip-rule="evenodd" d="M253.96 344.979L255.142 340.251L252.778 339.069L255.142 334.34H261.053L263.417 331.976L269.327 333.158L270.509 330.794H274.055L278.784 321.338L271.691 315.427L272.873 308.335L271.691 307.153L266.963 311.881H262.235L261.053 308.335L253.96 309.517L256.325 316.61L259.871 313.063V315.427L263.417 316.61H261.053L255.142 324.884L240.958 323.702V318.974H243.322V308.335L237.412 301.243L236.23 303.607H232.683L223.227 297.697L220.863 301.243L209.042 295.332L206.678 290.604H198.404L191.311 287.058L190.129 284.694L183.037 283.512V279.966L175.945 269.327L178.309 266.963L179.491 253.96L174.763 251.596L171.216 243.322V238.594L166.488 236.23L165.306 223.227L168.852 226.773H175.945L178.309 229.137L181.855 226.773L184.219 233.865L192.493 231.501L205.496 240.958L217.317 244.504L223.227 249.232L231.501 246.868L233.865 249.232L240.958 250.414L242.14 253.96L248.05 256.325H253.96L266.963 250.414L270.509 252.778L272.873 248.05H278.784L279.966 251.596L287.058 257.507L289.422 256.325L302.425 259.871L308.335 269.327L313.063 271.691L315.427 276.42L320.156 278.784H322.52V276.42L327.248 279.966L328.43 283.512L333.158 284.694L335.522 290.604L341.433 292.968L340.251 301.243L336.704 303.607L335.522 311.881L330.794 315.427L329.612 328.43L331.976 333.158H337.887L346.161 336.704L347.343 343.797L354.435 350.889L360.346 353.253L367.438 350.889L368.62 354.435L374.53 352.071L379.259 353.253L381.623 346.161L383.987 344.979L387.533 337.887H389.897L398.172 342.615L399.354 341.433L401.718 343.797H405.264L417.084 353.253H419.449L422.995 348.525L427.723 352.071L431.269 357.982L430.087 366.256L434.815 375.712L433.633 378.077L441.908 392.261V399.354L439.544 400.536L440.726 407.628L434.815 418.266L431.269 417.084L428.905 421.813L430.087 426.541L437.179 435.997L435.997 439.544H427.723L420.631 430.087L417.084 431.269V437.179H413.538L415.902 441.908L414.72 443.09H401.718L400.536 445.454L395.807 446.636L392.261 444.272L385.169 449L380.441 446.636V439.544H376.894L375.712 435.997H372.166V428.905H369.802L366.256 422.995L365.074 411.174L361.528 414.72H355.617L352.071 411.174L349.707 414.72L347.343 413.538L344.979 425.359H339.069L318.974 417.084L308.335 405.264H304.789L302.425 401.718L305.971 394.625L310.699 391.079L313.063 389.897L318.974 393.443H322.52L326.066 391.079L327.248 387.533H331.976L334.34 385.169L330.794 376.894L331.976 373.348L327.248 372.166L328.43 361.528L311.881 357.982L313.063 354.435L302.425 346.161L292.968 347.343L295.332 343.797H289.422L282.33 347.343L279.966 352.071L275.237 354.435L274.055 353.253L266.963 359.164L259.871 357.982L257.507 360.346L253.96 359.164L252.778 361.528L250.414 357.982H252.778V355.617L255.142 356.799V354.435L256.325 355.617L258.689 353.253V350.889L253.96 349.707V346.161V344.979Z" fill="#30DCE8" fill-opacity="0.5" stroke="#0000FF" stroke-opacity="0.4" stroke-linecap="round" stroke-linejoin="round"/>
<path id="2102" class="district" name="Văn Yên" fill-rule="evenodd" clip-rule="evenodd" d="M348.525 292.968H341.433L335.522 290.604L333.158 284.694L328.43 283.512L327.248 279.966L322.52 276.42V278.784L315.427 276.42L302.425 261.053L287.058 256.325L279.966 251.596L278.784 248.05H272.873L270.509 252.778L266.963 250.414L253.96 256.325L242.14 253.96L240.958 250.414H237.412L231.501 246.868L226.773 249.232L220.863 248.05L218.499 244.504L219.681 242.14L229.137 240.958V233.865L218.499 231.501L212.588 223.227L201.95 218.499L196.04 212.588L201.95 194.858L205.496 190.129L210.224 188.947L216.135 183.037V178.309L220.863 173.58H224.409L233.865 166.488L236.23 161.76L233.865 158.214L235.047 149.939L231.501 140.483V134.573L229.137 132.208V125.116L222.045 115.66L218.499 114.478L217.317 107.385L212.588 105.021L213.77 93.2005L217.317 92.0185V88.4723L220.863 84.9261L219.681 83.7441L224.409 82.562V77.8338L220.863 71.9235L223.227 69.5594L222.045 63.6491L214.953 55.3747L219.681 54.1926L229.137 43.5541H232.683L237.412 47.1003L238.594 50.6464H244.504L246.868 57.7388L253.96 62.467V64.8311L258.689 69.5594L274.055 79.0158L277.602 84.9261L282.33 89.6544H284.694L285.876 93.2005L289.422 94.3826L291.786 99.1108L300.061 106.203L301.243 112.113L310.699 118.024L315.427 122.752L314.245 123.934L317.792 128.662L324.884 129.844L329.612 136.937L335.522 140.483L336.704 145.211L341.433 147.575L352.071 158.214L354.435 164.124L367.438 168.852L372.166 164.124V174.763L386.351 180.673L388.715 185.401L387.533 186.583L391.079 193.675L382.805 197.222L383.987 201.95L379.259 207.86L368.62 211.406L374.53 219.681V229.137H379.259L378.077 235.047L380.441 236.23L375.712 238.594L369.802 237.412L365.074 242.14V246.868L363.892 244.504H361.528V246.868L356.799 251.596L359.164 259.871L357.982 262.235H349.707L344.979 270.509L346.161 281.148L349.707 284.694L348.525 291.786V292.968Z" fill="#306EE8" fill-opacity="0.5" stroke="#0000FF" stroke-opacity="0.4" stroke-linecap="round" stroke-linejoin="round"/>
<path id="2101" class="district" name="Yên Bình" fill-rule="evenodd" clip-rule="evenodd" d="M460.821 294.15L454.91 289.422L459.639 287.058L460.821 281.148L458.456 275.237L460.821 269.327H457.274V266.963L460.821 262.235L458.456 259.871H453.728L451.364 255.142H449V252.778L444.272 250.414L443.09 245.686L440.726 244.504L441.908 242.14L425.359 222.045L418.266 217.317H412.356L407.628 214.953L408.81 213.77L406.446 204.314L395.807 194.858L392.261 192.493L391.079 193.675L387.533 187.765L388.715 185.401L386.351 180.673L380.441 177.127L372.166 175.945L373.348 173.58L370.984 171.216L372.166 164.124L376.894 157.032L391.079 152.303L395.807 153.485L398.171 157.032L401.718 153.485L405.264 155.85L409.992 167.67H413.538L412.356 164.124L414.72 160.578L421.813 164.124L419.449 158.214L422.995 155.85L421.813 147.575L422.995 145.211H425.359L424.177 127.48L420.631 119.206L427.723 114.478L425.359 108.567L428.905 102.657H433.633L438.361 107.385L441.908 106.203L445.454 109.749L449 107.385L454.91 112.113L457.274 120.388H462.003L464.367 122.752L467.913 118.024L476.187 115.66L479.734 116.842L477.369 121.57L478.551 128.662L476.187 135.755V139.301H478.551L479.734 141.665L477.369 149.939L478.551 154.668L473.823 166.488L478.551 170.034L484.462 165.306L486.826 166.488L490.372 171.216L485.644 183.037L488.008 185.401L496.282 186.583L499.828 199.586L502.193 201.95H505.739L506.921 206.678L512.831 214.953L518.741 216.135L519.923 219.681L523.47 222.045L517.559 226.773L515.195 235.047L510.467 238.594L515.195 242.14L512.831 248.05L504.557 253.96L512.831 258.689V265.781L515.195 264.599L519.923 269.327L517.559 275.237H521.106L523.47 279.966L522.288 284.694H511.649L506.921 279.966L505.739 282.33H503.375L493.918 275.237L490.372 277.602L491.554 278.784L489.19 277.602L490.372 278.784L488.008 281.148H479.734L480.916 283.512L471.459 288.24L473.823 292.968L467.913 296.515V301.243L462.003 294.15H460.821Z" fill="#6130E8" fill-opacity="0.5" stroke="#0000FF" stroke-opacity="0.4" stroke-linecap="round" stroke-linejoin="round"/>
</g>
</svg>
