<svg width="286" height="493" viewBox="0 0 286 493" fill="none" xmlns="http://www.w3.org/2000/svg">
<g id="22" name="Tuyên Quang">
<path id="2207" class="district" name="TP Tuyên Quang" fill-rule="evenodd" clip-rule="evenodd" d="M140.399 408.795V406.714L135.198 401.513L128.956 402.553L124.795 400.473L126.875 399.432L129.996 393.19L135.198 391.11L138.319 393.19L139.359 391.11V389.029L133.117 386.949L132.077 383.828H134.158L135.198 381.747L131.037 376.546V372.385L133.117 370.304L131.037 365.103H126.875L124.795 364.062V361.982L129.996 353.659L127.916 349.498L128.956 347.418H134.158L136.238 344.297H139.359L140.399 341.176L143.52 344.297V346.377L145.601 343.256H147.681L150.802 345.337V347.418L156.004 345.337L160.165 349.498L151.842 357.821V359.901L148.722 360.941L149.762 364.062L158.084 373.425L169.527 377.586V380.707L165.366 378.626H159.125L156.004 381.747V384.868L162.245 396.311L160.165 403.593L156.004 405.674H144.56L142.48 408.795L141.44 407.755L140.399 408.795Z" fill="#D147AC" fill-opacity="0.5" stroke="#0000FF" stroke-opacity="0.4" stroke-linecap="round" stroke-linejoin="round"/>
<path id="2206" class="district" name="Chiêm Hóa" fill-rule="evenodd" clip-rule="evenodd" d="M234.026 296.443V299.564L231.945 301.645L224.663 300.604L216.341 307.886L205.938 309.967L201.777 307.886L198.656 302.685L201.777 299.564L199.696 295.403V290.201L196.575 289.161L197.615 280.839L195.535 278.758L196.575 277.718H194.494L192.414 271.476L186.172 272.516L185.132 270.436L180.971 269.396L174.729 277.718L172.648 276.678L167.447 280.839L162.245 276.678L157.044 278.758H148.722L147.681 274.597L150.802 272.516L148.722 262.114L140.399 257.952L137.278 258.993L135.198 265.234L131.037 269.396L124.795 272.516L123.755 277.718L120.634 281.879L113.352 278.758L110.231 275.637L111.271 270.436L119.593 265.234L118.553 261.073L114.392 255.872V253.791L118.553 249.63L117.513 243.388L113.352 241.308L112.311 237.147L108.15 232.985L103.989 231.945V229.864L107.11 226.744L103.989 223.623L107.11 221.542L105.029 218.421V214.26L98.7875 210.099L97.7472 206.978L86.304 194.494L87.3443 193.454L82.1429 192.414L81.1026 190.333L77.9817 191.374L69.6593 188.253L66.5385 191.374L67.5788 194.494L61.337 196.575V193.454L57.1758 188.253L56.1355 184.092L59.2564 179.93H61.337L62.3773 176.81H65.4982L66.5385 173.689L70.6996 170.568L76.9414 168.487V163.286L74.8608 161.205L75.9011 159.125H81.1026V149.762H77.9817L75.9011 143.52H73.8205L74.8608 141.44L80.0623 140.399L92.5458 143.52L98.7875 148.722L100.868 157.044L107.11 150.802L106.07 147.681H103.989V140.399H108.15L112.311 128.956L115.432 129.996L116.473 133.117L121.674 136.238L120.634 138.319L122.714 142.48L126.875 144.56V146.641L137.278 149.762L139.359 148.722L142.48 143.52V140.399L145.601 137.278L150.802 138.319L152.883 136.238L151.842 131.037L153.923 125.835L164.326 124.795L165.366 132.077L169.527 133.117V145.601L163.286 149.762L164.326 158.084L159.125 162.245V166.407L163.286 173.689L167.447 174.729L168.487 176.81L169.527 175.769L175.769 182.011H182.011L187.212 178.89H191.374L194.494 175.769L202.817 176.81L206.978 179.93L211.139 178.89L214.26 175.769L217.381 179.93L223.623 180.971V189.293L225.703 191.374L223.623 193.454L222.582 200.736L228.824 206.978V209.059H231.945L234.026 212.179L232.985 214.26L236.106 221.542L239.227 219.462L244.429 221.542L245.469 224.663L241.308 226.744L238.187 230.905L239.227 234.026L234.026 239.227L235.066 244.429H237.147L236.106 253.791L234.026 255.872L236.106 256.912V258.993H238.187V263.154L243.388 267.315L244.429 271.476V274.597H241.308L239.227 276.678L242.348 288.121L234.026 289.161L235.066 294.363L234.026 296.443Z" fill="#D1475A" fill-opacity="0.5" stroke="#0000FF" stroke-opacity="0.4" stroke-linecap="round" stroke-linejoin="round"/>
<path id="2205" class="district" name="Hàm Yên" fill-rule="evenodd" clip-rule="evenodd" d="M84.2234 351.579L81.1026 344.297L75.9011 342.216L72.7802 330.773H68.6191L63.4176 327.652L67.5788 317.249L65.4982 316.209V313.088L62.3773 312.048L57.1758 316.209L54.0549 313.088L57.1758 302.685L56.1355 299.564L58.2161 291.242L57.1758 289.161H55.0952V286.04L57.1758 280.839L56.1355 273.557L58.2161 269.396L55.0952 268.355L48.8535 270.436L44.6923 274.597L42.6117 272.516H38.4506L36.37 269.396V265.234L34.2894 263.154L31.1685 261.073H21.8059L18.685 256.912H13.4835L10.3626 253.791V249.63L7.24176 247.549V238.187L5.16117 235.066V230.905L7.24176 228.824L5.16117 223.623L3.08059 222.582L4.12088 218.421L1 211.139L7.24176 204.897H11.4029L12.4432 211.139L18.685 212.179L20.7656 202.817L22.8462 199.696L23.8864 200.736L25.967 198.656L24.9267 191.374L28.0476 188.253L19.7253 176.81H17.6447V174.729L21.8059 173.689L25.967 167.447H29.0879L25.967 164.326L27.0073 163.286L24.9267 158.084H19.7253L17.6447 154.963L19.7253 151.842L18.685 148.722L20.7656 146.641V143.52H22.8462L28.0476 150.802H35.3297L41.5714 156.004L53.0147 153.923V156.004L56.1355 158.084L57.1758 163.286L62.3773 166.407L60.2967 170.568L62.3773 178.89L59.2564 179.93L56.1355 184.092L58.2161 190.333L61.337 193.454V196.575L67.5788 195.535L66.5385 191.374L69.6593 188.253L81.1026 190.333L87.3443 193.454L86.304 194.495L93.5861 201.777L98.7876 210.099L106.07 215.3L105.029 218.421L107.11 220.502L105.029 223.623L107.11 226.744L103.989 229.864V231.945L108.15 232.985L112.311 237.147L113.352 241.308H116.473L117.513 243.388L118.553 249.63L114.392 253.791V255.872L118.553 261.073L119.593 265.234L111.271 270.436L110.231 275.637L113.352 277.718L109.19 281.879V283.96L112.311 285L111.271 294.363L116.473 297.484L114.392 304.766L118.553 308.927V316.209H114.392L111.271 318.289L109.19 317.249L107.11 319.33V317.249L103.989 316.209L102.949 318.289L105.029 321.41L98.7876 326.612L96.707 330.773H93.5861L95.6667 339.095L88.3846 344.297V349.498L85.2637 352.619L84.2234 351.579Z" fill="#D18847" fill-opacity="0.5" stroke="#0000FF" stroke-opacity="0.4" stroke-linecap="round" stroke-linejoin="round"/>
<path id="2204" class="district" name="Lâm Bình" fill-rule="evenodd" clip-rule="evenodd" d="M137.278 149.762L132.077 147.681L131.037 148.722L123.755 143.52L120.634 138.319L121.674 136.238L117.513 134.158L115.432 129.996L112.311 128.956L107.11 140.399H103.989V147.681H106.07L107.11 149.762L105.029 153.923L100.868 157.044L98.7875 148.722L93.5861 143.52L89.4249 142.48L90.4652 138.319L86.304 129.996L87.3443 125.835L92.5458 124.795L96.707 117.513V114.392L91.5055 107.11L96.707 105.029L98.7875 101.908L102.949 100.868L99.8278 92.5458V86.304L107.11 67.5788L103.989 59.2564L105.029 56.1355L101.908 50.9341L105.029 49.8938V46.7729L109.19 44.6923L107.11 39.4908L111.271 35.3297L112.311 30.1282L116.473 33.2491L118.553 31.1685L116.473 29.0879V24.9267L111.271 17.6447V14.5238L108.15 12.4432L110.231 11.4029L109.19 10.3626L114.392 1L119.593 4.12088H122.714L124.795 7.24176L136.238 9.32234L138.319 13.4835L147.681 16.6044L150.802 18.685V20.7656L153.923 18.685L159.125 21.8059L161.205 20.7656L166.407 28.0476V34.2894H174.729L178.89 39.4908L185.132 41.5714L189.293 46.7729L188.253 48.8535L190.333 49.8938L192.414 55.0952L190.333 59.2564H193.454L196.575 62.3773L197.615 65.4982L203.857 71.7399L202.817 73.8205L210.099 80.0623L209.059 82.1429L211.139 83.1832V85.2637L204.897 88.3846L205.938 91.5055L202.817 93.5861L204.897 99.8278L202.817 108.15L203.857 123.755L189.293 116.473L176.81 123.755L174.729 118.553L175.769 117.513L167.447 113.352L164.326 108.15L161.205 110.231L160.165 113.352L161.205 118.553L152.883 126.875L151.842 138.319L145.601 137.278L142.48 140.399L139.359 148.722L137.278 149.762Z" fill="#B7E830" fill-opacity="0.5" stroke="#0000FF" stroke-opacity="0.4" stroke-linecap="round" stroke-linejoin="round"/>
<path id="2203" class="district" name="Na Hang" fill-rule="evenodd" clip-rule="evenodd" d="M223.623 180.971L217.381 179.93L214.26 175.769L208.018 179.93L200.736 175.769H194.495L191.374 178.89H187.212L182.011 182.011H175.769L170.568 175.769L169.527 176.81L166.407 173.689H164.326L159.125 166.407V162.245L164.326 158.084L163.286 149.762L169.527 145.601V133.117L165.366 132.077L164.326 124.795H156.004L158.084 120.634L161.205 118.553V109.19L164.326 108.15L169.527 114.392L175.769 117.513L174.729 118.553L176.81 123.755L189.293 116.473L203.857 123.755L202.817 108.15L204.897 99.8278L202.817 93.5861L204.897 91.5055V88.3846L211.139 85.2637L210.099 80.0623L205.938 76.9414L201.777 68.619L197.615 66.5385L196.575 62.3773L193.454 59.2564H190.333L192.414 55.0952L190.333 49.8938L188.253 48.8535V45.7326L185.132 41.5714H182.011L177.85 37.4103V33.2491L180.971 31.1685L179.93 25.967L182.011 23.8864L194.495 24.9267L203.857 29.0879L208.018 28.0476L214.26 35.3297L222.582 37.4103L223.623 39.4908L224.663 37.4103H226.744L225.703 39.4908L228.824 36.37V38.4505L231.945 37.4103L238.187 34.2894L239.227 32.2088L242.348 33.2491L248.59 27.0073H258.993V32.2088L266.275 41.5714L265.234 45.7326L272.516 55.0952L271.476 57.1758L274.597 56.1355L277.718 58.2161L283.96 68.619L285 74.8608L282.919 82.1429L285 86.304L270.436 97.7473L268.355 106.07L269.396 107.11L266.275 108.15L268.355 111.271V118.553L274.597 115.432L272.516 120.634L268.355 121.674L261.073 119.593L260.033 121.674L257.952 120.634L254.832 122.714L255.872 126.875L252.751 133.117L254.832 137.278L252.751 140.399L253.791 143.52L246.509 147.681L247.549 156.004H243.388L240.267 158.084V162.245L244.429 166.407L237.147 170.568H232.985L237.147 174.729L234.026 178.89L230.905 176.81L229.864 178.89L224.663 179.93L223.623 180.971Z" fill="#49E830" fill-opacity="0.5" stroke="#0000FF" stroke-opacity="0.4" stroke-linecap="round" stroke-linejoin="round"/>
<path id="2202" class="district" name="Sơn Dương" fill-rule="evenodd" clip-rule="evenodd" d="M231.945 482.656L230.905 485.777L222.582 487.857L219.462 492.018L217.381 486.817L211.139 484.736L209.059 486.817L205.938 485.777L203.857 481.615L198.656 480.575L192.414 483.696L190.333 482.656L187.212 485.777V488.897L182.011 487.857L178.89 484.736L172.648 486.817L170.568 483.696V476.414L160.165 472.253V469.132L162.245 467.051L152.883 455.608V452.487L150.802 450.407L152.883 448.326L153.923 449.366L152.883 445.205L146.641 443.125L143.52 437.923L148.722 432.722L147.681 423.359L153.923 417.117L152.883 411.916L154.963 405.674L160.165 404.634L162.245 397.352L156.004 384.868L157.044 379.667L165.366 378.626L172.648 382.788H182.011L187.212 386.949L188.253 391.11L191.374 390.07L189.293 393.19L193.454 397.352L196.575 395.271L199.696 396.311L198.656 395.271L202.817 389.029L199.696 383.828L200.736 373.425L206.978 370.304L210.099 364.062H213.22L215.3 361.982L216.341 356.78H222.582L227.784 354.7L232.985 357.821V355.74L239.227 349.498L246.509 352.619L245.469 367.183L247.549 371.344L245.469 376.546L247.549 380.707L253.791 378.626L257.952 381.747L251.711 389.029L253.791 393.19L247.549 399.432L248.59 401.513L245.469 402.553L244.429 407.755L239.227 409.835L243.388 412.956V417.117L240.267 419.198L242.348 424.399L241.308 425.44L247.549 435.842V444.165L252.751 448.326L257.952 456.648L264.194 460.81L258.993 467.051V471.212L256.912 472.253L255.872 476.414L252.751 475.374L248.59 479.535H245.469L243.388 483.696L238.187 480.575L236.106 483.696H234.026L231.945 482.656Z" fill="#30E886" fill-opacity="0.5" stroke="#0000FF" stroke-opacity="0.4" stroke-linecap="round" stroke-linejoin="round"/>
<path id="2201" class="district" name="Yên Sơn" fill-rule="evenodd" clip-rule="evenodd" d="M202.817 387.989L198.656 395.271L199.696 396.311L196.575 395.271L193.454 397.352L189.293 393.19L191.374 391.11H188.253L187.212 386.949L184.092 383.828H177.85L175.769 381.747L172.648 382.788L169.527 380.707L168.487 376.546L158.084 373.425L148.722 360.941H150.802L152.883 355.74L160.165 350.538L156.004 345.337L150.802 347.418L149.762 344.297L145.601 343.256L143.52 346.377V344.297L140.399 341.176L139.359 344.297L132.077 346.377L131.037 348.458L129.996 347.418V353.659L124.795 360.941L125.835 365.103H131.037L133.117 369.264L131.037 375.505L135.198 381.747L134.158 383.828H132.077L139.359 391.11L138.319 393.19L135.198 391.11L132.077 393.19L129.996 392.15L126.875 399.432L124.795 400.473L127.916 402.553L135.198 401.513L140.399 406.714V408.795L149.762 404.634H156.004L152.883 410.875L153.923 417.117L151.842 420.238L147.681 422.319V426.48L135.198 423.359L131.037 420.238V418.158L126.875 417.117L125.835 415.037L121.674 413.996L117.513 417.117L114.392 408.795L109.19 410.875L107.11 407.755L100.868 406.714L96.707 401.513H91.5055L90.4652 399.432L88.3846 400.473L86.304 397.352L87.3443 394.231L80.0623 390.07L87.3443 384.868L89.4249 380.707L85.2637 376.546L90.4652 370.304L91.5055 366.143L96.707 363.022L92.5458 356.78L87.3443 355.74L85.2637 352.619L88.3846 349.498V344.297L91.5055 343.256L94.6264 339.095L93.5861 330.773H97.7473L98.7875 326.612L103.989 321.41V316.209H106.07L107.11 319.33L109.19 317.249L110.231 318.289L117.513 316.209L118.553 308.927L114.392 304.766L116.473 297.484L115.432 295.403L111.271 294.363L112.311 286.04L109.19 283.96V281.879L113.352 278.758L119.593 281.879L122.714 279.799L124.795 273.557L135.198 265.234L137.278 258.993L140.399 257.952L143.52 261.073L145.601 260.033L147.681 262.114L150.802 270.436V272.516L147.681 274.597L148.722 278.758H157.044L162.245 276.678L167.447 280.839L170.568 277.718L176.81 275.637L180.971 269.396L185.132 270.436L186.172 272.516L191.374 271.476L194.494 277.718H196.575V289.161L199.696 290.201L201.777 298.524L198.656 302.685L201.777 306.846L210.099 311.007L224.663 300.604L230.905 301.645L234.026 299.564V289.161L241.308 288.121V280.839L239.227 276.678L241.308 274.597L245.469 276.678V281.879L248.59 282.919L249.63 290.201L252.751 293.322L253.791 292.282L256.912 294.363L260.033 299.564L263.154 301.645H267.315L269.396 303.725L266.275 307.886L268.355 324.531L265.234 325.571V330.773L256.912 332.853L254.831 337.015L257.952 343.256L258.993 353.659L254.831 357.821L251.711 354.7L246.509 355.74V352.619L240.267 349.498L232.985 355.74V357.821L228.824 354.7L216.341 356.78L217.381 358.861L214.26 364.062H210.099L208.018 369.264L200.736 373.425L199.696 383.828L201.777 386.949L202.817 387.989Z" fill="#30DCE8" fill-opacity="0.5" stroke="#0000FF" stroke-opacity="0.4" stroke-linecap="round" stroke-linejoin="round"/>
</g>
</svg>
