<svg width="471" height="504" viewBox="0 0 471 504" fill="none" xmlns="http://www.w3.org/2000/svg">
<g id="23" name="Hà Giang">
<path id="2311" class="district" name="TP Hà Giang" fill-rule="evenodd" clip-rule="evenodd" d="M248.835 250.917L238.422 263.413L219.678 250.917L200.934 244.669V240.504L213.43 228.008L219.678 230.091L225.926 223.843H230.091L236.339 230.091V225.926H240.504L248.835 217.595H259.248L261.331 213.43L280.074 228.008L269.661 238.422L267.579 236.339L250.917 244.669L244.669 242.587L250.917 250.917H248.835Z" fill="#D147AC" fill-opacity="0.5" stroke="#0000FF" stroke-opacity="0.4" stroke-linecap="round" stroke-linejoin="round"/>
<path id="2310" class="district" name="Bắc Mê" fill-rule="evenodd" clip-rule="evenodd" d="M375.876 311.314L371.711 323.81L367.545 319.645H359.215L361.298 315.479L355.05 307.149H344.636L340.471 300.901L334.223 302.983L330.058 294.653H321.727L309.231 286.322V280.074L300.901 273.826L302.983 271.744L296.736 259.248L280.074 250.917L271.744 236.339L275.909 230.091H305.066L309.231 215.512L302.983 198.851L307.149 194.686H317.562L323.81 200.934H327.975L338.388 213.43L350.884 209.264L355.05 213.43V219.678L373.793 225.926L375.876 232.174H382.124L384.207 238.422L396.702 240.504L409.198 250.917H413.364L411.281 253L417.529 255.083L421.694 261.331L430.025 263.413L434.19 269.661L432.107 277.992L436.273 284.24L438.355 282.157L442.521 286.322L438.355 296.736L440.438 317.562L427.942 323.81L421.694 321.727L419.612 325.893L407.116 321.727L402.95 315.479L377.959 311.314H375.876Z" fill="#D1475A" fill-opacity="0.5" stroke="#0000FF" stroke-opacity="0.4" stroke-linecap="round" stroke-linejoin="round"/>
<g id="2309" class="district" name="Bắc Quang">
<path fill-rule="evenodd" clip-rule="evenodd" d="M188.438 500.835L182.19 496.669V500.835L167.612 505L159.281 502.917V498.752L146.785 490.421L153.033 488.339L159.281 492.504L165.529 484.174L159.281 473.76L161.364 469.595L155.116 463.347L167.612 455.017V440.438L173.86 434.19L171.777 427.942L167.612 430.025L165.529 425.86H159.281L163.446 421.694L157.198 419.612L167.612 413.364L163.446 402.95L173.86 380.041L167.612 365.463L169.694 355.05L180.107 338.388L169.694 317.562L190.521 325.893L192.603 330.058H207.182V334.223L211.347 336.306L217.595 330.058H228.008L230.091 332.14L225.926 340.471L219.678 344.636V348.802L223.843 350.884L228.008 342.554L236.339 346.719L234.256 352.967L240.504 355.05L246.752 363.38L250.917 355.05L257.165 357.132L261.331 348.802L259.248 346.719L265.496 344.636L271.744 350.884V363.38H275.909L286.322 375.876L292.57 371.711L296.736 384.207L286.322 396.702L290.488 405.033L284.24 411.281H280.074L284.24 421.694L282.157 430.025H267.579L275.909 438.355V442.521L269.661 446.686L271.744 455.017L263.413 457.099L257.165 463.347L253 457.099L255.083 450.851H250.917V446.686L244.669 440.438L236.339 442.521L230.091 436.273H219.678L213.43 430.025L211.347 440.438L221.76 448.769V452.934L215.512 461.264H211.347L221.76 475.843L211.347 498.752H207.182L205.099 492.504L200.934 490.421L190.521 498.752L188.438 500.835Z" fill="#D18847" fill-opacity="0.5"/>
<path d="M217.595 330.058L211.347 336.306L207.182 334.223V330.058H192.603L190.521 325.893L169.694 317.562L180.107 338.388L169.694 355.05L167.612 365.463L173.86 380.041L163.446 402.95L167.612 413.364L157.198 419.612L163.446 421.694L159.281 425.86H165.529L167.612 430.025L171.777 427.942L173.86 434.19L167.612 440.438V455.017L155.116 463.347L161.364 469.595L159.281 473.76L165.529 484.174L159.281 492.504L153.033 488.339L146.785 490.421L159.281 498.752V502.917L167.612 505L182.19 500.835V496.669L188.438 500.835L190.521 498.752L200.934 490.421L205.099 492.504L207.182 498.752H211.347L221.76 475.843L211.347 461.264H215.512L221.76 452.934V448.769L211.347 440.438L213.43 430.025L219.678 436.273H230.091L236.339 442.521L244.669 440.438L250.917 446.686V450.851H255.083L253 457.099L257.165 463.347L263.413 457.099L271.744 455.017L269.661 446.686L275.909 442.521V438.355L267.579 430.025H282.157L284.24 421.694L280.074 411.281H284.24L290.488 405.033L286.322 396.702L296.736 384.207L292.57 371.711L286.322 375.876L275.909 363.38H271.744V350.884L265.496 344.636L259.248 346.719L261.331 348.802L257.165 357.132L250.917 355.05L246.752 363.38L240.504 355.05L234.256 352.967L236.339 346.719L228.008 342.554L223.843 350.884L219.678 348.802V344.636L225.926 340.471L230.091 332.14L228.008 330.058H217.595ZM217.595 330.058V325.893" stroke="#0000FF" stroke-opacity="0.4" stroke-linecap="round" stroke-linejoin="round"/>
</g>
<path id="2308" class="district" name="Đồng Văn" fill-rule="evenodd" clip-rule="evenodd" d="M359.215 123.876L340.471 117.628L319.645 103.05L315.479 92.6364L319.645 86.3884L311.314 82.2232L309.231 84.3058L305.066 80.1405L307.149 71.8099H302.983L296.736 59.3141L317.562 44.7355H321.727V48.9008L327.975 46.8182V50.9835H336.306L340.471 55.1488L342.554 44.7355L346.719 42.6529V34.3223L350.884 32.2397L348.802 21.8264L355.05 23.9091L373.793 1L384.207 9.33058V17.6612L392.537 32.2397L398.785 36.405L407.116 55.1488H390.455L396.703 67.6446L392.537 80.1405L384.207 82.2232L377.959 78.0579L375.876 71.8099L371.711 75.9752L367.545 82.2232V113.463L361.298 121.793L359.215 123.876Z" fill="#B7E830" fill-opacity="0.5" stroke="#0000FF" stroke-opacity="0.4" stroke-linecap="round" stroke-linejoin="round"/>
<path id="2307" class="district" name="Hoàng Su Phi" fill-rule="evenodd" clip-rule="evenodd" d="M138.455 350.884L130.124 346.719L125.959 348.802L109.298 338.388V330.058L100.967 323.81L96.8016 313.397L103.05 300.901L96.8016 290.488L94.719 275.909L98.8843 259.248L92.6364 257.165L90.5537 250.917H86.3884L88.4711 248.835L71.8099 242.587V238.421L90.5537 223.843H98.8843L103.05 232.174L98.8843 236.339L100.967 238.421L109.298 234.256V225.926L115.545 232.174L117.628 230.091L130.124 238.421L138.455 234.256L150.95 236.339L153.033 244.669L159.281 246.752L169.694 242.587L180.107 244.669V267.579L167.612 282.157L175.942 296.736L165.529 305.066L180.107 340.471L173.86 346.719H167.612L163.446 342.554L144.702 355.05L140.537 352.967L138.455 350.884Z" fill="#49E830" fill-opacity="0.5" stroke="#0000FF" stroke-opacity="0.4" stroke-linecap="round" stroke-linejoin="round"/>
<path id="2306" class="district" name="Mèo Vạc" fill-rule="evenodd" clip-rule="evenodd" d="M421.694 163.446L411.281 161.364L407.116 165.529L394.62 167.612L392.537 161.364L398.785 155.116L390.455 146.785L380.041 144.703L375.876 128.041L377.959 113.463L367.545 115.545L365.463 109.298L369.628 105.132L367.545 80.1405L375.876 71.8099L380.041 80.1405H392.537L396.703 67.6446L390.455 61.3967L392.537 53.0661L407.116 55.1488L396.703 34.3223L409.198 44.7356H413.364V40.5703L419.612 38.4876L423.777 48.9008L436.273 63.4794L440.438 78.0579L450.851 84.3058L457.099 82.2232L469.595 100.967L465.43 105.132V113.463L461.264 117.628H452.934L438.355 157.198L421.694 163.446Z" fill="#30E886" fill-opacity="0.5" stroke="#0000FF" stroke-opacity="0.4" stroke-linecap="round" stroke-linejoin="round"/>
<path id="2305" class="district" name="Quản Bạ" fill-rule="evenodd" clip-rule="evenodd" d="M215.512 148.868V153.033L205.099 155.116L211.347 161.364L207.182 167.612L196.769 171.777L190.521 169.694L182.19 130.124L178.025 128.041L175.942 115.545L184.273 113.463L186.355 117.628H190.521L198.851 109.298L205.099 111.38L209.264 90.5537L213.43 88.4711H217.595L225.926 98.8843L232.174 100.967L236.339 84.3058H242.587L250.917 92.6364H255.083V96.8017L257.165 94.719L261.331 105.132L277.992 115.545V119.711L284.24 123.876V132.207L302.983 153.033L298.818 161.364L305.066 163.446L307.149 169.694L302.983 180.107L294.653 175.942L288.405 180.107H280.074L275.909 184.273L255.083 161.364L246.752 169.694L244.669 186.355L238.421 175.942V165.529H225.926L223.843 150.95L228.008 144.702L219.678 146.785L215.512 148.868Z" fill="#30DCE8" fill-opacity="0.5" stroke="#0000FF" stroke-opacity="0.4" stroke-linecap="round" stroke-linejoin="round"/>
<path id="2304" class="district" name="Quang Bình" fill-rule="evenodd" clip-rule="evenodd" d="M146.785 488.339L148.868 473.76L144.702 465.43H130.124L128.041 461.264L115.545 459.182L105.132 452.934L90.5537 473.76H82.2231L78.0579 461.264L92.6364 450.851L86.3884 438.355L92.6364 432.107L90.5537 427.942L80.1405 425.86L82.2231 419.612L65.562 407.116H61.3967L59.3141 400.868L50.9835 398.785L42.6529 388.372V384.207H46.8182L53.0661 375.876L67.6446 384.207L80.1405 373.793V369.628L88.4711 367.545L100.967 350.884L109.298 348.802V338.388L121.793 344.636L123.876 348.802L130.124 346.719L144.702 355.05L150.95 348.802L161.364 346.719L163.446 342.554L173.86 348.802L169.694 352.967L167.612 365.463L173.86 380.041L163.446 400.868L169.694 413.364L157.198 419.612L163.446 421.694L159.281 425.86L161.364 427.942H171.777L173.86 434.19L169.694 436.273V446.686L165.529 448.769L167.612 455.017L155.116 463.347L161.364 469.595L159.281 473.76L165.529 488.339H148.868H146.785Z" fill="#306EE8" fill-opacity="0.5" stroke="#0000FF" stroke-opacity="0.4" stroke-linecap="round" stroke-linejoin="round"/>
<path id="2303" class="district" name="Vị Xuyên" fill-rule="evenodd" clip-rule="evenodd" d="M294.653 338.388L298.818 340.471L300.901 357.132L294.653 369.628L286.322 373.793L275.909 363.38H271.744V350.884L265.496 344.636H261.331L257.165 357.132L250.917 355.05L246.752 363.38L240.504 355.05L234.256 352.967L236.339 348.802L228.008 342.554L223.843 348.802H219.678V344.636L228.008 338.388V330.058L223.843 332.141L217.595 325.893V330.058L211.347 336.306L205.099 330.058H194.686L169.694 317.562L165.529 307.149L167.612 300.901L175.942 294.653L167.612 277.992L178.025 271.744V257.165L182.19 255.083L178.025 250.917L180.107 246.752L173.86 242.587L163.446 246.752L155.116 244.669L150.95 236.339V225.926L146.785 223.843L157.198 221.76L163.446 215.512L165.529 205.099L169.694 200.934L171.777 203.017L182.19 194.686H190.521L200.934 186.355V173.86L194.686 171.777L209.264 165.529L211.347 163.446L205.099 155.116L215.512 153.033V148.868L219.678 146.785L228.008 144.702L223.843 150.95L225.926 165.529H238.422V175.942L244.669 184.273L248.835 178.025L246.752 171.777L255.083 161.364L273.826 184.273L292.57 175.942L300.901 178.025L305.066 184.273L307.149 194.686L302.983 198.851L309.231 219.678L302.983 230.091L296.736 228.008L294.653 232.174H286.322L267.579 219.678L263.413 213.43L236.339 225.926V230.091L225.926 221.76L223.843 228.008L211.347 230.091L200.934 240.504V244.669L219.678 250.917L232.174 261.331L240.504 263.413L250.917 248.835L244.669 244.669L246.752 242.587H263.413L267.579 236.339H271.744L282.157 253L294.653 257.165L302.983 269.661L300.901 273.826L309.231 280.074L307.149 290.488L300.901 298.818L311.314 313.397V317.562H307.149L300.901 325.893L302.983 332.141L296.736 336.306L294.653 338.388Z" fill="#6130E8" fill-opacity="0.5" stroke="#0000FF" stroke-opacity="0.4" stroke-linecap="round" stroke-linejoin="round"/>
<g id="2302" class="district" name="Xín Mần">
<path fill-rule="evenodd" clip-rule="evenodd" d="M67.6446 384.207L53.0661 375.876L30.157 352.967L34.3223 348.802V338.388H50.9835L46.8182 325.893L48.9008 321.727H42.6529L30.157 313.397L23.9091 294.653L7.24793 296.736L1 290.488V286.322L3.08264 284.24L9.33058 290.488L21.8264 284.24L23.9091 286.322L34.3223 269.661L44.7355 267.579L67.6446 248.835L69.7273 242.587H75.9752L82.2232 248.835L90.5537 250.917L88.4711 255.083H92.6364L100.967 263.413L94.719 271.744L96.8017 288.405L103.05 298.818L96.8017 307.149V313.397L100.967 323.81L109.298 330.058V348.802L98.8843 352.967L94.719 361.298L80.1405 369.628V373.793L69.7273 382.124L67.6446 384.207Z" fill="#D030E8" fill-opacity="0.5"/>
<path d="M53.0661 375.876L67.6446 384.207L69.7273 382.124L80.1405 373.793V369.628L94.719 361.298L98.8843 352.967L109.298 348.802V330.058L100.967 323.81L96.8017 313.397V307.149L103.05 298.818L96.8017 288.405L94.719 271.744L100.967 263.413L92.6364 255.083H88.4711L90.5537 250.917L82.2232 248.835L75.9752 242.587H69.7273L67.6446 248.835L44.7355 267.579L34.3223 269.661L23.9091 286.322L21.8264 284.24L9.33058 290.488L3.08264 284.24L1 286.322V290.488L7.24793 296.736L23.9091 294.653L30.157 313.397L42.6529 321.727H48.9008L46.8182 325.893L50.9835 338.388H34.3223V348.802L30.157 352.967L53.0661 375.876ZM53.0661 375.876L50.9835 377.959" stroke="#0000FF" stroke-opacity="0.4" stroke-linecap="round" stroke-linejoin="round"/>
</g>
<path id="2301" class="district" name="Yên Minh" fill-rule="evenodd" clip-rule="evenodd" d="M350.884 211.347L340.471 213.43L317.562 194.686L307.149 196.769L302.983 182.19L307.149 163.446H298.818L302.983 153.033L284.24 132.207V123.876L277.992 119.711V115.545H273.826L261.331 103.05V98.8843L242.587 84.3058H238.422V80.1405H250.917V73.8926L261.331 71.8099L282.157 53.0661L290.488 57.2314V61.3967L296.736 59.3141L300.901 63.4793V67.6446L307.149 73.8926V84.3058L311.314 82.2231L319.645 86.3884L317.562 98.8843L342.554 119.711L357.132 123.876L367.545 115.545L377.959 113.463V138.455L384.207 146.785H392.537L398.785 157.198L392.537 161.364L394.62 165.529L388.372 171.777L390.455 188.438L380.041 190.521L369.628 198.851V209.264L365.463 213.43L352.967 211.347H350.884Z" fill="#E83092" fill-opacity="0.5" stroke="#0000FF" stroke-opacity="0.4" stroke-linecap="round" stroke-linejoin="round"/>
</g>
</svg>
