<svg width="402" height="384" viewBox="0 0 402 384" fill="none" xmlns="http://www.w3.org/2000/svg">
<g id="24" name="Lào Cai">
<path id="2409" class="district" name="Lào Cai" fill-rule="evenodd" clip-rule="evenodd" d="M182 203L169 198L162 201L153 210L149 209L147 211H144L135 204L136 195L138 194L141 187H143L144 180L147 174L151 170V168L157 163L158 160L156 156L159 153V151L153 149L146 142L145 139L146 132L150 127H152L155 132L159 135L161 132L164 135L169 129H172L175 131L173 135L176 136V138L182 143H190L191 146H188L182 155L187 164L195 172L192 175V181L184 183L183 190L187 194V200L185 202L182 203Z" fill="#D147AC" fill-opacity="0.5" stroke="#0000FF" stroke-opacity="0.4" stroke-linecap="round" stroke-linejoin="round"/>
<path id="2408" class="district" name="Bắc Hà" fill-rule="evenodd" clip-rule="evenodd" d="M316 201L314 199H311L308 195L299 191L297 196L291 200L281 193H279L278 191H275L272 188L270 189L267 184H263L257 179V173L253 169L254 165H252L248 157L243 155L239 156L237 152L233 149V135L235 133L234 129L235 126L241 127L246 123L241 115L248 104L257 101L263 90H271L275 93L277 92V90L281 92H283V90L284 99L288 102L295 90L300 88L304 82V79L302 78L305 71L304 69L313 66H317L322 74L320 76L324 84L332 90L341 92L339 96L341 98L342 107L327 108L326 118L323 125L324 127L331 129L336 137L334 136L328 138L322 142V146L314 150L316 156L319 158L315 170L316 174L314 176L318 181L324 179L326 181L325 185L327 189L329 191L334 190L338 192L341 199H336L333 206L320 199L317 201H316Z" fill="#D1475A" fill-opacity="0.5" stroke="#0000FF" stroke-opacity="0.4" stroke-linecap="round" stroke-linejoin="round"/>
<path id="2407" class="district" name="Bảo Thắng" fill-rule="evenodd" clip-rule="evenodd" d="M236 246H225L223 250L219 251L215 255L205 256L201 255L200 253V246L203 240L201 239L198 229L195 228V225L189 219L182 207V204L187 201V194L183 190L184 184L188 181H192V175L195 172L187 164L182 156L187 147L191 146L190 144L186 142L182 143L176 136H173L175 131L174 130L176 128V124L174 122L178 120L176 118L178 117L176 115L177 113L183 118L184 121H187L193 127L197 124L198 125L202 121L205 123L214 118L221 124L226 120L225 122H230L235 126V132L233 135V149L237 152L239 156L243 155L248 157L252 165H254L253 169L257 173V179L263 184L268 185L270 189L272 188L275 191H278L279 193H281L293 202L292 206L287 209L276 208L272 210L269 219L266 221V226L256 222L253 224L249 223V228L252 232L251 234L248 237L243 236V238H241L236 245V246Z" fill="#D18847" fill-opacity="0.5" stroke="#0000FF" stroke-opacity="0.4" stroke-linecap="round" stroke-linejoin="round"/>
<path id="2406" class="district" name="Bảo Yên" fill-rule="evenodd" clip-rule="evenodd" d="M298 270L296 269L297 266L291 261V256H288L282 260L275 262L268 251L264 249L266 247L264 241L259 239L257 234H255L253 238L250 237L252 232L248 224H253L256 222L265 226L267 225L265 221L270 218L273 209H287L292 206L293 202L291 200L298 194L299 191L308 195L311 199L316 201L319 199L329 203L331 206H333V203L336 200L340 199L341 197L339 196L338 192L334 190L329 191L326 188V182L324 179L317 181L316 177L314 176L316 174L315 171L317 168L319 158L316 156L314 151L318 147L320 148L323 145L322 142L334 136L344 141L341 148L336 152V157L342 167L351 169L353 174H356L365 180V182L367 181L372 184L374 186L371 191L375 195L380 194L383 196L384 198L381 199L378 203L381 206L383 215L379 217L376 222H373L370 225L372 229V235L374 239L379 238L382 235H386L385 243L388 247L390 248L396 245L401 247L399 250H397L396 253L401 266L398 264L393 265L391 262H387L385 264V268L387 271L384 272L385 277L383 288L385 289L381 291V295L377 300L372 297L362 285L345 273L344 270L339 268L337 261H333L327 255H324L322 258H320L317 264L312 265L315 271L318 272V279L308 276L305 267L303 266L299 269L298 270Z" fill="#B7E830" fill-opacity="0.5" stroke="#0000FF" stroke-opacity="0.4" stroke-linecap="round" stroke-linejoin="round"/>
<path id="2405" class="district" name="Bát Xát" fill-rule="evenodd" clip-rule="evenodd" d="M156 164L151 168V170L148 173L144 166L137 167L132 162L122 169L119 165L111 162L107 156L108 155L105 152L103 153L100 147L95 142V140H93L92 145L90 147L92 153L81 151L77 159L75 160L76 166L72 172L70 171L63 174L62 173L54 175H43L36 178L29 174L28 167L22 165V162L18 158H16L10 148L16 141H18L22 134V131L25 128L23 125H21L19 119L20 118L14 110L17 107L9 102L2 104L1 100L7 93V89L10 84L9 83L16 81L18 77L17 76L19 70L15 66L14 57L17 54L20 47L24 44L26 39H28L30 36L32 30L34 29L33 24L38 22V24H40V20L42 19L41 22L43 21L48 23L50 25L52 32H54L59 39L64 40L78 54L76 58L79 59L81 63L86 62L92 67L93 70L105 83L108 91L114 95L129 112L132 109L140 118L141 123L143 124L145 121L146 122L147 125L150 127L146 132L145 139L146 142L153 149L159 151V153L156 155L158 160L157 163L156 164Z" fill="#49E830" fill-opacity="0.5" stroke="#0000FF" stroke-opacity="0.4" stroke-linecap="round" stroke-linejoin="round"/>
<path id="2404" class="district" name="Mường Khương" fill-rule="evenodd" clip-rule="evenodd" d="M242 91L248 103L241 114L246 123L241 127L235 126L231 124V122H226V120L221 124L215 118L205 122L202 121L201 123L193 127L187 121H184L183 118L176 112H178V110L175 109L174 107L177 106V101L182 92V84L184 81L183 77L185 69L187 67V65H185L183 61L187 51V47L197 35L200 33L201 34V32L205 30L210 18L217 13L220 14L221 16L227 14L228 15L233 10L236 11L239 8L240 10H242L247 7H252L261 1L264 3L266 1L269 3L271 7L265 27L267 30V34L271 37L270 42L265 45L259 56L254 53L253 47L246 42L237 51L236 62L239 69V77L243 85V89L242 91Z" fill="#30E886" fill-opacity="0.5" stroke="#0000FF" stroke-opacity="0.4" stroke-linecap="round" stroke-linejoin="round"/>
<path id="2403" class="district" name="Sa Pa" fill-rule="evenodd" clip-rule="evenodd" d="M201 245L200 253L202 258L200 260L202 268L187 266L181 276L175 280L164 277L163 275H160L158 277L152 276L150 280L149 278L147 279L142 277L139 273L136 272L131 265L124 264L123 262L126 259V255L120 253L118 247L115 245L116 241L110 231V228L96 215H90L89 212L85 211L89 208L90 205L88 203L93 201L91 199L93 197L87 194V180L80 173L74 170L76 166L75 161L78 158L79 152L90 151L91 153L92 143L93 140H95V142L100 147L102 152H106L110 161L119 165L120 168L122 169L131 162L137 167L143 166L148 174L144 180L143 186L135 197L136 206L141 208L143 211H147L148 209L153 210L162 201L169 198L177 202H181L182 207L189 219L192 221L195 228L198 229L201 239L203 240L201 241L202 244L201 245Z" fill="#30DCE8" fill-opacity="0.5" stroke="#0000FF" stroke-opacity="0.4" stroke-linecap="round" stroke-linejoin="round"/>
<path id="2402" class="district" name="Si Ma Cai" fill-rule="evenodd" clip-rule="evenodd" d="M257 101L248 103L242 91L243 85L239 77V69L236 63L238 49L245 42L253 47L254 53L258 56L265 47V45L269 42L276 43L279 46L289 45L292 48L296 49L297 57L294 59V62L305 71L302 78L304 81L302 86L295 90L288 102L284 99V90L283 92L277 90V92L275 93L271 90H263L257 101Z" fill="#306EE8" fill-opacity="0.5" stroke="#0000FF" stroke-opacity="0.4" stroke-linecap="round" stroke-linejoin="round"/>
<path id="2401" class="district" name="Văn Bàn" fill-rule="evenodd" clip-rule="evenodd" d="M196 369L187 366H176L171 362L169 358L171 355L169 348L162 342L161 338L156 334L160 329L155 323L157 314L152 302H150L152 292L149 285L150 278L152 276L158 277L162 275L168 279L175 280L180 278L187 266L202 268L200 260L202 258L201 255H215L216 253L217 254L219 251L223 250L227 246H236L239 240L244 236L247 237L250 235V237L253 238L255 234H257L266 245L264 249L268 251L275 261L282 260L287 256H291V260L297 265V270L302 266H305L308 275L310 277L317 279L320 284V288L318 287L314 293V296L310 298V307L314 309L315 315H317L324 324V330L326 332V337L329 344L328 351L330 355L328 359L320 365H317L313 368V373L308 378L304 379V381L301 383L296 379L292 373L291 366L279 362L276 357L272 360H265L250 353L248 357L253 359L256 364V372L250 376L243 378L231 376L228 374L226 375L216 369L206 366L202 371H198L196 369Z" fill="#6130E8" fill-opacity="0.5" stroke="#0000FF" stroke-opacity="0.4" stroke-linecap="round" stroke-linejoin="round"/>
</g>
</svg>
