<svg width="585" height="428" viewBox="0 0 585 428" fill="none" xmlns="http://www.w3.org/2000/svg">
<g id="25" name="Lai Châu">
<path id="2508" class="district" name="TP Lai Châu" fill-rule="evenodd" clip-rule="evenodd" d="M387.573 160.63V166.4L384.688 171.208L369.302 157.745L366.418 150.052L362.571 145.244H367.379L373.149 150.052L378.919 149.09L381.804 151.014H383.727L382.765 150.052L384.688 147.167L392.381 153.898L394.305 151.975L397.19 154.86L398.151 153.898L407.767 159.668V151.014L403.921 149.09V147.167L406.806 145.244L414.499 152.937L417.384 158.707L421.23 156.783L419.307 163.515L421.23 166.4L420.269 170.246L422.192 174.093L408.729 178.901L405.844 168.323H403.921L401.998 164.476L398.151 162.553L399.113 161.591L397.19 160.63L394.305 162.553L390.458 159.668L387.573 160.63Z" fill="#D147AC" fill-opacity="0.5" stroke="#0000FF" stroke-opacity="0.4" stroke-linecap="round" stroke-linejoin="round"/>
<path id="2507" class="district" name="Mường Tè" fill-rule="evenodd" clip-rule="evenodd" d="M215.442 170.246L216.404 172.169L222.174 169.284L229.867 172.169L232.752 175.054L231.79 177.939L234.675 180.824L229.867 185.632V189.479L233.713 193.325L229.867 200.056H222.174L221.212 198.133L211.596 197.172L204.865 199.095L201.018 202.941H198.133L194.287 207.749L201.98 211.596L204.865 218.327L203.903 222.174L193.325 224.097L189.479 220.251H186.594L185.632 223.135L178.901 226.982L175.054 221.212L174.093 216.404L168.323 215.442L162.553 220.251V224.097L152.937 229.867L143.321 219.289L144.282 218.327H138.512L134.666 215.442H130.819L126.011 208.711L120.242 212.558L126.011 215.442L128.896 219.289L131.781 225.059V232.752L126.011 244.291L123.126 245.253L120.242 242.368L112.549 241.406L111.587 237.56H108.702L104.856 232.752L103.894 226.982L105.817 220.251L101.009 217.366L100.047 218.327L91.3928 209.673H86.5846L82.7381 216.404H77.93L74.0835 214.481L68.3138 209.673L67.3521 202.941L60.6208 196.21L54.851 184.67L48.1196 178.901L49.0813 176.016L47.158 175.054V173.131L42.3499 169.284L41.3883 170.246L40.4266 168.323H37.5418V163.515L35.6185 161.591H32.7336L24.079 152.937L26.0023 151.014L25.0406 150.052H26.9639L27.9255 148.129L26.9639 143.321L25.0406 141.397V136.589L26.9639 134.666L23.1174 130.819L16.386 127.935L13.5011 123.126H10.6163V117.357L6.76975 112.549L8.693 108.702L3.88488 106.779L1 101.009L1.96163 97.1625L12.5395 94.2776V91.3928L9.65463 88.5079L10.6163 84.6614L11.5779 85.623L12.5395 83.6998H18.3093L24.079 77.93V75.0451L29.8488 68.3138L35.6185 67.3521L32.7336 64.4673L28.8871 63.5056L22.1558 51.0045L23.1174 49.0813L26.0023 47.158L32.7336 49.0813L35.6185 46.1964H37.5418L41.3883 42.3499L44.2731 33.6952L48.1196 30.8104L46.1964 26.9639L47.158 22.1557L51.0045 17.3476L55.8126 16.386L56.7743 13.5011L62.544 12.5395L65.4289 14.4627L66.3905 13.5011L78.8916 26.0022H80.8149L79.8533 26.9639L81.7765 31.772H83.6998L86.5846 34.6569L87.5463 42.3499L92.3544 41.3882L94.2777 38.5034V34.6569L101.009 30.8104L118.318 47.158L129.858 41.3882L132.743 44.2731H134.666L136.589 46.1964V50.0429L140.436 51.9661L141.397 51.0045L145.244 55.8126H151.014L155.822 63.5056L163.515 64.4673V71.1986L174.093 73.1219L177.939 71.1986L181.786 73.1219L183.709 76.9684L189.479 77.93L193.325 82.7381H195.248L196.21 85.623L194.287 90.4311L197.172 95.2393L196.21 96.2009L199.095 100.047L201.98 101.009L200.056 104.856L205.826 109.664L206.788 114.472L211.596 116.395V123.126L214.481 125.05V129.858L209.673 132.743L208.711 136.589L211.596 141.397L207.749 147.167L210.634 159.668L215.442 168.323V170.246Z" fill="#D1475A" fill-opacity="0.5" stroke="#0000FF" stroke-opacity="0.4" stroke-linecap="round" stroke-linejoin="round"/>
<path id="2506" class="district" name="Nậm Nhùn" fill-rule="evenodd" clip-rule="evenodd" d="M300.065 266.409L306.797 267.37L307.758 280.833L305.835 281.795L300.065 279.871L299.104 277.948H297.181V279.871H291.411L290.449 282.756L287.564 281.795L285.641 280.833L280.833 272.178L274.102 270.255L272.178 279.871L270.255 281.795L272.178 285.641L263.524 286.603L261.6 284.679L259.677 285.641L258.716 288.526L254.869 290.449H251.984L247.176 287.564L239.483 289.488L238.521 288.526L236.598 292.372L237.56 293.334L233.713 298.142L227.944 297.181L225.059 294.296V290.449L219.289 283.718L214.481 282.756L213.519 280.833L216.404 275.063L214.481 269.293L212.558 268.332V274.102H207.749L201.98 279.871L196.21 277.948L192.363 278.91L190.44 285.641H188.517V283.718L178.901 284.679L161.591 276.025L159.668 274.102L161.591 270.255L157.745 264.485H155.822L149.09 258.716L146.205 246.214L147.167 243.33L150.052 241.406L151.975 229.867L158.707 227.944L162.553 224.097V220.251L164.476 218.327L168.323 215.442H172.169L178.901 226.982L185.632 224.097L186.594 220.251H188.517L192.363 224.097L202.941 222.174L204.865 221.212V218.327L201.98 211.596L194.287 207.749L198.133 202.941H201.018L207.749 198.133L211.596 197.172L221.212 198.133L222.174 200.056L229.867 201.018L234.675 193.325L229.867 189.479L230.828 184.67L234.675 181.786L231.79 177.939L232.752 176.016L229.867 172.169L225.059 170.246L220.251 169.284L216.404 172.169L214.481 165.438L210.634 159.668L207.749 147.167L211.596 142.359L208.711 136.589L209.673 132.743L214.481 129.858V125.05H224.097L226.982 127.935L232.752 126.011L236.598 129.858L235.637 132.743L237.56 134.666H241.406L244.291 137.551H246.214L249.099 141.397L251.023 139.474H257.754V137.551L261.6 139.474L266.409 138.512L267.37 129.858L274.102 131.781L277.948 136.589H279.871L286.603 149.09L293.334 145.244L295.257 146.205L296.219 150.052L299.104 151.014L306.797 146.205L308.72 152.937L304.874 160.63L300.065 165.438V172.169L297.181 177.939V193.325L295.257 194.287L294.296 201.018L297.181 210.634L295.257 226.02L292.372 227.944L293.334 230.828L291.411 235.637L293.334 236.598L295.257 244.291L297.181 245.253L300.065 242.368L301.989 250.061L304.874 251.984L305.835 258.716L301.027 262.562L300.065 266.409Z" fill="#D18847" fill-opacity="0.5" stroke="#0000FF" stroke-opacity="0.4" stroke-linecap="round" stroke-linejoin="round"/>
<path id="2505" class="district" name="Phong Thổ" fill-rule="evenodd" clip-rule="evenodd" d="M447.194 109.664L443.348 114.472L444.309 116.395L440.463 123.126H438.54L432.77 129.858L422.192 133.704L419.307 131.781L415.461 132.743L406.806 126.011L402.959 125.05L401.998 123.126H390.458L389.497 126.011L384.688 127.935L388.535 129.858L390.458 132.743V134.666L387.573 136.589L388.535 148.129L384.688 147.167L382.765 151.014L378.919 149.09L373.149 150.052L367.379 145.244H362.571L363.533 143.321L359.686 136.589L351.993 131.781L345.262 124.088L340.454 128.896L336.607 126.011V122.165L329.876 118.318L319.298 121.203L314.49 127.935L311.605 126.973V122.165L302.95 119.28L299.104 121.203L295.257 114.472L285.641 106.779L290.449 101.971L292.372 103.894L302.95 97.1625L295.257 87.5463L294.296 83.6998L297.181 74.0835L299.104 73.1219L300.065 69.2754H302.95V65.4289L305.835 62.544L316.413 64.4673L319.298 61.5824V59.6591H321.221L326.991 53.8894L329.876 54.851L331.799 52.9278L332.761 53.8894L336.607 51.9661L337.569 43.3115L339.492 40.4266L338.53 29.8488L347.185 19.2709L348.147 14.4628L351.032 11.5779L350.07 2.92325L352.955 1L362.571 4.8465H367.379L374.111 9.65463L373.149 10.6163L375.072 12.5395L381.804 13.5011L385.65 20.2325L390.458 21.1941L393.343 26.9639L388.535 30.8104L389.497 34.6569L387.573 37.5418L391.42 44.2731L399.113 50.0429L400.074 51.9661L398.151 53.8894V58.6975L405.844 66.3905L406.806 70.237H408.729V72.1603L411.614 75.0452H413.537L418.345 81.7765L424.115 83.6998L425.077 87.5463L430.847 85.623L439.501 90.4312L436.616 93.316L442.386 100.047L441.424 101.971L443.348 107.74L446.233 108.702L447.194 109.664Z" fill="#B7E830" fill-opacity="0.5" stroke="#0000FF" stroke-opacity="0.4" stroke-linecap="round" stroke-linejoin="round"/>
<path id="2504" class="district" name="Sin Hồ" fill-rule="evenodd" clip-rule="evenodd" d="M354.878 250.061L350.07 254.869V257.754L346.223 260.639L347.185 264.485L341.415 265.447L339.492 267.37L338.53 275.063L334.684 279.871V282.756L341.415 290.449L339.492 293.334L324.106 289.488L315.451 282.756L305.835 281.795L307.758 280.833L306.797 267.37L300.065 266.409L301.027 262.562L305.835 259.677V255.831L304.874 251.984L301.989 250.061L301.027 242.368H299.104L298.142 245.253L295.257 244.291L293.334 240.445L292.372 227.944L295.257 226.02L297.181 210.634L294.296 201.018L295.257 194.287L297.181 193.325V177.939L300.065 172.169V165.438L304.874 161.591L308.72 153.898L306.797 146.205L299.104 151.014L296.219 150.052L295.257 146.205L293.334 145.244L289.488 148.129H284.679L283.718 141.397L279.871 136.589H277.948L273.14 130.819H266.409L263.524 127.935L265.447 125.05L263.524 122.165L265.447 121.203L268.332 114.472L272.178 115.433V113.51H278.91L285.641 107.74L294.296 113.51L295.257 116.395L299.104 119.28V121.203L302.95 119.28L311.605 122.165V126.973L314.49 127.935L315.451 125.05H317.375V123.126L319.298 121.203H322.183L323.144 119.28H334.684L336.607 125.05L340.454 128.896L345.262 123.126L351.993 131.781L359.686 136.589L363.533 142.359L362.571 145.244L366.418 150.052L368.341 155.822L393.343 180.824L405.844 188.517L407.768 190.44L405.844 195.248L412.576 201.018H415.461L419.307 205.826L418.345 207.749L427.962 213.519L429.885 217.366L432.77 219.289L434.693 227.944L437.578 229.867L443.348 238.521V242.368L441.424 244.291H444.309L445.271 247.176L444.309 249.099L436.616 251.984L431.808 260.639L429.885 265.447L430.847 276.025L429.885 277.948H426.038L425.077 286.603L427.962 290.449L426.038 298.142L422.192 299.104L417.384 304.874L418.345 311.605L413.537 316.413L412.576 320.26L409.691 317.375H405.844L401.998 309.682L398.151 306.797V301.989L402.959 298.142L399.113 289.488L394.305 286.603L391.42 287.564L389.497 283.718L385.65 280.833L380.842 260.639L375.072 253.907L376.034 250.061H356.801H354.878Z" fill="#49E830" fill-opacity="0.5" stroke="#0000FF" stroke-opacity="0.4" stroke-linecap="round" stroke-linejoin="round"/>
<path id="2503" class="district" name="Tam Đường" fill-rule="evenodd" clip-rule="evenodd" d="M433.731 225.059L432.77 219.289L429.885 217.366L427.962 213.519L418.345 207.749L419.307 205.826L417.384 201.98L412.576 201.018L405.844 195.248L407.767 190.44L396.228 183.709L384.688 171.208L387.573 167.361L386.612 161.591L390.458 159.668L394.305 161.591H399.113L398.151 162.553L401.998 164.476L403.921 168.323H405.844L408.729 178.901L422.192 174.093L420.269 170.246L421.23 166.4L419.307 163.515L421.23 156.783L419.307 159.668L406.806 145.244L403.921 148.129L407.767 152.937V159.668L399.113 153.898H395.266L394.305 151.975L392.381 153.898L385.65 149.09L384.688 147.167L388.535 148.129L387.573 137.551L390.458 134.666V132.743L388.535 129.858L384.688 127.935L389.497 126.973L390.458 123.126H401.998L402.959 125.05L406.806 126.011L415.46 132.743L419.307 131.781L422.192 133.704L431.808 129.858L433.731 133.704L437.578 135.628L438.539 138.512L444.309 143.321V145.244L450.079 148.129L451.041 154.86L457.772 158.707L464.503 155.822H475.081L482.774 153.898L483.736 154.86L489.506 151.975L492.391 152.937L493.352 151.014L500.084 153.898L506.815 160.63V174.093L512.585 176.977L510.661 178.901L512.585 180.824L507.777 182.747L509.7 184.67L505.853 190.44L508.738 191.402L509.7 194.287L503.93 197.172L499.122 204.865L492.391 207.749L489.506 206.788L481.813 211.596V219.289L478.928 222.174V224.097H477.005V226.02L474.12 225.059L469.312 229.867L460.657 232.752L459.695 234.675L452.002 236.598V240.445H449.117V242.368L445.271 245.253L441.424 244.291L443.348 242.368V238.521L433.731 226.02V225.059Z" fill="#30E886" fill-opacity="0.5" stroke="#0000FF" stroke-opacity="0.4" stroke-linecap="round" stroke-linejoin="round"/>
<path id="2502" class="district" name="Tân Uyên" fill-rule="evenodd" clip-rule="evenodd" d="M514.508 288.526L511.623 289.488L507.777 294.296V300.065L500.084 312.567L497.199 310.643H493.352L491.429 317.375H489.506L486.621 321.221L483.736 320.26L472.196 327.953L469.312 321.221L470.273 318.336L466.427 310.643L460.657 312.567L452.964 307.758L451.041 303.912L438.54 301.027L429.885 297.181L426.038 298.142V294.296L427.962 291.411L425.077 286.603L426.038 277.948L430.847 276.986L429.885 266.409L436.616 251.984L444.309 249.099L445.271 245.253L449.117 242.368V240.445H452.002V236.598L459.695 234.675L460.657 232.752L469.312 229.867L471.235 226.982L476.043 225.059L477.005 226.02V224.097H478.928L477.966 222.174H479.889L481.813 219.289V211.596L489.506 206.788L492.391 207.749L499.122 204.865L503.93 197.172L510.661 193.325L514.508 194.287L528.932 206.788L529.894 211.596L534.702 219.289L533.74 223.135L536.625 225.059L538.549 230.828L544.318 232.752V236.598L541.433 239.483L542.395 241.406L549.126 242.368L553.935 249.099H556.819L558.743 253.907L567.397 255.831L566.436 263.524L569.321 268.332L567.397 277.948H560.666L556.819 284.679L552.011 285.641L553.935 291.411L546.242 287.564L543.357 289.488L546.242 291.411L543.357 294.296L535.664 292.372L532.779 288.526L528.932 293.334H524.124L521.239 291.411L520.278 288.526H516.431H514.508Z" fill="#30DCE8" fill-opacity="0.5" stroke="#0000FF" stroke-opacity="0.4" stroke-linecap="round" stroke-linejoin="round"/>
<path id="2501" class="district" name="Than Uyên" fill-rule="evenodd" clip-rule="evenodd" d="M531.817 419.307L532.779 418.345L530.856 414.499V404.883L527.971 408.729L524.124 406.806L521.239 407.768L519.316 402.959L515.47 400.075V398.151H512.585L511.623 392.382L502.968 391.42L502.007 388.535L504.892 380.842L495.275 379.88L493.352 381.804L489.506 379.88L486.621 375.072H482.774L481.813 372.187L489.506 360.648L491.429 354.878L488.544 352.955L489.506 351.993H486.621L484.698 342.377L477.966 338.53L479.889 330.837L473.158 327.953L482.774 320.26L486.621 321.221L489.506 317.375H491.429L493.352 311.605L497.199 310.643L499.122 312.567L502.968 309.682L507.777 300.065V294.296L511.623 289.488L518.354 287.564L524.124 293.334H528.932L532.779 288.526L536.625 293.334L539.51 292.372L543.357 294.296L546.242 292.372L543.357 289.488L545.28 287.564L549.126 290.449L553.935 291.411L551.05 285.641L556.819 284.679L560.666 277.948H569.321L574.129 289.488L572.205 298.142L577.014 303.912L573.167 308.72L577.975 312.567L579.898 317.375L583.745 321.221L577.975 325.068L575.09 329.876V332.761L568.359 339.492L563.551 337.569L560.666 333.722L555.858 338.53H552.011L549.126 342.377V353.916L550.088 359.686L560.666 370.264L559.704 372.187L566.436 376.995L567.397 379.88H569.321V381.804L571.244 382.765L572.205 388.535L577.014 395.266V398.151L576.052 400.075H572.205V405.844L568.359 404.883L567.397 406.806L564.512 404.883L559.704 408.729V414.499L557.781 415.461L561.628 418.345L559.704 423.154L550.088 421.23L547.203 418.345V426.038L544.318 427L541.433 426.038L540.472 424.115L537.587 425.077L535.664 421.23H533.74L531.817 419.307Z" fill="#306EE8" fill-opacity="0.5" stroke="#0000FF" stroke-opacity="0.4" stroke-linecap="round" stroke-linejoin="round"/>
</g>
</svg>
