<svg width="530" height="459" viewBox="0 0 530 459" fill="none" xmlns="http://www.w3.org/2000/svg">
<g id="26" name="Sơn La">
<path id="2612" class="district" name="Tp Sơn La" fill-rule="evenodd" clip-rule="evenodd" d="M200.685 246.872L195.08 247.675L191.877 246.07V244.465H190.275L187.072 240.454L183.869 238.048L183.068 238.849L179.065 237.245L172.659 230.827L173.46 229.223L179.865 230.026L180.666 226.816L179.065 226.014L183.068 218.794V212.375L180.666 210.772L176.663 213.178L175.061 212.375L175.862 208.364L177.464 206.76L173.46 201.946L174.261 199.54L180.666 194.726L181.467 187.506L183.869 185.902L194.279 186.704V189.11H201.486L202.287 191.518L209.494 190.715L214.299 194.726L216.701 193.924L217.502 197.935H221.506L225.509 209.969H229.512L231.915 217.189L229.512 218.794L228.712 217.991L227.11 220.399L229.512 222.805V224.41L227.911 225.212L229.512 229.223L232.716 230.026L230.313 233.234L231.114 235.641L235.919 239.652L238.321 243.663L235.919 246.07L232.716 246.872L233.517 244.465L231.915 245.268L230.313 244.465L231.114 243.663H227.911L226.31 246.07L223.908 242.059L219.904 243.663L219.104 240.454L216.701 239.652L215.099 237.245L205.49 239.652V242.861L200.685 244.465V246.07V246.872Z" fill="#D147AC" fill-opacity="0.5" stroke="#0000FF" stroke-opacity="0.4" stroke-linecap="round" stroke-linejoin="round"/>
<path id="2611" class="district" name="Bắc Yên" fill-rule="evenodd" clip-rule="evenodd" d="M396.073 307.843L390.466 304.634V306.237L387.265 308.645L388.064 310.249L386.463 315.063L387.265 316.669H390.466V319.876L389.665 321.482L388.064 320.678L387.265 322.284H385.661L380.057 317.47L370.447 315.063L366.444 311.855L363.241 311.051L360.838 307.843L357.637 308.645L355.234 306.237L351.228 307.042L348.828 303.831L340.819 300.622L340.017 295.007L336.014 292.601L332.011 287.788L323.202 282.974L319.999 284.577L315.194 282.974L314.395 280.568L310.392 279.764L294.376 264.522L296.778 261.314L303.983 257.302L304.785 254.895L307.187 257.302H309.59L311.191 252.488L314.395 248.476L307.989 243.663L299.98 241.257L299.181 238.849L290.37 232.432L288.769 228.421L279.961 222.805L279.159 218.794L281.561 213.98L279.961 210.772H281.561L287.97 205.156L288.769 209.167L291.973 205.156L296.778 204.353H295.175L295.976 202.748L296.778 203.551L302.382 201.946L301.581 201.145L303.184 197.133L307.989 192.319H309.59L311.191 189.11L316.797 186.704L318.398 189.11L322.401 190.715L326.404 197.133H328.007L330.41 193.121L333.611 195.529L335.215 198.737L344.023 199.54L345.624 201.946L350.429 204.353L352.03 210.772L355.234 213.98L359.237 212.376L367.244 214.783L370.447 212.376L372.048 209.167L376.853 206.76L381.658 197.935L384.862 194.726L390.466 196.331L388.866 197.133L387.265 201.145L388.064 205.156L392.869 205.958L396.073 209.969L393.671 211.573L395.271 212.376L392.869 213.98V219.596L394.47 220.399L392.869 222.003L394.47 223.607L395.271 227.618L393.671 229.223V232.432L390.466 234.838L392.067 236.443H390.466L391.268 237.245L389.665 239.652L387.265 240.454L388.064 243.663L383.259 244.465L380.856 246.872L381.658 247.675L378.454 250.081V251.686L373.651 253.29L374.45 254.093L371.249 260.51L372.85 259.708L380.057 266.127L377.655 270.137L379.256 274.95L384.061 278.962L383.259 279.764L385.661 282.17L384.061 288.589L380.057 294.204L381.658 302.228L386.463 303.03L389.665 299.821L393.671 298.216L396.073 300.622V307.042V307.843Z" fill="#D1475A" fill-opacity="0.5" stroke="#0000FF" stroke-opacity="0.4" stroke-linecap="round" stroke-linejoin="round"/>
<path id="2610" class="district" name="Mai Sơn" fill-rule="evenodd" clip-rule="evenodd" d="M266.348 320.678L263.147 323.085L266.348 325.491L264.747 327.899V333.516H263.147L260.744 331.109L256.738 335.118L251.134 336.724L245.528 333.516L244.727 331.109L237.52 324.69L235.919 325.491L236.719 326.296L235.118 325.491L230.313 315.864L219.104 320.678L218.303 319.876L219.904 317.47V310.249L218.303 309.448L215.099 308.645L212.697 311.051L207.892 311.855L203.889 310.249L202.287 307.843L199.885 309.448V311.051L196.682 310.249L197.482 308.645L192.678 306.237L189.474 307.042L187.072 304.634L181.467 302.228L179.865 303.03L175.061 301.424L171.858 298.216V295.007H169.456L163.851 289.391L163.05 284.577H159.846L155.843 274.95L153.44 272.543L141.429 266.929V263.72L147.034 258.907L147.835 254.093L151.839 250.884L152.639 247.675L155.843 244.465V247.675L157.444 250.081L163.05 253.29L164.651 258.907L167.054 257.302H170.257L175.061 261.314L177.464 257.302L175.862 246.07L177.464 243.663H179.065L181.467 238.048L187.072 239.652L187.873 242.059L195.08 247.675L200.685 246.872V244.465L205.49 242.861V240.454L207.092 238.849L212.697 237.245H215.099L219.104 240.454L219.904 243.663L223.107 242.059L225.509 243.663L226.31 246.07L227.911 243.663L228.712 244.465L231.114 242.861L230.313 243.663L233.517 244.465L232.716 246.872H234.317L238.321 243.663L231.114 235.641L230.313 233.234L232.716 230.026L229.512 229.223L227.911 225.212H229.512V223.607L227.11 220.399L228.712 217.991L229.512 218.794L231.915 217.189L230.313 213.98L233.517 213.178L235.118 209.969H236.719L239.923 206.76H242.325L243.126 205.156L255.939 222.805L259.141 224.41L262.345 222.805L263.147 225.212L268.751 227.618L269.552 225.212L266.348 219.596L270.351 213.178L274.357 211.573L277.558 212.375L279.159 209.969L281.561 213.98L279.159 217.991L279.961 222.805L288.769 228.421L290.37 232.432L299.181 238.849L299.98 241.257L307.989 243.663L313.593 248.476L309.59 257.302L304.785 254.895L302.382 258.907L299.181 259.708L294.376 263.72L295.175 267.729L291.171 270.137V272.543H289.571L287.97 275.754L289.571 280.568L287.168 284.577L291.171 290.995L289.571 294.204L290.37 301.424L282.363 306.237V307.843L279.159 311.051L279.961 311.855L274.357 319.075H267.949L266.348 320.678Z" fill="#D18847" fill-opacity="0.5" stroke="#0000FF" stroke-opacity="0.4" stroke-linecap="round" stroke-linejoin="round"/>
<path id="2609" class="district" name="Mộc Châu" fill-rule="evenodd" clip-rule="evenodd" d="M421.695 402.508V408.926L418.494 415.345L417.692 420.159H420.095L416.891 426.575H405.681L400.077 424.168L400.876 420.96L399.275 417.751L391.268 411.333L387.265 412.938L388.064 413.739L386.463 412.938L383.259 415.345L384.061 416.147L382.46 417.751L378.454 415.345V413.739L375.252 414.541L372.048 409.727L370.447 397.694L368.046 395.287L360.838 392.881L360.039 387.266L355.234 388.067L353.631 389.672L351.228 387.266L355.234 383.253V380.045L352.832 378.44L354.432 375.231L353.631 372.825L356.835 368.813V363.198L363.241 359.99L367.244 360.792V359.186L365.643 358.384V351.965H368.046L369.646 351.165V349.559L370.447 350.363L373.651 348.757L377.655 343.944L376.051 341.538L376.853 339.13L374.451 333.516L379.256 332.712L381.658 329.503L384.862 331.109L388.866 323.888L387.265 322.284L388.064 320.678L389.665 321.482L390.466 316.669L386.463 315.864L388.064 310.249L387.265 308.645L390.466 306.237V304.634H392.067L400.077 310.249L400.876 307.843L403.278 307.042L404.882 310.249L417.692 315.864L418.494 311.051L425.699 315.063L429.705 311.051L434.51 309.448L436.111 307.843L437.711 302.228L440.916 306.237L452.926 310.249V314.261L451.325 315.864L453.727 317.47L456.932 323.085L456.13 323.888L458.532 325.491L460.133 328.702L460.935 335.923L457.731 342.339H465.739L466.539 343.944L465.739 347.152L467.34 350.363L465.739 354.372H464.136L469.742 361.592L468.141 363.198L469.742 364.804V367.21H455.328L458.532 372.825L452.127 376.033V382.452L450.523 383.253L448.123 382.452L445.721 384.858L442.516 384.057L441.715 385.66L439.312 384.858L437.711 386.464L436.91 384.858H425.699L424.9 383.253H423.299L422.497 384.057L426.501 389.672L432.107 395.287H433.708V396.893H428.101L422.497 402.508H421.695Z" fill="#B7E830" fill-opacity="0.5" stroke="#0000FF" stroke-opacity="0.4" stroke-linecap="round" stroke-linejoin="round"/>
<path id="2608" class="district" name="Mường La" fill-rule="evenodd" clip-rule="evenodd" d="M269.552 225.212L268.751 226.816L263.147 225.212L262.345 222.805L259.141 224.41L255.939 222.805L250.333 213.98L244.727 208.364V205.958L243.126 205.156L242.325 206.76H239.923L236.719 209.969H235.118L233.517 213.178H230.313L229.512 209.969H225.509L223.908 207.562L224.709 206.76L222.306 202.748L223.107 201.946L221.506 197.935H217.502L216.701 193.924L214.299 194.726L210.295 191.518V189.913L214.299 185.902L213.498 185.099L216.701 180.286L215.9 179.483L217.502 177.879L221.506 178.682L223.908 177.077L223.107 176.275L225.509 175.472V172.264L223.908 170.659L219.104 169.856L220.705 168.252H223.908L218.303 161.032L213.498 160.229L210.295 162.637L207.892 158.625L199.084 153.812L192.678 153.01L187.873 155.416L180.666 152.207L174.261 147.394L173.46 145.79L175.061 142.58V136.163L171.858 132.953L173.46 130.547L170.257 128.14L172.659 124.129L168.655 120.117L166.253 120.92L157.444 116.106L159.046 111.293L165.452 107.282L169.456 101.666L173.46 98.4571L174.261 92.8412L179.065 94.446L181.467 91.2367L182.268 92.8412L180.666 96.0499L183.068 102.468L182.268 103.271L185.471 104.875L187.072 108.084L189.475 107.282L190.275 108.886L194.279 109.688L195.08 102.468L197.482 104.875L202.287 106.479H205.49L206.291 104.875L211.896 108.084L211.096 114.502H219.904L220.705 116.909L225.509 112.095L231.114 113.699L231.915 116.106L235.919 115.304L237.52 113.699L243.927 118.513L252.735 120.92L256.738 123.326L259.141 121.722L260.744 122.525L270.351 119.315L287.168 121.722L291.171 114.502L293.574 113.699L303.983 114.502V116.106L305.587 116.909H313.593L315.996 120.117L321.601 118.513L328.806 120.117L328.007 124.129L323.202 130.547L316.797 135.36H314.395L313.593 136.965L316.797 145.79L313.593 146.592L310.392 152.207L311.992 156.218L315.194 159.428L315.996 165.043L312.794 169.856L311.992 177.077L315.194 181.088H317.596L316.797 186.704L311.191 189.11L309.59 192.319H307.989L303.184 197.133L301.581 201.145L302.382 201.946L296.778 203.551L295.976 202.748V204.353L291.973 205.156L289.571 209.167L287.97 205.156L285.567 205.958L281.561 210.772L279.159 209.969L277.558 212.375L274.357 211.573L270.351 213.178L266.348 219.596L268.751 223.607L269.552 225.212Z" fill="#49E830" fill-opacity="0.5" stroke="#0000FF" stroke-opacity="0.4" stroke-linecap="round" stroke-linejoin="round"/>
<path id="2607" class="district" name="Phù Yên" fill-rule="evenodd" clip-rule="evenodd" d="M479.352 305.436L482.554 314.262L478.55 315.864L468.94 312.657L463.336 314.262L460.133 311.051L448.922 309.448L440.916 306.237L437.711 302.228L435.309 309.448L429.705 311.051L425.699 315.063L418.494 311.051L416.891 315.864L408.885 311.051L404.882 310.249L403.278 307.042H401.677L400.076 310.249L396.872 309.448L396.073 300.622L394.47 298.216L386.463 303.03H382.46L380.856 301.424L380.057 295.007L384.061 288.589L385.661 282.974L383.259 279.764L384.061 278.962L378.454 273.347L377.655 270.941L380.057 266.127L372.85 259.708L372.048 260.51V258.907L374.45 254.093L373.651 253.29H376.853L378.454 250.081L380.856 249.279V246.872L384.862 243.663H387.265V240.454L390.466 239.652V237.245L392.067 236.443L390.466 234.838L395.271 227.618L394.47 223.607L392.869 222.003L394.47 220.399L392.067 217.189L395.271 212.375H393.671V210.772H396.073L392.869 205.958L388.866 205.156L387.265 201.946L388.866 197.133L396.073 195.529L398.476 196.331L400.875 192.319L404.882 193.121L412.088 201.145L417.692 204.353L425.699 206.76H429.705L431.306 198.737L432.107 199.54L434.51 197.133L436.111 197.935V199.54H440.916L443.318 197.133L444.117 205.156L445.721 208.364L448.123 209.167L447.321 212.375L448.922 214.783L450.523 213.98L451.325 216.387H453.727V220.399L456.13 222.805L461.734 219.596L463.336 221.2L466.539 220.399L469.742 225.212L475.346 227.618L474.547 242.059L477.749 243.663L476.95 246.07L479.352 251.686L477.749 250.884L476.148 254.093L478.55 254.895L481.755 258.907L480.151 265.323L477.749 268.534L480.151 269.335L478.55 276.555L479.352 278.161L483.356 278.962L486.557 282.974L491.362 283.776V285.381L496.167 289.391H493.765L484.956 293.403L482.554 300.622H478.55L479.352 304.634V305.436Z" fill="#30E886" fill-opacity="0.5" stroke="#0000FF" stroke-opacity="0.4" stroke-linecap="round" stroke-linejoin="round"/>
<path id="2606" class="district" name="Quỳnh Nhai" fill-rule="evenodd" clip-rule="evenodd" d="M133.421 157.021L132.62 155.416H127.816L121.41 145.789V141.779L123.012 140.174L123.812 140.976L125.414 138.569L127.016 139.371L130.219 137.767L123.012 128.942L122.211 132.152L121.41 131.349L115.805 133.756L113.402 130.547L108.597 129.744L110.199 128.14L108.597 126.536L101.39 128.14L95.7853 122.525L100.59 119.315L103.793 112.095L106.996 109.688H108.597L111 112.898L112.602 110.49L108.597 104.875L109.398 102.468L106.195 97.6547L104.594 93.6436L105.395 92.8412L102.191 90.4346L101.39 86.4233L98.9882 83.2143H97.3872L95.7853 80.8075L97.3872 74.3895L95.7853 69.5761H94.1833L96.5863 67.1694L95.7853 64.7626L92.5823 63.1582L90.18 54.3335L86.1762 51.1246L82.1725 50.3222L78.9693 43.9043L79.77 41.4976L78.1685 39.0909L78.9693 32.6728L80.5709 31.8707L78.9693 30.266L83.7737 27.8594V25.4526L85.3753 24.6504L82.9731 19.8369L87.7777 13.419L86.9769 7.80326L90.9809 2.98981L95.7853 1.38531L115.004 7.00102L116.605 10.21L123.012 14.2212L127.816 12.6167L130.219 16.6279V21.4414L132.62 26.255L139.026 29.4639L137.425 35.8818L143.03 39.0909L143.831 47.1132H147.034L146.233 47.9154L148.636 48.7178L147.034 54.3335L141.429 61.5537V66.3671H144.632L150.237 71.9828L151.839 70.3785L159.846 71.1806L157.444 77.5985L159.046 80.8075L163.851 80.0051L166.253 82.4119V85.6211H168.655V87.2254L171.858 89.6321L174.261 94.446L173.46 97.6547L167.854 104.875L159.046 111.293L157.444 116.106L163.05 117.711L165.452 120.92L168.655 120.117L172.659 124.129L170.257 128.14L173.46 130.547L171.858 132.953L175.061 136.163V142.58L173.46 144.987L174.261 147.394L177.464 149.801L176.663 152.207L173.46 153.01L171.058 155.416L170.257 158.625L162.249 153.01L152.639 155.416L150.237 157.823H146.233L144.632 160.229L143.03 156.218H134.222L133.421 157.021Z" fill="#30DCE8" fill-opacity="0.5" stroke="#0000FF" stroke-opacity="0.4" stroke-linecap="round" stroke-linejoin="round"/>
<path id="2605" class="district" name="Sông Mã" fill-rule="evenodd" clip-rule="evenodd" d="M150.237 367.21L146.233 365.605L143.03 361.592L143.831 359.186L139.026 354.372L138.225 350.363L130.218 343.143L133.421 335.923L131.019 331.109L131.82 330.305L130.218 328.702L125.414 327.097L120.609 327.899L119.809 326.296L115.004 327.097L106.996 322.284L102.992 318.272H99.7892L96.5862 314.261L94.9843 315.063L91.7814 313.458L87.7777 308.645L83.7737 307.843L81.3715 303.03H78.9693L78.1684 304.634H74.1646L71.7625 310.249H66.1571L62.954 307.843L65.3562 305.436L62.1531 303.831V302.228L57.3487 297.415L54.9462 290.195L55.7472 289.391L53.3447 277.356L55.7472 276.555L58.9502 271.742L62.1531 273.347L64.5556 271.742L66.1571 264.522L64.5556 259.708L65.3562 255.696L63.7546 254.093L65.3562 249.279L63.7546 244.465L66.1571 242.059L66.9578 238.849L63.7546 228.421L64.5556 227.618L58.9502 224.41L60.5515 222.002L63.7546 223.607L66.9578 217.189L70.1609 213.98L74.1646 214.783L78.9693 217.991L76.5669 222.805L78.1684 229.223L82.973 236.443V239.652L84.5746 241.257L83.7737 242.059L88.5784 245.268L90.18 244.465L92.5823 248.476H95.7853L97.3872 250.081L95.7853 253.29L96.5862 254.093L104.594 254.895L106.195 256.5V254.895L109.398 254.093L107.797 251.686V248.476H105.395L100.59 244.465L99.7892 242.059L101.39 239.652L97.3872 234.838L99.7892 233.234L102.992 236.443H105.395L106.996 233.234L107.797 234.036V231.63L110.199 230.026L111 226.816L115.004 230.026L121.41 231.63L123.812 234.036L128.617 235.641L131.019 240.454L135.823 242.861L147.034 243.663L153.44 242.059L155.843 244.465L152.639 247.675L151.839 250.884L147.835 253.29V257.302L146.233 259.708L141.429 262.916V266.929L153.44 272.543L155.843 274.95L159.846 284.577H163.05L163.85 288.589L169.456 295.007H171.858V299.018L174.261 301.424H177.464L179.865 303.03L181.467 302.228L188.674 307.042L192.678 306.237L196.682 308.645L197.482 307.843L196.682 310.249L199.084 311.051L200.685 308.645L207.092 311.855H211.096L215.099 308.645L218.303 309.448L219.904 311.855V317.47L218.303 319.876L219.104 320.678L230.313 315.864L233.517 322.284L232.716 323.888L236.719 326.296V324.69L238.321 325.491L245.528 333.516L250.333 336.724L244.727 339.932L246.329 343.944L243.926 345.55V351.165L238.321 355.177L235.919 353.571L229.512 354.372L225.509 351.965L223.107 352.77L222.306 351.165L217.502 356.779L216.701 355.978L214.299 357.583L209.494 354.372H200.685L198.283 355.177V356.779H195.881L195.08 359.186H193.478L186.271 368.011L181.467 364.804H179.065L175.862 366.406L175.061 369.617L171.858 372.024L167.054 369.617L159.046 371.219L159.846 370.418H157.444L158.245 369.617L155.042 368.011L152.639 370.418L151.038 368.011L150.237 367.21Z" fill="#306EE8" fill-opacity="0.5" stroke="#0000FF" stroke-opacity="0.4" stroke-linecap="round" stroke-linejoin="round"/>
<path id="2604" class="district" name="Sốp Cộp" fill-rule="evenodd" clip-rule="evenodd" d="M142.229 429.786L136.624 430.587L132.62 418.553H127.816L124.613 412.938L115.804 408.926L113.402 404.112L108.597 402.508L105.395 404.112L102.191 402.508L98.9882 404.112L93.3833 401.706L90.9809 402.508L86.1762 400.905L83.7737 394.485L78.1684 388.067L79.77 384.057L73.364 378.44L69.36 381.651L66.1571 386.464V388.87L58.1494 388.067L56.5478 391.278L54.1456 392.079L50.1418 391.278L44.5363 384.858L40.5325 386.464L31.7241 380.846L25.3181 380.045L22.9157 375.231L15.7089 380.045L9.30269 376.033L6.90043 376.837L3.69737 371.219L5.29889 369.617L6.90043 364L4.49815 362.397L3.69737 359.99L0.494324 359.186L1.29509 357.583L10.1035 358.385L15.7089 355.177L20.5134 356.779L19.7127 355.978L22.9157 353.571L18.9119 347.956V343.944L22.9157 340.736L24.5173 342.339L25.3181 341.538V334.317L22.1149 327.097L22.9157 326.296L19.7127 324.69V323.085H21.3142L22.1149 321.482L20.5134 320.678L23.7165 319.075L21.3142 313.458L18.9119 311.051L18.1111 307.042L20.5134 303.831L25.3181 306.237L26.1187 305.436L25.3181 303.03L22.1149 300.622L23.7165 298.216L21.3142 295.809L23.7165 294.204H28.521L29.3219 295.809H35.7278L42.935 302.228H44.5363L46.1378 305.436L52.5441 304.634L55.7472 306.237L62.1531 303.831L65.3562 305.436L62.954 307.843L66.1571 310.249H71.7625L74.1646 307.843V304.634H78.1684L78.9693 303.03H81.3715L82.973 307.042L87.7777 308.645L90.9809 313.458L94.9843 315.063L96.5862 314.262L98.1882 317.47L102.191 319.075L102.992 318.272L106.996 322.284L115.004 327.097L119.008 326.296L120.609 327.899H130.218L131.82 329.503L131.019 331.109L133.421 335.923L130.218 342.339L137.425 348.758L139.026 351.965L138.225 352.77L142.229 358.385H143.831L143.03 361.592L147.034 366.406L150.237 367.21L152.639 370.418L155.042 368.012L156.643 369.617L157.444 368.813V370.418L162.249 371.219L166.253 369.617L172.659 372.825L174.261 377.639L173.46 380.045L170.257 380.846L165.452 386.464V389.672L168.655 392.881L167.854 396.091L166.253 396.893L168.655 402.508L163.05 407.321H151.839V419.354L155.042 424.972L154.241 426.575H152.639V428.18L144.632 428.981L142.229 429.786Z" fill="#6130E8" fill-opacity="0.5" stroke="#0000FF" stroke-opacity="0.4" stroke-linecap="round" stroke-linejoin="round"/>
<path id="2603" class="district" name="Thuận Châu" fill-rule="evenodd" clip-rule="evenodd" d="M95.7853 253.29L97.3872 251.686L95.7853 248.476H92.5823L90.18 244.465L88.5784 245.268L83.7737 242.059L84.5746 241.257L82.973 239.652V236.443L80.5709 234.036V231.63L78.1684 230.026L76.5669 223.607V221.2L78.9693 217.991L74.1646 214.783L70.1609 213.98L63.7546 222.805L60.5516 222.002L57.3487 225.212L52.5441 224.41L46.9387 221.2L46.1378 218.794L49.3409 215.585L51.7431 209.167L43.7357 208.364L42.935 202.748L37.3294 199.54L34.9272 194.726L38.931 189.913L41.3334 191.518L44.5363 189.913L47.7394 190.715L48.5403 188.309L50.9425 189.11L52.5441 187.506L58.9502 190.715L64.5556 189.11L66.9578 189.913L69.36 187.506L68.5593 185.902L70.9615 181.088V173.868L68.5593 172.264L72.5631 164.241L71.7625 162.637L79.77 161.834L80.5709 159.428L84.5746 157.021L88.5784 157.823L90.18 154.614L89.3793 148.196L94.1833 146.592L92.5823 141.779L94.9843 136.965L98.1882 136.163V133.756L101.39 128.14L108.597 126.536L110.199 128.14L108.597 129.744L113.402 130.547L115.804 133.756L120.609 131.349L122.211 132.152L123.012 128.942L127.816 133.756L127.016 134.558L130.219 136.965L127.016 139.371L125.414 138.569L123.812 140.976L123.012 140.174L121.41 141.779V145.79L127.816 155.416L129.418 154.614L133.421 157.021L140.628 154.614L143.03 156.218L143.831 160.229L146.233 157.823H149.436L152.639 155.416L162.249 153.01L170.257 158.625L171.058 155.416L173.46 153.01L176.663 152.207L177.464 149.801L187.873 155.416L192.678 153.01L199.084 153.812L207.892 158.625L210.295 162.637L213.498 160.229L217.502 161.032L223.908 168.252H220.705L219.104 169.856L223.107 170.659L225.509 175.472L221.506 178.682L217.502 177.879L213.498 185.099L214.299 185.902L208.693 191.518H202.287L201.486 189.11H194.279L195.08 186.704L183.869 185.902L181.467 186.704L180.666 194.726L178.264 195.529L174.261 199.54V203.551L177.464 206.76L175.061 209.969V212.375L176.663 213.178L180.666 210.772L183.068 211.573V218.794L179.065 226.014L180.666 226.816L179.865 230.026H172.659L175.862 234.838L181.467 238.048L179.065 243.663L175.862 245.268L177.464 252.488L175.862 261.314L170.257 257.302L164.651 258.907L163.05 253.29L156.643 249.279L155.843 244.465L153.44 242.059L147.034 243.663L135.823 242.861L131.019 240.454L128.617 235.641L118.207 231.63L117.406 230.026L111 226.816L107.797 234.036L106.996 233.234L105.395 236.443H102.992L99.7892 233.234L97.3872 234.838L101.39 238.849L99.7892 242.059L100.59 244.465H102.191L105.395 248.476H107.797V251.686L109.398 254.093L106.195 254.895V256.5L104.594 254.895L96.5862 254.093L95.7853 253.29Z" fill="#D030E8" fill-opacity="0.5" stroke="#0000FF" stroke-opacity="0.4" stroke-linecap="round" stroke-linejoin="round"/>
<path id="2602" class="district" name="Vân Hồ" fill-rule="evenodd" clip-rule="evenodd" d="M524.994 408.124L526.597 409.727L516.987 411.333L508.981 407.321L508.18 405.718H506.578V407.321L503.375 404.112L499.371 404.914L495.368 400.905L493.765 401.706L490.563 398.497L489.761 399.299L484.956 397.694L480.151 401.706L473.745 403.311V408.124L476.148 408.926L474.547 415.345H476.148L476.95 417.751L473.745 419.354L475.346 422.565L473.745 430.587L476.148 432.993L472.946 436.201L468.94 437.003L466.539 440.214L465.739 439.41L461.734 445.028L463.336 448.235V454.654H457.731L456.932 457.061H454.529L452.925 454.654H451.325L448.922 457.061L445.721 457.862L444.919 455.455L440.114 450.642L440.916 448.235H433.708L432.107 449.037V450.642H428.903L429.705 445.828L424.9 441.816H422.497L420.896 437.807L416.091 432.993L416.891 429.783L415.291 426.575H416.891L420.095 420.159H417.692L418.494 415.345L421.695 408.926L420.896 403.311L424.9 400.905L425.699 398.497L428.101 396.893L433.708 397.694V395.287H432.107L422.497 384.057H430.504L432.906 385.66L436.91 384.858L437.711 386.464L439.312 384.858H445.721L448.123 382.452H452.126V376.837L456.13 372.825H459.333L456.932 368.011L455.328 367.21H469.742L468.141 363.198L469.742 362.397L464.136 354.372H465.739L467.34 350.363L465.739 347.956L466.539 346.351L464.938 345.55L466.539 344.745L465.739 343.143H460.133L457.731 341.538L460.935 335.923L460.133 328.702L453.727 317.47L451.325 315.864L452.925 314.261V310.249L460.133 311.051L463.336 314.261L468.94 312.657L478.55 315.864L482.554 315.063L486.557 317.47L489.761 322.284V325.491L492.966 331.109L498.57 335.923L503.375 345.55L507.378 347.956L510.582 351.965L514.585 353.571L515.386 359.186L521.792 369.617L520.191 372.825L523.393 373.626L520.99 381.651L524.195 384.858L529 386.464L524.994 390.473V392.079L522.594 390.473V392.881L518.588 401.706L524.195 404.914L524.994 407.321V408.124Z" fill="#E83092" fill-opacity="0.5" stroke="#0000FF" stroke-opacity="0.4" stroke-linecap="round" stroke-linejoin="round"/>
<path id="2601" class="district" name="Yên Châu" fill-rule="evenodd" clip-rule="evenodd" d="M351.228 387.266L341.621 378.44L338.416 380.045L333.611 374.431L332.812 375.231V373.626H331.209L328.007 368.011L326.404 369.617L325.605 368.813V367.21L327.206 366.406L325.605 359.186L319.999 353.571L315.194 351.965V347.956L314.395 348.757L311.191 347.152L306.386 350.363L305.587 355.978H303.983L300.782 352.77H299.181L299.98 349.559H298.379L299.98 348.757L300.782 345.55L296.778 344.745V343.143L291.973 343.944V342.339H290.37L289.571 340.736H286.366L284.766 337.526L275.957 338.329L269.552 340.736H267.949L266.348 337.526L264.747 333.516V327.899L266.348 325.491L263.147 323.085L267.949 319.075H274.357L279.961 312.657L279.159 311.051L282.363 307.843L281.561 306.237L290.37 301.424L289.571 294.204L291.171 290.995L287.168 284.577L289.571 281.368L287.97 275.754L289.571 272.543L291.973 271.742L291.171 270.137L295.976 266.127L310.392 279.764L314.395 280.568L315.194 282.974L319.999 284.577L323.202 282.974L332.011 287.788L336.014 292.601L340.017 295.007L340.819 300.622L344.822 303.03H348.828L351.228 307.042L355.234 306.237L357.637 308.645L360.838 307.843L363.241 311.051L366.444 311.855L368.846 314.261L376.853 315.864L380.057 317.47L382.46 320.678L388.866 323.085L384.862 330.305L381.658 329.503L379.256 332.712L374.45 333.516L376.853 338.329L376.051 341.538L377.655 343.143L373.651 348.757L370.447 350.363L369.646 349.559L370.447 351.165L365.643 351.965V358.384L367.244 360.792L363.241 359.99L356.835 363.198V368.813L352.832 377.638L355.234 380.045V384.858L351.228 387.266Z" fill="#E83D30" fill-opacity="0.5" stroke="#0000FF" stroke-opacity="0.4" stroke-linecap="round" stroke-linejoin="round"/>
</g>
</svg>
