<svg width="387" height="474" viewBox="0 0 387 474" fill="none" xmlns="http://www.w3.org/2000/svg">
<g id="27" name="Điện Biên">
<path id="2710" class="district" name="TP Điện Biên Phủ" fill-rule="evenodd" clip-rule="evenodd" d="M245.075 336.604L229.094 338.057V330.792L224.736 329.34L227.642 322.075L234.906 324.981L233.453 313.358L237.811 310.453L243.623 317.717L249.434 319.17L247.981 320.623L250.887 332.245L245.075 336.604Z" fill="#D147AC" fill-opacity="0.5" stroke="#0000FF" stroke-opacity="0.4" stroke-linecap="round" stroke-linejoin="round"/>
<path id="2709" class="district" name="Mường Lay" fill-rule="evenodd" clip-rule="evenodd" d="M272.679 168.075L271.226 169.528L258.151 163.717L253.792 159.358L252.34 153.547L239.264 143.377L243.623 139.019L250.887 141.925L253.792 128.849H256.698L265.415 139.019L272.679 134.66L278.491 137.566L275.585 140.472L277.038 141.925L274.132 153.547L271.226 155L272.679 168.075Z" fill="#D1475A" fill-opacity="0.5" stroke="#0000FF" stroke-opacity="0.4" stroke-linecap="round" stroke-linejoin="round"/>
<path id="2708" class="district" name="Điện Biên" fill-rule="evenodd" clip-rule="evenodd" d="M274.132 432.491L281.396 429.585H298.83L303.189 432.491L301.736 433.943L304.642 436.849L300.283 441.208L304.642 444.113L303.189 445.566L307.547 457.189L300.283 458.642V464.453L303.189 467.358L300.283 471.717L294.472 470.264L291.566 473.17L281.396 468.811L277.038 470.264L272.679 465.906L269.774 468.811L262.509 467.358L256.698 471.717L255.245 461.547L250.887 460.094V452.83L245.075 442.66L242.17 441.208L237.811 428.132L233.453 423.774L229.094 425.226L218.925 422.321V413.604L211.66 404.887L214.566 401.981L208.755 396.17L207.302 397.623L201.491 394.717V387.453L204.396 384.547L202.943 377.283L195.679 370.019L191.321 368.566L185.509 371.472L178.245 370.019V367.113L188.415 356.943H197.132L200.038 354.038V333.698L211.66 313.358L207.302 311.906L201.491 320.623L200.038 319.17L194.226 322.075L192.774 320.623L195.679 317.717L198.585 309L197.132 307.547L204.396 303.189V300.283L210.208 294.472L208.755 293.019H211.66L217.472 285.755L216.019 284.302L223.283 277.038L227.642 274.132L229.094 275.585L232 269.774H234.906V266.868L239.264 268.321L245.075 275.585L247.981 274.132L250.887 266.868L255.245 268.321V272.679L259.604 279.943L271.226 293.019L269.774 294.472L274.132 304.642V313.358L277.038 317.717L268.321 326.434L255.245 330.792L256.698 333.698L250.887 332.245L247.981 320.623L249.434 319.17L237.811 311.906L233.453 314.811L234.906 323.528L233.453 324.981L227.642 322.075L224.736 327.887L229.094 330.792L227.642 338.057L245.075 336.604L247.981 345.321L245.075 352.585L249.434 356.943H252.34L253.792 361.302L258.151 362.755L259.604 367.113L252.34 374.377V381.642L261.057 396.17H266.868L272.679 399.075L275.585 403.434L269.774 409.245V416.509L272.679 422.321H269.774L263.962 429.585L268.321 433.943L274.132 432.491Z" fill="#D18847" fill-opacity="0.5" stroke="#0000FF" stroke-opacity="0.4" stroke-linecap="round" stroke-linejoin="round"/>
<path id="2707" class="district" name="Điện Biên Đông" fill-rule="evenodd" clip-rule="evenodd" d="M274.132 432.491L268.321 433.943L263.962 429.585L272.679 422.321L269.774 417.962V409.245L275.585 403.434L274.132 399.075L259.604 394.717L252.34 381.642L250.887 374.377L259.604 368.566L258.151 362.755L253.792 361.302L252.34 356.943H249.434L245.075 352.585L247.981 345.321L245.075 336.604L250.887 332.245L256.698 335.151V329.34L268.321 326.434L277.038 317.717L279.943 320.623H291.566L295.925 323.528L297.377 320.623L304.642 326.434L314.811 323.528L323.528 336.604H329.34L324.981 348.226H327.887L332.245 352.585H339.509L343.868 359.849V365.66L340.962 370.019L342.415 393.264L340.962 396.17L336.604 394.717L332.245 399.075L333.698 413.604L339.509 422.321L333.698 425.226L324.981 423.774L313.358 415.057L304.642 413.604L303.189 419.415L307.547 423.774H301.736L298.83 426.679L301.736 429.585L275.585 431.038L274.132 432.491Z" fill="#B7E830" fill-opacity="0.5" stroke="#0000FF" stroke-opacity="0.4" stroke-linecap="round" stroke-linejoin="round"/>
<path id="2706" class="district" name="Mường Áng" fill-rule="evenodd" clip-rule="evenodd" d="M310.453 324.981L304.642 327.887L297.377 320.623H281.396L275.585 316.264L274.132 304.642L269.774 294.472L271.226 293.019L268.321 287.208L256.698 275.585L255.245 268.321L258.151 265.415L263.962 262.509L268.321 266.868L284.302 263.962L300.283 266.868L303.189 269.774L304.642 275.585L310.453 281.396H313.358V284.302L322.075 294.472L319.17 297.377V306.094L323.528 307.547L333.698 304.642L336.604 307.547L335.151 320.623L326.434 317.717L327.887 320.623H319.17L311.906 324.981H310.453Z" fill="#49E830" fill-opacity="0.5" stroke="#0000FF" stroke-opacity="0.4" stroke-linecap="round" stroke-linejoin="round"/>
<path id="2705" class="district" name="Mường Chà" fill-rule="evenodd" clip-rule="evenodd" d="M268.321 250.887L266.868 259.604L261.057 265.415L250.887 266.868L247.981 274.132L245.075 275.585L242.17 274.132V269.774L234.906 266.868V269.774H232L229.094 275.585L223.283 269.774L224.736 265.415L221.83 256.698L224.736 249.434L221.83 242.17H224.736V239.264L220.377 232L223.283 226.189L221.83 217.472L224.736 210.208L223.283 208.755L226.189 205.849V192.774L232 186.962L230.547 182.604L233.453 179.698L229.094 173.887L227.642 156.453L224.736 155L223.283 150.642L226.189 147.736L224.736 144.83L229.094 141.925L237.811 143.377L247.981 149.189L253.792 155V160.811L271.226 169.528V156.453L274.132 153.547L277.038 141.925L275.585 140.472L278.491 137.566L287.208 139.019L291.566 143.377L303.189 146.283L295.925 153.547L297.377 173.887L293.019 176.792L297.377 179.698L304.642 191.321L303.189 198.585L307.547 213.113L290.113 229.094L288.66 236.359L284.302 239.264L271.226 237.811L268.321 247.981V250.887Z" fill="#30E886" fill-opacity="0.5" stroke="#0000FF" stroke-opacity="0.4" stroke-linecap="round" stroke-linejoin="round"/>
<path id="2704" class="district" name="Mường Nhé" fill-rule="evenodd" clip-rule="evenodd" d="M153.547 141.925L144.83 153.547L147.736 155L141.925 157.906L144.83 160.811L141.925 163.717L134.66 160.811H125.943L123.038 157.906L121.585 159.358L117.226 153.547L112.868 156.453L109.962 153.547V143.377L105.604 147.736L104.151 156.453L98.3396 162.264H95.434L92.5283 156.453L98.3396 153.547L101.245 147.736L91.0755 146.283V143.377L79.4528 134.66L80.9057 133.208L76.5472 124.491L64.9245 120.132L63.4717 112.868L57.6604 109.962L54.7547 111.415L51.8491 108.509V102.698L47.4906 98.3396L40.2264 99.7925L37.3208 96.8868L35.8679 89.6226L31.5094 91.0755L25.6981 86.717L24.2453 76.5472L11.1698 69.283V66.3774L15.5283 62.0189L6.81132 56.2075L8.26415 51.8491L1 43.1321L3.90566 34.4151L12.6226 32.9623L16.9811 35.8679L18.434 34.4151L32.9623 38.7736V32.9623L27.1509 27.1509V24.2453H32.9623L31.5094 19.8868H34.4151V16.9811L41.6792 9.71698L40.2264 8.26415L47.4906 1L53.3019 8.26415L51.8491 9.71698L54.7547 12.6226V18.434L57.6604 16.9811V19.8868L66.3774 25.6981L67.8302 37.3208L64.9245 40.2264L70.7358 46.0377H73.6415L75.0943 51.8491L82.3585 54.7547L88.1698 66.3774L96.8868 76.5472L98.3396 83.8113L104.151 88.1698H108.509L111.415 83.8113H114.321L125.943 89.6226V101.245L139.019 109.962L143.377 108.509L146.283 101.245L144.83 89.6226L137.566 85.2642L139.019 83.8113L141.925 82.3585L147.736 88.1698H152.094L162.264 98.3396L157.906 117.226L163.717 123.038V125.943L152.094 133.208V140.472L153.547 141.925Z" fill="#30DCE8" fill-opacity="0.5" stroke="#0000FF" stroke-opacity="0.4" stroke-linecap="round" stroke-linejoin="round"/>
<path id="2703" class="district" name="Name Pồ" fill-rule="evenodd" clip-rule="evenodd" d="M224.736 207.302L221.83 216.019L223.283 224.736L220.377 230.547H217.472L214.566 234.906L204.396 236.358L194.226 242.17L189.868 237.811V207.302L186.962 201.491H181.151L176.792 208.755L179.698 214.566L178.245 217.472L181.151 232L157.906 255.245L146.283 253.792L141.925 256.698L137.566 247.981L139.019 246.528L134.66 237.811L136.113 236.358L133.208 233.453L137.566 220.377V214.566L134.66 213.113L133.208 205.849V197.132H128.849V194.226L124.491 192.774L127.396 182.604L109.962 173.887L95.434 162.264H98.3396L104.151 156.453L105.604 146.283L109.962 143.377V153.547L112.868 156.453L115.774 153.547L121.585 159.358L123.038 157.906L125.943 160.811L143.377 163.717L144.83 162.264L141.925 157.906L147.736 155L146.283 150.642L149.189 144.83L153.547 141.925L152.094 133.208L156.453 128.849H162.264L165.17 124.491L169.528 128.849L168.075 133.208L179.698 139.019L189.868 140.472L192.774 134.66L200.038 136.113L204.396 131.755H207.302V127.396L210.208 131.755V139.019L227.642 156.453V166.623L232 178.245L234.906 179.698L226.189 191.321L227.642 200.038L224.736 207.302Z" fill="#306EE8" fill-opacity="0.5" stroke="#0000FF" stroke-opacity="0.4" stroke-linecap="round" stroke-linejoin="round"/>
<path id="2702" class="district" name="Tủa Chùa" fill-rule="evenodd" clip-rule="evenodd" d="M354.038 179.698V186.962L356.943 188.415L355.491 191.321L362.755 195.679V198.585L348.226 205.849L336.604 201.491L335.151 205.849L332.245 204.396L327.887 207.302V210.208L323.528 211.66L324.981 214.566L322.075 218.925H316.264L311.906 213.113H307.547L303.189 200.038L304.642 191.321L294.472 176.792L297.377 173.887L295.925 153.547L300.283 152.094L304.642 144.83L298.83 136.113L303.189 127.396L309 124.491L307.547 123.038L314.811 114.321L330.792 112.868L338.057 136.113L342.415 141.925H346.774L351.132 149.189L346.774 152.094V155L352.585 163.717H355.491L361.302 170.981L355.491 173.887V178.245L354.038 179.698Z" fill="#6130E8" fill-opacity="0.5" stroke="#0000FF" stroke-opacity="0.4" stroke-linecap="round" stroke-linejoin="round"/>
<path id="2701" class="district" name="Tuần Giáo" fill-rule="evenodd" clip-rule="evenodd" d="M348.226 294.472L349.679 295.925L345.321 303.189L348.226 311.906L343.868 319.17L338.057 320.623L335.151 314.811L336.604 307.547L333.698 304.642L323.528 307.547L319.17 306.094V297.377L322.075 294.472L313.358 284.302V281.396H310.453L303.189 274.132L300.283 266.868H291.566L285.755 263.962H277.038L269.774 266.868L263.962 262.509L268.321 258.151L266.868 253.792L269.774 240.717L275.585 237.811L284.302 239.264L288.66 236.358L290.113 229.094L309 211.66L314.811 216.019V218.925H320.623L323.528 217.472V213.113L330.792 204.396L333.698 205.849L336.604 202.943H343.868L346.774 205.849L364.208 197.132L367.113 205.849H370.019V218.925L386 247.981L377.283 249.434L374.377 255.245L370.019 258.151L375.83 263.962L367.113 275.585L368.566 279.943L364.208 281.396V288.66L356.943 291.566L355.491 294.472H349.679H348.226Z" fill="#D030E8" fill-opacity="0.5" stroke="#0000FF" stroke-opacity="0.4" stroke-linecap="round" stroke-linejoin="round"/>
</g>
</svg>
