<svg width="494" height="418" viewBox="0 0 494 418" fill="none" xmlns="http://www.w3.org/2000/svg">
<g id="28" name="Hòa Bình">
<path id="2812" class="district" name="TP Hòa Bình" fill-rule="evenodd" clip-rule="evenodd" d="M259.598 170.747L263.577 178.703L262.251 182.682L256.946 184.008L252.968 189.313L247.663 191.965L241.032 186.66L239.706 182.682L235.728 181.356L233.075 176.051L230.423 180.03H226.445V174.725L222.466 170.747L209.205 178.703L206.553 177.377V174.725L213.183 169.42L217.162 158.811L226.445 152.181V149.528L222.466 145.55L223.792 144.224L221.14 140.245V134.941L226.445 132.288L223.792 130.962L222.466 121.679L225.119 112.396L230.423 107.092V99.1348L233.075 96.4825L231.749 92.504L245.011 89.8517L248.989 107.092L245.011 119.027L251.642 121.679L254.294 125.658L255.62 124.332L262.251 128.31L263.577 136.267L260.925 138.919V142.898L267.555 150.854L263.577 154.833L259.598 169.42V170.747Z" fill="#D147AC" fill-opacity="0.5" stroke="#0000FF" stroke-opacity="0.4" stroke-linecap="round" stroke-linejoin="round"/>
<path id="2811" class="district" name="Cao Phong" fill-rule="evenodd" clip-rule="evenodd" d="M275.512 262.251H271.534L266.229 267.555L259.598 266.229L254.294 270.208L247.663 266.229V263.577L243.685 259.598H237.054V263.577H234.402L233.075 256.946L223.792 241.032V237.054L215.836 235.728L213.183 238.38L210.531 227.771L214.509 207.879H207.879L203.9 202.574L197.27 206.553L189.313 205.226L187.987 202.574L184.008 201.248V195.943L181.356 191.965L176.051 187.987H168.094L162.79 182.682L173.399 177.377L181.356 178.704L191.965 170.747L206.553 174.725V177.377L209.205 178.704L222.466 170.747L226.445 174.725V180.03L231.749 178.704L233.075 176.051L235.728 181.356H239.706L241.032 186.66L247.663 191.965L252.968 190.639L258.272 182.682L262.251 191.965L260.925 194.617H258.272L259.598 198.596L270.208 206.553L274.186 213.183H276.838L275.512 219.814L279.491 223.792L282.143 231.749L274.186 238.38L272.86 242.358L271.534 252.968L274.186 259.598L275.512 262.251Z" fill="#D1475A" fill-opacity="0.5" stroke="#0000FF" stroke-opacity="0.4" stroke-linecap="round" stroke-linejoin="round"/>
<path id="2810" class="district" name="Đà Bắc" fill-rule="evenodd" clip-rule="evenodd" d="M222.466 121.679L223.792 130.962L226.445 132.288L221.14 134.941V140.245L226.445 152.181L215.836 160.137L213.183 169.42L209.205 173.399L206.553 174.725L191.965 170.747L181.356 178.704L173.399 177.377L165.442 182.682L152.181 180.03L150.854 185.334L146.876 187.987L134.941 186.66L132.288 182.682L125.658 180.03L119.027 182.682L117.701 178.704L128.31 165.442V161.464L101.787 144.224L88.5256 128.31L77.9164 126.984L69.9596 116.375L68.6334 107.092L60.6766 103.113L56.6981 97.8086L50.0674 93.8302L42.1105 77.9164L32.8275 69.9596L27.5229 60.6765V55.372L22.2183 47.4151L15.5876 43.4367L8.95688 19.566H15.5876L19.566 8.95687L36.8059 1L38.1321 7.63073L43.4367 14.2615L42.1105 19.566L36.8059 22.2183V24.8706H46.089L50.0674 30.1752H58.0243L62.0027 27.5229L64.655 31.5013L76.5903 34.1536L75.2642 35.4798L83.221 39.4582L89.8518 46.0889L88.5256 50.0674L93.8302 47.4151L100.461 54.0458H105.766L111.07 59.3504L112.396 58.0243L124.332 79.2426L132.288 81.8949L138.919 89.8518L157.485 91.1779V88.5256H162.79L172.073 84.5472V80.5687L178.704 84.5472L173.399 95.1563L176.051 101.787L187.987 97.8086L185.334 93.8302L195.943 88.5256L197.27 89.8518L198.596 87.1995H201.248V89.8518H203.9L205.226 92.504L210.531 89.8518L213.183 97.8086L218.488 95.1563L221.14 97.8086L230.423 99.1348V107.092L227.771 111.07H225.119L223.792 116.375L222.466 121.679Z" fill="#D18847" fill-opacity="0.5" stroke="#0000FF" stroke-opacity="0.4" stroke-linecap="round" stroke-linejoin="round"/>
<path id="2809" class="district" name="Kim Bôi" fill-rule="evenodd" clip-rule="evenodd" d="M307.34 248.989L304.687 254.294L291.426 255.62L286.121 262.251H275.512L271.534 252.968L272.86 242.358L274.186 238.38L282.143 233.075L280.817 223.792L275.512 221.14L276.838 213.183H274.186L272.86 209.205L259.598 198.596L258.272 194.617H260.925L262.251 191.965L259.598 182.682H262.251L263.577 178.704L259.598 170.747H267.555L270.208 161.464L275.512 160.137L279.491 156.159V152.181L284.795 150.854L286.121 148.202L291.426 149.528L295.404 158.811L303.361 157.485L311.318 160.137L309.992 165.442L312.644 169.42L316.623 165.442L321.927 164.116L323.253 161.464L327.232 162.79L329.884 160.137L337.841 164.116H344.472L347.124 169.42L356.407 176.051L353.755 186.66L361.712 191.965L363.038 194.617L360.385 198.596L369.668 205.226V215.836L376.299 226.445L372.321 233.075L376.299 237.054L374.973 239.706L378.952 248.989H381.604L384.256 252.968L381.604 256.946L376.299 258.272L381.604 267.555L384.256 268.881L390.887 266.229L394.865 270.208H398.844L401.496 272.86L402.822 279.491L410.779 286.121L408.127 288.774L410.779 292.752L406.801 298.057V302.035L398.844 294.078L393.539 299.383V303.361H396.191L393.539 306.013L390.887 303.361L378.952 306.013L368.342 304.687V302.035L361.712 303.361L360.385 299.383L353.755 292.752H351.102L345.798 286.121L332.536 279.491V272.86L323.253 264.903L329.884 258.272L331.21 254.294L324.58 252.968L315.297 246.337L311.318 247.663L307.34 248.989Z" fill="#B7E830" fill-opacity="0.5" stroke="#0000FF" stroke-opacity="0.4" stroke-linecap="round" stroke-linejoin="round"/>
<path id="2807" class="district" name="Kỳ Sơn" fill-rule="evenodd" clip-rule="evenodd" d="M260.925 142.898V138.919L263.577 136.267L262.251 128.31L255.62 124.332L254.294 125.658L251.642 121.679L246.337 119.027L248.989 107.092L246.337 89.8517L237.054 59.3504L234.402 54.0458H231.749L235.728 48.7412H238.38V55.372L247.663 51.3935L250.315 55.372L260.925 51.3935L266.229 46.0889L268.881 56.6981L274.186 60.6765H280.817L283.469 67.3073L288.774 69.9596L294.078 80.5687L302.035 87.1995L303.361 91.1779L300.709 93.8302V100.461L294.078 113.722L295.404 119.027L294.078 117.701L291.426 134.941L287.447 138.919L288.774 145.55L287.447 148.202L279.491 152.181L280.817 153.507L276.838 160.137L270.208 161.464L268.881 169.42L264.903 172.073L259.598 170.747L260.925 161.464L267.555 150.854L262.251 145.55L260.925 142.898Z" fill="#49E830" fill-opacity="0.5" stroke="#0000FF" stroke-opacity="0.4" stroke-linecap="round" stroke-linejoin="round"/>
<path id="2806" class="district" name="Lạc Sơn" fill-rule="evenodd" clip-rule="evenodd" d="M344.472 345.798L347.124 349.776L351.102 351.102L348.45 357.733L351.102 360.385L347.124 365.69L343.146 367.016L347.124 368.342H343.146L344.472 373.647L340.493 377.625L345.798 382.93L341.819 388.235L335.189 382.93L331.21 389.561H323.253L309.992 381.604H302.035L290.1 377.625L278.164 382.93L266.229 380.278L256.946 374.973L246.337 373.647L245.011 370.995L235.728 367.016L226.445 357.733L225.119 360.385H222.466L213.183 352.429L211.857 353.755L203.9 351.102L209.205 340.493L215.836 343.146L225.119 335.189V332.536L229.097 328.558V323.253L226.445 321.927L229.097 315.297L226.445 311.318L237.054 308.666L246.337 316.623H248.989V312.644L252.968 311.318L258.272 300.709L262.251 298.057L263.577 284.795L270.208 278.164L264.903 274.186L267.555 264.903L271.534 262.251H286.121L288.774 256.946L304.687 254.294L307.34 248.989L313.97 246.337L324.58 252.968L331.21 254.294L328.558 259.598L323.253 263.577L332.536 272.86V279.491L345.798 286.121L351.102 291.426L344.472 296.73L340.493 307.34L344.472 315.297H349.776L357.733 323.253L359.059 328.558H356.407L353.755 333.863L344.472 332.536L345.798 337.841L343.146 344.472L344.472 345.798Z" fill="#30E886" fill-opacity="0.5" stroke="#0000FF" stroke-opacity="0.4" stroke-linecap="round" stroke-linejoin="round"/>
<path id="2805" class="district" name="Lạc Thủy" fill-rule="evenodd" clip-rule="evenodd" d="M446.585 361.712H442.606L445.259 369.668L443.933 373.647L446.585 378.951L445.259 384.256L439.954 385.582V378.951L431.997 376.299V368.342L420.062 363.038L417.41 364.364L416.084 363.038L418.736 360.385V353.755L416.084 351.102H412.105L410.779 348.45L409.453 349.776L408.127 344.472L402.822 339.167L404.148 331.21L408.127 328.558L406.801 320.601L412.105 317.949L413.431 313.97L406.801 311.318L405.474 313.97L401.496 312.644L398.844 313.97L396.191 320.601L393.539 319.275L392.213 321.927L389.561 320.601L388.235 323.253L384.256 320.601L381.604 315.296H376.299V309.992L378.951 306.013L386.908 303.361H390.887L393.539 306.013L396.191 303.361H393.539V299.383L397.518 296.73V294.078L406.801 302.035L408.127 294.078L410.779 292.752L408.127 288.774L410.779 286.121H408.127V283.469L402.822 279.491L401.496 272.86L390.887 266.229L385.582 268.881L378.951 264.903L376.299 258.272L381.604 256.946L384.256 252.968L394.865 255.62L397.518 258.272H406.801L413.431 254.294H417.41L420.062 256.946L421.388 266.229L428.019 267.555L430.671 263.577L433.323 266.229H437.302L449.237 278.164L453.216 292.752L457.194 296.73L463.825 311.318L466.477 309.992L469.129 317.949L475.76 313.97L474.434 316.623L478.412 323.253L491.674 328.558L490.348 336.515L493 353.755L489.022 355.081L487.695 357.733H482.391L479.739 360.385L471.782 356.407L462.499 344.472V340.493L459.846 341.819L455.868 351.102L453.216 347.124L442.606 348.45L446.585 360.385V361.712Z" fill="#30DCE8" fill-opacity="0.5" stroke="#0000FF" stroke-opacity="0.4" stroke-linecap="round" stroke-linejoin="round"/>
<path id="2804" class="district" name="Lương Sơn" fill-rule="evenodd" clip-rule="evenodd" d="M401.496 256.946L397.518 258.272L378.951 248.989L374.973 239.706L376.299 237.054L372.321 233.075L376.299 226.445L369.668 215.836V205.226L364.364 203.9L360.385 198.596L363.038 194.617L361.712 191.965L353.755 187.987V181.356L356.407 176.051L347.124 170.747L345.798 164.116H337.841L329.884 160.137L327.232 162.79L324.58 161.464L316.623 165.442L312.644 169.42L309.992 158.811H296.73L291.426 149.528L287.447 148.202V138.919L292.752 130.962L291.426 128.31L294.078 117.701L295.404 119.027L294.078 113.722L300.709 100.461L302.035 88.5256L311.318 85.8733L316.623 93.8302L333.863 101.787L339.167 96.4825L343.146 99.1348L347.124 96.4825H360.385V101.787L353.755 105.766V109.744L349.776 116.375L341.819 121.679L349.776 120.353V123.005H352.429L361.712 133.615L363.038 138.919L357.733 150.854L349.776 152.181V157.485L347.124 160.137L357.733 158.811L363.038 152.181V148.202L368.342 145.55L367.016 141.571L373.647 142.898L377.625 146.876H384.256V142.898H386.908L389.561 148.202L382.93 154.833L385.582 157.485L384.256 164.116L386.908 166.768L392.213 165.442L394.865 186.66L401.496 197.27L398.844 202.574L409.453 215.836L408.127 222.466L402.822 225.119L405.474 233.075L406.801 229.097L408.127 230.423L406.801 231.749L410.779 248.989L406.801 251.642L404.148 248.989L400.17 251.642L401.496 256.946Z" fill="#306EE8" fill-opacity="0.5" stroke="#0000FF" stroke-opacity="0.4" stroke-linecap="round" stroke-linejoin="round"/>
<path id="2803" class="district" name="Mai Châu" fill-rule="evenodd" clip-rule="evenodd" d="M120.353 278.164L117.701 276.838L105.765 280.817V286.121L101.787 288.774L99.1348 286.121L92.504 287.447L77.9164 276.838L72.6119 279.491L69.9596 278.164L72.6119 271.534L71.2857 268.881H67.3073L60.6765 258.272V250.315L54.0458 242.358L47.4151 241.032L32.8275 231.749L31.5013 229.097L15.5876 234.402L8.95687 233.075L4.97844 238.38L1 234.402L3.65229 221.14L1 217.162L2.32615 214.509L6.30458 213.183L4.97844 209.205H2.32615L4.97844 198.596L1 197.27V189.313L11.6092 186.66L19.566 180.03L27.5229 182.682L28.8491 181.356L34.1536 186.66L36.8059 185.334L43.4367 191.965L50.0674 190.639L54.0458 195.943L55.372 193.291H58.0243L59.3504 195.943L72.6119 202.574L88.5256 199.922L84.5472 191.965L75.2641 186.66L79.2426 180.03L81.8949 169.42L85.8733 170.747V168.094L92.504 161.464L84.5472 158.811L79.2426 153.507L83.221 140.245L77.9164 138.919L80.5687 134.941L75.2641 123.005L80.5687 128.31H88.5256L101.787 144.224L128.31 161.464V165.442L117.701 177.377V181.356L121.679 182.682L125.658 180.03L132.288 182.682L136.267 189.313L144.224 195.943V202.574L137.593 206.553L140.245 210.531L134.941 213.183L133.615 218.488L144.224 227.771V235.728L148.202 237.054L157.485 248.989L145.55 256.946L146.876 262.251H149.528L152.181 267.555L149.528 268.881L144.224 266.229L141.571 271.534H138.919L134.941 278.164L137.593 279.491V284.795L132.288 283.469L130.962 279.491L124.332 283.469V280.817L121.679 279.491L120.353 278.164Z" fill="#6130E8" fill-opacity="0.5" stroke="#0000FF" stroke-opacity="0.4" stroke-linecap="round" stroke-linejoin="round"/>
<path id="2802" class="district" name="Tân Lạc" fill-rule="evenodd" clip-rule="evenodd" d="M227.771 328.558L225.119 335.189L215.836 343.146L206.553 340.493V335.189L195.943 329.884L197.27 323.253L190.639 319.275L191.965 315.296L184.008 312.644L177.377 307.34L172.073 308.666L168.094 306.013L162.79 309.992L158.811 306.013L157.485 299.383L152.181 294.078L148.202 295.404L137.593 284.795V279.491L134.941 278.164L144.224 266.229L148.202 268.881L152.181 267.555L145.55 258.272L157.485 248.989L145.55 235.728L142.898 231.749L144.224 227.771L136.267 221.14L133.615 215.836L140.245 210.531L137.593 207.879L138.919 205.226L144.224 202.574V195.943L134.941 186.66L145.55 187.987L149.528 186.66L154.833 180.03L170.747 187.987H176.051L181.356 191.965L184.008 195.943V201.248L187.987 202.574L189.313 205.226L197.27 206.553L203.9 202.574L207.879 207.879H214.509L210.531 227.771L213.183 238.38L215.836 235.728L223.792 237.054V241.032L233.075 256.946L234.402 263.577H237.054V259.598H242.358L247.663 263.577V266.229L254.294 270.208L259.598 266.229L266.229 267.555L264.903 272.86L268.881 280.817L262.251 287.447V298.057L255.62 304.687L254.294 311.318H250.315V316.623H246.337L237.054 308.666L229.097 309.992L226.445 312.644L229.097 313.97L226.445 321.927L229.097 323.253V327.232L227.771 328.558Z" fill="#D030E8" fill-opacity="0.5" stroke="#0000FF" stroke-opacity="0.4" stroke-linecap="round" stroke-linejoin="round"/>
<path id="2801" class="district" name="Yên Thủy" fill-rule="evenodd" clip-rule="evenodd" d="M425.367 392.213L426.693 396.191L431.997 400.17V402.822L418.736 409.453L416.084 414.757H413.431L412.105 417.41H406.801L402.822 416.084L389.561 400.17L373.647 392.213L368.342 386.908L360.385 384.256L357.733 388.234L351.102 390.887L343.146 388.234L345.798 384.256L340.493 377.625L344.472 373.647L343.146 368.342H347.124L343.146 367.016L347.124 365.69L351.102 360.385L348.45 357.733L351.102 352.429L343.146 344.472L345.798 332.536L352.429 333.863L356.407 331.21V328.558H359.059L357.733 323.253L349.776 315.296H344.472L341.819 311.318L340.493 304.687L343.146 303.361L341.819 302.035L347.124 294.078L351.102 291.426L360.385 299.383L361.712 303.361L368.342 302.035V304.687H377.625L378.951 306.013L376.299 309.992V315.296H381.604L384.256 320.601L388.234 323.253L389.561 320.601H396.191L398.844 313.97L401.496 312.644L405.474 313.97V311.318L412.105 313.97V316.623L406.801 320.601L409.453 325.906L408.127 328.558L404.148 329.884L402.822 339.167L408.127 344.472L409.453 349.776H416.084L418.736 353.755V360.385L416.084 363.038H410.779V365.69L412.105 368.342H414.757L416.084 377.625L420.062 380.278V382.93L424.04 386.908V390.887L425.367 392.213Z" fill="#E83092" fill-opacity="0.5" stroke="#0000FF" stroke-opacity="0.4" stroke-linecap="round" stroke-linejoin="round"/>
</g>
</svg>
