<svg width="469" height="563" viewBox="0 0 469 563" fill="none" xmlns="http://www.w3.org/2000/svg">
<g id="29" name="Hà Nội">
<path id="2930" class="district" name="Ba Đình" fill-rule="evenodd" clip-rule="evenodd" d="M339.635 252.611L338.758 253.488L335.251 251.735V247.353H332.623L329.118 243.846L332.623 239.465V232.454L337.006 235.082L346.646 237.711L348.398 235.958H351.903V232.454L353.656 229.824L355.408 231.577L359.79 228.071L364.171 235.958L357.161 237.711L356.284 243.846L353.656 245.599L347.522 242.971L344.016 245.599L340.511 251.735L339.635 252.611Z" fill="#D147AC" fill-opacity="0.5" stroke="#0000FF" stroke-opacity="0.4" stroke-linecap="round" stroke-linejoin="round"/>
<g id="2929" class="district" name="Bắc Từ Liêm">
<path id="Vector" fill-rule="evenodd" clip-rule="evenodd" d="M303.702 235.958V237.711L298.446 238.589L296.693 236.835L287.929 234.207V230.701L282.671 225.442V222.812L280.042 219.306L275.661 216.677L276.537 214.048H280.042L281.794 208.79L280.918 198.272L287.929 193.012L294.065 199.149L299.322 201.777L325.614 197.396L322.983 202.653L324.735 209.665L329.118 211.418L328.241 214.048L331.746 217.553V220.183L326.489 225.442L328.241 227.193L324.735 229.824V233.33H322.107V231.577L322.983 232.454L321.23 228.948L320.354 229.824L322.107 233.33L315.973 235.082L316.849 230.701L309.838 234.207L308.086 232.454L304.581 235.958H303.702Z" fill="#D1475A" fill-opacity="0.5"/>
<path id="Vector_2" d="M322.107 233.33H324.735V229.824L328.241 227.193L326.489 225.442L331.746 220.183V217.553L328.241 214.048L329.118 211.418L324.735 209.665L322.983 202.653L325.614 197.396L299.322 201.777L294.065 199.149L287.929 193.012L280.918 198.272L281.794 208.79L280.042 214.048H276.537L275.661 216.677L280.042 219.306L282.671 222.812V225.442L287.929 230.701V234.207L296.693 236.835L298.446 238.589L303.702 237.711V235.958H304.581L308.086 232.454L309.838 234.207L316.849 230.701L315.973 235.082L322.107 233.33ZM322.107 233.33V231.577L322.983 232.454L321.23 228.948L320.354 229.824L322.107 233.33Z" stroke="#0000FF" stroke-opacity="0.4" stroke-linecap="round" stroke-linejoin="round"/>
</g>
<g id="2928" class="district" name="Cầu Giấy">
<path id="Vector_3" fill-rule="evenodd" clip-rule="evenodd" d="M337.006 258.748H331.746L323.859 264.006L322.107 259.624L322.983 256.994L317.725 250.86V244.723L308.086 240.342V235.958L311.591 232.454L316.849 230.701L315.973 235.082L322.107 233.33L320.354 230.701L321.23 228.948L322.983 232.454L322.107 231.577V233.33H324.735V230.701L327.365 232.454L332.623 228.071V226.317L333.499 227.193V224.565L334.375 228.948L332.623 232.454V239.465L326.489 248.23L331.746 254.364L337.006 258.748Z" fill="#D18847" fill-opacity="0.5"/>
<path id="Vector_4" d="M322.107 233.33L315.973 235.082L316.849 230.701L311.591 232.454L308.086 235.958V240.342L317.725 244.723V250.86L322.983 256.994L322.107 259.624L323.859 264.006L331.746 258.748H337.006L331.746 254.364L326.489 248.23L332.623 239.465V232.454L334.375 228.948L333.499 224.565V227.193L332.623 226.317V228.071L327.365 232.454L324.735 230.701V233.33H322.107ZM322.107 233.33L320.354 230.701L321.23 228.948L322.983 232.454L322.107 231.577V233.33Z" stroke="#0000FF" stroke-opacity="0.4" stroke-linecap="round" stroke-linejoin="round"/>
</g>
<path id="2927" class="district" name="Đống Đa" fill-rule="evenodd" clip-rule="evenodd" d="M351.027 265.759L344.016 263.129L339.635 264.006L338.758 260.499L329.994 253.488L326.49 248.23L328.241 244.723L329.118 243.846L334.375 247.353L335.251 246.476V250.86L338.758 253.488L346.646 242.971H349.274L353.655 245.599L354.532 244.723L355.408 266.635L351.027 265.759Z" fill="#B7E830" fill-opacity="0.5" stroke="#0000FF" stroke-opacity="0.4" stroke-linecap="round" stroke-linejoin="round"/>
<path id="2926" class="district" name="Hà Đông" fill-rule="evenodd" clip-rule="evenodd" d="M281.794 322.728L280.042 320.975L281.794 316.593L276.537 313.963L269.526 313.087L268.65 310.459L273.032 308.705L280.918 313.087L283.548 312.21L280.042 305.199L276.537 309.581L272.156 307.828V304.322L273.032 302.571L280.918 298.187L280.042 295.557L283.548 291.176L284.424 292.053L292.31 289.423L289.681 285.041L291.434 276.276L287.053 274.523L283.548 270.141L287.053 267.512H293.186L294.065 269.264L300.198 271.894L301.95 274.523L301.075 278.028L302.826 277.153L304.581 278.904L307.209 275.4H314.219L315.973 272.77H319.478L321.23 273.647L320.354 274.523L318.602 273.647L325.614 274.523L326.489 275.4L324.735 278.028L328.241 281.535L324.735 282.412V284.165L322.107 285.916L323.859 286.793V289.423L330.87 292.929H328.241L324.735 295.557L322.983 304.322H321.23V306.952L319.478 306.075L318.602 312.21L313.343 313.087V314.84L307.209 317.47L302.826 313.963L304.581 313.087L301.075 310.459L300.198 313.087L297.57 312.21L295.817 314.84L297.57 317.47L295.817 321.852L291.434 322.728V324.481H284.424L281.794 322.728Z" fill="#49E830" fill-opacity="0.5" stroke="#0000FF" stroke-opacity="0.4" stroke-linecap="round" stroke-linejoin="round"/>
<path id="2925" class="district" name="hai Bà Trưng" fill-rule="evenodd" clip-rule="evenodd" d="M361.543 268.388L360.666 271.894L356.284 269.264L355.408 270.141L354.532 249.983L361.543 252.611L372.059 250.86L372.935 256.994L376.44 261.376L381.699 263.129L376.44 264.006L378.192 264.882V266.635H376.44L377.316 268.388H375.564V270.141L370.307 269.264L368.555 267.512V270.141L366.8 269.264V267.512L365.048 269.264H362.419L361.543 268.388Z" fill="#30E886" fill-opacity="0.5" stroke="#0000FF" stroke-opacity="0.4" stroke-linecap="round" stroke-linejoin="round"/>
<path id="2924" class="district" name="Hoàn Kiếm" fill-rule="evenodd" clip-rule="evenodd" d="M362.419 252.611L355.408 250.86L354.532 244.723H356.284L357.161 237.711L364.171 235.958L365.924 236.835L372.059 250.86L363.295 252.611H362.419Z" fill="#30DCE8" fill-opacity="0.5" stroke="#0000FF" stroke-opacity="0.4" stroke-linecap="round" stroke-linejoin="round"/>
<path id="2923" class="district" name="Hoàng Mai" fill-rule="evenodd" clip-rule="evenodd" d="M352.779 293.806L351.027 292.929V294.681L348.398 295.557V297.31L338.758 292.053L344.016 285.916L341.387 283.288L336.13 285.041L333.499 282.412L334.375 276.276L335.251 278.028L338.758 276.276L340.511 278.028V275.4L346.646 269.264L352.779 276.276L354.532 274.523V270.141L356.284 269.264L359.79 271.894L361.543 271.017V268.388L365.048 269.264L366.8 267.512L367.676 270.141L368.555 267.512L370.307 269.264L375.564 270.141V268.388H377.316L376.44 266.635H378.192V264.882L376.44 264.005L377.316 263.129H381.699L393.092 268.388L398.349 276.276L397.473 280.658L383.452 302.571L375.564 295.557L372.935 299.063L366.8 296.434L365.924 293.806L356.284 298.187L355.408 293.806H352.779Z" fill="#306EE8" fill-opacity="0.5" stroke="#0000FF" stroke-opacity="0.4" stroke-linecap="round" stroke-linejoin="round"/>
<path id="2922" class="district" name="Long Biên" fill-rule="evenodd" clip-rule="evenodd" d="M393.092 268.388L376.44 261.376L372.935 256.994L369.431 243.846L359.79 228.071L355.408 209.665H357.16L369.431 219.306L373.811 218.43L387.833 210.541L404.484 213.171L407.989 215.801L413.248 226.317L416.752 237.711L409.741 246.476L410.62 248.23L411.496 247.353L415.876 249.983L408.865 250.86V252.611L407.113 253.488L407.989 255.241H406.236L405.36 256.994V262.252L401.855 263.129L398.349 261.376L394.844 264.006L393.092 268.388Z" fill="#6130E8" fill-opacity="0.5" stroke="#0000FF" stroke-opacity="0.4" stroke-linecap="round" stroke-linejoin="round"/>
<path id="2921" class="district" name="Nam Từ Liêm" fill-rule="evenodd" clip-rule="evenodd" d="M328.241 272.77L323.859 275.4L318.602 272.77H316.849L314.219 275.4H306.333L307.209 276.276L304.581 278.904L302.826 277.153L301.074 278.028L301.95 274.523L300.198 271.894L293.186 268.388L287.053 267.512V258.748L285.3 259.624L286.176 254.364L283.548 252.611L286.176 249.983L289.681 249.107L287.929 243.846L289.681 242.971V241.218L286.176 238.589V235.082L282.67 231.577L281.794 228.948L283.548 226.317L285.3 227.193L287.929 233.33L298.446 238.589L303.702 237.711V235.958L306.333 235.082L308.086 232.454L309.838 234.207L308.086 235.958V239.465L312.467 242.971L317.725 244.723V250.86L322.983 256.994L322.107 259.624L323.859 262.252L322.983 263.129L325.614 265.759V270.141L328.241 272.77Z" fill="#D030E8" fill-opacity="0.5" stroke="#0000FF" stroke-opacity="0.4" stroke-linecap="round" stroke-linejoin="round"/>
<path id="2920" class="district" name="Tây Hồ" fill-rule="evenodd" clip-rule="evenodd" d="M337.882 235.082L332.623 232.454L334.375 228.948V224.565L333.499 227.193L332.623 226.317V228.071L327.366 232.454L324.735 229.824L328.241 227.193L326.49 225.442L331.746 220.183L330.87 214.924L328.241 214.048L329.118 211.418L325.614 209.665L324.735 210.541L322.983 202.653L327.366 195.642L334.375 194.765L344.016 199.149L349.274 202.653L351.027 206.159L355.408 209.665L359.79 228.071L355.408 231.577L353.655 229.824L351.903 235.082L346.646 237.711L341.387 235.958L337.882 235.082Z" fill="#E83092" fill-opacity="0.5" stroke="#0000FF" stroke-opacity="0.4" stroke-linecap="round" stroke-linejoin="round"/>
<path id="2919" class="district" name="Thanh Xuân" fill-rule="evenodd" clip-rule="evenodd" d="M354.532 274.523L352.779 275.4L347.522 269.264L340.511 275.4V277.153L338.758 276.276L335.251 278.028V275.4L329.994 273.647L329.118 276.276L325.614 274.523L328.241 272.77L325.614 270.141V265.759L323.859 264.882L331.746 258.748H337.006L339.635 264.006L344.016 263.129L355.408 266.635L354.532 270.141V274.523Z" fill="#E83D30" fill-opacity="0.5" stroke="#0000FF" stroke-opacity="0.4" stroke-linecap="round" stroke-linejoin="round"/>
<g id="2918" class="district" name="Sơn Tây">
<path id="Vector_5" fill-rule="evenodd" clip-rule="evenodd" d="M159.982 227.193L157.353 228.948H159.106V230.701L158.229 229.824L155.601 231.577L153.847 236.835L151.218 239.465L147.714 240.342V242.095L145.084 243.846L144.208 246.476L143.331 245.599V247.353L140.703 248.23L129.309 236.835L118.793 250.86L114.412 248.23L113.536 245.599L110.03 243.846V230.701L112.659 225.442L111.782 221.059L114.412 216.677L111.782 218.43L110.906 224.565L109.154 223.689V221.936L110.906 221.059V216.677L108.277 219.306L104.772 221.936L98.6375 220.183L99.5139 219.306L97.7612 217.553L99.5139 214.924V211.418L97.7612 210.542V205.283L99.5139 201.777L102.143 200.025L99.5139 198.272V193.012L95.1322 195.642L88.1213 193.012L92.5031 192.135L91.6266 184.247L93.3794 182.496L88.9977 181.619L87.2449 174.608L81.9868 171.978L85.4922 169.348L88.1213 164.09H90.7503L93.3794 161.46H95.1322L96.8848 164.09L102.143 162.337V164.09H104.772L103.895 166.719L105.649 167.595L107.401 165.844L106.525 164.09L109.154 164.966L110.906 162.337H112.659L111.782 159.708L112.659 157.955H114.412L112.659 156.202L116.165 154.448V149.19L117.917 150.066L121.422 146.561L128.433 153.572L146.837 157.955L147.714 168.472H150.342L152.971 173.731H151.218L149.466 177.237L147.714 175.483V177.237L145.96 176.359L144.208 179.866L143.331 178.99L139.826 180.743L140.703 182.496L138.074 185.124V189.507L138.95 192.135H140.703L141.579 195.642L137.197 197.396L138.074 200.025L141.579 199.149L144.208 200.025L143.331 200.9L145.96 202.653L152.095 203.53V207.037L155.601 208.79L158.229 213.171H156.477L160.858 214.048L155.601 221.059L159.106 222.812L158.229 227.193H159.982Z" fill="#D147AC" fill-opacity="0.5"/>
<path id="Vector_6" d="M114.412 216.677L111.782 221.059L112.659 225.442L110.03 230.701V243.846L113.536 245.599L114.412 248.23L118.793 250.86L129.309 236.835L140.703 248.23L143.331 247.353V245.599L144.208 246.476L145.084 243.846L147.714 242.095V240.342L151.218 239.465L153.847 236.835L155.601 231.577L158.229 229.824L159.106 230.701V228.948H157.353L159.982 227.193H158.229L159.106 222.812L155.601 221.059L160.858 214.048L156.477 213.171H158.229L155.601 208.79L152.095 207.037V203.53L145.96 202.653L143.331 200.9L144.208 200.025L141.579 199.149L138.074 200.025L137.197 197.396L141.579 195.642L140.703 192.135H138.95L138.074 189.507V185.124L140.703 182.496L139.826 180.743L143.331 178.99L144.208 179.866L145.96 176.359L147.714 177.237V175.483L149.466 177.237L151.218 173.731H152.971L150.342 168.472H147.714L146.837 157.955L128.433 153.572L121.422 146.561L117.917 150.066L116.165 149.19V154.448L112.659 156.202L114.412 157.955H112.659L111.782 159.708L112.659 162.337H110.906L109.154 164.966L106.525 164.09L107.401 165.844L105.649 167.595L103.895 166.719L104.772 164.09H102.143V162.337L96.8848 164.09L95.1322 161.46H93.3794L90.7503 164.09H88.1213L85.4922 169.348L81.9868 171.978L87.2449 174.608L88.9977 181.619L93.3794 182.496L91.6266 184.247L92.5031 192.135L88.1213 193.012L95.1322 195.642L99.5139 193.012V198.272L102.143 200.025L99.5139 201.777L97.7612 205.283V210.542L99.5139 211.418V214.924L97.7612 217.553L99.5139 219.306L98.6375 220.183L104.772 221.936L108.277 219.306M114.412 216.677L111.782 218.43L110.906 224.565L109.154 223.689V221.936L110.906 221.059V216.677L108.277 219.306M114.412 216.677V214.924M108.277 219.306V221.936" stroke="#0000FF" stroke-opacity="0.4" stroke-linecap="round" stroke-linejoin="round"/>
</g>
<g id="2917" class="district" name="Ba Vì">
<path id="Vector_7" fill-rule="evenodd" clip-rule="evenodd" d="M41.6747 257.87L39.9219 255.241H33.7876L30.2821 259.624L25.9003 258.748L25.024 257.87L27.6531 252.611L25.024 249.983L24.1477 252.611L23.2714 251.735V254.364L18.8896 256.994L12.7551 249.983L7.49701 240.342L5.74429 234.207V227.193L14.5078 207.913L20.6423 201.777L22.3949 189.507L12.7551 170.225L5.74429 164.09L1.36255 152.696L2.2389 148.314L7.49701 138.673L39.0457 111.502L41.6747 105.367L45.1801 86.9616V74.6911L48.6855 70.3089L59.2017 65.0501L64.4599 58.9151L69.718 57.1621L76.7287 59.7914L93.3794 77.3206L101.267 79.9499L106.525 101.861L112.659 112.378L116.165 139.549L121.422 146.561L117.917 150.066L117.041 149.19L115.288 153.572L116.165 154.448L112.659 156.202L114.412 157.078L112.659 157.955V162.337H110.906L109.154 164.966L106.525 164.09L107.401 165.843L105.649 167.595L103.895 166.719L104.772 164.09H102.143V162.337L96.8848 164.09L95.132 161.46H93.3794L90.7503 164.09H88.1213L85.4922 169.348L82.8632 170.225L81.9868 171.978L85.4922 172.855L84.616 173.731L88.9977 177.237V181.619L93.3794 182.496L91.6266 184.247L93.3794 190.384L92.5031 192.135L88.1213 193.012L95.132 195.642L99.5139 193.012V198.272L102.143 200.025L99.5139 201.777L97.7612 205.283L99.5139 211.418V214.924L97.7612 217.552L99.5139 219.306L98.6375 220.183L104.772 221.936L108.277 219.306L110.906 216.677V221.059L109.154 221.936L110.03 224.565L111.782 218.43L113.536 216.677L114.412 218.43L111.782 221.059L112.659 225.442L110.03 230.701V242.971L113.536 245.599L114.412 248.229L118.793 250.86L116.165 258.748L111.782 256.117L109.154 256.994L103.895 254.364L101.267 255.241L95.132 253.488L83.7396 256.994L81.1105 255.241L80.234 252.611L74.9759 255.241H68.8416L64.4599 248.229L58.3254 252.611L57.449 255.241L43.4275 259.624L41.6747 258.748V257.87Z" fill="#D1475A" fill-opacity="0.5"/>
<path id="Vector_8" d="M114.412 214.924V216.677M108.277 219.306L104.772 221.936L98.6375 220.183L99.5139 219.306L97.7612 217.552L99.5139 214.924V211.418L97.7612 205.283L99.5139 201.777L102.143 200.025L99.5139 198.272V193.012L95.132 195.642L88.1213 193.012L92.5031 192.135L93.3794 190.384L91.6266 184.247L93.3794 182.496L88.9977 181.619V177.237L84.616 173.731L85.4922 172.855L81.9868 171.978L82.8632 170.225L85.4922 169.348L88.1213 164.09H90.7503L93.3794 161.46H95.132L96.8848 164.09L102.143 162.337V164.09H104.772L103.895 166.719L105.649 167.595L107.401 165.843L106.525 164.09L109.154 164.966L110.906 162.337H112.659V157.955L114.412 157.078L112.659 156.202L116.165 154.448L115.288 153.572L117.041 149.19L117.917 150.066L121.422 146.561L116.165 139.549L112.659 112.378L106.525 101.861L101.267 79.9499L93.3794 77.3206L76.7287 59.7914L69.718 57.1621L64.4599 58.9151L59.2017 65.0501L48.6855 70.3089L45.1801 74.6911V86.9616L41.6747 105.367L39.0457 111.502L7.49701 138.673L2.2389 148.314L1.36255 152.696L5.74429 164.09L12.7551 170.225L22.3949 189.507L20.6423 201.777L14.5078 207.913L5.74429 227.193V234.207L7.49701 240.342L12.7551 249.983L18.8896 256.994L23.2714 254.364V251.735L24.1477 252.611L25.024 249.983L27.6531 252.611L25.024 257.87L25.9003 258.748L30.2821 259.624L33.7876 255.241H39.9219L41.6747 257.87V258.748L43.4275 259.624L57.449 255.241L58.3254 252.611L64.4599 248.229L68.8416 255.241H74.9759L80.234 252.611L81.1105 255.241L83.7396 256.994L95.132 253.488L101.267 255.241L103.895 254.364L109.154 256.994L111.782 256.117L116.165 258.748L118.793 250.86L114.412 248.229L113.536 245.599L110.03 242.971V230.701L112.659 225.442L111.782 221.059L114.412 218.43L113.536 216.677L111.782 218.43L110.03 224.565L109.154 221.936L110.906 221.059V216.677L108.277 219.306ZM108.277 219.306V221.936" stroke="#0000FF" stroke-opacity="0.4" stroke-linecap="round" stroke-linejoin="round"/>
</g>
<path id="2916" class="district" name="Chương Mỹ" fill-rule="evenodd" clip-rule="evenodd" d="M206.428 375.316H202.923L199.418 372.686V377.945L197.665 380.573H194.16L192.407 382.327L193.283 387.587L190.655 389.338V393.722L174.879 397.226L174.003 398.979L172.25 397.226L174.879 393.722L175.755 387.587L184.52 385.833L188.026 383.204V377.069L192.407 373.563L191.531 372.686L193.283 370.057H191.531L192.407 369.18L190.655 368.304V363.045L187.15 360.416L188.026 359.539L185.396 357.786V355.157L175.755 349.898L176.634 349.021H174.879V347.268H172.25L170.498 344.64L165.239 349.021L164.363 348.145V345.517L171.374 342.011L172.25 342.887L174.003 339.38L174.879 340.257L175.755 334.999L177.51 336.752L178.386 335.876L177.51 334.123L181.015 331.493V325.358L182.767 323.605L187.15 322.728L189.778 324.481L188.902 326.234H191.531L193.283 324.481L195.912 325.358L196.788 323.605L199.418 324.481V320.975L202.047 320.098V317.47H206.428L209.935 315.716L210.811 313.963L209.059 311.335L209.935 310.459L211.688 312.21L213.439 310.459L212.564 309.581L220.451 300.818L222.203 295.557L225.708 296.434L224.832 297.31L228.337 296.434L240.607 299.941L251.124 298.187L253.752 295.557V293.806L256.381 292.929L255.505 291.176H259.885L261.64 288.546L260.761 295.557L265.145 293.806H270.402L272.156 295.557L273.908 294.681L280.918 298.187L273.032 302.571L272.156 307.828L276.537 309.581L280.042 305.199L283.548 312.21L280.918 313.087L273.032 308.705L268.65 309.581V312.21L281.794 316.593L280.042 320.975L280.918 322.728L287.053 325.358L280.918 334.123L281.794 337.627L287.929 338.504L289.681 347.268L288.805 349.898L286.176 351.652L283.548 349.898L282.67 352.529L291.434 361.292L297.57 363.045L300.198 368.304L289.681 370.057L286.176 372.686L289.681 376.192H303.702V377.945L299.322 383.204L298.446 387.587L300.198 391.968L292.31 398.103L287.053 395.475L280.918 396.351L270.402 394.598L271.278 391.968L268.65 384.957L271.278 383.204L270.402 380.573L262.516 382.327L264.268 388.461L262.516 391.091L261.64 390.215L260.761 392.845L250.245 391.091L246.74 391.968L244.988 390.215L244.112 392.845L241.483 391.091V392.845L237.101 391.091L231.843 391.968L232.719 405.116L222.203 406.867L220.451 405.991L222.203 404.239L220.451 403.363L223.08 399.856L221.327 398.979V391.968L220.451 390.215L218.696 391.091L221.327 387.587L220.451 386.71L224.832 384.957L226.585 385.833L227.461 382.327L223.08 378.822L223.956 374.439L221.327 375.316V381.45L217.82 378.822L211.688 380.573L213.439 379.698H210.811L209.935 377.069H208.181L206.428 375.316Z" fill="#D18847" fill-opacity="0.5" stroke="#0000FF" stroke-opacity="0.4" stroke-linecap="round" stroke-linejoin="round"/>
<path id="2915" class="district" name="Đan Phượng" fill-rule="evenodd" clip-rule="evenodd" d="M275.661 215.801L270.402 214.048L269.526 215.801L265.145 214.924L263.392 213.171L266.021 209.665L262.516 207.913V205.283L261.64 206.159L256.381 203.53L250.245 207.037V208.79L252 209.665L248.493 212.295L249.369 213.171L246.74 215.801L247.617 216.677L243.235 214.924L241.483 216.677V218.43H243.235L241.483 220.183L238.853 215.801L233.596 218.43L230.967 217.552L228.337 207.913L230.967 201.777L223.08 196.518L223.956 191.261L224.832 192.135L226.585 189.507L220.451 187.754L216.068 183.371L220.451 178.99L216.068 172.855L218.696 164.966L216.944 144.807L229.213 157.955L239.729 163.213L255.505 164.966L271.278 171.978L273.908 176.359L278.289 173.731L284.424 178.99L290.558 191.261L280.918 197.396V211.418L280.042 214.048H276.537L275.661 215.801Z" fill="#B7E830" fill-opacity="0.5" stroke="#0000FF" stroke-opacity="0.4" stroke-linecap="round" stroke-linejoin="round"/>
<path id="2914" class="district" name="Đông Anh" fill-rule="evenodd" clip-rule="evenodd" d="M380.823 214.048L373.811 218.43L369.431 219.306L351.027 206.159L349.274 202.653L334.375 194.765L308.086 200.9H296.693L287.929 193.012L290.558 191.261L287.053 186L286.176 181.619H287.929L287.053 179.866L289.681 178.99L288.805 177.237L291.434 173.731L292.31 174.608L294.941 170.225L296.693 171.101V174.608H298.446V172.854L307.209 171.978L308.962 170.225V168.472L311.591 166.719L309.838 164.09V144.807L310.714 143.054H317.725L322.983 140.425V137.796L321.23 136.043L322.107 134.29L324.735 133.413L328.241 136.92L336.13 134.29L337.882 135.167L337.006 137.796L338.758 138.673L346.646 136.043L351.027 137.796L354.532 134.29L357.161 136.043L359.79 135.167L365.924 131.661L368.555 128.155L371.182 127.279L372.059 129.908L374.687 129.031L373.811 123.772L376.44 126.402L384.328 123.772L386.957 126.402L383.452 129.031L380.823 135.167H377.316V136.92L383.452 135.167L385.204 137.796L391.339 139.549L389.587 143.054H393.092L392.215 140.425L395.72 139.549L396.597 133.413H400.103L402.731 136.043L401.855 136.92L407.113 139.549L405.36 143.054L406.236 143.931L403.608 145.685L402.731 149.19L404.484 153.572H407.113L404.484 158.831L407.113 164.09H408.865V167.595L407.113 170.225L407.989 171.978H406.236L403.608 174.608L404.484 176.36L400.103 178.113L401.855 183.371L398.349 184.247L395.72 186.878L389.587 197.396L395.72 204.406L393.968 211.418L387.833 210.541L383.452 212.295L380.823 214.048Z" fill="#49E830" fill-opacity="0.5" stroke="#0000FF" stroke-opacity="0.4" stroke-linecap="round" stroke-linejoin="round"/>
<path id="2913" class="district" name="Gia Lâm" fill-rule="evenodd" clip-rule="evenodd" d="M433.404 271.017L431.651 271.894L434.28 275.4L431.651 277.153V281.535L434.28 286.793L433.404 289.423L422.888 285.916L416.752 286.793L413.248 283.288L402.731 281.535L397.473 290.3L394.844 300.818L401.855 307.828L398.349 314.84L379.947 312.21L381.699 305.199L398.349 278.028L397.473 274.523L393.092 268.388L394.844 264.006L398.349 261.376L401.855 263.129L405.36 262.252V257.87L407.989 255.241L407.113 253.488L408.865 252.611V250.86L416.752 249.983L409.741 247.353L416.752 237.711L409.741 218.43L404.484 213.171L393.968 211.418L395.72 204.406L389.587 197.396L398.349 184.247L406.236 183.371V181.619L407.989 182.496L406.236 185.124L408.865 186.878L407.989 187.754H410.62L412.372 189.507L415.876 195.642L414.125 199.149L418.505 203.53L417.628 207.913L429.022 202.653L430.774 204.406L431.651 211.418L436.033 214.924L451.806 217.553L455.313 214.048L462.322 222.812L460.57 225.442L464.953 226.317V229.824L468.458 232.454L466.705 241.218L464.077 243.846L460.57 244.723L462.322 248.23L458.818 249.983V256.994L462.322 256.117V257.87L455.313 260.499L457.066 264.882L450.93 264.006L448.301 266.635H443.92L442.167 264.882L439.538 267.512L438.661 266.635V271.894L436.033 272.77L435.156 271.017H433.404Z" fill="#30E886" fill-opacity="0.5" stroke="#0000FF" stroke-opacity="0.4" stroke-linecap="round" stroke-linejoin="round"/>
<path id="2912" class="district" name="Hoài Đức" fill-rule="evenodd" clip-rule="evenodd" d="M292.31 289.423L284.424 292.053L283.548 291.176L280.042 295.557L273.908 290.3L273.032 285.916L264.268 279.782H261.64L257.256 282.412L254.629 285.916L256.381 282.412L248.493 273.647L244.112 277.153L242.359 276.276L244.112 268.388L240.607 260.499L243.235 258.748H249.369L250.245 251.735L244.988 248.23L244.112 243.846L235.348 239.465L236.224 237.711H234.472L232.719 233.33L231.843 224.565L230.091 223.689V221.936L230.967 220.183H232.719L236.224 223.689H241.483V220.183L243.235 218.43H241.483V216.677L243.235 214.924L247.617 216.677L246.74 215.801L249.369 213.171L248.493 212.295L252 209.665L250.245 208.79V207.037H252L255.505 203.53L261.64 206.159L262.516 205.283V207.914L266.021 209.665L263.392 213.171L265.145 214.924L269.526 215.801L270.402 214.048L275.661 215.801L280.042 219.306L283.548 224.565L281.794 228.948L286.177 235.082V238.589L288.805 239.465L289.681 241.218V242.971L287.929 243.846L289.681 249.107H286.177L283.548 252.611L286.177 254.364L285.3 259.624L287.053 258.748V267.512L283.548 269.264L287.053 274.523L291.434 275.4L289.681 285.041L291.434 288.546L292.31 289.423Z" fill="#30DCE8" fill-opacity="0.5" stroke="#0000FF" stroke-opacity="0.4" stroke-linecap="round" stroke-linejoin="round"/>
<path id="2911" class="district" name="Mê Linh" fill-rule="evenodd" clip-rule="evenodd" d="M309.838 144.807V164.09L311.591 166.719L308.962 168.472L307.209 171.978L298.446 172.855V174.608H296.693L297.57 172.855L294.941 170.225L294.065 172.855L292.31 174.608L291.434 173.731L288.805 177.237L289.681 178.113L287.053 179.866L287.929 181.619H286.177L278.289 173.731L273.908 176.36L271.278 171.978L255.505 164.966L239.729 163.213L229.213 157.955L216.944 144.807L217.82 143.054L216.068 142.178L216.944 140.425L218.696 141.302L219.575 138.673L216.944 136.043V133.413L214.315 131.661L215.192 128.155L212.564 126.402L210.811 122.896L211.688 122.02L214.315 123.772L219.575 120.267L220.451 122.02L225.708 122.896L223.956 116.761L226.585 115.885L227.461 117.638H229.213L237.977 114.131L238.853 113.255L235.348 108.873L233.596 110.626L230.091 109.749L229.213 104.491L233.596 101.861L237.101 104.491L241.483 103.614L243.235 100.985L244.988 105.368H246.74L247.617 102.737L248.493 103.614L246.74 107.12L249.369 109.749L252.876 104.491H257.256L253.752 106.244L254.629 107.997L256.381 107.12L255.505 109.749L257.256 113.255H260.761L263.392 118.514V115.009H266.021L266.897 113.255L270.402 114.131L274.784 111.502L275.661 112.379L277.413 110.626V107.12L280.042 110.626L284.424 106.244H291.434L296.693 108.873L299.322 113.255L301.95 112.379L302.826 117.638L305.457 119.39L308.962 118.514L309.838 123.772V122.02L314.219 128.155L321.23 130.784V136.043L322.983 137.796L322.107 140.425L317.725 143.054H310.714L309.838 144.807Z" fill="#306EE8" fill-opacity="0.5" stroke="#0000FF" stroke-opacity="0.4" stroke-linecap="round" stroke-linejoin="round"/>
<path id="2910" class="district" name="Mỹ Đức" fill-rule="evenodd" clip-rule="evenodd" d="M328.241 549.731L325.614 560.247L308.962 562L306.333 554.989L299.322 547.978L298.446 545.347L294.941 543.594L292.31 539.213L284.424 537.46L281.794 534.83L278.289 540.966L269.526 538.337L266.897 535.706L268.65 533.953L266.897 526.942L264.268 522.56L263.392 524.313L259.009 522.56L256.381 526.942L252.876 525.188L250.245 526.942L243.235 526.066L244.112 521.684L241.483 519.054L243.235 517.301L244.988 518.178L245.864 516.426L247.617 518.178L253.752 517.301V513.795L256.381 512.042L251.124 506.785L252.876 502.401L251.124 500.648L252 495.39L250.245 492.76L252 490.132L251.124 489.255L249.369 491.883V494.513L246.74 491.883L247.617 490.132L244.988 485.749V483.995L247.617 482.244L248.493 483.119L252 481.367L254.629 475.231L253.752 469.973L250.245 468.22L239.729 453.32L243.235 446.309L237.977 441.925L233.596 432.284L231.843 424.397V391.969L237.101 391.091L241.483 392.845L240.607 391.091L244.112 392.845L244.988 390.214L246.74 391.969L250.245 391.091L260.761 392.845L261.64 390.214L262.516 391.091L264.268 388.461L262.516 382.327L270.402 380.573L271.278 383.204L268.65 384.957L271.278 391.969L267.773 401.609L275.661 413.004L280.918 417.385L281.794 420.015L273.908 430.533L270.402 433.161L263.392 434.915L262.516 440.172L283.548 443.679L286.176 448.937L284.424 453.32L287.053 455.074L292.31 450.69H296.693L302.826 448.062L308.962 451.567L309.838 453.32L304.581 456.825L303.702 468.22L300.198 470.849L294.065 471.726L291.434 475.231L294.065 478.737L309.838 490.132L317.725 498.02L322.107 505.032L329.994 509.413V514.672L325.614 519.054L314.219 519.931V521.684L318.602 526.066L322.983 526.942L325.614 529.572H330.87L332.623 526.066L337.006 525.188L336.13 527.819L331.746 531.325L333.499 533.078L329.118 542.718V548.854L328.241 549.731Z" fill="#6130E8" fill-opacity="0.5" stroke="#0000FF" stroke-opacity="0.4" stroke-linecap="round" stroke-linejoin="round"/>
<path id="2909" class="district" name="Phú Xuyên" fill-rule="evenodd" clip-rule="evenodd" d="M403.608 487.502L395.72 491.007L388.709 486.626L387.833 483.995L383.452 486.626V483.995L381.699 484.873L380.823 479.614H382.576V476.108L383.452 476.984L386.957 475.231H385.204L384.328 472.602L377.316 468.22L378.192 467.343L373.811 465.59L375.564 462.961H372.059L366.8 459.455V456.825L364.171 455.074L365.048 452.443L363.295 448.937L360.666 447.186V443.68L358.038 444.556V441.925H350.15L345.768 444.556L342.263 441.049L341.387 442.802L336.13 438.421H333.499L330.87 434.915L324.735 435.791V429.656L322.983 427.027L326.49 427.903L328.241 420.891H330.87L331.746 415.632L329.994 416.509L332.623 414.756L335.251 409.497L333.499 406.867L335.251 403.363L334.375 402.485L337.006 399.856L340.511 405.116L339.635 398.103L344.016 397.226H348.398L350.15 405.116L355.408 404.239L362.419 399.856L372.935 403.363L373.811 405.116L372.059 408.621L377.316 412.127L378.192 411.25L382.576 413.004V414.756L384.328 413.881L386.081 420.015H390.463L388.709 422.643L389.587 423.52L383.452 431.408L386.081 434.038L388.709 432.284L395.72 434.038L400.103 427.903L404.484 426.15L400.103 419.138V413.881L400.979 410.374H403.608L407.113 407.744L410.62 411.25L433.404 416.509L436.909 422.643L435.156 429.656L436.909 446.309L431.651 451.567L434.28 462.961L439.538 469.973L443.044 470.849L449.177 467.343H457.942L453.561 471.726L454.437 474.354L450.054 476.984L454.437 483.995H450.93L452.684 482.244L450.054 481.367L446.549 483.119L442.167 487.502V492.76L435.156 493.636L430.774 496.267L429.022 498.897V503.278L421.135 500.648L420.257 493.636L422.012 491.007V485.749L420.257 482.244L404.484 485.749L403.608 487.502Z" fill="#D030E8" fill-opacity="0.5" stroke="#0000FF" stroke-opacity="0.4" stroke-linecap="round" stroke-linejoin="round"/>
<path id="2908" class="district" name="Phúc Thọ" fill-rule="evenodd" clip-rule="evenodd" d="M233.596 235.082L231.843 237.711L230.967 233.33L228.337 236.835V235.082L223.08 234.207L220.451 229.824L221.327 228.948L219.575 223.689L216.068 220.183L208.181 216.677V214.924L205.552 216.677L197.665 214.048L196.788 211.418L189.778 214.048L188.902 211.418L184.52 208.79L186.272 201.777L185.396 196.518H177.51L174.003 194.765L171.374 199.149L168.745 198.272V200.025L166.118 200.9L164.363 199.149L162.611 202.653L157.353 203.53H148.59L143.331 200.9L144.208 200.025L141.579 198.272L138.074 200.025L137.197 197.396L141.579 195.642L140.703 192.135H138.95L138.074 189.507V185.124L140.703 182.496L139.826 180.743L143.331 178.99L144.208 179.866L145.084 177.237H146.837L147.714 175.483L149.466 177.237V175.483L152.971 173.731L150.342 168.472H147.714L146.837 157.955L158.229 159.707L166.118 157.078L181.891 155.325L201.171 149.19L206.428 143.931L211.688 142.178L215.192 143.054L216.944 144.807L217.82 149.19L218.696 164.966L216.068 172.855L220.451 178.99L216.068 182.496L220.451 187.754L226.585 189.507L224.832 192.135L223.956 191.261L223.08 196.518L230.967 201.777L228.337 207.914L230.967 217.553L233.596 218.43L237.977 215.801L242.359 221.936L239.729 224.565L230.967 220.183L230.091 223.689L231.843 224.565L232.719 233.33L233.596 235.082Z" fill="#E83092" fill-opacity="0.5" stroke="#0000FF" stroke-opacity="0.4" stroke-linecap="round" stroke-linejoin="round"/>
<path id="2907" class="district" name="Quốc Oai" fill-rule="evenodd" clip-rule="evenodd" d="M199.418 323.605L188.902 326.234L189.778 324.481L187.149 322.728L188.902 320.975L187.149 319.223H189.778L190.655 317.47L188.026 313.963L184.52 313.087L182.767 314.84L175.755 316.593L171.374 314.84L166.994 318.346L161.734 313.963L152.971 320.099L151.218 318.346H145.084L138.95 312.21L131.063 309.581L124.052 300.818H127.557L128.433 297.31L131.939 294.681L131.063 291.176L138.95 285.916L139.826 278.904L145.084 278.028L145.96 279.782L144.208 280.658L148.59 282.412L152.095 285.916L151.218 284.165L156.477 278.904H163.487L167.87 276.276V273.647L169.622 274.523V272.77L173.127 271.017L171.374 276.276L178.386 278.028V279.782L182.767 282.412L184.52 281.535L183.644 279.782H185.396V274.523H187.149V277.153L188.902 276.276L188.026 275.4L189.778 271.017H188.026V264.006L190.655 262.252H195.912L195.036 259.624L197.665 256.117L202.047 263.129L210.811 259.624L211.688 261.376L216.068 259.624L217.82 262.252L220.451 257.87L223.08 259.624L223.956 256.994L225.708 257.87L223.956 254.364L222.203 256.117L219.575 253.488L222.203 247.353L220.451 246.476L222.203 241.218L221.327 240.342L223.08 239.465V234.207L228.337 235.082V236.835L230.967 233.33L231.843 237.711L233.596 235.082L234.472 237.711H236.224L235.348 239.465L242.359 242.095L244.112 243.846L244.988 248.23L250.245 251.735L249.369 258.748H243.235L240.607 260.499L244.112 268.388L242.359 276.276L243.235 277.153L247.617 275.4L248.493 273.647L256.381 282.412L254.629 285.041L256.381 285.916L257.256 282.412L260.761 279.782H264.268L273.032 285.916L273.908 290.3L280.918 296.434V298.187L274.784 294.681L272.155 295.557L270.402 293.806H265.145L260.761 295.557L261.64 289.423L259.885 291.176H255.505L256.381 292.929L253.752 293.806V295.557L251.124 298.187L240.607 299.941L229.213 298.187L228.337 296.434L224.832 297.31L225.708 296.434L222.203 295.557L221.327 299.064L215.191 306.075L216.068 306.952L212.564 308.705V312.21L210.811 310.459L209.059 311.335L210.811 313.963L209.935 315.716L206.428 317.47H202.047V320.099L199.418 320.975V323.605Z" fill="#E83D30" fill-opacity="0.5" stroke="#0000FF" stroke-opacity="0.4" stroke-linecap="round" stroke-linejoin="round"/>
<path id="2906" class="district" name="Sóc Sơn" fill-rule="evenodd" clip-rule="evenodd" d="M396.597 133.413L395.72 139.549L392.215 140.425L393.092 143.054L389.587 143.931L391.339 140.425L390.463 138.673L385.204 137.796L383.452 135.167L377.316 136.92V135.167H380.823L383.452 129.031L386.957 126.402L384.328 123.772L376.44 126.402L374.687 123.772V129.031L372.059 129.908L371.182 127.279L368.555 128.155L365.924 131.661L359.79 135.167L357.161 136.043L354.532 134.29L351.027 137.796L346.646 136.043L340.511 138.673H337.006L337.882 135.167L336.13 134.29L328.241 136.92L324.735 133.413L322.107 134.29L320.354 129.908L314.219 128.155L309.838 122.02V123.772L308.962 119.39H305.457L302.826 117.638L301.95 113.255H300.198L296.693 108.873L287.053 105.367L283.548 101.861L287.053 103.614L288.805 102.737L287.929 100.108L280.918 99.2319L283.548 94.8496L279.166 93.0966V82.5793L283.548 80.8264L280.918 79.0735L285.3 76.4441L286.176 73.8147H287.929L287.053 70.3089L288.805 67.6794L291.434 68.5559L290.558 65.9266H292.31V64.1736L293.186 65.0501L295.817 62.4207L298.446 63.2972L304.581 50.1504L308.086 46.6446L310.714 42.2623V39.6329L317.725 29.9919V22.9803L319.478 22.1039L318.602 18.5981L320.354 10.7099L322.107 8.95697L320.354 8.08053L326.489 2.82179L327.365 3.69824L329.118 1.06888L336.13 3.69824L338.758 2.82179L348.398 8.95697H351.027L353.655 6.32761H358.914L359.79 8.95697L364.171 7.20407L365.924 8.95697V14.2157L364.171 13.3393L362.419 16.8451L361.543 20.3509L363.295 23.8567L361.543 25.6096L365.924 28.2389H364.171L365.048 32.6212L368.555 33.4977L371.182 40.5094H381.699L385.204 42.2623L391.339 40.5094L392.215 43.1388L390.463 53.6563L393.092 57.1619L398.349 58.0384L401.855 55.4092L403.608 56.2856L401.855 61.5442L402.731 63.2972L412.372 64.1736L407.113 67.6794L406.236 74.6911L407.113 80.8264L416.752 95.7261V97.4789H408.865L409.741 100.108L404.484 107.12H395.72L396.597 107.997L394.844 108.873V111.502L395.72 112.378L398.349 110.626L401.855 115.885V121.143L398.349 122.896L400.979 125.526L399.225 127.279L394.844 126.402L393.968 127.279L395.72 129.908L396.597 133.413Z" fill="#D147AC" fill-opacity="0.5" stroke="#0000FF" stroke-opacity="0.4" stroke-linecap="round" stroke-linejoin="round"/>
<path id="2905" class="district" name="Thạch Thất" fill-rule="evenodd" clip-rule="evenodd" d="M184.52 281.535L182.767 282.412L181.891 280.658L181.015 281.535L178.386 279.782V278.028L171.374 276.276L173.127 271.017H171.374L169.622 274.523L168.745 273.647L167.87 276.276L164.363 278.904H156.477L151.218 284.165L152.095 285.916L149.466 282.412L144.208 280.658L145.96 279.782L145.084 278.028L139.826 278.904L138.95 285.916L131.063 291.176L131.939 294.681L128.433 297.31L127.557 300.818H117.041L116.165 302.571L101.267 294.681L98.6375 285.916L94.2558 278.904L87.2449 276.276L84.6158 266.635L74.9759 265.759L68.8416 262.252L67.9653 255.241H74.9759L80.234 252.611L81.1105 255.241L83.7396 256.994L95.132 253.488L100.39 255.241L103.895 254.364L108.277 256.994L110.906 256.117L116.165 258.748L118.793 250.86L129.309 236.835L140.703 248.23L143.331 247.353V245.599L144.208 246.476L147.714 240.342L151.218 239.465L153.847 236.835V235.082L155.601 234.207L154.723 233.33L159.106 229.824L157.353 228.948L159.982 227.193H158.229L159.106 222.812L155.601 221.059L156.477 218.43L160.858 214.924L156.477 213.171H158.229L157.353 209.665L152.971 207.913L152.095 205.283L154.723 202.653H162.611L164.363 200.025H168.745V198.272L171.374 199.149L174.003 194.765L177.51 196.518H185.396L186.272 201.777L184.52 208.79L188.902 211.418L189.778 214.048L196.788 211.418L197.665 214.048L205.552 216.677L208.181 214.924V216.677L216.068 220.183L219.575 223.689L221.327 228.948L220.451 229.824L223.08 234.207V239.465H221.327L222.203 241.218L220.451 246.476L222.203 247.353L219.575 253.488L222.203 256.117L223.956 254.364L225.708 256.994H223.956L223.08 258.748L220.451 257.87L217.82 262.252L216.068 259.624L211.688 261.376L210.811 259.624L202.047 263.129L197.665 256.117L195.036 259.624L195.912 262.252H190.655L188.026 264.006L188.902 275.4L187.15 276.276V274.523H185.396V279.782H183.644L184.52 280.658V281.535Z" fill="#D1475A" fill-opacity="0.5" stroke="#0000FF" stroke-opacity="0.4" stroke-linecap="round" stroke-linejoin="round"/>
<path id="2904" class="district" name="Thanh Oai" fill-rule="evenodd" clip-rule="evenodd" d="M307.209 413.004H305.457V409.497L302.826 407.744L301.074 410.374L299.322 406.867H295.817L293.186 408.621L288.805 405.991L289.681 403.363L287.053 395.475L292.31 398.103L300.198 391.968L298.446 387.586L299.322 383.204L303.702 377.945V376.192H289.681L286.177 373.563L287.929 370.934L300.198 368.304V366.551L297.57 363.045L291.434 361.292L282.67 352.529V349.898L286.177 351.652L288.805 349.898L289.681 342.887L287.929 338.504L281.794 337.627L280.918 334.122L287.929 323.605L290.558 324.481L291.434 322.728L295.817 321.852L296.693 312.21L299.322 313.087L301.074 312.21V310.459L304.581 313.087L302.826 313.963L307.209 317.47L313.343 314.84V313.087L318.602 312.21L319.478 306.075H326.489L329.118 309.581L322.983 314.84V318.346L321.23 320.098L326.489 325.358L329.994 324.481L338.758 331.493V333.246L336.13 334.122L337.882 335.876L336.13 337.627L337.006 342.011L338.758 342.887L337.006 347.268H338.758L337.882 352.529L344.016 353.405V358.663L340.511 361.292L342.263 363.045V373.563L345.767 377.945L347.522 384.08L352.779 384.957L351.903 389.338L354.532 391.091L352.779 393.722L353.655 394.598L351.903 401.609L348.398 397.226H344.892L339.635 398.103L341.387 405.116L337.006 399.856L334.375 402.485L335.251 403.363L333.499 406.867L335.251 409.497L332.623 414.756L325.614 413.004L318.602 406.867L315.973 409.497L315.097 407.744H313.343V409.497H308.086L307.209 413.004Z" fill="#D18847" fill-opacity="0.5" stroke="#0000FF" stroke-opacity="0.4" stroke-linecap="round" stroke-linejoin="round"/>
<path id="2903" class="district" name="Thanh Trì" fill-rule="evenodd" clip-rule="evenodd" d="M379.947 310.459V312.21L381.699 313.087H391.339L398.349 314.84L402.731 318.346V320.1L392.215 329.739L387.833 327.111L385.204 328.862L384.328 327.111L378.194 325.358L376.44 328.862L372.059 327.111L369.431 329.739L365.924 327.987L362.419 331.493V334.999L353.656 331.493V326.234L349.274 327.987L350.151 329.739L348.398 332.369H346.646V334.999L344.892 330.616L338.758 331.493L329.994 324.481L326.489 325.358L321.23 320.1L322.983 318.346V314.84L329.118 308.705L326.489 306.075L323.859 306.952L321.23 305.199L322.983 304.322L324.735 295.557L328.241 292.929H330.87L322.983 288.546L323.859 286.793L322.107 285.918L324.735 284.165V282.412L328.241 281.535L324.735 278.028L327.365 275.4L329.118 276.276V273.647L335.251 275.4L333.499 282.412L336.13 285.041L341.387 283.288L344.016 285.041L338.758 292.053L348.398 297.31V295.557H350.151L351.027 292.929L355.408 293.806L356.284 298.187L365.924 293.806L366.8 296.434L372.935 299.064L375.564 295.557L383.452 302.571L381.699 305.199L379.947 310.459Z" fill="#B7E830" fill-opacity="0.5" stroke="#0000FF" stroke-opacity="0.4" stroke-linecap="round" stroke-linejoin="round"/>
<path id="2902" class="district" name="Thường Tín" fill-rule="evenodd" clip-rule="evenodd" d="M393.968 434.038L391.339 432.284L386.081 434.038L384.328 433.161L383.452 431.408L389.587 423.52L388.709 422.643L390.463 420.015H386.081L384.328 413.881L382.576 414.756V413.004L380.823 413.881L378.192 411.25L377.316 412.127L372.059 408.621L373.811 405.116L372.935 404.239L362.419 399.856L355.408 404.239L350.151 405.116V400.732L351.903 401.609L353.655 394.598L352.779 393.722L354.532 391.091L351.903 389.338L352.779 384.957L347.522 384.08L345.768 382.327L346.646 379.698L342.263 373.563V363.045L340.511 361.293L344.016 359.539V353.405L337.882 352.529L338.758 347.268H337.006L338.758 342.887L337.006 342.011L336.13 337.627L337.882 335.876L336.13 334.999L338.758 333.246V331.493L344.892 330.616L346.646 334.999V333.246L349.274 332.369V327.987L353.655 326.234V331.493L362.419 334.999V331.493L365.924 327.987L369.431 329.739L372.059 327.111L375.564 328.862L378.192 325.358L384.328 327.111V328.862L387.833 327.111L392.215 329.739L389.587 332.369V337.627L401.855 343.764L412.372 350.774L415.001 354.28V363.045L412.372 367.427L404.484 371.809L400.103 377.945L399.225 386.71L404.484 403.363L407.113 407.744L403.608 410.374H400.979L400.103 413.881V419.138L404.484 426.15L400.103 427.903V429.656L396.597 431.408L395.72 434.038L394.844 433.161L393.968 434.038Z" fill="#49E830" fill-opacity="0.5" stroke="#0000FF" stroke-opacity="0.4" stroke-linecap="round" stroke-linejoin="round"/>
<path id="2901" class="district" name="Ứng Hòa" fill-rule="evenodd" clip-rule="evenodd" d="M363.295 505.908L357.16 498.897L356.284 500.648L353.656 498.897L354.532 497.144L342.263 493.636V495.39L340.511 496.267L342.263 498.897L350.151 504.154V505.908L337.006 514.672L335.251 519.054L337.006 525.188L332.623 526.066L330.87 529.572H325.614L322.983 526.942L318.602 526.066L314.219 521.684V519.931L325.614 519.054L329.118 516.426L330.87 512.042L329.994 509.413L322.107 505.032L317.725 498.02L309.838 490.132L294.065 478.737L291.434 475.231L294.065 471.726L300.198 470.849L303.702 468.22L304.581 456.825L309.838 454.197L308.962 451.567L303.702 448.062L297.57 450.69H292.31L287.053 455.074L284.424 454.197L286.177 448.937L283.548 443.68L262.516 440.172L263.392 434.915L270.402 433.161L273.908 430.533L281.794 420.015L280.918 417.385L275.661 413.004L267.773 402.486L270.402 394.598L280.918 396.351L287.053 395.475L289.681 403.363L288.805 405.991L293.186 408.621L295.817 406.867H299.322L301.075 410.374L302.826 407.744L305.457 409.497L304.581 410.374L306.333 413.881L308.086 409.497H313.343V407.744H315.097L315.973 409.497L318.602 406.867L325.614 413.004L332.623 414.756L329.994 415.632H331.746V418.262L330.87 420.891H328.241L326.489 427.903L322.983 427.027L324.735 435.791L330.87 434.915L333.499 438.421H336.13L341.387 442.802L342.263 441.049L345.767 444.556L350.151 441.925H358.038V444.556L360.666 443.68V447.186L363.295 448.062L365.048 452.443L363.295 455.074L366.8 456.825V459.455L372.059 462.961H375.564L373.811 465.59L378.192 467.343L377.316 468.22L384.328 471.726L385.204 474.355H386.957L383.452 476.984L382.576 476.108V479.614H380.823L381.699 484.873L383.452 483.995V486.626L387.833 483.995L388.709 486.626L395.72 491.007V493.636L389.587 491.007V502.401L379.947 508.536L371.182 506.785L365.924 507.661L363.295 505.908Z" fill="#30E886" fill-opacity="0.5" stroke="#0000FF" stroke-opacity="0.4" stroke-linecap="round" stroke-linejoin="round"/>
</g>
</svg>
