<svg width="380" height="461" viewBox="0 0 380 461" fill="none" xmlns="http://www.w3.org/2000/svg">
<g id="34" name="Hải Dương">
<path id="3412" class="district" name="TP Chí Linh" fill-rule="evenodd" clip-rule="evenodd" d="M220.383 167.135L219.318 169.265L222.513 179.914L212.928 177.784L202.278 182.044L193.759 178.849L186.304 168.2L188.434 154.355L187.369 144.77L180.979 136.251L167.135 126.666H157.55L155.42 128.796L156.485 136.251L151.16 144.77V150.095L145.835 149.03L140.51 140.51L139.445 125.601L134.121 109.626V103.237L137.316 96.8469L147.965 89.3921L155.42 75.5476L154.355 65.9629L147.965 55.3132L144.77 42.5336L147.965 37.2088L156.485 38.2738L155.42 44.6636L161.81 46.7935L162.875 52.1183L167.135 55.3132L169.265 54.2483L173.524 60.6381V53.1833L178.849 56.3782L180.979 54.2483L185.239 55.3132L189.499 53.1833L187.369 48.9234L192.694 47.8585L191.629 44.6636L194.824 40.4037V36.1439L198.019 34.0139L204.408 35.0789L208.668 31.884L209.733 28.6891L215.058 29.7541L216.123 27.6241L225.708 25.4942L227.838 13.7796L233.162 12.7146L235.292 5.25986H239.552L241.682 7.38979H249.137L258.722 4.1949L266.176 10.5847L272.566 6.32483L277.891 8.45476L283.216 7.38979L284.281 1L286.411 7.38979L291.736 8.45476V22.2993L293.865 28.6891L288.541 32.949L290.671 44.6636L284.281 47.8585L285.346 49.9884L282.151 54.2483L284.281 55.3132V59.5731L280.021 64.8979L276.826 76.6125L280.021 77.6775V84.0673L277.891 87.2622L281.086 89.3921L280.021 91.522H277.891L278.956 92.587L273.631 94.7169L271.501 98.9768L260.852 102.172L259.787 98.9768L247.007 101.107L248.072 106.432L245.942 108.561L254.462 119.211L250.202 123.471L249.137 128.796L247.007 130.926L248.072 134.121L251.267 135.186V139.445L257.657 140.51L258.722 143.705L255.527 142.64L249.137 145.835L241.682 144.77L237.422 146.9L234.227 152.225L237.422 154.355L236.357 156.485L234.227 158.615H222.513L221.448 166.07L220.383 167.135Z" fill="#D147AC" fill-opacity="0.5" stroke="#0000FF" stroke-opacity="0.4" stroke-linecap="round" stroke-linejoin="round"/>
<path id="3411" class="district" name="TP Hải Dương" fill-rule="evenodd" clip-rule="evenodd" d="M170.329 275.761L162.875 286.411L159.68 284.281L151.16 285.346L146.9 280.021H144.77L141.575 284.281H138.381L134.121 282.151V267.241L127.731 265.111L123.471 268.306H119.211L114.951 265.111L112.821 266.176L106.432 259.787V254.462L119.211 252.332L121.341 247.007H123.471L119.211 244.877V238.487H121.341L124.536 235.292L121.341 233.162L125.601 229.968L133.056 234.227L143.705 233.162L146.9 221.448L156.485 222.513L157.55 217.188H154.355H156.485L155.42 215.058L157.55 213.993V211.863L166.07 212.928L168.2 215.058V218.253L166.07 219.318L168.2 223.578L170.329 222.513V227.838H174.589L175.654 225.708H177.784V223.578L179.914 224.643L182.044 221.448L184.174 222.513L183.109 226.773L185.239 227.838L188.434 225.708L189.499 227.838L191.629 220.383L193.759 218.253V213.993L195.889 212.928L194.824 209.733L195.889 208.668L198.019 211.863L201.213 209.733H205.473V219.318L201.213 222.513L209.733 225.708L210.798 232.097L208.668 236.357L204.408 239.552V241.682L201.213 238.487L192.694 244.877L193.759 248.072L191.629 254.462L194.824 257.657L186.304 258.722L184.174 264.046L180.979 261.916L175.654 265.111L173.524 262.981V274.696L170.329 276.826V275.761Z" fill="#D1475A" fill-opacity="0.5" stroke="#0000FF" stroke-opacity="0.4" stroke-linecap="round" stroke-linejoin="round"/>
<path id="3410" class="district" name="Bình Giang" fill-rule="evenodd" clip-rule="evenodd" d="M44.6636 347.114L46.7935 342.854H44.6636L41.4687 339.659V329.009H30.819L31.884 338.594L29.7541 340.724H21.2343L13.7796 346.049L14.8445 348.179H12.7146L6.32483 339.659L1 338.594L5.25986 333.269V325.814L3.12993 323.684L10.5847 321.555L14.8445 314.1L15.9095 299.19L19.1044 294.93V290.671L15.9095 287.476H12.7146L10.5847 277.891L14.8445 275.761L18.0394 269.371L25.4942 266.176V262.981L20.1694 259.787L21.2343 253.397L27.6241 255.527L28.6891 257.657H34.0139L36.1439 261.916L42.5336 264.046L45.7285 260.852L53.1833 258.722L57.4432 261.916L64.8979 262.981L69.1578 267.241L73.4176 268.306L75.5476 274.696L91.522 280.021L93.652 282.151V285.346L90.4571 286.411V289.606L96.8469 291.736L97.9118 294.93L93.652 300.255L96.8469 303.45V309.84L98.9768 314.1L100.042 313.035L101.107 315.165H104.302L105.367 318.36L106.432 326.879L98.9768 330.074L97.9118 326.879L95.7819 327.944L90.4571 325.814L88.3272 329.009L80.8724 323.684V325.814L64.8979 333.269L59.5731 341.789L60.6381 343.919L58.5081 347.114L49.9884 349.244L44.6636 347.114Z" fill="#D18847" fill-opacity="0.5" stroke="#0000FF" stroke-opacity="0.4" stroke-linecap="round" stroke-linejoin="round"/>
<path id="3409" class="district" name="Cẩm Giang" fill-rule="evenodd" clip-rule="evenodd" d="M53.1833 258.722L45.7285 260.852L42.5336 264.046L36.1439 261.916L34.0139 257.657L28.6891 258.722L27.6241 255.527L22.2993 252.332L23.3643 245.942H21.2343L22.2993 243.812L27.6241 241.682L28.6891 238.487L21.2343 234.227V231.032H9.51973L8.45476 223.578L11.6497 219.318L8.45476 215.058L7.3898 216.123L6.32483 213.993H4.1949L7.3898 198.019L11.6497 196.954L15.9095 200.148V203.343L20.1694 204.408L22.2993 207.603H34.0139L36.1439 210.798L31.884 218.253L35.0789 221.448V223.578L40.4037 218.253L51.0534 213.993L53.1833 215.058L61.703 212.928L76.6125 206.538L75.5476 201.213L80.8724 203.343L83.0023 202.278L84.0673 204.408L86.1972 201.213L91.522 205.473H94.7169L95.7819 200.148L101.107 201.213L106.432 206.538L109.626 207.603L117.081 204.408L118.146 209.733L123.471 215.058L131.991 217.188L130.926 221.448L121.341 233.162L124.536 235.292L121.341 238.487H119.211V244.877L123.471 245.942L121.341 247.007L119.211 252.332L106.432 254.462V259.787L111.756 266.176L108.561 273.631L102.172 276.826L97.9118 275.761L91.522 280.021L88.3271 277.891L79.8074 276.826L75.5476 274.696L73.4176 268.306L69.1578 267.241L64.8979 262.981L57.4432 261.916L54.2483 258.722H53.1833Z" fill="#B7E830" fill-opacity="0.5" stroke="#0000FF" stroke-opacity="0.4" stroke-linecap="round" stroke-linejoin="round"/>
<path id="3408" class="district" name="Gia Lộc" fill-rule="evenodd" clip-rule="evenodd" d="M123.471 374.803L121.341 379.063L117.081 376.933V373.738L113.886 375.868V380.128H106.432L102.172 370.543L103.237 369.478H100.042L97.9118 367.348L94.7169 369.478L90.4571 367.348L92.587 360.958L95.7819 358.828L92.587 352.438L95.7819 351.374L94.7169 350.309L96.8469 351.374L97.9118 349.244L94.7169 347.114L93.652 348.179V346.049L103.237 336.464L100.042 335.399L96.8469 330.074L106.432 326.879L104.302 315.165L101.107 316.23L100.042 313.035L98.9768 314.1L96.8469 309.84V303.45L93.652 301.32L97.9118 294.93L96.8469 291.735L90.4571 289.606V287.476L93.652 285.346V282.151L91.522 280.021L97.9118 275.761L102.172 276.826L108.561 273.631L113.886 265.111L119.211 268.306H123.471L127.731 265.111L134.121 267.241V282.151L137.316 284.281H140.51L146.9 280.021L151.16 285.346L159.68 284.281L162.875 286.411L159.68 291.735L166.07 294.93H174.589L175.654 300.255L172.459 304.515L177.784 308.775V310.905L173.524 315.165L171.394 314.1L168.2 316.23L172.459 321.555L170.329 326.879L172.459 329.009L176.719 327.944L175.654 332.204L171.394 334.334L170.329 331.139L165.005 329.009L161.81 335.399H159.68L150.095 332.204L151.16 329.009L147.965 331.139V341.789L146.9 340.724L142.64 342.854L145.835 346.049L144.77 348.179L151.16 353.503L153.29 351.374L154.355 352.438L151.16 354.568L154.355 362.023L149.03 365.218L150.095 367.348L146.9 369.478L141.575 364.153L138.381 368.413H136.251L138.381 369.478V371.608L135.186 372.673L136.251 374.803L137.316 373.738L139.445 375.868L136.251 376.933L137.316 382.258L133.056 384.387L127.731 380.128L125.601 375.868L123.471 374.803Z" fill="#49E830" fill-opacity="0.5" stroke="#0000FF" stroke-opacity="0.4" stroke-linecap="round" stroke-linejoin="round"/>
<path id="3407" class="district" name="Kim Thành" fill-rule="evenodd" clip-rule="evenodd" d="M314.1 321.555L310.905 320.49L311.97 311.97L305.58 313.035L298.125 310.905L294.93 319.425L292.8 320.49L291.735 314.1L287.476 307.71L281.086 308.775L280.021 306.645H276.826L274.696 300.255L277.891 294.93L280.021 284.281L273.631 270.436V260.852L282.151 251.267V244.877L272.566 238.487L251.267 236.357L250.202 231.032L233.162 232.097L232.097 234.227L228.903 228.903L227.838 222.513L221.448 218.253L207.603 223.578L205.473 222.513V209.733L207.603 205.473L223.578 202.278V200.148L229.968 196.954L233.162 200.148L238.487 199.084L240.617 201.213L248.072 203.343L250.202 199.084H252.332L253.397 209.733L255.527 208.668L257.657 201.213H259.787L264.046 205.473L267.241 204.408L266.176 196.954L268.306 194.824L270.436 196.954L271.501 204.408L276.826 207.603L275.761 211.863L271.501 215.058V218.253L273.631 220.383L278.956 217.188V211.863L281.086 209.733L284.281 210.798L286.411 217.188L297.06 211.863H301.32L306.645 218.253L305.58 220.383L302.385 221.448L303.45 224.643L308.775 222.513L315.165 228.903L319.425 225.708L321.555 228.903V235.292L323.684 236.357L325.814 232.097L330.074 234.227L329.009 241.682L325.814 244.877L326.879 252.332L324.749 255.527L326.879 258.722L325.814 261.916H329.009L330.074 265.111L326.879 262.981L324.749 264.046L320.49 267.241L318.36 271.501L316.23 270.436V268.306H314.1V274.696L323.684 281.086V285.346L326.879 286.411L325.814 288.541H323.684L324.749 293.865H330.074L326.879 298.125L333.269 300.255V303.45L329.009 306.645L320.49 308.775L319.425 315.165L314.1 321.555Z" fill="#30E886" fill-opacity="0.5" stroke="#0000FF" stroke-opacity="0.4" stroke-linecap="round" stroke-linejoin="round"/>
<path id="3406" class="district" name="Kinh Môn" fill-rule="evenodd" clip-rule="evenodd" d="M360.958 233.162L365.218 238.487L355.633 254.462H348.179L347.114 251.267L353.503 245.942V243.812L351.374 239.552L347.114 238.487H344.984V250.202L340.724 254.462H336.464L335.399 241.682H329.009L330.074 234.227L325.814 231.032L323.684 236.357H321.555V228.903L319.425 225.708L313.035 228.903L310.905 223.578L308.775 222.513L303.45 224.643L302.385 221.448L305.58 220.383L306.645 218.253L301.32 211.863H297.06L287.476 217.188L284.281 210.798L281.086 209.733L278.956 210.798V217.188L273.631 220.383L271.501 216.123L275.761 211.863L276.826 207.603L271.501 204.408L270.436 196.954L268.306 194.824L266.176 196.954L267.241 204.408L264.046 205.473L259.787 201.213H257.657L254.462 209.733L252.332 199.084H250.202L248.072 203.343L240.617 201.213L239.552 199.084L233.162 200.148L229.968 196.954L225.708 200.148L223.578 192.694L224.643 190.564L222.513 189.499L224.643 184.174L219.318 169.264L222.513 163.94V158.615H234.227L237.422 154.355L234.227 152.225L235.292 149.03L241.682 144.77L249.137 145.835L255.527 142.64L260.852 143.705L273.631 140.51L283.216 141.575L292.8 150.095L295.995 151.16L305.58 147.965V152.225L307.71 153.29L305.58 155.42V159.68L308.775 157.55L310.905 159.68L311.97 156.485L317.295 158.615L321.555 156.485V154.355L327.944 152.225L335.399 154.355L338.594 151.16L343.919 153.29L350.309 150.095L352.439 151.16L375.868 170.329L379.063 180.979L371.608 184.174L366.283 183.109L363.088 186.304L354.568 184.174L349.244 189.499L346.049 187.369L344.984 182.044L342.854 183.109L340.724 190.564L337.529 191.629L335.399 200.148L337.529 206.538L346.049 216.123L356.698 218.253L358.828 220.383V229.968L360.958 233.162Z" fill="#30DCE8" fill-opacity="0.5" stroke="#0000FF" stroke-opacity="0.4" stroke-linecap="round" stroke-linejoin="round"/>
<path id="3405" class="district" name="Nam Sách" fill-rule="evenodd" clip-rule="evenodd" d="M143.705 233.162L133.056 234.227L125.601 229.968V226.773L130.926 221.448L131.991 217.188L123.471 215.058L118.146 209.733L116.016 196.954L121.341 189.499L134.121 179.914L130.926 169.265L131.991 165.005L142.64 154.355L145.835 149.03L151.16 150.095V144.77L156.485 136.251L155.42 129.861L157.55 126.666H167.135L180.979 136.251L187.369 144.77L188.434 153.29L186.304 168.2L188.434 172.459L193.759 178.849L202.278 182.044L212.928 177.784L222.513 179.914L224.643 184.174L222.513 188.434L225.708 200.148H223.578V202.278L220.383 203.343L207.603 205.473L203.343 210.798L201.213 209.733L198.019 211.863L195.889 208.668V212.928L193.759 213.993V218.253L191.629 220.383L189.499 227.838L188.434 225.708L185.239 227.838L184.174 222.513L182.044 221.448L179.914 224.643L177.784 223.578L175.654 227.838H170.329V222.513L168.2 223.578L166.07 219.318L168.2 218.253L167.135 212.928L157.55 211.863V213.993L155.42 215.058L156.485 217.188H154.355H157.55L156.485 222.513L146.9 221.448L143.705 231.032V233.162Z" fill="#306EE8" fill-opacity="0.5" stroke="#0000FF" stroke-opacity="0.4" stroke-linecap="round" stroke-linejoin="round"/>
<path id="3404" class="district" name="Ninh Giang" fill-rule="evenodd" clip-rule="evenodd" d="M110.691 442.961L109.626 439.766H112.821L108.561 430.181V420.596L109.626 415.271L111.756 416.336L113.886 408.882V406.752L109.626 403.557L112.821 389.712L123.471 390.777L124.536 384.387H126.666L124.536 383.323L126.666 380.128L131.991 382.258L133.056 384.387L137.316 382.258L136.251 376.933L139.445 375.868L135.186 373.738L138.381 371.608L137.316 368.413L141.575 364.153L146.9 369.478L150.095 367.348V365.218L153.29 373.738H155.42L158.615 371.608L159.68 368.413L161.81 369.478L168.2 366.283L167.135 362.023L168.2 364.153L172.459 358.828L171.394 357.763L173.524 354.568L178.849 356.698L184.174 350.309V359.893L194.824 362.023L191.629 368.413L192.694 372.673L200.148 370.543L203.343 375.868H209.733L207.603 381.193L208.668 383.323L213.993 385.452L219.318 395.037L213.993 402.492L224.643 407.817L225.708 409.947L222.513 416.336L224.643 418.466L221.448 422.726H216.123L201.213 437.636L192.694 438.701L182.044 446.155L173.524 445.091L167.135 437.636L161.81 438.701L153.29 447.22L138.381 455.74L133.056 449.35L131.991 439.766L128.796 437.636L124.536 438.701V444.026L129.861 450.415L125.601 452.545L116.016 451.48L112.821 444.026L110.691 442.961Z" fill="#6130E8" fill-opacity="0.5" stroke="#0000FF" stroke-opacity="0.4" stroke-linecap="round" stroke-linejoin="round"/>
<path id="3403" class="district" name="Thanh Hà" fill-rule="evenodd" clip-rule="evenodd" d="M299.19 363.088L292.8 356.698L281.086 364.153L271.501 349.244L265.111 344.984L256.592 351.374L249.137 353.503L245.942 343.919L254.462 322.619L252.332 314.1L248.072 315.165L247.007 322.619L242.747 326.879L238.487 327.944L212.928 320.49L209.733 317.295L210.798 313.035L207.603 301.32L208.668 300.255L201.213 290.671L202.278 288.541L195.889 286.411L182.044 285.346L173.524 274.696V262.981L175.654 265.111L179.914 261.916L184.174 264.046L186.304 258.722L194.824 257.657L191.629 254.462L193.759 248.072L192.694 244.877L201.213 238.487L204.408 241.682V239.552L210.798 233.162L209.733 225.708L201.213 222.513L203.343 220.383L205.473 219.318V222.513L207.603 223.578L221.448 218.253L227.838 222.513L228.903 228.903L232.097 234.227L240.617 231.032H250.202L251.267 235.292L254.462 237.422L259.787 236.357L258.722 237.422L272.566 238.487L282.151 244.877V251.267L273.631 260.852V270.436L280.021 284.281L277.891 294.93L274.696 300.255L280.021 310.905L274.696 315.165L284.281 325.814L290.671 330.074L289.606 336.464L283.216 343.919L284.281 346.049H303.45L305.58 348.179V352.439L303.45 355.633L299.19 363.088Z" fill="#D030E8" fill-opacity="0.5" stroke="#0000FF" stroke-opacity="0.4" stroke-linecap="round" stroke-linejoin="round"/>
<path id="3402" class="district" name="Thanh Miên" fill-rule="evenodd" clip-rule="evenodd" d="M97.9118 457.87L94.7169 450.415L81.9374 442.961L79.8074 439.766L78.7425 432.311L69.1578 420.596H74.4826L72.3527 405.687L59.5731 401.427L53.1833 391.842L45.7285 395.037L40.4037 386.517V382.258L38.2738 383.323L32.949 376.933H30.819L26.5592 381.193L21.2343 377.998L14.8446 369.478V365.218L13.7796 366.283L6.32483 357.763L10.5847 356.698L13.7796 352.439V346.049L22.2993 339.659L29.7541 340.724L31.884 338.594L29.7541 335.399L31.884 334.334L30.819 329.009H41.4687V339.659L44.6636 342.854H46.7935L44.6636 347.114L49.9884 349.244L58.5081 347.114L60.6381 343.919L59.5731 341.789L64.8979 333.269L80.8724 325.814V323.684L88.3271 329.009L90.4571 325.814H92.587L95.7819 329.009L97.9118 326.879L98.9768 330.074H96.8469L100.042 335.399L103.237 336.464L93.652 346.049V348.179H97.9118L96.8469 351.374L94.7169 350.309L95.7819 351.374L92.587 352.439L95.7819 358.828L92.587 360.958L90.4571 367.348L94.7169 369.478L97.9118 367.348L100.042 369.478H103.237L102.172 370.543L106.432 380.128H113.886V375.868L116.016 373.738L118.146 375.868L117.081 376.933L121.341 379.063L123.471 374.803L127.731 377.998V380.128L124.536 383.323L126.666 384.387L124.536 385.452L123.471 390.777L112.821 389.712L109.626 403.557L113.886 406.752L111.756 416.336L109.626 415.271L108.561 420.596V430.181L112.821 439.766H110.691V442.961L97.9118 449.35V451.48L102.172 454.675L113.886 457.87L110.691 460H108.561L105.367 456.805L100.042 457.87H97.9118Z" fill="#E83092" fill-opacity="0.5" stroke="#0000FF" stroke-opacity="0.4" stroke-linecap="round" stroke-linejoin="round"/>
<path id="3401" class="district" name="Tứ Kỳ" fill-rule="evenodd" clip-rule="evenodd" d="M150.095 365.218L154.355 362.023L151.16 354.568L154.355 352.439L153.29 351.374L151.16 353.503L142.64 342.854L146.9 340.724L147.965 341.789V331.139L151.16 329.009L150.095 332.204H153.29L158.615 335.399H161.81L165.005 329.009L170.329 331.139L171.394 334.334L176.719 331.139V329.009H172.459L170.329 326.879L172.459 321.555L168.2 316.23L171.394 314.1L173.524 315.165L177.784 310.905V308.775L173.524 304.515L175.654 301.32V297.06L173.524 294.93H166.07L159.68 291.735L170.329 275.761L173.524 274.696L182.044 285.346L195.889 286.411L202.278 288.541L201.213 290.671L208.668 300.255L207.603 301.32L210.798 311.97L209.733 317.295L212.928 320.49L238.487 327.944L242.747 326.879L247.007 322.619L248.072 315.165L252.332 314.1L254.462 322.619L245.942 343.919L247.007 352.439L249.137 353.503L256.592 351.374L265.111 344.984L268.306 346.049L278.956 362.023L287.476 371.608L291.735 385.452L287.476 395.037L291.735 397.167L285.346 403.557L280.021 405.687L273.631 402.492L270.436 403.557L266.176 411.012H256.592L255.527 412.077L266.176 421.661L265.111 424.856L261.916 428.051L255.527 429.116V418.466L251.267 417.401L250.202 424.856L244.877 430.181L237.422 420.596L233.162 418.466L222.513 417.401L225.708 409.947L222.513 405.687L213.993 403.557L219.318 395.037L213.993 385.452L207.603 382.258L210.798 375.868H203.343L200.148 370.543L192.694 372.673L191.629 368.413L194.824 362.023L184.174 359.893V350.309L182.044 351.374L179.914 356.698L173.524 354.568L171.394 357.763L172.459 358.828L168.2 364.153L167.135 362.023V367.348L161.81 369.478L159.68 368.413L157.55 372.673L153.29 373.738L150.095 365.218Z" fill="#E83D30" fill-opacity="0.5" stroke="#0000FF" stroke-opacity="0.4" stroke-linecap="round" stroke-linejoin="round"/>
</g>
</svg>
