<svg width="526" height="464" viewBox="0 0 526 464" fill="none" xmlns="http://www.w3.org/2000/svg">
<g id="35" name="Ninh Bình">
<path id="3508" class="district" name="TP Ninh Bình" fill-rule="evenodd" clip-rule="evenodd" d="M365.315 215.914L361.868 218.213L349.228 219.362L348.079 211.318L354.973 207.871L353.824 202.126L352.676 200.977L346.93 206.722L336.588 198.679L330.842 190.637L335.439 188.338V183.742L338.886 182.593L336.588 177.997L322.799 175.699L325.097 173.401L321.65 172.252L322.799 168.806L327.395 166.508L333.141 152.719L331.992 155.017H335.439L336.588 160.763L345.781 155.017L344.632 152.719L348.079 151.57L346.93 149.272L349.228 151.57L359.57 146.974L365.315 159.613L369.912 163.061L367.614 171.103L383.701 180.295L399.788 183.742L403.236 182.593V187.189L398.64 191.786L395.192 189.488L386 202.126L381.403 211.318L387.149 213.616L377.955 225.106L373.359 227.404L371.061 221.659L373.359 219.362L368.763 214.765H366.464L365.315 215.914Z" fill="#D147AC" fill-opacity="0.5" stroke="#0000FF" stroke-opacity="0.4" stroke-linecap="round" stroke-linejoin="round"/>
<path id="3507" class="district" name="TP Tam Điệp" fill-rule="evenodd" clip-rule="evenodd" d="M330.842 276.811L337.737 284.854L341.185 283.705L344.632 287.152L349.228 288.301L351.527 292.897H354.973L356.123 300.939L354.973 302.088L351.527 299.79L349.228 304.387L342.333 302.088L341.185 305.536H337.737V300.939L325.097 303.237L326.246 307.834L323.948 313.579L318.203 315.877L313.606 311.281H305.563L302.115 305.536L298.668 304.387L296.369 300.939L287.177 299.79L279.133 296.343L269.941 291.748V289.45H267.642L260.748 282.556L252.704 279.109H246.959L242.362 271.065L222.827 265.321V263.023L217.082 260.725L209.039 253.831L211.336 252.682L219.38 256.129L220.53 251.533L229.722 256.129L233.17 252.682V248.086L235.468 245.787L237.766 246.937L242.362 238.894H253.853L261.896 244.638H274.537L279.133 232L274.537 227.404L276.835 225.106L282.581 223.957L286.028 220.51L289.476 211.318L292.922 213.616L298.668 222.808L302.115 223.957L303.264 227.404L330.842 243.49L333.141 245.787H328.545L327.395 248.086L333.141 252.682L336.588 250.384V246.937L338.886 245.787L343.483 246.937L346.93 251.533L348.079 256.129H343.483L345.781 259.576H342.333L336.588 264.172L333.141 271.065L335.439 273.363L333.141 274.512L330.842 276.811Z" fill="#D1475A" fill-opacity="0.5" stroke="#0000FF" stroke-opacity="0.4" stroke-linecap="round" stroke-linejoin="round"/>
<path id="3506" class="district" name="Gia Viễn" fill-rule="evenodd" clip-rule="evenodd" d="M283.73 146.974L286.028 156.166L283.73 160.763L286.028 163.061L283.73 169.954L284.878 174.55H289.476L291.773 177.997L290.624 183.742L295.221 192.935L290.624 196.381L282.581 198.679V194.084L277.985 191.786V184.891L275.686 182.593V179.146L268.791 177.997L266.494 171.103H264.195L256.151 158.464V151.57L251.555 148.123L246.959 150.421L249.257 156.166L244.66 161.912L241.213 163.061L233.169 160.763L228.573 149.272L223.977 151.57L222.827 148.123L225.126 146.974V141.23L220.53 138.932L221.678 136.634L220.53 132.038L218.231 130.888L217.082 122.845L223.977 117.101V112.505L226.275 111.356L222.827 95.2697L214.784 91.8227L222.827 80.3328L228.573 75.7368V69.9918L226.275 66.5449L219.38 64.2469L221.678 53.9059L211.336 44.7139L218.231 43.565L217.082 40.118L219.38 41.267V36.6709L222.827 35.522L225.126 32.075L229.722 34.373H232.021L233.169 32.075L241.213 33.224L242.362 30.926H252.704L257.3 26.3301L264.195 25.181L268.791 33.224H271.09V36.6709L277.985 42.4159L282.581 50.4589L289.476 57.3529V59.6508H292.922L295.221 66.5449L302.115 73.4388H307.86L310.159 69.9918L317.054 82.6307H320.501L328.545 78.0348L330.842 80.3328L331.992 88.3757L343.483 89.5247L345.781 91.8227L342.333 101.015L336.588 109.058L330.842 111.356V114.803L318.203 119.398L320.501 126.292L323.948 123.994L318.203 128.59L317.054 122.845L313.606 120.547L306.712 122.845L298.668 138.932L290.624 146.974L286.028 148.123L283.73 146.974Z" fill="#D18847" fill-opacity="0.5" stroke="#0000FF" stroke-opacity="0.4" stroke-linecap="round" stroke-linejoin="round"/>
<path id="3505" class="district" name="Hoa Lư" fill-rule="evenodd" clip-rule="evenodd" d="M315.904 234.298L311.308 233.149L309.01 229.702L303.264 227.404L302.115 223.957L298.668 222.808L292.922 213.616L280.282 200.977L287.177 196.381L295.221 194.084V190.637L290.624 183.742L291.773 177.997L289.476 174.55L284.878 175.699L283.73 169.954L286.028 163.061L283.73 160.763L286.028 156.166L283.73 146.974H290.624L298.668 138.932L306.712 122.845L313.606 120.547L317.054 122.845L318.203 128.59L323.948 125.143L320.501 126.292L318.203 119.398L330.842 114.803L356.123 127.441L369.912 143.527L372.21 156.166L369.912 163.061L365.315 159.613L359.57 146.974L349.228 151.57L348.079 149.272V151.57L344.632 152.719L345.781 155.017L336.588 160.763L335.439 155.017H331.992L333.141 152.719L327.395 166.508L322.799 168.806L321.65 172.252H323.948L325.097 173.401L322.799 174.55L327.395 176.848L336.588 177.997L338.886 182.593L335.439 183.742V188.338L330.842 190.637L336.588 198.679L341.185 200.977L345.781 206.722L349.228 205.573L351.527 200.977L353.824 202.126L354.973 207.871L348.079 211.318L349.228 219.362L361.868 218.213L368.763 214.765L369.912 218.213L373.359 219.362L371.061 221.659L374.509 229.702L368.763 232V234.298L359.57 232H357.272L356.123 234.298L345.781 233.149L344.632 236.596L341.185 237.745L338.886 241.192L341.185 243.49L336.588 246.937V250.384L333.141 252.682L327.395 248.086L328.545 245.787H333.141L325.097 238.894H322.799L315.904 234.298Z" fill="#B7E830" fill-opacity="0.5" stroke="#0000FF" stroke-opacity="0.4" stroke-linecap="round" stroke-linejoin="round"/>
<path id="3504" class="district" name="Kim Sơn" fill-rule="evenodd" clip-rule="evenodd" d="M460.691 437.67L451.497 459.501L449.2 461.799L442.305 462.948L414.727 436.521L408.981 429.627V427.329H404.385L403.236 421.585L407.832 408.945L412.428 405.498L427.367 402.051L434.261 390.561L446.901 350.346L443.454 346.899L417.024 350.346L413.578 352.644L410.131 351.495L407.832 342.304H411.279V340.006H408.981L410.131 334.261H407.832V329.664L418.174 333.111V322.77L411.279 320.473L434.261 300.939L443.454 295.195L436.559 291.748L440.006 287.152L441.156 288.301L445.752 283.705L452.647 291.748L460.691 289.45L450.349 279.109L454.945 276.811L460.691 286.003L457.243 280.258L480.225 269.916L487.12 284.854L495.164 279.109L492.865 272.214L500.909 266.47L519.295 296.343L514.698 300.939L505.505 321.621L504.356 340.006L502.058 346.899L497.461 352.644L487.12 356.091L479.076 364.135L476.778 390.561L466.436 418.137L462.988 437.67H460.691Z" fill="#49E830" fill-opacity="0.5" stroke="#0000FF" stroke-opacity="0.4" stroke-linecap="round" stroke-linejoin="round"/>
<path id="3503" class="district" name="Nho Quan" fill-rule="evenodd" clip-rule="evenodd" d="M274.537 227.404L279.133 232L274.537 244.638H261.896L253.853 238.894H242.362L238.914 246.937L235.468 245.787L232.021 250.384V254.98L229.722 256.129L220.53 251.533L219.38 256.129L213.635 253.831L197.548 252.682L194.1 248.086L191.802 249.235L181.461 246.937L166.522 241.192L167.671 238.894L164.224 233.149L159.627 232L158.479 228.553L133.198 211.318L126.303 209.02L128.602 205.573L127.453 199.828H124.006L118.26 196.381L114.812 190.637V186.04L109.067 184.891L106.769 182.593L107.918 181.444L91.8307 163.061L82.6379 158.464L66.5505 155.017L59.656 148.123L57.3578 144.676L58.5069 141.23L56.2087 140.081L48.165 127.441L43.5686 126.292L37.8231 128.59L30.9285 127.441L24.0339 121.696L20.5867 123.994L18.2885 122.845L19.4376 117.101L13.6921 112.505L10.2448 113.654L5.64839 107.909L6.79749 97.5676L3.35019 91.8227L1.052 82.6307L17.1394 87.2267L24.0339 84.9287L33.2267 75.7368L48.165 81.4818L65.4014 95.2697L68.8487 96.4187L69.9978 94.1207L84.9361 104.462L90.6816 113.654L99.8743 120.547L107.918 130.889L120.558 134.336L128.602 128.59L133.198 119.398L152.733 112.505L155.031 106.76H157.329V104.462L148.136 91.8227H145.838L144.689 87.2267L141.242 84.9287L143.54 79.1838L138.944 76.8857L135.497 69.9918L136.645 68.8428L127.453 59.6508H129.751L126.303 56.2039H129.751L132.049 51.608L128.602 47.0119H122.856L120.558 44.7139V38.969H136.645L142.391 42.4159H148.136L156.18 47.0119V49.3099L160.776 50.4589L157.329 57.3529L158.479 61.9488L167.671 63.0979L171.118 65.3958V79.1838L180.311 78.0348L179.162 75.7368L182.609 68.8428L180.311 60.7999L178.013 59.6508V52.7569L180.311 51.608L175.715 42.4159L176.863 37.82L181.461 36.6709L182.609 34.373L180.311 33.224L175.715 14.8401L180.311 12.5421L184.908 13.6911L192.952 11.3931L196.399 17.1381H200.995L206.74 6.79713L205.591 2.20115L210.188 1.05215L211.336 7.94612L215.934 15.9891L233.169 30.926L232.021 34.373L226.275 32.075L222.827 35.522H219.38L220.53 40.118H217.082L218.231 43.565L211.336 44.7139L221.678 53.9059L219.38 64.2468L226.275 66.5449L228.573 69.9918V75.7368L222.827 80.3327L214.784 91.8227L222.827 95.2697L226.275 111.356H223.977V117.101L217.082 122.845L218.231 130.889L220.53 132.038L221.678 136.634L220.53 138.932L225.126 141.23V146.974L222.827 148.123L223.977 151.57L228.573 149.272L233.169 159.613L241.213 163.061L244.66 161.912L249.257 156.166L246.959 150.421L251.555 148.123L253.853 149.272L257.3 155.017L256.151 158.464L264.195 171.103H266.494L268.791 177.997L275.686 179.146V182.593L277.985 183.742V191.786L282.581 194.084V198.679L280.282 200.977L289.476 211.318L286.028 220.51L282.581 223.957L276.835 225.106L274.537 227.404Z" fill="#30E886" fill-opacity="0.5" stroke="#0000FF" stroke-opacity="0.4" stroke-linecap="round" stroke-linejoin="round"/>
<path id="3502" class="district" name="Yên Khánh" fill-rule="evenodd" clip-rule="evenodd" d="M457.243 280.258L460.691 286.003L454.945 277.96L450.349 279.109L460.691 289.45L452.647 291.748L445.752 283.705L441.156 288.301L440.006 287.152L436.56 291.748L427.367 279.109L425.069 252.682L408.981 246.937L410.131 241.192L403.236 232L388.297 234.298L374.509 229.702L373.359 227.404L377.955 225.106L387.149 213.616L381.403 211.318L386 203.275L384.85 202.126L395.192 189.488L398.64 191.786L403.236 187.189V182.593L418.174 177.997L422.77 181.444L425.069 186.04L423.919 190.637H413.578L407.832 192.935V195.232L414.727 206.722L423.919 212.467L433.113 211.318L446.901 202.126L454.945 182.593L458.392 179.146H462.988L465.287 182.593L468.734 204.424L472.182 212.467L474.479 213.616L505.505 203.275L510.102 204.424L518.146 232L520.443 259.576L525.04 284.854L522.742 292.897L519.295 296.343L500.909 266.47L492.865 272.214L495.164 279.109L487.12 284.854L480.225 269.916L459.541 279.109L457.243 280.258Z" fill="#30DCE8" fill-opacity="0.5" stroke="#0000FF" stroke-opacity="0.4" stroke-linecap="round" stroke-linejoin="round"/>
<path id="3501" class="district" name="Yên Mồ" fill-rule="evenodd" clip-rule="evenodd" d="M410.131 351.495L403.236 353.793L392.894 346.899H377.955L376.806 344.602L349.228 346.899L343.483 340.006H338.886L334.29 333.111L325.097 325.068L320.501 315.877L321.65 313.579H323.948L326.246 307.834L325.097 304.386L331.992 300.939H337.737V305.536H341.185L342.333 302.088L349.228 304.386L351.527 299.79L354.974 302.088L356.123 300.939L354.974 292.897H351.527L349.228 288.301L344.632 287.152L341.185 283.705L337.737 284.854L330.842 276.811L335.439 274.512L333.141 271.065L336.588 264.172L344.632 259.576L343.483 256.129H348.079L343.483 246.936L338.886 245.787L341.185 244.638L338.886 241.192L340.036 238.894L344.632 236.596L345.781 233.149L354.974 234.298L359.57 232L368.763 234.298V232L373.359 230.851L372.21 229.702L388.297 234.298L403.236 232L410.131 241.192L408.981 246.936L425.069 252.682L428.516 282.556L438.858 294.046L443.454 295.194L434.261 300.939L411.279 320.472L418.174 322.77L417.025 326.217L419.323 327.366L418.174 333.111L407.832 329.664V334.261H410.131L408.981 340.006H411.279V342.304H407.832L408.981 348.048L410.131 351.495Z" fill="#306EE8" fill-opacity="0.5" stroke="#0000FF" stroke-opacity="0.4" stroke-linecap="round" stroke-linejoin="round"/>
</g>
</svg>
