<svg width="548" height="474" viewBox="0 0 548 474" fill="none" xmlns="http://www.w3.org/2000/svg">
<g id="36" name="Thanh Hóa">
<path id="3627" class="district" name="TP Sầm Sơn" fill-rule="evenodd" clip-rule="evenodd" d="M476.435 330.151H469.394L467.633 328.391L471.153 324.872H467.633L464.112 317.835L465.873 316.076L472.914 321.354L478.195 307.279L501.079 302.001L488.756 324.872H485.236L483.476 321.354L478.195 326.632L476.435 330.151Z" fill="#D147AC" fill-opacity="0.5" stroke="#0000FF" stroke-opacity="0.4" stroke-linecap="round" stroke-linejoin="round"/>
<path id="3626" class="district" name="TP Thanh Hóa" fill-rule="evenodd" clip-rule="evenodd" d="M474.674 319.595L472.914 321.354L455.311 312.557L448.27 316.076L442.988 314.316L439.468 319.595L437.708 317.835L442.988 312.557L434.187 294.964L437.708 291.445L434.187 284.408L441.229 280.889L432.427 275.611L437.708 268.573L451.79 272.092L455.311 277.371L460.591 275.611L465.873 280.889V289.686L472.914 298.483L471.153 303.76L478.195 309.039L472.914 316.076L474.674 317.835V319.595Z" fill="#D1475A" fill-opacity="0.5" stroke="#0000FF" stroke-opacity="0.4" stroke-linecap="round" stroke-linejoin="round"/>
<path id="3625" class="district" name="Bỉm Sơn" fill-rule="evenodd" clip-rule="evenodd" d="M495.798 206.996V214.033L485.236 210.515L478.195 212.275L469.394 205.237V192.921L474.674 194.681L472.914 189.403L476.435 184.125L497.557 194.681L499.318 203.477L495.798 206.996Z" fill="#D18847" fill-opacity="0.5" stroke="#0000FF" stroke-opacity="0.4" stroke-linecap="round" stroke-linejoin="round"/>
<path id="3624" class="district" name="Bá Thước" fill-rule="evenodd" clip-rule="evenodd" d="M302.165 141.901L309.206 154.216L303.925 164.772L291.603 166.532L281.041 155.976V159.495L272.239 155.976L268.72 157.735L263.438 147.179L258.158 145.42L252.876 148.939V155.976L244.075 152.457L240.555 147.179L238.794 150.697H235.273V147.179L229.993 145.42L228.232 127.825L233.513 126.067L238.794 119.029H242.314L240.555 111.992H244.075L247.596 117.269H254.637L261.678 110.233L252.876 101.436L256.397 99.6766L254.637 94.3985L242.314 87.3611L238.794 78.5644L222.952 57.4523L235.273 45.1369V41.6182L229.993 38.0995L231.753 36.3401L235.273 34.5808L240.555 39.8589L242.314 38.0995L252.876 46.8962L256.397 53.9336L265.199 52.1743L275.761 57.4523L279.28 62.7303L277.521 66.2491L286.323 73.2864L284.562 80.3237L288.082 83.8424L289.842 82.0831L295.124 87.3611L298.644 85.6017L305.686 92.6392L330.33 101.436L339.131 110.233L330.33 120.788L335.61 126.067L328.569 129.585L332.09 136.623L326.809 140.141L312.727 126.067H309.206L310.966 140.141L303.925 138.383L302.165 141.901Z" fill="#B7E830" fill-opacity="0.5" stroke="#0000FF" stroke-opacity="0.4" stroke-linecap="round" stroke-linejoin="round"/>
<path id="3623" class="district" name="Cấm Thủy" fill-rule="evenodd" clip-rule="evenodd" d="M376.098 205.237L370.816 199.959L360.255 201.719L358.495 194.681L347.933 184.125L335.61 178.847L325.048 170.051L318.007 171.809L312.727 166.532L307.445 168.291L303.925 159.495L309.206 154.216V150.697L302.165 141.901L303.925 138.383H310.966V126.067L326.809 140.141L332.09 134.864L328.569 127.827L335.61 126.067L330.33 120.788L335.61 115.511L367.296 143.66L365.536 152.457L379.617 154.216V157.735L384.899 159.495L386.66 170.051L393.701 182.365L388.419 191.163L377.858 198.2L383.139 205.237L376.098 203.477V205.237Z" fill="#49E830" fill-opacity="0.5" stroke="#0000FF" stroke-opacity="0.4" stroke-linecap="round" stroke-linejoin="round"/>
<path id="3622" class="district" name="Đông Sơn" fill-rule="evenodd" clip-rule="evenodd" d="M437.708 319.595L435.947 317.835L427.146 321.354L421.865 317.835L428.906 307.279L423.626 300.242L416.584 302.001L413.064 298.483L414.824 296.723L409.543 289.685L411.303 280.889L418.344 284.408L421.865 282.648L423.626 277.371L434.187 280.889V287.927L439.468 291.445H435.947L434.187 294.964L437.708 298.483L435.947 303.76L442.988 307.279L437.708 319.595Z" fill="#30E886" fill-opacity="0.5" stroke="#0000FF" stroke-opacity="0.4" stroke-linecap="round" stroke-linejoin="round"/>
<path id="3621" class="district" name="Hà Trung" fill-rule="evenodd" clip-rule="evenodd" d="M513.401 206.996L504.6 215.793L495.798 214.033L499.318 198.2L508.119 206.996H513.401ZM448.27 242.183L444.749 243.943L446.509 238.664L439.468 229.868L446.509 224.59V212.275L442.988 208.756L444.749 201.719L450.03 203.477L448.27 199.959L455.311 189.403V178.847L457.071 180.607L464.112 177.088L476.435 184.125L472.914 187.644L474.674 194.681L469.393 192.921L471.153 206.996L479.955 212.275H494.038L492.277 219.312L495.798 224.59L494.038 229.868H497.557V236.905L492.277 242.183L488.756 235.146L486.997 238.664L485.236 235.146L483.476 236.905L478.195 233.387V236.905H469.393L467.633 240.424L455.311 245.702H451.79L450.03 242.183H448.27Z" fill="#30DCE8" fill-opacity="0.5" stroke="#0000FF" stroke-opacity="0.4" stroke-linecap="round" stroke-linejoin="round"/>
<g id="3620" class="district" name="Hậu Lộc">
<path id="Vector" fill-rule="evenodd" clip-rule="evenodd" d="M472.914 268.573L467.633 266.815V263.296L472.914 265.055L476.435 261.536L472.914 254.499H453.55L448.27 243.943L450.03 242.183L451.79 245.702H455.311L462.352 243.943V240.424H467.633L469.393 236.905L478.195 235.146H488.756L492.277 242.183L497.557 238.664L499.318 242.183H502.839L499.318 249.22L520.442 238.664L523.962 242.183L518.681 249.22L516.921 247.461L506.359 256.259V265.055L502.839 268.573L499.318 266.815L494.038 270.333L492.277 266.815L488.756 270.333L483.476 265.055L474.674 268.573H472.914Z" fill="#306EE8" fill-opacity="0.5"/>
<path id="Vector_2" d="M525.722 259.777L523.962 258.017M472.914 268.573L467.633 266.815V263.296L472.914 265.055L476.435 261.536L472.914 254.499H453.55L448.27 243.943L450.03 242.183L451.79 245.702H455.311L462.352 243.943V240.424H467.633L469.393 236.905L478.195 235.146H488.756L492.277 242.183L497.557 238.664L499.318 242.183H502.839L499.318 249.22L520.442 238.664L523.962 242.183L518.681 249.22L516.921 247.461L506.359 256.259V265.055L502.839 268.573L499.318 266.815L494.038 270.333L492.277 266.815L488.756 270.333L483.476 265.055L474.674 268.573H472.914Z" stroke="#0000FF" stroke-opacity="0.4" stroke-linecap="round" stroke-linejoin="round"/>
</g>
<path id="3619" class="district" name="Hoằng Hóa" fill-rule="evenodd" clip-rule="evenodd" d="M478.195 307.279L471.153 303.76L472.914 300.242L467.633 293.204L464.112 277.371H453.55L450.03 272.092L444.749 270.333V243.943L448.27 242.183L455.311 254.499H471.153L476.435 259.776L474.674 265.055H467.633L474.674 268.573L472.914 270.333L478.195 265.055H485.236L486.997 270.333L492.277 266.815H509.88L499.318 287.927L501.079 302.001L478.195 307.279Z" fill="#6130E8" fill-opacity="0.5" stroke="#0000FF" stroke-opacity="0.4" stroke-linecap="round" stroke-linejoin="round"/>
<path id="3618" class="district" name="Lang Chánh" fill-rule="evenodd" clip-rule="evenodd" d="M289.842 203.477L293.363 219.312L288.082 228.108H281.041L274 222.831L266.959 226.349H254.637V210.515L249.356 206.996L251.117 203.477L242.314 189.403L238.794 192.921L228.232 194.681L229.993 199.959L226.472 203.477L224.711 201.719L217.67 205.237L200.067 196.44H193.026L194.787 187.644L205.349 171.809L207.108 164.772L203.588 157.735V147.179L214.15 143.66L207.108 136.623V133.104L210.629 129.585L219.431 136.623L229.993 138.383V145.42H235.273L238.794 152.457L240.555 148.939L251.117 155.976L258.158 145.42L263.438 147.179L268.72 157.735L270.479 155.976L281.041 159.495L293.363 173.569L288.082 189.403L293.363 196.44L291.603 203.477H289.842Z" fill="#D030E8" fill-opacity="0.5" stroke="#0000FF" stroke-opacity="0.4" stroke-linecap="round" stroke-linejoin="round"/>
<path id="3617" class="district" name="Mường Lát" fill-rule="evenodd" clip-rule="evenodd" d="M50.4421 89.1204L48.6818 96.1579L39.8802 97.9172L34.5993 103.195H27.5582L24.0376 99.6766L15.2361 101.436L9.95518 92.6391L13.4757 85.6017L1.15369 78.5644V68.0083L6.43458 64.4896L4.67428 62.7303H13.4757L24.0376 55.6929L32.839 53.9336L39.8802 43.3776H46.9215L50.4421 39.8588L48.6818 34.5808L59.2435 22.2654H73.326L80.3671 16.9873L83.8877 13.4686V6.4313L92.6892 13.4686V16.9873L99.7305 20.5061V25.7841H103.251V22.2654H110.292L119.094 32.8214L126.135 29.3028V32.8214H131.416L129.656 31.0621L136.697 29.3028L138.457 32.8214L147.259 31.0621L161.34 38.0995V45.1369L157.821 46.8962L161.34 53.9336L157.821 55.6929L159.581 57.4523L150.78 66.2489L129.656 71.5271L126.135 78.5644L119.094 82.0831H110.292L106.772 85.6017L92.6892 73.2864L96.2098 69.7677L90.9289 68.0083L78.6069 73.2864V80.3237L73.326 87.3611H61.0038L53.9627 90.8798L50.4421 89.1204Z" fill="#E83092" fill-opacity="0.5" stroke="#0000FF" stroke-opacity="0.4" stroke-linecap="round" stroke-linejoin="round"/>
<path id="3616" class="district" name="Nga Sơn" fill-rule="evenodd" clip-rule="evenodd" d="M508.119 245.702H504.6V249.22L499.318 247.461V243.943L502.839 242.183L495.798 238.664L497.557 229.868H494.038L495.798 224.59L492.277 221.071V215.793L509.88 214.033L513.401 206.996H545.086L546.846 208.756L541.566 222.831L536.284 229.868L529.243 233.387V243.943L522.202 247.461L523.962 242.183L520.442 238.664L509.88 243.943L508.119 245.702Z" fill="#E83D30" fill-opacity="0.5" stroke="#0000FF" stroke-opacity="0.4" stroke-linecap="round" stroke-linejoin="round"/>
<path id="3615" class="district" name="Ngọc Lặc" fill-rule="evenodd" clip-rule="evenodd" d="M323.289 254.499L312.727 256.259L309.206 249.22L300.404 247.461L289.842 231.627V224.59L293.363 221.071L289.842 205.237L293.363 196.44L288.082 189.403L293.363 173.569L279.28 155.976L286.322 159.495L291.603 166.532L298.644 163.013L310.966 166.532L318.007 171.809L325.048 170.051L340.892 182.365L349.693 185.884L358.495 194.681V201.719L362.015 203.477L360.255 205.237L365.536 215.793L362.015 212.275L360.255 214.034V210.515L358.495 215.793L347.933 217.552L349.693 222.831L347.933 221.071L346.172 226.349L351.454 231.627H354.974L353.213 233.387L344.412 229.868L339.131 231.627L335.61 228.108L333.85 233.387L340.892 238.664L342.651 243.943L330.33 250.98V254.499H325.048H323.289Z" fill="#D147AC" fill-opacity="0.5" stroke="#0000FF" stroke-opacity="0.4" stroke-linecap="round" stroke-linejoin="round"/>
<path id="3614" class="district" name="Như Thanh" fill-rule="evenodd" clip-rule="evenodd" d="M397.22 407.562L414.824 402.284L407.782 411.08L411.303 414.599V425.155H407.782V428.674L413.064 433.952L406.023 440.99L402.502 442.748V439.23L397.22 440.99V444.508H391.94L374.337 419.878V416.359L363.775 409.321V404.043L354.974 397.006L347.933 398.765L344.412 393.487L349.693 382.931V374.134H353.213V370.615L358.495 368.856L369.057 358.3L367.296 347.744L354.974 337.188L360.255 321.354L351.454 319.595V316.076H347.933L344.412 309.039V300.242H363.775L369.057 296.723V300.242L363.775 302.001L370.816 309.039L367.296 312.557L369.057 314.316L381.378 300.242H384.899L388.419 303.76L381.378 314.316L386.66 321.354L406.023 331.91L407.782 347.744L391.94 354.782L395.461 361.819L393.701 363.578H400.741L398.981 365.338L402.502 368.856L398.981 374.134L404.263 382.931H411.303L407.782 391.728L411.303 395.247L397.22 397.006V405.803V407.562Z" fill="#D1475A" fill-opacity="0.5" stroke="#0000FF" stroke-opacity="0.4" stroke-linecap="round" stroke-linejoin="round"/>
<path id="3613" class="district" name="Như Xuân" fill-rule="evenodd" clip-rule="evenodd" d="M342.651 419.878L339.131 414.599H326.809V411.08L316.247 397.006L318.007 391.728L314.487 384.69H310.966L309.206 389.968L307.445 388.209L303.925 395.247L305.686 397.006H302.165L295.124 407.562V404.043L289.842 402.284L291.603 398.765L286.322 389.968L289.842 382.931L288.082 381.171L291.603 377.652L288.082 368.856L291.603 367.096V363.578H288.082L282.801 347.744L279.28 345.984L275.761 351.263L263.438 340.707L252.876 337.188L254.637 331.91L251.117 330.151L254.637 323.113L263.438 326.632L279.28 324.872L277.521 319.595L284.562 316.076L295.124 319.595L298.644 324.872L316.247 328.391L321.528 326.632V321.354L326.809 323.113L335.61 314.316L340.892 312.557L344.412 316.076L347.933 312.557L351.453 319.595L360.255 321.354V328.391L354.974 331.91V335.428L362.015 344.225H365.536L369.057 356.54L349.693 375.894V384.69L344.412 393.487L347.933 398.765L353.213 397.006L363.775 404.043L365.536 412.84L358.495 416.359L351.453 414.599L344.412 419.878H342.651Z" fill="#D18847" fill-opacity="0.5" stroke="#0000FF" stroke-opacity="0.4" stroke-linecap="round" stroke-linejoin="round"/>
<g id="3612" class="district" name="Nông Cống">
<path id="Vector_3" fill-rule="evenodd" clip-rule="evenodd" d="M418.344 398.765L398.981 407.562L393.701 402.284L397.22 400.524V397.006L409.543 395.247L411.303 382.931L406.022 384.69L398.981 375.894L402.502 370.615L398.981 367.096L400.741 361.819L395.461 363.578V356.54H391.94L400.741 349.503L407.782 347.744L406.022 331.91L400.741 328.391V324.872L413.064 312.557H416.584L427.146 323.113L428.906 321.354L432.427 328.391L428.906 337.188L435.947 344.225L430.667 345.984V349.503L432.427 354.782L434.187 353.022V356.54L439.468 351.263V354.782L448.27 353.022V356.54H444.749L446.509 363.578L435.947 375.894H432.427L434.187 381.171H430.667L434.187 384.69L428.906 389.968L430.667 388.209L423.626 389.968L420.105 398.765H418.344Z" fill="#B7E830" fill-opacity="0.5"/>
<path id="Vector_4" d="M430.667 349.503V345.984L435.947 344.225L428.906 337.188L432.427 328.391L428.906 321.354L427.146 323.113L416.584 312.557H413.064L400.741 324.872V328.391L406.022 331.91L407.782 347.744L400.741 349.503L391.94 356.54H395.461V363.578L400.741 361.819L398.981 367.096L402.502 370.615L398.981 375.894L406.022 384.69L411.303 382.931L409.543 395.247L397.22 397.006V400.524L393.701 402.284L398.981 407.562L418.344 398.765H420.105L423.626 389.968L430.667 388.209L428.906 389.968L434.187 384.69L430.667 381.171H434.187L432.427 375.894H435.947L446.509 363.578L444.749 356.54H448.27V353.022L439.468 354.782V351.263L434.187 356.54V353.022L432.427 354.782L430.667 349.503ZM430.667 349.503H434.187" stroke="#0000FF" stroke-opacity="0.4" stroke-linecap="round" stroke-linejoin="round"/>
</g>
<path id="3611" class="district" name="Quan Hóa" fill-rule="evenodd" clip-rule="evenodd" d="M159.581 122.548L141.978 113.751L136.697 89.1204H133.176L129.656 96.1579H119.094L110.292 94.3985L112.053 90.8799L106.772 87.3611L110.292 82.0831H119.094L126.135 78.5644L133.176 69.7677L150.78 66.2491L159.581 59.2116L157.821 55.6929H161.34L157.821 48.6556L161.34 38.0995L147.259 31.0621L138.457 32.8214L136.697 18.7468L154.299 2.91264L168.383 1.15329L185.985 9.95L189.505 20.5061L196.547 29.3028V34.5808L201.828 32.8214L215.91 39.8589L221.191 32.8214H228.232L231.753 36.3401L229.993 38.0995L235.273 41.6182V45.1369L222.952 57.4523L242.314 87.3611L254.637 92.6392V104.955L261.677 110.233L254.637 117.269H247.596L240.555 111.992L242.314 110.233L235.273 103.195L233.513 104.955V101.436H226.472L217.67 111.992L205.349 110.233L201.828 115.511L194.787 110.233L191.266 119.029L180.704 117.269L177.184 119.029L175.423 124.307H163.101L159.581 122.548Z" fill="#49E830" fill-opacity="0.5" stroke="#0000FF" stroke-opacity="0.4" stroke-linecap="round" stroke-linejoin="round"/>
<path id="3610" class="district" name="Quan Sơn" fill-rule="evenodd" clip-rule="evenodd" d="M203.588 147.179V157.735L207.108 164.772L200.067 177.088V182.365L194.787 185.884L193.026 196.44H189.505V191.163H185.985L175.423 180.607L178.943 178.847L177.184 175.328L164.861 180.607H156.06L145.498 175.328L133.176 163.013L110.292 161.253L106.772 157.735L94.4495 155.976L92.6892 150.697H82.1274L76.8466 145.42V134.864L80.3671 127.825L78.6068 104.955L85.648 103.195L99.7305 92.6392L129.656 96.1579V92.6392L138.457 89.1204L141.978 113.751H145.498L150.78 120.788L166.622 126.067L173.663 124.307L180.704 117.269L189.505 119.029L194.787 110.233L201.828 115.511V111.992L207.108 110.233L217.67 111.992L226.472 99.6766L233.513 101.436V104.955L235.273 103.195L242.314 110.233V117.269L233.513 126.067L228.232 127.825L229.993 133.104L226.472 136.623H219.431L212.39 129.585L208.869 131.345L207.108 136.623L214.15 143.66L205.349 145.42L203.588 147.179Z" fill="#30E886" fill-opacity="0.5" stroke="#0000FF" stroke-opacity="0.4" stroke-linecap="round" stroke-linejoin="round"/>
<g id="3609" class="district" name="Quảng Xương">
<path id="Vector_5" fill-rule="evenodd" clip-rule="evenodd" d="M465.873 358.3L462.352 374.134V360.059H458.832L457.071 367.096H453.55L444.749 361.819V358.3H448.27V353.022L439.468 354.782V351.263L434.187 356.54V353.022L432.427 354.782L430.667 349.503V345.984L437.708 344.225L434.187 340.707L432.427 342.466V328.391L428.906 324.872V319.595H437.708L455.311 312.557L462.352 314.316L464.112 323.113L469.394 324.872L472.914 331.91L465.873 356.54V358.3Z" fill="#30DCE8" fill-opacity="0.5"/>
<path id="Vector_6" d="M430.667 349.503L432.427 354.782L434.187 353.022V356.54L439.468 351.263V354.782L448.27 353.022V358.3H444.749V361.819L453.55 367.096H457.071L458.832 360.059H462.352V374.134L465.873 358.3V356.54L472.914 331.91L469.394 324.872L464.112 323.113L462.352 314.316L455.311 312.557L437.708 319.595H428.906V324.872L432.427 328.391V342.466L434.187 340.707L437.708 344.225L430.667 345.984V349.503ZM430.667 349.503H434.187" stroke="#0000FF" stroke-opacity="0.4" stroke-linecap="round" stroke-linejoin="round"/>
</g>
<path id="3608" class="district" name="Thạch Thành" fill-rule="evenodd" clip-rule="evenodd" d="M428.906 215.793L423.626 212.275H414.824L420.105 206.996L416.584 199.959L418.344 198.2L414.824 194.681H407.782L404.262 198.2L395.461 192.921L391.94 187.644L393.701 180.607L386.66 170.051V163.013L379.617 157.735V154.216L365.536 152.457L367.296 143.66L335.61 115.511L339.131 110.233L332.09 101.436L340.892 97.9172L362.015 106.714H369.057V103.195H372.577L383.139 122.548H391.94L397.22 127.827V131.345L413.064 138.383L425.385 155.976L439.468 166.532L448.27 168.291L462.352 177.088L455.311 180.607V189.403L448.27 199.959L450.03 201.719H444.749V205.237L434.187 212.275V217.552L432.427 215.793H428.906Z" fill="#306EE8" fill-opacity="0.5" stroke="#0000FF" stroke-opacity="0.4" stroke-linecap="round" stroke-linejoin="round"/>
<path id="3607" class="district" name="Thiệu Hóa" fill-rule="evenodd" clip-rule="evenodd" d="M395.461 277.371L388.419 265.055L391.94 261.536L390.179 256.258L397.22 243.943L404.262 252.739L407.782 249.22H425.385L428.906 252.739H441.229L444.749 245.702V270.333L437.708 268.573L432.427 277.371L441.229 279.129V282.648H434.187L428.906 277.371H421.865L420.105 284.408L402.502 275.611L397.22 277.371H395.461Z" fill="#6130E8" fill-opacity="0.5" stroke="#0000FF" stroke-opacity="0.4" stroke-linecap="round" stroke-linejoin="round"/>
<path id="3606" class="district" name="Thọ Xuân" fill-rule="evenodd" clip-rule="evenodd" d="M344.412 284.408L339.131 293.204L332.09 291.445L330.33 284.408L325.048 280.889L330.33 273.852L321.528 265.055V254.499H328.569L342.651 242.183L333.85 233.387L335.61 228.108L339.131 231.627L344.412 229.868L347.933 233.387H354.974L349.693 231.627V228.108L344.412 222.831H347.933L349.693 217.552L353.213 222.831L351.453 228.108L354.974 231.627L356.734 228.108L360.255 233.387L363.775 229.868H374.337V233.387L381.378 236.905L383.139 245.702V242.183H390.179L395.461 243.943V247.461L390.179 254.499L391.94 261.536L386.66 266.815H372.577L369.057 270.333L367.296 268.573L362.015 273.852L354.974 275.611L346.172 286.167L344.412 284.408Z" fill="#D030E8" fill-opacity="0.5" stroke="#0000FF" stroke-opacity="0.4" stroke-linecap="round" stroke-linejoin="round"/>
<path id="3605" class="district" name="Thường Xuân" fill-rule="evenodd" clip-rule="evenodd" d="M342.651 312.557H339.131L328.569 323.113H319.768L321.528 324.872L316.247 328.391L298.644 324.872L295.124 319.595L284.562 316.076L279.28 319.595L277.521 324.872H252.876L244.075 317.835L245.835 309.039L242.314 305.52V291.445L247.596 286.167L249.356 279.129L261.677 277.371L254.637 258.017L235.273 250.98H212.39L207.108 245.702L191.266 238.664L187.745 231.627H175.423L173.663 229.868L177.184 222.831L184.225 214.033H187.745L193.026 208.756L194.787 201.719L200.067 196.44L217.67 205.237L222.952 201.719L226.472 203.477L229.993 199.959L228.232 194.681L242.314 189.403L251.117 203.477L249.356 206.996L254.637 210.515V224.59L265.199 226.349L272.239 222.831L282.801 228.108H291.603L289.842 229.868L300.404 247.461L309.206 249.22L312.727 256.258L318.007 254.499L323.289 259.777L321.528 265.055L330.33 273.852L325.048 280.889L332.09 286.167V289.686L339.131 291.445V300.242H342.651L346.172 309.039L344.412 316.076L342.651 312.557Z" fill="#E83092" fill-opacity="0.5" stroke="#0000FF" stroke-opacity="0.4" stroke-linecap="round" stroke-linejoin="round"/>
<g id="3604" class="district" name="Tĩnh Gia">
<path id="Vector_7" fill-rule="evenodd" clip-rule="evenodd" d="M499.318 439.23L502.839 442.748L499.318 448.027L494.038 442.748V439.23H499.318ZM465.873 453.304L464.112 465.62V453.304H465.873ZM462.352 458.583L464.112 462.102L458.832 472.658L457.071 467.379L448.27 470.898L442.988 465.62L441.229 467.379L439.468 460.342L428.906 467.379H423.626L416.584 460.342H413.064L414.823 453.304H411.303V449.786H407.782L406.022 444.508H402.502L413.064 433.952L407.782 426.915L411.303 425.155V414.599L407.782 411.08L411.303 405.803L418.344 398.765H421.865L420.105 397.006L423.626 389.968L434.187 386.45L430.667 381.171H434.187L432.427 375.894H435.947L444.749 363.578L448.27 367.096L450.03 363.578L457.071 367.096L460.591 360.059L464.112 363.578L460.591 368.856L462.352 425.155L460.591 423.396L455.311 426.915L453.55 442.748L457.071 453.304L462.352 458.583Z" fill="#E83D30" fill-opacity="0.5"/>
<path id="Vector_8" d="M492.277 460.342H494.038M499.318 448.027L502.839 442.748L499.318 439.23H494.038V442.748L499.318 448.027ZM499.318 448.027V451.546M492.277 453.304H488.756M465.873 453.304L464.112 465.62V453.304H465.873ZM462.352 458.583L464.112 462.102L458.832 472.658L457.071 467.379L448.27 470.898L442.988 465.62L441.229 467.379L439.468 460.342L428.906 467.379H423.626L416.584 460.342H413.064L414.823 453.304H411.303V449.786H407.782L406.022 444.508H402.502L413.064 433.952L407.782 426.915L411.303 425.155V414.599L407.782 411.08L411.303 405.803L418.344 398.765H421.865L420.105 397.006L423.626 389.968L434.187 386.45L430.667 381.171H434.187L432.427 375.894H435.947L444.749 363.578L448.27 367.096L450.03 363.578L457.071 367.096L460.591 360.059L464.112 363.578L460.591 368.856L462.352 425.155L460.591 423.396L455.311 426.915L453.55 442.748L457.071 453.304L462.352 458.583Z" stroke="#0000FF" stroke-opacity="0.4" stroke-linecap="round" stroke-linejoin="round"/>
</g>
<g id="3603" class="district" name="Triệu Sơn">
<path id="Vector_9" fill-rule="evenodd" clip-rule="evenodd" d="M367.296 314.316L370.816 309.039L363.775 303.76L369.057 302.001V294.964L363.775 300.242H340.892L337.371 293.204L342.651 284.408L346.172 286.167L351.454 280.889L353.213 275.611L354.974 277.371L365.536 268.573L367.296 270.333L372.577 266.815L377.858 270.333L386.66 266.815L390.179 270.333L391.94 268.573L395.461 277.371H409.543V287.927L414.824 296.723L413.064 298.483L416.584 302.001L421.865 300.242L428.906 307.279L421.865 316.076L413.064 312.557L400.741 324.872V328.391L381.378 316.076L388.419 309.039L386.66 300.242H381.378L369.057 314.316H367.296Z" fill="#D147AC" fill-opacity="0.5"/>
<path id="Vector_10" d="M377.858 270.333L372.577 266.815L367.296 270.333L365.536 268.573L354.974 277.371L353.213 275.611L351.454 280.889L346.172 286.167L342.651 284.408L337.371 293.204L340.892 300.242H363.775L369.057 294.964V302.001L363.775 303.76L370.816 309.039L367.296 314.316H369.057L381.378 300.242H386.66L388.419 309.039L381.378 316.076L400.741 328.391V324.872L413.064 312.557L421.865 316.076L428.906 307.279L421.865 300.242L416.584 302.001L413.064 298.483L414.824 296.723L409.543 287.927V277.371H395.461L391.94 268.573L390.179 270.333L386.66 266.815L377.858 270.333ZM377.858 270.333L376.098 268.573" stroke="#0000FF" stroke-opacity="0.4" stroke-linecap="round" stroke-linejoin="round"/>
</g>
<path id="3602" class="district" name="Vĩnh Lộc" fill-rule="evenodd" clip-rule="evenodd" d="M444.749 243.943L434.187 236.905V231.627L423.626 229.868L416.584 222.831L407.782 228.108L406.022 222.831L400.741 224.59L397.22 221.071H391.94L388.419 212.275L397.22 214.033V210.515L393.701 206.996H384.899L377.858 198.2L383.139 192.921H388.419L390.179 187.644L400.741 196.44L406.022 198.2L413.064 194.681L418.344 198.2L416.584 199.959L420.105 206.996H416.584L414.823 212.275H425.385L434.187 217.552L432.427 212.275H437.708L441.229 206.996L446.509 212.275V222.831L439.468 229.868L446.509 240.424L444.749 242.183V243.943Z" fill="#D1475A" fill-opacity="0.5" stroke="#0000FF" stroke-opacity="0.4" stroke-linecap="round" stroke-linejoin="round"/>
<path id="3601" class="district" name="Yên Định" fill-rule="evenodd" clip-rule="evenodd" d="M421.865 226.349L423.626 229.868L432.427 231.627L434.187 238.664L446.509 245.702L442.988 247.461L441.229 252.739H420.105L413.064 249.22L404.262 250.98L398.981 247.461V243.943L397.22 245.702L390.179 242.183H383.139V245.702L381.378 236.905L377.858 233.387L376.098 235.146L374.337 229.868H363.775L360.255 233.387L358.495 228.108L351.454 229.868L353.213 222.831L349.693 219.312L353.213 215.793H358.495L360.255 210.515V214.033L362.015 212.275L365.536 215.793L360.255 201.719L370.816 199.959L376.098 205.237L377.858 203.477L397.22 210.515V214.033L390.179 212.275V221.071L400.741 224.589L406.023 222.831L407.782 228.108L416.584 222.831L421.865 226.349Z" fill="#D18847" fill-opacity="0.5" stroke="#0000FF" stroke-opacity="0.4" stroke-linecap="round" stroke-linejoin="round"/>
</g>
</svg>
