<svg width="527" height="418" viewBox="0 0 527 418" fill="none" xmlns="http://www.w3.org/2000/svg">
<g id="37" name="Nghệ An">
<path id="3721" class="district" name="TP Vinh" fill-rule="evenodd" clip-rule="evenodd" d="M499.077 391.185L493.094 388.195H484.12L481.128 385.205V356.801L485.615 355.306L488.607 358.296L490.103 356.801L491.598 359.791L496.085 358.296V364.276L508.051 377.73L512.538 370.256L517.026 379.225L515.53 382.215H503.564L500.573 389.69L499.077 391.185Z" fill="#D147AC" fill-opacity="0.5" stroke="#0000FF" stroke-opacity="0.4" stroke-linecap="round" stroke-linejoin="round"/>
<g id="3720" class="district" name="Cửa Lò">
<path fill-rule="evenodd" clip-rule="evenodd" d="M509.547 359.791H506.556L503.564 353.811L505.06 352.316H502.068L497.581 346.336L500.573 341.851L494.59 338.861L496.085 337.366L502.068 335.871L506.556 346.336L515.53 356.801L511.043 358.296L509.547 359.791Z" fill="#D1475A" fill-opacity="0.5"/>
<path d="M518.521 343.346V344.841M509.547 359.791H506.556L503.564 353.811L505.06 352.316H502.068L497.581 346.336L500.573 341.851L494.59 338.861L496.085 337.366L502.068 335.871L506.556 346.336L515.53 356.801L511.043 358.296L509.547 359.791Z" stroke="#0000FF" stroke-opacity="0.4" stroke-linecap="round" stroke-linejoin="round"/>
</g>
<path id="3719" class="district" name="Hoàng Mai" fill-rule="evenodd" clip-rule="evenodd" d="M508.051 225.244L506.556 234.214L497.581 231.224L494.59 234.214L491.598 229.729L493.094 228.234L488.607 223.749L493.094 219.264L490.103 216.274L485.615 220.759L478.137 217.769L482.624 213.285L481.128 210.295H478.137V207.305L482.624 202.82H479.632L478.137 196.84L485.615 187.87L488.607 190.86L487.111 195.345H490.103L494.59 201.325H502.068L509.547 195.345V198.335L517.026 204.315L524.504 201.325L526 208.8H521.513L518.521 211.79L517.026 220.759L514.034 223.749V220.759L508.051 223.749V225.244Z" fill="#D18847" fill-opacity="0.5" stroke="#0000FF" stroke-opacity="0.4" stroke-linecap="round" stroke-linejoin="round"/>
<path id="3718" class="district" name="Thái Hòa" fill-rule="evenodd" clip-rule="evenodd" d="M451.214 214.78L452.709 216.274L449.718 222.254L445.231 220.759L448.222 217.769H445.231L442.239 213.285L434.761 214.78V210.295L433.265 217.769L428.778 211.79L424.291 214.78V217.769L421.299 211.79L416.812 214.78V211.79L412.325 207.305V210.295L404.846 213.285V216.274L401.855 214.78V208.8L406.342 205.81L407.838 199.83L412.325 198.335L418.308 183.385V186.375L419.803 187.87L422.795 184.88L427.282 192.355L425.786 193.85H431.769L433.265 198.335L436.256 195.345L439.248 198.335L440.744 196.84L449.718 199.83L452.709 205.81L451.214 211.79V214.78Z" fill="#B7E830" fill-opacity="0.5" stroke="#0000FF" stroke-opacity="0.4" stroke-linecap="round" stroke-linejoin="round"/>
<path id="3717" class="district" name="Anh Sơn" fill-rule="evenodd" clip-rule="evenodd" d="M283.692 347.831L289.675 334.376L285.188 329.892L288.179 323.912L300.145 326.902L303.137 322.417H313.607L310.615 320.922L307.624 311.952L300.145 304.477L301.641 302.982L297.154 295.507L298.65 292.518L289.675 291.023L291.171 283.548H288.179L286.684 280.558L288.179 276.073L279.205 274.578L282.197 270.093L295.658 274.578L304.632 270.093L309.12 261.123L307.624 259.628L315.103 250.659V243.184L325.573 241.689L322.581 244.679L325.573 252.154L319.59 258.133V264.113L322.581 270.093L331.556 268.598L325.573 282.053L330.06 286.538V291.023L331.556 292.518L337.538 288.033L352.496 295.507L359.974 294.012L367.453 288.033L374.932 302.982L373.436 307.467L370.444 308.962L376.427 311.952L373.436 316.437L362.966 319.427L359.974 322.417L351 323.912L349.504 320.922L345.017 325.407L328.564 323.912L318.094 337.366L315.103 331.387L312.111 335.871H309.12L291.171 356.801V353.811L283.692 347.831Z" fill="#49E830" fill-opacity="0.5" stroke="#0000FF" stroke-opacity="0.4" stroke-linecap="round" stroke-linejoin="round"/>
<path id="3716" class="district" name="Con Cuông" fill-rule="evenodd" clip-rule="evenodd" d="M289.675 289.528L292.667 292.518H297.154L301.641 302.982L300.145 304.477L309.12 313.447L307.624 316.437L313.607 322.417H303.137L300.145 326.902L292.667 323.912L286.684 325.407L285.188 329.892L289.675 334.376L283.692 346.336L280.701 349.326L267.239 352.316L264.248 349.326L253.778 350.821L247.795 344.841H235.829V341.851L231.342 340.356L228.35 334.376H217.88V331.387L213.393 326.902L207.41 325.407L202.923 317.932L201.427 319.427L192.453 314.942L183.479 301.487V295.507L178.991 292.518L187.966 283.548V280.558L195.444 282.053L207.41 276.073L208.906 277.568L216.385 268.598V265.608H219.376V262.618L231.342 250.659V238.699L235.829 229.729L241.812 226.739H244.803V229.729L253.778 226.739L265.744 228.234L268.735 217.769H271.726L273.222 213.285L277.709 214.78L280.701 211.79L279.205 201.325L298.65 189.365L300.145 186.375H304.632L307.624 190.86L303.137 192.355L306.128 199.83L300.145 211.79H303.137L304.632 216.274L300.145 225.244L306.128 232.719L310.615 231.224L318.094 235.709L319.59 240.194L315.103 241.689V250.659L307.624 259.628V268.598L295.658 274.578L286.684 270.093L280.701 271.588L279.205 274.578L288.179 277.568L286.684 279.063L289.675 288.033V289.528Z" fill="#30E886" fill-opacity="0.5" stroke="#0000FF" stroke-opacity="0.4" stroke-linecap="round" stroke-linejoin="round"/>
<path id="3715" class="district" name="Diễn Châu" fill-rule="evenodd" clip-rule="evenodd" d="M458.692 328.397H455.701L452.709 319.427L446.726 317.932L449.718 314.942V302.982L446.726 297.002L448.222 294.012H451.214L449.718 292.518H452.709L446.726 289.528V283.548L449.718 280.558L451.214 282.053L455.701 277.568V274.578H461.684L464.675 268.598L460.188 259.628L457.197 258.133V253.649H451.214L452.709 252.154H449.718V249.164L442.239 243.184L446.726 238.699L449.718 240.194L457.197 235.709L455.701 238.699L460.188 243.184V246.174L473.65 256.638L484.12 258.133L482.624 259.628L485.615 262.618L479.632 271.588L475.145 291.023L476.641 305.972L481.128 317.932L475.145 322.417L473.65 320.922L472.154 326.902L458.692 328.397Z" fill="#30DCE8" fill-opacity="0.5" stroke="#0000FF" stroke-opacity="0.4" stroke-linecap="round" stroke-linejoin="round"/>
<path id="3714" class="district" name="Đô Lương" fill-rule="evenodd" clip-rule="evenodd" d="M424.291 347.831L415.316 352.316L413.82 350.821L416.812 349.326L401.855 331.387L400.359 335.871H385.402L382.41 329.892H388.393L386.897 320.922L379.419 319.427L370.444 325.407L365.957 320.922L367.453 317.932L374.932 316.437L376.427 313.447L370.444 308.962L374.932 302.982L368.949 295.507V289.528L370.444 286.538L374.932 285.043V282.053H380.915L388.393 274.578L391.385 276.073L392.88 285.043L389.889 286.538L391.385 289.528L388.393 291.023V294.013L394.376 292.518L392.88 294.013L395.872 297.002L404.846 299.992L403.35 304.477L406.342 310.457L412.325 313.447L413.82 317.932H427.282L437.752 323.912L434.761 341.851V347.831L437.752 352.316H431.769L424.291 347.831Z" fill="#306EE8" fill-opacity="0.5" stroke="#0000FF" stroke-opacity="0.4" stroke-linecap="round" stroke-linejoin="round"/>
<path id="3713" class="district" name="Hưng Nguyên" fill-rule="evenodd" clip-rule="evenodd" d="M475.145 409.125L473.65 403.145L466.171 395.67H458.692V392.68L464.675 386.7V389.69L469.162 394.175L473.65 392.68L470.658 389.69L472.154 388.195L467.667 386.7V383.71L472.154 380.72V371.75L463.179 368.761L458.692 361.286V358.296H461.684L469.162 344.841V347.831L472.154 344.841L475.145 347.831L473.65 359.791L478.137 368.761L481.128 370.256V385.205L484.12 388.195L485.615 386.7L493.094 389.69V386.7L496.085 391.185H499.077L494.59 397.165L491.598 409.125L487.111 407.63L479.632 413.609V410.619H475.145V409.125Z" fill="#6130E8" fill-opacity="0.5" stroke="#0000FF" stroke-opacity="0.4" stroke-linecap="round" stroke-linejoin="round"/>
<path id="3712" class="district" name="Kỳ Sơn" fill-rule="evenodd" clip-rule="evenodd" d="M119.162 250.659L117.667 255.143H96.7265L92.2393 252.154L95.2308 250.659L93.735 249.164L96.7265 243.184L89.2479 241.689L84.7607 231.224H75.7863L72.7949 228.234L69.8034 229.729L66.812 223.749L62.3248 226.739L59.3333 220.759L53.3504 216.274L50.359 219.264L45.8718 217.769L33.906 220.759L23.4359 214.78L11.4701 202.82V199.83L6.98291 198.335L3.99145 201.325L1 198.335V195.345L5.48718 192.355L15.9573 189.365L24.9316 180.395L23.4359 178.9L32.4103 171.426H38.3932L48.8632 165.446L51.8547 168.436L54.8461 163.951V157.971H51.8547L57.8376 153.486L60.8291 147.506H65.3162L68.3077 143.021L63.8205 138.536L65.3162 132.557L62.3248 122.092L57.8376 120.597L51.8547 111.627L53.3504 104.152L50.359 101.162L54.8461 92.1927L60.8291 96.6776L71.2991 98.1725L77.282 93.6876L78.7778 87.7078L83.2649 89.2027L90.7436 87.7078L93.735 84.7179H105.701L108.692 87.7078L116.171 86.2128L122.154 90.6977L120.658 95.1826L131.128 87.7078H144.59V84.7179H147.581L150.573 86.2128L149.077 90.6977L156.556 95.1826V98.1725L146.085 110.132L144.59 108.637L138.607 111.627L141.598 114.617V119.102L152.068 128.072V131.062L143.094 135.547V138.536L144.59 141.526L153.564 144.516L152.068 146.011L158.051 156.476L155.06 165.446V175.911L153.564 178.9H144.59L138.607 181.89L135.615 180.395V175.911L131.128 169.931V190.86L123.65 198.335V201.325L113.179 205.81L111.684 213.285L107.197 219.264L108.692 226.739L119.162 229.729L125.145 235.709L126.641 238.699L123.65 246.174L119.162 250.659Z" fill="#D030E8" fill-opacity="0.5" stroke="#0000FF" stroke-opacity="0.4" stroke-linecap="round" stroke-linejoin="round"/>
<path id="3711" class="district" name="Nam Đàn" fill-rule="evenodd" clip-rule="evenodd" d="M466.171 413.609L455.701 416.599L451.214 413.609L448.222 403.145L442.239 398.66V391.185L427.282 379.225L428.778 376.235L434.761 374.74V371.751H427.282V364.276L418.308 361.286V350.821L425.786 347.831L442.239 355.306L458.692 358.296L461.684 367.266L472.154 371.751V380.72L467.667 382.215L466.171 386.7H469.162L473.65 392.68L469.162 394.175L464.675 389.69V386.7L458.692 392.68V395.67H464.675L475.145 404.64V407.63L467.667 410.62L466.171 413.609Z" fill="#E83092" fill-opacity="0.5" stroke="#0000FF" stroke-opacity="0.4" stroke-linecap="round" stroke-linejoin="round"/>
<path id="3710" class="district" name="Nghi Lộc" fill-rule="evenodd" clip-rule="evenodd" d="M515.53 332.882H512.538H517.026H515.53ZM446.726 355.306H442.239L434.761 349.326L437.752 322.417L442.239 320.922V317.932H448.222L452.709 320.922L455.701 328.397H461.684L473.65 325.407V322.417L481.128 317.932L485.615 320.922L487.111 319.427L491.598 323.912H494.59L500.573 331.387H503.564V335.871L494.59 338.861L500.573 341.851L497.581 347.831L500.573 352.316L502.068 350.821L505.06 353.811L506.556 359.791H509.547L512.538 370.256L508.051 377.73L496.085 364.276V358.296L491.598 359.791L490.103 356.801L488.607 358.296L485.615 355.306L481.128 356.801L482.624 362.781L478.137 368.761L473.65 361.286V344.841H470.658V347.831L467.667 344.841L466.171 346.336L461.684 358.296H452.709L446.726 355.306Z" fill="#E83D30" fill-opacity="0.5" stroke="#0000FF" stroke-opacity="0.4" stroke-linecap="round" stroke-linejoin="round"/>
<path id="3709" class="district" name="Nghĩa Đàn" fill-rule="evenodd" clip-rule="evenodd" d="M460.188 192.355L458.692 196.84L461.684 199.83L454.205 201.325L451.214 204.315L449.718 199.83L442.239 196.84L439.248 198.335L436.256 195.345L433.265 198.335L431.769 193.85H425.786L427.282 192.355L422.795 184.88L419.803 187.87L418.308 183.385L415.316 186.375L416.812 187.87L412.325 198.335L407.838 199.83V205.81L401.855 207.305L400.359 214.78L403.35 216.274L406.342 211.79L407.838 213.285V210.295L413.821 207.305L416.812 213.285H419.803L421.299 210.295L424.291 217.769L427.282 211.79L433.265 217.769L434.761 210.295L433.265 211.79L436.256 214.78H442.239L446.726 217.769L442.239 226.739H439.248L425.786 238.699L412.325 229.729L404.846 231.224L406.342 229.729H403.35L404.846 228.234L401.855 226.739L397.368 228.234V225.244H391.385V217.769L398.863 211.79L395.872 205.81L398.863 195.345L394.376 190.86L395.872 189.365L388.393 186.375L395.872 177.405L389.889 165.446L391.385 162.456L388.393 159.466L389.889 154.981L386.897 149.001L388.393 150.496V147.506H391.385V144.516L401.855 131.062L406.342 137.042L404.846 141.526L413.821 151.991L415.316 157.971L425.786 156.476L427.282 160.961L433.265 156.476L440.744 157.971L449.718 153.486L467.667 180.395V186.375L460.188 192.355Z" fill="#D147AC" fill-opacity="0.5" stroke="#0000FF" stroke-opacity="0.4" stroke-linecap="round" stroke-linejoin="round"/>
<path id="3708" class="district" name="Quế Phong" fill-rule="evenodd" clip-rule="evenodd" d="M249.291 165.446L241.812 156.476L232.838 157.971L231.342 154.981H228.35L225.359 150.496L223.863 134.052L219.376 129.567V126.577H216.385V123.587L207.41 117.607L205.915 110.132L211.897 107.142L213.393 104.152L210.402 99.6675L214.889 98.1725L217.88 90.6977L214.889 86.2128H217.88L231.342 69.7682L240.316 71.2632L244.803 66.7783L243.308 63.7884L250.786 60.7985L258.265 62.2934L262.752 57.8085V48.8388L265.744 44.3539L261.256 41.364L265.744 39.869L267.239 36.8791L264.248 33.8892V27.9093L267.239 24.9194L264.248 23.4244V20.4345L270.231 14.4547L277.709 12.9597L285.188 1L295.658 2.49496L298.65 6.97985L312.111 12.9597L316.598 17.4446H336.043L343.521 21.9295L352.496 23.4244L358.479 38.374L356.983 41.364L346.513 42.8589L342.026 56.3136V63.7884L345.017 66.7783L343.521 74.2531L330.06 72.7582L325.573 80.233L315.103 78.738L312.111 86.2128L306.128 87.7078L304.632 96.6776L307.624 101.162L304.632 104.152V108.637L309.12 113.122L301.641 119.102L300.145 117.607V123.587L304.632 129.567L309.12 131.062L304.632 132.557L306.128 135.547H303.137L300.145 140.031L301.641 141.526L295.658 143.021L289.675 151.991H283.692L270.231 163.951L258.265 168.436L252.282 163.951L250.786 165.446H249.291Z" fill="#D1475A" fill-opacity="0.5" stroke="#0000FF" stroke-opacity="0.4" stroke-linecap="round" stroke-linejoin="round"/>
<path id="3707" class="district" name="Quỳ Châu" fill-rule="evenodd" clip-rule="evenodd" d="M353.991 163.951L345.017 154.981V151.991L340.53 150.496L339.034 157.971L327.068 162.456L319.59 160.961L316.598 165.446L313.607 163.951L307.624 178.9L301.641 186.375L288.179 195.345L258.265 169.931L259.761 166.941L279.205 157.971L282.197 151.991H289.675L295.658 144.516L301.641 141.526L300.145 140.031L303.137 135.547L309.12 132.557L300.145 123.587V117.607L301.641 119.102L309.12 113.122L304.632 110.132V105.647L307.624 102.657L304.632 96.6775L306.128 87.7078H312.111L315.103 80.233H324.077L328.564 77.243L330.06 72.7582H342.026L348.009 77.243L351 80.233V90.6977L361.47 95.1826L367.453 101.162L373.436 98.1725L383.906 114.617V125.082L380.915 128.072L382.41 129.567L379.419 135.547L382.41 138.536V144.516L386.897 147.506L388.393 151.991L385.402 154.981L379.419 151.991L370.444 154.981V151.991H367.453L355.487 165.446L353.991 163.951Z" fill="#D18847" fill-opacity="0.5" stroke="#0000FF" stroke-opacity="0.4" stroke-linecap="round" stroke-linejoin="round"/>
<path id="3706" class="district" name="Quỳ Hợp" fill-rule="evenodd" clip-rule="evenodd" d="M371.94 226.739L358.479 222.254L345.017 223.749L343.521 231.224L333.051 234.214L325.573 241.689H319.59L318.094 235.709L312.111 231.224L307.624 232.719L303.137 229.729L300.145 222.254H303.137L306.128 216.274L301.641 211.79V205.81L306.128 201.325L303.137 193.85L307.624 189.365L301.641 186.375L309.12 175.911V171.426L313.607 163.951L316.598 165.446L319.59 160.961L325.573 162.456L336.043 159.466L340.53 151.991H345.017V154.981L355.487 165.446L368.949 151.991L376.427 153.486L379.419 150.496L382.41 154.981H389.889V166.941L392.88 168.436L391.385 169.931L395.872 177.405L394.376 181.89H391.385L388.393 186.375L394.376 189.365L395.872 187.87L398.863 195.345L395.872 205.81L398.863 211.79L395.872 216.274L389.889 219.264V229.729L380.914 231.224L373.436 226.739H371.94Z" fill="#B7E830" fill-opacity="0.5" stroke="#0000FF" stroke-opacity="0.4" stroke-linecap="round" stroke-linejoin="round"/>
<path id="3705" class="district" name="Quỳnh Lưu" fill-rule="evenodd" clip-rule="evenodd" d="M499.077 262.618L494.59 264.113L491.598 259.628L485.615 262.618L482.624 259.628L484.12 258.133H478.137L463.179 247.669H460.188L455.701 238.699L457.197 235.709H454.205L449.718 240.194L446.726 238.699L433.265 249.164L425.786 241.689V238.699L433.265 234.214L439.248 226.739L451.214 220.759V205.81L454.205 201.325L461.684 199.83L458.692 193.85L464.675 190.86L463.179 189.365L467.667 186.375V180.395L472.154 181.89L476.641 177.406L478.137 181.89H481.128V184.88L485.615 186.375L479.632 193.85L481.128 195.345L478.137 196.84L479.632 202.82H482.624L478.137 207.305V210.295H481.128L482.624 213.285L478.137 217.769L487.111 220.759L490.103 216.275L493.094 219.264L488.607 223.749L493.094 228.234L491.598 229.729L494.59 232.719L500.573 231.224L506.556 234.214L505.06 249.164L508.051 256.638L499.077 261.123V262.618Z" fill="#49E830" fill-opacity="0.5" stroke="#0000FF" stroke-opacity="0.4" stroke-linecap="round" stroke-linejoin="round"/>
<path id="3704" class="district" name="Tân Kỳ" fill-rule="evenodd" clip-rule="evenodd" d="M377.923 282.053H374.932V285.043L362.966 292.518L361.47 291.023L352.496 295.507L337.538 288.033L331.556 292.518V286.538L325.573 283.548L331.556 268.598L321.085 270.093L319.59 258.133L325.573 252.154L322.581 244.679L334.547 232.719H340.53L345.017 229.729V223.749H365.957L380.914 232.719L382.41 229.729H389.889L391.385 225.244H397.367V228.234L401.855 225.244L404.846 228.234L403.35 229.729H406.342L404.846 231.224L410.829 229.729L425.786 238.699L410.829 253.649H407.838L413.82 256.638L412.325 262.618L407.838 267.103L394.376 270.093L379.419 282.053H377.923Z" fill="#30E886" fill-opacity="0.5" stroke="#0000FF" stroke-opacity="0.4" stroke-linecap="round" stroke-linejoin="round"/>
<path id="3703" class="district" name="Thanh Chương" fill-rule="evenodd" clip-rule="evenodd" d="M427.282 377.73L442.239 391.185L443.735 400.155L436.256 398.66L434.761 401.65H428.778L422.795 407.63L421.299 406.135L404.846 409.125L394.376 401.65H389.889V398.66L383.906 395.67L367.453 404.64L358.479 403.145L361.47 391.185L343.521 377.73L346.513 373.245L343.521 370.256L334.547 373.245H321.085L324.077 367.266L313.607 365.771V359.791L312.111 362.781L310.615 361.286L306.128 364.276L304.632 361.286L291.171 362.781L289.675 358.296L316.598 331.387L318.094 337.366V334.376L328.564 323.912L345.017 325.407L349.504 322.417L356.983 323.912L365.957 319.427L370.444 325.407L374.932 323.912V320.922L377.923 319.427H386.897L388.393 328.397L382.41 329.892V332.882L389.889 337.366L392.88 334.376L400.359 335.871L403.35 331.387L409.333 341.851L415.316 346.336L416.812 349.326L413.82 350.821H416.812L419.803 356.801L418.308 361.286L427.282 364.276L425.786 371.751L434.761 373.245L428.778 376.235L427.282 377.73Z" fill="#30DCE8" fill-opacity="0.5" stroke="#0000FF" stroke-opacity="0.4" stroke-linecap="round" stroke-linejoin="round"/>
<path id="3702" class="district" name="Tương Dương" fill-rule="evenodd" clip-rule="evenodd" d="M208.906 277.568L207.41 276.073L196.94 282.053L189.462 280.558L176 294.013L170.017 286.538L158.051 292.518L141.598 270.093L125.145 265.608L117.667 261.123L116.171 255.143L126.641 238.699L116.171 228.234L108.692 226.739L107.197 217.769H110.188L113.179 207.305L119.162 201.325H123.65V198.335L131.128 190.86L132.624 178.9L129.632 172.921L132.624 169.931L138.607 181.89L143.094 178.9L146.085 181.89L155.06 177.405V165.446L158.051 156.476L152.068 146.011L153.564 144.516L143.094 140.031L144.59 134.052L152.068 129.567L150.573 125.082L141.598 119.102L143.094 114.617L138.607 111.627L144.59 108.637L146.085 110.132L156.556 98.1725L161.043 101.162L170.017 99.6675L171.513 105.647L177.496 111.627H189.462L192.453 107.142L196.94 105.647L205.915 107.142L207.41 117.607L213.393 120.597L223.863 134.052V144.516L228.35 154.981H231.342L232.838 157.971L241.812 156.476L250.786 165.446L252.282 163.951L262.752 174.416H265.744V177.405L270.231 181.89H273.222L279.205 189.365H283.692L288.179 195.345L279.205 201.325L280.701 211.79L277.709 214.78L273.222 213.285L271.726 217.769L267.239 219.264L265.744 226.739H253.778L249.291 229.729L241.812 226.739L234.333 231.224L229.846 246.174L231.342 250.659L223.863 256.638L219.376 265.608H216.385V268.598L208.906 276.073V277.568Z" fill="#306EE8" fill-opacity="0.5" stroke="#0000FF" stroke-opacity="0.4" stroke-linecap="round" stroke-linejoin="round"/>
<path id="3701" class="district" name="Yên Thành" fill-rule="evenodd" clip-rule="evenodd" d="M437.752 322.417L428.778 317.932H413.821L412.325 313.447L406.342 310.457L403.35 304.477L404.846 299.992L394.376 297.002V292.518L391.385 291.023L388.393 294.013L391.385 289.528L389.889 286.538L392.88 285.043V279.063L388.393 273.083L407.838 267.103L413.821 258.133V255.144H407.838L425.786 240.194L433.265 249.164L442.239 241.689L449.718 249.164V252.154H452.709L451.214 253.649H457.197L455.701 255.144L458.692 256.638L457.197 258.133H460.188V264.113H463.179L464.675 268.598L461.684 274.578H455.701L451.214 283.548L448.222 280.558L446.726 282.053V288.033L452.709 291.023L449.718 292.518V295.507H446.726L449.718 302.982V307.467L446.726 310.457L449.718 311.952V314.942L439.248 320.922L437.752 322.417Z" fill="#6130E8" fill-opacity="0.5" stroke="#0000FF" stroke-opacity="0.4" stroke-linecap="round" stroke-linejoin="round"/>
</g>
</svg>
