<svg width="668" height="448" viewBox="0 0 668 448" fill="none" xmlns="http://www.w3.org/2000/svg">
<g id="38" name="Hà Tĩnh">
<path id="3813" class="district" name="TP Hà Tĩnh" fill-rule="evenodd" clip-rule="evenodd" d="M396.522 248.055L392.619 249.356L387.415 246.755L379.608 249.356L380.909 244.155L379.608 241.554H377.006L378.307 240.254L365.297 238.953L360.093 233.752V229.851L361.394 231.152L365.297 227.251L362.695 222.05L363.996 220.749L361.394 219.449L366.598 214.248L363.996 211.647L365.297 209.047L379.608 202.545L380.909 206.446L388.716 205.146L393.92 209.047L392.619 215.548L395.221 219.449L392.619 223.35L396.522 225.95H391.318L387.415 231.152L390.017 235.052L393.92 236.353V238.953L399.124 240.254L397.823 244.155L396.522 248.055Z" fill="#D147AC" fill-opacity="0.5" stroke="#0000FF" stroke-opacity="0.4" stroke-linecap="round" stroke-linejoin="round"/>
<path id="3812" class="district" name="Hồng Lĩnh" fill-rule="evenodd" clip-rule="evenodd" d="M283.33 159.636L279.427 157.035V154.434L275.524 155.735V151.834L272.922 150.534L274.223 142.732L278.126 141.431L276.825 138.831L274.223 136.23L272.922 138.831L270.319 134.93L266.416 133.63L269.018 128.429H266.416L265.115 125.828L270.319 112.825L271.62 116.726L278.126 120.627H285.932L288.534 123.227L289.835 119.327H293.738V124.528L291.136 127.128L293.738 131.029L301.545 129.729L302.846 127.128H306.749V124.528L314.555 128.429L305.448 138.831L306.749 147.933L304.147 154.434L296.341 158.335H289.835L287.233 154.434L283.33 159.636Z" fill="#D1475A" fill-opacity="0.5" stroke="#0000FF" stroke-opacity="0.4" stroke-linecap="round" stroke-linejoin="round"/>
<g id="3811" class="district" name="Kỳ Anh">
<path fill-rule="evenodd" clip-rule="evenodd" d="M645.025 349.478V352.079L639.82 353.379L643.724 349.478H645.025ZM667.143 422.294H658.035L652.831 426.195L647.627 424.895L638.519 427.496L635.917 426.195V418.394L632.014 415.793L625.509 417.093L615.1 411.892L596.885 406.691L590.38 407.991L577.37 404.09L564.359 405.391L557.854 417.093L553.95 414.493L556.553 413.192L547.445 409.292L546.144 401.49L548.746 387.187L552.649 378.085L555.252 376.784L559.155 365.082L564.359 361.181L566.961 365.082L570.864 359.88L574.767 357.28L578.671 359.88V357.28H581.273L582.574 354.679L578.671 353.379V350.778L570.864 345.577L573.466 340.376L570.864 335.175L559.155 337.776L564.359 327.373H568.262L570.864 324.773L573.466 326.073L596.885 349.478H605.993L609.896 353.379L619.003 352.079V346.878L622.907 340.376H625.509V342.977L632.014 341.676L625.509 349.478V355.98L634.616 380.685L642.423 394.988L660.637 419.694L665.842 420.994L667.143 422.294Z" fill="#D18847" fill-opacity="0.5"/>
<path d="M658.035 344.277H656.734M645.025 349.478V352.079L639.82 353.379L643.724 349.478H645.025ZM667.143 422.294H658.035L652.831 426.195L647.627 424.895L638.519 427.496L635.917 426.195V418.394L632.014 415.793L625.509 417.093L615.1 411.892L596.885 406.691L590.38 407.991L577.37 404.09L564.359 405.391L557.854 417.093L553.95 414.493L556.553 413.192L547.445 409.292L546.144 401.49L548.746 387.187L552.649 378.085L555.252 376.784L559.155 365.082L564.359 361.181L566.961 365.082L570.864 359.88L574.767 357.28L578.671 359.88V357.28H581.273L582.574 354.679L578.671 353.379V350.778L570.864 345.577L573.466 340.376L570.864 335.175L559.155 337.776L564.359 327.373H568.262L570.864 324.773L573.466 326.073L596.885 349.478H605.993L609.896 353.379L619.003 352.079V346.878L622.907 340.376H625.509V342.977L632.014 341.676L625.509 349.478V355.98L634.616 380.685L642.423 394.988L660.637 419.694L665.842 420.994L667.143 422.294Z" stroke="#0000FF" stroke-opacity="0.4" stroke-linecap="round" stroke-linejoin="round"/>
<path fill-rule="evenodd" clip-rule="evenodd" d="M509.714 443.099L507.112 445.7L470.683 436.598H462.876L447.264 428.796L449.866 418.394L460.274 407.991L462.876 409.292L449.866 391.087H436.855L432.952 387.187V379.385L434.253 380.685L436.855 378.085L438.156 372.883H435.554L439.457 367.682L438.156 366.382H440.758L444.661 362.481V358.58L447.264 355.98L460.274 353.379L461.575 348.178L468.081 341.676L471.984 344.277L475.887 341.676L487.596 344.277L494.102 328.673L491.5 323.472V307.869L486.295 301.367L487.596 298.767H484.994V296.166L488.897 293.566L484.994 288.364L495.403 280.563L494.102 276.662L498.005 274.061V268.86L505.811 271.461L517.521 279.262L521.424 284.464L534.435 290.965L537.037 294.866L540.94 293.566L546.144 296.166L557.854 311.77L570.864 324.773L568.262 327.373H564.359L563.058 331.274L559.155 333.875V337.776L570.864 335.175L573.466 340.376L570.864 345.577L574.767 349.478H577.37L578.671 353.379L582.574 354.679L581.273 357.28H578.671V359.88H576.069L574.767 357.28L570.864 359.88L568.262 365.082L564.359 361.181H561.757L555.252 376.784L552.649 378.085L551.348 385.886L548.746 387.187L546.144 406.691L547.445 409.292L553.95 411.892V414.493L557.854 415.793L556.553 417.093L560.456 414.493L564.359 405.391L577.37 404.09L586.477 406.691L581.273 413.192L578.671 420.994L569.563 422.294L565.66 430.096L561.757 432.697V435.297L560.456 433.997L563.058 441.799L560.456 447L556.553 443.099L551.348 445.7L539.639 437.898L524.026 439.198L520.123 444.399L517.521 443.099V440.499L512.317 441.799L509.714 443.099Z" fill="#6130E8" fill-opacity="0.5"/>
<path d="M505.811 249.356V248.055M504.51 248.055L503.209 246.755M509.714 443.099L507.112 445.7L470.683 436.598H462.876L447.264 428.796L449.866 418.394L460.274 407.991L462.876 409.292L449.866 391.087H436.855L432.952 387.187V379.385L434.253 380.685L436.855 378.085L438.156 372.883H435.554L439.457 367.682L438.156 366.382H440.758L444.661 362.481V358.58L447.264 355.98L460.274 353.379L461.575 348.178L468.081 341.676L471.984 344.277L475.887 341.676L487.596 344.277L494.102 328.673L491.5 323.472V307.869L486.295 301.367L487.596 298.767H484.994V296.166L488.897 293.566L484.994 288.364L495.403 280.563L494.102 276.662L498.005 274.061V268.86L505.811 271.461L517.521 279.262L521.424 284.464L534.435 290.965L537.037 294.866L540.94 293.566L546.144 296.166L557.854 311.77L570.864 324.773L568.262 327.373H564.359L563.058 331.274L559.155 333.875V337.776L570.864 335.175L573.466 340.376L570.864 345.577L574.767 349.478H577.37L578.671 353.379L582.574 354.679L581.273 357.28H578.671V359.88H576.069L574.767 357.28L570.864 359.88L568.262 365.082L564.359 361.181H561.757L555.252 376.784L552.649 378.085L551.348 385.886L548.746 387.187L546.144 406.691L547.445 409.292L553.95 411.892V414.493L557.854 415.793L556.553 417.093L560.456 414.493L564.359 405.391L577.37 404.09L586.477 406.691L581.273 413.192L578.671 420.994L569.563 422.294L565.66 430.096L561.757 432.697V435.297L560.456 433.997L563.058 441.799L560.456 447L556.553 443.099L551.348 445.7L539.639 437.898L524.026 439.198L520.123 444.399L517.521 443.099V440.499L512.317 441.799L509.714 443.099Z" stroke="#0000FF" stroke-opacity="0.4" stroke-linecap="round" stroke-linejoin="round"/>
</g>
<path id="3810" class="district" name="Cẩm Xuyên" fill-rule="evenodd" clip-rule="evenodd" d="M486.295 298.767L491.5 307.869V323.472L494.102 328.673L488.897 341.676L484.994 344.277L478.489 341.676L473.285 344.277L468.081 341.676L464.177 344.277L460.274 353.379L445.962 357.28L444.661 362.481L440.758 366.382L439.457 365.082V367.682L435.554 371.583L436.855 378.085L434.253 380.685L432.952 379.385V385.886L418.64 370.283L410.834 375.484L408.232 372.883L403.028 374.184L395.221 358.58L380.909 342.977L373.103 337.776V335.175L369.2 332.574H365.297L362.695 335.175L357.49 332.574V328.673L361.394 324.773L358.791 316.971L370.501 310.469L366.598 300.067L367.899 293.566L371.802 292.265L374.404 288.364V284.464L371.802 281.863L373.103 279.262L377.006 277.962L375.705 276.662L379.608 271.461L383.512 272.761L386.114 268.86L383.512 266.259L388.716 251.956H380.909V249.356L387.415 246.755L391.318 249.356L396.522 248.055L397.823 244.155L403.028 245.455L405.63 242.854L404.329 244.155H409.533L417.339 251.956L430.35 236.353L431.651 238.953V236.353L438.156 229.851L473.285 264.959L482.392 270.16L498.005 268.86L495.403 280.563L484.994 288.364L488.897 293.566L484.994 296.166L486.295 298.767Z" fill="#B7E830" fill-opacity="0.5" stroke="#0000FF" stroke-opacity="0.4" stroke-linecap="round" stroke-linejoin="round"/>
<path id="3809" class="district" name="Can Lộc" fill-rule="evenodd" clip-rule="evenodd" d="M324.964 206.446L328.867 210.347V212.948L326.265 211.647L324.964 215.548H322.362V219.449H319.76L321.061 223.35H318.459L315.857 227.251L310.652 224.65L308.05 231.152V242.854L300.244 238.953V235.052L296.341 229.851L267.717 219.449L258.61 209.047L253.406 206.446L257.309 198.644L250.804 194.743L254.707 189.542L252.105 177.84L258.61 171.338L257.309 163.536H265.115V158.335L271.62 147.933L275.524 151.834L274.223 155.735L278.126 154.434L282.029 159.636L287.233 154.434L289.835 158.335H296.341L304.147 154.434L306.749 147.933L305.448 138.831L311.953 131.029L317.158 128.429L326.265 131.029L332.77 128.429L337.975 132.329L339.276 150.534L336.673 154.434V160.936L343.179 164.837V172.638L340.577 175.239L341.878 177.84L345.781 176.539V183.041L335.372 184.341L332.77 186.942V189.542H335.372L332.77 193.443L323.663 188.242L321.061 193.443L322.362 194.743L319.76 197.344L322.362 199.945L323.663 197.344L324.964 198.644V206.446Z" fill="#49E830" fill-opacity="0.5" stroke="#0000FF" stroke-opacity="0.4" stroke-linecap="round" stroke-linejoin="round"/>
<path id="3808" class="district" name="Đức Thọ" fill-rule="evenodd" clip-rule="evenodd" d="M253.406 196.044L257.309 198.644V203.845L253.406 206.446L235.191 194.743V198.644L231.288 199.945L222.18 190.843L215.675 188.242L213.073 190.843L209.17 189.542L207.869 168.738L214.374 162.236L206.567 154.434L210.471 153.134L214.374 147.933V140.131L211.772 136.23L213.073 132.329L210.471 127.128L218.277 123.227L228.685 124.528L231.288 116.726L244.298 114.125L245.599 118.026H250.803V120.627H248.201L253.406 121.927L259.911 114.125L269.018 111.525L270.319 112.825L267.717 116.726V123.227L265.115 124.528L269.018 128.429L266.416 133.63L270.319 134.93L271.62 138.831L272.921 136.23L278.126 140.131L274.223 142.732L267.717 153.134L265.115 163.536H257.309L258.61 171.338L253.406 173.939L254.707 176.539L252.105 177.84V180.44L254.707 188.242L250.803 194.743L253.406 196.044Z" fill="#30E886" fill-opacity="0.5" stroke="#0000FF" stroke-opacity="0.4" stroke-linecap="round" stroke-linejoin="round"/>
<path id="3807" class="district" name="Hương Khê" fill-rule="evenodd" clip-rule="evenodd" d="M336.673 376.784L345.781 379.385L347.082 384.586L344.48 387.187L339.276 384.586L334.071 387.187L335.372 389.787L324.964 391.087L319.76 394.988L306.749 385.886H298.943L293.738 392.388L295.04 398.889L289.835 401.49L285.932 406.691H253.406L248.201 404.09L242.997 396.289L235.191 401.49L232.589 397.589L227.384 396.289L228.685 392.388L226.083 389.787L229.987 380.685L227.384 371.583L223.481 370.283L224.782 368.983L220.879 359.88L218.277 362.481L207.869 361.181V349.478L205.266 345.577L198.761 339.076L194.858 340.376V342.977L190.955 340.376L194.858 324.773L189.654 309.169L188.353 307.869L184.449 314.37V301.367L179.245 305.268L166.235 300.067L172.74 274.061L179.245 268.86L183.148 261.058L181.847 259.758L184.449 251.956H189.654L192.256 249.356H205.266L211.772 255.857H215.675L219.578 249.356L223.481 250.656L228.685 245.455H232.589L233.89 237.653H237.793V240.254L244.298 236.353L245.599 233.752L241.696 229.851L242.997 222.05L246.9 218.149L248.201 212.948L253.406 209.047V206.446L258.61 209.047L267.717 219.449L278.126 224.65L296.341 229.851L300.244 235.052V238.953L311.953 245.455V249.356L308.05 253.257L310.652 255.857L314.555 253.257L326.265 254.557L332.77 264.959L344.48 272.761V275.362H349.684L348.383 283.163L345.781 284.464L349.684 287.064L350.985 292.265L360.093 298.767L363.996 305.268L358.791 316.971L361.394 324.773L357.49 328.673L358.791 333.875L362.695 335.175L367.899 332.574L373.103 335.175L375.705 340.376L384.813 345.577L390.017 355.98L393.92 358.58L387.415 362.481L380.909 358.58H374.404L363.996 368.983L347.082 371.583L345.781 370.283L340.577 372.883L336.673 376.784Z" fill="#30DCE8" fill-opacity="0.5" stroke="#0000FF" stroke-opacity="0.4" stroke-linecap="round" stroke-linejoin="round"/>
<path id="3806" class="district" name="Hương Sơn" fill-rule="evenodd" clip-rule="evenodd" d="M181.847 185.641L179.245 186.942L183.148 193.443L180.546 198.644L168.837 190.843L167.536 186.942L158.428 188.242L149.321 180.44L145.418 184.341H141.514L138.912 180.44L137.611 184.341L131.106 190.843V196.044L138.912 201.245L135.009 215.548L128.504 218.149L121.999 216.848L118.095 212.948L114.192 215.548L108.988 222.05L105.085 237.653L97.2784 246.755V255.857H94.6763L93.3753 263.659L86.87 267.56L73.8594 268.86L67.3541 254.557L55.6445 250.656L50.4403 245.455L38.7307 240.254L42.6339 229.851L37.4297 218.149L40.0318 210.347L32.2254 206.446L28.3223 210.347L23.118 209.047L20.5159 202.545L21.817 201.245L17.9138 198.644V193.443L10.1074 194.743L8.80636 186.942L3.60212 185.641L1 180.44L3.60212 175.239L2.30106 164.837L6.20424 157.035L3.60212 150.534L8.80636 141.431L6.20424 137.531L12.7095 129.729V124.528L17.9138 121.927L15.3117 118.026L17.9138 111.525L15.3117 107.624L27.0212 97.2216L41.3329 103.723H53.0424L59.5477 107.624L73.8594 95.9213L80.3647 94.621L81.6657 92.0204H90.7731L95.9774 98.5218L108.988 102.423L112.891 107.624L120.698 110.224L121.999 112.825L140.213 114.125L141.514 111.525H146.719L150.622 107.624L151.923 110.224H157.127L161.03 103.723L176.643 99.8221L177.944 95.9213L189.654 98.5218L194.858 103.723L203.965 123.227L211.772 128.429L214.374 147.933L207.869 154.434V158.335L200.062 162.236L193.557 158.335L190.955 175.239L185.751 181.741L184.449 180.44L181.847 185.641Z" fill="#306EE8" fill-opacity="0.5" stroke="#0000FF" stroke-opacity="0.4" stroke-linecap="round" stroke-linejoin="round"/>
<path id="3804" class="district" name="Lộc Hà" fill-rule="evenodd" clip-rule="evenodd" d="M366.598 207.746L369.2 203.846L361.394 197.344L363.996 192.143H360.093L357.49 186.942H352.286V196.044L347.082 190.843V188.242L343.179 189.542L341.878 186.942L345.781 176.539H340.577L343.179 166.137L339.276 163.536L340.577 162.236L336.673 160.936L339.276 150.534L337.975 132.329L348.383 131.029L353.587 138.831L358.791 141.432L362.695 138.831L382.211 166.137L386.114 170.038H391.318V177.84L386.114 179.14L384.813 181.741V196.044L379.608 202.545L366.598 209.047V207.746Z" fill="#D030E8" fill-opacity="0.5" stroke="#0000FF" stroke-opacity="0.4" stroke-linecap="round" stroke-linejoin="round"/>
<g id="3803" class="district" name="Nghi Xuân">
<path fill-rule="evenodd" clip-rule="evenodd" d="M356.189 36.1079H348.383L347.082 33.5073L350.985 27.0058L357.49 28.3061V34.8076L356.189 36.1079ZM409.533 8.80175L403.028 1L409.533 4.90087V7.50146V8.80175ZM352.286 25.7055L349.684 27.0058L344.48 24.4052L343.179 20.5044L347.082 14.0029L352.286 19.2041L353.587 24.4052L352.286 25.7055ZM347.082 111.525L362.695 138.831L358.791 141.431L350.985 136.23L349.684 131.029L337.975 132.329L332.77 128.429L326.265 131.029L310.652 125.828L309.351 127.128L306.749 124.528V127.128L305.448 125.828L301.545 129.729L293.739 131.029V128.429L291.136 127.128L293.739 124.528V119.327H289.835V123.227L280.728 119.327L278.126 120.627L274.223 119.327L271.62 114.125L275.524 112.825L276.825 110.224L279.427 88.1195L287.233 84.2187L289.835 71.2157L293.739 67.3149L304.147 69.9155L315.857 67.3149L314.555 59.5131L302.846 32.207L305.448 27.0058L313.254 21.8047L315.857 24.4052L318.459 23.105L317.158 20.5044L319.76 21.8047L332.77 77.7172L340.577 98.5219L347.082 111.525Z" fill="#E83092" fill-opacity="0.5"/>
<path d="M417.339 10.102V8.80175M356.189 36.1079H348.383L347.082 33.5073L350.985 27.0058L357.49 28.3061V34.8076L356.189 36.1079ZM409.533 8.80175L403.028 1L409.533 4.90087V7.50146V8.80175ZM352.286 25.7055L349.684 27.0058L344.48 24.4052L343.179 20.5044L347.082 14.0029L352.286 19.2041L353.587 24.4052L352.286 25.7055ZM347.082 111.525L362.695 138.831L358.791 141.431L350.985 136.23L349.684 131.029L337.975 132.329L332.77 128.429L326.265 131.029L310.652 125.828L309.351 127.128L306.749 124.528V127.128L305.448 125.828L301.545 129.729L293.739 131.029V128.429L291.136 127.128L293.739 124.528V119.327H289.835V123.227L280.728 119.327L278.126 120.627L274.223 119.327L271.62 114.125L275.524 112.825L276.825 110.224L279.427 88.1195L287.233 84.2187L289.835 71.2157L293.739 67.3149L304.147 69.9155L315.857 67.3149L314.555 59.5131L302.846 32.207L305.448 27.0058L313.254 21.8047L315.857 24.4052L318.459 23.105L317.158 20.5044L319.76 21.8047L332.77 77.7172L340.577 98.5219L347.082 111.525Z" stroke="#0000FF" stroke-opacity="0.4" stroke-linecap="round" stroke-linejoin="round"/>
</g>
<path id="3802" class="district" name="Thạch Hà" fill-rule="evenodd" clip-rule="evenodd" d="M370.501 307.869V310.469L358.791 316.971L363.996 305.268L360.093 298.767L349.684 290.965L348.383 285.764H345.781L348.383 283.163V274.061L344.48 275.362L343.179 271.461L331.469 263.659L326.265 254.557H308.05L311.953 249.356V245.455L308.05 242.854L309.351 224.65H313.254L315.856 227.251L318.459 222.05L321.061 223.35L319.76 219.449H322.362L324.964 212.948H327.566L328.867 210.347L324.964 206.446V198.644L323.663 197.344L322.362 199.945L319.76 197.344L324.964 188.242L332.77 194.743V192.143L335.372 190.843L332.77 189.542L334.071 184.341H341.878V186.942L348.383 189.542L347.082 190.843L352.286 196.044V186.942H357.49V189.542L362.695 192.143L363.996 194.743L361.394 197.344L369.2 203.845L363.996 211.647L366.598 214.248L361.394 219.449L365.297 227.251H362.695L360.093 232.452L365.297 238.953L378.307 240.254L377.006 241.554H379.608L380.909 244.155L379.608 249.356L388.716 251.956L386.114 255.857L387.415 259.758L383.512 266.259L386.114 268.86L383.512 272.761L380.909 271.461L377.006 274.061V277.962L371.802 280.563L374.404 288.364L371.802 292.265L367.899 293.566L366.598 300.067L369.2 305.268L370.501 307.869ZM434.253 225.95L438.156 229.851L432.952 233.752L431.651 238.953L430.35 237.653L426.447 240.254L417.339 251.956L409.533 244.155H404.329L405.63 242.854L400.425 245.455L397.823 242.854L399.124 241.554L387.415 232.452L390.017 229.851V225.95L396.522 227.251L392.619 223.35L395.221 219.449L392.619 215.548L393.92 209.047L388.716 205.146L380.909 206.446L379.608 202.545L386.114 194.743L384.813 181.741L390.017 177.84L391.318 170.038H396.522L397.823 167.437L399.124 168.738L396.522 171.338L397.823 173.939L429.049 220.749L434.253 225.95Z" fill="#E83D30" fill-opacity="0.5" stroke="#0000FF" stroke-opacity="0.4" stroke-linecap="round" stroke-linejoin="round"/>
<path id="3801" class="district" name="Vũ Quang" fill-rule="evenodd" clip-rule="evenodd" d="M73.8594 268.86L93.3753 264.959L94.6763 255.857H97.2785V248.055L105.085 237.653L108.988 228.551V222.05L114.192 215.548L118.095 212.948L128.504 218.149L135.009 216.848L138.912 202.545L131.106 196.044V192.143L132.407 188.242L137.611 184.341L138.912 179.14L141.514 184.341L149.321 180.44L158.428 188.242L167.536 186.942L168.837 190.843L180.546 199.945L183.148 193.443L179.245 186.942L190.955 176.539L193.557 158.335L200.062 162.236L207.869 158.335V155.735L214.374 160.936L211.772 166.137H209.17L207.869 168.738L209.17 190.843H213.073L215.675 188.242L222.18 190.843L231.288 199.945L235.191 198.644V194.743L253.406 206.446V209.047L248.201 212.948L246.9 218.149L242.997 222.05L241.696 229.851L245.599 233.752L241.696 238.953H232.589L231.288 246.755L228.685 245.455L226.083 249.356H219.578L215.675 255.857L210.471 254.557L205.266 249.356H192.256L189.654 251.956L185.751 249.356L181.847 258.458L183.148 261.058L172.74 274.061L166.235 300.067L161.03 302.668H163.632L161.03 310.469L155.826 313.07L153.224 310.469L148.02 315.671L149.321 319.571L145.418 326.073L141.514 322.172L138.912 323.472L133.708 318.271L129.805 319.571V322.172H125.902L118.095 310.469L111.59 311.77L112.891 309.169L103.784 302.668L106.386 298.767L105.085 290.965L108.988 276.662L107.687 271.461L99.8806 270.16L95.9774 274.061L97.2785 277.962L94.6763 280.563V285.764L92.0742 281.863L93.3753 275.362H88.171L86.87 272.761L82.9668 276.662L80.3647 272.761L73.8594 274.061V270.16V268.86Z" fill="#D147AC" fill-opacity="0.5" stroke="#0000FF" stroke-opacity="0.4" stroke-linecap="round" stroke-linejoin="round"/>
</g>
</svg>
