<svg width="371" height="458" viewBox="0 0 371 458" fill="none" xmlns="http://www.w3.org/2000/svg">
<g id="39" name="Đồng Nai">
<path id="3911" class="district" name="TP Biên Hòa" fill-rule="evenodd" clip-rule="evenodd" d="M47.5291 338.154L43.8534 327.127L45.0786 323.451L40.1777 309.974H30.3759L27.9255 302.622H23.0246L20.5741 300.172L16.8985 301.397L19.3489 298.947L18.1237 296.496H15.6733V294.046L13.2228 295.271L9.54713 291.596V287.92L5.87146 286.695V281.794L10.7724 284.244L20.5741 279.343L24.2498 274.442L27.9255 273.217V269.542H37.7273L38.9525 267.091L43.8534 268.316L46.3039 264.641L47.5291 265.866L49.9795 263.415L53.6552 265.866L61.0065 263.415L59.7813 264.641L65.9074 267.091L69.5831 270.767L68.3579 271.992L72.0336 273.217V275.668L76.9345 276.893L74.484 278.118L73.2588 283.019L83.0606 284.244L80.6101 292.821L83.0606 291.596L85.511 298.947L87.9615 295.271L96.538 297.722L98.9885 305.073L97.7633 312.424H105.115L106.34 314.875L98.9885 322.226L101.439 324.676L96.538 328.352L79.3849 333.253L83.0606 341.829L79.3849 345.505H68.3579L61.0065 343.055V345.505H54.8804L47.5291 338.154Z" fill="#D147AC" fill-opacity="0.5" stroke="#0000FF" stroke-opacity="0.4" stroke-linecap="round" stroke-linejoin="round"/>
<path id="3910" class="district" name="TP Long Khánh" fill-rule="evenodd" clip-rule="evenodd" d="M230.087 330.802L225.187 333.253L221.511 330.802L216.61 332.028V329.577L201.907 335.703L200.682 333.253L195.781 334.478L193.331 333.253V329.577L197.006 325.902L192.106 323.451V321.001H185.979L182.304 318.55V311.199L187.205 308.749L185.979 306.298L188.43 301.397L187.205 300.172L189.655 297.722L190.88 286.695L200.682 273.217L204.358 278.118H210.484V260.965L214.16 262.19V259.74H216.61L215.385 256.064H217.835V259.74L225.187 257.289L227.637 251.163L230.087 263.415L231.313 264.641L234.988 262.19L237.439 269.542L259.493 268.316L257.042 269.542V274.442L254.592 275.668L246.015 292.821H243.565L239.889 296.496H244.79L247.241 294.046L248.466 295.271L249.691 297.722L246.015 301.397V307.523H231.313L232.538 303.848H227.637L219.06 316.1L217.835 319.776L222.736 318.55L228.862 330.802H230.087Z" fill="#D1475A" fill-opacity="0.5" stroke="#0000FF" stroke-opacity="0.4" stroke-linecap="round" stroke-linejoin="round"/>
<path id="3909" class="district" name="Cẩm Mỹ" fill-rule="evenodd" clip-rule="evenodd" d="M172.502 382.262H157.799L150.448 372.46L152.898 370.009L160.25 372.46L167.601 371.235L170.052 367.559L168.826 358.983L167.601 360.208L163.925 355.307H161.475L160.25 357.757L152.898 355.307L144.322 347.956V340.604L150.448 336.929L147.997 334.478L154.124 332.028L156.574 333.253L160.25 330.803L161.475 332.028L162.7 329.577L160.25 327.127L163.925 325.902L165.151 319.776L168.826 316.1L167.601 314.875L172.502 311.199L174.952 313.649L181.079 311.199L183.529 313.649L182.304 318.55L184.754 321.001H190.88L192.106 323.451L197.006 324.676L193.331 328.352L194.556 334.478L200.682 333.253L201.907 335.703L216.61 329.577V332.028L221.511 330.803L225.187 333.253L228.862 332.028L230.087 330.803L227.637 329.577L237.439 321.001L247.241 325.902H252.142V323.451L259.493 324.676V329.577L263.169 333.253L266.844 332.028L286.448 335.703H298.7L297.475 346.73L292.574 351.631L291.349 356.532L293.799 358.983L288.898 367.559L290.123 371.235L286.448 377.361L285.223 376.136L282.772 378.586L279.096 385.937L272.97 389.613V393.289L266.844 399.415L269.295 401.865L268.069 407.991L270.52 409.216H268.069V411.667L264.394 414.117L259.493 412.892L253.367 416.568L246.015 410.442V407.991L249.691 405.541L246.015 401.865L248.466 396.964L246.015 394.514V377.361L220.286 376.136L214.16 373.685L206.808 378.586L204.358 368.784L195.781 370.009L183.529 381.036L173.727 382.262H172.502Z" fill="#D18847" fill-opacity="0.5" stroke="#0000FF" stroke-opacity="0.4" stroke-linecap="round" stroke-linejoin="round"/>
<path id="3908" class="district" name="Định Quang" fill-rule="evenodd" clip-rule="evenodd" d="M302.376 236.461L297.475 241.362V243.812L290.123 241.362L287.673 243.812L281.547 242.587L279.096 245.037L272.97 242.587L270.52 238.911L268.069 240.136L264.394 236.461L263.169 237.686V235.235L257.042 229.109H247.241L243.565 227.884L242.34 225.434L239.889 226.659L244.79 232.785H247.241L249.691 243.812L244.79 248.713L237.439 247.488L232.538 254.839H228.862L226.412 249.938L227.637 246.262L222.736 243.812V240.136L220.286 237.686L216.61 240.136L215.385 238.911L209.259 240.136L206.808 242.587H200.682L199.457 236.461L193.331 229.109H184.754L187.205 222.983L174.952 220.533L165.151 226.659L162.7 225.434L165.151 210.731V192.353L173.727 180.101L198.232 171.524L190.88 142.119L187.205 138.443L188.43 137.218L184.754 135.993L185.979 132.317L183.529 129.867V122.515L188.43 121.29V116.389L192.106 115.164L194.556 107.813L198.232 104.137L199.457 105.362L201.907 100.461L203.133 101.687L205.583 99.2362L217.835 95.5606L223.961 99.2362L227.637 95.5606L230.087 88.2093L236.214 89.4345L241.115 88.2093V85.7588L253.367 91.8849L264.394 93.1101L266.844 95.5606L265.619 99.2362L271.745 116.389L266.844 118.84L263.169 126.191L264.394 128.641H269.295L270.52 126.191L272.97 128.641L274.196 127.416L287.673 138.443L286.448 139.668L290.123 142.119V144.569L303.601 162.948V165.398H306.051L303.601 181.326H307.277L308.502 178.875L317.078 185.002L318.304 189.902L314.628 193.578L315.853 198.479H310.952L306.051 204.605L307.277 209.506H309.727L314.628 214.407L309.727 227.884L304.826 226.659V229.109L299.925 231.56L302.376 235.235V236.461Z" fill="#B7E830" fill-opacity="0.5" stroke="#0000FF" stroke-opacity="0.4" stroke-linecap="round" stroke-linejoin="round"/>
<path id="3907" class="district" name="Long Thành" fill-rule="evenodd" clip-rule="evenodd" d="M117.367 427.595L119.817 421.469L111.241 415.343L110.016 416.568L106.34 412.892V410.442L98.9885 405.541L102.664 401.865L100.214 399.415V394.514L92.8624 384.712L94.0876 378.586L91.6371 374.91H86.7362V372.46L83.0606 368.784L76.9345 366.334H74.484V368.784L65.9074 367.559V365.109L62.2318 363.883H57.3309V366.334L54.8804 367.559L51.2047 363.883V361.433L59.7813 352.856L54.8804 345.505H79.3849L83.0606 341.829L79.3849 333.253L94.0876 329.577L101.439 324.676L105.115 329.577L111.241 325.902L132.07 327.127L130.844 321.001H141.871V328.352L138.196 333.253H147.997L150.448 336.929L144.322 340.604V346.73L147.997 351.631L156.574 356.532L160.25 357.757L161.475 355.307H163.925L167.601 358.983L170.051 366.334L167.601 371.235H150.448L155.349 378.586L154.124 379.811L156.574 382.262L170.051 381.036L173.727 383.487V387.163L177.403 388.388L176.178 392.063L174.952 389.613L173.727 393.289L171.277 407.991L166.376 411.667L165.151 415.343L156.574 419.018L155.349 423.919H141.871L140.646 421.469H132.07L119.817 427.595H117.367Z" fill="#49E830" fill-opacity="0.5" stroke="#0000FF" stroke-opacity="0.4" stroke-linecap="round" stroke-linejoin="round"/>
<path id="3906" class="district" name="Nhơn Trạch" fill-rule="evenodd" clip-rule="evenodd" d="M114.916 442.297L107.565 445.973L105.115 449.649V457L100.214 455.775L97.7633 452.099L87.9615 448.423L85.511 449.649L76.9345 443.523L73.2588 444.748L68.3579 436.171L63.457 433.721L59.7813 426.37H56.1056L49.9795 431.27L41.403 430.045L38.9525 434.946H34.0516L25.475 421.469L10.7723 412.892L3.421 405.541L0.970551 400.64V393.289L11.9976 379.811L21.7994 376.136L25.475 370.01L31.6012 365.109L34.0516 366.334L32.8264 374.91H35.2768L40.1777 368.784L43.8534 367.559L52.43 373.685L56.1056 371.235L54.8804 367.559L57.3309 366.334V363.883L65.9074 365.109V367.559L74.484 368.784V366.334H76.9345L83.0606 368.784L86.7362 372.46V374.91H91.6371L92.8624 384.712L100.214 394.514L98.9885 395.739L102.664 401.865L98.9885 406.766L106.34 410.442L108.79 416.568L111.241 415.343L119.817 421.469L117.367 425.144L119.817 432.496L118.592 433.721L113.691 431.27L110.016 433.721L112.466 439.847L114.916 442.297Z" fill="#30E886" fill-opacity="0.5" stroke="#0000FF" stroke-opacity="0.4" stroke-linecap="round" stroke-linejoin="round"/>
<path id="3905" class="district" name="Tân Phú" fill-rule="evenodd" clip-rule="evenodd" d="M345.259 131.092L342.808 135.993L345.259 142.119V151.921H342.808L335.457 159.272V155.596H333.006L334.232 161.722L331.781 162.948L334.232 165.398H328.105L329.331 167.848L325.655 171.524L328.105 172.749L326.88 175.2L325.655 176.425V173.975H323.205L325.655 180.101L323.205 177.65L320.754 182.551L321.979 183.776L317.078 186.227L314.628 183.776L313.403 185.002L308.502 178.875L303.601 181.326L306.051 164.173L303.601 165.398V162.948L298.7 158.047L290.123 142.119L286.448 139.668L287.673 138.443H285.223V135.993L274.196 126.191L272.97 128.641L270.52 126.191L268.069 128.641L263.169 127.416L266.844 118.84L271.745 116.389L265.619 99.2362L266.844 95.5606L264.394 93.1101L254.592 91.8849L241.115 85.7588V88.2093L236.214 89.4345L230.087 88.2093L227.637 95.5606L223.961 99.2362L211.709 96.7858L209.259 99.2362L203.133 100.461L201.907 98.011L204.358 95.5606V86.984L215.385 74.7319L211.709 68.6058L199.457 60.0292L203.133 55.1284L200.682 44.1014L201.907 42.8762L199.457 39.2005L190.88 34.2996L261.943 17.1466L265.619 19.597L268.069 13.4709H270.52L271.745 11.0205L270.52 6.11962L272.97 1.21875L275.421 4.89441L272.97 6.11962L275.421 11.0205L272.97 12.2457L276.646 17.1466L277.871 12.2457L281.547 19.597L279.096 28.1736L275.421 29.3988L277.871 31.8492L283.997 29.3988V26.9483L295.024 25.7231L296.25 30.624L299.925 33.0744L302.376 30.624L307.277 33.0744L308.502 30.624V34.2996L314.628 37.9753V42.8762H317.078L321.979 47.777V50.2275L320.754 49.0023L317.078 51.4527L318.304 55.1284L313.403 57.5788L310.952 62.4797L303.601 67.3805V71.0562L309.727 69.831V73.5066L314.628 74.7319V69.831L321.979 67.3805L328.105 69.831V83.3084L334.232 86.984L333.006 90.6597H340.358L342.808 98.011H345.259L350.159 104.137L355.06 99.2362L353.835 111.488L348.934 120.065L342.808 123.741V127.416L345.259 129.867V131.092Z" fill="#30DCE8" fill-opacity="0.5" stroke="#0000FF" stroke-opacity="0.4" stroke-linecap="round" stroke-linejoin="round"/>
<g id="3904" class="district" name="Thống Nhất">
<path fill-rule="evenodd" clip-rule="evenodd" d="M141.871 321.001H145.547L146.772 317.325H149.223L150.448 321.001L152.898 318.55L151.673 317.325L155.349 314.875V298.947L152.898 297.722L154.124 287.92L162.7 286.695L161.475 280.569H159.024L160.25 278.118L170.051 275.668L165.151 270.767L166.376 262.19H163.925V259.74L160.25 256.064L157.799 246.262L159.024 240.136L161.475 237.686L160.25 232.785L163.925 231.56L165.151 226.659L173.727 220.533L187.205 222.983L184.754 227.884L193.331 229.109L197.006 231.56L200.682 242.587H205.583L208.033 240.136L214.16 238.911L215.385 240.136L219.06 237.686L222.736 245.037L227.637 246.262L225.187 256.064L217.835 259.74V256.064H215.385L216.61 258.515L214.16 259.74V262.19L210.484 260.965V278.118H204.358L199.457 273.217L190.88 286.695V292.821L185.979 305.073L187.205 307.523L182.304 311.199L174.952 313.649L172.502 311.199L167.601 314.875L168.826 316.1H166.376V322.226L163.925 327.127L160.25 325.902L162.7 332.028L160.25 330.802L150.448 334.478H138.196L141.871 329.577V325.902V321.001Z" fill="#306EE8" fill-opacity="0.5"/>
<path d="M182.304 311.199L187.205 307.523L185.979 305.073L190.88 292.821V286.695L199.457 273.217L204.358 278.118H210.484V260.965L214.16 262.19V259.74L216.61 258.515L215.385 256.064H217.835V259.74L225.187 256.064L227.637 246.262L222.736 245.037L219.06 237.686L215.385 240.136L214.16 238.911L208.033 240.136L205.583 242.587H200.682L197.006 231.56L193.331 229.109L184.754 227.884L187.205 222.983L173.727 220.533L165.151 226.659L163.925 231.56L160.25 232.785L161.475 237.686L159.024 240.136L157.799 246.262L160.25 256.064L163.925 259.74V262.19H166.376L165.151 270.767L170.051 275.668L160.25 278.118L159.024 280.569H161.475L162.7 286.695L154.124 287.92L152.898 297.722L155.349 298.947V314.875L151.673 317.325L152.898 318.55L150.448 321.001L149.223 317.325H146.772L145.547 321.001H141.871V325.902V329.577L138.196 334.478H150.448L160.25 330.802L162.7 332.028L160.25 325.902L163.925 327.127L166.376 322.226V316.1H168.826L167.601 314.875L172.502 311.199L174.952 313.649L182.304 311.199ZM182.304 311.199L183.529 312.424" stroke="#0000FF" stroke-opacity="0.4" stroke-linecap="round" stroke-linejoin="round"/>
</g>
<path id="3903" class="district" name="Trảng Bom" fill-rule="evenodd" clip-rule="evenodd" d="M73.2588 283.019L74.484 278.118L76.9344 276.893L72.0336 275.668L73.2588 273.217L68.3579 271.992V268.316H73.2588L75.7092 265.866L91.6371 270.767L94.0876 265.866L96.538 268.316L100.214 265.866L101.439 264.641L98.9885 262.19L103.889 259.74H106.34L107.565 263.415L114.916 264.641L119.817 259.74L118.592 257.289L121.043 253.614L127.169 247.488H130.844V242.587L134.52 241.362V236.461L139.421 235.235L138.196 232.785L140.646 220.533L165.151 226.659V231.56L160.25 232.785L161.475 237.686L159.024 238.911L157.799 246.262L161.475 258.515H163.925L166.376 264.641L165.151 270.767L170.051 275.668L159.024 279.343L161.475 280.569L162.7 286.695L154.124 287.92L152.898 297.722L155.349 298.947L154.124 305.073L156.574 312.424L150.448 319.776L149.223 317.325H146.772L145.547 321.001H130.844L132.07 327.127L111.241 325.902L105.115 329.577L98.9885 322.226L106.34 314.875L97.7633 312.424V298.947L90.4119 296.496L85.511 298.947L84.2858 291.596L80.6101 292.821L83.0606 284.244L79.3849 283.019H73.2588Z" fill="#6130E8" fill-opacity="0.5" stroke="#0000FF" stroke-opacity="0.4" stroke-linecap="round" stroke-linejoin="round"/>
<path id="3902" class="district" name="Vĩnh Cửu" fill-rule="evenodd" clip-rule="evenodd" d="M23.0246 276.893L21.7994 278.118L14.448 271.992L10.7723 263.415L15.6732 259.74V257.289L27.9255 252.389L26.7003 246.262L21.7994 240.136L23.0246 238.911L32.8264 236.461L35.2768 237.686L40.1777 247.488L54.8804 257.289L65.9074 253.614L70.8083 256.064L73.2588 247.488L78.1597 243.812L76.9344 241.362L81.8353 236.461L85.511 240.136L89.1867 238.911L90.4119 234.01L86.7362 230.335L87.9615 225.434L94.0876 219.308L92.8624 218.082L96.538 216.857L95.3128 213.182L92.8624 211.956L91.6371 202.155L96.538 200.929V198.479L92.8624 197.254L91.6371 193.578L85.511 189.902L87.9615 187.452L81.8353 180.101L78.1597 181.326L73.2588 177.65L70.8083 178.875L68.3579 171.524L74.484 169.074L75.7092 165.398L73.2588 162.948V160.497L75.7092 159.272H72.0336V156.821L81.8353 154.371H79.3849L78.1597 143.344L85.511 133.542L84.2858 127.416L86.7362 124.966L87.9615 127.416L89.1867 126.191L90.4119 128.641H92.8624L95.3128 122.515L96.538 123.741L100.214 121.29L98.9885 122.515L105.115 123.741V118.84L102.664 116.389L103.889 115.164H107.565L110.016 117.614L108.79 116.389H112.466L111.241 115.164H113.691V112.714L118.592 111.488L116.142 109.038L118.592 106.588L119.817 107.813L123.493 104.137L124.718 105.362L128.394 101.687V99.2362H130.844L127.169 96.7858L132.07 94.3353L130.844 95.5606H138.196L136.97 93.1101L139.421 90.6597L136.97 85.7588L140.646 82.0832H143.097L141.871 78.4075L144.322 75.9571L145.547 77.1823V74.7319L141.871 71.0562V61.2545H144.322V58.804L145.547 60.0292L150.448 53.9031L154.124 52.6779V47.7771H161.475L170.051 39.2005L190.88 33.0744L194.556 37.9753L199.457 39.2005L201.907 42.8762L200.682 44.1014L203.133 52.6779V55.1284L199.457 58.804L211.709 68.6058L215.385 74.7319L205.583 83.3084L200.682 105.362L199.457 104.137L193.331 109.038L192.106 113.939L188.43 116.389V121.29H185.979L182.304 127.416L185.979 132.317L184.754 134.768L190.88 142.119L198.232 171.524L173.727 180.101L165.151 192.353V210.731L162.7 225.434L141.871 220.533L139.421 221.758V235.235L134.52 236.461L135.745 241.362L130.844 242.587V248.713L129.619 246.262L122.268 253.614H119.817V258.515L114.916 264.641L112.466 262.19L110.016 264.641L105.115 259.74L98.9885 262.19L101.439 264.641L100.214 265.866L96.538 268.316L94.0876 265.866L91.6371 268.316L92.8624 269.542L89.1867 270.767L75.7092 265.866L68.3579 268.316L62.2318 264.641L61.0065 265.866V263.415L53.6552 265.866L49.9795 263.415L47.5291 265.866L46.3038 264.641L43.8534 268.316L38.9525 267.091L37.7273 269.542H27.9255V273.217H24.2498L23.0246 275.668V276.893Z" fill="#D030E8" fill-opacity="0.5" stroke="#0000FF" stroke-opacity="0.4" stroke-linecap="round" stroke-linejoin="round"/>
<g id="3901" class="district" name="Xuân Lộc">
<path fill-rule="evenodd" clip-rule="evenodd" d="M350.159 273.217L351.385 276.893L353.835 275.668L361.186 295.271V325.902L369.763 341.829L363.637 355.307L345.259 368.784L328.105 371.235L323.205 360.208L315.853 361.433L314.628 356.532L309.727 355.307L301.151 363.883L298.7 370.009L293.799 368.784L290.123 372.46L288.898 367.559L293.799 358.983L291.349 356.532L292.574 351.631L297.475 346.73L298.7 335.703H286.448L266.844 332.028L263.169 333.253L258.268 327.127L260.718 324.676L255.817 325.902L252.142 323.451V325.902H247.241L237.439 321.001H234.988L233.763 324.676L226.412 328.352L222.736 318.55L217.835 319.776L220.286 311.199L227.637 303.848H232.538L231.313 307.523L234.988 305.073L236.214 307.523H246.015V301.397L249.691 297.722L247.241 294.046L244.79 296.496H239.889L247.241 291.596L257.042 269.542L259.493 268.316L236.214 269.542V263.415H231.313L228.862 259.74V254.839L234.988 252.389L237.439 247.488L244.79 248.713L249.691 243.812L247.241 232.785H244.79L239.889 226.659L242.34 225.434L243.565 227.884L247.241 229.109H257.042L263.169 235.235V237.686L264.394 236.461L266.844 240.136L270.52 237.686L279.096 245.037L281.547 242.587L296.25 245.037V247.488L298.7 246.262L302.376 251.163H308.502L323.205 263.415L337.907 259.74L339.132 263.415L342.808 265.866L344.033 264.641L347.709 269.542L350.159 273.217Z" fill="#E83092" fill-opacity="0.5"/>
<path d="M347.709 269.542L344.033 264.641L342.808 265.866L339.132 263.415L337.907 259.74L323.205 263.415L308.502 251.163H302.376L298.7 246.262L296.25 247.488V245.037L281.547 242.587L279.096 245.037L270.52 237.686L266.844 240.136L264.394 236.461L263.169 237.686V235.235L257.042 229.109H247.241L243.565 227.884L242.34 225.434L239.889 226.659L244.79 232.785H247.241L249.691 243.812L244.79 248.713L237.439 247.488L234.988 252.389L228.862 254.839V259.74L231.313 263.415H236.214V269.542L259.493 268.316L257.042 269.542L247.241 291.596L239.889 296.496H244.79L247.241 294.046L249.691 297.722L246.015 301.397V307.523H236.214L234.988 305.073L231.313 307.523L232.538 303.848H227.637L220.286 311.199L217.835 319.776L222.736 318.55L226.412 328.352L233.763 324.676L234.988 321.001H237.439L247.241 325.902H252.142V323.451L255.817 325.902L260.718 324.676L258.268 327.127L263.169 333.253L266.844 332.028L286.448 335.703H298.7L297.475 346.73L292.574 351.631L291.349 356.532L293.799 358.983L288.898 367.559L290.123 372.46L293.799 368.784L298.7 370.009L301.151 363.883L309.727 355.307L314.628 356.532L315.853 361.433L323.205 360.208L328.105 371.235L345.259 368.784L363.637 355.307L369.763 341.829L361.186 325.902V295.271L353.835 275.668L351.385 276.893L350.159 273.217L347.709 269.542ZM347.709 269.542L348.934 268.316" stroke="#0000FF" stroke-opacity="0.4" stroke-linecap="round" stroke-linejoin="round"/>
</g>
</g>
</svg>
