<svg width="474" height="581" viewBox="0 0 474 581" fill="none" xmlns="http://www.w3.org/2000/svg">
<g id="41" name="TP HCM">
<path id="4124" class="district" name="Quận 1" fill-rule="evenodd" clip-rule="evenodd" d="M237.121 290.302L233.246 293.209L229.372 284.489L240.996 271.893L232.279 265.11V262.204L238.089 263.172L239.058 265.11L240.028 264.141L246.807 266.08L248.744 268.986H251.651L252.618 270.924L249.711 272.861L248.744 280.613L244.869 282.551L239.058 289.332L237.121 290.302Z" fill="#D147AC" fill-opacity="0.5" stroke="#0000FF" stroke-opacity="0.4" stroke-linecap="round" stroke-linejoin="round"/>
<path id="4123" class="district" name="Quận 2" fill-rule="evenodd" clip-rule="evenodd" d="M290.393 301.928L283.613 299.99L275.865 301.928L273.927 299.99V295.146L279.74 286.426L278.771 282.551L272.958 276.737L270.054 275.769L267.148 277.707L266.178 286.426L263.273 288.364L258.431 289.332L249.711 284.489V272.861L258.431 268.986L261.335 264.141V260.266L258.431 255.422L260.368 247.671L266.178 245.733L269.085 252.515L271.99 253.484H276.834L278.771 250.577L286.52 249.607L289.424 253.484H296.204L300.079 267.048H303.954V270.924L302.017 272.861L305.891 275.769L310.734 274.799L314.609 277.707L316.546 276.737L320.42 278.676L316.546 281.581L315.577 286.426L312.671 289.332L296.204 297.084L290.393 301.928Z" fill="#D1475A" fill-opacity="0.5" stroke="#0000FF" stroke-opacity="0.4" stroke-linecap="round" stroke-linejoin="round"/>
<path id="4122" class="district" name="Quận 3" fill-rule="evenodd" clip-rule="evenodd" d="M229.372 275.769L217.749 268.986V267.048L221.622 268.986L231.308 265.11L240.996 271.893L229.372 284.489L224.529 283.519L230.341 277.707L229.372 275.769Z" fill="#D18847" fill-opacity="0.5" stroke="#0000FF" stroke-opacity="0.4" stroke-linecap="round" stroke-linejoin="round"/>
<path id="4121" class="district" name="Quận 4" fill-rule="evenodd" clip-rule="evenodd" d="M236.152 294.178L233.246 293.209L239.058 289.332L244.869 282.551L248.745 281.581L251.651 286.426L258.431 289.332L253.587 294.178H239.058H236.152Z" fill="#B7E830" fill-opacity="0.5" stroke="#0000FF" stroke-opacity="0.4" stroke-linecap="round" stroke-linejoin="round"/>
<path id="4120" class="district" name="Quận 5" fill-rule="evenodd" clip-rule="evenodd" d="M214.842 297.084L210.969 299.022L210 295.146H208.063V291.272L223.562 288.364L229.372 284.489L233.246 293.209L231.308 295.146L226.466 294.178L225.498 297.084L217.749 296.114L214.842 297.084Z" fill="#49E830" fill-opacity="0.5" stroke="#0000FF" stroke-opacity="0.4" stroke-linecap="round" stroke-linejoin="round"/>
<path id="4119" class="district" name="Quận 6" fill-rule="evenodd" clip-rule="evenodd" d="M196.439 307.743L191.597 310.648V308.711H188.692L189.66 305.805L186.753 307.743L189.66 291.272L188.692 287.395L195.472 290.302L196.439 289.332L198.377 292.24L207.095 293.209L208.063 295.146H210L210.969 299.022L196.439 307.743Z" fill="#D18847" fill-opacity="0.5" stroke="#0000FF" stroke-opacity="0.4" stroke-linecap="round" stroke-linejoin="round"/>
<path id="4118" class="district" name="Quận 7" fill-rule="evenodd" clip-rule="evenodd" d="M278.771 322.276V328.088L268.114 329.058L266.178 332.933H262.304L259.399 328.088L260.368 323.244L258.431 320.338L260.368 316.462L257.461 315.493L255.524 318.4L250.682 316.462L248.744 317.431L246.807 313.555H235.184L239.058 305.805L236.152 294.178L255.524 293.209L258.431 289.332L266.178 286.426L268.114 276.737H272.958L278.771 282.551L279.74 286.426L273.927 295.146V299.99L275.865 301.928L283.613 299.99L290.393 301.928L278.771 316.462V322.276Z" fill="#30DCE8" fill-opacity="0.5" stroke="#0000FF" stroke-opacity="0.4" stroke-linecap="round" stroke-linejoin="round"/>
<path id="4117" class="district" name="Quận 8" fill-rule="evenodd" clip-rule="evenodd" d="M170.288 330.026L175.13 329.058V324.214L185.786 320.338L186.753 307.743L189.66 305.805L188.692 308.711H191.597V310.648L201.283 303.867L214.842 297.084H225.498L226.466 294.178H236.152L237.121 301.928L230.341 303.867L229.372 306.773H225.498L223.562 304.835L218.718 308.711V306.773L207.095 309.68V311.617H202.252L188.692 336.809L186.753 331.964L179.005 334.871H173.194L171.257 332.933L170.288 330.026Z" fill="#6130E8" fill-opacity="0.5" stroke="#0000FF" stroke-opacity="0.4" stroke-linecap="round" stroke-linejoin="round"/>
<path id="4116" class="district" name="Quận 9" fill-rule="evenodd" clip-rule="evenodd" d="M341.729 278.676L333.012 288.364L330.106 289.332L329.137 287.395L331.074 278.676L328.169 273.831L324.293 274.799L320.42 278.676L317.513 276.737L314.609 277.707L310.734 274.799L305.891 275.769L302.017 272.861L303.954 270.924V267.048H300.079L296.204 253.484H289.424L286.52 249.607L282.644 250.577L284.582 243.795L294.268 224.417L315.577 211.821L325.263 199.226L331.074 196.32L330.106 193.412L332.043 191.475L333.012 192.444L336.886 189.537L341.729 188.567L343.666 199.226L349.478 205.04L345.603 213.759L347.54 219.573L353.353 229.262L370.785 249.607L369.818 256.39L359.163 268.018L365.944 281.581L364.006 284.489L359.163 285.457L349.478 277.707H345.603L341.729 278.676Z" fill="#6130E8" fill-opacity="0.5" stroke="#0000FF" stroke-opacity="0.4" stroke-linecap="round" stroke-linejoin="round"/>
<path id="4115" class="district" name="Quận 10" fill-rule="evenodd" clip-rule="evenodd" d="M220.655 288.364L215.812 289.332L211.938 275.769L217.749 268.986L229.372 275.769L230.341 277.707L224.529 283.519L229.372 284.489L223.562 288.364H220.655Z" fill="#D030E8" fill-opacity="0.5" stroke="#0000FF" stroke-opacity="0.4" stroke-linecap="round" stroke-linejoin="round"/>
<path id="4114" class="district" name="Quận 11" fill-rule="evenodd" clip-rule="evenodd" d="M207.095 293.209L198.377 292.24L196.439 290.302L197.409 281.581L198.377 282.551L203.219 277.707H205.159L209.032 282.551V277.707L210.969 275.769L215.812 290.302L208.063 291.272V293.209H207.095Z" fill="#E83092" fill-opacity="0.5" stroke="#0000FF" stroke-opacity="0.4" stroke-linecap="round" stroke-linejoin="round"/>
<path id="4113" class="district" name="Quận 12" fill-rule="evenodd" clip-rule="evenodd" d="M240.028 208.915L241.965 210.853L253.587 213.759L255.524 219.573L252.618 222.479H245.838L240.996 225.386V228.294L244.869 232.169L239.058 237.982H237.121L234.215 232.169V226.354H230.341L231.308 223.448L225.498 222.479L223.562 216.665L216.781 220.541L209.032 216.665L205.159 218.603V221.511L204.189 220.541L201.283 224.417L196.439 227.324L194.503 231.2L195.472 235.074L193.533 239.919L188.692 245.733L185.786 246.702L174.163 240.889L177.069 234.106L182.88 229.262L177.069 220.541L182.88 209.883L185.786 208.915L191.597 202.132L189.66 200.195L192.566 198.258L194.503 194.382L202.252 193.412L205.159 191.475H209.032L210 194.382H219.686L221.622 187.599L228.404 185.662L229.372 189.537L237.121 184.693L239.058 190.507L236.152 195.35L235.184 201.163L240.028 208.915Z" fill="#E83D30" fill-opacity="0.5" stroke="#0000FF" stroke-opacity="0.4" stroke-linecap="round" stroke-linejoin="round"/>
<path id="4112" class="district" name="Quận Bình Tân" fill-rule="evenodd" clip-rule="evenodd" d="M188.692 299.022L185.786 320.338L175.13 324.214V319.368H172.226V315.493L159.633 310.648L158.665 307.743L153.821 311.617V308.711L143.167 305.805L142.199 303.867L143.167 297.084L152.853 288.364L148.979 286.426L150.916 282.551H153.821L158.665 277.707H161.57L164.477 274.799V268.986L161.57 267.048V262.204H159.633L162.54 250.577L160.602 248.639L167.382 239.919L174.163 240.889L183.849 245.733L177.069 250.577V255.422L181.911 262.204L188.692 283.519V299.022Z" fill="#D147AC" fill-opacity="0.5" stroke="#0000FF" stroke-opacity="0.4" stroke-linecap="round" stroke-linejoin="round"/>
<path id="4111" class="district" name="Quận Bình Thạnh" fill-rule="evenodd" clip-rule="evenodd" d="M251.651 268.986H248.744L246.807 266.08L240.996 264.141L239.058 265.11L238.089 263.172H236.152L237.121 258.328L231.308 255.422L232.279 249.607H235.184L238.089 246.702V244.765L242.932 240.889L241.965 238.95L239.058 237.982L240.028 236.044L242.932 235.074V233.136L244.869 232.169L248.744 236.044V241.857L254.555 245.733L263.273 242.827L271.021 234.106L275.865 236.044L278.771 239.919V250.577L276.834 253.484L269.085 252.515L266.178 245.733H263.273L260.368 247.671L258.431 252.515V255.422L261.335 259.298V264.141L258.431 268.986L252.618 270.924V268.986H251.651Z" fill="#6130E8" fill-opacity="0.5" stroke="#0000FF" stroke-opacity="0.4" stroke-linecap="round" stroke-linejoin="round"/>
<path id="4110" class="district" name="Quận Gò Vấp" fill-rule="evenodd" clip-rule="evenodd" d="M204.189 233.136L202.252 239.919L195.472 237.012V227.324L202.252 223.448L204.189 220.541L205.159 221.511V218.603L208.063 216.665L216.781 220.541L223.562 216.665L224.529 220.541L227.435 223.448L231.308 222.479L230.341 225.386L235.184 228.294L234.215 232.169L237.121 237.982H241.965L242.932 239.919L238.089 243.795L235.184 249.607L234.215 248.639L231.308 252.515H229.372L223.562 249.607H225.498L223.562 243.795L227.435 241.857L226.466 240.889H221.622L211.938 234.106H207.095L204.189 233.136Z" fill="#D18847" fill-opacity="0.5" stroke="#0000FF" stroke-opacity="0.4" stroke-linecap="round" stroke-linejoin="round"/>
<path id="4109" class="district" name="Quận Phú Nhuận" fill-rule="evenodd" clip-rule="evenodd" d="M224.529 267.048H218.718L221.622 260.266H219.686V257.36L223.562 249.607L231.308 252.515V255.422L237.121 258.328L236.152 263.172L232.279 262.204L233.246 265.11L225.498 267.048H224.529Z" fill="#B7E830" fill-opacity="0.5" stroke="#0000FF" stroke-opacity="0.4" stroke-linecap="round" stroke-linejoin="round"/>
<path id="4108" class="district" name="Quận Tân Bình" fill-rule="evenodd" clip-rule="evenodd" d="M206.125 279.643L201.283 270.924L198.377 258.328L193.533 243.795L191.597 241.857L194.503 236.044L202.252 239.919L204.189 233.136H209.032L218.718 239.919H223.562L227.435 241.857L223.562 243.795L225.498 249.607L224.529 248.639L222.592 250.577L220.655 255.422V264.141L214.842 272.861L209.032 277.707V282.551L206.125 279.643Z" fill="#49E830" fill-opacity="0.5" stroke="#0000FF" stroke-opacity="0.4" stroke-linecap="round" stroke-linejoin="round"/>
<path id="4107" class="district" name="Quận Tân Phú" fill-rule="evenodd" clip-rule="evenodd" d="M197.409 281.581V286.426L195.472 290.302L188.692 287.395L186.753 276.737L177.069 250.577L183.849 245.733H188.692L191.597 241.857L193.533 243.795L201.283 270.924L205.159 277.707H203.219L198.377 282.551L197.409 281.581Z" fill="#30E886" fill-opacity="0.5" stroke="#0000FF" stroke-opacity="0.4" stroke-linecap="round" stroke-linejoin="round"/>
<path id="4106" class="district" name="Quận Thủ Đức" fill-rule="evenodd" clip-rule="evenodd" d="M282.644 250.577H278.771V239.919L275.865 236.044L271.021 234.106L263.273 242.827L254.555 245.733L248.745 241.857L247.775 234.106L240.996 228.294L241.965 224.417L245.838 222.479H252.618L255.524 219.573L253.587 213.759L251.651 212.791L253.587 210.853L252.618 207.946H259.399L257.461 205.04L251.651 204.07L255.524 202.132L254.555 197.288H252.618L251.651 195.35L254.555 190.507L262.304 195.35L265.21 194.382L264.241 198.258L268.115 199.226L266.178 202.132L269.085 203.103L273.927 201.163L278.771 206.008L274.897 206.978L278.771 214.729L280.707 212.791L286.52 211.821L287.488 209.883L285.551 207.946V201.163L288.457 199.226L289.424 194.382L291.362 192.444L299.11 201.163V210.853L303.954 211.821L304.923 207.946L309.765 206.978L319.45 207.946L315.577 211.821L294.268 224.417L284.582 243.795L282.644 250.577Z" fill="#30DCE8" fill-opacity="0.5" stroke="#0000FF" stroke-opacity="0.4" stroke-linecap="round" stroke-linejoin="round"/>
<path id="4105" class="district" name="Bình Chánh" fill-rule="evenodd" clip-rule="evenodd" d="M140.262 365.875L141.23 362.968L136.388 362L139.293 356.187L137.356 342.621L134.45 340.685H125.733L120.89 325.181L122.827 319.368L116.047 314.523L108.298 319.368L102.487 312.585L101.518 313.555L98.6121 311.617L95.7065 314.523L75.366 291.272L92.8006 278.676L104.424 268.018L119.922 206.977L125.733 207.946L121.859 225.386L132.513 229.262L133.481 227.324L141.23 229.262L145.104 228.294L146.074 230.231L154.791 229.262L159.633 236.044H163.508L167.382 238.95L159.633 248.639L162.54 250.577L159.633 262.204H161.57L160.602 267.048L164.477 268.986V274.799L161.57 277.707H158.665L153.821 282.551H150.916L148.979 285.457L152.853 288.364L143.167 297.084L142.199 303.867L143.167 305.805L153.821 308.711V311.617L158.665 307.743L159.633 310.648L172.226 315.493V319.368H175.13V329.058L170.288 330.026L173.194 334.871H179.005L186.753 331.964L188.692 336.809L190.629 335.839L201.283 311.617H207.095V309.679L218.718 306.773V308.711L223.562 304.835L225.498 306.773H229.372L230.341 303.867L237.121 301.928L239.058 305.805L236.152 309.679L234.215 316.462V323.244L229.372 321.306L223.562 329.058V336.809L225.498 342.621L228.404 344.559L229.372 347.467L227.435 351.342V357.155L231.308 359.092L232.279 366.845L220.655 375.563H215.812L211.938 372.657V375.563L209.032 376.533V380.409L204.189 379.44L201.283 384.284L196.439 385.254L192.566 382.346V373.626L191.597 372.657L188.692 375.563L186.753 374.595L189.66 369.751L183.849 367.813L184.816 366.845L179.973 362.968L176.1 362L173.194 366.845L168.351 364.906L169.319 366.845L166.414 367.813L165.445 365.875L157.696 362.968V367.813L155.759 368.783L152.853 367.813V364.906L149.948 362.968H148.011L146.074 366.845L143.167 365.875L142.199 368.783L140.262 366.845V365.875Z" fill="#306EE8" fill-opacity="0.5" stroke="#0000FF" stroke-opacity="0.4" stroke-linecap="round" stroke-linejoin="round"/>
<path id="4104" class="district" name="Cần Giờ" fill-rule="evenodd" clip-rule="evenodd" d="M427.934 519.929L434.714 522.835L441.494 529.617L444.4 537.369L433.745 550.934L413.404 557.717L379.505 572.25L337.855 580L323.326 552.871L297.174 523.805L282.644 502.489L274.897 484.08L272.958 477.298L276.834 461.795V453.074L271.99 428.853L272.958 424.008L275.865 419.164L283.613 416.258L294.268 421.102L298.143 420.133L301.047 416.258V405.599L293.3 393.974V379.44L291.362 374.595L287.488 371.688L276.834 367.813L271.99 363.938L270.054 360.062L271.99 353.28L275.865 352.31L288.457 357.155L294.268 354.25V348.435L301.047 351.342L307.827 355.218L310.734 359.092L318.482 362L323.326 374.595L332.043 383.316L339.792 384.284L343.666 376.533L349.478 374.595L355.289 377.501L358.195 373.626L362.07 372.657L365.944 368.783L371.756 369.751L372.725 374.595L376.598 376.533L378.535 380.409L386.284 386.221L391.128 397.849L397.908 395.911L402.75 400.754L412.436 405.599L425.997 408.507L431.807 411.413L436.651 416.258L442.463 418.195L445.368 412.382L444.4 406.569L447.306 402.692V399.787H451.18L453.117 397.849L455.054 398.817L456.023 395.911L458.929 396.88L459.897 393.974L466.676 398.817L469.583 407.537L473.457 413.35L471.52 419.164L462.803 431.761L461.834 436.603L462.803 439.511L471.52 442.418L473.457 448.232L467.646 454.044L460.866 465.67L452.149 473.423V503.457L448.273 510.239L440.527 513.146L429.87 514.115L427.934 519.929Z" fill="#6130E8" fill-opacity="0.5" stroke="#0000FF" stroke-opacity="0.4" stroke-linecap="round" stroke-linejoin="round"/>
<path id="4103" class="district" name="Củ Chi" fill-rule="evenodd" clip-rule="evenodd" d="M183.849 120.746V124.621L191.597 131.404L198.377 132.373L204.189 129.466L206.125 130.435V142.061L209.032 149.813L207.095 163.377L211.938 169.191L209.032 174.034L187.722 177.911L172.226 175.004L173.194 171.128L160.602 167.253H158.665L160.602 174.034H147.042L145.105 175.972L128.639 176.941L98.6122 173.066L68.5858 157.563L38.5596 135.28L11.4389 138.186L0.784424 122.684L4.6588 117.839L7.56456 116.87H24.9992L34.6852 113.964L39.5282 110.088L37.591 105.244L38.5596 95.5549L41.4654 91.6792L45.3396 90.7104L47.2769 85.8659L46.3083 83.9281L48.2454 81.9902L45.3396 79.0836V70.3637L46.3083 68.4258H49.214V50.017H53.0884V45.1725L60.8371 32.577L64.7116 21.9193L62.7744 19.0124L66.6486 18.0436L72.4604 10.2924L71.4918 6.41689L67.6172 7.38579L68.5858 2.54132L70.523 0.603546L73.4288 2.54132L76.3346 1.57243L77.3032 3.51022L81.1776 4.4791L78.2718 10.2924L82.1462 13.1991L88.9264 14.1681L95.7066 12.2303L102.487 15.1369L105.392 14.1681L112.173 25.7947L116.047 28.7013L120.89 29.6704L119.922 40.3281L113.141 43.2348L117.984 51.9547L120.89 50.017L125.733 50.9859L117.984 63.5814L125.733 75.2082L134.45 79.0836L136.388 82.9593L143.167 83.9281H148.979L151.885 77.1458L157.696 81.9902L159.633 88.7725L162.54 89.7413H165.445L169.319 82.9593L172.226 83.9281L174.163 86.8347L168.351 97.4927L170.288 104.275L171.257 106.213L182.88 108.15L185.786 110.088L186.753 114.932L183.849 120.746Z" fill="#D030E8" fill-opacity="0.5" stroke="#0000FF" stroke-opacity="0.4" stroke-linecap="round" stroke-linejoin="round"/>
<path id="4102" class="district" name="Hóc Môn" fill-rule="evenodd" clip-rule="evenodd" d="M177.069 220.541L182.88 229.262L177.069 234.106L174.163 240.889L167.382 239.919L168.351 238.95L165.445 237.012L159.633 236.044L154.791 229.262L147.042 230.231L145.104 228.294L141.23 229.262L133.481 227.324L132.513 229.262L121.859 225.386L125.733 207.946L119.922 206.977L124.764 187.599L98.6122 173.066L128.639 176.941L145.104 175.972L147.042 174.034H160.602L158.665 167.253L173.194 171.129L172.226 175.004L187.722 177.911L209.032 174.034L211.938 169.191L219.686 173.066L229.372 171.129L232.279 173.066L237.121 184.693L234.215 187.599L229.372 189.537L228.404 185.662L221.622 187.599L220.655 194.382H210L209.032 191.475L194.503 194.382L192.566 198.258L189.66 200.195L191.597 202.132L185.786 208.915L182.88 209.883V211.821L177.069 220.541Z" fill="#E83092" fill-opacity="0.5" stroke="#0000FF" stroke-opacity="0.4" stroke-linecap="round" stroke-linejoin="round"/>
<path id="4101" class="district" name="Nhà Bè" fill-rule="evenodd" clip-rule="evenodd" d="M259.399 410.445V408.507L256.492 406.569L258.431 403.662L255.524 399.787L258.431 397.849L259.399 394.942L265.21 396.879V394.942H263.273L262.304 392.036L265.21 387.192L262.304 386.221L263.273 383.316H265.21L263.273 377.501L260.368 376.533L258.431 370.721H255.524L242.932 364.906L240.028 367.813L236.152 368.783L231.308 359.092L227.435 357.155V351.342L229.372 347.467L228.404 344.559L225.498 342.621L223.562 336.809V329.058L229.372 321.306L234.215 323.244L235.184 313.555H246.807L247.775 317.431L250.682 316.462L255.524 318.4L257.461 315.493L260.368 316.462L258.431 320.338L260.368 323.244L259.399 328.088L262.304 332.933H265.21L268.114 329.058L278.771 328.088L282.644 335.839L294.268 348.435V354.25L291.362 356.187L288.457 357.155L275.865 352.31L271.99 353.28L270.054 360.062L271.99 363.938L276.834 367.813L287.488 371.688L291.362 374.595L293.3 379.44V393.974L301.047 405.599V416.258L298.143 420.132L294.268 421.102L283.613 416.258L278.771 417.228L274.896 421.102L271.99 418.196L268.114 420.132L267.148 419.164L270.054 417.228L269.085 413.35H267.148V416.258L265.21 418.196H262.304L259.399 412.382V410.445Z" fill="#E83D30" fill-opacity="0.5" stroke="#0000FF" stroke-opacity="0.4" stroke-linecap="round" stroke-linejoin="round"/>
</g>
</svg>
