<svg width="734" height="451" viewBox="0 0 734 451" fill="none" xmlns="http://www.w3.org/2000/svg">
<g id="43" name="Đà Nẵng">
<path class="district" id="4307" name="Cẩm Lệ" fill-rule="evenodd" clip-rule="evenodd" d="M553.847 337.623L556.738 332.806V327.025L559.626 324.135L561.553 310.648L559.626 306.795L549.032 319.319L536.511 327.989L516.284 334.732V336.659L520.136 338.587L517.246 340.513H501.836L497.982 338.587L495.094 340.513L482.573 338.587L480.646 339.55L479.683 332.806L482.573 318.355L492.203 313.538L499.909 306.795L496.057 295.233V290.417L489.316 289.453L495.094 284.636L489.316 276.929V275.002L496.057 266.332L499.909 264.405L497.982 256.699L498.946 248.99L499.909 250.918L502.799 249.954L501.836 246.099L509.542 241.284L526.879 294.271L528.806 298.123L531.693 300.05L550.959 294.271L549.995 275.965L558.663 278.857L559.626 286.563L561.553 287.527L564.444 295.233L569.259 298.123L575.038 292.344L581.78 289.453H585.632L593.337 298.123L594.301 301.978L606.822 305.832L607.786 308.721L603.934 311.611L592.374 304.868L586.595 311.611L584.67 323.172L579.853 329.917L581.78 336.659L580.816 341.477L577.927 345.329L567.332 350.147V353.038L570.223 355.928V362.672L562.517 372.304H559.626V367.489L553.847 365.562L552.884 362.672L551.921 356.892L557.701 349.183L552.884 348.22L554.811 338.587L553.847 337.623Z" fill="#0051E6" fill-opacity="0.4" stroke="#0000FF" stroke-opacity="0.4" stroke-linecap="round" stroke-linejoin="round"/>
<path class="district" id="4306" name="Hải Châu" fill-rule="evenodd" clip-rule="evenodd" d="M569.259 298.123L564.444 295.233L561.553 287.527L559.626 286.563L558.663 278.857L549.995 276.929L550.959 294.271L531.693 300.05L528.806 298.123L526.879 294.271L523.988 283.672L533.62 278.857L522.063 250.918L525.915 248.027V245.137L528.806 241.284V237.429L542.289 236.467L548.068 248.99L546.142 249.954L550.959 248.99L553.847 254.772L556.738 249.954L559.626 235.503L556.738 220.088L552.884 222.978V221.052L546.142 216.235L549.032 209.491V201.784L556.738 199.858L559.626 191.188L563.48 194.078L566.369 191.188L576.002 211.418L576.964 250.918L586.595 267.295L589.485 279.82L587.558 288.49L575.038 292.344L569.259 298.123Z" fill="#25A8F9" fill-opacity="0.4" stroke="#0000FF" stroke-opacity="0.4" stroke-linecap="round" stroke-linejoin="round"/>
<path class="district" id="4305" name="Liên Chiểu" fill-rule="evenodd" clip-rule="evenodd" d="M545.178 1.39795L552.884 6.21493L554.811 11.032L551.921 15.8489L552.884 17.7757L549.995 20.6659L550.959 23.5561L549.032 24.5195L543.253 21.6292L540.363 22.5926L536.511 18.739L539.399 13.9221V9.10512L543.253 2.36135L545.178 1.39795ZM479.683 281.747L472.941 280.783L471.014 278.857L457.529 281.747L451.75 273.075L449.823 274.039L444.044 265.369L438.266 260.551L445.971 250.918L446.934 238.393L434.414 233.576L423.818 232.612V219.126L419.002 209.491L420.929 199.858L427.672 197.93L435.377 201.784L431.524 196.003V193.114L425.745 195.039L421.893 187.333L418.039 184.443L419.966 182.517V179.627L421.893 178.663V174.809H419.002V172.883H420.929L423.818 169.993H426.708L425.745 163.248L417.075 166.139L414.187 172.883L402.627 177.699L401.664 174.809L398.775 172.883L394.921 160.358V154.578L391.07 145.908L393.961 143.017L392.034 140.127L392.997 132.42L390.107 127.603L380.476 128.567L381.437 123.749L389.143 118.932L391.07 103.518L392.997 101.591L388.18 67.8723L390.107 64.0186L398.775 58.2384L405.517 59.2016L414.187 64.9821H421.893L424.781 66.9089L433.451 63.0553L448.861 52.458L460.419 40.8972L470.05 37.0436L476.793 38.9704L478.719 30.2997L498.946 37.0436L507.615 31.2631L531.693 25.4829L529.769 34.1534L531.693 38.9704L530.733 40.8972L520.136 38.007L518.21 40.8972L510.504 38.9704L505.688 41.8606L503.761 46.6775L500.873 48.6044L496.057 47.6409L492.203 49.5678L489.316 47.6409L481.61 53.4214H476.793L473.904 58.2384L472.941 66.9089V75.5794L474.867 79.433L470.05 86.1769L471.014 90.0304L473.904 90.9938V94.8474L469.088 96.7742L465.235 95.8108L464.271 90.9938L460.419 90.0304L452.713 93.8839L450.786 99.6644V108.335L451.75 115.079L454.64 117.969L453.677 119.895L449.823 124.713L445.971 126.639L443.081 124.713L441.156 125.676L437.303 122.785L432.487 128.567L431.524 136.274L433.451 149.76L442.12 158.432L446.934 159.395L442.12 162.285L452.713 179.627L474.867 200.82L497.982 215.272L495.094 219.126L503.761 224.905L504.725 228.76L502.799 230.687L507.615 240.32L508.578 239.357L509.542 241.284L501.836 246.099L502.799 249.954L499.909 250.918V248.99L497.982 252.844L499.909 264.405L496.057 266.332L487.388 275.965L485.461 280.783H482.573L481.61 282.708L479.683 281.747Z" fill="#387109" fill-opacity="0.4" stroke="#0000FF" stroke-opacity="0.4" stroke-linecap="round" stroke-linejoin="round"/>
<path class="district" id="4304" name="Ngũ Hành Sơn" fill-rule="evenodd" clip-rule="evenodd" d="M615.491 371.341L602.007 376.159L599.116 379.049V380.977L582.743 385.792L583.706 387.719L579.853 388.683L581.779 392.537L573.111 395.426L574.075 389.647L572.148 386.756L567.332 384.829L562.517 372.304L570.223 362.672V355.928L567.332 353.038V350.147L577.927 345.329L580.816 341.477L581.779 336.659L579.853 329.917L584.67 323.172L586.595 311.611L592.374 304.868L603.934 311.611L607.786 308.721L606.822 305.832L594.301 301.978L593.337 298.123L585.632 289.453L587.558 288.49L589.485 279.82L586.595 267.295L579.853 256.699H587.558L590.449 253.808L605.859 248.027L608.749 259.588L627.048 303.904L660.759 373.268L652.093 377.123L646.312 381.94L644.387 385.792L641.497 386.756L634.754 385.792L633.791 381.94L624.16 384.829L622.233 379.049L623.196 373.268L615.491 371.341Z" fill="#485579" fill-opacity="0.4" stroke="#0000FF" stroke-opacity="0.4" stroke-linecap="round" stroke-linejoin="round"/>
<g class="district" id="4303" name="Sơn Trà">
<path id="Vector" fill-rule="evenodd" clip-rule="evenodd" d="M590.449 253.808L587.558 256.699H579.853L576.964 250.918L576.002 211.418L566.369 191.188L573.11 188.297L571.186 173.845L576.964 171.919L578.889 183.479H575.038L576.002 185.407L586.595 179.627L587.558 181.553L593.337 179.627L591.412 176.735L590.449 178.663L591.412 174.809L595.264 179.627L588.522 182.517L589.485 188.297L587.558 193.114L590.449 196.003L599.116 179.627L596.228 170.955H594.301L597.191 169.993L598.155 168.065L589.485 167.102L587.558 166.139L588.522 164.212L584.67 162.285L583.706 163.248L580.816 160.358L575.038 161.322L571.186 157.468H569.259L571.186 156.504L569.259 154.578L565.405 158.432H567.332L565.405 159.395L566.369 163.248L562.517 161.322L560.59 157.468L558.663 158.432L560.59 156.504L559.626 155.542L556.738 153.614L560.59 148.798L565.405 150.724L568.296 149.76L569.259 140.127L573.11 137.237L574.074 134.347L576.964 135.31L580.816 130.493V124.713L583.706 122.785L581.78 113.152L583.706 112.189L587.558 116.042L592.374 112.189L595.264 113.152L603.934 104.481L622.233 108.335L627.049 119.895L633.791 126.639H636.681L635.718 128.567L639.572 134.347L645.351 137.237L648.239 133.383L654.018 130.493L661.723 131.457L671.356 137.237L679.062 148.798L686.767 151.688L691.583 150.724L694.472 147.834L693.51 139.164L697.362 133.383V124.713L702.177 119.895L712.773 125.676L724.331 146.87L733 154.578V159.395L725.294 158.432L717.588 163.248L708.919 161.322L702.177 166.139L695.435 167.102L691.583 176.735L693.51 187.333L691.583 190.224L688.693 191.188H684.841L680.025 186.369L680.987 184.443L678.098 178.663L673.283 176.735H668.465L659.799 179.627L652.093 189.26H646.314L642.46 187.333L637.645 188.297L636.681 191.188L633.791 192.15L634.754 191.188L629.939 185.407V183.479L626.085 182.517L616.455 186.369L605.859 215.272V248.027L601.043 249.954L590.449 253.808Z" fill="#A79700" fill-opacity="0.4"/>
<path id="Vector_2" d="M559.626 155.542L560.59 156.504L558.663 158.432L560.59 157.468L562.517 161.322L566.369 163.248L565.405 159.395L567.332 158.432H565.405L569.259 154.578L571.186 156.504L569.259 157.468H571.186L575.038 161.322L580.816 160.358L583.706 163.248L584.67 162.285L588.522 164.212L587.558 166.139L589.485 167.102L598.155 168.065L597.191 169.993L594.301 170.955H596.228L599.116 179.627L590.449 196.003L587.558 193.114L589.485 188.297L588.522 182.517L595.264 179.627L591.412 174.809L590.449 178.663L591.412 176.735L593.337 179.627L587.558 181.553L586.595 179.627L576.002 185.407L575.038 183.479H578.889L576.964 171.919L571.186 173.845L573.11 188.297L566.369 191.188L576.002 211.418L576.964 250.918L579.853 256.699H587.558L590.449 253.808L601.043 249.954L605.859 248.027V215.272L616.455 186.369L626.085 182.517L629.939 183.479V185.407L634.754 191.188L633.791 192.15L636.681 191.188L637.645 188.297L642.46 187.333L646.314 189.26H652.093L659.799 179.627L668.465 176.735H673.283L678.098 178.663L680.987 184.443L680.025 186.369L684.841 191.188H688.693L691.583 190.224L693.51 187.333L691.583 176.735L695.435 167.102L702.177 166.139L708.919 161.322L717.588 163.248L725.294 158.432L733 159.395V154.578L724.331 146.87L712.773 125.676L702.177 119.895L697.362 124.713V133.383L693.51 139.164L694.472 147.834L691.583 150.724L686.767 151.688L679.062 148.798L671.356 137.237L661.723 131.457L654.018 130.493L648.239 133.383L645.351 137.237L639.572 134.347L635.718 128.567L636.681 126.639H633.791L627.049 119.895L622.233 108.335L603.934 104.481L595.264 113.152L592.374 112.189L587.558 116.042L583.706 112.189L581.78 113.152L583.706 122.785L580.816 124.713V130.493L576.964 135.31L574.074 134.347L573.11 137.237L569.259 140.127L568.296 149.76L565.405 150.724L560.59 148.798L556.738 153.614L559.626 155.542ZM559.626 155.542L557.701 157.468" stroke="#0000FF" stroke-opacity="0.4" stroke-linecap="round" stroke-linejoin="round"/>
</g>
<path class="district" id="4302" name="Thanh Khê" fill-rule="evenodd" clip-rule="evenodd" d="M528.806 298.123L518.21 270.184L509.542 241.284L508.578 239.357L507.615 240.32L502.8 230.687L504.725 228.76L503.761 224.905L495.094 219.126L497.982 215.272L519.173 222.978L534.584 224.905L540.363 223.942L546.142 216.235L552.884 221.052V222.978L556.738 220.088L559.626 235.503L556.738 249.954L553.847 254.772L550.959 248.99L546.142 249.954L548.069 248.99L542.29 236.467L528.806 237.429V241.284L525.914 245.137V248.027L522.063 250.918L533.62 278.857L523.989 283.672L526.879 294.271L528.806 298.123Z" fill="#B73A67" fill-opacity="0.4" stroke="#0000FF" stroke-opacity="0.4" stroke-linecap="round" stroke-linejoin="round"/>
<path class="district" id="4301" name="Hòa Vang" fill-rule="evenodd" clip-rule="evenodd" d="M573.11 395.426L570.223 403.134L571.186 407.951L566.369 409.877L564.444 408.913V405.062H561.553V409.877L553.847 414.694L547.105 408.913V397.353L543.253 394.464L546.142 386.756L543.253 383.866L535.547 385.792V382.902L532.657 383.866V385.792L526.878 384.829V386.756H520.136L521.1 382.902L517.246 381.94L516.284 393.5L511.467 397.353L512.431 408.913L509.542 418.549H504.725L501.836 416.622L498.946 418.549L496.057 416.622L493.167 409.877H491.24L489.315 406.025V401.207L485.461 404.098L473.904 400.244L470.05 405.062L465.235 429.147L460.419 428.183L458.492 430.109L457.529 429.147L456.565 431.073L450.786 432.037L436.338 425.292L433.451 420.474L422.854 415.658L419.002 410.841L412.26 406.988L399.738 416.622L392.034 419.513L389.143 424.328L383.364 426.256L379.512 437.816L371.806 440.707L354.468 438.779L344.838 433.962L343.874 428.183H339.059V430.109H321.72L315.941 426.256L304.384 429.147L292.825 435.889L286.082 432.998L285.121 435.889L277.415 438.779L270.672 444.56H267.782L266.819 446.486H252.371L248.519 450.341L244.667 448.413L237.925 450.341L235.034 448.413L207.102 426.256L199.396 416.622L195.544 415.658L190.727 407.951L187.838 406.988L186.875 404.098L189.765 402.171L192.654 393.5L196.508 391.574L197.471 384.829L195.544 380.977L197.471 377.123L203.25 374.232L205.175 370.378L218.659 362.672L224.44 353.038L227.329 352.074L228.292 349.183H231.182V340.513L233.107 335.696L232.144 332.806L234.071 325.099L232.144 322.208L235.034 318.355L235.998 313.538L231.182 312.574L217.698 302.942L215.772 301.014L214.808 291.38L204.214 283.672L202.287 278.857L199.396 276.929V260.551L203.25 251.882V237.429L201.323 236.467L195.544 238.393L172.427 248.027L146.422 263.442L139.679 265.369L120.416 281.747L113.674 274.039L108.858 273.075L106.931 261.514H101.152L93.4468 258.624L90.5571 255.735H84.7782L78.0359 251.882L73.2199 245.137L65.5144 241.284L56.8459 243.211L52.0299 241.284L48.1773 245.137L44.3245 242.248L34.6926 243.211L26.024 248.027L25.0609 250.918L23.1345 251.882L9.64995 248.99L0.981323 250.918L3.87086 247.063L6.76041 234.539L12.5395 228.76V224.905L8.68676 215.272L9.64995 209.49L13.5027 206.602L16.3922 198.894L23.1345 195.039L24.0976 189.26L28.9136 184.443L39.5085 178.663L56.8459 165.175L55.8826 147.834L62.6249 133.383L58.7722 126.639L60.6985 123.749L59.7354 120.859L62.6249 118.933L60.6985 107.372L71.2937 100.628H79.9622L82.8518 98.701L83.8149 94.8474L84.7782 88.1035L82.8518 79.433L78.999 70.7625L72.2568 63.0553L84.7782 56.3116L85.7413 50.5311L82.8518 44.7508L88.6308 40.8972L100.189 39.9338L102.115 38.007L104.042 30.2998L111.747 31.2633L123.306 24.5195L126.195 18.7392H130.047L133.9 15.849L158.943 41.8606L166.649 45.7142L179.17 47.6409L190.727 53.4214L196.508 54.3847L214.808 48.6045L219.623 41.8606L228.292 35.1167L230.219 29.3365L241.777 18.7392L249.483 25.4828L256.225 27.4097L262.003 31.2633H265.855L271.636 40.8972L279.34 47.6409L285.121 46.6775L302.457 52.458H312.089L332.316 64.0186L338.095 68.8357H342.911L349.652 62.0919L356.395 64.0186L365.064 63.0553L376.622 65.9455L378.549 64.9821L388.18 67.8723L392.997 101.591L391.07 103.518L389.143 118.933L381.437 123.749L380.476 128.566L390.107 127.603L392.997 132.42L392.034 140.127L393.961 143.017L391.07 145.908L392.034 150.724L394.921 154.578V160.358L398.775 172.883L401.664 174.809L402.627 177.699L414.187 172.883L417.075 166.139L425.745 163.248L426.708 169.993H423.818L420.929 172.883H419.002V174.809H421.893V178.663L419.966 179.627V182.517L418.039 184.443L421.893 187.333L425.745 195.039L431.524 193.114V196.003L435.377 201.784L427.672 197.93H422.854L420.929 199.858L419.002 209.49L423.818 219.126V232.612L434.414 233.575L446.934 238.393L445.971 250.918L438.265 259.588L449.823 274.039L451.75 273.075L457.529 281.747L471.014 278.857L472.941 280.784L481.61 282.708L482.573 280.784H485.461L487.388 275.965L489.315 275.002V276.929L495.094 284.636L489.315 289.453L496.057 290.417V295.233L499.909 306.795L492.203 313.538L482.573 318.355L479.683 332.806L480.646 339.55L482.573 338.587L495.094 340.513L497.982 338.587L501.836 340.513H517.246L520.136 338.587L516.284 336.659V334.732L536.511 327.989L549.032 319.319L559.626 306.795L561.553 310.648L559.626 324.135L556.738 327.025V332.806L553.847 337.623L554.811 340.513L552.884 348.22L557.701 349.183L551.921 356.892L552.884 362.672L553.847 365.562L559.626 367.489V372.304H562.517L567.332 384.829L572.147 386.756L574.074 389.647L573.11 395.426Z" fill="#B0279C" fill-opacity="0.4" stroke="#0000FF" stroke-opacity="0.4" stroke-linecap="round" stroke-linejoin="round"/>
</g>
</svg>
