<svg width="532" height="454" viewBox="0 0 532 454" fill="none" xmlns="http://www.w3.org/2000/svg">
<g id="47" name="Đắk Lắk">
<path id="4715" class="district" name="TP Buôn Ma Thuột" fill-rule="evenodd" clip-rule="evenodd" d="M194.481 307.483H190.628L185.812 304.592L183.885 305.556L178.105 302.665L175.216 303.629L173.289 298.81L170.399 296.883L165.583 302.665L166.546 305.556L163.656 310.374L154.986 311.338L154.023 309.411L149.207 311.338L143.427 309.411L149.207 303.629L156.913 301.701L158.84 299.774V296.883L156.913 295.919L155.95 293.028L156.913 290.137L155.95 288.21H154.023V278.573H149.207L148.243 276.645L151.133 274.718L148.243 266.045L150.17 262.19L156.913 263.154L165.583 267.972H169.436L171.362 270.863L175.216 269.9L177.142 265.081V259.299L170.399 247.735L169.436 244.844L171.362 242.916L174.252 245.808L180.032 243.88V245.808L186.775 246.771L191.592 245.808L192.555 242.916L203.151 243.88V241.953L209.894 244.844L211.821 238.098L212.784 239.062L211.821 234.243H214.711L215.674 236.171L221.454 237.134L222.417 243.88L223.38 242.916L227.233 245.808L231.087 243.88L233.976 249.662H236.866V251.59H238.793L239.756 253.517L234.94 254.481L233.976 258.335H237.83L232.05 261.226L231.087 260.263L228.197 262.19L227.233 265.081L229.16 266.045L230.123 272.791H233.976L233.013 276.645L229.16 275.682L226.27 277.609H222.417L215.674 284.355L211.821 285.319V287.246L210.857 284.355L207.968 282.428L206.041 284.355L207.004 289.173L204.114 291.101L205.078 292.064H203.151L207.004 297.847H209.894L210.857 304.592L208.931 306.52V311.338L204.114 312.302L194.481 308.447V307.483Z" fill="#D147AC" fill-opacity="0.5" stroke="#0000FF" stroke-opacity="0.4" stroke-linecap="round" stroke-linejoin="round"/>
<path id="4714" class="district" name="Buôn Hồ" fill-rule="evenodd" clip-rule="evenodd" d="M292.737 225.57L290.811 228.461L288.884 240.989L285.031 237.134L273.471 240.025L271.545 238.098H260.949L259.022 229.425L250.352 224.606L255.169 216.897L253.242 214.006L248.426 212.078V208.224L252.279 202.442L259.022 198.587L256.132 193.768L257.095 186.059H260.949L262.875 183.168V180.277L259.022 175.458L261.912 176.422L268.655 169.676L271.545 172.567L272.508 170.64L276.361 169.676L277.325 173.531H279.251L280.214 176.422H286.957V179.313L288.884 181.241H290.811L291.774 178.349H298.517L309.113 187.023L312.003 200.514V208.224L303.333 212.078L305.26 216.897L302.37 217.861V220.752L298.517 221.715L292.737 225.57Z" fill="#D1475A" fill-opacity="0.5" stroke="#0000FF" stroke-opacity="0.4" stroke-linecap="round" stroke-linejoin="round"/>
<path id="4713" class="district" name="Buôn Đôn" fill-rule="evenodd" clip-rule="evenodd" d="M177.142 259.299L176.179 267.972L171.362 270.863L169.436 267.972H165.583L156.913 263.154L150.17 262.19L147.28 256.408L145.354 255.444V252.553L149.207 247.735L150.17 243.88L135.721 240.025L130.904 236.171L131.868 233.28L129.941 231.352L133.794 223.643L128.978 218.824L119.345 223.643L117.418 226.534H115.492V228.461L113.565 227.497L114.528 228.461L112.602 230.389L108.749 229.425L101.042 231.352L93.3359 230.389L91.4093 228.461L87.5561 229.425L70.2169 226.534L63.4738 223.643L56.7308 224.606L51.9143 221.715L44.208 224.606L41.3181 221.715L37.465 224.606H27.832L26.8688 221.715H24.9422V215.933L22.0523 214.97L21.089 211.115L15.3093 208.224L12.4194 202.442H10.4928V198.587L7.60293 197.623L5.67635 194.732V189.914L3.74977 187.986L5.67635 186.059L4.71306 184.132L6.63964 181.241L4.71306 180.277L3.74977 173.531L0.859894 170.64V165.822L2.78648 163.894L1.82319 161.003L7.60293 160.039L4.71306 156.185L5.67635 152.33L2.78648 148.475V139.802L10.4928 120.528L23.0156 118.601L41.3181 123.419L60.584 126.31L71.1802 125.347L82.7397 134.984L84.6662 138.838L101.042 154.257L108.749 151.366L124.161 153.294L128.014 151.366L127.051 153.294L130.904 157.148L135.721 156.185L139.574 158.112L140.537 161.003L150.17 164.858H154.986L149.207 161.003V159.076L151.133 160.039L159.803 157.148L168.473 147.512L171.362 161.003L169.436 164.858L166.546 165.822L163.656 172.567L154.986 183.168L155.95 194.732L158.84 196.66L154.023 209.187L154.986 212.078L152.097 214.97L159.803 215.933V219.788L162.693 221.715L161.73 222.679L164.619 223.643L165.583 221.715L170.399 222.679L174.252 219.788V217.861H176.179V219.788L182.922 220.752V228.461H184.849L182.922 236.171L185.812 240.025L191.592 242.916V245.808H180.032V243.88L175.216 245.808L171.362 242.916L169.436 244.844L176.179 259.299H177.142Z" fill="#D18847" fill-opacity="0.5" stroke="#0000FF" stroke-opacity="0.4" stroke-linecap="round" stroke-linejoin="round"/>
<path id="4712" class="district" name="Cư Kuin" fill-rule="evenodd" clip-rule="evenodd" d="M240.719 332.539L241.683 330.612L239.756 322.902L222.417 321.939L223.38 314.229H211.821V312.302L208.931 311.338V307.483L210.857 304.592L209.894 297.847H207.004V295.919L203.151 293.028L205.078 290.137H207.004L206.041 285.319L207.968 282.428L210.857 284.355L211.821 288.21V286.282L217.6 283.391L221.454 277.609L229.16 275.682L233.013 277.609V274.718L236.866 275.682L244.573 271.827L256.132 272.791L259.022 280.5L258.059 284.355H261.912L264.802 281.464L271.545 279.537L272.508 277.609L279.251 280.5L281.178 286.282L279.251 291.101V304.592L278.288 306.52L271.545 310.374L268.655 317.12L269.618 320.975L264.802 324.83H260.949L259.985 327.721V322.902L258.059 323.866V325.793L257.095 324.83L255.169 326.757H253.242L254.206 324.83L251.316 323.866L248.426 326.757L247.462 325.793V327.721H245.536L242.646 334.467L241.683 331.576L240.719 332.539Z" fill="#B7E830" fill-opacity="0.5" stroke="#0000FF" stroke-opacity="0.4" stroke-linecap="round" stroke-linejoin="round"/>
<path id="4711" class="district" name="Cư M'gar" fill-rule="evenodd" clip-rule="evenodd" d="M259.985 242.916L254.206 240.989L252.279 247.735H250.352V245.807L246.499 246.771V250.626L239.756 253.517V251.59L233.976 249.662L231.087 242.916L228.197 245.807H226.27L223.38 242.916L222.417 243.88V237.134H218.564L214.711 234.243H211.821L212.784 239.062H210.857V244.844L203.151 241.953V243.88L192.555 242.916L183.885 238.098V230.389L184.849 231.352L185.812 228.461H183.885L182.922 220.752L176.179 219.788V217.861H174.252V219.788H172.326L170.399 222.679L166.546 221.715L165.583 223.643L159.803 220.752V216.897L153.06 214.97L158.84 196.66L155.95 195.696L154.987 183.168L163.656 172.567L166.546 165.822L169.436 164.858L171.362 161.003L170.399 160.039L172.326 159.076L169.436 156.185V148.475L166.546 145.584L172.326 141.729L175.216 143.657L178.106 141.729L179.069 142.693V140.766L180.032 141.729L181.959 139.802L180.995 133.056L182.922 130.165V132.093L184.849 130.165L186.775 126.31L192.555 123.419L195.445 124.383L194.481 127.274L197.371 129.201L196.408 131.129L199.298 132.093L197.371 133.056L200.261 134.02L201.225 132.093L205.078 133.056L206.041 130.165L208.931 131.129L206.041 129.201L209.894 128.238L208.931 127.274L210.857 125.347V127.274H212.784L213.747 130.165H219.527L220.49 133.056L219.527 134.984L217.6 134.02L216.637 136.911L218.564 140.766L216.637 148.475L218.564 156.185L227.233 161.967V164.858L233.976 158.112L237.83 161.003H241.683V165.822L252.279 171.604L250.352 182.204L251.316 186.059H257.095L256.132 193.768L257.095 196.66L259.022 197.623L249.389 205.333L247.462 212.078L253.242 214.006L255.169 216.897L250.352 224.606L259.022 229.425L260.949 238.098L259.022 239.062V241.953L259.985 242.916Z" fill="#49E830" fill-opacity="0.5" stroke="#0000FF" stroke-opacity="0.4" stroke-linecap="round" stroke-linejoin="round"/>
<path id="4710" class="district" name="Ea H'leo" fill-rule="evenodd" clip-rule="evenodd" d="M344.755 98.3635L335.122 97.3999L333.195 98.3635V100.291L318.746 99.3272L315.856 101.255H313.93L312.966 98.3635L309.113 106.073L303.333 100.291L304.297 99.3272L301.407 98.3635L297.554 100.291L291.774 97.3999L290.811 102.218L288.884 103.182L276.361 107.037L271.545 105.109V108.964L270.581 108L259.985 112.819H257.095L255.169 108.964L250.352 107.037H240.719L239.756 104.146L238.793 108L231.087 110.891L227.233 119.565L220.49 123.419V125.347L216.637 127.274V130.165H214.711L212.784 127.274L211.821 128.238L210.857 125.347L208.931 127.274L209.894 128.238L206.041 129.201L208.931 131.129L206.041 130.165L205.078 133.056L201.225 132.093L200.261 134.02H197.371L199.298 131.129H196.408L197.371 130.165L194.481 127.274L198.335 120.528L199.298 114.746L184.849 113.783L177.142 110.891L176.179 108L177.142 106.073L175.216 94.5088L172.326 91.6177L177.142 87.763V85.8356H179.069L177.142 81.0172L178.106 71.3803L175.216 67.5256H173.289L181.959 60.7798V46.3245L176.179 42.4698L177.142 40.5424L175.216 39.5787L176.179 38.615L174.252 36.6876L172.326 22.2323L169.436 18.3776L166.546 17.4139L165.583 13.5592L169.436 14.5229L175.216 12.5955V9.70442L180.995 10.6681L184.849 13.5592L189.665 11.6318L190.628 8.74074H192.555L195.445 5.84968L196.408 6.81337L200.261 1.99494L204.114 3.92231L206.041 2.95862L207.968 6.81337L209.894 4.88599V6.81337L210.857 4.88599L218.564 2.95862L220.49 1.03125L225.307 3.92231H232.05L234.94 6.81337H238.793L240.719 9.70442H242.646L243.609 12.5955L253.242 16.4502L255.169 15.4865L256.132 18.3776H272.508L274.435 16.4502L283.104 25.1234L285.994 24.1597L295.627 27.0508L297.554 28.9781H302.37V31.8692H304.297L306.223 37.6513H308.15L312.003 42.4698V54.9977H313.93L317.783 58.8524H321.636L323.563 56.925L325.489 58.8524V61.7435L329.342 64.6345V68.4893L327.416 71.3803L330.306 77.1624L329.342 78.1261L334.159 85.8356L343.792 92.5814V97.3999L344.755 98.3635Z" fill="#30E886" fill-opacity="0.5" stroke="#0000FF" stroke-opacity="0.4" stroke-linecap="round" stroke-linejoin="round"/>
<path id="4709" class="district" name="Ea Kar" fill-rule="evenodd" clip-rule="evenodd" d="M417.965 288.21V292.064L410.259 298.81L406.406 297.847L392.919 304.592L386.176 301.701H379.433L373.654 296.883V298.81L371.727 299.774L363.057 297.847L361.131 293.992L356.314 293.028V294.955H352.461L348.608 289.173L351.498 281.464L356.314 274.718L348.608 261.226V263.154L342.828 262.19L344.755 252.553L339.938 250.626L337.049 251.59V245.807L339.938 243.88V241.953H341.865L337.049 240.025L338.012 239.062L333.195 234.243L328.379 218.824L316.819 214.97L315.856 212.078L312.003 209.187L317.783 201.478L322.599 202.442L327.416 198.587L334.159 197.623L338.975 187.986L338.012 179.313L339.938 177.386L341.865 178.349L343.792 176.422V179.313L342.828 178.349L345.718 183.168V180.277L351.498 184.132L352.461 183.168L353.425 185.095L363.057 181.241L364.021 179.313L357.278 174.495L355.351 162.93L356.314 161.967L350.535 159.076V150.403L348.608 144.62L354.388 143.657L355.351 139.802L366.911 138.838L380.397 143.657L384.25 140.766H389.066L396.773 148.475L407.369 147.512L409.295 150.403L412.185 151.366L415.075 149.439L418.928 152.33V156.185L420.855 158.112H424.708V160.039L429.525 163.894L427.598 168.713L428.561 171.604H430.488L433.378 174.495L435.304 180.277L426.635 183.168H418.928L399.663 187.023L395.809 192.805V199.551L392.919 198.587L390.03 201.478L388.103 210.151L390.993 214.006V217.861H389.066L385.213 223.643L389.066 229.425L394.846 234.243L414.112 233.28L418.928 234.243L421.818 238.098L422.781 245.807L418.928 249.662H413.149L411.222 252.553V254.481L418.928 256.408L417.965 258.335L420.855 266.045L419.892 267.009L424.708 272.791L423.745 274.718L425.671 281.464L424.708 283.391L419.892 282.428L417.965 286.282V288.21Z" fill="#30DCE8" fill-opacity="0.5" stroke="#0000FF" stroke-opacity="0.4" stroke-linecap="round" stroke-linejoin="round"/>
<path id="4708" class="district" name="Ea Súp" fill-rule="evenodd" clip-rule="evenodd" d="M178.105 141.729L175.216 143.657L173.289 141.729L166.546 145.584L167.509 147.512L162.693 155.221L159.803 157.148L152.097 160.039L150.17 159.076L149.207 160.039L155.95 164.858H150.17L140.537 161.003L139.574 158.112L135.721 156.185L130.904 157.148L127.051 153.294L128.014 151.366L124.161 153.294L108.749 151.366L101.042 154.257L98.1523 149.439H96.2257L84.6662 139.802L82.7396 134.984L71.1801 125.347L60.5839 126.31L41.3181 123.419L23.0156 118.601L10.4928 120.528L43.2447 41.5061L47.0979 38.615L51.9143 37.6513V35.7239L55.7675 32.8329L57.6941 33.7966L58.6574 28.0144L63.4738 25.1234H66.3637L67.327 22.2323L73.1067 19.3413L75.0333 16.4502H82.7396L83.7029 18.3776H89.4827L93.3358 20.305L94.2991 17.4139H97.189L99.1156 19.3413L110.675 13.5592L111.638 8.74073L117.418 9.70441L125.124 6.81335L129.941 10.6681L140.537 9.70441L141.5 12.5955L149.207 10.6681L154.023 14.5228L161.73 16.4502L163.656 12.5955L166.546 13.5592L165.583 15.4865L172.326 22.2323L176.179 42.4697L181.959 45.3608V60.7798L173.289 67.5256H175.216L176.179 70.4166L178.105 71.3803L177.142 80.0535L179.069 85.8356H177.142V87.763L172.326 91.6177L175.216 93.5451L177.142 106.073L176.179 108.964L180.032 111.855L188.702 114.746H199.298L198.335 120.528L194.481 124.383L192.555 123.419L186.775 126.31L183.885 132.093L182.922 130.165L181.959 131.129V138.838L180.032 141.729L179.069 140.766V142.693L178.105 141.729Z" fill="#306EE8" fill-opacity="0.5" stroke="#0000FF" stroke-opacity="0.4" stroke-linecap="round" stroke-linejoin="round"/>
<path id="4707" class="district" name="Krông Ana" fill-rule="evenodd" clip-rule="evenodd" d="M207.968 355.668L205.078 357.595L202.188 356.631L196.408 361.45H193.518L192.555 359.522L188.702 361.45L189.665 362.414L186.775 363.377L185.812 365.305L177.142 368.196L165.583 367.232L162.693 363.377H160.766V360.486H154.987V356.631L156.913 358.559V355.668L162.693 352.777L165.583 351.813L170.399 353.74L176.179 349.886L177.142 346.995H179.069L180.032 341.212L181.959 339.285L180.995 335.43L179.069 336.394V333.503L175.216 332.539L172.326 327.721L163.656 323.866L160.766 320.975L150.17 321.939L144.39 317.12H142.464V313.266L145.354 312.302V310.374H163.656L169.436 296.883L173.289 298.81V300.738L176.179 303.629L178.105 302.665L185.812 304.592L190.628 307.483L192.555 306.52L204.114 312.302L210.857 311.338L211.821 314.229L221.454 313.266L223.38 314.229L222.417 321.939H239.756V326.757L241.683 330.612L240.719 332.539H242.646L244.573 337.358L242.646 340.249L244.573 341.212L241.683 342.176V346.995L238.793 349.886L236.866 356.631L233.013 354.704L231.087 356.631L229.16 354.704V356.631H226.27L227.233 359.522L225.307 356.631V359.522L220.49 361.45L219.527 359.522L216.637 360.486V358.559L213.747 355.668H208.931H207.968Z" fill="#6130E8" fill-opacity="0.5" stroke="#0000FF" stroke-opacity="0.4" stroke-linecap="round" stroke-linejoin="round"/>
<path id="4706" class="district" name="Krông Bông" fill-rule="evenodd" clip-rule="evenodd" d="M362.094 410.598L358.241 408.67L357.278 409.634V405.779L354.388 400.961L351.498 399.997L356.314 394.215H358.241L348.608 384.578L346.681 376.869L343.792 374.941L341.865 370.123L338.012 366.268L333.195 363.377L325.489 366.268L321.636 363.377L318.746 364.341L314.893 359.522L312.003 360.486L306.223 357.595L305.26 358.559L297.554 352.777H293.7L286.957 355.668L285.031 351.813L286.957 350.849L282.141 348.922L275.398 343.14L268.655 341.212L266.728 343.14L261.912 340.249L259.985 343.14L253.242 337.358L246.499 339.285L243.609 336.394V330.612H245.536L244.573 327.721H247.462V325.793L248.426 326.757L250.352 323.866H253.242V325.793L255.169 326.757L257.095 324.83L258.059 325.793L259.022 322.902L259.985 327.721L260.949 324.83H264.802L269.618 320.975L268.655 317.12L271.545 310.374L278.288 306.52L279.251 304.592L278.288 299.774L280.214 298.81V286.282L289.847 285.319L301.407 287.246L303.333 285.319V289.173L307.187 292.064L306.223 296.883H312.003L313.93 299.774L312.003 306.52L314.893 310.374H317.783L319.709 313.266L321.636 310.374L323.562 311.338V309.411L327.416 311.338V313.266L324.526 314.229L329.342 318.084V316.157H333.195V314.229L338.012 315.193L339.938 304.592L348.608 295.919L356.314 294.955V293.028H361.131L362.094 296.883L365.947 298.81L371.727 299.774L374.617 296.883L377.507 300.738L378.47 299.774L382.323 302.665L385.213 301.701L392.919 304.592L402.552 298.81H410.259L414.112 294.955L415.075 295.919L417.965 289.173H419.892L421.818 291.101L419.892 293.028H421.818L427.598 302.665L431.451 304.592L429.525 306.52L432.414 307.483L433.378 312.302L437.231 316.157H435.304L437.231 322.902L433.378 331.576L426.635 341.212V345.067L423.745 346.995L416.038 358.559L419.892 362.414L417.965 366.268L418.928 369.159L421.818 370.123L420.855 373.978L423.745 376.869L418.928 385.542L421.818 394.215L418.928 399.997L414.112 403.852L409.295 405.779L405.442 404.816L398.699 409.634L394.846 408.67L390.03 411.562L388.103 408.67L387.14 409.634L388.103 406.743L384.25 407.707L385.213 406.743H381.36V404.816L377.507 405.779L375.58 403.852L374.617 405.779L370.764 403.852V408.67L367.874 410.598L363.057 409.634L362.094 410.598Z" fill="#D030E8" fill-opacity="0.5" stroke="#0000FF" stroke-opacity="0.4" stroke-linecap="round" stroke-linejoin="round"/>
<path id="4705" class="district" name="Krông Búk" fill-rule="evenodd" clip-rule="evenodd" d="M260.949 185.095L253.242 187.023L251.316 186.059L250.352 182.204L252.279 171.604L243.609 166.785L240.719 162.931L242.646 161.967L241.683 161.003H237.83L234.94 158.112L232.05 159.076L227.233 164.858V161.967L218.564 156.185V149.439H216.637L218.564 140.766L216.637 137.875L217.6 134.02L218.564 134.984L220.49 133.056L219.527 130.165L216.637 131.129L214.711 129.201L215.674 128.238V130.165L217.6 125.347H219.527V127.274L220.49 123.419L226.27 121.492L230.123 113.783V110.891L238.793 108L239.756 104.146V106.073L243.609 108L250.352 106.073L255.169 108.964L257.095 112.819L270.581 108L271.545 108.964V105.109L274.435 107.037L277.325 106.073L281.178 109.928L280.214 114.746L277.325 116.674L279.251 118.601L278.288 126.31L285.031 133.056L286.957 138.838L281.178 146.548L282.141 152.33L278.288 154.257L285.994 161.967L283.104 163.894L284.068 164.858L281.178 170.64L285.994 171.604L286.957 175.458L280.214 176.422V173.531H278.288L276.361 169.676L271.545 172.567L268.655 169.676L261.912 176.422L259.022 175.458L259.985 178.349L262.875 180.277V183.168L260.949 185.095Z" fill="#E83092" fill-opacity="0.5" stroke="#0000FF" stroke-opacity="0.4" stroke-linecap="round" stroke-linejoin="round"/>
<path id="4704" class="district" name="Krông Năng" fill-rule="evenodd" clip-rule="evenodd" d="M324.526 199.551L322.599 202.442L317.783 201.478L312.003 209.187V200.514L308.15 185.095L304.297 184.132L298.517 178.349H291.774L290.811 181.241H288.884L286.957 179.313L285.994 171.604L281.178 170.64L284.068 164.858L283.104 163.894L285.994 161.967L282.141 157.148L278.288 155.221L281.178 152.33V146.548L286.957 138.838L284.068 132.093L278.288 127.274L279.251 117.637L277.325 116.674L281.178 112.819L279.251 107.037L283.104 104.146L290.811 102.218V97.3998L297.554 100.291L301.407 98.3635L304.297 99.3272L303.333 100.291L307.187 102.218L306.223 103.182L309.113 106.073L312.966 98.3635L315.856 101.255L318.746 99.3272L332.232 100.291L333.195 98.3635L336.085 97.3998L344.755 98.3635V100.291H346.682L345.718 102.218L342.828 103.182V108H347.645L348.608 109.928L352.461 110.891L354.388 112.819L352.461 115.71L357.278 118.601L356.314 120.528H358.241L362.094 125.347H364.021L361.131 134.984L362.094 136.911L360.168 138.838H355.351L354.388 143.657H348.608L350.535 150.403V159.076L356.314 161.003V170.64L358.241 175.458L364.021 179.313L363.057 181.241L353.425 185.095L352.461 183.168L351.498 184.132L346.682 180.277L345.718 182.204L342.828 179.313L343.792 177.386H339.938L338.012 179.313L338.975 187.986L334.159 197.623L326.452 199.551H324.526Z" fill="#E83D30" fill-opacity="0.5" stroke="#0000FF" stroke-opacity="0.4" stroke-linecap="round" stroke-linejoin="round"/>
<path id="4703" class="district" name="Krông Pắc" fill-rule="evenodd" clip-rule="evenodd" d="M261.912 284.355H258.059L259.022 279.537L257.095 277.609L256.132 272.791L244.573 271.827L236.866 276.645L233.013 274.718L233.976 272.791H230.123L229.16 267.009L227.233 265.081L229.16 261.226L234.94 260.263L236.866 258.335H233.976V255.444L246.499 250.626V246.771L250.352 245.808V247.735H252.279L254.206 240.989L259.985 242.916V238.098H272.508L273.471 240.025L285.031 237.134L288.884 240.989L290.811 228.461L292.737 225.57L301.407 220.752L305.26 216.897L303.333 212.078L311.04 209.187L316.819 214.006L329.342 220.752L331.269 226.534L330.306 227.497L333.195 231.352L332.232 232.316L337.049 237.134V239.062L341.865 241.953H339.938L337.049 250.626L344.755 252.553L342.828 259.299L343.792 264.118L344.755 262.19L348.608 263.154V261.226L356.314 274.718L351.498 281.464L348.608 289.173L351.498 291.101L352.461 293.992L339.938 304.592L338.012 312.302L338.975 313.266L337.049 315.193L333.195 314.229V316.157H329.342V318.084L324.526 314.229L327.416 313.266V311.338H325.489L323.562 308.447L324.526 310.374H322.599L319.709 313.266V311.338L313.93 309.411L312.003 306.52L313.93 299.774L312.003 296.883H306.223L307.187 292.064L303.333 289.173V285.319L301.407 287.246L289.847 285.319L281.178 286.282L279.251 283.391L280.214 281.464L272.508 277.609L269.618 280.5L264.802 281.464L261.912 284.355Z" fill="#D147AC" fill-opacity="0.5" stroke="#0000FF" stroke-opacity="0.4" stroke-linecap="round" stroke-linejoin="round"/>
<path id="4702" class="district" name="Lắk" fill-rule="evenodd" clip-rule="evenodd" d="M221.454 444.327V440.472L212.784 431.799L210.857 423.126L205.078 415.416L201.224 413.489L200.261 415.416L199.298 414.453L195.445 406.743L188.702 405.779L186.775 401.925L182.922 403.852L181.959 400.961L172.326 403.852L171.362 399.034L164.619 396.143L161.73 393.251L162.693 390.36L157.876 387.469L158.84 378.796L155.95 374.941L156.913 373.978L153.06 373.014L155.95 371.087L152.097 370.123L151.133 368.196L152.097 364.341L155.95 363.377L154.986 361.45L154.023 362.414L152.097 360.486H160.766V363.377H162.693L164.619 367.232L173.289 368.196L185.812 365.305L186.775 363.377L189.665 362.414L188.702 361.45L192.555 359.522L193.518 361.45H196.408L201.224 356.631L205.078 357.595L207.967 355.668H213.747L216.637 357.595V360.486L217.6 359.522L220.49 361.45L225.307 359.522V357.595L227.233 359.522L226.27 356.631H228.197V354.704L231.086 355.668L230.123 356.631L232.05 354.704L236.866 356.631V353.74L241.683 346.995V342.176L244.573 341.212L242.646 340.249L244.573 337.358L245.536 339.285L253.242 337.358L259.022 343.14L261.912 339.285L266.728 343.14L268.655 341.212L275.398 343.14L278.288 346.995H281.178L286.957 350.849L285.031 351.813L285.994 355.668L297.554 352.777L304.297 358.559L306.223 357.595L311.04 360.486L314.893 359.522L318.746 364.341L321.636 363.377L325.489 366.268L333.195 363.377L341.865 370.123L343.792 374.941H345.718L351.498 388.433L358.241 394.215H356.314L352.461 398.07V399.997H350.535L351.498 402.888H347.645L348.608 404.816L346.681 406.743L345.718 403.852L344.755 410.598L342.828 411.561V409.634L338.975 412.525L337.049 410.598L336.085 411.561L337.049 415.416L334.159 418.307L336.085 420.235L335.122 421.198L333.195 417.344L326.452 423.126L324.526 422.162L318.746 424.089L311.04 419.271H306.223L301.407 422.162L300.443 421.198L298.517 423.126V425.053L301.407 427.944L300.443 428.908L297.554 427.944L293.7 430.835L294.664 431.799H290.811V433.726H288.884L285.994 437.581L283.104 434.69L278.288 433.726L276.361 437.581L272.508 438.545V441.436L268.655 446.254L270.581 448.182L265.765 453L264.802 447.218L260.949 445.291L259.985 449.145L258.059 444.327L253.242 449.145L250.352 448.182L251.316 447.218L246.499 448.182L245.536 445.291L243.609 444.327L242.646 446.254V443.363L239.756 440.472L224.343 447.218L221.454 445.291V444.327Z" fill="#D1475A" fill-opacity="0.5" stroke="#0000FF" stroke-opacity="0.4" stroke-linecap="round" stroke-linejoin="round"/>
<path id="4701" class="district" name="M-Đrắk" fill-rule="evenodd" clip-rule="evenodd" d="M441.084 340.249L434.341 338.321L432.414 336.394L427.598 340.249L437.231 322.902L435.304 319.048L436.268 315.193L437.231 316.157L433.378 312.302L432.414 307.483L429.525 306.52L431.451 304.592L424.708 298.81L423.745 293.992L419.892 293.028L421.818 291.101L417.965 286.282L419.892 282.428H425.671L423.745 277.609L424.708 272.791L419.892 267.972L420.855 266.045L418.928 263.154V256.408L411.222 254.481L413.149 249.662H418.928L422.781 245.808L421.818 238.098L418.928 234.243L414.112 233.28L394.846 234.243L389.066 230.389L385.213 223.643L388.103 221.715L390.03 217.861L390.993 214.006L388.103 210.151L390.03 206.296V201.478L392.919 198.587L395.809 199.551L396.773 189.914L399.662 187.023L418.928 183.168H426.635L434.341 180.277V176.422L430.488 170.64H432.414L434.341 168.713L433.378 167.749H438.194L440.121 169.676L445.9 170.64L446.864 175.458L452.643 184.132V187.023L456.497 189.914L458.423 197.623L461.313 198.587L466.13 195.696L469.019 198.587L475.762 200.514V202.442H478.652L479.616 209.187L485.395 216.897H493.102L500.808 219.788H510.441L511.404 221.715L514.294 218.824L516.221 219.788L522 216.897V222.679L523.927 223.643V225.57L522 226.534L527.78 229.425V235.207L529.707 239.062L526.817 242.916L527.78 249.662L530.67 251.59L528.744 257.372H526.817L528.744 262.19L524.89 265.081H519.111L512.368 261.226L497.918 267.972L502.735 272.791L500.808 280.5L494.065 287.246L489.249 285.319L483.469 293.028L486.359 298.81L490.212 299.774L493.102 302.665L494.065 301.701L495.992 307.483L494.065 314.229L490.212 317.12L487.322 322.902L489.249 324.83L487.322 328.684L482.506 333.503L489.249 337.358L488.285 342.176L486.359 343.14V346.995L484.432 347.958L476.726 345.067L465.166 336.394L463.24 338.321L460.35 335.43V331.576L454.57 328.684L450.717 329.648L449.754 331.576L446.864 330.612L443.974 335.43V338.321L441.084 339.285V340.249Z" fill="#D18847" fill-opacity="0.5" stroke="#0000FF" stroke-opacity="0.4" stroke-linecap="round" stroke-linejoin="round"/>
</g>
</svg>
