<svg width="388" height="464" viewBox="0 0 388 464" fill="none" xmlns="http://www.w3.org/2000/svg">
<g id="48" name="Đắk Nông">
<path id="4808" class="district" name="Gia Nghĩa" fill-rule="evenodd" clip-rule="evenodd" d="M222.864 390.841L214.69 388.507L211.187 390.841L206.516 388.507L198.342 393.175L200.677 396.677L198.342 400.178L200.677 401.346L198.342 403.68H194.839V401.346L190.168 400.178L192.503 393.175L187.833 390.841L189 383.838L192.503 382.671L193.671 379.169L189 376.835L190.168 372.166L189 366.33L184.329 360.494L185.497 356.992L179.659 355.825L176.156 359.327L173.82 356.992L170.317 358.16L167.982 355.825L166.814 349.989L164.478 351.157L158.64 346.488L159.808 344.153L157.472 337.15L164.478 333.649L180.826 334.816L187.833 331.314L201.845 330.147V321.977L205.348 320.81V312.639L210.019 314.974L213.522 311.472H218.193L224.031 304.469L221.696 300.967L222.864 293.964L228.702 295.131L232.205 292.797L235.708 298.633V305.636H238.044L239.211 309.138V316.141L229.87 333.649L220.528 341.819L227.534 347.655H232.205L234.541 355.825L242.715 362.828L247.385 374.5L228.702 389.674L224.031 390.841H222.864Z" fill="#D147AC" fill-opacity="0.5" stroke="#0000FF" stroke-opacity="0.4" stroke-linecap="round" stroke-linejoin="round"/>
<g id="4807" class="district" name="Cư Jút">
<path fill-rule="evenodd" clip-rule="evenodd" d="M288.255 114.217L282.417 116.552L275.41 111.883H271.907L261.398 103.713L256.727 102.545L254.392 104.88H249.721L239.211 93.2079L235.708 94.3751L207.683 80.3688H201.845L194.839 76.8672L181.994 67.5297L183.162 57.025L180.826 58.1922V55.8579L177.323 54.6907L176.155 52.3563L166.814 53.5235L158.64 50.0219L155.137 52.3563V50.0219L150.466 45.3532L153.969 37.1828L152.801 30.1797H150.466L151.634 9.17032L157.472 6.83594L165.646 8.00313L167.982 4.50157L171.485 8.00313L183.162 4.50157L185.497 8.00313L193.671 6.83594L203.013 10.3375L224.031 13.8391L228.702 12.6719L231.038 15.0063L245.05 16.1734L254.392 15.0063L256.727 12.6719L260.23 10.3375L263.733 5.66875L274.243 1L280.081 6.83594L275.41 15.0063L278.913 25.511L299.932 31.3469L292.926 45.3532L296.429 46.5203L301.1 53.5235L297.597 58.1922L301.1 67.5297L297.597 69.8641L298.764 73.3657H304.603V83.8704L308.106 86.2048L306.938 90.8735L310.441 94.3751V99.0438L308.106 101.378L298.764 103.713L296.429 107.214L292.926 108.381L291.758 110.716L294.094 111.883V114.217H288.255Z" fill="#D1475A" fill-opacity="0.5"/>
<path d="M256.727 12.6719L254.392 15.0063L245.05 16.1734L231.038 15.0063L228.702 12.6719L224.031 13.8391L203.013 10.3375L193.671 6.83594L185.497 8.00313L183.162 4.50157L171.485 8.00313L167.982 4.50157L165.646 8.00313L157.472 6.83594L151.634 9.17032L150.466 30.1797H152.801L153.969 37.1828L150.466 45.3532L155.137 50.0219V52.3563L158.64 50.0219L166.814 53.5235L176.155 52.3563L177.323 54.6907L180.826 55.8579V58.1922L183.162 57.025L181.994 67.5297L194.839 76.8672L201.845 80.3688H207.683L235.708 94.3751L239.211 93.2079L249.721 104.88H254.392L256.727 102.545L261.398 103.713L271.907 111.883H275.41L282.417 116.552L288.255 114.217H294.094V111.883L291.758 110.716L292.926 108.381L296.429 107.214L298.764 103.713L308.106 101.378L310.441 99.0438V94.3751L306.938 90.8735L308.106 86.2048L304.603 83.8704V73.3657H298.764L297.597 69.8641L301.1 67.5297L297.597 58.1922L301.1 53.5235L296.429 46.5203L292.926 45.3532L299.932 31.3469L278.913 25.511L275.41 15.0063L280.081 6.83594L274.243 1L263.733 5.66875L260.23 10.3375L256.727 12.6719ZM256.727 12.6719L255.559 11.5047" stroke="#0000FF" stroke-opacity="0.4" stroke-linecap="round" stroke-linejoin="round"/>
</g>
<g id="4806" class="district" name="Đăk Glong">
<path fill-rule="evenodd" clip-rule="evenodd" d="M312.777 432.86V435.194L309.274 437.528V435.194L303.435 442.197L291.758 434.027V429.358L290.59 427.024L296.429 418.853L294.094 411.85L290.59 409.516L275.41 408.349L274.243 410.683H269.572V408.349L266.069 407.182L262.566 414.185L260.23 411.85L253.224 415.352H247.385L241.547 420.021L225.199 408.349L222.864 410.683L221.696 409.516L224.031 407.182L220.528 399.011L225.199 396.677L222.864 390.841L228.702 389.674L247.385 374.5L242.715 362.828L234.541 356.992L232.205 348.822L227.534 347.655L220.528 341.819L231.038 332.482L234.541 321.977L239.211 317.308V309.138L238.044 305.636H235.708V297.466L232.205 292.797L228.702 295.131L224.031 293.964L227.534 290.463V288.128H225.199L228.702 282.292L225.199 275.289L228.702 272.955V270.621L225.199 264.785L226.367 262.45L220.528 257.781L219.361 254.28L233.373 250.778L238.044 239.106L240.379 237.939L246.218 239.106L243.882 244.942L247.385 247.277L246.218 253.113L253.224 257.781H257.895L259.062 255.447L262.566 254.28H264.901L266.069 256.614L274.243 251.946L275.41 253.113L282.417 248.444V246.11L284.752 248.444L292.926 247.277L304.603 239.106L311.609 237.939L304.603 247.277L306.938 249.611L305.771 253.113L318.615 241.441H326.789V255.447L324.454 256.614L326.789 262.45L330.292 263.617V261.283L331.46 262.45L337.299 256.614L347.808 267.119L350.143 265.952L351.311 270.621L355.982 268.286L365.323 272.955L369.994 271.788L373.497 268.286H375.833L377 263.617L379.336 262.45L386.342 269.453V282.292H384.007L385.174 284.627H387.51L385.174 288.128L386.342 289.296H384.007L382.839 291.63L381.671 290.463V295.131L378.168 291.63L377 296.299L373.497 293.964H371.162V296.299H367.659L366.491 293.964L362.988 295.131L361.82 291.63L359.485 293.964H354.814L353.646 291.63L348.976 295.131L346.64 292.797V297.466L340.802 302.135V304.469L337.299 298.633V300.967H333.795V306.803L332.628 305.636L330.292 309.138V319.642H325.622L326.789 320.81L322.118 325.478L329.125 331.314H343.137V339.485L340.802 341.819L341.969 344.153H345.472L348.976 348.822V356.992L357.15 363.996V368.664L359.485 370.999V375.667V378.002L362.988 376.835L364.156 379.169L367.659 376.835L366.491 378.002L373.497 385.005V393.175L375.833 392.008L382.839 394.342L385.174 397.844L384.007 402.513L366.491 425.857L362.988 424.689L354.814 429.358L347.808 434.027L345.472 438.696L340.802 437.528L336.131 441.03H331.46L329.125 445.699H326.789V443.364L319.783 436.361L320.951 434.027H316.28V431.693L313.944 432.86H312.777Z" fill="#D18847" fill-opacity="0.5"/>
<path d="M291.758 429.358V434.027L303.435 442.197L309.274 435.194V437.528L312.777 435.194V432.86H313.944L316.28 431.693V434.027H320.951L319.783 436.361L326.789 443.364V445.699H329.125L331.46 441.03H336.131L340.802 437.528L345.472 438.696L347.808 434.027L354.814 429.358L362.988 424.689L366.491 425.857L384.007 402.513L385.174 397.844L382.839 394.342L375.833 392.008L373.497 393.175V385.005L366.491 378.002L367.659 376.835L364.156 379.169L362.988 376.835L359.485 378.002V375.667M291.758 429.358H295.261M291.758 429.358L290.59 427.024L296.429 418.853L294.094 411.85L290.59 409.516L275.41 408.349L274.243 410.683H269.572V408.349L266.069 407.182L262.566 414.185L260.23 411.85L253.224 415.352H247.385L241.547 420.021L225.199 408.349L222.864 410.683L221.696 409.516L224.031 407.182L220.528 399.011L225.199 396.677L222.864 390.841L228.702 389.674L247.385 374.5L242.715 362.828L234.541 356.992L232.205 348.822L227.534 347.655L220.528 341.819L231.038 332.482L234.541 321.977L239.211 317.308V309.138L238.044 305.636H235.708V297.466L232.205 292.797L228.702 295.131L224.031 293.964L227.534 290.463V288.128H225.199L228.702 282.292L225.199 275.289L228.702 272.955V270.621L225.199 264.785L226.367 262.45L220.528 257.781L219.361 254.28L233.373 250.778L238.044 239.106L240.379 237.939L246.218 239.106L243.882 244.942L247.385 247.277L246.218 253.113L253.224 257.781H257.895L259.062 255.447L262.566 254.28H264.901L266.069 256.614L274.243 251.946L275.41 253.113L282.417 248.444V246.11L284.752 248.444L292.926 247.277L304.603 239.106L311.609 237.939L304.603 247.277L306.938 249.611L305.771 253.113L318.615 241.441H326.789V255.447L324.454 256.614L326.789 262.45L330.292 263.617V261.283L331.46 262.45L337.299 256.614L347.808 267.119L350.143 265.952L351.311 270.621L355.982 268.286L365.323 272.955L369.994 271.788L373.497 268.286H375.833L377 263.617L379.336 262.45L386.342 269.453V282.292H384.007L385.174 284.627H387.51L385.174 288.128L386.342 289.296H384.007L382.839 291.63L381.671 290.463V295.131L378.168 291.63L377 296.299L373.497 293.964H371.162V296.299H367.659L366.491 293.964L362.988 295.131L361.82 291.63L359.485 293.964H354.814L353.646 291.63L348.976 295.131L346.64 292.797V297.466L340.802 302.135V304.469L337.299 298.633V300.967H333.795V306.803L332.628 305.636L330.292 309.138V319.642H325.622L326.789 320.81L322.118 325.478L329.125 331.314H343.137V339.485L340.802 341.819L341.969 344.153H345.472L348.976 348.822V356.992L357.15 363.996V368.664L359.485 370.999V375.667M359.485 375.667H357.15" stroke="#0000FF" stroke-opacity="0.4" stroke-linecap="round" stroke-linejoin="round"/>
</g>
<path id="4805" class="district" name="Đắk Mil" fill-rule="evenodd" clip-rule="evenodd" d="M233.373 142.23L232.205 149.233L228.702 152.734L232.205 158.57V167.908L228.702 171.41V173.744L227.534 172.577L222.864 173.744L221.696 176.078H218.193L215.857 178.413L217.025 180.747L213.522 186.583L207.683 188.917V184.249L196.006 180.747L199.51 173.744L193.671 172.577L191.336 169.075L189 177.245L180.826 183.081L178.491 193.586L169.149 200.589V205.258H163.311L162.143 207.592L148.131 202.924L144.628 192.419L149.298 188.917L144.628 183.081L143.46 174.911L148.131 170.242V165.574L153.969 157.403L152.801 150.4L158.64 144.564V138.728L153.969 134.059L155.137 131.725L151.634 129.391V127.056L153.969 123.555L158.64 121.22V116.552L163.311 111.883L159.808 104.88V97.8766L162.143 95.5423L159.808 89.7063L162.143 87.3719H159.808L155.137 78.0344V65.1954L159.808 58.1922L155.137 52.3563L156.305 51.1891L158.64 50.0219L165.646 53.5235L176.155 52.3563L180.826 54.6907V58.1922L183.162 57.025L181.994 67.5297L185.497 68.6969V71.0313L189 73.3657L201.845 80.3688L210.019 81.536L219.361 87.3719L228.702 89.7063L234.541 94.3751L238.044 93.2079L242.715 95.5423L243.882 99.0438L252.056 104.88L259.062 102.545L271.907 111.883H275.41L282.416 116.552L280.081 121.22L273.075 127.056L275.41 130.558L274.243 129.391L270.739 134.059L271.907 135.227L268.404 137.561L264.901 134.059L262.566 136.394L261.398 135.227L257.895 139.895H255.559L250.889 135.227L247.385 136.394L245.05 134.059L241.547 136.394V138.728L232.205 141.063L233.373 142.23Z" fill="#B7E830" fill-opacity="0.5" stroke="#0000FF" stroke-opacity="0.4" stroke-linecap="round" stroke-linejoin="round"/>
<path id="4804" class="district" name="Đắk R'Lấp" fill-rule="evenodd" clip-rule="evenodd" d="M86.2424 430.525L88.5778 425.857L89.7455 428.191L90.9132 423.522L93.2486 421.188L94.4163 422.355V415.352L92.0809 413.018L85.0747 411.85L82.7392 404.847L83.907 402.513L80.4038 399.011L76.9007 389.674L68.7268 383.838L75.733 382.671L79.2361 375.667L82.7392 376.835L86.2424 373.333L83.907 370.999L89.7455 367.497V358.16H104.926L107.261 354.658L106.093 353.491L109.596 349.989L108.429 346.488L124.777 347.655L127.112 344.153H131.783L134.118 340.652H138.789L142.292 332.482L143.46 334.816H159.808V337.15H157.472L159.808 348.822H162.143L163.311 351.157L166.814 349.989L167.982 355.825L170.317 358.16L171.485 355.825L176.156 359.327L179.659 355.825H185.497L184.329 360.494L185.497 363.996L189 366.33V376.835L193.671 379.169V381.503L189 383.838L187.833 389.674L192.503 394.342L190.168 399.011L194.839 401.346V403.68L193.671 408.349H189L185.497 413.018L181.994 411.85L179.659 414.185L176.156 424.689L172.652 423.522L158.64 431.693L145.795 445.699L137.621 441.03L129.447 442.197V439.863L117.77 444.532L114.267 453.869L109.596 458.538L106.093 459.705L97.9194 456.203L89.7455 463.207L85.0747 460.872L82.7392 456.203L79.2361 455.036L82.7392 451.535L80.4038 449.2V443.364L83.907 442.197L87.4101 437.528L85.0747 435.194L86.2424 431.693V430.525Z" fill="#49E830" fill-opacity="0.5" stroke="#0000FF" stroke-opacity="0.4" stroke-linecap="round" stroke-linejoin="round"/>
<path id="4803" class="district" name="Đắk Song" fill-rule="evenodd" clip-rule="evenodd" d="M221.696 300.967L224.031 303.302L218.193 311.472H213.522L210.019 314.974L205.348 312.639V319.642L201.845 321.977V330.147L187.833 331.314L180.826 334.816H159.808L163.311 332.482L162.143 330.147L165.646 328.98L158.64 321.977V310.305L155.137 309.138V305.636L151.634 303.302V297.466L142.292 282.292L139.957 275.289L142.292 274.122L137.621 265.952L135.286 264.785L136.454 263.617L132.95 254.28L127.112 247.277L125.944 248.444L117.77 246.11L110.764 240.274L108.429 242.608H102.59L101.422 246.11H96.7517L100.255 239.106L99.0871 235.605L101.422 233.27V228.602L107.261 227.435L110.764 223.933L111.932 219.264L130.615 212.261L134.118 206.425L142.292 201.756L143.46 202.924L145.795 199.422L150.466 204.091L160.975 207.592L163.311 205.258H169.149V200.589L177.323 193.586L180.826 187.75V183.081L189 177.245L190.168 170.242L191.336 169.075L199.51 173.744L196.006 180.747L207.683 184.249V188.917H210.019L215.857 194.753H221.696V211.094L233.373 221.599V229.769L239.211 230.936L246.218 236.772L238.044 237.939V241.441L233.373 250.778L219.361 254.28L220.528 257.781L226.367 262.45L225.199 264.785L228.702 270.621V272.955L225.199 275.289L228.702 282.292L225.199 288.128H227.534V292.797L222.864 295.131L221.696 299.8V300.967Z" fill="#30E886" fill-opacity="0.5" stroke="#0000FF" stroke-opacity="0.4" stroke-linecap="round" stroke-linejoin="round"/>
<path id="4802" class="district" name="Krông Nô" fill-rule="evenodd" clip-rule="evenodd" d="M379.336 262.45L374.665 268.286L365.323 272.955L355.982 268.286L351.311 270.621L350.143 265.952L348.976 267.119L343.137 262.45V260.116L337.299 256.614L334.963 260.116L333.795 258.949L332.628 262.45L330.292 261.283V263.617L329.125 261.283V263.617L324.454 257.781L326.789 254.28V241.441L323.286 240.274L315.112 243.775L305.771 253.113L306.938 249.611L304.603 247.277L311.609 239.106L309.274 237.939L298.764 241.441L292.926 247.277L285.92 248.444L282.417 246.11V248.444L275.41 253.113L274.243 251.945L267.236 254.28L266.069 256.614L264.901 254.28H262.566L259.062 255.447V257.781H253.224L246.218 253.113L247.385 248.444L243.882 244.942L247.385 236.772L239.211 230.936H233.373V221.599L221.696 211.094V194.753H215.857L210.019 188.917L217.025 181.914L215.857 178.413L218.193 176.078L227.534 172.577L228.702 173.744V171.409L232.205 167.908V158.57L228.702 152.734L232.205 149.233V141.063L241.547 138.728V136.394L245.05 134.059L247.385 136.394H253.224L252.056 137.561L254.392 139.895H259.062L260.23 136.394L264.901 134.059L268.404 137.561L275.41 128.224H273.075V125.889L276.578 124.722L283.584 114.217H291.758L289.423 116.552L290.59 120.053H292.926L299.932 125.889L312.777 124.722L316.28 128.224L326.789 132.892L329.125 138.728H332.628L338.466 146.899L331.46 159.738L324.454 164.406L318.615 162.072L308.106 166.741V170.242L305.771 167.908L304.603 169.075L305.771 171.409L304.603 173.744H302.267L306.938 174.911L301.1 179.58V181.914L302.267 184.249L306.938 185.416L303.435 187.75L306.938 188.917L310.441 194.753L308.106 200.589L310.441 201.756L309.274 204.091L315.112 208.76L313.945 211.094L317.448 215.763L326.789 220.431V223.933L329.125 225.1L337.299 221.599L339.634 225.1L344.305 222.766L347.808 228.602H353.646L357.15 230.936V234.438L360.653 239.106L361.82 236.772L364.156 239.106L366.491 237.939L368.827 243.775L374.665 249.611V256.614L378.168 260.116L379.336 262.45Z" fill="#30DCE8" fill-opacity="0.5" stroke="#0000FF" stroke-opacity="0.4" stroke-linecap="round" stroke-linejoin="round"/>
<path id="4801" class="district" name="Tuy Đức" fill-rule="evenodd" clip-rule="evenodd" d="M85.0746 374.5L82.7392 376.835L79.2361 375.667L75.733 382.671L67.5591 383.838L62.8883 380.336V369.832L51.2112 354.658V352.324H44.205L41.8696 349.989L40.7019 351.157L37.1988 346.488H33.6957L31.3603 348.822V346.488H27.8572L26.6895 348.822V346.488H22.0187L17.3478 342.986L16.1801 337.15L11.5093 341.819L12.677 334.816L10.3416 317.308L15.0124 305.636L10.3416 304.469L8.00622 299.8V297.466L10.3416 296.299L1 223.933L10.3416 226.267L13.8447 222.766H16.1801V220.431L17.3478 221.599L22.0187 216.93L23.1864 218.097L26.6895 213.428L32.528 214.595L37.1988 211.094L40.7019 212.261L44.205 209.927L45.3727 214.595H47.7081L51.2112 212.261H55.8821L59.3852 208.76L60.5529 212.261L73.3976 222.766L75.733 229.769L78.0684 230.936L76.9007 235.605L83.9069 244.942H86.2423L89.7455 248.444L92.0809 244.942L101.422 246.11L103.758 241.441L109.596 242.608L110.764 240.274L113.1 241.441V243.775L117.77 246.11L125.944 248.444L127.112 247.277L132.95 254.28L136.454 263.617L135.286 264.785H137.621L142.292 274.122L139.957 275.289L142.292 282.292L151.634 297.466V303.302L158.64 310.305L159.808 325.478H163.311L165.646 328.98H163.311V332.482L159.808 334.816H143.46V332.482L138.789 339.485L131.783 344.153H127.112L125.944 347.655L108.429 346.488L109.596 349.989L106.093 352.324V358.16L96.7517 356.992L89.7455 359.327V368.664L83.9069 370.999L86.2423 373.333L85.0746 374.5Z" fill="#306EE8" fill-opacity="0.5" stroke="#0000FF" stroke-opacity="0.4" stroke-linecap="round" stroke-linejoin="round"/>
</g>
</svg>
