<svg width="621" height="478" viewBox="0 0 621 478" fill="none" xmlns="http://www.w3.org/2000/svg">
<g id="49" name="Lâm Đồng">
<path id="4912" class="district" name="TP Bảo Lộc" fill-rule="evenodd" clip-rule="evenodd" d="M201.346 378.238L194.373 377.076L186.237 356.162L182.75 353.838L188.562 349.191V345.705L194.373 344.543L195.535 338.734L207.158 332.924V330.6L216.455 327.115L219.942 320.143L216.455 317.819V313.172H208.32L200.184 301.553H195.535V299.229L201.346 292.257L200.184 287.61H202.509L204.833 289.934L203.671 291.096H207.158L209.482 293.419L208.32 294.581L214.131 298.067L216.455 306.2H222.267V308.524L229.24 312.01L235.051 309.686L238.538 310.848L240.863 314.334L244.349 313.172L245.512 308.524L251.323 309.686L254.809 313.172L262.945 309.686L265.27 312.01L264.107 313.172H266.432L264.107 316.657L265.27 317.819L260.621 322.467V329.438L257.134 335.248L255.972 334.086L260.621 342.219V348.029L258.296 350.353L255.972 349.191L257.134 348.029H254.809V350.353L251.323 352.676V350.353L247.836 353.838L244.349 351.514L239.7 353.838L236.214 346.867L232.727 348.029L229.24 345.705L226.916 355L229.24 363.134L224.591 377.076L221.104 380.562H218.78V378.238L216.455 377.076L214.131 379.4V377.076H210.644L201.346 378.238Z" fill="#D147AC" fill-opacity="0.5" stroke="#0000FF" stroke-opacity="0.4" stroke-linecap="round" stroke-linejoin="round"/>
<path id="4911" class="district" name="TP Đà Lạt" fill-rule="evenodd" clip-rule="evenodd" d="M522.125 217.896L517.476 214.41L525.612 207.439L515.152 200.467L519.801 196.981L517.476 194.658L509.341 193.496L507.016 187.686L493.069 198.143L491.907 201.629L488.42 200.467L486.096 195.819L476.798 191.172L474.473 185.362L468.662 186.524L466.338 181.877L459.364 185.362L457.04 181.877H454.715L455.877 180.715L453.553 178.391L448.904 179.553L446.579 176.067V171.42L444.255 169.096L447.742 164.448L446.579 162.124H448.904V153.991L451.228 152.829V149.343L454.715 145.858L461.689 141.21L469.824 144.696L483.771 136.562L488.42 138.886L490.745 137.724L496.556 142.372L497.718 138.886L501.205 137.724L502.367 135.401H507.016V138.886L511.665 141.21V143.534L519.801 141.21L524.45 144.696H534.91L543.046 149.343L544.208 148.181L552.344 153.991L550.019 164.448L553.506 169.096V173.743L556.993 179.553H561.642L559.317 186.524L561.642 200.467L544.208 210.924L537.234 221.381L532.585 219.058L524.45 220.219L525.612 219.058L522.125 217.896Z" fill="#D1475A" fill-opacity="0.5" stroke="#0000FF" stroke-opacity="0.4" stroke-linecap="round" stroke-linejoin="round"/>
<path id="4910" class="district" name="Bảo Lâm" fill-rule="evenodd" clip-rule="evenodd" d="M260.621 381.724L264.107 385.21L262.945 388.695L267.594 393.343L269.919 391.019L272.243 393.343L271.081 397.991L279.217 410.772L280.379 415.419L272.243 413.095L225.753 409.61L224.591 397.991H219.942L214.131 393.343L212.969 387.533L201.346 378.238L212.969 377.076L214.131 379.4L216.455 375.914L218.78 380.562H221.104L224.591 377.076L229.24 363.134L226.916 355L229.24 345.705L231.565 348.029L235.051 346.867L238.538 350.353L237.376 352.676L242.025 353.838V351.515L246.674 353.838L251.323 350.353V352.676L253.647 350.353L254.809 351.515V348.029H257.134V350.353L261.783 346.867L259.458 339.895L254.809 336.41H257.134L255.972 334.086L257.134 335.248L261.783 325.953L260.621 322.467L266.432 314.334L264.107 313.172L265.27 312.01L262.945 309.686L254.809 314.334L251.323 309.686L246.674 308.524L245.512 313.172L242.025 314.334L236.214 309.686L229.24 312.01L221.104 307.362L222.267 306.2H216.455L214.131 298.067L209.482 295.743L207.158 291.096H203.671L204.833 289.934L200.184 287.61L201.346 292.257L194.373 301.553H200.184L204.833 306.2L205.995 312.01L209.482 314.334L217.618 313.172L216.455 317.819L219.942 320.143L214.131 329.438L211.806 328.276L207.158 330.6V332.924L195.535 338.734L194.373 343.381L190.886 344.543L182.75 353.838L181.588 341.057L175.777 335.248L169.966 317.819L173.452 313.172L168.804 309.686L166.479 305.038L167.641 303.876L165.317 294.581L158.343 291.096L160.668 286.448L138.585 277.153L131.612 274.829L129.287 275.991L121.152 271.343H99.069L93.2578 265.534L95.5822 266.696V262.048H97.9067L95.5822 259.724L96.7445 249.267L101.393 245.781L107.205 234.162V230.677L103.718 226.029L111.854 224.867L119.989 229.515L122.314 228.353L132.774 215.572L146.721 207.439L150.208 208.6V205.115L156.019 195.819L158.343 196.981L162.992 192.334H167.641L169.966 186.524H174.615L172.29 184.2L174.615 180.715L172.29 177.229L180.426 172.581L185.075 174.905L187.399 172.581L196.697 174.905L199.022 180.715L194.373 183.039L197.86 190.01L195.535 194.658L199.022 192.334L207.158 196.981L214.131 203.953L221.104 199.305H226.916L232.727 195.819L235.051 198.143L237.376 196.981V192.334L239.7 191.172H242.025L243.187 194.658L255.972 192.334L267.594 194.658L269.919 202.791L268.756 205.115L265.27 206.277L264.107 210.924L268.756 214.41L266.432 213.248L264.107 215.572L268.756 221.381L267.594 228.353L271.081 230.677L269.919 235.324L273.405 238.81L274.568 237.648V239.972L271.081 243.458L278.054 253.915L287.352 255.077L293.163 262.048H295.488V271.343L297.812 273.667L288.514 284.124V288.772L282.703 300.391L286.19 308.524L283.866 310.848L285.028 315.496L280.379 320.143V322.467L286.19 321.305L287.352 323.629L286.19 325.953L281.541 327.115L285.028 328.276V334.086H280.379L282.703 338.734L275.73 344.543L276.892 355L273.405 351.515L272.243 353.838L269.919 351.515L266.432 355L264.107 352.676L260.621 366.619L258.296 365.457V375.914L260.621 380.562V381.724Z" fill="#D18847" fill-opacity="0.5" stroke="#0000FF" stroke-opacity="0.4" stroke-linecap="round" stroke-linejoin="round"/>
<path id="4909" class="district" name="Cát Tiên" fill-rule="evenodd" clip-rule="evenodd" d="M60.715 334.086L59.5527 336.41H57.2283L56.066 339.895H58.3905V342.219L51.417 343.381V345.705L46.7681 348.029L43.2813 346.867L46.7681 344.543L49.0926 336.41L45.6058 329.438L44.4436 334.086L40.9569 330.6L43.2813 328.276L40.9569 325.953V323.629H43.2813L40.9569 318.981L38.6324 323.629L39.7946 328.276L35.1456 331.762L33.9834 336.41L29.3344 332.924V330.6H18.8743L15.3875 323.629H20.0365L14.2253 320.143L15.3875 314.334L17.712 312.01L15.3875 309.686L16.5498 303.876L1.44061 293.419L3.7651 289.934L1.44061 284.124L8.41407 273.667L6.08958 271.343L8.41407 269.019L9.57631 257.4L16.5498 250.429H21.1987L25.8477 246.943L37.4701 245.781L38.6324 241.134H42.1191L51.417 236.486L54.9038 239.972H57.2283L58.3905 243.458L61.8772 244.619L63.0395 246.943L72.3374 239.972L79.3109 243.458L83.9598 242.296L88.6088 237.648L90.9333 228.353L100.231 226.029L102.556 223.705L107.205 228.353L108.367 234.162L106.042 235.324L101.393 245.781L95.5823 251.591V259.724L97.9067 262.048H95.5823L96.7445 265.534H93.2578L88.6088 270.181L87.4466 267.857H85.1221L82.7976 272.505L83.9598 278.315L80.4731 291.096L72.3374 298.067L71.1752 301.553H68.8507L71.1752 306.2L70.0129 307.362L72.3374 309.686L67.6884 312.01L66.5262 310.848L67.6884 314.334L64.2017 317.819L61.8772 325.953H59.5527L60.715 331.762V334.086Z" fill="#B7E830" fill-opacity="0.5" stroke="#0000FF" stroke-opacity="0.4" stroke-linecap="round" stroke-linejoin="round"/>
<path id="4908" class="district" name="Đạ Huoai" fill-rule="evenodd" clip-rule="evenodd" d="M157.181 424.714L147.883 422.391L130.449 404.962H128.125L114.178 416.581L110.691 413.095V410.772H107.205L104.88 403.8L100.231 404.962L99.0689 400.314L93.2577 396.829L94.42 386.372L88.6088 381.724H90.9332L92.0955 378.238L90.9332 372.429L99.0689 366.619L106.042 365.457L111.854 368.943L118.827 366.619L121.152 363.134L135.098 356.162L136.261 351.514L159.506 332.924L161.83 327.115H166.479L165.317 323.629L162.992 322.467L171.128 320.143L175.777 335.248L181.588 341.057L182.75 353.838L186.237 356.162L194.373 377.076L201.346 378.238L212.969 387.533L214.131 392.181L218.78 397.991L225.753 399.153V409.61L200.184 411.933L199.022 415.419H196.697L194.373 413.095L195.535 411.933L193.211 415.419L194.373 418.905L190.886 423.552L178.101 431.686L160.668 424.714H157.181Z" fill="#49E830" fill-opacity="0.5" stroke="#0000FF" stroke-opacity="0.4" stroke-linecap="round" stroke-linejoin="round"/>
<path id="4907" class="district" name="Đạ Tẻh" fill-rule="evenodd" clip-rule="evenodd" d="M88.6088 381.724L81.6353 384.048L79.3109 387.533L80.4731 388.695H75.8241V384.048L70.0129 386.372V381.724L76.9864 377.076L79.3109 372.429L83.9598 370.105L82.7976 367.781L85.1221 364.295L87.4466 365.457V363.134L82.7976 358.486H80.4731V353.838L75.8241 350.353L74.6619 346.867L73.4996 349.191H71.1752L70.0129 346.867L66.5262 349.191L63.0395 348.029L61.8772 343.381L58.3905 342.219V339.895H56.066L57.2283 336.41H59.5527L60.715 334.086L59.5527 325.953H61.8772L64.2017 317.819L67.6884 314.334L66.5262 310.848L67.6884 312.01L72.3374 309.686L70.0129 307.362L71.1752 306.2L68.8507 301.553H71.1752L72.3374 298.067L79.3109 291.096L83.9598 278.315L82.7976 272.505L85.1221 267.857H87.4466L88.6088 270.181L93.2578 265.534L99.069 271.343L121.152 270.181L122.314 272.505L129.287 275.991L130.45 274.829L135.099 277.153H140.91L152.532 284.124L160.668 286.448L158.343 291.096L165.317 294.581L167.641 309.686L173.453 313.172L169.966 317.819L171.128 320.143L162.992 321.305L165.317 327.115L160.668 328.276L159.506 332.924L152.532 336.41L149.045 343.381L144.396 344.543L137.423 350.353L135.099 356.162L121.152 363.134L118.827 366.619L111.854 368.943L106.042 365.457L99.069 366.619L90.9333 372.429L92.0955 377.076L90.9333 381.724L89.771 380.562L88.6088 381.724Z" fill="#30E886" fill-opacity="0.5" stroke="#0000FF" stroke-opacity="0.4" stroke-linecap="round" stroke-linejoin="round"/>
<g id="4906" class="district" name="Đam Rông">
<path fill-rule="evenodd" clip-rule="evenodd" d="M376.845 196.981L367.547 201.629L357.087 195.819L355.925 191.172L353.6 192.334L358.249 181.877L355.925 178.391L350.113 176.067L346.627 177.229V170.258L341.978 164.448L343.14 163.286L338.491 160.962L332.68 162.124V159.8V156.315L328.031 147.02L329.193 145.858L322.22 141.21V131.915L314.084 127.267L316.408 123.782V116.81H307.11V114.486L303.624 115.648L295.488 109.839L300.137 105.191L298.975 104.029H303.624V91.2482H307.11V85.4387H310.597L309.435 83.1149L314.084 88.9244V86.6006L319.895 81.953L318.733 77.3054L321.057 79.6292L326.869 76.1435L329.193 78.4673H332.68L335.004 76.1435V78.4673H339.653V80.7911H343.14L344.302 78.4673L350.113 80.7911L351.276 76.1435L353.6 79.6292L354.762 73.8197L355.925 76.1435L358.249 73.8197L359.411 74.9816L358.249 72.6578L360.574 69.1721H358.249L357.087 66.8483H359.411V58.7149L361.736 62.2006L366.385 61.0387L378.007 56.3911L381.494 52.9054L382.656 56.3911L384.981 57.553L383.818 61.0387L388.467 58.7149L389.63 63.3625L395.441 62.2006L394.279 63.3625L397.765 64.5245L402.414 58.7149L405.901 64.5245L407.063 59.8768L411.712 62.2006L412.874 68.0102L418.686 63.3625L416.361 61.0387L418.686 56.3911L423.335 50.5816L426.821 49.4197L427.984 45.934L433.795 47.0959L437.282 50.5816L440.768 45.934H443.093V43.6102H447.742L446.579 42.4483L448.904 40.1245L454.715 38.9626L455.877 40.1245L453.553 42.4483L458.202 45.934L455.877 50.5816L446.579 58.7149L447.742 62.2006L451.228 61.0387L457.04 66.8483L464.013 69.1721L468.662 68.0102V74.9816L476.798 76.1435L475.636 78.4673H473.311L472.149 84.2768L466.338 85.4387L467.5 88.9244H465.175L464.013 93.572L470.987 94.7339L469.824 105.191L461.689 111.001L458.202 109.839L454.715 112.162L452.391 119.134L453.553 129.591L444.255 121.458L441.931 115.648L439.606 114.486L440.768 111.001H434.957V108.677L432.633 107.515L427.984 112.162L417.523 117.972V123.782L414.037 128.429L410.55 129.591L409.388 131.915L407.063 130.753L402.414 137.724L396.603 141.21V145.858L391.954 149.343L388.467 155.153V159.8L386.143 162.124L387.305 169.096L384.981 172.581L381.494 173.743L384.981 179.553H382.656V184.2L376.845 185.362L378.007 195.819L376.845 196.981Z" fill="#30DCE8" fill-opacity="0.5"/>
<path d="M332.68 159.8V162.124L338.491 160.962L343.14 163.286L341.978 164.448L346.627 170.258V177.229L350.113 176.067L355.925 178.391L358.249 181.877L353.6 192.334L355.925 191.172L357.087 195.819L367.547 201.629L376.845 196.981L378.007 195.819L376.845 185.362L382.656 184.2V179.553H384.981L381.494 173.743L384.981 172.581L387.305 169.096L386.143 162.124L388.467 159.8V155.153L391.954 149.343L396.603 145.858V141.21L402.414 137.724L407.063 130.753L409.388 131.915L410.55 129.591L414.037 128.429L417.523 123.782V117.972L427.984 112.162L432.633 107.515L434.957 108.677V111.001H440.768L439.606 114.486L441.931 115.648L444.255 121.458L453.553 129.591L452.391 119.134L454.715 112.162L458.202 109.839L461.689 111.001L469.824 105.191L470.987 94.7339L464.013 93.572L465.175 88.9244H467.5L466.338 85.4387L472.149 84.2768L473.311 78.4673H475.636L476.798 76.1435L468.662 74.9816V68.0102L464.013 69.1721L457.04 66.8483L451.228 61.0387L447.742 62.2006L446.579 58.7149L455.877 50.5816L458.202 45.934L453.553 42.4483L455.877 40.1245L454.715 38.9626L448.904 40.1245L446.579 42.4483L447.742 43.6102H443.093V45.934H440.768L437.282 50.5816L433.795 47.0959L427.984 45.934L426.821 49.4197L423.335 50.5816L418.686 56.3911L416.361 61.0387L418.686 63.3625L412.874 68.0102L411.712 62.2006L407.063 59.8768L405.901 64.5245L402.414 58.7149L397.765 64.5245L394.279 63.3625L395.441 62.2006L389.63 63.3625L388.467 58.7149L383.818 61.0387L384.981 57.553L382.656 56.3911L381.494 52.9054L378.007 56.3911L366.385 61.0387L361.736 62.2006L359.411 58.7149V66.8483H357.087L358.249 69.1721H360.574L358.249 72.6578L359.411 74.9816L358.249 73.8197L355.925 76.1435L354.762 73.8197L353.6 79.6292L351.276 76.1435L350.113 80.7911L344.302 78.4673L343.14 80.7911H339.653V78.4673H335.004V76.1435L332.68 78.4673H329.193L326.869 76.1435L321.057 79.6292L318.733 77.3054L319.895 81.953L314.084 86.6006V88.9244L309.435 83.1149L310.597 85.4387H307.11V91.2482H303.624V104.029H298.975L300.137 105.191L295.488 109.839L303.624 115.648L307.11 114.486V116.81H316.408V123.782L314.084 127.267L322.22 131.915V141.21L329.193 145.858L328.031 147.02L332.68 156.315V159.8ZM332.68 159.8H330.355" stroke="#0000FF" stroke-opacity="0.4" stroke-linecap="round" stroke-linejoin="round"/>
</g>
<path id="4905" class="district" name="Di Linh" fill-rule="evenodd" clip-rule="evenodd" d="M383.818 439.819L369.871 443.305L362.898 449.114L360.574 443.305L357.087 453.762L353.6 456.086H347.789L336.166 465.381V475.838L330.355 477V468.867L333.842 466.543V464.219L329.193 458.41L330.355 451.438L329.193 449.114H326.869L325.706 445.629L323.382 429.362L312.922 427.038L308.273 423.552L293.163 418.905L289.677 421.229L286.19 420.067L283.866 416.581L280.379 415.419L279.217 410.772L274.568 404.962L271.081 397.991L272.243 393.343L269.919 391.019L267.594 393.343L262.945 388.695L264.107 385.21L258.296 375.914V366.619H260.621L261.783 364.295L264.107 353.838L262.945 352.676L266.432 355V352.676L273.405 351.514L276.892 355L275.73 345.705L282.703 338.734L280.379 334.086H285.028V329.438L281.541 327.115L287.352 324.791L286.19 321.305L280.379 323.629V318.981H282.703L285.028 315.495L282.703 310.848L286.19 308.524L282.703 300.391L288.515 288.772V284.124L297.812 274.829L295.488 271.343V262.048H293.163L287.352 255.077L278.054 253.915L273.405 244.619H271.081L274.568 237.648L273.405 238.81L269.919 235.324L272.243 233L267.594 228.353L268.756 221.381L279.217 226.029V222.543L282.703 219.058V221.381L286.19 219.058L285.028 217.896L288.515 216.734L289.677 214.41V216.734L294.326 217.896L293.163 219.058L300.137 227.191L297.812 231.838L301.299 234.162L303.624 239.972H307.11L308.273 243.458L315.246 246.943L310.597 252.753L319.895 257.4L323.382 264.372L339.653 262.048L343.14 267.857L347.789 270.181L346.627 275.991L350.113 277.153L358.249 285.286L367.547 281.8L374.52 284.124L375.683 288.772L380.332 289.934H382.656L388.467 284.124H391.954L394.279 280.638L397.765 284.124L402.414 285.286V292.257L409.388 298.067L407.063 301.553L410.55 302.715L405.901 308.524L408.225 313.172V320.143L411.712 322.467L408.225 323.629V328.276L410.55 331.762L419.848 337.572L423.335 336.41L429.146 343.381L436.119 342.219L437.282 345.705H439.606L437.282 348.029H429.146L423.335 356.162L426.821 359.648L419.848 365.457L426.821 380.562H429.146L430.308 377.076L434.957 379.4L440.768 388.695L439.606 394.505L429.146 400.314V403.8L419.848 415.419L411.712 417.743L404.739 423.552V427.038L394.279 430.524L391.954 436.333L386.143 439.819H383.818Z" fill="#306EE8" fill-opacity="0.5" stroke="#0000FF" stroke-opacity="0.4" stroke-linecap="round" stroke-linejoin="round"/>
<path id="4904" class="district" name="Đơn Dương" fill-rule="evenodd" clip-rule="evenodd" d="M548.857 293.419L551.181 287.61L547.695 278.315H543.046L540.721 275.991L531.423 280.638L526.774 279.476L519.801 286.448L513.99 288.772L500.043 284.124L493.069 286.448L489.582 282.962V278.315L479.122 273.667L476.798 270.181L481.447 264.372L480.285 262.048L486.096 248.105H491.907V235.324L500.043 226.029L511.665 219.058L512.827 220.219L517.476 214.41L525.612 219.058L524.45 220.219L531.423 219.058L537.234 221.381L544.208 210.924L561.641 200.467L559.317 186.524L561.641 179.553L555.83 178.391L550.019 164.448L552.344 153.991L563.966 155.153L570.939 152.829L573.264 155.153L582.562 156.315L589.535 150.505L590.698 152.829H593.022L590.698 158.639L593.022 160.962V165.61L590.698 170.258L591.86 176.067L588.373 181.877L587.211 206.277L582.562 212.086L576.751 213.248L577.913 214.41L573.264 223.705L581.4 228.353L594.184 229.515L596.509 233L591.86 242.296L596.509 249.267L603.482 252.753V257.4L608.131 267.857L603.482 270.181L598.833 281.8L594.184 284.124L587.211 282.962L574.426 289.934H563.966L554.668 294.581L550.019 293.419H548.857Z" fill="#6130E8" fill-opacity="0.5" stroke="#0000FF" stroke-opacity="0.4" stroke-linecap="round" stroke-linejoin="round"/>
<path id="4903" class="district" name="Đức Trọng" fill-rule="evenodd" clip-rule="evenodd" d="M462.851 351.514L461.689 352.676L459.364 350.353V346.867L455.877 342.219L451.228 345.705L447.742 341.057L438.444 346.867L436.119 342.219L429.146 343.381L423.335 336.41L422.172 337.572L414.037 332.924H410.55L408.225 323.629H411.712L408.225 320.143L409.388 313.172H407.063L408.225 312.01L405.901 310.848V308.524L410.55 303.876L407.063 301.553L409.388 298.067L405.901 294.581H403.577L402.414 289.934L404.739 288.772V286.448L410.55 284.124L409.388 275.991L414.037 267.857L409.388 263.21L415.199 260.886L422.172 246.943H426.821L427.984 235.324L437.282 220.219L439.606 219.058L447.742 226.029L445.417 233L447.742 235.324H445.417L446.579 237.648L448.904 236.486L451.228 230.677L454.715 229.515L458.202 233L460.526 227.191L476.798 212.086H486.096L493.069 198.143L505.854 187.686L509.341 192.334L519.801 196.981L515.152 200.467L525.612 207.439L512.827 220.219L511.665 219.058L509.341 221.381L503.529 222.543L491.907 235.324V248.105H486.096V250.429L482.609 253.915L480.285 262.048L481.447 263.21L476.798 270.181L480.285 274.829H484.933L488.42 277.153L489.582 282.962L493.069 286.448L498.88 284.124L516.314 288.772L526.774 279.477L531.423 280.638L538.397 277.153L547.695 278.315L551.181 289.934L545.37 296.905V310.848L553.506 320.143L558.155 329.438L553.506 331.762L554.668 334.086L552.344 335.248L547.695 346.867L539.559 352.676L533.748 351.514V349.191L526.774 345.705L525.612 343.381L520.963 342.219L513.99 343.381L509.341 346.867H497.718L495.394 349.191H493.069L487.258 342.219L483.771 345.705L479.122 346.867L473.311 344.543L469.824 346.867V350.353L464.013 351.514H462.851Z" fill="#D030E8" fill-opacity="0.5" stroke="#0000FF" stroke-opacity="0.4" stroke-linecap="round" stroke-linejoin="round"/>
<path id="4902" class="district" name="Lạc Dương" fill-rule="evenodd" clip-rule="evenodd" d="M496.556 142.372L490.745 137.724L488.42 138.886L486.096 136.562L477.96 138.886L469.824 144.696L462.851 141.21L459.364 142.372L451.228 149.343V152.829L447.742 157.477L448.904 162.124H446.579L447.742 163.286L444.255 169.096L445.417 170.258L438.444 167.934L434.957 164.448L433.795 158.639L429.146 155.153V152.829L432.633 149.343L431.47 148.181L434.957 142.372V137.724L437.282 135.401L436.119 131.915L438.444 130.753V128.429L441.931 127.267L444.255 129.591L446.579 123.782L450.066 126.105V128.429L453.553 129.591V114.486L457.04 109.839L461.689 111.001L469.824 105.191L472.149 99.3815L470.987 93.572L466.338 94.7339L464.013 91.2482L466.338 86.6006L473.311 83.1149L472.149 80.7911L476.798 77.3054L468.662 74.9816V68.0102H460.526L451.228 61.0387L447.742 62.2006L446.579 58.7149L455.877 50.5816L458.202 45.934L453.553 42.4483L455.877 40.1245L452.391 36.6388V33.1531L461.689 28.5055H468.662L475.636 34.315L483.771 31.9912L486.096 33.1531L487.258 30.8293L491.907 29.6674L493.069 26.1816L496.556 28.5055V30.8293L497.718 23.8578L498.88 25.0197L497.718 19.2102L498.88 18.0483L500.043 20.3721H502.367V18.0483L505.854 15.7245L504.692 19.2102L507.016 18.0483L509.341 13.4007L508.178 9.91501L510.503 11.0769V13.4007L512.827 11.0769L511.665 8.7531H516.314V4.10549V6.4293L518.639 5.26739L523.287 12.2388L522.125 14.5626L526.774 18.0483H536.072L539.559 15.7245L538.397 12.2388L540.721 9.91501L543.046 12.2388L545.37 9.91501L547.695 12.2388L552.344 11.0769V13.4007H559.317V15.7245L562.804 19.2102L568.615 15.7245L573.264 16.8864L577.913 12.2388H586.049L591.86 9.91501L594.184 6.4293L597.671 5.26739L599.995 0.619781L603.482 4.10549H606.969L610.456 8.7531L608.131 12.2388V23.8578L610.456 28.5055L606.969 31.9912L608.131 35.4769L616.267 42.4483L611.618 56.3911H613.942V59.8768L616.267 61.0387L615.105 62.2006L619.754 68.0102L616.267 71.4959H610.456L609.293 73.8197L604.644 74.9816V81.953L596.509 85.4387L609.293 99.3815L612.78 112.162L611.618 116.81L604.644 120.296L598.833 133.077L601.158 138.886L599.995 144.696L593.022 152.829L589.535 151.667L582.562 156.315L573.264 155.153L570.939 152.829L563.966 155.153L552.344 153.991L544.208 148.181L543.046 149.343L534.91 144.696H524.45L519.801 141.21L511.665 143.534V141.21H509.341L505.854 135.401L497.718 138.886L496.556 141.21V142.372Z" fill="#E83092" fill-opacity="0.5" stroke="#0000FF" stroke-opacity="0.4" stroke-linecap="round" stroke-linejoin="round"/>
<path id="4901" class="district" name="Lâm Hà" fill-rule="evenodd" clip-rule="evenodd" d="M468.662 219.058L458.202 233L454.715 229.515L447.742 237.648L445.417 236.486L447.742 226.029L439.606 219.058L436.119 221.381L434.957 226.029L426.821 235.324V246.943H421.01L414.037 262.048L409.388 263.21L414.037 267.857L409.388 275.991V285.286L404.739 286.448L397.765 284.124L394.279 280.638L391.954 284.124L384.981 286.448L382.656 289.934L375.683 288.772L374.52 284.124L368.709 281.8L358.249 285.286L347.789 275.991V270.181L343.14 267.857L339.653 262.048L324.544 264.372L319.895 258.562L311.759 252.753L315.246 248.105L308.273 243.458L307.11 239.972H304.786L297.812 231.838L302.461 229.515L304.786 224.867H309.435L314.084 221.381L317.571 222.543L328.031 213.248L336.166 208.6L339.653 209.762L354.762 191.172L357.087 195.819H359.411L361.736 199.305L362.898 198.143L367.547 201.629L374.52 199.305L378.007 195.819V184.2L380.332 185.362L382.656 179.553H384.981L381.494 173.743L384.981 172.581L387.305 169.096L386.143 162.124L391.954 149.343L396.603 145.858V141.21L401.252 137.724L402.414 138.886L403.577 133.077L412.874 129.591L417.523 123.782V119.134L425.659 112.162H427.984L429.146 108.677L432.633 107.515L434.957 108.677V111.001H440.768L439.606 114.486L446.58 123.782L444.255 129.591L439.606 128.429L438.444 130.753H436.119L437.282 135.401L434.957 137.724V144.696L431.47 148.181V151.667L427.984 152.829L434.957 159.8V164.448L438.444 167.934L445.417 170.258L448.904 178.391H454.715V181.877H457.04L459.364 185.362L465.175 181.877L468.662 186.524L474.473 185.362L475.636 191.172L486.096 195.819L488.42 200.467L491.907 201.629L489.582 202.791L486.096 212.086H476.798L469.824 219.058H468.662Z" fill="#E83D30" fill-opacity="0.5" stroke="#0000FF" stroke-opacity="0.4" stroke-linecap="round" stroke-linejoin="round"/>
</g>
</svg>
