<svg width="481" height="492" viewBox="0 0 481 492" fill="none" xmlns="http://www.w3.org/2000/svg">
<g id="61" name="Bình Dương">
<path id="6109" class="district" name="TP Thủ Dầu Một" fill-rule="evenodd" clip-rule="evenodd" d="M242.574 430.234L243.61 421.939L240.5 413.645V401.203L238.426 400.167L232.206 403.277L224.948 402.24L215.617 392.909L219.764 384.615L218.727 379.431L216.654 377.357L203.175 375.284L200.065 365.952L212.507 348.327L221.838 344.18L222.874 352.474L230.132 351.437L234.279 359.732L239.463 350.4L244.647 345.216V341.069L251.905 342.106V333.812L255.015 332.775L251.905 331.738L255.015 325.517H258.126V323.444H256.052L258.126 317.223H256.052L253.978 309.965L255.015 303.745L271.604 300.634V304.781H274.714L273.677 307.892H275.751L278.861 313.076L271.604 318.26L273.677 326.554L276.788 330.701L275.751 336.922L291.303 342.106L294.413 351.437L289.229 353.511L290.266 357.658H288.193L286.119 361.805L283.009 363.879V374.247L285.082 376.32L284.045 379.431L287.156 383.578H281.972L280.935 384.615L285.082 388.762L276.788 393.946L280.935 407.424L275.751 411.571L271.604 412.608L265.383 418.829L263.31 414.682L255.015 419.866L257.089 421.939L255.015 422.976L257.089 427.123L255.015 429.197L249.831 427.123L247.758 432.307L243.61 430.234H242.574Z" fill="#D147AC" fill-opacity="0.5" stroke="#0000FF" stroke-opacity="0.4" stroke-linecap="round" stroke-linejoin="round"/>
<path id="6108" class="district" name="Bến Cát" fill-rule="evenodd" clip-rule="evenodd" d="M212.507 348.327L206.286 355.584L204.212 351.437L201.102 350.4L196.955 357.658H193.844L190.734 356.621L188.66 349.364L183.476 344.18L180.366 347.29L179.329 351.437H173.108L165.851 350.4L163.777 346.253L154.446 342.106L146.152 329.665L154.446 316.186L149.262 315.149L147.188 317.223L140.968 308.929L148.225 304.781L149.262 293.377L144.078 292.34L139.931 289.229L133.71 276.788H139.931V274.714L161.703 268.494V259.162L165.851 253.978L171.035 257.089V260.199H173.108L172.071 259.162L174.145 262.273V265.383L182.439 269.53L184.513 268.494V263.31L188.66 261.236L189.697 263.31L193.844 260.199V262.273L194.881 259.162L203.175 252.942L208.359 258.126L215.617 257.089V262.273H217.69L219.764 257.089L242.574 240.5L239.463 235.316L238.426 227.022L244.647 225.985L251.905 221.838H258.126L267.457 209.396L269.53 211.47L266.42 212.506L261.236 220.801L263.31 243.61L267.457 242.574L263.31 267.457L266.42 266.42V277.825L268.494 284.045L273.677 290.266V303.745L271.604 304.781L272.641 300.634L255.015 303.745L253.978 309.965L256.052 317.223H258.126L256.052 323.444H258.126V325.517H255.015L251.905 331.738H255.015L251.905 333.812V342.106L244.647 341.069V345.216L239.463 350.4L234.279 359.732L230.132 351.437L222.874 352.474L221.838 344.18L213.543 347.29L212.507 348.327Z" fill="#D1475A" fill-opacity="0.5" stroke="#0000FF" stroke-opacity="0.4" stroke-linecap="round" stroke-linejoin="round"/>
<path id="6107" class="district" name="Di An" fill-rule="evenodd" clip-rule="evenodd" d="M326.554 483.11V488.294L320.333 489.331L318.26 491.405L314.113 485.184V483.11L318.26 482.074L317.223 480L311.002 476.89L307.892 478.963L304.781 477.926L308.929 470.669L311.002 438.528L317.223 434.381L314.113 421.939L320.333 411.571L325.517 409.498L324.481 411.571H326.554V414.682L328.628 416.755L326.554 421.939L332.775 424.013V430.234L336.922 433.344L337.959 432.307L338.996 434.381L342.106 433.344L343.143 437.491L348.327 438.528L349.364 441.639L346.253 445.786L350.4 444.749L354.548 445.786L355.584 447.859H361.805L363.879 449.933L366.989 460.301L379.431 458.227L383.578 460.301L385.652 463.411L380.468 464.448L376.32 467.558L375.284 466.522L373.21 468.595L374.247 471.706L369.063 473.779L361.805 484.147L358.695 482.074L353.511 484.147H346.253L345.216 488.294L340.032 487.258V476.89L331.738 467.558L329.664 469.632L328.628 474.816L325.517 476.89V482.074L326.554 483.11Z" fill="#D18847" fill-opacity="0.5" stroke="#0000FF" stroke-opacity="0.4" stroke-linecap="round" stroke-linejoin="round"/>
<path id="6106" class="district" name="Tân Uyên" fill-rule="evenodd" clip-rule="evenodd" d="M352.474 406.387L351.437 408.461L344.18 410.535L336.922 417.792L332.775 413.645L333.812 412.608L327.591 413.645L326.554 411.571H324.481L325.517 409.498L320.333 411.571L318.26 410.535L316.186 408.461L317.223 403.277H309.965L311.002 396.019L305.818 397.056L299.597 392.909H293.377V390.835H288.193L287.156 392.909L285.082 391.872L286.119 387.725L285.082 388.762L280.935 384.615L287.156 383.578L285.082 382.541L284.045 379.431L285.082 376.32L283.009 374.247V363.879L286.119 361.805L288.193 357.658H290.266V352.474L294.413 351.437L291.303 342.106L288.193 340.032L287.156 341.069L284.045 338.996L275.751 337.959L276.788 330.701L273.677 326.554L271.604 318.26L275.751 316.186L278.861 313.076V311.002L275.751 307.892H273.677L274.714 294.413L266.42 277.825L267.457 270.567L279.898 267.457L290.266 269.53L289.229 280.935L293.377 276.788L297.524 280.935H303.745L304.781 285.082L306.855 284.045L305.818 287.156L307.892 294.413L305.818 295.45L307.892 297.524V301.671L315.149 296.487V292.34L326.554 289.229L328.628 284.045V277.825H340.032L338.996 283.009L342.106 280.935V298.561L371.136 299.597L373.21 307.892L372.173 312.039L374.247 315.149L365.952 318.26L369.063 326.554L366.989 336.922L353.511 342.106L354.548 345.216L362.842 351.437L364.916 360.768L361.805 365.952L350.4 368.026L344.18 372.173L340.032 378.394L335.885 380.468L336.922 387.725L341.069 396.019L352.474 406.387Z" fill="#B7E830" fill-opacity="0.5" stroke="#0000FF" stroke-opacity="0.4" stroke-linecap="round" stroke-linejoin="round"/>
<path id="6105" class="district" name="Thuận An" fill-rule="evenodd" clip-rule="evenodd" d="M276.788 485.184L271.604 476.89L272.641 470.669L275.751 465.485L268.493 446.823L265.383 444.749L255.015 446.823L246.721 442.675L241.537 436.455V433.344L242.574 430.234L244.647 432.307H247.758L249.831 427.123L255.015 429.197V422.976L257.089 421.939L255.015 420.903L263.31 414.682L265.383 418.829L280.935 407.424L276.788 393.946L286.119 387.725L285.082 390.835L287.156 392.909L288.193 390.835L291.303 389.799L293.377 390.835V392.909L296.487 393.946V391.872L305.818 397.056L311.002 396.019L309.965 403.277H317.223L316.186 408.461L320.333 411.571L314.113 421.939L317.223 434.381L311.002 438.528L308.929 470.669L306.855 474.816L302.708 473.779L303.745 469.632L301.671 470.669L292.34 465.485L289.229 470.669L293.377 477.926L289.229 480L295.45 481.037L297.524 484.147H291.303V487.258L289.229 489.331L278.861 487.258L276.788 485.184Z" fill="#49E830" fill-opacity="0.5" stroke="#0000FF" stroke-opacity="0.4" stroke-linecap="round" stroke-linejoin="round"/>
<path id="6104" class="district" name="Bắc Tân Uyên" fill-rule="evenodd" clip-rule="evenodd" d="M388.762 358.695L383.578 354.548L376.32 336.922H366.989L369.063 326.554L365.952 318.26L374.247 315.149L372.173 312.039L373.21 307.892L371.136 299.597L342.106 298.561V280.935L338.996 283.009L340.032 277.825H328.628V284.045L326.554 289.229L315.149 292.34V296.487L307.892 302.708V298.561L305.818 296.487L307.892 294.413L305.818 287.156L306.855 284.045L304.781 285.082L303.745 280.935H297.524L293.377 276.788L289.229 280.935L290.266 269.53L279.898 267.457L267.457 270.567L266.42 266.42L263.31 267.457L264.346 261.236L267.457 244.647L286.119 230.132L295.45 229.095L299.597 242.574L302.708 240.5L304.781 232.206H314.113L316.186 231.169L319.297 224.948L323.444 223.911V239.463L347.29 240.5L349.364 237.39L369.063 225.985L370.1 220.801L372.173 219.764L376.32 224.948L384.615 221.838L382.541 218.727H375.284L378.394 211.47H385.652L396.019 202.139L393.946 199.028H391.872L392.909 190.734L396.019 189.697L408.461 192.807L409.498 194.881L418.829 199.028L419.866 190.734L424.013 195.918L419.866 201.102L420.903 202.139L422.976 203.175L432.307 200.065L434.381 201.102L436.455 207.323L438.528 209.396L440.602 208.359L443.712 213.543L442.675 219.764L436.455 223.911H432.307L431.271 225.985L435.418 229.095L436.455 233.242L434.381 236.353L436.455 238.426L444.749 237.39L447.859 242.574L455.117 240.5L460.301 248.794L465.485 249.831L461.338 256.052L470.669 260.199L472.742 268.494L480 271.604V275.751L472.742 276.788L471.706 279.898L473.779 281.972L470.669 286.119L480 299.597V301.671L473.779 303.745L475.853 307.892L470.669 311.002L466.522 317.223L464.448 326.554L469.632 329.665V331.738L465.485 341.069L462.374 342.106L458.227 336.922L455.117 335.885L446.823 344.18L447.859 350.4L439.565 354.548L437.491 369.063L427.123 364.916L420.903 365.952L409.498 371.136L397.056 360.768L388.762 358.695Z" fill="#30E886" fill-opacity="0.5" stroke="#0000FF" stroke-opacity="0.4" stroke-linecap="round" stroke-linejoin="round"/>
<path id="6103" class="district" name="Hàu Bàng" fill-rule="evenodd" clip-rule="evenodd" d="M263.31 169.998L262.273 190.734L264.346 194.881L283.009 191.771L290.266 186.587L292.34 188.66L294.413 187.623L293.377 192.807L285.082 202.139L284.045 213.543H287.156L288.193 223.911L295.45 229.095L286.119 230.132L267.457 244.647V242.574L263.31 243.61L261.236 220.801L266.42 212.507L269.53 211.47L268.493 209.396L258.126 221.838H251.905L238.426 227.022L239.463 235.316L242.574 240.5L219.764 257.089L217.69 262.273H215.617V257.089L208.359 258.126L203.175 252.942L199.028 257.089H195.918L193.844 263.31V260.199L189.697 263.31L188.66 261.236L184.513 263.31L185.55 265.383L183.476 267.457L184.513 268.494L182.439 269.53L174.145 265.383L173.108 259.162L171.035 260.199V258.126L167.924 255.015H165.851L161.703 259.162L158.593 257.089L157.556 258.126L152.372 252.942V248.794L151.335 249.831L146.152 243.61V234.279L143.041 232.206L145.115 225.985L140.968 216.654L137.857 215.617L136.82 213.543L128.526 211.47L127.489 209.396H131.636L132.673 211.47L136.82 210.433L134.747 203.175L136.82 205.249L140.968 202.139L145.115 203.175L142.004 195.918L151.335 192.807L163.777 185.55L164.814 188.66L171.035 186.587L172.071 189.697L186.587 184.513L184.513 181.403L180.366 161.703L175.182 159.63L165.851 149.262L156.519 143.041L157.556 139.931L165.851 132.673V130.6L164.814 127.489L160.667 128.526L152.372 96.3853L148.225 92.2381L153.409 89.1277H161.703L165.851 93.2749L167.924 98.4589L175.182 101.569L189.697 93.2749H197.991L203.175 89.1277L213.543 88.0909L216.654 106.753L229.095 109.864L241.537 108.827L247.758 110.9L245.684 115.048L237.39 123.342L238.426 129.563L247.758 140.968L250.868 139.931L257.089 145.115L263.31 142.004L264.346 145.115L263.31 169.998Z" fill="#30DCE8" fill-opacity="0.5" stroke="#0000FF" stroke-opacity="0.4" stroke-linecap="round" stroke-linejoin="round"/>
<path id="6102" class="district" name="Dầu Tiếng" fill-rule="evenodd" clip-rule="evenodd" d="M133.71 276.788L129.563 277.825L122.305 274.714L115.048 276.788L107.79 275.751L103.643 272.641L106.753 267.457L101.569 263.31L98.4589 264.346L95.3485 262.273L92.2381 267.457V269.53L95.3485 268.494L97.4221 272.641L95.3485 276.788L91.2013 280.935L87.0541 281.972L82.9069 279.898L75.6494 271.604L77.7229 270.567L80.8333 264.346L77.7229 259.162V253.978L75.6494 251.905L72.539 255.015L65.2814 251.905H62.171L61.1342 253.978V244.647H59.0606L56.987 241.537V243.61L51.803 246.721L48.6926 243.61H43.5087L40.3983 237.39L44.5455 222.874L38.3247 218.727L40.3983 210.433L36.2511 209.396V204.212L33.1407 202.139L31.0671 197.991L23.8095 203.175L21.7359 202.139L19.6623 195.918L16.5519 194.881V192.807L20.6991 189.697H23.8095V186.587H25.8831L24.8463 183.476L21.7359 185.55L15.5152 183.476L17.5887 181.403L19.6623 171.035L17.5887 169.998V167.924H19.6623V163.777L17.5887 165.851L16.5519 163.777L13.4416 162.74L11.368 168.961L8.25758 165.851V159.63L11.368 160.667L10.3312 157.556L8.25758 156.519L6.18398 158.593L8.25758 161.703H6.18398L4.11039 158.593V154.446L6.18398 153.409L11.368 137.857L1 121.268V114.011L15.5152 96.3853L30.0303 41.4351L37.2879 34.1775L54.9134 27.9567L60.0974 23.8095L66.3182 12.4048L70.4654 8.25758V5.14719L74.6126 4.11039L76.6861 1H90.1645L94.3117 3.07359L101.569 2.0368L105.716 4.11039H110.9L115.048 2.0368L117.121 3.07359L120.232 1L121.268 3.07359L126.452 4.11039L130.6 9.29437L134.747 10.3312L138.894 14.4784H143.041L149.262 17.5887L150.299 20.6991L158.593 25.8831H161.703L165.851 21.7359L166.887 18.6255L169.998 16.5519L171.035 12.4048L183.476 34.1775V37.2879L179.329 40.3983L178.292 43.5087L162.74 51.803L159.63 60.0974L162.74 63.2078L161.703 64.2446L164.814 69.4286V75.6494L159.63 86.0173L149.262 92.2381L152.372 96.3853L160.667 128.526L164.814 127.489L165.851 130.6V132.673L157.556 139.931L156.519 143.041L165.851 148.225L175.182 159.63L180.366 161.703L184.513 181.403L186.587 184.513L172.071 189.697L171.035 186.587L165.851 188.66L163.777 185.55L151.336 192.807L142.004 195.918L145.115 203.175L140.968 202.139L136.82 205.249L134.747 203.175L136.82 209.396L133.71 211.47L131.636 209.396H127.489L128.526 211.47L136.82 213.543L142.004 217.69L140.968 218.727L145.115 225.985L143.041 232.206L146.152 234.279V242.574L150.299 248.794H152.372V252.942L157.556 258.126H161.703L162.74 262.273L160.667 263.31L161.703 268.494L139.931 274.714V276.788H135.784H133.71Z" fill="#306EE8" fill-opacity="0.5" stroke="#0000FF" stroke-opacity="0.4" stroke-linecap="round" stroke-linejoin="round"/>
<path id="6101" class="district" name="Phú Giáo" fill-rule="evenodd" clip-rule="evenodd" d="M411.571 149.262V146.152L407.424 138.894L409.498 133.71L419.866 123.342L430.234 124.379L433.344 122.305V118.158L436.455 114.011L443.712 111.937L445.786 114.011L447.859 111.937L455.117 112.974L460.301 115.048L468.595 125.416L470.669 134.747L468.595 138.894H466.522V140.968L464.448 142.004L463.411 140.968L462.374 144.078L459.264 146.152L460.301 147.188L458.227 148.225V151.335L460.301 152.372L459.264 157.556L461.338 159.63L458.227 164.814H455.117L456.154 169.998L453.043 175.182L448.896 177.255L452.007 182.439H448.896L450.97 185.55L449.933 191.771L452.007 194.881H449.933L454.08 196.955L447.859 200.065L444.749 199.028V201.102L443.712 199.028L439.565 200.065L438.528 202.139L440.602 203.175L439.565 204.212L444.749 205.249L438.528 209.396L434.381 204.212V201.102L432.307 200.065L422.976 203.175L420.903 202.139L419.866 201.102L424.013 195.918L419.866 190.734V199.028L409.498 194.881L408.461 192.807L396.019 189.697L392.909 190.734L391.872 195.918V199.028L396.019 201.102L393.946 205.249L388.762 207.323L383.578 212.506L378.394 211.47L375.284 217.69L382.541 218.727L384.615 221.838L376.32 224.948L372.173 219.764L370.1 220.801L369.063 225.985L347.29 240.5L327.591 241.537L326.554 239.463H323.444V223.911L319.297 224.948L315.149 232.206H304.781L302.708 240.5L300.634 242.574L298.561 241.537L295.45 229.095L288.193 223.911L287.156 213.543H284.045L283.009 205.249L293.377 192.807L294.413 187.623L292.34 188.66L290.266 186.587L283.009 191.771L264.346 194.881L262.273 190.734L264.346 145.115L263.31 142.004L257.089 145.115L250.868 139.931L247.758 140.968L239.463 131.636L237.39 123.342L247.758 111.937L253.978 114.011L260.199 112.974L263.31 101.569V95.3485L261.236 92.2381L263.31 89.1277L260.199 77.7229L263.31 76.6861L264.346 79.7965L266.42 78.7597L269.53 81.8701L273.677 78.7597V76.6861L277.825 75.6493L283.009 80.8333L287.156 77.7229L286.119 74.6125L293.377 67.355L292.34 61.1342L299.597 60.0974V52.8398L306.855 53.8766L311.002 51.803V46.619L318.26 43.5086L322.407 39.3615L317.223 26.9199L320.333 19.6623L330.701 16.5519V14.4783H336.922L341.069 10.3312H345.216L348.327 7.22076L352.474 8.25756L357.658 15.5151L356.621 21.7359L360.768 31.0671L359.732 37.2879L343.143 55.9502L331.738 58.0238V71.5022L334.848 78.7597H344.18V93.2749H356.621L364.916 96.3853L374.247 90.1645L375.284 93.2749H380.468L384.615 97.4221L396.019 96.3853L398.093 99.4957L397.056 101.569L399.13 107.79H396.019L397.056 114.011L401.203 117.121L398.093 118.158V120.232L401.203 121.268L403.277 124.379L401.203 127.489H399.13L397.056 132.673L398.093 144.078H405.351L404.314 147.188L407.424 146.152L408.461 148.225H410.535L411.571 149.262Z" fill="#6130E8" fill-opacity="0.5" stroke="#0000FF" stroke-opacity="0.4" stroke-linecap="round" stroke-linejoin="round"/>
</g>
</svg>
