<svg width="805" height="418" viewBox="0 0 805 418" fill="none" xmlns="http://www.w3.org/2000/svg">
<g id="62" name="Long An">
<path id="6215" class="district" name="TP Tân An" fill-rule="evenodd" clip-rule="evenodd" d="M572.807 364.477L565.747 362.712L567.512 360.948L560.453 357.419L563.982 353.89L560.453 350.361V338.01L548.099 330.952L546.334 320.365L569.277 304.485L571.042 299.192L592.22 304.485V308.014H595.749L597.514 302.721H601.044L602.809 306.25L606.338 300.956H609.868L616.927 315.072L615.163 318.601L618.692 320.365L615.163 327.423L616.927 330.952H609.868L608.103 336.245L602.809 338.01L599.279 346.832L593.985 348.597V352.125H588.69V357.419L581.631 353.89L576.336 364.477H572.807Z" fill="#D147AC" fill-opacity="0.5" stroke="#0000FF" stroke-opacity="0.4" stroke-linecap="round" stroke-linejoin="round"/>
<path id="6214" class="district" name="Kiến Tường" fill-rule="evenodd" clip-rule="evenodd" d="M205.721 214.498V198.618L228.664 165.094L241.018 158.036L248.077 143.92L242.782 140.392L255.136 131.569V126.276L262.196 124.512L281.609 128.04L278.079 113.925L285.138 105.103H288.668L295.727 98.0448L290.433 94.5159L292.198 89.2225L286.903 82.1647V76.8714L325.73 113.925L322.2 119.218L325.73 128.04H302.787L293.963 143.92L292.198 142.156L288.668 158.036H281.609L278.079 165.094L286.903 166.858L299.257 179.209L304.552 180.974V189.796H297.492L293.963 195.089L279.844 200.383L265.725 196.854L260.431 209.205H253.371L251.607 223.321L228.664 225.085L212.78 216.263L205.721 214.498Z" fill="#D1475A" fill-opacity="0.5" stroke="#0000FF" stroke-opacity="0.4" stroke-linecap="round" stroke-linejoin="round"/>
<path id="6213" class="district" name="Bến Lức" fill-rule="evenodd" clip-rule="evenodd" d="M680.461 267.432L682.226 269.196L676.932 279.783H664.578L659.283 272.725L643.4 270.961L639.87 276.254L634.576 274.49V285.076L622.222 292.134L616.927 286.841H608.103V283.312L602.809 281.548L601.044 276.254V263.903L585.16 253.316L563.982 221.556L567.512 218.027L535.745 177.445L560.453 165.094H567.512V161.565H572.807L574.571 156.272L588.69 161.565L592.22 156.272H595.749L599.279 161.565L593.985 165.094L608.103 180.974L611.633 177.445L622.222 191.561L627.516 188.032L638.105 202.147L641.635 200.383L650.459 207.441L657.519 203.912L662.813 207.441L661.048 212.734L666.343 226.85L676.932 228.614L678.697 239.201L676.932 246.259L675.167 244.494L680.461 246.259V249.787L671.637 258.61L680.461 265.667V267.432Z" fill="#D18847" fill-opacity="0.5" stroke="#0000FF" stroke-opacity="0.4" stroke-linecap="round" stroke-linejoin="round"/>
<path id="6212" class="district" name="Cần Đước" fill-rule="evenodd" clip-rule="evenodd" d="M701.64 390.943L698.11 383.886V369.77L682.226 346.832L687.521 332.717V318.601L682.226 315.072L664.578 316.837L634.576 290.37V274.49H639.87L643.4 270.961L655.754 274.49L659.283 272.725L664.578 278.019L676.932 279.783L682.226 270.961L680.462 267.432L685.756 265.667L689.286 260.374L696.345 256.845L705.169 260.374L701.64 276.254L705.169 279.783L703.404 285.076H706.934L701.64 286.841V290.37L706.934 300.956L708.699 299.192L715.758 302.721V311.543L728.112 313.308L729.877 322.13L740.466 323.894L742.231 330.952L738.701 338.01L745.76 341.539L752.82 352.126L758.114 348.597H777.527L788.116 339.774L800.47 348.597L795.176 350.361L775.763 368.006L761.644 389.179H752.82L747.525 385.65V368.006L738.701 359.183L733.407 362.712L729.877 376.828L724.582 382.121L705.169 390.943H701.64Z" fill="#B7E830" fill-opacity="0.5" stroke="#0000FF" stroke-opacity="0.4" stroke-linecap="round" stroke-linejoin="round"/>
<path id="6211" class="district" name="Cần Giuộc" fill-rule="evenodd" clip-rule="evenodd" d="M759.879 348.597L754.585 352.126L751.055 350.361L747.525 341.539H742.231L738.701 338.01L742.231 330.952L740.466 323.894L731.642 322.13L728.112 318.601V313.308L715.758 311.543V302.721L710.464 299.192L706.934 300.956L705.169 292.134H701.64V288.605L706.934 285.076H703.404L705.169 279.783L701.64 276.254L705.169 262.139L696.345 256.845L691.051 258.61L685.756 263.903L687.521 265.667L680.462 267.432L671.637 258.61L678.697 249.787L680.462 251.552L691.051 248.023V251.552H694.58L696.345 248.023L703.404 251.552L715.758 246.259L717.523 249.787L719.288 248.023V251.552L724.582 253.316V258.61H728.112V267.432H735.171L738.701 262.139H742.231L745.76 255.081L749.29 258.61L759.879 255.081L763.409 251.552V246.259L770.468 251.552L773.998 248.023L784.587 255.081L786.352 253.316L793.411 262.139V269.196L789.881 272.725L793.411 278.019L789.881 276.254L784.587 281.548L791.646 297.428L796.941 293.899L798.706 295.663L795.176 297.428L802.235 299.192L800.47 315.072L804 338.01L800.47 348.597L788.117 339.774L777.528 348.597H763.409H759.879Z" fill="#49E830" fill-opacity="0.5" stroke="#0000FF" stroke-opacity="0.4" stroke-linecap="round" stroke-linejoin="round"/>
<path id="6210" class="district" name="Châu Thành" fill-rule="evenodd" clip-rule="evenodd" d="M699.875 398.001L701.64 403.295L682.226 406.823V399.766L673.402 396.237L669.872 401.53L662.813 392.708L655.754 399.766L652.224 396.237L650.459 399.766H646.93L632.811 412.117L631.046 417.41H623.987L622.222 413.881L616.927 417.41L615.163 413.881L611.633 415.646V412.117H618.692L613.398 406.823L606.338 405.059H599.279L597.514 408.588V405.059L592.22 399.766L593.985 396.237H588.69L590.455 392.708H597.514L609.868 382.121H613.398L606.338 376.828V371.534L590.455 360.948L588.69 352.126H592.22L608.103 336.245L609.868 330.952L618.692 329.188L622.222 330.952L625.752 343.303L632.811 345.068L639.87 339.774L646.93 343.303V355.654L655.754 362.712V366.241L648.694 369.77L653.989 375.063L661.048 371.534L662.813 364.477L669.872 362.712L675.167 368.006L676.932 375.063H682.226L685.756 364.477L676.932 357.419L682.226 346.832L698.11 369.77V383.886L701.64 390.943L698.11 392.708L699.875 398.001Z" fill="#30E886" fill-opacity="0.5" stroke="#0000FF" stroke-opacity="0.4" stroke-linecap="round" stroke-linejoin="round"/>
<path id="6209" class="district" name="Đức Hòa" fill-rule="evenodd" clip-rule="evenodd" d="M625.752 189.796L622.222 191.561L611.633 177.445L608.103 180.974L595.749 168.623L593.985 165.094L599.279 161.565L595.749 156.272H592.22L590.455 161.565L576.336 156.272L574.571 143.92L569.277 136.863L565.747 135.098L560.453 140.392H556.923L551.629 133.334L553.393 128.04L541.04 122.747L542.804 112.16L537.51 106.867L541.04 98.0448L539.275 92.7514L518.097 83.9292L516.332 60.9913L505.743 52.1691L509.273 41.5824L496.919 36.289L503.978 32.7601L507.508 27.4668L496.919 13.3512L498.684 8.05785L502.213 11.5867L507.508 6.2934L523.391 9.8223L539.275 18.6445L544.569 25.7023L548.099 23.9379L562.218 41.5824L586.925 39.8179L615.163 60.9913L664.578 85.6936L648.695 158.036L636.341 170.387L620.457 180.974L625.752 189.796Z" fill="#30DCE8" fill-opacity="0.5" stroke="#0000FF" stroke-opacity="0.4" stroke-linecap="round" stroke-linejoin="round"/>
<path id="6208" class="district" name="Đức Huệ" fill-rule="evenodd" clip-rule="evenodd" d="M493.389 168.623L481.035 177.445L445.738 161.565L443.974 129.805L428.09 98.0447L412.207 78.6358L421.031 60.9913L415.736 38.0534L421.031 34.5245L426.325 36.289L431.62 46.8757H442.209L454.563 38.0534L477.505 30.9956L495.154 32.7601L498.684 34.5245V38.0534L509.273 41.5823L505.743 52.169L516.332 60.9913L518.097 83.9291L537.51 90.9869L541.04 96.2803L537.51 105.103L542.804 112.16L541.04 122.747L546.334 126.276H553.393L551.629 133.334L556.923 140.392L565.747 136.863L572.807 140.392V161.565H567.512V165.094H560.453L512.802 191.561L493.389 168.623Z" fill="#306EE8" fill-opacity="0.5" stroke="#0000FF" stroke-opacity="0.4" stroke-linecap="round" stroke-linejoin="round"/>
<path id="6207" class="district" name="Mộc Hóa" fill-rule="evenodd" clip-rule="evenodd" d="M396.323 165.094L391.029 179.209L394.558 180.974L389.264 209.205L378.675 210.97L345.143 226.85L352.202 240.965L350.437 249.787L338.084 246.259L332.789 249.787L329.259 244.494L323.965 248.023L320.435 237.436H311.611L286.903 226.85L271.02 225.085L281.609 200.383L293.963 195.089L297.492 189.796H302.787L304.552 184.503V180.974L286.903 166.858L278.079 165.094L279.844 158.036H288.668L292.198 142.156L293.963 143.92L302.787 128.04H325.73L322.2 119.218L323.965 113.925L368.086 145.685L385.734 149.214L398.088 147.449L396.323 163.329V165.094Z" fill="#6130E8" fill-opacity="0.5" stroke="#0000FF" stroke-opacity="0.4" stroke-linecap="round" stroke-linejoin="round"/>
<path id="6206" class="district" name="Tân Hưng" fill-rule="evenodd" clip-rule="evenodd" d="M205.721 205.676L207.486 219.792L200.426 249.787L182.778 246.259L62.7692 133.334L73.3582 131.569L53.9451 92.7514L11.589 73.3424L1 53.9335H25.7077L34.5319 48.6401L52.1802 46.8757L85.7121 36.289L133.363 78.6358L163.365 98.0447H166.895V110.396L163.365 113.925L158.07 112.16L156.305 115.689L158.07 131.569L163.365 135.098L173.954 133.334L184.543 149.214L191.602 154.507V161.565L198.662 166.858V188.032L205.721 198.618V205.676Z" fill="#D030E8" fill-opacity="0.5" stroke="#0000FF" stroke-opacity="0.4" stroke-linecap="round" stroke-linejoin="round"/>
<path id="6205" class="district" name="Tân Thạnh" fill-rule="evenodd" clip-rule="evenodd" d="M380.44 334.481L265.725 323.894L216.31 258.61L200.426 249.787L207.486 219.792L205.721 214.498L228.664 225.085L251.607 223.321L253.371 209.205H260.431L265.725 196.854L279.844 200.383L278.079 212.734L271.02 225.085L286.903 226.85L311.611 237.436H320.435L323.965 248.023L329.259 244.494L332.789 249.787L338.084 246.259L380.44 255.081V300.956L387.499 299.192L389.264 334.481H380.44Z" fill="#E83092" fill-opacity="0.5" stroke="#0000FF" stroke-opacity="0.4" stroke-linecap="round" stroke-linejoin="round"/>
<path id="6204" class="district" name="Tân Trụ" fill-rule="evenodd" clip-rule="evenodd" d="M683.991 338.01L682.226 346.832L676.932 353.89V357.419L685.756 364.477L682.226 375.063L675.167 373.299V368.006L669.873 362.712L662.813 364.477L657.519 375.063L650.459 373.299L648.694 369.77L655.754 366.241V362.712L646.93 357.419V343.303L639.87 339.774L634.576 345.068H629.281L622.222 330.952H616.927L615.163 327.423L618.692 320.365L615.163 318.601L618.692 315.072L611.633 308.014L604.574 288.605L609.868 285.076L622.222 292.134L632.811 285.076L634.576 290.37L664.578 316.837H685.756L687.521 332.717L683.991 338.01Z" fill="#E83D30" fill-opacity="0.5" stroke="#0000FF" stroke-opacity="0.4" stroke-linecap="round" stroke-linejoin="round"/>
<path id="6203" class="district" name="Thạnh Hóa" fill-rule="evenodd" clip-rule="evenodd" d="M410.442 299.192L380.44 300.956V255.081L350.437 249.787L352.202 240.965L345.143 226.85L378.675 210.97L389.264 209.205L394.558 180.974L391.029 179.209L396.323 165.094L398.088 147.449L421.031 145.685H428.09L445.738 161.565L481.035 177.445L470.446 230.378L472.211 228.614L484.565 233.907L488.094 232.143V244.494L495.154 249.787H505.743L511.037 255.081L521.626 258.61L525.156 262.139L519.862 267.432L525.156 272.725L533.98 274.49L537.51 283.312L535.745 295.663L526.921 290.37L442.209 297.428L410.442 299.192Z" fill="#D147AC" fill-opacity="0.5" stroke="#0000FF" stroke-opacity="0.4" stroke-linecap="round" stroke-linejoin="round"/>
<path id="6202" class="district" name="Thủ Thừa" fill-rule="evenodd" clip-rule="evenodd" d="M546.334 320.365L539.275 316.837L526.921 302.721L521.626 306.25L507.508 292.134L526.921 290.37L533.98 295.663L537.51 290.37L535.745 276.254L519.862 269.196L525.156 263.903L521.626 258.61L505.743 249.787L502.213 251.552L491.624 248.023L486.33 242.73L489.859 237.436L488.094 232.143L484.565 233.907L473.976 228.614L470.446 230.378L479.27 179.209L493.389 168.623L512.802 191.561L535.745 177.445L567.512 218.027L563.982 221.556L581.631 244.494L585.16 255.081L601.044 263.903L599.279 272.725H602.809V281.548L608.103 283.312L604.574 292.134L609.868 300.956H606.338L602.809 308.014L597.514 302.721V306.25L592.22 308.014V304.485L569.277 299.192L565.747 306.25L548.099 318.601L546.334 320.365Z" fill="#D1475A" fill-opacity="0.5" stroke="#0000FF" stroke-opacity="0.4" stroke-linecap="round" stroke-linejoin="round"/>
<path id="6201" class="district" name="Vĩnh Hưng" fill-rule="evenodd" clip-rule="evenodd" d="M226.899 112.16L258.666 124.511L255.136 131.569L242.782 138.627L248.077 143.92L241.018 158.036L221.604 173.916L205.721 198.618L198.661 188.032V166.858L191.602 161.565V154.507L182.778 147.449L173.954 133.334L165.13 135.098L156.305 126.276V112.16L161.6 113.925L168.659 108.631L166.894 98.0447H163.365L133.363 78.6358L85.712 36.289L98.0659 34.5245L121.009 25.7023L142.187 8.0578L154.541 4.5289L165.13 6.29335L179.248 1L191.602 27.4667L193.367 25.7023L200.426 39.8179L235.723 89.2225L225.134 112.16L226.899 108.631V112.16Z" fill="#D18847" fill-opacity="0.5" stroke="#0000FF" stroke-opacity="0.4" stroke-linecap="round" stroke-linejoin="round"/>
</g>
</svg>
