<svg width="697" height="280" viewBox="0 0 697 280" fill="none" xmlns="http://www.w3.org/2000/svg">
<g id="63" name="Tiền Giang">
<path id="6311" class="district" name="TP Mỹ Tho" fill-rule="evenodd" clip-rule="evenodd" d="M358.337 182.246L338.413 188.886H334.618L327.027 180.349L344.105 175.606L339.361 164.223L338.413 137.663L342.208 138.612L343.156 133.869L346.003 134.818L347.9 130.075L361.183 136.715L364.029 135.766V133.869H365.927L366.876 130.075L373.517 134.818L380.158 133.869L379.21 131.023L391.544 128.178V130.075H393.441L395.339 132.92L401.98 135.766L405.775 130.075L404.826 132.92L406.724 137.663L410.519 141.458L407.673 147.149L413.365 162.326L411.468 171.812L402.929 176.555L385.851 173.709L364.029 179.4L358.337 182.246Z" fill="#D147AC" fill-opacity="0.5" stroke="#0000FF" stroke-opacity="0.4" stroke-linecap="round" stroke-linejoin="round"/>
<path id="6310" class="district" name="Thị xã Cai Lậy" fill-rule="evenodd" clip-rule="evenodd" d="M214.124 164.223L211.278 160.429H209.38L203.687 163.275L202.739 166.12H199.892L198.944 164.223L197.046 165.172L196.097 164.223L197.995 159.48L194.2 155.686L197.046 154.738L196.097 149.995L194.2 150.943V149.046L188.507 148.098L191.353 146.2L185.661 139.56V137.663L188.507 136.715L187.558 135.766L194.2 131.023L191.353 125.332L195.148 121.538L197.995 122.486L199.892 120.589L196.097 114.898L199.892 113.001L198.944 108.258L195.148 104.463H190.405L192.302 84.5435L189.456 67.4693L190.405 64.6235H193.251L194.2 62.7264L227.407 70.315V74.1092L251.126 79.8006L256.818 85.4921V89.2863L254.921 91.1835L259.665 94.9777L258.716 97.8234L262.511 100.669L264.409 104.463V109.206L260.614 110.155L261.562 116.795L251.126 118.692L256.818 129.126H258.716L261.562 131.972L260.614 137.663L262.511 142.406L258.716 143.355V146.2L253.023 147.149L252.075 149.995H246.382L240.689 155.686L237.843 154.738L236.894 150.943H226.458L223.612 160.429L222.663 159.48L216.021 164.223H214.124Z" fill="#D1475A" fill-opacity="0.5" stroke="#0000FF" stroke-opacity="0.4" stroke-linecap="round" stroke-linejoin="round"/>
<path id="6309" class="district" name="Gò Công" fill-rule="evenodd" clip-rule="evenodd" d="M605.966 169.915L596.478 177.503L593.632 173.709L577.503 177.503V160.429L574.656 161.378L565.169 146.2L567.066 144.303L566.117 137.663L565.169 139.56L560.425 137.663L559.476 131.023L553.783 125.332L552.835 121.538L547.142 119.641L545.244 115.846L543.347 116.795L542.398 113.001L537.654 114.898L532.91 113.949L531.013 109.206L533.859 106.361L543.347 105.412L553.783 97.8234L559.476 96.8749L565.169 90.2349L568.964 76.0064L572.759 73.1607H577.503L581.298 75.0578L584.144 80.7492L583.195 95.9263L588.888 104.463H599.324L603.119 100.669L605.966 104.463V107.309L604.068 108.258L605.017 111.103L604.068 112.052L602.171 110.155L601.222 112.052L604.068 113.001L605.017 114.898L609.761 113.949V117.743L607.863 118.692V120.589L606.914 119.641L603.119 127.229L605.966 131.023H607.863L606.914 133.869L605.966 135.766H602.171L606.914 139.56L613.556 152.84L621.146 160.429L605.966 169.915Z" fill="#D18847" fill-opacity="0.5" stroke="#0000FF" stroke-opacity="0.4" stroke-linecap="round" stroke-linejoin="round"/>
<path id="6308" class="district" name="Cái Bè" fill-rule="evenodd" clip-rule="evenodd" d="M160.044 170.863V177.503L165.737 178.452L164.788 186.04L162.89 187.937L151.505 184.143L142.017 186.989L135.376 190.783L122.093 180.349H115.452L106.913 185.092L77.5011 213.549L57.5769 220.189L53.7818 219.24L40.4991 207.857L32.9089 205.012L14.8823 203.115L13.9335 198.372L4.44583 195.526L5.3946 192.68L10.1385 189.835L8.24091 187.937L0.650757 186.989L2.5483 181.297L0.650757 152.84L20.5749 155.686L31.0114 126.28L86.9888 65.5721V36.1665L128.735 39.0122L127.786 82.6463L134.427 88.3377L133.478 90.2349L152.454 117.743L149.608 124.383L156.249 131.023L155.3 131.972L160.044 134.818L156.249 152.84L152.454 156.635L151.505 160.429V165.172L153.403 164.223L152.454 166.12L156.249 168.017L160.044 170.863Z" fill="#B7E830" fill-opacity="0.5" stroke="#0000FF" stroke-opacity="0.4" stroke-linecap="round" stroke-linejoin="round"/>
<path id="6307" class="district" name="Huyện Cai Lậy" fill-rule="evenodd" clip-rule="evenodd" d="M198.944 213.549L197.046 216.394L188.507 219.24L180.917 217.343L151.505 203.115L135.376 190.783L142.017 186.989L151.505 184.143L162.89 187.937L165.737 178.452L160.044 177.503V170.863L152.454 166.12L153.403 164.223L151.505 165.172L152.454 156.635L156.249 152.84L160.044 135.766L149.608 124.383L152.454 117.743L133.478 90.2349L134.427 88.3378L127.786 82.6464L128.735 39.0122L189.456 45.6522L193.251 53.2407L195.148 62.7264L194.2 61.7778L193.251 63.675L190.405 64.6236L189.456 67.4693L192.302 74.1092L190.405 104.463H195.148L198.944 108.258L199.892 113.001L197.046 114.898L199.892 120.589L197.995 122.486L195.148 121.538L191.353 125.332L194.2 131.023L189.456 133.869L187.558 135.766L188.507 136.715L185.661 137.663V139.56L191.353 146.2L188.507 147.149L190.405 149.046H194.2V150.943L196.097 149.995L197.046 154.738L194.2 155.686L197.995 159.48L196.097 164.223L197.046 165.172L198.944 164.223L199.892 166.12H202.739L203.687 163.275L209.38 160.429H211.278L214.124 164.223L218.868 163.275L222.663 159.48L223.612 160.429L225.509 152.84L228.355 150.943H236.894L237.843 154.738L240.689 155.686L246.382 149.995L252.075 150.943L253.023 147.149L255.87 146.2H258.716L259.665 149.995L261.562 149.046V155.686L263.46 159.48L260.614 161.378L259.665 168.966L253.972 171.812V173.709L257.767 177.503V185.092H265.357L267.255 186.989L269.152 186.04L270.101 192.68L226.458 213.549H208.431H198.944Z" fill="#49E830" fill-opacity="0.5" stroke="#0000FF" stroke-opacity="0.4" stroke-linecap="round" stroke-linejoin="round"/>
<path id="6306" class="district" name="Châu Thành" fill-rule="evenodd" clip-rule="evenodd" d="M280.538 189.835L270.101 192.68L269.153 186.04L267.255 186.989L266.306 185.092H257.767V177.503L253.972 173.709L255.87 169.915L259.665 168.966L260.614 161.378L263.46 159.48L261.562 155.686V149.046L259.665 149.995L258.716 146.2V143.355L262.511 142.406L260.614 137.663L261.562 131.972L258.716 129.126H256.819L251.126 119.641L253.023 117.743L260.614 116.795V110.155L264.409 109.206V104.463L262.511 100.669L258.716 97.8234V94.0292L268.204 93.0806L271.05 99.7206L273.896 98.772L274.845 94.0292L290.974 102.566L290.025 103.515L292.872 110.155L309.001 107.309L315.642 103.515V106.361L334.618 102.566L333.669 97.8234L348.849 95.9263L347.9 90.2349H353.593L350.747 76.0064L345.054 63.675L348.849 59.8807L349.798 62.7264L352.644 60.8293L355.491 61.7778L356.439 57.9836L352.644 57.035L355.491 52.2921L364.978 54.1893L364.029 50.395H367.825V47.5493L365.927 46.6007L367.825 41.8579H369.722L375.415 46.6007L376.363 44.7036L383.005 49.4464L381.107 54.1893L383.954 57.035V60.8293L382.056 62.7264L386.8 65.5721L383.954 70.3149L389.646 74.1092V76.0064H393.441L396.288 78.8521L397.236 77.9035L396.288 80.7492L384.902 79.8006L381.107 89.2863L382.056 90.2349H380.159V92.132H377.312V94.0292L375.415 93.0806L374.466 94.9777L365.927 95.9263L367.825 97.8234V104.463L365.927 106.361L369.722 111.103L371.62 116.795L369.722 117.743L370.671 120.589L366.876 125.332L365.927 133.869H364.029V135.766L361.183 136.715L349.798 131.972L348.849 130.075L346.003 134.818L343.157 133.869L342.208 138.612L338.413 137.663L339.361 164.223L344.105 175.606L299.513 187.937L280.538 189.835Z" fill="#30E886" fill-opacity="0.5" stroke="#0000FF" stroke-opacity="0.4" stroke-linecap="round" stroke-linejoin="round"/>
<path id="6305" class="district" name="Chợ Gạo" fill-rule="evenodd" clip-rule="evenodd" d="M510.14 187.937L506.345 194.577L507.294 197.423L505.396 202.166L503.498 204.063L489.267 198.372L466.496 196.475L437.085 197.423L429.494 193.629L402.929 176.555L411.468 171.812V167.069H413.365V162.326L407.673 147.149L410.519 141.458L406.724 138.612L405.775 130.075L401.98 135.766L395.339 132.92L393.441 130.075H391.544V128.178L379.21 131.023L380.158 133.869L373.517 134.818L365.927 130.075L366.876 125.332L370.671 120.589V117.743L369.722 118.692L371.62 116.795L369.722 111.103L367.824 110.155V107.309L365.927 106.361L367.824 104.463V97.8234L365.927 95.9263L374.466 94.9777L375.415 93.0806L377.312 94.0292V92.132H380.158V90.2349H382.056L381.107 89.2863L384.902 79.8006L396.288 80.7492L397.236 77.9035H399.134L401.98 71.2635L403.878 72.2121L406.724 66.5207L408.622 68.4178L409.57 67.4693L413.365 70.315H416.212V74.1092L420.956 76.9549L422.853 80.7492L424.751 79.8006L430.443 85.4921L432.341 84.5435V90.2349L440.88 94.9777L438.982 96.8749L437.085 95.9263L433.29 100.669L431.392 99.7206L429.494 103.515L425.699 106.361H422.853V108.258H414.314V110.155L419.058 113.001L418.109 115.846L421.904 121.538L420.956 124.383L422.853 125.332L424.751 121.538L431.392 123.435L432.341 121.538L438.033 124.383L439.931 122.486L445.624 129.126L441.828 131.023L438.982 129.126L437.085 131.023L438.033 132.92L440.88 131.972L442.777 135.766H444.675L447.521 131.972L451.316 134.818L454.162 132.92L458.906 133.869L460.804 128.178L462.701 130.075L463.65 127.229L474.087 117.743H475.984V115.846L477.882 116.795L480.728 112.052H482.626L485.472 114.898L486.421 113.949V116.795L490.216 118.692L492.113 121.538L489.267 124.383L490.216 126.281L494.011 124.383L498.755 125.332L501.601 122.486H503.498L506.345 127.229L507.294 132.92L502.55 136.715L499.703 149.046H495.908V151.892H492.113L493.062 154.738L485.472 157.583L483.574 159.48V163.275L488.318 162.326V167.069H491.164V169.915L487.369 175.606L490.216 177.503V183.195L499.703 179.4L501.601 176.555L503.498 180.349L509.191 179.4V182.246L505.396 186.989L509.191 187.937H510.14Z" fill="#30DCE8" fill-opacity="0.5" stroke="#0000FF" stroke-opacity="0.4" stroke-linecap="round" stroke-linejoin="round"/>
<path id="6304" class="district" name="Gò Công Đông" fill-rule="evenodd" clip-rule="evenodd" d="M667.636 190.783V207.857L663.84 213.549L649.609 225.88L666.687 238.212L665.738 242.006L641.07 224.932L614.504 216.394L608.812 213.549L598.375 205.012L590.785 208.806L588.888 207.857L584.144 196.475V193.629H589.836L595.529 188.886L602.17 186.989L596.478 177.503L621.146 160.429L613.556 152.84L606.914 139.56L602.17 135.766H605.966L607.863 131.972L603.119 127.229L606.914 119.641L607.863 120.589V118.692L609.761 117.743V113.949L605.017 114.898L601.222 112.052L602.17 110.155L604.068 112.052L605.017 111.103L604.068 108.258L605.966 107.309V104.463L603.119 100.669L614.504 81.6978L636.326 62.7264L642.019 61.7778L641.07 63.675L642.968 70.3149L650.558 88.3377L664.789 109.206L690.406 137.663L696.099 148.098L668.584 149.046L667.636 182.246V190.783Z" fill="#306EE8" fill-opacity="0.5" stroke="#0000FF" stroke-opacity="0.4" stroke-linecap="round" stroke-linejoin="round"/>
<path id="6303" class="district" name="Gò Công Tây" fill-rule="evenodd" clip-rule="evenodd" d="M568.015 216.394L559.476 212.6L552.835 211.652L519.628 209.755L511.089 207.857L503.498 204.063L507.294 197.423L506.345 194.577L510.14 189.835V187.937L505.396 186.989L509.191 182.246V179.4L503.498 180.349L501.601 176.555L499.703 179.4L490.216 183.195V177.503L487.369 175.606L491.164 169.915V167.069H488.318V162.326L483.574 163.275V159.48L485.472 157.583L492.113 154.738V151.892H495.908V149.046H499.703L502.55 136.715L506.345 132.92V127.229L503.498 122.486H501.601L498.755 125.332L494.011 124.383L490.216 126.28V118.692L486.421 116.795V113.949L490.216 110.155L494.011 108.258L498.755 117.743L505.396 111.103L507.294 114.898H512.986V122.486L514.884 123.435L517.73 121.538L522.474 123.435L528.166 121.538L534.808 118.692L532.91 113.949L537.654 114.898L542.398 113.001L543.347 116.795L545.244 115.846L547.142 119.641L552.835 121.538L554.732 126.28L559.476 131.023L560.425 137.663L565.169 139.56L566.117 137.663L567.066 144.303L565.169 146.2L574.656 161.378L577.503 160.429V177.503L593.632 173.709L602.171 186.989L595.529 188.886L589.837 193.629H585.093V199.32L587.939 203.115L588.888 207.857L590.785 208.806L583.195 217.343L576.554 219.24L573.707 218.292L568.015 216.394Z" fill="#6130E8" fill-opacity="0.5" stroke="#0000FF" stroke-opacity="0.4" stroke-linecap="round" stroke-linejoin="round"/>
<path id="6302" class="district" name="Tân Phú Đông" fill-rule="evenodd" clip-rule="evenodd" d="M673.328 271.411H671.431L670.482 269.514L672.379 267.617L673.328 262.874L669.533 256.234H674.277L677.123 259.08L680.918 267.617L673.328 271.411ZM540.5 238.212L521.525 231.572L501.601 226.829L494.96 223.034L487.369 215.446L471.24 207.857L457.009 197.423L466.496 196.475L489.267 198.372L514.884 208.806L536.705 211.652L559.476 212.6L576.554 219.24L583.195 217.343L590.785 208.806L598.375 205.012L608.812 213.549L614.504 216.395L641.07 224.932L665.738 242.006L663.841 246.749L667.636 256.234L664.789 260.029L650.558 268.566L648.66 279L620.197 265.72L605.017 250.543L587.939 244.852L571.81 243.903L549.988 239.16L540.5 238.212Z" fill="#D030E8" fill-opacity="0.5" stroke="#0000FF" stroke-opacity="0.4" stroke-linecap="round" stroke-linejoin="round"/>
<path id="6301" class="district" name="Tân Phước" fill-rule="evenodd" clip-rule="evenodd" d="M258.716 94.0292L254.921 91.1835L256.818 89.2863V85.492L251.126 79.8006L227.407 74.1092V70.315L195.148 62.7264L193.251 53.2407L189.456 45.6522H197.995V8.65801L264.409 4.86373L269.152 5.8123L325.13 1.06946L342.208 15.298L347.9 12.4523L349.798 13.4008L361.183 27.6294L368.773 31.4236L367.825 41.8579L365.927 46.6007L367.825 47.5493V49.4464L364.029 50.395L364.978 54.1893L355.491 52.2922L352.644 57.035L356.439 57.9836L355.491 61.7778L352.644 60.8293L349.798 62.7264L348.849 59.8807L345.054 63.675L350.747 76.0064L353.593 90.2349H347.9V94.0292L349.798 95.9263L333.669 97.8234L334.618 102.566L315.642 106.361V103.515L309.001 107.309L292.872 110.155L290.025 103.515L290.974 102.566L274.845 94.0292L273.896 98.772L271.05 99.7206L268.204 93.0806L258.716 94.0292Z" fill="#E83092" fill-opacity="0.5" stroke="#0000FF" stroke-opacity="0.4" stroke-linecap="round" stroke-linejoin="round"/>
</g>
</svg>
