<svg width="603" height="452" viewBox="0 0 603 452" fill="none" xmlns="http://www.w3.org/2000/svg">
<g id="64" name="Vĩnh Long">
<path id="6408" class="district" name="TP Vĩnh Long" fill-rule="evenodd" clip-rule="evenodd" d="M230.775 112.48L228.055 105.683L217.178 98.8852V88.0091L204.942 86.6496L200.863 74.4139L198.144 75.7734L194.065 70.3354V67.6163H198.144L209.021 56.7402H219.898L243.011 48.5831L270.203 70.3354L277.001 73.0544H286.519L309.632 67.6163L310.992 78.4925L309.632 82.571L305.553 83.9305L308.273 89.3686L305.553 92.0876L308.273 100.245L304.194 105.683V102.964L300.115 104.323L298.755 100.245H290.598L275.642 105.683L271.563 102.964L267.484 111.121L262.046 109.761L263.405 104.323L260.686 102.964L257.967 93.4471L263.405 92.0876L262.046 89.3686L243.011 90.7281L237.573 97.5257L233.494 98.8852V104.323L230.775 112.48Z" fill="#D147AC" fill-opacity="0.5" stroke="#0000FF" stroke-opacity="0.4" stroke-linecap="round" stroke-linejoin="round"/>
<path id="6407" class="district" name="Bình Minh" fill-rule="evenodd" clip-rule="evenodd" d="M209.021 313.689H211.74L213.1 320.486H210.38L198.144 343.598L204.942 346.317H199.504L198.144 349.036L202.223 351.755L200.863 353.115L191.346 350.396L183.188 342.239L165.513 335.441H157.356L151.917 339.52L138.321 321.846L130.163 302.813L112.488 281.06L113.848 228.039L146.479 234.837V237.556L147.838 236.196L154.636 238.915L161.434 234.837L168.232 223.961V230.758H173.671L177.75 241.634L176.39 252.511L181.829 278.341L192.705 283.779L202.223 279.701L209.021 294.656V301.453V313.689Z" fill="#D1475A" fill-opacity="0.5" stroke="#0000FF" stroke-opacity="0.4" stroke-linecap="round" stroke-linejoin="round"/>
<path id="6406" class="district" name="Bình Tân" fill-rule="evenodd" clip-rule="evenodd" d="M115.208 173.659L117.927 177.737L132.882 180.456L135.602 183.175L142.4 184.535L165.513 183.175L168.232 173.659L183.188 179.097V184.535L180.469 185.894V218.523H172.311L173.671 230.758H168.232V223.961L161.434 234.837L154.636 238.915L147.838 236.196L146.479 237.556V234.837L113.848 228.039L112.488 281.06L105.69 270.184L96.1729 262.027L82.5768 255.23L68.9807 242.994L43.148 229.399L1 198.13L5.07884 194.051L3.71923 189.973L45.8672 128.795L64.9018 135.592L75.7787 150.547L82.5768 153.266L92.0941 143.749L98.8922 153.266L115.208 173.659Z" fill="#D18847" fill-opacity="0.5" stroke="#0000FF" stroke-opacity="0.4" stroke-linecap="round" stroke-linejoin="round"/>
<path id="6405" class="district" name="Long Hồ" fill-rule="evenodd" clip-rule="evenodd" d="M336.824 195.411L320.509 199.489L310.992 184.535L308.273 185.894L296.036 181.816L294.676 179.097L287.878 176.378L275.642 166.861L274.282 172.299L271.563 175.018H267.484L264.765 181.816V189.973L259.327 191.332L243.011 185.894V192.692L217.179 181.816L207.661 180.456L196.784 183.175L187.267 179.097L189.986 166.861L185.907 164.142L192.705 150.547V143.749H199.504L202.223 146.468L204.942 143.749L211.74 147.828L215.819 141.03H229.415L234.853 120.637L230.775 112.48L233.494 104.323L232.134 102.964L233.494 98.8852L241.652 90.7281L262.046 89.3686L263.405 90.7281L257.967 93.4471L259.327 100.245L263.405 104.323L262.046 109.761L267.484 111.121L271.563 102.964L275.642 105.683L290.598 100.245H297.396L300.115 104.323L304.194 102.964V105.683L306.913 102.964L308.273 100.245L304.194 94.8066L308.273 89.3686L305.553 85.29L306.913 82.571H309.632L310.992 78.4924L309.632 67.6163L286.519 73.0544H277.002L270.203 70.3353L243.011 48.5831L285.159 7.79758L297.396 1H306.913L349.061 33.6284L343.623 41.7855L344.982 43.145L342.263 51.3021L344.982 54.0211L342.263 59.4592L349.061 60.8187L353.14 73.0544L349.061 75.7734L335.465 73.0544L331.386 81.2115L336.824 85.29L339.544 90.7281H343.623L342.263 97.5257L334.105 105.683L328.667 107.042L324.588 102.964H317.79V107.042L313.711 109.761L317.79 116.559L316.43 123.356L320.509 126.076L327.307 138.311L338.184 139.671L335.465 147.828L339.544 154.625L335.465 169.58L340.903 181.816L346.342 187.254L343.623 191.332L338.184 194.051L336.824 195.411Z" fill="#B7E830" fill-opacity="0.5" stroke="#0000FF" stroke-opacity="0.4" stroke-linecap="round" stroke-linejoin="round"/>
<path id="6404" class="district" name="Mang Thít" fill-rule="evenodd" clip-rule="evenodd" d="M489.101 158.704L486.382 169.58L483.663 172.299L479.584 166.861L467.347 176.378L441.515 168.221L436.076 158.704L433.357 157.344L426.559 161.423H419.761L415.682 168.221L412.963 184.535V191.332L418.401 195.411V198.13L412.963 210.366L404.805 206.287L393.928 204.927L392.569 211.725L398.007 217.163L393.928 228.039L340.903 181.816L335.465 169.58L339.544 154.625L336.824 147.828L338.184 139.671H330.026L324.588 134.233L320.509 126.076L316.43 123.356L317.79 117.918L313.711 109.761L316.43 107.042V102.964H324.588L328.667 107.042L332.746 105.683L340.903 97.5257L343.623 90.7281H339.544L338.184 85.29L331.386 81.2115L335.465 73.0544L349.061 75.7734L351.78 83.9305L361.298 86.6495L425.199 94.8066L455.111 117.918L457.83 128.795L465.988 136.952L475.505 141.03L479.584 145.109L489.101 158.704Z" fill="#49E830" fill-opacity="0.5" stroke="#0000FF" stroke-opacity="0.4" stroke-linecap="round" stroke-linejoin="round"/>
<path id="6403" class="district" name="Tam Bình" fill-rule="evenodd" clip-rule="evenodd" d="M255.248 344.958L245.73 355.834L237.573 359.912L234.853 358.553L229.415 368.069L198.144 349.036L199.504 346.317H203.582L198.144 343.598L210.38 320.486H213.1L211.74 313.689H209.021V294.656L202.223 279.701L192.705 283.779L181.829 278.341L176.39 252.511L177.75 241.634L173.671 232.118L172.311 218.523H180.469L179.109 210.366L181.829 203.568L180.469 198.13L181.829 199.489L179.109 185.894L181.829 184.535L183.188 179.097L196.784 183.175L207.661 180.456L219.898 181.816L243.011 192.692V185.894L259.327 191.332L264.765 189.973V181.816L267.484 175.018H271.563L275.642 166.861L287.878 176.378L294.676 179.097L296.036 181.816L308.273 185.894L310.992 184.535L320.509 198.13L336.824 195.411L346.342 187.254L380.332 214.444L385.771 222.601L393.928 228.039L389.849 233.477L384.411 236.196V241.634H368.096L362.657 252.511L355.859 253.87L350.421 257.949L344.982 247.072L335.465 256.589L323.228 274.263L325.948 276.982L324.588 287.858L317.79 286.498L302.834 313.689H298.755L255.248 344.958Z" fill="#30E886" fill-opacity="0.5" stroke="#0000FF" stroke-opacity="0.4" stroke-linecap="round" stroke-linejoin="round"/>
<path id="6402" class="district" name="Trà Ôn" fill-rule="evenodd" clip-rule="evenodd" d="M316.43 425.169L312.351 429.248L306.913 427.888L301.475 433.326L278.361 411.574H267.484L296.036 451L286.519 445.562L275.642 431.967L237.573 404.776L232.134 402.057H221.257L192.705 383.024L160.075 351.755L151.917 339.52L157.356 335.441H165.513L183.188 342.239L191.346 350.396L200.863 353.115L202.223 351.755L229.415 368.069L234.853 358.553L236.213 359.912L245.73 355.834L255.248 344.958L298.755 313.689H302.834L317.79 286.498L324.588 287.858L325.948 276.982L323.228 274.263L343.623 247.072L346.342 248.432L350.421 257.949L355.859 253.87L362.657 252.511L368.096 241.634H384.411L387.13 247.072L398.007 256.589H406.165L408.884 259.308L404.805 271.544L406.165 278.341H408.884L410.244 293.296L407.524 291.937V300.094L389.849 343.598L380.332 359.912L400.726 374.867L391.209 389.822L370.815 387.103L369.455 392.541L359.938 396.619L351.78 407.495L342.263 406.136L335.465 402.057L327.307 410.214L330.026 418.372L321.869 422.45L316.43 425.169Z" fill="#30DCE8" fill-opacity="0.5" stroke="#0000FF" stroke-opacity="0.4" stroke-linecap="round" stroke-linejoin="round"/>
<path id="6401" class="district" name="Vũng Liêm" fill-rule="evenodd" clip-rule="evenodd" d="M538.047 276.982L539.407 286.498L535.328 290.577L543.486 291.937L544.845 310.97L533.968 317.767L527.17 319.127L523.091 325.924L520.372 324.565L521.732 321.846H519.013L517.653 324.565L510.855 319.127L508.136 309.61L505.417 308.251L464.628 316.408L448.313 309.61V331.363L444.234 343.598L446.953 353.115L445.594 372.148L426.559 396.619L415.682 385.743L380.332 359.912L389.849 343.598L407.524 300.094V291.937L410.244 293.296L408.884 278.341H406.165L404.805 271.544L408.884 259.308L406.165 256.589H398.007L392.569 252.511L387.13 247.072L384.411 236.196L389.849 233.477L399.367 217.163L392.569 213.085L393.928 204.927L404.805 206.287L411.603 210.366L415.682 204.927L418.401 195.411L412.963 191.332V184.535L415.682 168.221L419.761 161.423H426.559L433.357 157.344L436.076 158.704L441.515 168.221L467.347 176.378L479.584 166.861L483.663 172.299L486.382 169.58L489.101 158.704L501.338 155.985L516.293 168.221L540.766 194.051L554.363 217.163L581.555 249.792L601.949 283.779L572.038 259.308L553.003 252.511L546.205 256.589L544.845 260.668H542.126L539.407 274.263H542.126L538.047 276.982Z" fill="#306EE8" fill-opacity="0.5" stroke="#0000FF" stroke-opacity="0.4" stroke-linecap="round" stroke-linejoin="round"/>
</g>
</svg>
