<svg width="701" height="467" viewBox="0 0 701 467" fill="none" xmlns="http://www.w3.org/2000/svg">
<g id="65" name="Cần Thơ">
<path id="6509" class="district" name="Bình Thủy" fill-rule="evenodd" clip-rule="evenodd" d="M586.668 336.61L583.562 347.461L579.681 354.434L575.798 353.661V355.209H574.245L575.798 355.985L569.587 362.184H568.035V360.634L565.706 362.96L564.154 361.409L563.378 362.96L560.273 361.409L556.391 364.51L558.72 369.935L553.286 368.384L551.735 363.735H547.853L547.077 361.409L540.867 359.086L540.09 355.209L543.196 348.234L541.643 345.136L544.748 343.585V341.262L547.853 339.711L550.182 340.487V338.161H551.735L550.958 334.287L548.629 332.736L553.286 330.41L551.735 329.638L550.182 325.761L547.853 327.312L543.971 323.438L543.196 316.463L544.748 314.137H547.853L546.301 311.814L516.804 307.937V311.039L515.251 312.587L507.489 313.362L505.936 308.713H504.384L503.608 300.962L505.936 300.187V296.313L498.172 288.563L499.726 277.715L505.936 281.592L511.37 282.363L529.223 273.841L531.552 269.192L542.42 261.442L538.538 259.116L540.09 252.916V250.593L538.538 249.818L547.077 238.968L573.468 259.891L595.206 270.74L610.731 283.915L625.48 291.664L623.927 296.313L616.165 303.288L620.822 309.488L617.716 311.814L616.165 315.688L605.297 318.786L603.745 321.112L599.087 319.562L597.534 321.112L595.982 320.337L588.996 332.736L586.668 336.61Z" fill="#D147AC" fill-opacity="0.5" stroke="#0000FF" stroke-opacity="0.4" stroke-linecap="round" stroke-linejoin="round"/>
<path id="6508" class="district" name="Cái Răng" fill-rule="evenodd" clip-rule="evenodd" d="M619.269 424.956L609.954 423.405L607.626 421.079L603.745 421.855L591.325 416.43L578.129 407.907L575.8 409.455L573.468 407.907H570.364L563.378 401.707L564.93 397.056L569.587 398.606V397.056L572.693 396.283L575.023 388.533L578.129 386.207V384.656L585.891 375.359L588.219 369.159L590.549 366.833L599.864 363.735L608.402 366.833L611.507 366.061L617.716 359.861L622.374 347.461L635.57 344.36L637.899 335.837L653.426 324.211L665.07 338.161L674.384 359.861L679.042 367.609L700 393.182L693.791 398.606H689.91L684.476 401.707L671.279 414.107L625.479 421.855L623.15 425.731L620.046 424.956H619.269Z" fill="#D1475A" fill-opacity="0.5" stroke="#0000FF" stroke-opacity="0.4" stroke-linecap="round" stroke-linejoin="round"/>
<path id="6507" class="district" name="Ninh Kiều" fill-rule="evenodd" clip-rule="evenodd" d="M581.234 380.782H572.693L573.468 378.457L571.917 376.91L571.14 371.485H569.587L566.483 368.384L558.72 369.935L556.392 364.51L559.497 361.409L563.378 362.96L564.154 361.409L565.706 362.96L568.035 360.634V362.184H569.587L575.798 356.76L574.245 355.209H575.798V353.661L579.681 354.434L583.562 347.462L586.668 336.61L595.983 320.337L597.534 321.112L599.087 319.562L603.745 321.112L605.297 318.786L616.165 315.688L620.822 309.488L616.165 303.288L623.927 296.313L625.48 291.664L628.584 293.215L637.123 301.738L653.424 324.211L637.899 335.837L635.57 344.36L622.374 347.462L617.716 359.861L611.507 366.061L608.402 366.834L599.864 363.735L590.549 366.834L582.786 379.232L581.234 380.782Z" fill="#D18847" fill-opacity="0.5" stroke="#0000FF" stroke-opacity="0.4" stroke-linecap="round" stroke-linejoin="round"/>
<path id="6506" class="district" name="Ô Môn" fill-rule="evenodd" clip-rule="evenodd" d="M507.489 313.362L506.712 318.011L502.831 317.238L502.055 318.786L497.395 317.238L495.067 318.786L490.409 318.011L486.528 314.912H482.647L476.437 311.814L474.108 314.137L472.556 318.786L470.227 319.562L467.122 315.688L464.017 317.238L462.464 320.337L456.255 323.438L457.807 321.112L457.031 319.562L459.359 317.238L454.702 308.713L453.15 297.089L451.597 296.313L458.583 290.114L457.031 289.338L458.583 280.041L454.702 269.965H452.374V262.992L450.821 258.341H447.716L441.506 250.593L437.625 249.818L441.506 247.492L419.769 226.568L409.677 233.543L408.902 231.218L374.748 199.445L379.405 188.597L378.629 187.822L380.957 184.722L383.286 183.947L382.51 183.172L387.167 174.647L388.719 169.223L394.153 157.598L394.93 158.373L394.153 156.049L409.677 155.274L411.23 156.823H413.56L416.664 155.274L418.216 159.923L424.429 153.724H422.877L421.322 149.074H418.993L417.441 145.974L419.769 143.649L425.981 141.324L444.611 158.373L451.597 159.923L476.437 182.397L488.08 200.22L495.842 206.42L547.077 238.968L538.538 249.818L540.09 250.593L538.538 259.116L542.42 261.442L531.552 269.192L529.223 273.841L519.132 279.266L512.146 280.816L511.37 282.364L505.936 281.592L499.726 277.715L498.171 288.563L505.936 296.313V300.187L503.608 300.962L504.384 308.713H505.936V311.039L507.489 313.362Z" fill="#B7E830" fill-opacity="0.5" stroke="#0000FF" stroke-opacity="0.4" stroke-linecap="round" stroke-linejoin="round"/>
<path id="6505" class="district" name="Thốt Nốt" fill-rule="evenodd" clip-rule="evenodd" d="M425.981 141.324L419.769 143.649L417.441 145.974L418.993 149.074H421.324L422.877 153.724H424.429L418.216 159.923L416.664 155.274L413.56 156.823H411.23L409.677 155.274L394.153 156.049L394.93 158.373L394.153 157.598L388.719 169.223L387.167 174.647L382.51 183.172L383.286 183.947L380.957 184.722L378.629 187.822L379.405 188.597L374.748 199.445L352.236 176.972L355.341 174.647L354.566 170.773L357.67 166.123L359.999 152.949L361.551 149.849L363.104 137.45L359.222 126.6L361.551 118.851L358.447 115.751H354.566L350.684 118.851L340.59 118.076L336.709 122.725L333.604 118.851L331.276 118.076V116.526L321.185 109.551L308.765 104.127L307.988 102.577L309.541 73.9041L304.107 74.6789L306.437 69.2542L301.003 56.8552L297.121 55.3052L294.792 51.4305V43.6811L293.24 41.3563L297.121 39.8062L295.569 34.3817L297.121 33.6066L290.911 25.8572H289.359V24.3074L292.464 23.5324L290.911 21.9825V17.3329L287.806 15.7829L293.24 11.1332L296.345 2.60882L305.66 1.05893L325.066 20.4326L358.447 38.2565L383.286 59.955L422.877 99.4772L429.086 106.451L442.282 128.925L451.597 159.923L444.612 158.373L440.73 155.274L425.981 141.324Z" fill="#49E830" fill-opacity="0.5" stroke="#0000FF" stroke-opacity="0.4" stroke-linecap="round" stroke-linejoin="round"/>
<path id="6504" class="district" name="Cờ Đỏ" fill-rule="evenodd" clip-rule="evenodd" d="M235.02 331.186L231.139 337.385L217.943 345.136L157.394 289.338L148.855 279.266L136.435 217.269L165.933 188.597L186.116 187.047L187.668 184.722L214.061 183.172L214.837 187.047L244.335 161.473L260.636 163.798L262.964 159.148H266.848L276.94 151.399L280.821 139.775L283.925 138.224L284.702 140.549L289.359 141.324L290.911 138.224L286.254 135.125L287.806 132.025H286.254V129.7L284.702 128.15L287.806 127.375L286.254 126.6V124.275H290.911L296.345 112.651L294.792 109.551L297.898 110.326L298.673 105.676H308.765V104.127L321.185 109.551L331.276 116.526V118.076L333.604 118.851L336.709 122.725L340.59 118.076L350.684 118.851L354.566 115.751H358.447L361.551 118.851L359.222 126.6L363.104 137.45L361.551 149.849L359.999 152.949L357.67 166.123L354.566 170.773L355.341 174.647L352.236 176.972L403.468 226.568L339.038 273.066L331.276 271.515L333.604 275.392L336.709 276.165L338.262 299.414H331.276L335.934 308.713L304.107 305.614L294.017 312.587L301.003 300.187L256.755 304.064L253.65 298.639L235.02 331.186Z" fill="#30E886" fill-opacity="0.5" stroke="#0000FF" stroke-opacity="0.4" stroke-linecap="round" stroke-linejoin="round"/>
<path id="6503" class="district" name="Phong Điền" fill-rule="evenodd" clip-rule="evenodd" d="M563.378 401.707L562.601 406.357L557.944 410.23L552.51 420.306H550.958L548.629 422.63L541.643 421.079L540.867 426.506L530 425.731V428.054L512.923 433.479L514.474 437.355H512.146V438.903L509.817 437.355L503.608 442.779L490.409 431.155L507.489 414.88L500.503 412.556H489.633L490.409 407.907L482.647 404.031L483.422 403.255L477.213 401.707L475.66 404.031L477.213 406.357L474.884 414.107L471.003 418.756L464.793 421.855L463.241 420.306H460.912L457.031 424.18L456.255 431.155L445.387 435.805L405.021 392.407L411.23 378.458L415.888 379.232L416.664 368.384L428.31 369.935L429.086 367.609L436.848 368.384V366.833L443.059 369.159L446.94 366.833H453.926L455.478 357.535L451.597 349.01L452.374 336.61L455.478 335.062L453.926 327.312L454.702 323.438L462.464 320.337V318.786H464.017V317.238L467.122 315.688L470.226 319.562L472.556 318.786L474.108 314.137L476.437 311.814L482.647 314.912H486.528L490.409 318.011H506.712L507.489 313.362L515.251 312.587L516.804 311.039V307.937L546.301 311.814L547.852 314.137H544.748L543.196 316.463L543.971 323.438L547.852 327.312L550.182 325.761L551.735 329.638L553.286 330.411L548.629 332.736L550.958 334.287L551.735 338.161H550.182V340.487L547.852 339.711L544.748 341.262V343.585L541.643 345.136L543.196 348.234L541.643 354.434L540.09 355.209L540.867 359.086L547.077 361.409L547.852 363.735H551.735L553.286 368.384L558.72 369.935L566.483 368.384L567.259 369.935L571.14 371.485L571.917 376.91L573.468 378.458L572.693 380.782H581.234L578.129 386.207L575.021 388.533L572.693 396.283L569.587 397.056V398.606L564.93 397.056L563.378 401.707Z" fill="#30DCE8" fill-opacity="0.5" stroke="#0000FF" stroke-opacity="0.4" stroke-linecap="round" stroke-linejoin="round"/>
<path id="6502" class="district" name="Thới Lai" fill-rule="evenodd" clip-rule="evenodd" d="M363.88 438.903L362.328 442.004L358.447 441.229L347.579 466.028L217.943 345.136L231.139 337.385L253.65 298.639L256.755 304.064L301.003 300.187L294.017 312.587L304.107 305.614L335.933 308.713L331.276 299.414H338.262L336.709 276.165L333.604 275.392L331.276 271.515L339.038 273.066L403.468 226.568L408.902 231.218L409.677 233.543L419.769 226.568L441.506 247.492L437.625 249.818L441.506 250.593L447.716 258.341H450.821L452.374 262.992V269.965H454.702L458.583 280.041L457.031 287.788V289.338L458.583 290.114L451.597 296.313L453.15 297.089L454.702 308.713L459.359 317.238L457.031 319.562L457.807 321.112L456.255 323.438H454.702L453.925 327.312L455.478 335.062L452.374 336.61L451.597 349.01L455.478 357.535L453.925 366.833H446.94L443.059 369.159L436.848 366.833V368.384L429.086 367.609L428.31 369.935L416.664 368.384L415.888 379.233L411.23 378.458L408.126 386.207L394.929 380.783L389.496 392.407L381.733 389.308L368.537 418.756L373.971 421.079L367.761 428.83L368.537 429.605L363.88 438.903Z" fill="#306EE8" fill-opacity="0.5" stroke="#0000FF" stroke-opacity="0.4" stroke-linecap="round" stroke-linejoin="round"/>
<path id="6501" class="district" name="Vĩnh Thạnh" fill-rule="evenodd" clip-rule="evenodd" d="M260.636 163.798L244.335 161.473L214.837 187.047L214.061 183.172L187.668 184.722L186.116 187.047L165.933 188.597L136.435 217.269L144.974 258.341L103.832 211.844L96.8456 219.594L88.3068 208.745L82.8729 214.944L57.2563 189.372L0.589294 143.649L31.6398 100.252L40.1787 91.7278L47.1651 100.252L72.0053 75.4538L70.4529 73.1291L75.8865 68.4794L75.1103 66.9294L85.9781 56.0802L92.1882 65.3797L98.398 59.955L125.567 104.901L194.655 83.9783L244.335 64.6046L228.034 26.6323L246.664 22.7574L251.321 24.3074L255.978 20.4326L256.755 21.2075L276.163 17.3329H284.702L287.806 15.783L290.911 17.3329V21.9825L292.464 23.5324L289.359 24.3074V25.8572H290.911L297.121 33.6066L295.569 34.3817L297.121 39.8062L293.24 41.3563L296.345 53.7554L297.121 55.3052L301.003 56.8551L305.66 69.2542L304.107 74.6789L309.541 73.9041L307.988 102.577L308.765 105.676H298.673L297.898 110.326L294.792 109.551L296.345 112.651L290.911 124.275H286.254V126.6H287.806L284.702 128.15L286.254 129.7V132.025H287.806L286.254 135.125L290.911 138.224L289.359 141.324L284.702 140.549L283.925 138.224L280.821 139.775L276.94 151.399L266.848 159.148L262.964 158.373L261.412 160.698L260.636 163.798Z" fill="#6130E8" fill-opacity="0.5" stroke="#0000FF" stroke-opacity="0.4" stroke-linecap="round" stroke-linejoin="round"/>
</g>
</svg>
