<svg width="411" height="464" viewBox="0 0 411 464" fill="none" xmlns="http://www.w3.org/2000/svg">
<g id="66" name="Đồng Tháp">
<path id="6612" class="district" name="TP Cao Lãnh" fill-rule="evenodd" clip-rule="evenodd" d="M263.947 311.476H225.322L214.923 307.019L210.466 301.077L211.952 290.678L208.98 272.852L201.553 256.511L219.38 255.026L229.779 260.968L231.264 257.997L238.692 263.939L243.149 257.997H246.12L244.634 262.453L252.062 259.482L255.033 266.91L253.548 268.396L256.519 271.367L255.033 274.338H252.062V283.251L256.519 289.193L268.403 292.164L271.375 295.135L274.346 312.961L263.947 311.476Z" fill="#D147AC" fill-opacity="0.5" stroke="#0000FF" stroke-opacity="0.4" stroke-linecap="round" stroke-linejoin="round"/>
<path id="6611" class="district" name="TP Sa Đéc" fill-rule="evenodd" clip-rule="evenodd" d="M320.399 387.238L312.971 385.752L296.629 393.18L289.201 390.209L290.687 387.238L287.716 384.267L298.115 376.839L296.629 373.868H290.687V366.441L287.716 364.955L289.201 363.469L286.23 357.527L290.687 354.556L287.716 347.129L281.774 341.186L284.745 338.215V330.788L290.687 326.331L302.572 332.273L311.485 359.013L323.37 376.839L320.399 379.81L323.37 382.781L320.399 385.752V387.238Z" fill="#D1475A" fill-opacity="0.5" stroke="#0000FF" stroke-opacity="0.4" stroke-linecap="round" stroke-linejoin="round"/>
<path id="6610" class="district" name="Thị xãHồng Ngự" fill-rule="evenodd" clip-rule="evenodd" d="M122.817 110.929L93.1056 122.814L81.2211 91.6174L69.3365 82.7042L76.7643 72.3055L85.6778 75.2765L82.7066 60.4212L90.1345 57.4502L91.6201 52.9936L96.0768 51.508L94.5912 48.537L100.534 45.5659V42.5948L127.274 75.2765L143.615 104.987L122.817 110.929Z" fill="#D18847" fill-opacity="0.5" stroke="#0000FF" stroke-opacity="0.4" stroke-linecap="round" stroke-linejoin="round"/>
<path id="6609" class="district" name="Cao Lãnh" fill-rule="evenodd" clip-rule="evenodd" d="M342.682 359.013L350.11 361.984L344.168 364.955L353.081 369.412V372.383L341.197 373.868L332.283 378.325H327.826L320.399 373.868L311.485 359.013L302.572 332.273L290.687 326.331L289.201 320.389L274.346 312.961L271.375 295.135L268.403 292.164L256.519 289.193L252.062 283.251V274.338L256.519 272.852L252.062 259.482L244.634 262.453L246.12 257.997H243.149L238.692 263.939L231.264 257.997L229.779 260.968L220.865 255.026L201.553 256.511L200.067 252.055L204.524 247.598L203.038 246.113L234.235 188.177V182.235L241.663 177.778L244.634 167.379H250.577L249.091 170.35L258.004 174.807L268.403 176.293V180.749L275.831 186.691L280.288 201.547L292.173 204.518L298.115 216.402L289.201 259.482L298.115 263.939L315.942 266.91L314.456 278.794H345.653L341.197 332.273L344.168 347.129L342.682 356.042V359.013Z" fill="#B7E830" fill-opacity="0.5" stroke="#0000FF" stroke-opacity="0.4" stroke-linecap="round" stroke-linejoin="round"/>
<path id="6608" class="district" name="Châu Thành" fill-rule="evenodd" clip-rule="evenodd" d="M360.509 448.145L359.023 454.087H342.682L333.769 451.116L318.913 433.289L314.456 437.746L305.543 428.833L293.658 424.376L281.774 415.463L292.173 408.035V403.579L284.745 396.151L286.23 391.695L289.201 390.209L296.629 393.18L312.971 385.752L320.399 387.238L323.37 382.781L320.399 379.81L321.884 378.325H330.798L341.197 373.868L361.995 372.383L376.85 378.325L384.278 384.267L375.365 391.695L382.793 402.093H387.249V408.035L393.192 412.492L397.648 419.92L394.677 430.318L387.249 431.804L384.278 434.775L373.879 433.289L375.365 436.26L370.908 443.688L373.879 445.174L369.423 452.601L366.451 451.116L360.509 448.145Z" fill="#49E830" fill-opacity="0.5" stroke="#0000FF" stroke-opacity="0.4" stroke-linecap="round" stroke-linejoin="round"/>
<path id="6607" class="district" name="Huyện Hồng Ngự" fill-rule="evenodd" clip-rule="evenodd" d="M23.2836 87.1608L14.3702 69.3344L8.42787 72.3055L5.45672 70.8199L1 55.9646L2.48557 35.1672H6.9423L29.2259 45.5659L44.0817 44.0804L48.5384 48.537H54.4807L84.1922 63.3923L82.7066 66.3633L85.6778 73.791L76.7643 72.3055L69.3364 82.7042L75.2787 85.6752L82.7066 94.5884L102.019 149.553L94.5912 155.495H87.1633L90.1345 145.096L88.6489 140.64L85.6778 139.154L64.8797 142.125L51.5095 139.154V133.212L63.3941 125.785L64.8797 119.842L61.9086 116.871H50.024L41.1105 112.415V96.074L30.7115 94.5884L26.2548 91.6174L23.2836 87.1608Z" fill="#30E886" fill-opacity="0.5" stroke="#0000FF" stroke-opacity="0.4" stroke-linecap="round" stroke-linejoin="round"/>
<path id="6606" class="district" name="Lai Vung" fill-rule="evenodd" clip-rule="evenodd" d="M281.774 415.463L293.658 424.376L271.375 457.058L269.889 463L259.49 457.058L250.577 445.174L238.692 434.775L234.235 418.434L225.322 405.064L203.038 382.781L210.466 360.498L211.952 364.955L222.351 363.469L226.807 360.498L244.634 367.926V360.498L252.062 370.897L253.548 369.412L256.519 372.383L272.86 361.984L268.403 359.013L274.346 351.585H277.317L278.802 344.158L281.774 341.186L287.716 347.129L290.687 354.556L287.716 357.527L289.201 369.412L298.115 376.839L287.716 384.267L290.687 387.238L284.745 396.151L292.173 402.093V408.035L284.745 412.492L281.774 415.463Z" fill="#30DCE8" fill-opacity="0.5" stroke="#0000FF" stroke-opacity="0.4" stroke-linecap="round" stroke-linejoin="round"/>
<path id="6605" class="district" name="Lấp Vò" fill-rule="evenodd" clip-rule="evenodd" d="M278.802 342.672L277.317 351.585H274.346V354.556H271.375L268.403 359.013L272.86 361.984L256.519 372.383L253.548 369.412L252.062 370.897L246.12 360.498L244.634 367.926L226.807 360.498L222.351 363.469L211.952 364.955V360.498L206.009 373.868L207.495 376.839L204.524 378.325L203.038 382.781L189.668 372.383L177.783 367.926L164.413 353.071L165.899 347.129L171.841 341.186L182.24 336.73V333.759L186.697 330.788L183.726 315.932H186.697L188.182 311.476L195.61 309.99L198.581 307.019L195.61 305.534L200.067 298.106L210.466 301.077L214.923 307.019L225.322 311.476H263.947L274.346 312.961L289.201 320.389L290.687 326.331L284.745 330.788V336.73L280.288 342.672H278.802Z" fill="#306EE8" fill-opacity="0.5" stroke="#0000FF" stroke-opacity="0.4" stroke-linecap="round" stroke-linejoin="round"/>
<path id="6604" class="district" name="Tam Nông" fill-rule="evenodd" clip-rule="evenodd" d="M210.466 179.264L168.87 171.836H154.014L151.043 177.778L146.586 179.264L139.158 170.35L130.245 174.807L124.303 165.894L112.418 174.807L94.5912 131.727L93.1057 122.813L100.534 121.328L115.389 112.415L226.807 84.1897L268.403 122.813L244.634 167.379L241.663 177.778L219.379 179.264H210.466Z" fill="#6130E8" fill-opacity="0.5" stroke="#0000FF" stroke-opacity="0.4" stroke-linecap="round" stroke-linejoin="round"/>
<path id="6603" class="district" name="Tân Hồng" fill-rule="evenodd" clip-rule="evenodd" d="M143.615 104.987L137.673 88.6463L128.759 79.7331L100.534 41.1093L106.476 38.1383L109.447 30.7106H112.418L115.389 26.254L116.875 27.7395L121.332 23.283L119.846 21.7974L131.731 1H134.702L139.158 5.45659V8.42765L145.101 11.3987L152.529 5.45659H156.985L161.442 9.91318V12.8842L168.87 15.8553V12.8842L179.269 29.2251L214.923 45.5659L231.264 78.2476L222.351 79.7331L226.807 84.1897L155.5 102.016L143.615 104.987Z" fill="#D030E8" fill-opacity="0.5" stroke="#0000FF" stroke-opacity="0.4" stroke-linecap="round" stroke-linejoin="round"/>
<path id="6602" class="district" name="Thanh Bình" fill-rule="evenodd" clip-rule="evenodd" d="M121.332 231.257L113.904 223.83L100.534 220.859L90.1345 200.061L85.6778 186.691L82.7066 165.894L87.1634 155.495L90.1345 154.01L94.5912 155.495L102.019 149.553L112.418 174.807L124.303 165.894L130.245 174.807L136.187 173.322L137.673 170.35L146.586 177.778H149.557L154.014 171.836H168.87L210.466 179.264H237.206L201.553 252.055L188.182 240.17L177.783 235.714L164.413 238.685L161.442 241.656L154.014 240.17L142.13 232.743L124.303 234.228L121.332 231.257Z" fill="#E83092" fill-opacity="0.5" stroke="#0000FF" stroke-opacity="0.4" stroke-linecap="round" stroke-linejoin="round"/>
<path id="6601" class="district" name="Tháp Mười" fill-rule="evenodd" clip-rule="evenodd" d="M344.168 292.164L345.653 278.794H314.456L315.942 266.91L298.115 263.939L289.201 259.482L298.115 216.402L292.173 204.518L280.288 201.547L274.346 183.72L268.403 180.749V176.293L258.004 174.807L249.091 170.35L250.577 167.379H244.634L268.403 122.813L323.37 174.807L336.74 177.778L351.596 185.206L393.192 240.17L409.533 241.656V265.424L364.966 312.961L357.538 333.759L341.197 332.273L344.168 292.164Z" fill="#E83D30" fill-opacity="0.5" stroke="#0000FF" stroke-opacity="0.4" stroke-linecap="round" stroke-linejoin="round"/>
</g>
</svg>
