<svg width="492" height="492" viewBox="0 0 492 492" fill="none" xmlns="http://www.w3.org/2000/svg">
<g id="67" name="An Giang">
<path id="6711" class="district" name="TP Châu Đốc" fill-rule="evenodd" clip-rule="evenodd" d="M223.082 184.195L187.473 219.825L177.298 221.523L151.863 189.284V180.801L195.951 153.653L194.255 131.596L190.864 128.203L197.647 124.809L199.342 138.382L207.821 153.653L217.996 162.137L233.256 165.531L231.561 174.014L223.082 184.195Z" fill="#D147AC" fill-opacity="0.5" stroke="#0000FF" stroke-opacity="0.4" stroke-linecap="round" stroke-linejoin="round"/>
<path id="6710" class="district" name="TP Long Xuyên" fill-rule="evenodd" clip-rule="evenodd" d="M429.956 386.105L443.521 401.376L438.433 403.072L431.652 411.556L401.129 414.95L384.173 386.105L377.39 377.622L370.606 379.318L367.215 375.926L368.911 372.532L360.433 364.049L365.519 362.351L373.998 347.08L380.781 340.294H384.173V336.9L390.954 335.204L389.259 330.113H412.998L419.781 333.507L414.694 358.957L418.085 370.834L426.564 382.712L429.956 386.105Z" fill="#D1475A" fill-opacity="0.5" stroke="#0000FF" stroke-opacity="0.4" stroke-linecap="round" stroke-linejoin="round"/>
<path id="6709" class="district" name="Tân Châu" fill-rule="evenodd" clip-rule="evenodd" d="M289.214 101.055L297.692 102.752L299.388 106.145L295.996 116.326L297.692 121.415L302.779 124.809L289.214 140.079L282.431 131.596H279.04L273.952 138.382L272.256 136.686L228.169 160.44L226.473 163.834L214.604 160.44L221.387 124.809L223.082 121.415L236.648 114.629L229.865 41.6692L216.3 36.5791L219.692 29.7921L217.996 26.3987H234.952L253.604 33.1857L251.909 56.94L256.996 73.9071L258.692 75.6038L267.171 72.2104L272.256 85.7846L285.823 101.055H289.214Z" fill="#D18847" fill-opacity="0.5" stroke="#0000FF" stroke-opacity="0.4" stroke-linecap="round" stroke-linejoin="round"/>
<path id="6708" class="district" name="An Phú" fill-rule="evenodd" clip-rule="evenodd" d="M212.908 158.743L199.342 138.382L197.647 124.809L190.864 128.203L184.082 118.023L177.298 116.326L175.603 104.448L172.212 102.752L173.907 90.8743L158.647 60.3334L155.255 45.0628L167.125 39.9725L163.733 33.1857L172.212 29.7921L170.516 24.702L178.994 16.2184H185.777V7.73476L189.169 4.34128L197.647 6.038L206.126 0.947815H209.517V12.825L199.342 26.3987L204.43 29.7921L217.996 26.3987L219.692 28.0954L216.3 36.5791L229.865 41.6692L236.648 114.629L223.082 121.415L221.387 124.809L214.604 160.44L212.908 158.743Z" fill="#B7E830" fill-opacity="0.5" stroke="#0000FF" stroke-opacity="0.4" stroke-linecap="round" stroke-linejoin="round"/>
<path id="6707" class="district" name="Châu Phú" fill-rule="evenodd" clip-rule="evenodd" d="M338.389 265.638L350.258 297.874L346.867 304.662L345.171 299.573L333.302 287.695V291.089L326.519 289.39L312.954 296.179L250.213 318.236L248.517 316.54L209.517 331.811L197.647 299.573L177.298 221.523L187.473 219.825L233.256 172.317V165.531H245.127L262.083 174.014L270.561 194.375L267.171 209.645L270.561 219.825L285.823 241.884L304.475 255.457L329.91 258.851L338.389 265.638Z" fill="#49E830" fill-opacity="0.5" stroke="#0000FF" stroke-opacity="0.4" stroke-linecap="round" stroke-linejoin="round"/>
<path id="6706" class="district" name="Châu Thành" fill-rule="evenodd" clip-rule="evenodd" d="M328.215 384.409L318.04 382.712L312.954 377.622L301.083 374.228L214.604 370.834L211.213 369.138L206.126 333.507L248.517 316.54L250.213 318.236L312.954 296.179L321.431 291.089H333.302V287.695L345.171 297.874L346.867 304.662L350.258 297.874L379.085 325.023L389.259 330.113L390.954 335.204L384.173 336.9V340.294H380.781L373.998 347.08L365.519 362.351L360.433 364.048L368.911 372.532L365.519 382.712L357.042 387.801L355.346 386.105L345.171 389.499L334.998 386.105L333.302 382.712L329.91 384.409H328.215Z" fill="#30E886" fill-opacity="0.5" stroke="#0000FF" stroke-opacity="0.4" stroke-linecap="round" stroke-linejoin="round"/>
<path id="6705" class="district" name="Chợ Mới" fill-rule="evenodd" clip-rule="evenodd" d="M429.956 386.105L421.477 377.622L414.694 358.957L419.781 333.507L412.998 330.113H389.259L379.085 325.023L350.258 297.874L338.389 265.638L355.346 255.457L363.823 243.579L368.911 246.974L380.781 248.669L392.65 260.546L412.998 258.851L433.346 269.03L453.696 262.245L465.565 267.334L479.131 280.908L491 311.45V336.9L479.131 333.507L474.044 341.99L477.435 343.688L474.044 347.08L465.565 348.778V352.171L460.477 353.867L463.869 370.834L458.781 374.228V377.622L446.912 382.712L440.129 389.499L438.433 396.285L433.346 391.195L429.956 386.105Z" fill="#30DCE8" fill-opacity="0.5" stroke="#0000FF" stroke-opacity="0.4" stroke-linecap="round" stroke-linejoin="round"/>
<path id="6704" class="district" name="Phú Tân" fill-rule="evenodd" clip-rule="evenodd" d="M338.389 265.638L329.91 258.851L304.475 255.457L290.91 246.974L277.344 231.702L270.561 219.825L267.171 209.645L270.561 196.072L262.083 174.014L245.127 165.531L226.473 163.834L228.169 160.44L272.256 136.686L273.952 138.382L279.04 131.596H282.431L289.214 140.079L302.779 124.809L321.431 126.505L324.823 129.899L323.127 136.686L309.562 145.17V151.957L319.736 155.35L340.084 151.957L351.954 153.653L353.65 157.047L350.258 174.014L345.171 182.498L346.867 197.768L353.65 221.523L363.823 243.579L355.346 255.457L340.084 263.941L338.389 265.638Z" fill="#306EE8" fill-opacity="0.5" stroke="#0000FF" stroke-opacity="0.4" stroke-linecap="round" stroke-linejoin="round"/>
<path id="6703" class="district" name="Thoại Sơn" fill-rule="evenodd" clip-rule="evenodd" d="M294.3 455.671L280.735 474.336L277.344 472.638L263.779 491.303L221.387 452.277L195.951 435.31L214.604 408.162L211.213 369.138L301.083 374.228L312.954 377.622L323.127 384.409L333.302 382.712V386.105L345.171 389.499L353.65 386.105L357.042 387.801L363.823 382.712L365.519 377.622H377.389L394.346 401.376L409.607 437.006L345.171 459.065L329.91 433.614L326.519 437.006L323.127 431.917L302.779 455.671L297.692 452.277L294.3 455.671Z" fill="#6130E8" fill-opacity="0.5" stroke="#0000FF" stroke-opacity="0.4" stroke-linecap="round" stroke-linejoin="round"/>
<path id="6702" class="district" name="Tịnh Biên" fill-rule="evenodd" clip-rule="evenodd" d="M207.821 331.81H170.516L143.385 314.843H139.994L133.211 321.629L119.646 318.235L111.167 284.301L73.8622 260.546L107.775 206.252L150.168 180.801L153.559 185.891L151.863 189.284L177.298 221.523L207.821 331.81Z" fill="#D030E8" fill-opacity="0.5" stroke="#0000FF" stroke-opacity="0.4" stroke-linecap="round" stroke-linejoin="round"/>
<path id="6701" class="district" name="Trí Tôn" fill-rule="evenodd" clip-rule="evenodd" d="M192.56 433.614L148.472 408.162L134.907 403.072L55.2097 384.409L31.4701 352.171L12.8176 313.146L0.947815 299.572V280.907L45.0355 277.513L51.8183 279.212L73.8622 262.245L109.471 284.301L117.95 318.235L128.124 321.629L143.385 314.844L170.516 331.81H207.821L206.126 333.507L214.604 408.162L195.951 435.31L192.56 433.614Z" fill="#E83092" fill-opacity="0.5" stroke="#0000FF" stroke-opacity="0.4" stroke-linecap="round" stroke-linejoin="round"/>
</g>
</svg>
