<svg width="792" height="497" viewBox="0 0 792 497" fill="none" xmlns="http://www.w3.org/2000/svg">
<g id="68" name="Kiên Giang">
<g id="6815" class="district" name="TP Hà Tiên">
<path fill-rule="evenodd" clip-rule="evenodd" d="M332.201 98.5027L333.244 99.5454L329.073 100.588L331.158 98.5027H332.201ZM338.457 93.2895L340.543 95.3748H337.414L338.457 93.2895ZM336.372 94.3321L335.329 97.4601V94.3321H336.372ZM325.945 96.4174L326.987 97.4601H324.902L325.945 96.4174ZM332.201 84.9482H334.286V87.0335L331.158 89.1188L329.073 84.9482H332.201ZM337.414 44.2846V46.3699L336.372 45.3273L337.414 44.2846ZM333.244 53.6685L331.158 57.8391L330.115 55.7538L332.201 54.7112L333.244 53.6685ZM421.875 77.6496L419.79 81.8202L421.875 83.9055L420.833 84.9482L415.619 82.8629L410.405 88.0762L406.234 87.0335L407.277 85.9909L399.978 74.5216L389.551 64.0951H382.252L381.209 67.223H378.081L375.995 69.3084L373.91 68.2657L375.995 65.1377L374.953 60.9671L378.081 56.7965L375.995 49.4979L372.867 46.3699L388.508 43.2419L395.807 53.6685L399.978 44.2846L406.234 36.986H412.491L416.662 30.7301H421.875L422.918 35.9434L405.192 66.1804L421.875 77.6496Z" fill="#D147AC" fill-opacity="0.5"/>
<path d="M296.748 129.782H295.705M296.748 127.697L295.705 128.74M322.816 108.929H321.774M326.987 101.631H325.945M324.902 99.5454H323.859M328.03 91.2041L325.945 94.3321M329.073 88.0762L328.03 89.1188M328.03 70.351V72.4363M323.859 69.3084H322.816M330.115 58.8818H329.073M333.244 34.9007H332.201M332.201 53.6685V52.6259M332.201 98.5027L333.244 99.5454L329.073 100.588L331.158 98.5027H332.201ZM338.457 93.2895L340.543 95.3748H337.414L338.457 93.2895ZM336.372 94.3321L335.329 97.4601V94.3321H336.372ZM325.945 96.4174L326.987 97.4601H324.902L325.945 96.4174ZM332.201 84.9482H334.286V87.0335L331.158 89.1188L329.073 84.9482H332.201ZM337.414 44.2846V46.3699L336.372 45.3273L337.414 44.2846ZM333.244 53.6685L331.158 57.8391L330.115 55.7538L332.201 54.7112L333.244 53.6685ZM421.875 77.6496L419.79 81.8202L421.875 83.9055L420.833 84.9482L415.619 82.8629L410.405 88.0762L406.234 87.0335L407.277 85.9909L399.978 74.5216L389.551 64.0951H382.252L381.209 67.223H378.081L375.995 69.3084L373.91 68.2657L375.995 65.1377L374.953 60.9671L378.081 56.7965L375.995 49.4979L372.867 46.3699L388.508 43.2419L395.807 53.6685L399.978 44.2846L406.234 36.986H412.491L416.662 30.7301H421.875L422.918 35.9434L405.192 66.1804L421.875 77.6496Z" stroke="#0000FF" stroke-opacity="0.4" stroke-linecap="round" stroke-linejoin="round"/>
</g>
<path id="6814" class="district" name="TP Rạch Giá" fill-rule="evenodd" clip-rule="evenodd" d="M626.249 234.048V228.835L616.865 212.152L617.908 211.11L614.779 204.854L605.395 195.47L613.737 190.256L616.865 191.299L618.95 186.086L614.779 185.043L623.121 165.233L634.591 170.446L648.147 180.873L628.335 203.811L629.378 205.896H627.292L626.249 207.982L628.335 212.152H630.42L637.719 218.408L635.634 222.579L641.89 224.664L639.805 226.749L640.848 227.792L630.42 233.005L626.249 234.048Z" fill="#D1475A" fill-opacity="0.5" stroke="#0000FF" stroke-opacity="0.4" stroke-linecap="round" stroke-linejoin="round"/>
<path id="6813" class="district" name="An Biên" fill-rule="evenodd" clip-rule="evenodd" d="M640.848 295.565L641.89 298.693L638.762 299.735V301.821L633.549 302.863L634.591 310.162H627.292V319.546L621.036 327.887L566.814 291.394L559.515 284.096L553.259 268.456L569.942 265.328L587.669 245.517L602.267 233.005L611.651 228.835L616.865 229.877L627.292 259.072L639.805 278.882L641.89 290.351L640.848 295.565Z" fill="#D18847" fill-opacity="0.5" stroke="#0000FF" stroke-opacity="0.4" stroke-linecap="round" stroke-linejoin="round"/>
<path id="6812" class="district" name="An Minh" fill-rule="evenodd" clip-rule="evenodd" d="M523.02 390.446L531.361 319.546L540.746 291.394L539.703 289.309L542.831 274.712L549.088 266.37H553.259L555.344 275.754L559.515 284.096L566.814 291.394L611.651 320.589L604.352 326.844V333.1L600.181 348.74L598.096 369.593H600.181L597.053 384.191L598.096 386.276L586.626 380.02L583.498 387.319L579.327 386.276L572.028 381.063L565.771 389.404L554.301 377.935L540.746 404.001L531.361 396.702L527.19 390.446H524.062H523.02Z" fill="#B7E830" fill-opacity="0.5" stroke="#0000FF" stroke-opacity="0.4" stroke-linecap="round" stroke-linejoin="round"/>
<path id="6811" class="district" name="Châu Thành" fill-rule="evenodd" clip-rule="evenodd" d="M664.83 239.261L669.001 238.219L671.087 241.347L674.215 242.389L672.129 250.731H674.215V253.859L681.514 258.029L675.258 263.242L672.129 262.2L669.001 263.242L666.916 266.37L665.873 265.328L661.702 271.584L659.617 269.498L657.531 270.541L656.488 267.413L653.36 266.37L654.403 269.498L649.189 271.584L650.232 276.797H638.762L627.292 259.072L621.036 238.219H623.121L626.249 234.048L635.634 231.963L634.591 230.92L637.719 228.835H640.848L639.805 226.749L641.89 224.664L635.634 223.621L637.719 218.408L631.463 212.152H628.335L626.249 209.024L629.378 205.896L628.335 203.811L648.147 180.873L642.933 176.702L643.976 175.659L664.83 189.214H666.916L671.087 193.384L670.044 204.854L666.916 211.11L669.001 217.366L672.129 219.451L670.044 220.494L674.215 224.664L669.001 225.707L662.745 238.219L664.83 239.261Z" fill="#49E830" fill-opacity="0.5" stroke="#0000FF" stroke-opacity="0.4" stroke-linecap="round" stroke-linejoin="round"/>
<path id="6810" class="district" name="Giang Thành" fill-rule="evenodd" clip-rule="evenodd" d="M471.926 56.7965L454.2 47.4126L446.901 57.8391L441.687 53.6685L427.089 69.3084L429.174 71.3937L421.875 77.6496L405.192 66.1804L423.961 33.858L421.875 30.7301H416.662L418.747 19.2609L428.132 15.0902L429.174 6.74898L434.388 3.62101L440.644 5.70632L451.072 4.66367V0.493042L470.883 2.57835L492.781 9.87695L502.165 8.83429V21.3462L509.464 29.6874L516.763 46.3699L504.251 67.223L475.054 50.5405L471.926 56.7965Z" fill="#30E886" fill-opacity="0.5" stroke="#0000FF" stroke-opacity="0.4" stroke-linecap="round" stroke-linejoin="round"/>
<path id="6809" class="district" name="Giồng Riêng" fill-rule="evenodd" clip-rule="evenodd" d="M713.838 284.096L711.753 286.181L694.027 287.224L692.984 276.797L690.898 272.626L687.77 276.797L684.642 274.712L680.471 275.754L678.386 272.626V274.712H676.3L674.215 277.84L675.258 279.925L671.087 288.266H663.788L664.83 280.968L662.745 277.84V269.498L669.001 263.242H674.215L681.514 258.029L674.215 253.859V250.731H672.129L674.215 242.389L671.087 241.347L669.001 238.219H662.745L669.001 225.707L674.215 224.664L670.044 221.536L672.129 219.451H679.428V221.536L687.77 220.494V222.579H689.856L690.898 225.707L695.069 222.579L698.197 216.323L702.368 218.408V214.238L708.625 213.195L706.539 211.11L711.753 212.152L719.052 198.598L714.881 197.555L724.266 180.873L791 243.432L781.615 262.2L783.701 264.285L759.718 277.84L749.291 279.925L750.334 284.096L745.12 282.01L741.992 283.053L729.479 276.797L730.522 275.754L720.095 271.584L713.838 276.797V280.968V284.096Z" fill="#30DCE8" fill-opacity="0.5" stroke="#0000FF" stroke-opacity="0.4" stroke-linecap="round" stroke-linejoin="round"/>
<path id="6808" class="district" name="Gò Quao" fill-rule="evenodd" clip-rule="evenodd" d="M726.351 339.356L727.394 341.442L734.693 340.399L739.907 344.57L737.821 345.612L740.949 346.655L737.821 349.783V354.996L734.693 353.954L728.437 359.167L726.351 368.551L724.266 366.465H716.967L718.009 364.38L715.924 359.167L710.71 364.38L708.625 362.295L703.411 361.252L701.326 352.911L698.197 351.868V348.74H700.283L702.368 345.612L700.283 343.527L698.197 344.57L695.069 339.356L689.856 337.271V333.1L687.77 331.015L683.599 333.1L678.386 329.972L677.343 327.887L679.428 324.759L675.258 316.418L666.916 317.461L641.89 299.735V286.181L638.762 276.797H650.232L649.189 271.584L654.403 270.541L653.36 266.37H655.446L657.531 270.541L659.617 269.498L662.745 272.626V277.84L664.83 280.968L663.788 288.266L667.958 289.309L671.087 288.266L675.258 279.925L674.215 277.84L676.3 274.712H678.386V272.626L680.471 275.754L683.599 274.712L686.728 276.797L689.856 274.712V272.626L692.984 276.797L694.027 287.224L711.753 286.181L714.881 279.925L713.838 276.797L720.095 271.584L730.522 275.754L729.479 276.797L741.992 283.053L747.206 282.01L750.334 284.096V287.224L752.419 289.309L749.291 291.394L748.248 290.351V292.437L744.077 294.522L745.12 295.565L743.035 294.522L744.077 295.565L740.949 296.607H743.035L741.992 298.693L739.907 297.65V301.821L744.077 303.906L743.035 305.991L736.778 307.034L732.607 312.247H728.437L721.137 320.589L710.71 324.759L713.838 328.93V334.143H719.052L721.137 337.271L726.351 335.186L727.394 337.271L726.351 339.356Z" fill="#306EE8" fill-opacity="0.5" stroke="#0000FF" stroke-opacity="0.4" stroke-linecap="round" stroke-linejoin="round"/>
<path id="6807" class="district" name="Hòn Đất" fill-rule="evenodd" clip-rule="evenodd" d="M618.95 186.086L616.865 191.299L613.737 190.256L605.395 195.47L585.583 175.659L583.498 171.489H572.028L549.088 176.702L542.831 175.659L534.49 167.318L530.319 158.977L518.849 143.337V141.252L508.421 130.825L495.909 123.526L487.567 121.441L479.225 123.526L474.012 127.697L487.567 99.5454V96.4174L516.763 46.3699L535.532 73.479L592.882 87.0335L633.548 112.057L649.189 125.612L640.848 133.953L626.249 167.318L623.121 165.233L614.779 185.043L618.95 186.086Z" fill="#6130E8" fill-opacity="0.5" stroke="#0000FF" stroke-opacity="0.4" stroke-linecap="round" stroke-linejoin="round"/>
<g id="6806" class="district" name="Kiên Hải">
<path fill-rule="evenodd" clip-rule="evenodd" d="M361.397 347.698L358.269 351.868L356.184 350.826V348.74L360.354 347.698H361.397ZM343.671 344.57L342.628 346.655V344.57H343.671ZM344.714 346.655L345.756 347.698L344.714 345.612V346.655ZM355.141 342.484L356.184 343.527L354.098 346.655V342.484H355.141ZM343.671 308.077L345.756 309.119L343.671 311.205V309.119V308.077ZM447.943 277.84L455.242 279.925L456.285 282.01L454.2 286.181L447.943 289.309L444.815 287.224L437.516 288.266L436.473 287.224L439.602 286.181L440.644 282.01L446.901 277.84H447.943ZM531.361 218.408L532.404 219.451L527.19 221.536L524.062 229.877L519.891 225.707V223.621L520.934 221.536L529.276 218.408H531.361ZM353.055 321.631L354.098 324.759L352.013 326.844V321.631H353.055ZM358.269 334.143L359.312 338.314L356.184 340.399L358.269 334.143ZM356.184 327.887L357.226 328.93L353.055 332.058L356.184 327.887ZM341.585 320.589L343.671 324.759L342.628 340.399L339.5 339.356L337.414 333.1L339.5 327.887H341.585V320.589Z" fill="#D030E8" fill-opacity="0.5"/>
<path d="M343.671 342.484L344.714 343.527M358.269 344.57H357.226M360.354 331.015H359.312M336.372 319.546L337.414 324.759M340.543 314.333V317.461M345.756 320.589H344.714M355.141 338.314V339.356M354.098 339.356H353.055M361.397 347.698L358.269 351.868L356.184 350.826V348.74L360.354 347.698H361.397ZM343.671 344.57L342.628 346.655V344.57H343.671ZM344.714 346.655L345.756 347.698L344.714 345.612V346.655ZM355.141 342.484L356.184 343.527L354.098 346.655V342.484H355.141ZM343.671 308.077L345.756 309.119L343.671 311.205V309.119V308.077ZM447.943 277.84L455.242 279.925L456.285 282.01L454.2 286.181L447.943 289.309L444.815 287.224L437.516 288.266L436.473 287.224L439.602 286.181L440.644 282.01L446.901 277.84H447.943ZM531.361 218.408L532.404 219.451L527.19 221.536L524.062 229.877L519.891 225.707V223.621L520.934 221.536L529.276 218.408H531.361ZM353.055 321.631L354.098 324.759L352.013 326.844V321.631H353.055ZM358.269 334.143L359.312 338.314L356.184 340.399L358.269 334.143ZM356.184 327.887L357.226 328.93L353.055 332.058L356.184 327.887ZM341.585 320.589L343.671 324.759L342.628 340.399L339.5 339.356L337.414 333.1L339.5 327.887H341.585V320.589Z" stroke="#0000FF" stroke-opacity="0.4" stroke-linecap="round" stroke-linejoin="round"/>
</g>
<g id="6805" class="district" name="Kiên Lương">
<path fill-rule="evenodd" clip-rule="evenodd" d="M416.662 194.427L419.79 200.683L416.662 203.811L412.491 197.555L416.662 194.427ZM396.85 176.702L398.935 175.659L397.893 177.745L396.85 176.702ZM401.021 169.403V173.574V171.489V169.403ZM394.764 170.446L395.807 166.275L397.893 168.361L395.807 170.446H394.764ZM394.764 155.849L395.807 154.806L394.764 156.891V155.849ZM394.764 162.105L393.722 161.062H395.807L394.764 162.105ZM412.491 160.019V157.934L413.533 161.062H411.448L412.491 160.019ZM430.217 149.593L431.26 150.636H428.132L429.174 149.593H430.217ZM427.089 149.593H423.961L425.003 148.55L427.089 149.593ZM404.149 149.593H406.234L404.149 152.721V150.636V149.593ZM405.192 138.124L408.32 137.081V144.38L406.234 139.166L405.192 138.124ZM403.106 154.806L404.149 153.763V156.891V154.806H403.106ZM414.576 153.763H416.662L414.576 154.806V153.763ZM456.285 145.422L451.072 156.891H448.986L446.901 153.763L437.516 152.721L436.473 154.806L433.345 152.721L437.516 147.508L435.431 143.337L434.388 144.38L433.345 139.166L430.217 138.124L432.302 134.996L430.217 129.782L428.132 130.825V128.74L431.26 127.697L429.174 115.185L417.704 98.5027L413.533 97.4601L408.32 102.673L407.277 101.631L409.363 98.5027L406.234 93.2894L408.32 91.2041V88.0762L406.234 87.0335L409.363 88.0762L415.619 82.8629L419.79 84.9482L421.875 83.9055L419.79 81.8202L422.918 75.5643L429.174 71.3937L427.089 69.3083L441.687 53.6685L446.901 57.8391L453.157 47.4126L471.926 56.7965L475.054 50.5405L504.251 67.223L487.567 96.4174V99.5454L474.012 126.654L465.67 133.953L459.413 143.337L456.285 145.422Z" fill="#E83092" fill-opacity="0.5"/>
<path d="M395.807 219.451L394.764 220.493M384.337 181.915H385.38M399.978 175.659H401.021M410.405 164.19V165.233M395.807 164.19H396.85M395.807 163.147L394.764 162.105M415.619 157.934H416.662M448.986 157.934V156.891M448.986 156.891H447.943M448.986 156.891H451.072L456.285 145.422L459.413 143.337L465.67 133.953L474.012 126.654L487.567 99.5454V96.4174L504.251 67.223L475.054 50.5405L471.926 56.7965L453.157 47.4126L446.901 57.8391L441.687 53.6685L427.089 69.3083L429.174 71.3937L422.918 75.5643L419.79 81.8202L421.875 83.9055L419.79 84.9482L415.619 82.8629L409.363 88.0762L406.234 87.0335L408.32 88.0762V91.2041L406.234 93.2894L409.363 98.5027L407.277 101.631L408.32 102.673L413.533 97.4601L417.704 98.5027L429.174 115.185L431.26 127.697L428.132 128.74V130.825L430.217 129.782L432.302 134.996L430.217 138.124L433.345 139.166L434.388 144.38L435.431 143.337L437.516 147.508L433.345 152.721L436.473 154.806L437.516 152.721L446.901 153.763L448.986 156.891ZM394.764 154.806L393.722 156.891V157.934M446.901 157.934V156.891M406.234 162.105V161.062M394.764 162.105L393.722 161.062H395.807L394.764 162.105ZM396.85 162.105H397.893M396.85 141.252V142.294M405.192 116.228V115.185M431.26 142.294V141.252M422.918 140.209H423.961V139.166M407.277 104.759V103.716M407.277 153.763H408.32L409.363 154.806M397.893 150.636V151.678M398.935 147.508H399.978M407.277 146.465V147.508M426.046 144.38V143.337V142.294M414.576 150.636L416.662 152.721M412.491 155.849H413.533M408.32 154.806V155.849M413.533 156.891V157.934M416.662 194.427L419.79 200.683L416.662 203.811L412.491 197.555L416.662 194.427ZM396.85 176.702L398.935 175.659L397.893 177.745L396.85 176.702ZM401.021 169.403V173.574V171.489V169.403ZM394.764 170.446L395.807 166.275L397.893 168.361L395.807 170.446H394.764ZM394.764 155.849L395.807 154.806L394.764 156.891V155.849ZM412.491 160.019V157.934L413.533 161.062H411.448L412.491 160.019ZM430.217 149.593L431.26 150.636H428.132L429.174 149.593H430.217ZM427.089 149.593H423.961L425.003 148.55L427.089 149.593ZM404.149 149.593H406.234L404.149 152.721V150.636V149.593ZM405.192 138.124L408.32 137.081V144.38L406.234 139.166L405.192 138.124ZM403.106 154.806L404.149 153.763V156.891V154.806H403.106ZM414.576 153.763H416.662L414.576 154.806V153.763Z" stroke="#0000FF" stroke-opacity="0.4" stroke-linecap="round" stroke-linejoin="round"/>
</g>
<g id="6804" class="district" name="Phú Quốc">
<path fill-rule="evenodd" clip-rule="evenodd" d="M11.0415 470.731H18.3405L20.426 474.902L17.2978 475.944L16.2551 478.03L18.3405 480.115L14.1696 479.072L11.0415 484.286H7.91327L5.82782 482.2L7.91327 479.072L5.82782 476.987H0.614197L2.69965 473.859L8.956 470.731H11.0415ZM27.7251 468.646L29.8105 472.816L24.5969 470.731L26.6823 468.646H27.7251ZM31.896 465.518L32.9387 469.688L29.8105 467.603L31.896 465.518ZM243.569 266.37L242.526 270.541L241.484 268.456L243.569 266.37ZM207.074 239.261V242.389L204.988 239.261H207.074ZM214.373 235.091L215.416 236.133L213.33 237.176V235.091H214.373ZM202.903 242.389V244.475L200.817 243.432L201.86 242.389H202.903ZM210.202 220.493L213.33 221.536L215.416 224.664L214.373 228.835L216.458 230.92L214.373 233.005L213.33 230.92L210.202 229.877V221.536V220.493ZM213.33 215.28L216.458 220.493L215.416 221.536L212.287 215.28H213.33ZM220.629 210.067L222.715 213.195L219.587 211.11L220.629 210.067ZM209.159 209.024L212.287 212.152L211.245 213.195L209.159 212.152V209.024ZM216.458 179.83L222.715 184.001V186.086L219.587 187.128L220.629 193.384L217.501 195.47V197.555L221.672 201.726V203.811L225.843 205.896V207.982L220.629 203.811L218.544 205.896L216.458 202.768H213.33L211.245 205.896L209.159 204.854L210.202 203.811L209.159 198.598L207.074 196.512V192.342L203.946 191.299L201.86 188.171L202.903 187.128L200.817 171.489L193.518 137.081L185.177 113.1L171.621 96.4174L165.365 97.4601L161.194 92.2468H153.895L151.809 90.1615L146.596 71.3937L142.425 69.3083L144.51 64.0951L155.98 65.1377L175.792 70.351L178.92 69.3083L182.048 67.223L185.177 55.7538L193.518 51.5832L196.647 39.0713L203.946 34.9007L209.159 36.986L213.33 45.3273L217.501 49.4979H222.715L230.014 56.7965V58.8818L236.27 66.1804L235.227 69.3083L237.313 72.4363L234.185 74.5216V83.9055L236.27 91.2041L235.227 104.759L237.313 115.185L233.142 126.654L228.971 128.74L222.715 150.636L217.501 156.891L219.587 164.19L216.458 168.361V174.617L213.33 178.787L215.416 180.873L216.458 179.83Z" fill="#E83D30" fill-opacity="0.5"/>
<path d="M4.7851 495.755H3.74237M11.0415 485.328V487.413M72.5622 447.793L71.5195 448.835M69.4341 445.707L70.4768 446.75M222.715 277.84V279.925M201.86 244.475V245.517M214.373 240.304L215.416 241.347M199.775 239.261V241.347M203.946 237.176H202.903M215.416 244.475H214.373M213.33 242.389L210.202 243.432M217.501 206.939L219.587 209.024M153.895 94.3321V93.2894M134.083 71.3937H133.04M135.126 66.1804V65.1377M11.0415 470.731H18.3405L20.426 474.902L17.2978 475.944L16.2551 478.03L18.3405 480.115L14.1696 479.072L11.0415 484.286H7.91327L5.82782 482.2L7.91327 479.072L5.82782 476.987H0.614197L2.69965 473.859L8.956 470.731H11.0415ZM27.7251 468.646L29.8105 472.816L24.5969 470.731L26.6823 468.646H27.7251ZM31.896 465.518L32.9387 469.688L29.8105 467.603L31.896 465.518ZM243.569 266.37L242.526 270.541L241.484 268.456L243.569 266.37ZM207.074 239.261V242.389L204.988 239.261H207.074ZM214.373 235.091L215.416 236.133L213.33 237.176V235.091H214.373ZM202.903 242.389V244.475L200.817 243.432L201.86 242.389H202.903ZM210.202 220.493L213.33 221.536L215.416 224.664L214.373 228.835L216.458 230.92L214.373 233.005L213.33 230.92L210.202 229.877V221.536V220.493ZM213.33 215.28L216.458 220.493L215.416 221.536L212.287 215.28H213.33ZM220.629 210.067L222.715 213.195L219.587 211.11L220.629 210.067ZM209.159 209.024L212.287 212.152L211.245 213.195L209.159 212.152V209.024ZM216.458 179.83L222.715 184.001V186.086L219.587 187.128L220.629 193.384L217.501 195.47V197.555L221.672 201.726V203.811L225.843 205.896V207.982L220.629 203.811L218.544 205.896L216.458 202.768H213.33L211.245 205.896L209.159 204.854L210.202 203.811L209.159 198.598L207.074 196.512V192.342L203.946 191.299L201.86 188.171L202.903 187.128L200.817 171.489L193.518 137.081L185.177 113.1L171.621 96.4174L165.365 97.4601L161.194 92.2468H153.895L151.809 90.1615L146.596 71.3937L142.425 69.3083L144.51 64.0951L155.98 65.1377L175.792 70.351L178.92 69.3083L182.048 67.223L185.177 55.7538L193.518 51.5832L196.647 39.0713L203.946 34.9007L209.159 36.986L213.33 45.3273L217.501 49.4979H222.715L230.014 56.7965V58.8818L236.27 66.1804L235.227 69.3083L237.313 72.4363L234.185 74.5216V83.9055L236.27 91.2041L235.227 104.759L237.313 115.185L233.142 126.654L228.971 128.74L222.715 150.636L217.501 156.891L219.587 164.19L216.458 168.361V174.617L213.33 178.787L215.416 180.873L216.458 179.83Z" stroke="#0000FF" stroke-opacity="0.4" stroke-linecap="round" stroke-linejoin="round"/>
</g>
<path id="6803" class="district" name="Tân Hiệp" fill-rule="evenodd" clip-rule="evenodd" d="M667.958 214.238L666.916 211.11L670.044 204.854L671.087 193.384L666.916 189.214H664.83L643.976 175.659L642.933 176.702L634.591 170.446L626.249 167.318L640.848 133.953L649.189 125.612L663.788 139.166L672.129 127.697L674.215 128.74L671.087 131.868L699.24 155.849L701.326 153.764L703.411 157.934L706.539 154.806L720.095 170.446L721.137 177.745L724.266 180.873L714.881 197.555L719.052 198.598L715.924 206.939L711.753 212.152L706.539 211.11L708.625 213.195L702.368 214.238V217.366L698.197 216.323L695.069 222.579L690.898 225.707L689.856 222.579H687.77V220.494L679.428 221.536V219.451H672.129L669.001 217.366V215.28L667.958 214.238Z" fill="#D147AC" fill-opacity="0.5" stroke="#0000FF" stroke-opacity="0.4" stroke-linecap="round" stroke-linejoin="round"/>
<path id="6802" class="district" name="U Minh Thượng" fill-rule="evenodd" clip-rule="evenodd" d="M611.651 394.617L598.096 386.276L600.181 369.593H598.096L600.181 348.74L604.352 326.844L611.651 320.588L621.036 327.887L627.292 319.546V310.162H634.591L633.548 303.906L641.89 298.693L651.275 307.034L666.916 317.461L675.257 316.418L679.428 323.716L677.343 326.844L679.428 331.015L678.386 335.186H674.215L669.001 340.399L662.745 343.527L657.531 352.911L650.232 351.868L649.189 356.039L656.488 362.295L662.745 370.636L638.762 405.044L637.719 410.257L628.335 405.044L611.651 394.617Z" fill="#D1475A" fill-opacity="0.5" stroke="#0000FF" stroke-opacity="0.4" stroke-linecap="round" stroke-linejoin="round"/>
<path id="6801" class="district" name="Vĩnh Thuận" fill-rule="evenodd" clip-rule="evenodd" d="M702.368 380.02L703.411 381.063L708.625 378.977V386.276L710.71 390.446L709.667 392.532H707.582L708.625 395.66L705.497 397.745L706.539 399.83H700.283L697.155 406.086L698.197 409.214L696.112 418.598L698.197 427.982H691.941L685.685 440.494L637.719 410.257L638.762 405.044L662.745 370.636L656.488 362.295L649.189 356.039L650.232 352.911L657.531 353.954L659.617 351.868L660.659 345.612L669.001 340.399L671.087 337.271H673.172V335.186H678.386L679.428 331.015L683.599 333.1L687.77 331.015L689.856 333.1V337.271L695.069 339.356L698.197 343.527L702.368 345.612L695.069 352.911V362.295L698.197 369.593L704.454 373.764L702.368 377.935V380.02Z" fill="#D18847" fill-opacity="0.5" stroke="#0000FF" stroke-opacity="0.4" stroke-linecap="round" stroke-linejoin="round"/>
</g>
</svg>
