<svg width="360" height="466" viewBox="0 0 360 466" fill="none" xmlns="http://www.w3.org/2000/svg">
<g id="69" name="Cà Mau">
<path id="6909" class="district" name="TP Cà Mau" fill-rule="evenodd" clip-rule="evenodd" d="M293.312 191.509H290.028L288.933 193.699L284.554 191.509L282.364 194.793H270.321L265.942 192.604L261.563 193.699L256.089 190.414L257.184 188.224L254.994 187.129L253.899 181.655L229.813 163.042L232.003 158.662L233.098 159.757L237.477 157.568L235.287 156.473L237.477 155.378V148.809L240.761 145.524L239.667 144.429L250.615 132.385L251.71 129.101L252.804 130.196L258.278 125.816L257.184 124.721L259.373 121.437L271.416 120.342L274.7 129.101L276.89 128.006L277.985 130.196L290.028 126.911L293.312 130.196L285.648 137.86L284.554 142.239L287.838 143.334V147.714H292.217L295.502 156.473L300.976 154.283L302.07 155.378L303.165 163.042L297.691 164.137L295.502 172.896L292.217 173.991L290.028 182.75L292.217 186.034L290.028 188.224L292.217 190.414L293.312 191.509Z" fill="#D147AC" fill-opacity="0.5" stroke="#0000FF" stroke-opacity="0.4" stroke-linecap="round" stroke-linejoin="round"/>
<path id="6908" class="district" name="Cái Nước" fill-rule="evenodd" clip-rule="evenodd" d="M214.486 278.004L196.969 287.858L194.78 279.099L192.59 276.909H184.927L182.737 273.625L184.927 271.435L175.073 251.727L178.358 246.253V242.968L180.547 244.063L182.737 230.924L179.453 229.83L180.547 226.545L176.168 219.976V215.596L178.358 211.217L187.116 206.837V204.647L194.78 203.552L198.064 200.268L199.159 201.363L211.202 182.75L216.676 177.275L228.719 169.611L229.813 164.137L253.899 181.655L254.994 187.129L239.667 222.165L238.572 229.83L235.287 234.209V240.778L233.098 248.442L230.908 250.632L232.003 252.822L227.624 265.961L225.434 267.055L223.245 272.53L217.771 276.909H214.486V278.004Z" fill="#D1475A" fill-opacity="0.5" stroke="#0000FF" stroke-opacity="0.4" stroke-linecap="round" stroke-linejoin="round"/>
<path id="6907" class="district" name="Đầm Dơi" fill-rule="evenodd" clip-rule="evenodd" d="M290.028 288.953L217.771 290.048L212.297 284.573L211.202 280.194L214.486 276.909H217.771L225.434 269.245L232.003 252.822L230.908 250.632L233.098 248.442L235.287 240.778V234.209L238.572 229.83L239.667 222.165L254.994 187.129H257.183V191.509H260.468L261.563 193.699L265.942 192.604L269.226 194.793H282.364L284.554 191.509L287.838 193.699L290.028 191.509L296.596 190.414L300.976 193.699L309.734 191.509L316.303 196.983H318.492V199.173L325.061 201.363L327.251 199.173H334.914V202.458L338.199 204.647L340.388 203.552L342.578 205.742L346.957 201.363L352.431 204.647L359 213.406L357.905 221.07L349.147 229.83L346.957 246.253L338.199 263.771L333.82 278.004L325.061 293.332L319.587 298.807L310.829 299.902L309.734 297.712H304.26L296.596 294.427L293.312 298.807L291.122 295.522L292.217 290.048L290.028 288.953Z" fill="#D18847" fill-opacity="0.5" stroke="#0000FF" stroke-opacity="0.4" stroke-linecap="round" stroke-linejoin="round"/>
<path id="6906" class="district" name="Năm Căn" fill-rule="evenodd" clip-rule="evenodd" d="M180.547 331.653L178.358 342.602L158.651 352.456H133.471L123.618 343.697L119.239 336.033L135.661 331.653L136.755 332.748L138.945 327.274L143.324 326.179L146.609 317.42L150.988 315.23L153.177 311.945L152.083 306.471L154.272 303.186L171.789 298.807L176.168 294.427H184.927L189.306 290.048L199.159 287.858L204.633 282.384H207.917L210.107 280.194L212.297 281.289L216.676 290.048L290.028 288.953L292.217 290.048L291.122 294.427L293.312 298.807L296.596 294.427H299.881L303.165 297.712H309.734L310.829 299.902L319.587 298.807L297.691 321.799L284.554 326.179L279.08 327.274L273.606 320.704L270.321 322.894L268.132 321.799L265.942 318.515L267.037 310.85H264.847L260.468 316.325H256.089L250.615 321.799V325.084H239.667L237.477 321.799L229.813 319.61L221.055 314.135L213.391 319.61L206.823 320.704L201.349 323.989H194.78L181.642 330.558L180.547 331.653Z" fill="#B7E830" fill-opacity="0.5" stroke="#0000FF" stroke-opacity="0.4" stroke-linecap="round" stroke-linejoin="round"/>
<g id="6905" class="district" name="Ngọc Hiển">
<path fill-rule="evenodd" clip-rule="evenodd" d="M129.092 448.805L130.187 453.185L126.902 455.374L127.997 459.754L122.523 461.944L119.239 459.754L127.997 448.805H129.092ZM133.471 461.944L135.661 463.039L131.281 465.228L132.376 461.944H133.471ZM136.755 402.82H132.376L131.281 405.01L122.523 403.915L112.67 397.346L84.2049 390.777L78.7309 386.397L77.6361 376.543L79.8257 371.069H89.6789L92.9633 375.448L110.48 368.879L103.911 353.551L109.385 338.222L119.239 336.033L123.618 343.697L132.376 352.456H158.651L178.358 342.602L179.453 333.843L181.642 330.558L194.78 323.989H201.349L206.823 320.704L213.391 319.61L221.055 314.135L229.813 319.61L237.477 321.799L239.667 325.084L245.141 326.179L249.52 325.084L250.615 321.799L256.089 316.325H260.468L264.847 310.85H267.037L265.942 318.515L268.131 321.799L269.226 322.894L272.511 320.704L279.079 327.274L265.942 331.653L263.752 333.843L257.183 343.697L248.425 352.456L242.951 361.215V366.689L238.572 372.164H236.382L235.287 375.448L217.771 380.923L216.676 379.828L199.159 386.397L194.78 389.682H184.927L179.453 391.871L178.358 394.061L138.945 401.725L136.755 402.82Z" fill="#49E830" fill-opacity="0.5"/>
<path d="M129.092 448.805L130.187 453.185L126.902 455.374L127.997 459.754L122.523 461.944L119.239 459.754L127.997 448.805H129.092ZM129.092 448.805H130.187M133.471 461.944L135.661 463.039L131.281 465.228L132.376 461.944H133.471ZM136.755 402.82H132.376L131.281 405.01L122.523 403.915L112.67 397.346L84.2049 390.777L78.7309 386.397L77.6361 376.543L79.8257 371.069H89.6789L92.9633 375.448L110.48 368.879L103.911 353.551L109.385 338.222L119.239 336.033L123.618 343.697L132.376 352.456H158.651L178.358 342.602L179.453 333.843L181.642 330.558L194.78 323.989H201.349L206.823 320.704L213.391 319.61L221.055 314.135L229.813 319.61L237.477 321.799L239.667 325.084L245.141 326.179L249.52 325.084L250.615 321.799L256.089 316.325H260.468L264.847 310.85H267.037L265.942 318.515L268.131 321.799L269.226 322.894L272.511 320.704L279.079 327.274L265.942 331.653L263.752 333.843L257.183 343.697L248.425 352.456L242.951 361.215V366.689L238.572 372.164H236.382L235.287 375.448L217.771 380.923L216.676 379.828L199.159 386.397L194.78 389.682H184.927L179.453 391.871L178.358 394.061L138.945 401.725L136.755 402.82Z" stroke="#0000FF" stroke-opacity="0.4" stroke-linecap="round" stroke-linejoin="round"/>
</g>
<path id="6904" class="district" name="Phú Tân" fill-rule="evenodd" clip-rule="evenodd" d="M152.083 305.376L150.988 308.661L117.049 320.704L108.291 313.04L103.911 302.091L112.67 263.771L113.765 236.399L122.523 238.589L123.618 235.304L125.807 236.399L131.281 232.019L134.566 235.304H137.85L140.04 230.924L145.514 232.019L146.609 228.735L150.988 226.545L161.936 224.355L169.599 230.924H173.979L177.263 228.735L182.737 230.924L180.547 244.063L177.263 245.158L178.358 246.253L175.073 251.727L176.168 256.107L180.547 260.486L179.453 262.676L183.832 269.245L182.737 270.34H184.927L182.737 273.625L183.832 276.909H192.59L196.969 286.763L184.927 294.427H177.263L171.789 298.807L164.125 299.902L153.177 304.281L152.083 305.376Z" fill="#30E886" fill-opacity="0.5" stroke="#0000FF" stroke-opacity="0.4" stroke-linecap="round" stroke-linejoin="round"/>
<path id="6903" class="district" name="Thới Bình" fill-rule="evenodd" clip-rule="evenodd" d="M239.667 144.429L227.624 147.714L226.529 146.619L224.339 137.86L219.96 131.29L224.339 126.911L226.529 119.247H221.055L217.771 115.962L209.012 94.0646L218.865 90.78L214.486 80.9261L206.823 50.2695L195.875 26.1822L176.168 5.37951L177.263 4.28464L184.927 9.75903L189.306 10.8539L192.59 3.18976L214.486 15.2334L296.596 66.6927L309.734 72.1671L291.122 92.9698L292.217 97.3493L297.691 105.013L302.07 107.203L308.639 115.962L297.691 123.626L293.312 130.196L290.028 126.911L279.08 130.196L274.7 129.101L272.511 120.342H262.658L259.373 121.437V123.626L257.184 124.721L258.278 125.816L252.804 130.196L251.709 129.101L246.235 136.765L239.667 144.429Z" fill="#30DCE8" fill-opacity="0.5" stroke="#0000FF" stroke-opacity="0.4" stroke-linecap="round" stroke-linejoin="round"/>
<g id="6902" class="district" name="Trần Văn Thời">
<path fill-rule="evenodd" clip-rule="evenodd" d="M3.1896 246.253V251.727L1 249.537L3.1896 246.253ZM135.661 235.304L132.376 232.019L125.807 237.494L124.713 235.304H122.523L121.428 238.589L113.765 236.399L112.67 221.071L115.954 187.129L114.859 155.378L118.144 144.429L120.333 117.057L125.807 118.152L164.125 115.962V131.291H188.211L189.306 148.809L193.685 147.714V152.093L199.159 150.998V153.188H203.538L226.529 150.998V147.714L237.477 144.429L240.761 145.524H238.572V153.188L235.287 156.473L236.382 157.568L234.193 159.757L233.098 158.662L229.813 163.042V167.421L227.624 170.706L211.202 182.75L200.254 200.268L181.642 207.932L178.358 212.311L176.168 215.596V219.976L180.547 225.45L179.453 228.735L169.599 230.924L163.031 224.355H157.557L155.367 226.545H150.988L147.703 228.735L146.609 232.019L140.04 230.924L137.85 235.304H135.661Z" fill="#306EE8" fill-opacity="0.5"/>
<path d="M17.422 275.814H16.3272M3.1896 246.253V251.727L1 249.537L3.1896 246.253ZM135.661 235.304L132.376 232.019L125.807 237.494L124.713 235.304H122.523L121.428 238.589L113.765 236.399L112.67 221.071L115.954 187.129L114.859 155.378L118.144 144.429L120.333 117.057L125.807 118.152L164.125 115.962V131.291H188.211L189.306 148.809L193.685 147.714V152.093L199.159 150.998V153.188H203.538L226.529 150.998V147.714L237.477 144.429L240.761 145.524H238.572V153.188L235.287 156.473L236.382 157.568L234.193 159.757L233.098 158.662L229.813 163.042V167.421L227.624 170.706L211.202 182.75L200.254 200.268L181.642 207.932L178.358 212.311L176.168 215.596V219.976L180.547 225.45L179.453 228.735L169.599 230.924L163.031 224.355H157.557L155.367 226.545H150.988L147.703 228.735L146.609 232.019L140.04 230.924L137.85 235.304H135.661Z" stroke="#0000FF" stroke-opacity="0.4" stroke-linecap="round" stroke-linejoin="round"/>
</g>
<path id="6901" class="district" name="U Minh" fill-rule="evenodd" clip-rule="evenodd" d="M226.529 150.998L203.538 153.188H199.159V150.998L193.685 152.093V147.714L189.306 148.809L188.211 131.29H164.125V115.962L125.807 118.152L120.333 117.057L123.618 77.6415L122.523 74.3568L124.713 66.6927L123.618 62.3132L125.807 14.1385H130.187L134.566 20.7078L144.419 28.372L158.651 1L170.694 13.0437L176.168 5.37951L195.875 26.1822L206.823 50.2695L214.486 80.9261L218.865 90.78L209.012 94.0646L212.297 105.013L217.771 115.962L221.055 119.247H226.529L224.339 126.911L219.96 131.29L224.339 137.86L226.529 147.714V150.998Z" fill="#6130E8" fill-opacity="0.5" stroke="#0000FF" stroke-opacity="0.4" stroke-linecap="round" stroke-linejoin="round"/>
</g>
</svg>
