<svg width="381" height="465" viewBox="0 0 381 465" fill="none" xmlns="http://www.w3.org/2000/svg">
<g id="70" name="Tây Ninh">
<path id="7009" class="district" name="TP Tây Ninh" fill-rule="evenodd" clip-rule="evenodd" d="M170.633 276.126H166.048L164.52 273.069L161.464 276.126V273.069L159.936 274.597L153.823 268.483L152.294 271.54H149.238V266.955L152.294 265.426L150.766 259.312L146.181 254.727L150.766 253.198L152.294 244.028L147.71 239.442L150.766 230.271L147.71 221.1L149.238 210.401L155.351 213.458L161.464 221.1L164.52 208.873L161.464 202.759L169.105 195.116L182.859 201.23L196.613 193.588L198.141 198.173L204.254 201.23L207.311 205.816V218.044L211.895 224.157V233.328L205.782 237.914L207.311 239.442L204.254 242.499L199.669 244.028V248.613L195.085 250.141L193.556 257.784L187.444 260.841L184.387 270.012L173.69 274.597L170.633 276.126Z" fill="#D147AC" fill-opacity="0.5" stroke="#0000FF" stroke-opacity="0.4" stroke-linecap="round" stroke-linejoin="round"/>
<path id="7008" class="district" name="Bến Cầu" fill-rule="evenodd" clip-rule="evenodd" d="M169.105 399.932L166.048 402.989L162.992 401.461V395.347L155.351 386.176L150.766 387.704L137.012 372.42L118.673 361.72L115.617 354.078V338.793L118.673 335.736L123.258 334.208L130.899 338.793L149.238 341.85L161.464 325.037L188.972 328.094V332.679L184.387 335.736V344.907L187.444 351.021L195.085 354.078L207.31 347.964L210.367 354.078L214.952 357.135L230.234 354.078L234.819 355.606L239.403 370.891L230.234 373.948L233.29 384.647L243.988 392.29L248.573 389.233L251.629 390.761L257.742 407.574L254.685 410.631L251.629 407.574H247.044L239.403 412.16L221.065 409.103L208.839 410.631L193.556 386.176H187.444L176.746 392.29L169.105 399.932Z" fill="#D1475A" fill-opacity="0.5" stroke="#0000FF" stroke-opacity="0.4" stroke-linecap="round" stroke-linejoin="round"/>
<path id="7007" class="district" name="Châu Thành" fill-rule="evenodd" clip-rule="evenodd" d="M190.5 321.98L188.972 328.094L159.936 325.037L150.766 338.793L143.125 341.85L130.899 338.793L123.258 334.208L115.617 338.793L114.089 334.208H101.863L92.6936 331.151L88.1089 332.679L66.7137 320.451L56.0162 303.638V283.768L45.3186 280.711H39.2057L34.621 283.768L31.5645 282.24L34.621 274.597L33.0928 263.898L42.2621 239.442V234.857L34.621 231.8L39.2057 221.1L34.621 213.458L42.2621 210.401L51.4315 199.702V187.474L91.1654 185.946L100.335 190.531L118.673 207.344H123.258L124.786 211.93H127.843V214.987L133.956 211.93L149.238 210.401L147.71 221.1L150.766 230.271L147.71 237.914L149.238 242.499L152.294 244.028L150.766 253.198L146.181 254.727L149.238 256.255V262.369L152.294 263.898L149.238 266.955V271.54L153.823 270.012L159.936 274.597L161.464 273.069L158.407 289.882L159.936 303.638L158.407 309.752L155.351 311.281H161.464L164.52 305.167L170.633 302.11L176.746 308.224L181.331 306.695L187.444 317.394L190.5 321.98Z" fill="#D18847" fill-opacity="0.5" stroke="#0000FF" stroke-opacity="0.4" stroke-linecap="round" stroke-linejoin="round"/>
<path id="7006" class="district" name="Dương Minh Châu" fill-rule="evenodd" clip-rule="evenodd" d="M254.685 323.508H248.573L242.46 315.866L240.931 317.394L236.347 314.337L237.875 312.809H234.819L233.29 305.167L231.762 306.695L227.177 300.581L230.234 297.524L227.177 292.939L224.121 294.467V288.353L219.536 294.467H216.48L218.008 285.296L214.952 277.654L205.782 279.182L201.198 273.069H198.141L196.613 277.654H193.556L188.972 271.54V274.597L185.915 276.126L184.387 273.069L187.444 260.841L193.556 257.784L199.669 244.028L204.254 242.499L207.31 239.442L205.782 237.914L211.895 233.328L213.423 224.157H210.367L207.31 213.458H210.367L214.952 199.702H221.065V193.588L228.706 175.246L263.855 204.287L297.476 205.816L308.173 202.759L302.06 228.743L292.891 237.914L291.363 242.499V248.613L299.004 257.784L294.419 274.597L295.948 277.654V274.597L299.004 276.126V282.239L300.532 279.182L305.117 280.711L302.06 294.467H309.702L302.06 302.11L305.117 303.638L306.645 308.224L305.117 320.451L297.476 321.98L291.363 315.866L283.722 317.394L285.25 325.037L280.665 328.094L277.609 325.037L266.911 335.736L260.798 331.151L259.27 326.565L257.742 328.094L254.685 323.508Z" fill="#B7E830" fill-opacity="0.5" stroke="#0000FF" stroke-opacity="0.4" stroke-linecap="round" stroke-linejoin="round"/>
<path id="7005" class="district" name="Gò Dầu" fill-rule="evenodd" clip-rule="evenodd" d="M289.835 352.549L305.117 369.363L299.004 372.42L297.476 383.119L295.948 387.704L291.363 390.761L289.835 399.932L282.194 407.574L276.081 404.518L271.496 406.046L269.968 409.103L260.798 412.16L257.742 416.745L253.157 412.16L257.742 407.574V404.518L251.629 390.761L248.573 389.233L245.516 392.29L233.29 384.647L230.234 375.476L231.762 372.42L239.403 370.891L234.819 355.606L230.234 354.078L214.952 357.135L210.367 354.078L207.31 347.964L195.085 354.078L185.915 349.492L184.387 335.736L188.972 332.679L190.5 321.98L198.141 323.508L204.254 315.866L207.31 317.394L210.367 312.809L211.895 314.337L214.952 303.638L221.065 297.524L222.593 288.353L224.121 294.467L227.177 291.41L230.234 297.524L227.177 300.581L228.706 303.638L231.762 306.695L233.29 305.167L234.819 311.281H237.875L236.347 314.337L240.931 317.394L242.46 315.866L248.573 323.508L253.157 321.98L257.742 328.094L259.27 325.037L262.327 332.679L266.911 335.736L277.609 325.037L280.665 328.094L285.25 323.508L283.722 317.394L291.363 315.866L295.948 321.98L302.06 320.451L303.589 321.98L288.306 337.265L295.948 344.907L292.891 347.964L294.419 349.492L289.835 352.549Z" fill="#49E830" fill-opacity="0.5" stroke="#0000FF" stroke-opacity="0.4" stroke-linecap="round" stroke-linejoin="round"/>
<path id="7004" class="district" name="Hòa Thành" fill-rule="evenodd" clip-rule="evenodd" d="M211.895 314.337L210.367 312.809L207.311 317.394L204.254 315.866L198.141 323.508H193.556L184.387 312.809L182.859 306.695L176.746 308.224L172.161 302.11L164.52 305.167V309.752L158.407 312.809L155.351 311.28L158.407 309.752L156.879 306.695L159.936 303.638L158.407 289.882L161.464 276.126L164.52 273.069L170.633 276.126L179.802 270.012H184.387L185.915 274.597H188.972V271.54L193.556 277.654H196.613L198.141 273.069H201.198L205.782 277.654H213.423L218.008 285.296L216.48 294.467L222.593 297.524L218.008 299.053L213.423 308.224L211.895 314.337Z" fill="#30E886" fill-opacity="0.5" stroke="#0000FF" stroke-opacity="0.4" stroke-linecap="round" stroke-linejoin="round"/>
<path id="7003" class="district" name="Tân Biên" fill-rule="evenodd" clip-rule="evenodd" d="M120.202 207.344L92.6935 185.946H40.7339V182.889H37.6774L40.7339 176.775L39.2056 170.661L42.2621 167.604L39.2056 153.848H42.2621L40.7339 150.791L43.7903 146.205L40.7339 132.449L30.0363 121.75L23.9234 124.807H20.8669V121.75L17.8105 124.807V121.75L11.6976 123.278L8.64113 118.693L7.1129 120.221L4.05645 117.164L5.58468 114.107L1 104.936V92.7085L11.6976 91.18L14.754 88.1231L16.2823 75.8953L25.4516 66.7244L40.7339 59.0821H43.7903L59.0726 71.3099L80.4677 80.4807L97.2782 62.139V57.5536L94.2218 54.4966L97.2782 49.9112L104.919 43.7973L106.448 45.3258L112.56 33.098L115.617 31.5695L112.56 17.8132L115.617 7.1139L120.202 2.52848L129.371 1L133.956 4.05695L146.181 2.52848L152.294 5.58543L153.823 8.64238L158.407 10.1709V13.2278L162.992 14.7563L169.105 23.9271L170.633 129.392H166.048L170.633 132.449L169.105 137.034L175.218 144.677H170.633L169.105 155.376V167.604L175.218 173.718V181.36L173.69 192.059L161.464 202.759L164.52 205.816L161.464 221.1L149.238 208.873L127.843 214.987V211.93H124.786L123.258 207.344H120.202Z" fill="#30DCE8" fill-opacity="0.5" stroke="#0000FF" stroke-opacity="0.4" stroke-linecap="round" stroke-linejoin="round"/>
<g id="7002" class="district" name="Tân Châu">
<path fill-rule="evenodd" clip-rule="evenodd" d="M308.173 202.759L297.476 205.816L263.855 204.287L228.706 175.246L221.065 193.588V199.702H214.952L210.367 213.458L207.31 211.93L208.839 210.401L204.254 201.23L196.613 193.588L184.387 201.23H179.802L170.633 195.116L173.69 192.059L175.218 173.718L169.105 167.604V155.376L170.633 144.677H175.218L167.577 133.977L170.633 132.449L164.52 129.392H170.633L169.105 20.8702L176.746 19.3417L193.556 25.4556L201.198 17.8132L207.31 19.3417L211.895 14.7563L214.952 22.3986L222.593 28.5125H233.29L239.403 31.5695L245.516 30.041L254.685 33.098L256.214 37.6834L259.27 39.2119L257.742 43.7973L269.968 52.9681L273.024 60.6105L283.722 59.082L291.363 52.9681L295.948 56.0251L309.702 48.3827H320.399L329.569 51.4397L337.21 59.082H343.323L347.907 63.6675L358.605 62.139V71.3099L363.19 72.8383L361.661 77.4238L366.246 80.4807L364.718 89.6516L367.774 94.237H372.359V97.2939L378.472 100.351L375.415 104.936L380 112.579L376.944 115.636L380 117.164V120.221L375.415 124.806L376.944 126.335L373.887 130.92L369.302 132.449L366.246 135.506L363.19 132.449L360.133 135.506L352.492 132.449L349.435 138.563L344.851 140.091L346.379 150.791L341.794 155.376L343.323 161.49L335.681 175.246L318.871 182.889L312.758 189.002L309.702 201.23L308.173 202.759Z" fill="#306EE8" fill-opacity="0.5"/>
<path d="M369.302 132.449L373.887 130.92L376.944 126.335L375.415 124.806L380 120.221V117.164L376.944 115.636L380 112.579L375.415 104.936L378.472 100.351L372.359 97.2939V94.237H367.774L364.718 89.6516L366.246 80.4807L361.661 77.4238L363.19 72.8383L358.605 71.3099V62.139L347.907 63.6675L343.323 59.082H337.21L329.569 51.4397L320.399 48.3827H309.702L295.948 56.0251L291.363 52.9681L283.722 59.082L273.024 60.6105L269.968 52.9681L257.742 43.7973L259.27 39.2119L256.214 37.6834L254.685 33.098L245.516 30.041L239.403 31.5695L233.29 28.5125H222.593L214.952 22.3986L211.895 14.7563L207.31 19.3417L201.198 17.8132L193.556 25.4556L176.746 19.3417L169.105 20.8702L170.633 129.392H164.52L170.633 132.449L167.577 133.977L175.218 144.677H170.633L169.105 155.376V167.604L175.218 173.718L173.69 192.059L170.633 195.116L179.802 201.23H184.387L196.613 193.588L204.254 201.23L208.839 210.401L207.31 211.93L210.367 213.458L214.952 199.702H221.065V193.588L228.706 175.246L263.855 204.287L297.476 205.816L308.173 202.759L309.702 201.23L312.758 189.002L318.871 182.889L335.681 175.246L343.323 161.49L341.794 155.376L346.379 150.791L344.851 140.091L349.435 138.563L352.492 132.449L360.133 135.506L363.19 132.449L366.246 135.506L369.302 132.449ZM369.302 132.449L370.831 133.977" stroke="#0000FF" stroke-opacity="0.4" stroke-linecap="round" stroke-linejoin="round"/>
</g>
<g id="7001" class="district" name="Trảng Bàng">
<path fill-rule="evenodd" clip-rule="evenodd" d="M259.27 453.429L240.931 450.372L231.762 454.957L221.065 456.486L210.367 464.128H201.198L198.141 454.957L201.198 458.014L202.726 454.957L213.423 458.014L221.065 456.486L216.48 448.843L211.895 415.217L208.839 410.631L221.065 409.103L239.403 413.688L243.988 409.103L251.629 407.574L257.742 416.745L260.798 412.16L276.081 404.517L282.194 407.574L289.835 399.932L291.363 392.29L297.476 383.119L299.004 372.42L305.117 369.363L289.835 352.549L294.419 349.492L292.891 347.964L295.948 344.907L288.306 337.265L305.117 320.451L306.645 308.224L303.589 303.638L308.173 308.224L314.286 303.638L317.343 312.809H320.399V321.98H323.456L320.399 334.208L329.569 340.322L332.625 338.793V335.736L335.681 344.907L343.323 346.435L346.379 343.378L350.964 354.078L346.379 358.663L357.077 369.363L354.02 370.891L344.851 395.347V401.461L340.266 407.574V413.688L343.323 415.217L334.153 430.502V435.087L337.21 438.144L305.117 447.315L302.06 444.258L299.004 445.786L294.419 439.672L280.665 432.03L266.911 428.973L262.327 433.559L259.27 430.502L257.742 433.559L266.911 445.786L265.383 450.372L260.798 451.9L259.27 453.429Z" fill="#6130E8" fill-opacity="0.5"/>
<path d="M221.065 456.486L231.762 454.957L240.931 450.372L259.27 453.429L260.798 451.9L265.383 450.372L266.911 445.786L257.742 433.559L259.27 430.502L262.327 433.559L266.911 428.973L280.665 432.03L294.419 439.672L299.004 445.786L302.06 444.258L305.117 447.315L337.21 438.144L334.153 435.087V430.502L343.323 415.217L340.266 413.688V407.574L344.851 401.461V395.347L354.02 370.891L357.077 369.363L346.379 358.663L350.964 354.078L346.379 343.378L343.323 346.435L335.681 344.907L332.625 335.736V338.793L329.569 340.322L320.399 334.208L323.456 321.98H320.399V312.809H317.343L314.286 303.638L308.173 308.224L303.589 303.638L306.645 308.224L305.117 320.451L288.306 337.265L295.948 344.907L292.891 347.964L294.419 349.492L289.835 352.549L305.117 369.363L299.004 372.42L297.476 383.119L291.363 392.29L289.835 399.932L282.194 407.574L276.081 404.517L260.798 412.16L257.742 416.745L251.629 407.574L243.988 409.103L239.403 413.688L221.065 409.103L208.839 410.631L211.895 415.217L216.48 448.843L221.065 456.486ZM221.065 456.486L210.367 464.128H201.198L198.141 454.957L201.198 458.014L202.726 454.957L213.423 458.014L221.065 456.486Z" stroke="#0000FF" stroke-opacity="0.4" stroke-linecap="round" stroke-linejoin="round"/>
</g>
</g>
</svg>
