<svg width="557" height="410" viewBox="0 0 557 410" fill="none" xmlns="http://www.w3.org/2000/svg">
<g id="71" name="Bến Tre">
<path id="7109" class="district" name="TP Bến Tre" fill-rule="evenodd" clip-rule="evenodd" d="M261 107L260 110L253 101L250 103L252 105L251 107L241 106L238 99L223 77L212 69L218 64L213 61L217 53L214 52V43L240 51L247 52L248 48L262 53L261 57L278 63L287 69H292L296 71L295 77L282 85L285 89L282 90L279 98L281 102L277 106L273 105L269 108L270 111L268 112L266 109L264 110L261 107Z" fill="#D147AC" fill-opacity="0.5" stroke="#0000FF" stroke-opacity="0.4" stroke-linecap="round" stroke-linejoin="round"/>
<path id="7108" class="district" name="Ba tri" fill-rule="evenodd" clip-rule="evenodd" d="M464 256L459 265L455 269L454 286L443 282L424 278L389 257L362 252L354 249L345 243L334 234L337 228V224L329 217L323 209L338 200L339 202L353 195L354 196L357 187L366 177L379 156L376 147L381 143L382 140L385 143L392 136L407 134L408 132L402 124V115L410 119L426 122L430 127L439 146L443 149L452 151L458 155L462 160L490 203L489 207L480 215L479 218V222L487 235L484 237L483 241L477 249H474L466 253L464 256Z" fill="#D1475A" fill-opacity="0.5" stroke="#0000FF" stroke-opacity="0.4" stroke-linecap="round" stroke-linejoin="round"/>
<path id="7107" class="district" name="Bình Đại" fill-rule="evenodd" clip-rule="evenodd" d="M368 99L334 75L308 64L304 58L301 57L307 35L310 30L307 26H328L343 37L360 45L368 53L375 57L396 62L416 69L449 75L466 76L484 82L493 90L497 96L530 112L529 119L546 127L556 141V148L553 159L556 166V173L552 181L539 197L515 223L492 234L488 233L487 235L479 223V218L480 215L489 207L490 203L458 155L452 151L443 149L439 146L430 127L426 122L410 119L402 115L391 106L375 102L368 99Z" fill="#D18847" fill-opacity="0.5" stroke="#0000FF" stroke-opacity="0.4" stroke-linecap="round" stroke-linejoin="round"/>
<path id="7106" class="district" name="Châu Thành" fill-rule="evenodd" clip-rule="evenodd" d="M168 65L144 74L138 75L128 73L117 66L109 64L100 58L89 49L85 43L131 21L142 18L162 16L191 8L199 17H203L242 3L253 1L271 4L307 26L310 30L307 35L296 71L292 69H287L278 63L261 57L262 53L248 48L247 52L240 51L214 43V52L217 53L213 61L218 64L212 69L209 66L190 59H184L172 63L168 65Z" fill="#B7E830" fill-opacity="0.5" stroke="#0000FF" stroke-opacity="0.4" stroke-linecap="round" stroke-linejoin="round"/>
<path id="7105" class="district" name="Chợ Lách" fill-rule="evenodd" clip-rule="evenodd" d="M159 119L155 124V134L153 141L149 140L141 143L118 122L109 124L99 111L92 108L86 102L84 94L62 77L46 74L26 73L8 69L6 63L9 61L6 52L1 51L3 47L1 45L3 40L2 39L6 32L32 45L45 49L54 46L56 43H85L89 49L109 64L117 66L128 73L138 75L162 68L165 70L163 75L167 80L164 88H154V92L162 91L168 95L173 92L174 101L177 103L174 104L175 105L167 107L165 106L159 110L168 117L162 118L159 119Z" fill="#49E830" fill-opacity="0.5" stroke="#0000FF" stroke-opacity="0.4" stroke-linecap="round" stroke-linejoin="round"/>
<path id="7104" class="district" name="Giồng Trôm" fill-rule="evenodd" clip-rule="evenodd" d="M326 227L307 205L288 187L280 176L267 164L254 144L242 117L241 106L251 107L252 105L250 103L253 101L260 110L261 107L264 110L266 109L268 112L270 111L269 108L273 105L277 106L281 102L279 98L282 90L285 89L282 86L295 77L301 57L304 58L308 64L334 75L368 99L391 106L402 115V124L408 132L407 134L392 136L385 143L382 140L381 143L376 147L379 156L366 177L357 187L354 196L353 195L339 202L338 200L323 209L329 217L337 224V228L334 234L330 232L326 227Z" fill="#30E886" fill-opacity="0.5" stroke="#0000FF" stroke-opacity="0.4" stroke-linecap="round" stroke-linejoin="round"/>
<path id="7103" class="district" name="Mỏ Cày Bắc" fill-rule="evenodd" clip-rule="evenodd" d="M197 162L195 164L193 163L192 166H194V169L191 168L194 171H196L197 174L190 179L182 200L177 191L163 175L141 143L143 141H153L155 134V124L157 123L158 119L168 117L159 110L165 106H175L174 104L177 103L174 101L173 93L169 95L162 91L154 92V88H164L167 80L163 75V71L165 70L162 68L184 59L198 61L209 66L223 77L238 99L241 106L242 117L245 123L241 124L238 130L225 131L226 142H222L221 140L220 142H217L213 147L211 146L208 149L206 148L200 154L197 162Z" fill="#30DCE8" fill-opacity="0.5" stroke="#0000FF" stroke-opacity="0.4" stroke-linecap="round" stroke-linejoin="round"/>
<path id="7102" class="district" name="Mỏ Cày Nam" fill-rule="evenodd" clip-rule="evenodd" d="M287 233L283 238L284 245L283 244L282 254L288 255L287 256L289 258L287 260L290 261L287 265L283 266L284 267L279 274L272 278L233 250L223 246L210 238L196 222L182 200L190 179L197 174L196 171L191 169H194V166H192L193 163L195 164L197 162L200 154L206 148L208 149L211 146L213 147L221 140L226 142L224 131L238 130L241 124L245 123L254 144L267 164L280 176L288 187L302 201L297 204L299 209L298 212H296L294 208L290 210L285 216V218L288 219V232L287 233Z" fill="#306EE8" fill-opacity="0.5" stroke="#0000FF" stroke-opacity="0.4" stroke-linecap="round" stroke-linejoin="round"/>
<path id="7101" class="district" name="Thạnh Phú" fill-rule="evenodd" clip-rule="evenodd" d="M444 394L438 401L427 409L394 372L365 348L353 332L340 318L328 308L301 296L272 278L279 274L284 267L283 266L287 265L290 262L287 260L289 258L287 256L288 255L282 254L283 244L284 245L283 238L288 232V219L285 218V216L290 210L294 208L296 212H298L299 209L297 204L302 201L307 205L330 232L338 236L345 243L354 249L362 252L389 257L424 278L443 282L454 286V300L464 308L469 325L473 326L476 329L478 335L481 338V341L480 346L477 349L465 371L451 387L444 394Z" fill="#6130E8" fill-opacity="0.5" stroke="#0000FF" stroke-opacity="0.4" stroke-linecap="round" stroke-linejoin="round"/>
</g>
</svg>
