<svg width="570" height="487" viewBox="0 0 570 487" fill="none" xmlns="http://www.w3.org/2000/svg">
<g id="72" name="Vũng Tàu">
<path id="7207" class="district" name="TP Bà Rịa" fill-rule="evenodd" clip-rule="evenodd" d="M144.841 341.113L146.196 351.946L143.487 353.3L140.778 351.946L138.068 345.176L132.649 349.238L121.811 347.883L123.166 345.176L116.392 330.28H125.875L124.52 326.218L127.23 323.51L124.52 320.803L129.94 314.032L127.23 311.324V296.429H136.713L151.615 270.702L161.098 274.764L174.646 272.055L171.936 247.682L177.356 250.39L185.484 265.285L192.257 266.639L196.322 262.577H199.031V253.099H201.74V255.806L205.805 251.744L208.514 254.452L212.579 253.099L213.934 257.161L217.997 251.744L220.707 253.099L222.062 243.62L231.545 246.328L228.835 254.452L231.545 257.161H235.609L245.092 269.347L247.802 266.639L249.156 269.347V278.826L245.092 282.888L246.447 284.242L242.383 292.367V297.783L227.481 303.199L224.771 309.97L222.062 307.262L216.643 312.677L207.16 309.97V312.677L199.031 320.803L203.096 322.156L193.613 328.927V337.051L190.903 338.406L186.839 334.342L180.065 335.697V342.468L177.356 343.821L170.582 342.468L169.227 335.697L166.518 332.989L162.453 334.342L159.744 341.113L155.68 342.468L147.552 338.406L144.841 341.113Z" fill="#D147AC" fill-opacity="0.5" stroke="#0000FF" stroke-opacity="0.4" stroke-linecap="round" stroke-linejoin="round"/>
<g id="7206" class="district" name="TP Vũng Tàu">
<path id="Vector" fill-rule="evenodd" clip-rule="evenodd" d="M102.845 406.109L100.136 414.234L94.7163 412.88L102.845 396.631L108.263 393.922L104.199 403.401L102.845 406.109ZM96.0711 473.813L92.0068 483.291L87.9427 486L85.2332 480.584L75.75 475.167V468.396L78.4595 462.981L74.3952 457.564H70.331L64.9121 452.148L66.2668 441.315L59.4931 434.545V426.42L63.5574 419.649L70.331 423.712H75.75L81.169 418.296L77.1047 416.942L78.4595 415.587L96.0711 419.649L97.4258 416.942L104.199 414.234L110.973 399.339L117.746 396.631L121.811 391.214L117.746 370.903H106.909L104.199 373.611L97.4258 372.257L81.169 376.319L60.8479 361.424L55.4289 356.009L50.0099 345.176L47.3004 342.468L45.9457 343.821V341.113L37.8173 342.468L55.4289 328.927L63.5574 330.28L73.0405 323.51L81.169 328.927L93.3616 324.865L105.554 332.989L116.392 330.28L123.166 345.176L121.811 347.883L131.294 349.238L138.068 345.176L142.132 353.3L146.197 351.946L144.841 341.113L147.552 338.406L155.68 342.468L159.744 341.113L162.453 334.343H169.227L170.582 342.468L182.774 346.53L184.13 350.592H188.193L189.548 356.009L199.031 360.071L201.74 365.487L212.579 369.549L213.934 373.611L209.869 377.674L213.934 385.798L212.579 388.506H205.805L201.74 385.798L197.677 387.152L193.613 379.027H190.903L174.646 407.463H169.227L158.389 421.004L144.841 426.42L119.102 444.023L96.0711 471.105V473.813Z" fill="#D1475A" fill-opacity="0.5"/>
<path id="Vector_2" d="M93.3616 484.646L94.7163 483.291M102.845 406.109L100.136 414.234L94.7163 412.88L102.845 396.631L108.263 393.922L104.199 403.401L102.845 406.109ZM96.0711 473.813L92.0068 483.291L87.9427 486L85.2332 480.584L75.75 475.167V468.396L78.4595 462.981L74.3952 457.564H70.331L64.9121 452.148L66.2668 441.315L59.4931 434.545V426.42L63.5574 419.649L70.331 423.712H75.75L81.169 418.296L77.1047 416.942L78.4595 415.587L96.0711 419.649L97.4258 416.942L104.199 414.234L110.973 399.339L117.746 396.631L121.811 391.214L117.746 370.903H106.909L104.199 373.611L97.4258 372.257L81.169 376.319L60.8479 361.424L55.4289 356.009L50.0099 345.176L47.3004 342.468L45.9457 343.821V341.113L37.8173 342.468L55.4289 328.927L63.5574 330.28L73.0405 323.51L81.169 328.927L93.3616 324.865L105.554 332.989L116.392 330.28L123.166 345.176L121.811 347.883L131.294 349.238L138.068 345.176L142.132 353.3L146.197 351.946L144.841 341.113L147.552 338.406L155.68 342.468L159.744 341.113L162.453 334.343H169.227L170.582 342.468L182.774 346.53L184.13 350.592H188.193L189.548 356.009L199.031 360.071L201.74 365.487L212.579 369.549L213.934 373.611L209.869 377.674L213.934 385.798L212.579 388.506H205.805L201.74 385.798L197.677 387.152L193.613 379.027H190.903L174.646 407.463H169.227L158.389 421.004L144.841 426.42L119.102 444.023L96.0711 471.105V473.813Z" stroke="#0000FF" stroke-opacity="0.4" stroke-linecap="round" stroke-linejoin="round"/>
</g>
<g id="7205" class="district" name="Phú Mỹ">
<path id="Vector_3" fill-rule="evenodd" clip-rule="evenodd" d="M116.392 330.28L105.554 332.989L93.3616 324.865L81.169 328.927L74.3952 323.51L63.5574 330.28L55.4289 328.927L37.8173 342.468L31.0436 341.113L2.59405 346.53V304.553L14.7867 293.721L24.2699 277.472L32.3983 269.347L29.6888 261.223L17.4962 257.161L16.1415 253.099V249.037L29.6888 228.725L32.3983 220.601L26.9794 212.476L22.9151 200.289L6.65828 189.457L1.23932 177.27L3.9488 171.854L8.01301 169.145H13.432L17.4962 174.562L22.9151 173.208L18.8509 163.73L50.0099 148.834L68.9762 150.189L71.6857 152.897L100.136 154.251L105.554 143.418L110.973 142.064L115.037 136.648H120.457L124.52 132.586L125.875 127.169L136.713 123.107L140.778 100.088L143.487 97.3795L162.453 96.0254L169.227 90.6091L166.518 97.3795L169.227 98.7334V119.045L162.453 125.815V128.524L169.227 139.356L167.872 150.189L170.582 152.897V159.667L165.163 169.145L170.582 179.978V188.102H167.872L163.808 196.227L170.582 208.414L169.227 223.308H171.936L170.582 227.37L174.646 231.433L173.291 232.787L176.001 235.496L173.291 236.849L176.001 238.203L177.356 242.266L174.646 247.682H171.936L174.646 272.055L161.098 274.764L151.615 270.702L136.713 296.429H127.23V311.324L129.94 316.74L124.52 320.803L127.23 323.51L124.52 326.218L125.875 328.927L123.166 331.635L119.102 330.28H116.392Z" fill="#D18847" fill-opacity="0.5"/>
<path id="Vector_4" d="M176.001 238.203L173.291 236.849L176.001 235.496L173.291 232.787L174.646 231.433L170.582 227.37L171.936 223.308H169.227L170.582 208.414L163.808 196.227L167.872 188.102H170.582V179.978L165.163 169.145L170.582 159.667V152.897L167.872 150.189L169.227 139.356L162.453 128.524V125.815L169.227 119.045V98.7334L166.518 97.3795L169.227 90.6091L162.453 96.0254L143.487 97.3795L140.778 100.088L136.713 123.107L125.875 127.169L124.52 132.586L120.457 136.648H115.037L110.973 142.064L105.554 143.418L100.136 154.251L71.6857 152.897L68.9762 150.189L50.0099 148.834L18.8509 163.73L22.9151 173.208L17.4962 174.562L13.432 169.145H8.01301L3.9488 171.854L1.23932 177.27L6.65828 189.457L22.9151 200.289L26.9794 212.476L32.3983 220.601L29.6888 228.725L16.1415 249.037V253.099L17.4962 257.161L29.6888 261.223L32.3983 269.347L24.2699 277.472L14.7867 293.721L2.59405 304.553V346.53L31.0436 341.113L37.8173 342.468L55.4289 328.927L63.5574 330.28L74.3952 323.51L81.169 328.927L93.3616 324.865L105.554 332.989L116.392 330.28H119.102L123.166 331.635L125.875 328.927L124.52 326.218L127.23 323.51L124.52 320.803L129.94 316.74L127.23 311.324V296.429H136.713L151.615 270.702L161.098 274.764L174.646 272.055L171.936 247.682H174.646L177.356 242.266L176.001 238.203ZM176.001 238.203L174.646 239.558" stroke="#0000FF" stroke-opacity="0.4" stroke-linecap="round" stroke-linejoin="round"/>
</g>
<g id="7204" class="district" name="Châu Đức">
<path id="Vector_5" fill-rule="evenodd" clip-rule="evenodd" d="M220.707 253.099L217.997 251.744L213.934 257.161L212.579 253.099L208.514 254.452L205.805 251.744L201.74 255.806V253.099H199.031V262.576L189.548 266.639L184.13 262.576L174.646 249.037L176.001 238.203L173.291 236.849L176.001 235.496L171.936 232.787V223.308H169.227L170.582 208.414L163.808 196.227L165.163 190.811L169.227 186.748L170.582 188.102V179.978L165.163 169.145L170.582 158.313V152.897L167.872 150.189L169.227 139.356L162.453 128.524V125.815L166.518 124.461L169.227 119.045V98.7334L166.518 97.3795L169.227 90.6091L162.453 96.0254L143.487 97.3795L142.132 78.4224L146.196 82.4846L148.906 81.1305L146.196 78.4224L148.906 75.7142L150.261 77.0683L147.551 74.3601H142.132L140.778 62.1735L142.132 63.5276L146.196 60.8194H159.744L169.227 52.6949L171.936 54.049L176.001 47.2786L182.774 44.5705L184.13 39.1541L192.257 33.7378L200.386 35.0919L209.869 32.3837L208.514 48.6327L213.934 47.2786V54.049H216.643L219.352 48.6327L223.417 49.9868L230.19 47.2786L228.835 43.2164L231.545 41.8623L238.318 45.9245H246.447V49.9868L301.991 51.3409L300.637 55.4031L306.056 56.7572L303.346 60.8194L306.056 78.4224L303.346 77.0683L304.7 79.7764L301.991 87.9009L306.056 91.9632L300.637 102.796L301.991 105.504L307.411 106.858L308.765 110.92L304.7 114.983L306.056 117.691L300.637 120.398V123.107L311.474 131.231V133.939L319.603 138.001L323.667 136.648V133.939L327.732 132.586L329.086 129.877L338.569 128.524L342.633 129.877V132.586H345.343L353.472 128.524L357.536 131.231L354.826 136.648L364.31 142.064L362.955 143.418L369.728 152.897L367.019 159.667L364.31 161.021L367.019 165.083L356.181 175.916L357.536 181.333L353.472 184.04L358.89 192.165L357.536 194.873L353.472 193.519L352.116 200.289L360.245 205.705L358.89 208.414H362.955L368.373 213.83L362.955 217.892V224.663L357.536 226.017V228.725L356.181 226.017V232.787H353.472L350.762 238.203H343.989L337.215 242.266L334.505 240.911L330.441 243.62V246.328L327.732 243.62L326.377 247.682H323.667V250.39H316.894L308.765 244.973L306.056 247.682H301.991L296.573 240.911H289.799L288.444 234.141L285.734 236.849L277.607 230.079L272.187 239.558L270.833 236.849L259.995 242.266L261.349 243.62L262.704 240.911L259.995 243.62L261.349 244.973H258.639L255.93 249.037L253.221 255.806L254.575 257.161L249.156 258.514L250.512 262.576L245.092 269.347L235.609 257.161L228.835 255.806L231.545 246.328L222.062 243.62L220.707 253.099Z" fill="#B7E830" fill-opacity="0.5"/>
<path id="Vector_6" d="M176.001 238.203L174.646 249.037L184.13 262.576L189.548 266.639L199.031 262.576V253.099H201.74V255.806L205.805 251.744L208.514 254.452L212.579 253.099L213.934 257.161L217.997 251.744L220.707 253.099L222.062 243.62L231.545 246.328L228.835 255.806L235.609 257.161L245.092 269.347L250.512 262.576L249.156 258.514L254.575 257.161L253.221 255.806L255.93 249.037L258.639 244.973H261.349L259.995 243.62L262.704 240.911L261.349 243.62L259.995 242.266L270.833 236.849L272.187 239.558L277.607 230.079L285.734 236.849L288.444 234.141L289.799 240.911H296.573L301.991 247.682H306.056L308.765 244.973L316.894 250.39H323.667V247.682H326.377L327.732 243.62L330.441 246.328V243.62L334.505 240.911L337.215 242.266L343.989 238.203H350.762L353.472 232.787H356.181V226.017L357.536 228.725V226.017L362.955 224.663V217.892L368.373 213.83L362.955 208.414H358.89L360.245 205.705L352.116 200.289L353.472 193.519L357.536 194.873L358.89 192.165L353.472 184.04L357.536 181.333L356.181 175.916L367.019 165.083L364.31 161.021L367.019 159.667L369.728 152.897L362.955 143.418L364.31 142.064L354.826 136.648L357.536 131.231L353.472 128.524L345.343 132.586H342.633V129.877L338.569 128.524L329.086 129.877L327.732 132.586L323.667 133.939V136.648L319.603 138.001L311.474 133.939V131.231L300.637 123.107V120.398L306.056 117.691L304.7 114.983L308.765 110.92L307.411 106.858L301.991 105.504L300.637 102.796L306.056 91.9632L301.991 87.9009L304.7 79.7764L303.346 77.0683L306.056 78.4224L303.346 60.8194L306.056 56.7572L300.637 55.4031L301.991 51.3409L246.447 49.9868V45.9245H238.318L231.545 41.8623L228.835 43.2164L230.19 47.2786L223.417 49.9868L219.352 48.6327L216.643 54.049H213.934V47.2786L208.514 48.6327L209.869 32.3837L200.386 35.0919L192.257 33.7378L184.13 39.1541L182.774 44.5705L176.001 47.2786L171.936 54.049L169.227 52.6949L159.744 60.8194H146.196L142.132 63.5276L140.778 62.1735L142.132 74.3601H147.551L150.261 77.0683L148.906 75.7142L146.196 78.4224L148.906 81.1305L146.196 82.4846L142.132 78.4224L143.487 97.3795L162.453 96.0254L169.227 90.6091L166.518 97.3795L169.227 98.7334V119.045L166.518 124.461L162.453 125.815V128.524L169.227 139.356L167.872 150.189L170.582 152.897V158.313L165.163 169.145L170.582 179.978V188.102L169.227 186.748L165.163 190.811L163.808 196.227L170.582 208.414L169.227 223.308H171.936V232.787L176.001 235.496L173.291 236.849L176.001 238.203ZM176.001 238.203L174.646 239.558" stroke="#0000FF" stroke-opacity="0.4" stroke-linecap="round" stroke-linejoin="round"/>
</g>
<path id="7203" class="district" name="Đất đỏ" fill-rule="evenodd" clip-rule="evenodd" d="M310.12 370.903L288.444 391.214L257.285 427.775L253.221 412.88L261.349 396.631L255.93 395.277L249.156 385.798H246.447V381.736L258.639 377.674L255.93 373.611L257.285 372.257L254.575 373.611L253.221 369.549L255.93 364.133L251.866 361.424L257.285 354.654L259.995 342.468L251.866 338.406L255.93 320.802L253.221 311.324V295.074L250.512 292.367L242.383 297.783V292.367L245.092 289.658V281.534L249.156 278.826V258.514L254.575 257.161L253.221 255.806L255.93 249.037L262.704 242.266H259.995L270.833 236.849L272.187 239.558L277.607 230.079L285.734 236.849L287.09 234.141L289.799 240.911H296.573L301.991 247.682H306.056L307.411 244.973L316.894 250.39H323.667L325.022 246.328L326.377 247.682L334.506 240.911L337.215 242.266L343.989 238.204L348.052 239.558V243.62L342.633 242.266V247.682L346.698 249.037L348.052 254.452H350.762L349.407 255.806L353.472 258.514L357.536 257.161L358.89 253.099L361.6 262.577L367.019 263.931V267.993L369.728 269.347V272.055L371.084 270.702L373.793 278.826L369.728 284.242L376.502 299.137L373.793 301.845V305.908H376.502L372.438 308.615L376.502 309.97V314.032L371.084 316.74V320.802L373.793 323.51L368.373 324.865V328.927H362.955L364.31 332.989H369.728L367.019 337.051L352.116 343.821V347.883L346.698 351.946H337.215L334.506 356.009L326.377 358.716L311.474 370.903H310.12Z" fill="#49E830" fill-opacity="0.5" stroke="#0000FF" stroke-opacity="0.4" stroke-linecap="round" stroke-linejoin="round"/>
<path id="7202" class="district" name="Long Điền" fill-rule="evenodd" clip-rule="evenodd" d="M257.285 427.775L249.156 426.42L245.092 430.482L241.029 429.128L239.673 425.066L224.771 408.817L212.579 402.047L174.646 407.463L190.903 379.027H193.613L194.967 385.798L197.676 387.152L201.74 385.798L205.805 388.506H212.579L213.934 385.798L209.869 379.027L213.934 373.611L212.579 370.903L201.74 365.486L199.031 360.071L189.548 356.009L188.193 350.592H184.13L182.774 346.53L177.356 343.821L180.065 342.468V337.051L186.839 334.343L190.903 338.406H193.613V328.927L203.096 322.156L199.031 320.802L201.74 316.74H204.45L207.16 309.97L216.643 312.677L222.062 307.262L224.771 309.97V305.908L227.481 303.199L238.318 300.491L239.673 297.783L250.512 292.367L253.221 293.721L254.575 299.137L253.221 311.324L255.93 318.094V326.218L251.866 338.406L259.995 342.468L257.285 353.3L251.866 361.424L255.93 364.133L253.221 369.549L254.575 373.611L257.285 372.257L255.93 373.611L258.64 377.674L246.447 381.736V385.798H249.156L255.93 395.277L261.349 396.631L253.221 412.88L257.285 427.775Z" fill="#30E886" fill-opacity="0.5" stroke="#0000FF" stroke-opacity="0.4" stroke-linecap="round" stroke-linejoin="round"/>
<g id="7201" class="district" name="Xuyên Mộc">
<path id="Vector_7" fill-rule="evenodd" clip-rule="evenodd" d="M456.432 322.156L441.529 339.759L434.756 337.051L415.789 341.113L373.793 338.406L352.117 347.883V343.821L367.019 337.051L369.728 332.989L362.955 331.635V328.927H368.373V324.865L373.793 323.51L371.084 320.803V316.74L376.502 315.386V309.97L372.438 308.615L376.502 305.908H373.793V301.845L376.502 299.137L371.084 284.242V270.702L369.728 272.055L365.664 262.577H361.6L360.245 253.099L357.536 257.161H349.407L350.762 254.452H348.052V251.744L341.279 244.973L342.634 242.266H349.407L348.052 236.849L350.762 238.203V235.496L356.181 232.787V226.017L357.536 228.725V226.017L362.955 224.663V220.601L368.373 213.83L362.955 208.414H358.89L360.245 205.705H357.536L352.117 200.289L353.472 194.873H357.536L358.89 192.165L353.472 185.395L357.536 181.333L356.181 177.27L358.89 171.854L367.019 165.083L364.31 161.021L367.019 159.667L369.728 152.897L365.664 150.189L367.019 147.48L362.955 144.772L364.31 142.065L354.826 136.648L357.536 131.231L353.472 129.877L350.762 121.753H354.826L350.762 117.691V113.629L354.826 109.566L353.472 105.504L348.052 101.442L354.826 93.3172L358.89 91.9632L361.6 78.4224L368.373 73.006L371.084 75.7142L372.438 74.3601L371.084 73.006L380.567 63.5276L379.211 62.1735L383.276 55.4031L390.05 49.9868L391.404 51.3409L392.759 45.9245L402.242 36.446H404.951L409.016 32.3837H413.08L414.435 35.0919L418.499 33.7378L425.272 20.1971L444.239 1.24001L451.013 2.59409L455.077 6.65632L457.787 10.7186L456.432 14.7808H464.561L469.979 12.0726L472.688 14.7808L475.398 25.6133L483.527 36.446L495.719 39.1541L503.848 35.0919L501.138 43.2164L505.202 49.9868L503.848 59.4653L509.266 62.1735L514.686 71.6521L524.169 74.3601L526.878 82.4846L533.652 85.1928L537.716 96.0254L541.78 100.088V106.858L544.49 112.274L540.426 116.336L541.78 117.691L536.361 128.524L537.716 132.586L539.071 131.231V133.939L540.426 132.586L543.135 135.294V143.418L545.844 144.772L548.554 155.604L553.973 161.021L552.618 162.375L555.327 169.145H558.038L560.747 177.27L559.392 178.624L562.101 179.978L560.747 181.333L566.165 188.102L564.811 190.811L560.747 188.102V190.811L567.521 198.935L568.875 205.705L566.165 221.955L567.521 226.017L563.456 230.079L568.875 238.203L556.682 249.037L526.878 284.242L514.686 304.553L487.591 309.97L474.044 307.262L468.624 308.615L463.205 314.032L456.432 322.156Z" fill="#30DCE8" fill-opacity="0.5"/>
<path id="Vector_8" d="M404.951 36.446H402.242L392.759 45.9245L391.404 51.3409L390.05 49.9868L383.276 55.4031L379.211 62.1735L380.567 63.5276L371.084 73.006L372.438 74.3601L371.084 75.7142L368.373 73.006L361.6 78.4224L358.89 91.9632L354.826 93.3172L348.052 101.442L353.472 105.504L354.826 109.566L350.762 113.629V117.691L354.826 121.753H350.762L353.472 129.877L357.536 131.231L354.826 136.648L364.31 142.065L362.955 144.772L367.019 147.48L365.664 150.189L369.728 152.897L367.019 159.667L364.31 161.021L367.019 165.083L358.89 171.854L356.181 177.27L357.536 181.333L353.472 185.395L358.89 192.165L357.536 194.873H353.472L352.117 200.289L357.536 205.705H360.245L358.89 208.414H362.955L368.373 213.83L362.955 220.601V224.663L357.536 226.017V228.725L356.181 226.017V232.787L350.762 235.496V238.203L348.052 236.849L349.407 242.266H342.634L341.279 244.973L348.052 251.744V254.452H350.762L349.407 257.161H357.536L360.245 253.099L361.6 262.577H365.664L369.728 272.055L371.084 270.702V284.242L376.502 299.137L373.793 301.845V305.908H376.502L372.438 308.615L376.502 309.97V315.386L371.084 316.74V320.803L373.793 323.51L368.373 324.865V328.927H362.955V331.635L369.728 332.989L367.019 337.051L352.117 343.821V347.883L373.793 338.406L415.789 341.113L434.756 337.051L441.529 339.759L456.432 322.156L463.205 314.032L468.624 308.615L474.044 307.262L487.591 309.97L514.686 304.553L526.878 284.242L556.682 249.037L568.875 238.203L563.456 230.079L567.521 226.017L566.165 221.955L568.875 205.705L567.521 198.935L560.747 190.811V188.102L564.811 190.811L566.165 188.102L560.747 181.333L562.101 179.978L559.392 178.624L560.747 177.27L558.038 169.145H555.327L552.618 162.375L553.973 161.021L548.554 155.604L545.844 144.772L543.135 143.418V135.294L540.426 132.586L539.071 133.939V131.231L537.716 132.586L536.361 128.524L541.78 117.691L540.426 116.336L544.49 112.274L541.78 106.858V100.088L537.716 96.0254L533.652 85.1928L526.878 82.4846L524.169 74.3601L514.686 71.6521L509.266 62.1735L503.848 59.4653L505.202 49.9868L501.138 43.2164L503.848 35.0919L495.719 39.1541L483.527 36.446L475.398 25.6133L472.688 14.7808L469.979 12.0726L464.561 14.7808H456.432L457.787 10.7186L455.077 6.65632L451.013 2.59409L444.239 1.24001L425.272 20.1971L418.499 33.7378L414.435 35.0919L413.08 32.3837H409.016L404.951 36.446ZM404.951 36.446L403.597 35.0919" stroke="#0000FF" stroke-opacity="0.4" stroke-linecap="round" stroke-linejoin="round"/>
</g>
</g>
</svg>
