<svg width="541" height="480" viewBox="0 0 541 480" fill="none" xmlns="http://www.w3.org/2000/svg">
<g id="73" name="Quảng Bình">
<path id="7308" class="district" name="Đồng Hới" fill-rule="evenodd" clip-rule="evenodd" d="M398.083 246.319L408.809 262.403L421.681 276.342L417.39 278.487L413.1 274.198L409.882 276.342L407.736 274.198L405.591 275.27L402.373 268.837L398.083 267.764L397.01 272.053L394.865 273.126H386.283L384.138 277.415H381.993L380.92 281.704L369.121 280.631V284.92L362.685 289.21L357.322 295.643L353.031 297.788L348.741 295.643V293.499L344.45 289.21L349.813 280.631L351.959 274.198L350.886 272.053L359.467 262.403L357.322 261.331L356.249 257.042L358.394 253.825H360.54L364.83 246.319L372.339 244.174L381.993 232.38L383.065 235.596L387.356 229.163L398.083 244.174V246.319Z" fill="#D147AC" fill-opacity="0.5" stroke="#0000FF" stroke-opacity="0.4" stroke-linecap="round" stroke-linejoin="round"/>
<path id="7307" class="district" name="Ba Đồn" fill-rule="evenodd" clip-rule="evenodd" d="M339.087 158.393L324.07 154.104L315.488 148.743L305.834 155.177L306.907 160.538L311.198 164.827L296.181 168.044L292.963 170.188L289.745 166.972L290.817 162.683L287.599 161.61L286.527 159.466L274.728 162.683L269.364 161.61L268.292 159.466L262.928 160.538L258.638 158.393L255.42 159.466L252.202 157.321L245.766 158.393L244.693 156.249L247.911 155.177V153.032L251.129 150.888H253.274L251.129 147.671L252.202 144.454L262.928 140.165L269.364 142.31V136.948H271.51V134.804L272.582 135.876L277.945 131.587H282.236L289.745 135.876L294.035 134.804L305.834 138.02L307.98 132.659L310.125 133.731L313.343 129.442H315.488V120.864H318.706L325.142 131.587L331.578 129.442L345.523 157.321L342.305 158.393H339.087Z" fill="#D1475A" fill-opacity="0.5" stroke="#0000FF" stroke-opacity="0.4" stroke-linecap="round" stroke-linejoin="round"/>
<path id="7306" class="district" name="Bố Trạch" fill-rule="evenodd" clip-rule="evenodd" d="M366.976 193.778L386.283 229.163L383.065 235.596L381.993 232.38L372.339 244.174L364.83 246.319V249.536L357.322 254.897L356.249 257.042L358.394 265.62L350.886 270.981L351.959 274.198L349.813 280.631L344.45 289.209L334.796 290.282L330.505 285.993L321.924 288.137L316.561 279.559L317.634 278.487L315.488 274.198L311.198 270.981V268.837L303.689 269.909L296.181 276.342V288.137H294.035L291.89 291.354H288.672V288.137L284.381 285.993L283.309 292.426L275.8 296.715V302.077L269.364 305.293L267.219 304.221L265.074 308.51L266.146 316.016H269.364L275.8 323.522L269.364 326.739L259.71 325.666V329.955L261.856 333.172L260.783 339.606L252.202 342.823L250.056 344.967L251.129 347.112L228.603 333.172L220.022 324.594L209.296 319.233V316.016L205.005 309.582L188.915 298.86L140.646 239.885L149.227 237.741L154.59 233.452L153.518 231.307L161.026 230.235L166.39 224.874L169.608 215.223L167.462 209.862H164.244V202.356L159.954 195.923L161.026 192.706L173.898 185.2L178.189 179.839L186.77 181.983L189.988 178.766H193.206L194.279 175.55H198.569L200.714 173.405L194.279 166.972L183.552 161.61L185.697 156.249H189.988L195.351 154.104L197.496 150.888L201.787 149.815L206.078 150.888L212.514 147.671V149.815L215.732 150.888L243.621 155.177L245.766 158.393L252.202 157.321L255.42 159.466L258.638 158.393L262.928 160.538L268.292 159.466L269.364 161.61L274.728 162.682L286.527 158.393V161.61L290.817 162.682L289.745 166.972L292.963 170.188L296.181 168.044L311.198 164.827L306.907 160.538L305.834 155.177L309.052 151.96L318.706 149.815L324.07 154.104L330.505 156.249L339.087 158.393L345.523 157.321L349.813 169.116L363.758 191.634L366.976 192.706V193.778Z" fill="#D18847" fill-opacity="0.5" stroke="#0000FF" stroke-opacity="0.4" stroke-linecap="round" stroke-linejoin="round"/>
<path id="7305" class="district" name="Lệ Thủy" fill-rule="evenodd" clip-rule="evenodd" d="M366.976 444.688V442.543L364.83 444.688V447.904L361.612 450.049L360.54 454.338L354.104 458.627L342.305 453.266H336.941L333.723 451.121L332.651 445.76L325.142 448.977L319.779 443.615L318.706 432.893L314.416 430.748L310.125 423.242L315.488 414.664L317.634 416.809L324.07 417.881L327.287 414.664H333.723L339.087 410.375L345.523 409.303L347.668 401.797L346.595 398.58L353.031 396.436L358.394 398.58L360.54 393.219L359.467 390.002L364.83 386.785H370.194L377.702 382.496L383.065 384.641L385.211 380.352L384.138 377.135L388.429 371.774L389.501 367.485L387.356 363.196L392.719 362.123L393.792 359.979L391.647 349.256L401.301 343.895L405.591 349.256L410.954 343.895H413.1L416.318 348.184V344.967L420.608 340.678L419.536 338.534H421.681L423.826 334.245L431.335 332.1L433.48 321.377H435.625L434.553 320.305L440.989 311.727L447.425 314.944L456.006 325.666L461.369 326.739L465.66 322.45V320.305L539.673 379.28L532.164 386.785L528.946 393.219L525.728 395.364V397.508L507.493 406.086L506.421 408.231L505.348 407.158L501.057 410.375V412.52L489.258 414.664L488.185 416.809L494.621 423.242L488.185 431.82L483.895 433.965L473.168 429.676L468.878 432.893L469.95 435.037L466.732 438.254L468.878 445.76L463.514 452.193L458.151 453.266V458.627L454.933 461.844V473.639L446.352 477.928L445.279 476.855L443.134 479L442.061 476.855L435.625 474.711L431.335 469.35L427.044 470.422L420.608 463.988L410.954 471.494L406.664 472.566L399.155 470.422L389.501 471.494L381.993 455.41L385.211 454.338L384.138 452.193L380.92 450.049L372.339 451.121L368.048 446.832L366.976 444.688Z" fill="#B7E830" fill-opacity="0.5" stroke="#0000FF" stroke-opacity="0.4" stroke-linecap="round" stroke-linejoin="round"/>
<path id="7304" class="district" name="Minh Hóa" fill-rule="evenodd" clip-rule="evenodd" d="M197.497 150.888L195.351 154.104L185.697 156.249L183.552 162.682L194.279 166.972L200.714 173.405L186.77 181.983L179.261 179.839L173.898 185.2L161.026 192.706L159.954 194.85L164.244 202.356V208.79L168.535 210.934L169.608 215.223L167.462 222.729L161.026 229.163L153.518 231.307L154.59 233.452L149.227 237.741L141.719 239.885L98.8124 189.489H92.3765V187.345L89.1586 184.128H87.0133V181.983L81.65 176.622H79.5047L78.432 178.766L67.7055 170.188L55.9063 172.333L52.6884 151.96L47.3251 148.743L46.2524 141.237L43.0345 138.02L44.1071 136.948L37.6712 135.876L32.308 130.515V126.226L28.0173 117.647L30.1626 106.925H26.9447L25.872 103.708L19.4361 97.2745H15.1455L14.0729 95.1299L8.70959 92.9854L1.20102 84.4073L5.49163 81.1905L6.56428 76.9015V70.4679L8.70959 66.1789L7.63694 56.5285L13.0002 52.2394L14.0729 54.384L19.4361 55.4562L26.9447 61.8898V67.2511L35.5259 70.4679L36.5986 73.6847L44.1071 71.5402L55.9063 77.9737V80.1183L59.1243 82.2628H61.2696L67.7055 79.046V74.757L73.0688 69.3956L81.65 70.4679L90.2312 75.8292L94.5218 72.6124L89.1586 64.0343L91.3039 61.8898H96.6671V58.673L98.8124 56.5285L105.248 54.384V57.6008L110.612 62.9621L112.757 58.673L114.902 61.8898L113.83 62.9621L122.411 65.1066L125.629 68.3234L124.556 74.757L130.992 80.1183H139.573V77.9737L147.082 81.1905L153.518 92.9854L161.026 98.3467V106.925H163.172L171.753 114.431H179.261L196.424 125.153V127.298H192.133V139.093L197.497 140.165V150.888Z" fill="#49E830" fill-opacity="0.5" stroke="#0000FF" stroke-opacity="0.4" stroke-linecap="round" stroke-linejoin="round"/>
<path id="7303" class="district" name="Quảng Ninh" fill-rule="evenodd" clip-rule="evenodd" d="M346.595 398.58L347.668 405.014L345.523 409.303L340.159 410.375L333.723 414.664L327.288 413.592L324.07 417.881L317.634 416.809L312.27 412.52V410.375L309.052 407.158L304.762 403.942H301.544L298.326 400.725V397.508L289.745 386.785L291.89 382.496L280.091 372.846V365.34L271.51 361.051L274.728 356.762L280.091 357.834L283.309 351.401L279.018 349.256H272.582L276.873 346.039V343.895L272.582 341.75V328.883L270.437 325.666L275.8 323.522L265.074 312.799L267.219 304.221L269.364 305.293L275.8 302.077V296.715L283.309 292.426L284.381 285.993L288.672 288.137V290.282L290.817 291.354L294.035 288.137H296.181L295.108 279.559L298.326 274.198L303.689 269.909L311.198 268.836V270.981H313.343L317.634 277.415L316.561 279.559L321.924 288.137L330.505 285.993L333.723 290.282L344.45 289.209L348.741 293.499V295.643L353.031 297.788L369.121 284.92V280.631L379.848 281.704L386.283 273.126H394.865L398.083 268.836H402.373L405.591 275.27L406.664 274.198L409.882 276.342L413.1 274.198L416.318 278.487L421.681 276.342L465.66 320.305V322.45L461.369 326.739L456.006 325.666L447.425 314.944L440.989 311.727L434.553 320.305L435.625 321.377H433.48L431.335 332.1L425.972 333.172L420.608 338.534L419.536 337.461L420.608 340.678L416.318 344.967V348.184L413.1 343.895H410.954L405.591 349.256L401.301 343.895L391.647 349.256L393.792 359.979L392.719 362.123L388.429 363.196L389.501 367.485L388.429 371.774L384.138 377.135L385.211 380.352L383.065 384.641L377.702 382.496L364.83 386.785L359.467 390.002L360.54 393.219L358.394 398.58L353.031 396.436L346.595 397.508V398.58Z" fill="#30E886" fill-opacity="0.5" stroke="#0000FF" stroke-opacity="0.4" stroke-linecap="round" stroke-linejoin="round"/>
<path id="7302" class="district" name="Quảng Trạch" fill-rule="evenodd" clip-rule="evenodd" d="M346.595 71.5402L347.668 74.757L345.523 72.6124L346.595 71.5402ZM358.394 62.9621L361.612 64.0343L359.467 65.1066L358.394 62.9621ZM357.322 59.7453V61.8898L356.249 59.7453H357.322ZM338.014 83.3351L335.869 89.7686L334.796 88.6964L336.941 85.4796L338.014 83.3351ZM271.51 134.804L268.292 133.731L267.219 128.37L262.928 124.081H258.638L260.783 117.647L264.001 114.431L262.928 109.069L265.074 101.564H262.928L259.71 98.3467H255.42V95.1299L258.638 92.9854L257.565 91.9132L259.71 89.7686V87.6241L256.492 84.4073L258.638 77.9737L260.783 75.8292H264.001L266.146 69.3956L264.001 64.0343L269.364 55.4562L272.582 52.2394H279.018L281.163 45.8059L285.454 40.4445L301.544 42.5891L317.634 49.0227L322.997 47.9504L326.215 50.0949V56.5285L328.36 57.6008L335.869 55.4562L340.159 56.5285L344.45 53.3117H351.959L349.813 55.4562L353.031 60.8175L351.959 62.9621L348.741 68.3234H342.305L341.232 71.5402L335.869 76.9015V81.1905L328.36 91.9132L326.215 98.3467L328.36 118.72L331.578 129.442L325.142 131.587L318.706 120.864H315.488V129.442L307.98 132.659L305.834 138.02L295.108 134.804L289.745 135.876L282.236 131.587H277.945L272.582 135.876L271.51 134.804Z" fill="#30DCE8" fill-opacity="0.5" stroke="#0000FF" stroke-opacity="0.4" stroke-linecap="round" stroke-linejoin="round"/>
<path id="7301" class="district" name="Tuyên Hóa" fill-rule="evenodd" clip-rule="evenodd" d="M254.347 98.3467H258.638L265.074 101.564L262.928 109.069L264.001 115.503L260.783 116.575L258.638 124.081H261.856L267.219 127.298L268.292 132.659L271.51 136.948L268.292 138.02L269.364 142.31L262.928 140.165L252.202 144.454L251.129 147.671L253.274 149.815L247.911 153.032V155.177L244.693 156.249L215.732 150.888L212.514 149.815V147.671L206.078 150.888H198.569L196.424 149.815L197.497 141.237L193.206 139.093L192.133 131.587V128.37L196.424 127.298V125.153L179.261 114.431H171.753L163.172 106.925H161.026V98.3467L150.3 88.6964L147.082 81.1905L139.573 77.9738V80.1183H132.065L128.847 77.9738L124.556 74.757L125.629 68.3234L122.411 65.1066L113.83 62.9621V58.673L111.684 59.7453L110.612 62.9621L105.248 57.6008V54.384L98.8124 56.5285L96.6671 57.6008V61.8898H91.3039L89.1586 64.0343L94.5218 71.5402L91.3039 75.8292L87.0133 74.757L85.9406 72.6124L79.5047 69.3957H73.0688L67.7055 74.757L68.7782 76.9015L66.6328 80.1183L59.1243 82.2628L55.9063 77.9738H53.761L45.1798 71.5402L37.6712 73.6847L35.5259 70.4679L26.9447 67.2511V61.8898L19.4361 55.4562L14.0729 54.384L13.0002 41.5168L17.2908 39.3723L37.6712 40.4446L41.9618 35.0832L45.1798 34.011L44.1071 28.6497L47.3251 25.4329V23.2884L51.6157 22.2161L59.1243 27.5774L65.5602 29.7219L78.432 26.5051L77.3594 24.3606L81.65 22.2161L85.9406 24.3606L88.0859 22.2161L87.0133 17.927L79.5047 15.7825L82.7226 12.5657L87.0133 10.4212L88.0859 11.4935L94.5218 9.34894H102.03L111.684 0.770844H115.975L121.338 3.98763L126.701 0.770844L132.065 7.20442L134.21 13.638L138.501 12.5657L140.646 14.7103L146.009 10.4212L162.099 27.5774H172.825L183.552 42.5891L181.407 41.5168L171.753 51.1672L170.68 58.673L176.043 61.8898L183.552 65.1066H189.988L220.022 72.6124L226.458 68.3234H228.603V70.4679L230.749 71.5402L232.894 70.4679L233.967 67.2511H244.693L246.839 65.1066L256.492 72.6124L257.565 70.4679H259.71L264.001 73.6847V75.8292H260.783L258.638 77.9738L256.492 84.4073L259.71 87.6241V89.7686L255.42 95.13L254.347 98.3467Z" fill="#306EE8" fill-opacity="0.5" stroke="#0000FF" stroke-opacity="0.4" stroke-linecap="round" stroke-linejoin="round"/>
</g>
</svg>
