<svg width="436" height="451" viewBox="0 0 436 451" fill="none" xmlns="http://www.w3.org/2000/svg">
<g id="74" name="Quảng Trị">
<path id="7410" class="district" name="TP Đông Hà" fill-rule="evenodd" clip-rule="evenodd" d="M309.44 179.743L316.264 189.294L308.075 192.023L303.981 197.481V201.575L295.792 205.668L294.428 202.939H291.698V205.668L290.333 202.939L284.874 201.575L282.145 205.668L280.78 204.303L278.05 207.032V209.761L273.956 211.126L272.591 216.584H268.497V219.312H257.579L256.214 213.855L261.673 201.575L269.862 198.846V193.388H265.767V187.93H268.497L272.591 183.837L271.226 175.65L284.874 172.921L287.604 168.828L293.063 166.099V160.641L297.157 159.277L295.792 164.734H298.522L301.252 168.828L303.981 167.463L306.711 177.014L309.44 179.743Z" fill="#D147AC" fill-opacity="0.5" stroke="#0000FF" stroke-opacity="0.4" stroke-linecap="round" stroke-linejoin="round"/>
<path id="7409" class="district" name="Thị xã Quảng Trị" fill-rule="evenodd" clip-rule="evenodd" d="M340.83 211.126L343.56 208.397L346.289 211.126H342.195H340.83ZM275.321 271.162L282.145 265.704L284.874 267.068L287.604 262.975H297.157L301.252 256.153L299.887 250.695L309.44 242.508L312.17 243.873L314.899 241.144L324.453 238.415L325.818 228.864L321.723 231.592L320.358 228.864L321.723 226.135H328.547L331.277 212.49H343.56L339.465 223.406L336.736 222.041V234.321L331.277 239.779L334.006 253.424L331.277 254.788L332.641 256.153L325.818 269.797V275.255L317.629 273.891L313.535 276.619H290.333L280.78 280.713L278.05 277.984L279.415 272.526L276.686 271.162H275.321Z" fill="#D1475A" fill-opacity="0.5" stroke="#0000FF" stroke-opacity="0.4" stroke-linecap="round" stroke-linejoin="round"/>
<path id="7408" class="district" name="Cam Lộ" fill-rule="evenodd" clip-rule="evenodd" d="M242.566 245.237L238.472 243.873L233.013 249.33L227.553 245.237L211.176 250.695H200.258L190.704 238.415L189.34 231.592L186.61 230.228L178.421 209.761L171.597 207.032L168.868 201.575L163.409 200.21L157.95 185.201L162.044 186.566L160.679 182.472H178.421L181.151 179.743L190.704 178.379L197.528 174.285L192.069 171.557L190.704 166.099L192.069 163.37H196.164V156.548L204.352 153.819V151.09L208.447 148.361H212.541L211.176 157.912L213.906 163.37L246.66 160.641L248.025 157.912L250.755 159.277L252.12 155.183L258.943 152.454V148.361H268.497L279.415 155.183L284.874 152.454L291.698 157.912L293.063 164.734L284.874 172.921L271.226 175.65L272.591 183.837L268.497 187.93H265.767V193.388H269.862V198.846L261.673 201.575L256.214 216.584H248.025L250.755 220.677L242.566 226.135L245.296 241.144L242.566 245.237Z" fill="#D18847" fill-opacity="0.5" stroke="#0000FF" stroke-opacity="0.4" stroke-linecap="round" stroke-linejoin="round"/>
<path id="7407" class="district" name="Đa Krông" fill-rule="evenodd" clip-rule="evenodd" d="M250.755 448.54L243.931 443.083L227.553 449.905L223.459 447.176L226.189 434.896L223.459 421.251L205.717 413.065L204.352 414.429L197.528 406.242L192.069 404.878L187.975 393.962L190.704 392.598L192.069 387.14L187.975 385.776L185.245 388.505L178.421 384.411V380.318L186.61 372.131L181.151 359.851L186.61 347.571L185.245 342.113L187.975 340.749L185.245 335.291L181.151 333.926V331.198L172.962 325.74L149.761 317.553L153.855 316.189V301.18L152.491 295.722L148.396 291.628H144.302L136.113 282.077L126.56 286.171L134.748 272.526L127.925 257.517L142.937 256.153L145.667 239.779L142.937 228.864H140.208L138.843 224.77L125.195 219.312H119.736L114.277 213.855H106.088L100.629 209.761L99.2641 204.303L104.723 202.939L115.642 192.023L117.006 193.388L126.56 177.014L130.654 174.285L133.384 181.108L136.113 178.379L134.748 174.285L137.478 177.014V181.108L148.396 179.743L151.126 183.837L152.491 182.472L157.95 185.201L163.409 200.21L168.868 201.575L172.962 208.397L178.421 209.761L182.516 222.041L185.245 223.406L186.61 230.228L190.704 234.321V238.415L200.258 250.695H211.176L227.553 245.237L233.013 247.966L241.201 243.873L249.39 246.601L252.119 250.695H271.226L269.862 265.704L275.321 272.526L279.415 271.162L278.05 277.984L287.604 286.171L288.969 291.628L297.157 295.722L295.792 298.451L298.522 302.544L312.17 309.366L305.346 313.46L301.252 320.282L279.415 323.011V325.74L272.591 323.011L271.226 324.375V338.02L283.509 346.207L287.604 344.842L290.333 351.664L293.063 348.935L303.981 355.758L309.44 370.767L303.981 377.589L294.428 378.953L286.239 373.496L269.862 374.86L267.132 385.776L273.956 393.962V396.691L269.862 399.42V406.242L264.403 408.971L261.673 413.065L249.39 418.522L253.484 423.98L252.119 437.625L254.849 444.447L252.119 448.54H250.755Z" fill="#B7E830" fill-opacity="0.5" stroke="#0000FF" stroke-opacity="0.4" stroke-linecap="round" stroke-linejoin="round"/>
<path id="7406" class="district" name="Gio Linh" fill-rule="evenodd" clip-rule="evenodd" d="M132.019 174.285L127.925 163.37L121.101 155.183L101.994 148.361L96.5346 151.09L88.3459 148.361L86.9811 138.81L100.629 141.539L121.101 140.174L130.654 142.903V140.174L138.843 144.268L145.667 142.903L144.302 144.268L147.031 145.632L149.761 141.539L153.855 142.903L152.491 140.174L156.585 141.539L163.409 137.445L164.774 138.81L171.597 136.081L170.233 134.716L174.327 136.081L172.962 134.716L178.421 131.987L181.151 137.445H185.245L186.61 133.352L190.704 136.081V131.987H194.799L200.258 126.53L202.987 129.259V126.53L207.082 127.894L208.447 125.165L212.541 127.894L213.906 122.436L216.635 121.072L213.906 115.614L216.635 108.792L222.094 103.334V106.063L226.189 104.698L227.553 108.792L235.742 101.97L246.66 97.8761L256.214 101.97L265.767 100.605L269.862 95.1472L265.767 91.0539L269.862 82.8672L278.05 85.5961L279.415 88.325L283.509 89.6894V92.4183H287.604L290.333 88.325L294.428 86.9605L295.792 81.5027L298.522 80.1383L303.981 93.7828L312.17 106.063L324.453 122.436L339.465 136.081L324.453 145.632L314.899 157.912L308.075 159.277L303.981 167.463L301.252 168.828L299.887 164.734H295.792L297.157 160.641L294.428 159.277L291.698 162.005L290.333 156.548L286.239 155.183L284.874 152.454L279.415 155.183L268.497 148.361H260.308L258.943 152.454H256.214L242.566 162.005L230.283 160.641L213.906 163.37L211.176 159.277L212.541 148.361H208.447L204.352 151.09V153.819L196.164 156.548L197.528 163.37L190.704 164.734L192.069 171.557L197.528 174.285L190.704 178.379L168.868 183.837L160.679 182.472L162.044 186.566L152.491 182.472L151.126 183.837L148.396 179.743L137.478 181.108L136.113 174.285V178.379H133.384L132.019 174.285Z" fill="#49E830" fill-opacity="0.5" stroke="#0000FF" stroke-opacity="0.4" stroke-linecap="round" stroke-linejoin="round"/>
<path id="7405" class="district" name="Hải Lăng" fill-rule="evenodd" clip-rule="evenodd" d="M394.057 273.891L395.421 276.619H398.151V273.891L399.516 275.255L396.786 282.077L402.245 286.171L404.975 291.628L396.786 299.815L376.314 313.46L374.95 310.731L366.761 308.002L364.031 302.544L350.384 306.637H344.925L342.195 303.908L335.371 306.637L332.642 305.273L313.535 310.731L298.522 302.544L295.792 298.451L297.157 295.722L288.969 291.628L287.604 287.535L280.78 280.713L297.157 276.619H313.535L317.629 273.891L325.818 275.255L324.453 272.526L334.006 253.424L331.277 239.779L336.736 235.686V223.406H339.465L343.56 213.855H339.465L340.83 211.126L344.925 212.49L349.019 207.032L350.384 209.761L353.113 208.397L355.843 211.126H366.761V208.397L372.22 207.032L370.855 202.939L374.95 204.303V201.575L383.138 193.388L385.868 194.752L395.421 190.659L435 220.677L425.447 226.135L417.258 239.779L419.987 241.144V243.873H417.258L400.881 262.975L406.34 272.526L404.975 275.255L402.245 268.433L399.516 269.797L394.057 273.891Z" fill="#30E886" fill-opacity="0.5" stroke="#0000FF" stroke-opacity="0.4" stroke-linecap="round" stroke-linejoin="round"/>
<path id="7404" class="district" name="Hướng Hóa" fill-rule="evenodd" clip-rule="evenodd" d="M122.465 385.776L117.006 387.14L115.642 391.233L112.912 392.598L110.182 388.505L108.818 378.953L104.723 381.682L107.453 384.411L106.088 385.776L100.629 381.682L85.6164 377.589L89.7107 373.496L85.6164 369.402L81.522 372.131L80.1572 361.215H74.6981L73.3333 351.664L76.0629 344.842L69.239 342.113V338.02L66.5094 335.291V325.74L78.7925 316.189L73.3333 309.366L76.0629 303.908L71.9686 305.273L66.5094 298.451H63.7799L59.6855 299.815L56.956 305.273L55.5912 294.357L50.1321 291.628H41.9434L37.8491 294.357L33.7547 291.628L39.2138 286.171L25.566 273.891L26.9308 264.339L18.7421 246.601V157.912L9.18868 149.725V146.996L2.36478 145.632L1 136.081V131.987L6.45912 129.259L5.09434 126.53H17.3774L18.7421 88.325L20.1069 91.0539L28.2956 93.7828L35.1195 92.4183L40.5786 96.5117L36.4843 99.2406V103.334L39.2138 108.792L43.3082 111.521L46.0377 119.707L58.3208 118.343L73.3333 121.072L76.0629 115.614L85.6164 110.156L89.7107 111.521L93.805 116.978L91.0755 121.072L92.4403 123.801L84.2516 134.716L86.9811 138.81L88.3459 148.361L96.5346 151.09L101.994 148.361L106.088 151.09L121.101 153.819L130.654 170.192L132.019 174.285L126.56 177.014L119.736 192.023L111.547 194.752L104.723 202.939L99.2642 204.303L97.8994 207.032L104.723 213.855H114.277L119.736 219.312H125.195L127.925 222.041L138.843 224.77L140.208 228.864H142.937L145.667 239.779L142.937 256.153L127.925 257.517L134.748 272.526L126.56 286.171L134.748 282.077L144.302 291.628L152.491 294.357L155.22 316.189L149.761 317.553L157.95 321.646V324.375L153.855 332.562L156.585 335.291L144.302 359.851V365.309L140.208 359.851L127.925 363.944L129.289 378.953L127.925 383.047L122.465 385.776Z" fill="#30DCE8" fill-opacity="0.5" stroke="#0000FF" stroke-opacity="0.4" stroke-linecap="round" stroke-linejoin="round"/>
<path id="7403" class="district" name="Triệu Phong" fill-rule="evenodd" clip-rule="evenodd" d="M343.56 208.397L338.101 213.855L332.641 212.49L329.912 215.219L331.277 217.948L328.547 224.77L321.723 226.135V231.593L325.818 227.499L324.453 238.415L312.17 243.873L310.805 242.508L299.887 250.695L301.252 256.153L297.157 262.975L294.428 261.61L293.063 264.339L287.604 261.61L286.239 267.068L282.145 265.704L280.78 268.433H276.686L275.321 272.526L269.862 265.704L271.226 250.695H252.119L249.39 246.601L242.566 245.237L245.296 241.144L242.566 226.135L245.296 223.406H249.39L250.755 220.677L248.025 217.948L256.214 216.584L257.579 219.312L258.943 217.948L261.673 220.677L268.497 219.312V216.584H271.226L275.321 209.761L278.05 211.126V205.668H282.145V202.939L287.604 201.575L290.333 205.668L294.428 202.939V205.668L299.887 204.303L303.981 201.575L305.346 196.117L309.44 192.023L316.264 189.294L306.711 177.014L303.981 164.734L308.075 159.277L314.899 157.912L324.453 145.632L339.465 136.081L373.585 171.557L395.421 190.659L387.233 194.752L383.138 193.388L374.95 201.575L376.314 202.939H370.855L372.22 207.032L366.761 209.761L354.478 211.126L353.113 208.397L350.384 209.761L349.019 207.032L346.289 209.761L343.56 208.397Z" fill="#306EE8" fill-opacity="0.5" stroke="#0000FF" stroke-opacity="0.4" stroke-linecap="round" stroke-linejoin="round"/>
<path id="7402" class="district" name="Vĩnh Linh" fill-rule="evenodd" clip-rule="evenodd" d="M293.063 88.325L284.874 92.4183L278.05 85.596L271.226 82.8671L267.132 85.596L265.767 91.0539L269.862 95.1472L265.767 100.605L256.214 101.969L248.025 97.8761L235.742 101.969L227.553 108.792V106.063H222.094V103.334L216.635 107.427L218 111.521L213.906 115.614L216.635 121.072L212.541 126.53L208.447 125.165L207.082 127.894L204.352 126.53L201.623 129.259L200.258 126.53L198.893 129.259L192.069 131.987L190.704 136.081L187.975 133.352L183.88 137.445H181.151L178.421 131.987L172.962 134.716L174.327 136.081L170.233 134.716V137.445L168.868 136.081L157.95 141.539L152.491 140.174L153.855 142.903L149.761 141.539L147.031 144.268H137.478L130.654 140.174V142.903L119.736 140.174H92.4402L86.9811 138.81L84.2516 134.716L92.4402 123.801L91.0755 122.436L93.805 118.343L97.8994 116.978L104.723 123.801L112.912 126.53L114.277 129.259L117.006 126.53L118.371 127.894L121.101 125.165L127.925 123.801V116.978L130.654 115.614L129.289 108.792L133.384 104.698L132.019 99.2406L134.748 95.1472H140.208L147.031 86.9605L144.302 78.7738L148.396 73.316V69.2226L152.491 66.4937L159.314 70.5871H168.868L179.786 59.6715L171.597 51.4847L172.962 47.3914L186.61 44.6625L193.434 37.8402L194.799 39.2047L196.164 36.4758L219.365 25.5601V22.8312L223.459 20.1023L227.553 11.9156L237.107 2.36444L298.522 43.298L299.887 47.3914L297.157 52.8492L299.887 65.1293L295.792 67.8582L298.522 80.1382H295.792L294.428 86.9605L293.063 88.325Z" fill="#6130E8" fill-opacity="0.5" stroke="#0000FF" stroke-opacity="0.4" stroke-linecap="round" stroke-linejoin="round"/>
</g>
</svg>
