<svg width="739" height="490" viewBox="0 0 739 490" fill="none" xmlns="http://www.w3.org/2000/svg">
<g id="75" name="Thừa Thiên Huế">
<path id="7509" class="district" name="TP Huế" fill-rule="evenodd" clip-rule="evenodd" d="M372.701 193.898L371.841 194.757L373.56 201.632L370.982 205.071V208.509L372.701 210.226V217.103L376.139 220.541L372.701 224.837L370.982 220.541H364.105L359.808 218.822L358.089 217.103L357.23 212.805H355.511L352.931 208.509L347.775 211.086V208.509L340.898 205.071L324.568 200.773L320.27 194.757L321.129 193.038L330.584 190.46V188.741L324.568 190.46L323.707 189.6L326.287 188.741L325.427 185.304L320.27 184.444L318.551 179.287L319.41 177.568H321.989L322.848 175.85L328.006 173.272V171.553L330.584 169.834L328.865 166.396L323.707 165.536L325.427 160.38L328.006 156.942L331.443 162.959H333.162V156.083L334.882 154.364L335.742 156.083L336.601 154.364H343.477L342.617 156.083L346.056 156.942L347.775 159.521H346.056L346.915 162.099H345.197V163.818L348.634 162.959L342.617 169.834L352.072 162.099H355.511L358.089 159.521L359.808 160.38L361.527 166.396L368.403 169.834V174.131L370.122 175.85L382.155 178.428L384.735 183.585L382.155 184.444L383.015 185.304L377.858 184.444L378.718 189.6L376.139 193.038L374.421 191.319L373.56 192.179L372.701 193.898Z" fill="#D147AC" fill-opacity="0.5" stroke="#0000FF" stroke-opacity="0.4" stroke-linecap="round" stroke-linejoin="round"/>
<path id="7508" class="district" name="Hương Thủy" fill-rule="evenodd" clip-rule="evenodd" d="M411.379 326.25L409.661 328.829L405.363 327.969L404.504 331.407V333.126L410.52 335.703L407.082 340.861V346.018L405.363 347.736L399.346 349.455V351.174L397.627 350.314L396.768 354.612H385.594L384.735 358.049L382.155 359.768L381.296 362.346L376.139 363.206L373.56 365.784H366.685L361.527 369.221H355.511L353.791 372.659L350.353 371.8V376.097L340.039 380.394L337.461 378.676L328.006 381.253L321.129 380.394L316.832 382.972L314.254 380.394L315.113 376.097L313.393 374.378L315.973 372.659L316.832 369.221L315.113 365.784H317.691L319.41 361.487L317.691 360.627V358.908L315.113 358.049L321.129 356.331L321.989 347.736L319.41 343.439L320.27 341.72L316.832 338.282L315.973 333.986L313.393 330.548V326.25L309.955 322.813L308.237 325.39L305.658 324.531L308.237 321.954V318.515L304.799 317.656V311.64L300.501 312.499V310.781L303.079 309.062H307.377L308.237 307.343L320.27 300.468L325.427 295.311V285.857L321.989 276.404H323.707L325.427 273.825L328.006 275.544H331.443L334.022 273.825L334.882 274.685L338.32 270.387H340.039V265.231L344.337 264.372L347.775 260.074L354.651 260.933L361.527 259.214L362.386 262.652L367.544 258.355H370.982V256.636H369.263L370.122 243.745L364.106 238.588L359.808 239.448L352.931 234.291L350.353 224.837L346.056 219.681L342.617 211.945L343.477 207.649L347.775 208.509V211.086L352.931 208.509L355.511 212.805H357.23L358.089 217.103L359.808 218.822L364.106 220.541H370.982L371.841 224.837L375.28 220.541L372.701 217.103V211.086L370.982 208.509V205.071L373.56 201.632L371.841 195.617L374.421 191.319L376.139 193.038L378.718 189.6L377.858 184.444L383.015 185.304L382.155 184.444L384.735 183.585L382.155 178.428L370.122 175.85L368.403 174.131L367.544 171.553L370.982 168.974L371.841 166.396H376.999L380.437 164.678L386.454 166.396L391.61 169.834L396.768 170.693L398.487 174.991L392.47 176.709V178.428L393.329 181.006L398.487 183.585L399.346 189.6L403.643 190.46L407.082 196.476H413.098L421.694 204.211L427.711 201.632L434.587 203.351L437.166 211.086L439.744 213.665L447.48 217.103L451.777 227.416L456.935 229.135L461.232 234.291L463.811 241.167L464.671 245.463H462.951L456.075 239.448L454.357 240.307L453.496 236.869L451.777 236.01V240.307L450.058 242.886L449.199 242.026L445.761 243.745L441.463 249.761L432.008 257.495L429.43 267.808L425.133 272.966L425.992 273.825L424.273 279.841L422.553 281.56L423.413 283.279L421.694 284.138L420.834 287.576L417.397 291.873L418.256 292.732L415.678 297.03L416.537 299.608L406.223 303.045L399.346 301.326L397.627 302.186L396.768 308.202L399.346 311.64L401.065 315.937L400.206 316.796L402.784 319.375L407.942 320.234V322.813L409.661 324.531L411.379 326.25Z" fill="#D1475A" fill-opacity="0.5" stroke="#0000FF" stroke-opacity="0.4" stroke-linecap="round" stroke-linejoin="round"/>
<path id="7507" class="district" name="Hương Trà" fill-rule="evenodd" clip-rule="evenodd" d="M343.477 209.368L342.617 211.945L346.056 219.681L350.353 224.837L352.931 234.291L359.808 239.448L364.105 238.588L369.263 243.745L370.982 258.355L370.122 259.214V257.495H367.544V259.214L366.685 258.355L363.246 262.652L361.527 259.214L354.651 260.933L347.775 260.074L344.337 264.372L340.039 265.231V270.387H338.32L334.882 274.685L334.022 273.825L332.303 275.544H328.006L325.427 273.825L323.707 276.404H321.989L325.427 285.857V295.311L307.377 309.062H298.782L297.063 310.781L296.203 309.921L291.905 311.64L291.046 310.781L289.327 314.218L287.608 311.64L286.749 314.218L285.03 312.499L278.153 319.375H276.434L274.715 315.937L271.277 319.375H269.558L268.698 317.656L266.12 318.515L262.681 316.796L261.822 312.499L259.243 311.64L260.103 309.921H258.384L256.665 305.624L252.367 303.045H249.789L247.21 296.17L248.929 285.857L245.491 284.138L240.334 276.404V271.247L245.491 261.793L242.053 260.074H232.598L230.019 260.933L229.16 263.512L226.582 265.231H224.002L219.705 262.652L206.813 265.231L205.094 264.372L205.953 261.793L198.217 259.214L196.498 256.636H199.077L201.655 254.058V251.48H199.936V248.901L196.498 246.323L199.936 244.604V241.167L198.217 240.307L200.795 239.448L201.655 237.729L203.374 239.448L204.233 237.729L209.391 236.869L217.127 232.573L216.267 230.854L214.547 231.713L212.829 223.978L211.11 223.118L211.969 220.541L214.547 223.118H218.846L220.565 222.259L221.424 218.822L226.582 217.962L228.301 213.665L231.738 210.226L233.457 211.945L236.037 210.226L235.177 208.509L238.615 205.071L237.755 199.913L240.334 199.054L242.912 200.773L243.771 205.071L245.491 198.196L248.07 199.054L248.929 202.492L250.648 203.351L252.367 201.632L249.789 197.336L250.648 191.319L255.806 189.6V184.444L260.103 181.866L260.962 179.287L266.12 177.568L265.261 172.412L261.822 171.553L263.541 164.678L262.681 154.364L268.698 145.769L266.979 139.754L267.839 137.175L272.136 132.878L278.153 128.581L284.169 133.737L288.467 141.473L297.063 143.191L301.36 142.331L305.658 136.316L309.955 135.456L312.534 138.894L310.815 139.754L309.096 145.769L313.393 149.208L315.973 147.489L314.253 146.629L315.973 140.614L321.129 142.331L321.989 146.629L326.287 144.05H322.848V141.473L328.006 138.035H334.882L337.461 142.331H339.179L340.898 138.894L344.337 140.614L347.775 139.754L346.056 137.175L352.931 123.424L352.072 119.128L354.651 118.268V114.83L347.775 103.658L343.477 101.079L347.775 90.7661L378.718 109.674L384.735 124.284L383.015 127.722L377.858 129.441H374.421L367.544 126.003H364.105L361.527 127.722L358.089 133.737L352.931 137.175L349.494 141.473V144.91L352.931 150.067L351.213 155.223L352.072 162.099L342.617 169.834L348.634 163.818H345.197V162.099H346.915L346.056 159.521H347.775L346.056 156.942L343.477 156.083V154.364H336.601L335.742 156.083L334.882 154.364L333.162 156.083V162.959H331.443L328.006 156.942L327.146 159.521H325.427L323.707 165.536L330.584 167.255V169.834L328.006 171.553V173.272L318.551 179.287L320.27 184.444L325.427 185.304L326.287 188.741H324.568V190.46L329.725 188.741L330.584 190.46L321.129 193.038V197.336L324.568 200.773L340.898 205.071L343.477 207.649V209.368Z" fill="#D18847" fill-opacity="0.5" stroke="#0000FF" stroke-opacity="0.4" stroke-linecap="round" stroke-linejoin="round"/>
<path id="7506" class="district" name="A Lưới" fill-rule="evenodd" clip-rule="evenodd" d="M226.582 436.258L223.143 438.835L222.283 442.273L217.986 444.852L213.688 443.133L210.25 444.852L206.813 443.993L202.514 448.29H199.936L196.498 445.712L195.639 440.554L193.059 438.835L190.481 439.695L186.184 433.679L182.745 431.96L179.307 424.226L175.01 420.788L168.134 407.896L161.257 409.615L158.679 407.037L154.381 395.864L150.943 396.724L143.207 388.989H138.91L132.893 391.568L130.314 395.864L128.595 393.286L120.859 389.849L113.124 390.708L100.231 382.113L96.7927 376.957L89.057 373.519L87.3379 365.784L83.8998 362.346V354.612L82.1807 352.893L83.0403 348.595L80.4616 345.158L82.1807 340.861L87.3379 334.845V333.126L83.8998 331.407V329.688L86.4783 327.969V320.234L88.1974 317.656L81.3212 308.202L46.9402 284.138L45.2211 281.56L40.9235 280.7L34.0472 286.717L22.0139 284.998L20.2948 289.295H17.7162L6.54232 280.7L3.96375 275.544L5.6828 267.808L3.96375 254.918L5.6828 253.199H3.10422V251.48L0.525635 249.761L9.1209 243.745L13.4186 242.886L15.1376 244.604L18.5757 236.869L23.7328 233.431L27.171 226.556V223.118L29.7495 220.541L28.89 219.681L30.6091 217.103L27.171 215.384L22.0139 207.649L21.1543 202.492L26.3115 197.336L27.171 193.038L46.0806 192.179L55.5354 198.196L68.4283 196.476L82.1807 199.913L83.0403 200.773L80.4616 205.93L81.3212 209.368L77.8831 212.805L79.6021 216.243L78.7427 220.541L85.6188 230.854L82.1807 233.431L85.6188 237.729L95.0736 238.588L95.9332 241.167H98.5117L105.388 244.604L103.669 246.323L106.247 251.48L107.967 253.199H110.545L113.124 258.355L120 260.074L128.595 257.495L129.455 248.042L138.91 239.448L144.066 237.729L147.505 241.167L149.224 238.588H152.662L156.96 236.01L158.679 236.869L162.117 235.15L168.993 240.307L171.571 239.448L181.026 242.026L185.325 245.463L187.903 249.761L195.639 254.058L197.358 259.214L205.953 261.793L205.094 264.372L206.813 265.231L214.547 264.372L216.267 262.652L226.582 265.231L229.16 263.512L230.019 260.933L232.598 260.074H242.053L245.491 261.793L240.334 271.247V278.123L245.491 284.138L248.929 285.857L247.21 296.17L248.929 303.045H252.367L256.665 305.624L258.384 309.921H260.103L259.243 311.64L261.822 312.499L262.681 316.796L266.12 318.515L268.698 317.656L269.558 319.375H271.277L274.715 315.937L276.434 319.375H278.153L285.03 312.499L286.749 314.218L287.608 311.64L288.467 314.218L291.046 310.781H297.063L298.782 309.062L301.36 309.921L300.501 312.499L303.938 311.64L304.799 317.656L308.237 318.515V321.954L305.658 323.671L306.518 325.39H308.237L309.955 322.813L311.674 323.671V325.39L313.393 326.25V330.548L315.973 333.986L316.832 338.282L320.27 341.72L319.41 343.439L321.989 347.736L321.129 356.331L315.113 357.19L317.691 358.908L318.551 361.487L317.691 365.784H315.973L316.832 370.94L313.393 374.378L315.113 376.097L314.253 377.816L316.832 384.691L313.393 387.27L315.113 388.13L311.674 389.849V393.286H309.955V398.443H312.534V402.74L310.815 403.599V408.756H309.096L311.674 417.35L313.393 418.209L310.815 427.663L312.534 431.101L311.674 433.679L314.253 435.398V451.727H315.973L317.691 458.603L314.253 467.197L315.973 474.072L315.113 475.791L309.955 474.072L306.518 470.635L304.799 463.759L302.219 462.9L301.36 460.321L297.063 458.603H295.344L291.905 462.04H288.467L282.45 468.916L279.872 466.338H277.294L272.995 460.321L269.558 459.463L268.698 450.008L270.417 444.852L276.434 438.835H278.153L279.872 435.398L276.434 434.539L274.715 428.522L270.417 425.944H268.698V429.382L266.979 431.101L261.822 430.241L259.243 433.679H253.226L248.07 430.241L244.632 431.96L242.053 434.539L240.334 443.993H233.457L230.879 440.554L226.582 436.258Z" fill="#B7E830" fill-opacity="0.5" stroke="#0000FF" stroke-opacity="0.4" stroke-linecap="round" stroke-linejoin="round"/>
<path id="7505" class="district" name="Nam Đông" fill-rule="evenodd" clip-rule="evenodd" d="M527.416 393.285L528.275 396.724L525.697 403.599L526.557 408.756L513.663 419.928L511.085 424.226L507.647 425.944L504.209 432.82L506.787 437.976L504.209 441.414L501.63 449.148L499.911 450.867L495.614 450.008L492.175 445.712L482.72 440.554L479.282 443.992L474.985 441.414L475.845 445.712L472.406 448.289L471.546 451.727L467.249 452.586L463.81 456.884L462.091 456.025L456.075 457.744L450.058 461.181L447.48 464.619H444.902L445.761 473.213L444.042 480.089L432.867 487.823L425.133 488.683L415.678 486.104L413.958 485.245V481.808L411.379 480.948V477.51L405.363 473.213L397.627 472.353L395.909 469.776L390.751 467.197L379.577 464.619L377.858 462.9L381.296 452.586L377.858 443.992L364.966 448.289L347.775 449.148L336.601 456.025V458.603L340.898 465.478V470.634L336.601 475.791L334.882 474.932L334.022 477.51L332.303 478.37L316.832 474.072L315.973 474.932L314.253 467.197L316.832 462.9L315.973 461.181L317.691 459.462L316.832 453.446L313.393 446.571L315.113 442.273L313.393 439.695L314.253 435.398L311.674 431.96L312.534 431.101L310.815 427.663L313.393 418.209L311.674 417.35L309.096 409.615H310.815V403.599L312.534 402.739V398.443H309.955L310.815 395.005L309.096 393.285H311.674L309.955 391.566L315.113 388.13L313.393 387.27L316.832 384.691V382.972L321.129 380.394L328.006 381.253L337.461 378.676L340.039 380.394L342.617 379.536L350.353 376.097V371.8L353.791 372.659L354.651 369.221H361.527L366.685 365.784H373.56L376.139 363.206L381.296 362.346L382.155 359.768L384.735 358.049L385.594 354.612H396.768L397.627 350.314L399.346 351.174V349.455L405.363 347.736L407.082 346.017V340.861L410.52 335.703L404.504 333.126L405.363 327.969L409.661 328.829L411.379 326.25L412.239 328.829L414.818 327.109L419.975 328.829L423.413 327.109L435.447 333.986L442.322 330.548L444.042 331.407L451.777 329.688L455.216 331.407L457.794 329.688L465.53 333.986L468.109 339.142L474.126 343.439L475.845 348.595H486.159L491.315 346.876L498.192 354.612L499.051 359.768L503.349 361.487L505.069 364.925L507.647 365.784L509.366 368.363L522.258 369.221L526.557 377.816L537.73 372.659V381.253L527.416 384.691V392.426V393.285Z" fill="#49E830" fill-opacity="0.5" stroke="#0000FF" stroke-opacity="0.4" stroke-linecap="round" stroke-linejoin="round"/>
<path id="7504" class="district" name="Phong Điền" fill-rule="evenodd" clip-rule="evenodd" d="M196.498 256.636L195.639 254.058L187.903 249.761L185.324 245.463L181.026 242.026L171.571 239.448L168.993 240.307L162.116 235.15L158.679 236.869L156.96 236.01L152.662 238.588H149.224L147.505 241.167L144.066 237.729L138.91 239.448L129.455 248.042L128.595 257.495L120.859 260.074L113.124 258.355L110.545 253.199H107.967L106.247 251.48L103.669 246.323L105.388 244.604L98.5117 241.167H95.9332L95.0736 238.588L85.6188 237.729L82.1807 233.431L85.6188 230.854L78.7425 220.541L79.6021 216.243L77.883 213.665L81.3212 210.228L80.4616 205.93L83.0403 201.632L82.1807 199.913H79.6021L75.3045 197.336L68.4282 196.476L75.3045 189.6L71.0069 177.568V174.131L69.2878 173.272L68.4282 170.693L56.3949 162.099H54.6758L52.9567 164.678L49.5186 158.661V156.083L43.502 157.802L41.7829 156.942L40.9233 154.364L38.3448 155.223L36.6257 151.786L34.9066 153.505L27.171 146.629L25.4519 143.191L28.89 134.597V128.581L36.6257 131.159L38.3448 128.581L45.221 129.441L47.7996 126.003L66.7092 125.143L68.4282 120.846L67.5687 119.128L70.1473 116.549L76.164 114.83L77.883 112.252L86.4783 110.533L88.1974 111.392L96.7926 107.955L101.95 109.674L105.388 106.236L108.826 107.095L112.264 105.376H117.422L119.14 107.095H123.438L126.017 108.814L139.769 105.376L143.207 101.939L145.786 103.658L147.505 108.814L150.943 111.392L156.96 113.111L159.538 115.69L163.835 112.252H166.415V110.533L170.712 108.814L175.87 103.658L185.324 100.22L193.919 91.6256L193.059 90.7661L195.639 88.1879L191.34 80.453L184.464 77.0153L187.903 67.5615L187.043 66.7021V69.2803L185.324 70.9992L182.745 68.4209L189.622 59.8266L192.2 58.9671L193.919 65.8426L195.639 67.5615L196.498 66.7021V61.5454L189.622 52.9512H191.34L192.2 51.2322H196.498L197.358 50.3728L193.059 47.7945L199.076 44.3568L200.795 39.2002L208.531 33.1842L209.391 30.6059L214.547 28.8871V26.3087L210.25 22.871L211.969 21.1522L212.828 22.0116L222.283 6.54184L233.457 0.525818L244.631 8.2607L306.518 59.8266L301.36 69.2803L302.219 70.1398L294.485 77.8747L276.434 63.2643H267.839L268.698 56.3889L266.12 54.67H263.541L261.822 57.2483L258.384 51.2322L256.665 52.0918L257.525 53.8106L252.367 52.9512L250.648 59.8266L252.367 60.686L248.07 66.7021L244.631 68.4209L246.351 73.5775L245.491 83.8906L249.789 85.6095L248.929 87.3283L255.806 90.7661L279.872 96.7821L277.294 101.939L280.731 106.236V109.674L279.013 110.533L279.872 112.252H281.591L285.889 117.409L284.169 122.565L285.03 124.284L284.169 126.862L280.731 126.003L279.013 123.424L277.294 124.284L276.434 126.862L278.153 128.581L267.839 137.175L266.979 139.754L268.698 145.77L262.681 154.364L263.541 164.678L261.822 171.553L265.261 172.412L266.12 177.568L260.962 179.287L260.103 181.866L255.806 184.444V188.741L250.648 191.319L249.789 197.336L252.367 201.632L250.648 203.351L248.929 202.492L248.07 199.054L245.491 198.196L244.631 205.071L242.912 204.211V200.773L240.334 199.054L237.755 199.913L238.615 205.071L235.177 207.649L236.036 209.368L233.457 211.946L232.598 210.228L226.582 217.962L221.424 218.822L220.564 222.259L218.846 223.118H215.408L211.969 220.541L211.11 221.4V223.118H212.828L213.688 231.713L216.267 230.854L217.127 232.573L209.391 236.869L204.233 237.729V239.448L201.655 237.729L199.076 240.307L199.936 244.604L196.498 246.323L199.936 248.901V251.48H201.655L199.076 256.636H196.498Z" fill="#30E886" fill-opacity="0.5" stroke="#0000FF" stroke-opacity="0.4" stroke-linecap="round" stroke-linejoin="round"/>
<path id="7503" class="district" name="Phú Lộc" fill-rule="evenodd" clip-rule="evenodd" d="M673.536 367.503L670.097 365.784L669.238 366.644L656.345 364.925L652.047 368.363L640.014 360.627L625.402 358.049L621.963 355.471L619.385 351.174L612.509 348.595L609.071 345.158L603.054 350.314L602.194 352.893L596.178 358.908L588.442 361.487L580.706 358.049H574.69L564.376 349.455L560.937 344.299L558.359 346.017L556.64 345.158L555.781 347.736L550.623 351.174L547.185 350.314L546.326 354.612H542.887L537.73 357.19L538.59 362.346L533.433 364.925L537.73 372.659L526.557 378.676V376.097L523.978 375.238L524.838 372.659L522.258 370.94V369.221L509.366 368.363L507.647 365.784L505.069 364.925L503.349 361.487L499.911 360.627L498.192 354.612L491.315 346.876L486.159 348.595H475.845L474.126 343.439L468.109 339.142L465.53 333.986L457.794 329.688L455.216 331.407L451.777 329.688L444.042 331.407L442.322 330.548L438.025 333.986H435.447L423.413 327.109L419.975 328.829L414.818 327.109L413.098 328.829L407.942 323.671V321.094L401.925 318.515L396.768 308.202V304.764L399.346 301.326L401.925 303.045H406.223L416.537 299.608L415.678 297.889L418.256 293.592L417.397 291.873L420.834 287.576L421.694 284.138L423.413 283.279L422.553 281.56L424.273 279.841L425.992 273.825L425.133 272.966L429.43 267.808L432.008 257.495L436.306 254.918L445.761 243.745L449.199 242.026L450.058 242.886L451.777 240.307V236.01L453.496 236.869L454.357 240.307L456.075 239.448L458.654 242.886L462.951 245.463L469.827 246.323L475.845 249.761L477.563 253.199L487.878 249.761L505.069 267.808L511.085 271.247L518.821 263.512V254.058L513.664 251.48L507.647 236.869L504.209 233.431L499.911 232.573L497.333 227.416H495.614L498.192 224.837L497.333 222.259H499.911L500.77 220.541L506.787 218.822L512.803 221.399L515.383 224.837L520.539 216.243L554.921 246.323L555.781 245.463L565.235 253.199H567.814L578.128 260.933H581.566L582.425 258.355L587.583 260.933L588.442 265.231L593.6 271.247L597.038 274.685L603.914 278.122L621.963 280.7L628.84 276.404L632.278 272.106L628.84 268.668H627.121L626.262 264.372L627.981 261.793L629.699 260.933L633.998 266.091H637.435L641.733 278.981V280.7L639.154 281.56L672.675 337.423L674.395 335.704L676.114 338.282L682.991 342.58L684.71 341.72L685.569 343.439H687.288V345.158L690.726 346.876L694.165 344.299L695.024 345.158L698.462 343.439L705.338 346.017L707.917 340.861L721.669 348.595L729.405 346.876L730.264 344.299L738 348.595L726.826 351.174L723.389 353.752L714.793 350.314L713.934 354.612L710.495 353.752L706.198 355.471L701.04 360.627L690.726 366.644L685.569 365.784L682.13 363.206H678.693L674.395 365.784L673.536 367.503Z" fill="#30DCE8" fill-opacity="0.5" stroke="#0000FF" stroke-opacity="0.4" stroke-linecap="round" stroke-linejoin="round"/>
<path id="7502" class="district" name="Phú Vang" fill-rule="evenodd" clip-rule="evenodd" d="M511.085 271.247L505.069 267.808L487.878 249.761L477.563 253.199L475.845 249.761L469.827 246.323H465.53L461.232 234.291L456.935 229.135L451.777 227.416L447.48 217.103L439.744 213.665L437.166 211.086L434.587 203.351L427.711 201.632L421.694 204.211L413.098 196.476H407.082L403.643 190.46H400.206L398.487 183.585L393.329 181.006L392.47 178.428V176.709L397.627 174.991L398.487 173.272L396.768 170.693L391.61 169.834L386.454 166.396L380.437 164.678L376.999 166.396H371.841L369.263 169.834L361.527 166.396L360.667 162.099L358.089 159.521L355.511 162.099H352.072L351.213 155.223L352.931 150.067L349.494 144.91V141.473L351.213 138.894L358.089 133.737L361.527 127.722L364.105 126.003L370.982 126.862L374.421 129.441L383.015 127.722L384.735 124.284L378.718 109.674L382.155 112.252L399.346 119.128L434.587 143.191L468.968 169.834L520.539 216.243L515.383 224.837L512.803 221.4L506.787 218.822L497.333 222.259L498.192 224.837L495.614 227.416H497.333L499.911 232.573L504.209 233.431L507.647 236.869L513.664 251.48L518.821 254.058V263.512L511.085 271.247Z" fill="#306EE8" fill-opacity="0.5" stroke="#0000FF" stroke-opacity="0.4" stroke-linecap="round" stroke-linejoin="round"/>
<path id="7501" class="district" name="Quảng Điền" fill-rule="evenodd" clip-rule="evenodd" d="M331.443 137.175L322.848 141.473V144.05H326.287L322.848 146.629L321.129 142.331L315.973 140.614L314.253 144.05V146.629H315.973L313.393 149.208L309.096 145.769L310.815 139.754L312.534 138.894L310.815 135.456L305.658 136.316L301.36 142.331L297.063 143.191L288.467 141.473L284.169 133.737L276.434 126.862V125.143L279.013 123.424L280.731 126.003L284.169 126.862L285.889 117.409L284.169 116.549L283.31 113.111L279.013 111.392L280.731 109.674V106.236L277.294 101.939L279.872 96.7821L255.806 90.7661L248.929 87.3283L249.789 85.6095L245.491 83.8906L246.351 73.5774L244.632 68.4209L248.07 66.702L252.367 60.686L250.648 59.8266L252.367 52.9512L257.525 53.8106L256.665 52.0916L258.384 51.2322L261.822 57.2483L263.541 54.67H266.12L268.698 56.3889L267.839 63.2643H276.434L294.485 77.8747L302.219 70.1397L301.36 69.2803L306.518 59.8266L347.775 90.7661L343.477 101.079L347.775 103.658L354.651 114.83V117.409L352.072 119.128L352.931 123.424L346.056 137.175L347.775 138.894L344.337 140.614L340.898 138.894L340.039 141.473L337.461 142.331L334.882 138.035L331.443 137.175Z" fill="#6130E8" fill-opacity="0.5" stroke="#0000FF" stroke-opacity="0.4" stroke-linecap="round" stroke-linejoin="round"/>
</g>
</svg>
