<svg width="457" height="469" viewBox="0 0 457 469" fill="none" xmlns="http://www.w3.org/2000/svg">
<g id="76" name="Quảng Ngãi">
<path id="7614" class="district" name="TP Quảng Ngãi" fill-rule="evenodd" clip-rule="evenodd" d="M292.287 174.065H286.791L282.669 176.812L277.173 171.318H274.425V174.065L266.181 172.691L263.433 169.944L266.181 168.571L264.807 160.329L273.051 156.209V152.088L275.799 150.715H273.051L274.425 149.341L270.303 145.221L271.677 143.847L268.929 131.485L271.677 128.738L275.799 132.859L279.921 130.112V134.232L286.791 136.979V131.485L284.043 130.112L285.417 125.991L295.035 127.365L296.409 120.497H308.775L311.523 113.629L317.019 109.509L318.393 104.015L322.515 102.641L326.637 110.882L330.759 108.135H341.751V121.871L340.377 117.75L334.881 120.497L330.759 127.365L333.507 147.968L332.133 158.956L336.255 176.812H333.507L330.759 169.944L332.133 164.45L323.889 171.318L314.271 169.944L311.523 174.065L292.287 172.691L293.661 174.065H292.287Z" fill="#D147AC" fill-opacity="0.5" stroke="#0000FF" stroke-opacity="0.4" stroke-linecap="round" stroke-linejoin="round"/>
<path id="7613" class="district" name="Ba Tơ" fill-rule="evenodd" clip-rule="evenodd" d="M266.181 395.203L263.433 399.324L266.181 406.191L267.555 421.3L264.807 422.674L266.181 430.915L263.433 435.035H255.189L249.693 437.782L238.702 430.915L237.328 425.421L234.58 426.794L233.206 433.662L229.084 436.409L223.588 433.662L219.466 443.276L205.726 450.144L204.352 459.759L200.23 457.012L190.612 468L186.49 466.626L185.116 462.506L180.994 459.759V450.144L171.376 447.397L161.758 439.156L159.01 440.529L150.766 430.915L146.644 419.926L137.026 422.674L135.652 419.926L128.782 421.3L124.66 418.553L126.034 408.938L130.156 407.565L139.774 389.709V386.962L135.652 385.588L131.53 380.094L135.652 378.721V375.974L142.522 369.106L146.644 360.865V352.624L142.522 343.009L135.652 340.262L131.53 327.9L135.652 325.153H149.392L156.262 321.032L160.384 322.406L163.132 327.9L182.368 325.153L175.498 310.044L193.36 297.682L204.352 282.574L212.596 278.453H218.092L219.466 282.574L227.71 286.694H235.954L237.328 283.947L238.702 285.321L242.824 282.574H252.441L255.189 286.694L259.311 283.947L266.181 290.815V293.562H273.051L277.173 297.682L275.799 299.056L279.921 301.803L281.295 300.429L285.417 304.55L292.287 301.803V305.924L297.783 310.044L300.531 315.538L296.409 323.779L303.279 325.153L307.401 330.647L311.523 323.779L322.515 332.021L340.377 337.515L341.751 340.262L351.369 341.635L352.743 345.756L349.995 352.624L366.483 363.612L369.231 367.732L367.857 373.226L373.353 385.588L370.605 393.829L363.735 388.335L360.987 391.082L358.239 386.962H355.491L349.995 381.468L348.621 382.841V380.094L337.629 385.588L336.255 388.335L329.385 389.709L315.645 384.215L310.149 385.588L308.775 389.709L304.653 384.215L296.409 393.829L295.035 392.456L289.539 396.576H274.425L270.303 392.456L267.555 395.203H266.181Z" fill="#D1475A" fill-opacity="0.5" stroke="#0000FF" stroke-opacity="0.4" stroke-linecap="round" stroke-linejoin="round"/>
<g id="7612" class="district" name="Bình Sơn">
<path fill-rule="evenodd" clip-rule="evenodd" d="M201.604 101.268L202.978 99.8941L200.23 97.147V93.0265L205.726 90.2794H197.482L186.49 75.1706L182.368 71.05L180.994 72.4235L176.872 69.6765L175.498 66.9294L172.75 54.5676L176.872 47.7L179.62 44.9529L185.116 46.3265L186.49 42.2059L198.856 39.4588L204.352 36.7118V33.9647H215.344L219.466 36.7118L222.214 33.9647L226.336 35.3382L234.58 31.2176H244.198L253.815 18.8559L260.685 22.9765L271.677 25.7235L273.051 21.6029L278.547 22.9765L286.791 18.8559L288.165 14.7353L282.669 11.9882L284.043 5.12057L282.669 6.4941L289.539 11.9882L293.661 7.86763L297.783 9.24116L295.035 14.7353L297.783 17.4823L296.409 18.8559H299.157L300.531 21.6029L297.783 28.4706L301.905 36.7118L312.897 46.3265L317.019 42.2059H319.767L315.645 49.0735L319.767 54.5676H325.263V57.3147L318.393 71.05L334.881 94.4L343.125 98.5206L347.247 95.7735L351.369 97.147L355.491 104.015L347.247 116.376L344.499 113.629L343.125 115.003L340.377 112.256L341.751 109.509L337.629 108.135H330.759L328.011 110.882L322.515 102.641L318.393 104.015L308.775 120.497L303.279 121.871L299.157 119.124L295.035 121.871L292.287 120.497V117.75L299.157 109.509V101.268H285.417V104.015L274.425 106.762L273.051 110.882L268.929 109.509L267.555 101.268L270.303 98.5206L267.555 97.147L268.929 95.7735L266.181 93.0265L264.807 95.7735L263.433 94.4L259.311 84.7853L253.815 90.2794V97.147H245.572L241.45 93.0265L233.206 91.6529L230.458 93.0265V95.7735H227.71L229.084 97.147H224.962L223.588 99.8941L213.97 98.5206L204.352 102.641L201.604 101.268Z" fill="#D18847" fill-opacity="0.5"/>
<path d="M349.995 93.0265V94.4M270.303 22.9765V21.6029M201.604 101.268L202.978 99.8941L200.23 97.147V93.0265L205.726 90.2794H197.482L186.49 75.1706L182.368 71.05L180.994 72.4235L176.872 69.6765L175.498 66.9294L172.75 54.5676L176.872 47.7L179.62 44.9529L185.116 46.3265L186.49 42.2059L198.856 39.4588L204.352 36.7118V33.9647H215.344L219.466 36.7118L222.214 33.9647L226.336 35.3382L234.58 31.2176H244.198L253.815 18.8559L260.685 22.9765L271.677 25.7235L273.051 21.6029L278.547 22.9765L286.791 18.8559L288.165 14.7353L282.669 11.9882L284.043 5.12057L282.669 6.4941L289.539 11.9882L293.661 7.86763L297.783 9.24116L295.035 14.7353L297.783 17.4823L296.409 18.8559H299.157L300.531 21.6029L297.783 28.4706L301.905 36.7118L312.897 46.3265L317.019 42.2059H319.767L315.645 49.0735L319.767 54.5676H325.263V57.3147L318.393 71.05L334.881 94.4L343.125 98.5206L347.247 95.7735L351.369 97.147L355.491 104.015L347.247 116.376L344.499 113.629L343.125 115.003L340.377 112.256L341.751 109.509L337.629 108.135H330.759L328.011 110.882L322.515 102.641L318.393 104.015L308.775 120.497L303.279 121.871L299.157 119.124L295.035 121.871L292.287 120.497V117.75L299.157 109.509V101.268H285.417V104.015L274.425 106.762L273.051 110.882L268.929 109.509L267.555 101.268L270.303 98.5206L267.555 97.147L268.929 95.7735L266.181 93.0265L264.807 95.7735L263.433 94.4L259.311 84.7853L253.815 90.2794V97.147H245.572L241.45 93.0265L233.206 91.6529L230.458 93.0265V95.7735H227.71L229.084 97.147H224.962L223.588 99.8941L213.97 98.5206L204.352 102.641L201.604 101.268Z" stroke="#0000FF" stroke-opacity="0.4" stroke-linecap="round" stroke-linejoin="round"/>
</g>
<path id="7611" class="district" name="Đức Phổ" fill-rule="evenodd" clip-rule="evenodd" d="M417.321 402.071L415.947 406.191L421.443 422.674L418.695 424.047L420.069 430.915L425.565 441.903H421.443L415.947 436.409L414.573 437.782L411.825 432.288L406.329 428.168V417.179L402.207 408.938H399.459L391.215 397.95H385.719L381.597 393.829L373.353 396.576L370.605 395.203V389.709L373.353 385.588L367.857 373.226L369.231 367.732L363.735 360.865L359.613 358.118L358.239 359.491L349.995 352.624L352.743 345.756L351.369 341.635L322.515 332.021L311.523 323.779L307.401 330.647L303.279 325.153L296.409 323.779L300.531 315.538L297.783 310.044L292.287 305.924V299.056L299.157 296.309V289.441L295.035 285.321L299.157 283.947L300.531 281.2H312.897L319.767 283.947L325.263 282.574L333.507 286.694H344.499L348.621 282.574L352.743 285.321L354.117 282.574L348.621 272.959L359.613 270.212L358.239 268.838L362.361 267.465L398.085 341.635L422.817 377.347L421.443 384.215L425.565 392.456V397.95L418.695 396.576L417.321 399.324V402.071Z" fill="#B7E830" fill-opacity="0.5" stroke="#0000FF" stroke-opacity="0.4" stroke-linecap="round" stroke-linejoin="round"/>
<path id="7610" class="district" name="Ly Sơn" fill-rule="evenodd" clip-rule="evenodd" d="M425.565 1L426.939 3.74706H422.817V1H425.565ZM439.305 21.6029L455.793 24.35L454.419 29.8441L443.427 33.9647L433.809 29.8441L432.435 31.2176L431.061 25.7235L433.809 22.9765L439.305 21.6029Z" fill="#49E830" fill-opacity="0.5" stroke="#0000FF" stroke-opacity="0.4" stroke-linecap="round" stroke-linejoin="round"/>
<path id="7609" class="district" name="Minh Long" fill-rule="evenodd" clip-rule="evenodd" d="M215.344 278.453L204.352 282.574L196.108 294.935L186.49 303.177L180.994 297.682L179.62 285.321L172.75 277.079V272.959L187.864 263.344L190.612 259.224L187.864 255.103L189.238 246.862L200.23 234.5L201.604 230.379L207.1 227.632L211.222 229.006L212.596 226.259L208.474 213.897L205.726 212.524L211.222 215.271L218.092 213.897L219.466 209.777L222.214 207.029H226.336L230.458 201.535L235.954 205.656L237.328 209.777H240.076L241.45 215.271L245.571 219.391L249.693 216.644H256.563L260.685 226.259L259.311 230.379H267.555L270.303 234.5H263.433L257.937 237.247V241.368L263.433 244.115L260.685 249.609L262.059 250.982L253.815 253.729L246.945 260.597L248.319 270.212L245.571 274.332V279.827L241.45 283.947H237.328L235.954 286.694H224.962L223.588 283.947L219.466 282.574L218.092 278.453H215.344Z" fill="#30E886" fill-opacity="0.5" stroke="#0000FF" stroke-opacity="0.4" stroke-linecap="round" stroke-linejoin="round"/>
<path id="7608" class="district" name="Mộ Đức" fill-rule="evenodd" clip-rule="evenodd" d="M352.743 245.488L362.361 267.465L358.239 268.838L359.613 270.212L348.621 271.585L354.117 282.574L352.743 285.321L348.621 282.574L344.499 286.694H329.385L325.263 282.574L319.767 283.947L300.531 279.826L299.157 283.947L295.035 285.321L296.409 282.574L293.661 279.826L286.791 278.453L281.295 272.959V256.476L285.417 250.982L295.035 246.862V244.115L300.531 246.862L307.401 245.488V238.621L311.523 233.126L306.027 230.379L303.279 226.259L304.653 222.138L300.531 216.644L308.775 213.897V207.029L311.523 201.535H319.767L322.515 196.041L328.011 193.294V179.559H330.759L332.133 176.812H336.255L334.881 180.932L340.377 205.656L349.995 234.5L352.743 245.488Z" fill="#30DCE8" fill-opacity="0.5" stroke="#0000FF" stroke-opacity="0.4" stroke-linecap="round" stroke-linejoin="round"/>
<path id="7607" class="district" name="Nghĩa hành" fill-rule="evenodd" clip-rule="evenodd" d="M292.287 301.803L289.539 304.55H285.417L281.295 300.429H275.799L277.173 297.682L273.051 293.562H266.181V290.815L259.311 283.947L256.563 286.694L252.441 283.947L242.824 282.574L245.571 279.826V274.332L248.319 270.212L246.945 260.597L255.189 252.356L262.059 250.982L260.685 249.609L263.433 245.488L257.937 241.368V238.621L263.433 234.5H270.303L267.555 230.379H259.311L260.685 226.259L256.563 218.018L249.693 216.644L244.198 219.391L242.824 215.271L240.076 213.897V209.776L235.954 208.403V205.656L230.458 201.535L227.71 196.041L237.328 185.053L246.945 179.559L253.815 186.426L264.807 182.306L266.181 183.679L268.929 180.932H266.181L267.555 179.559H281.295L278.547 191.921H285.417L288.165 196.041L293.661 194.668L297.783 205.656L293.661 207.029L290.913 211.15L299.157 213.897L306.027 208.403L304.653 213.897L307.401 215.271L301.905 216.644V219.391L304.653 222.138L303.279 224.885L306.027 230.379L311.523 233.126L307.401 245.488L300.531 246.862L295.035 244.115L293.661 248.235H289.539L281.295 255.103V272.959L288.165 279.826L295.035 281.2V285.321L299.157 289.441V294.935L293.661 297.682L292.287 301.803Z" fill="#306EE8" fill-opacity="0.5" stroke="#0000FF" stroke-opacity="0.4" stroke-linecap="round" stroke-linejoin="round"/>
<path id="7606" class="district" name="Sơn Hà" fill-rule="evenodd" clip-rule="evenodd" d="M175.498 310.044L182.368 325.153H174.124L167.254 327.9H163.132L160.384 322.406L156.262 321.032L149.392 325.153H135.652L112.294 333.394L110.92 327.9H104.05L98.5538 323.779L97.1798 319.659H87.5618L84.8138 316.912H87.5618L86.1878 314.165L93.0578 310.044L97.1798 303.176L105.424 301.803L108.172 290.815L110.92 289.441V283.947H119.164L117.79 281.2L121.912 274.332L120.538 268.838L124.66 267.465L120.538 264.718V261.971L124.66 256.476L121.912 252.356L119.164 255.103L116.416 253.729V256.476L110.92 255.103L106.798 246.862L99.9278 250.982V244.115L97.1798 237.247L93.0578 234.5L90.3098 220.765L91.6838 218.018L87.5618 211.15H84.8138L77.9438 202.909L69.6999 198.788L62.8299 197.415L57.3339 200.162L51.8379 197.415L47.7159 191.921H44.9679L46.3419 189.174L43.5939 187.8L46.3419 185.053L50.4639 186.426L53.2119 182.306L62.8299 180.932L61.4559 178.185L65.5779 174.065L88.9358 183.679L99.9278 172.691L108.172 171.318L110.92 168.571L116.416 171.318L121.912 168.571L128.782 171.318L132.904 169.944L135.652 164.45L145.27 165.824V158.956L152.14 157.582L167.254 142.474L178.246 152.088V156.209L202.978 164.45L204.352 172.691L208.474 175.438L207.1 178.185L212.596 187.8V191.921L204.352 201.535L207.1 207.029L205.726 212.524L208.474 213.897L212.596 226.259L211.222 229.006L208.474 227.632L201.604 230.379L193.36 244.115L189.238 246.862L187.864 253.729L190.612 257.85L187.864 261.971L179.62 270.212L172.75 272.959L179.62 285.321L180.994 296.309L186.49 303.176L178.246 308.671L175.498 310.044Z" fill="#6130E8" fill-opacity="0.5" stroke="#0000FF" stroke-opacity="0.4" stroke-linecap="round" stroke-linejoin="round"/>
<path id="7605" class="district" name="Sơn Tây" fill-rule="evenodd" clip-rule="evenodd" d="M120.538 268.838L117.79 279.826L119.164 282.574L110.92 283.947V289.441L105.424 301.803H97.1798L93.0578 310.044L86.1878 312.791L87.5618 315.538L84.8138 316.912L80.6918 314.165L71.0739 303.176L65.5779 286.694H58.7079V279.826L53.2119 277.079L49.0899 271.585L43.5939 270.212L44.9679 261.971L40.8459 259.224V255.103L33.9759 248.235L27.1059 245.488L24.358 237.247L16.114 230.379V226.259L10.618 222.138V215.271L7.86999 212.524L9.24398 211.15L2.374 208.403L5.12199 204.282L2.374 201.535L5.12199 191.921L1 185.053L11.992 178.185L13.366 164.45L27.1059 169.944L36.7239 178.185L38.0979 183.679L43.5939 186.426L46.3419 189.174L44.9679 191.921H47.7159L51.8379 197.415L57.3339 200.162L62.8299 197.415L69.6999 198.788L75.1958 201.535L80.6918 208.403L87.5618 211.15L91.6838 216.644L90.3098 226.259L93.0578 234.5L97.1798 237.247L99.9278 249.609H104.05L106.798 246.862L112.294 256.476H116.416V253.729L117.79 255.103L121.912 252.356L124.66 255.103L120.538 261.971V264.718L124.66 267.465L120.538 268.838Z" fill="#D030E8" fill-opacity="0.5" stroke="#0000FF" stroke-opacity="0.4" stroke-linecap="round" stroke-linejoin="round"/>
<path id="7604" class="district" name="Sơn Tịnh" fill-rule="evenodd" clip-rule="evenodd" d="M194.734 143.847L190.612 152.088L191.986 160.329L178.246 156.209V152.088L172.75 147.968L171.376 143.847L185.116 136.979L180.994 124.618L183.742 117.75L190.612 115.003L191.986 102.641L198.856 99.8941L204.352 102.641L216.718 97.1471L223.588 99.8941L224.962 97.1471H229.084L227.71 95.7735H230.458L233.206 91.653L241.449 93.0265L245.571 97.1471H253.815V88.9059H256.563L259.311 84.7853L263.433 94.4L264.807 95.7735L266.181 93.0265L270.303 97.1471L267.555 101.268L268.929 109.509L273.051 110.882L274.425 106.762L285.417 104.015V101.268H299.157V109.509L292.287 117.75L296.409 125.991L284.043 127.365L288.165 135.606H282.669L279.921 134.232V131.485L275.799 132.859L271.677 128.738L268.929 131.485L271.677 142.474L270.303 143.847L271.677 147.968H274.425V154.835L268.929 158.956L263.433 152.088L240.075 145.221L226.336 147.968L223.588 153.462L218.092 154.835L204.352 139.726L200.23 141.1L194.734 143.847Z" fill="#E83092" fill-opacity="0.5" stroke="#0000FF" stroke-opacity="0.4" stroke-linecap="round" stroke-linejoin="round"/>
<path id="7603" class="district" name="Tây Trà" fill-rule="evenodd" clip-rule="evenodd" d="M13.366 164.45L22.984 154.835L25.7319 145.221L31.2279 138.353L36.7239 135.606L33.9759 131.485L35.3499 124.618H29.8539V121.871L38.0979 110.882L36.7239 108.135L32.6019 106.762L27.1059 108.135L28.4799 105.388L24.358 99.8941L35.3499 91.6529L36.7239 86.1588L33.9759 80.6647L36.7239 75.1706L44.9679 68.3029L64.2039 72.4235L66.9519 80.6647L69.6999 82.0382L66.9519 83.4118L68.3259 90.2794L65.5779 95.7735L72.4478 101.268H77.9438L79.3178 108.135L84.8138 115.003L87.5618 113.629L91.6838 116.376L95.8058 113.629L97.1798 116.376H105.424L115.042 121.871L119.164 119.124V116.376L127.408 120.497L123.286 134.232L124.66 138.353L117.79 142.474L119.164 146.594L115.042 156.209L112.294 157.582V167.197L99.9278 171.318V174.065L88.9358 183.679L65.5779 172.691L61.4559 176.812L62.8299 179.559L60.0819 182.306L53.2119 180.932L50.4639 186.426H42.2199L38.0979 183.679L36.7239 178.185L28.4799 169.944L24.358 167.197H17.488L13.366 164.45Z" fill="#E83D30" fill-opacity="0.5" stroke="#0000FF" stroke-opacity="0.4" stroke-linecap="round" stroke-linejoin="round"/>
<path id="7602" class="district" name="Trà Bồng" fill-rule="evenodd" clip-rule="evenodd" d="M134.278 168.571L128.782 171.318L121.912 167.197L119.164 171.318L110.92 168.571L113.668 161.703L112.294 157.582L119.164 146.594L117.79 142.474L124.66 138.353L123.286 134.232L127.408 121.871L124.66 117.75L119.164 116.376L116.416 121.871L106.798 116.376H98.5538L97.1798 113.629H94.4318L93.0578 116.376L87.5618 113.629L84.8138 115.003L79.3178 108.135L77.9438 101.268H72.4479L64.2039 95.7735L68.3259 90.2794L66.9519 83.4118H69.6999L64.2039 73.7971L72.4479 68.3029H77.9438L80.6918 71.05L84.8138 69.6765V65.5559L91.6838 61.4353H97.1798L98.5538 55.9412H101.302L102.676 62.8088H123.286V65.5559L131.53 61.4353L132.904 57.3147L137.026 55.9412L141.148 58.6882H146.644L156.262 50.4471L164.506 51.8206L171.376 46.3265H175.498L176.872 47.7L172.75 57.3147L178.246 71.05L186.49 73.7971L194.734 84.7853L196.108 90.2794H204.352L200.23 97.1471L202.978 99.8941L191.986 101.268V112.256L185.116 117.75L180.994 124.618L185.116 135.606L182.368 138.353L172.75 143.847L168.628 142.474L152.14 157.582L145.27 158.956V165.824L135.652 164.45L134.278 168.571Z" fill="#D147AC" fill-opacity="0.5" stroke="#0000FF" stroke-opacity="0.4" stroke-linecap="round" stroke-linejoin="round"/>
<path id="7601" class="district" name="Tư Nghĩa" fill-rule="evenodd" clip-rule="evenodd" d="M230.458 201.535L216.718 213.897L212.596 215.271L205.726 211.15L207.1 207.029L204.352 201.535L208.474 198.788V194.668L212.596 191.921V189.174L202.978 165.824L196.108 160.329L190.612 158.956L191.986 146.594L194.734 143.847L204.352 139.727L218.092 154.835L223.588 153.462L226.336 147.968L234.58 145.221L263.433 152.088L267.555 158.956L264.807 160.329L263.433 164.45L266.181 168.571L263.433 169.944L266.181 172.691L274.425 174.065V171.318H277.173L282.669 176.812L295.035 172.691L311.523 174.065L315.645 169.944L323.889 171.318L332.133 163.076L330.759 169.944L333.507 172.691V176.812L328.011 179.559L330.759 182.306L328.011 183.679L329.385 193.294L323.889 194.668L319.767 201.535H312.897L308.775 205.656L310.149 209.776L307.401 215.271L306.027 208.403L299.157 213.897L290.913 211.15V208.403L297.783 205.656L293.661 194.668L288.165 196.041L285.417 191.921H279.921L278.547 185.053L281.295 178.185L274.425 180.932L273.051 178.185L266.181 182.306H262.059L260.685 185.053L253.815 186.426L246.946 179.559L237.328 185.053L230.458 191.921V194.668L227.71 196.041L230.458 200.162V201.535Z" fill="#D1475A" fill-opacity="0.5" stroke="#0000FF" stroke-opacity="0.4" stroke-linecap="round" stroke-linejoin="round"/>
</g>
</svg>
