<svg width="305" height="472" viewBox="0 0 305 472" fill="none" xmlns="http://www.w3.org/2000/svg">
<g id="77" name="Bình Định">
<g id="7711" class="district" name="TP Quy Nhơn">
<path fill-rule="evenodd" clip-rule="evenodd" d="M292.139 433.395L296.452 439.865L300.765 442.021L299.687 445.256L297.53 443.1H294.295L291.06 433.395H292.139ZM256.555 415.064L257.633 412.907L258.712 416.142H256.555V415.064ZM252.242 412.907L253.32 413.986H251.164L252.242 412.907ZM219.893 416.142L217.737 433.395L214.502 435.552L210.189 431.238L205.875 430.16L204.797 433.395L208.032 439.865H205.875L203.719 444.178L197.249 439.865L196.171 433.395L199.406 423.69L195.093 419.377L196.171 413.986L192.936 409.673L197.249 402.125L201.562 397.811H203.719V393.498L201.562 391.342L203.719 383.794H205.875L204.797 384.872L208.032 389.185L211.267 384.872L210.189 369.776L219.893 366.541V364.384L225.285 363.306L226.363 360.071L228.52 361.149L227.441 355.758L232.833 360.071H236.068V362.228L239.302 360.071L243.616 362.228L245.772 358.993L252.242 361.149L257.633 346.053L255.477 340.662V328.801H258.712L259.79 325.566H261.947L270.573 332.036L273.808 327.722L272.73 330.957L274.886 332.036V335.27L272.73 337.427V346.053L275.964 350.367V354.68L270.573 363.306V367.619L273.808 375.167L271.651 385.95L268.416 381.637L258.712 383.794L254.399 378.402L247.929 380.559L242.537 388.107L244.694 393.498L243.616 401.046L245.772 402.125L244.694 404.281L246.851 410.751L250.085 412.907V418.299L243.616 415.064H239.302L238.224 410.751L236.068 409.673H232.833L229.598 413.986H224.206L223.128 416.142H220.972H219.893ZM274.886 380.559L275.964 381.637L273.808 380.559L274.886 379.48V380.559Z" fill="#D147AC" fill-opacity="0.5"/>
<path d="M304 450.648L302.922 449.569M252.242 419.377V420.456M277.043 335.27L278.121 333.114M275.964 349.288V350.367M275.964 350.367L272.73 346.053V337.427L274.886 335.27V332.036L272.73 330.957L273.808 327.722L270.573 332.036L261.947 325.566H259.79L258.712 328.801H255.477V340.662L257.633 346.053L252.242 361.149L245.772 358.993L243.616 362.228L239.302 360.071L236.068 362.228V360.071H232.833L227.441 355.758L228.52 361.149L226.363 360.071L225.285 363.306L219.893 364.384V366.541L210.189 369.776L211.267 384.872L208.032 389.185L204.797 384.872L205.875 383.794H203.719L201.562 391.342L203.719 393.498V397.811H201.562L197.249 402.125L192.936 409.673L196.171 413.986L195.093 419.377L199.406 423.69L196.171 433.395L197.249 439.865L203.719 444.178L205.875 439.865H208.032L204.797 433.395L205.875 430.16L210.189 431.238L214.502 435.552L217.737 433.395L219.893 416.142H220.972H223.128L224.206 413.986H229.598L232.833 409.673H236.068L238.224 410.751L239.302 415.064H243.616L250.085 418.299V412.907L246.851 410.751L244.694 404.281L245.772 402.125L243.616 401.046L244.694 393.498L242.537 388.107L247.929 380.559L254.399 378.402L258.712 383.794L268.416 381.637L271.651 385.95L273.808 375.167L270.573 367.619V363.306L275.964 354.68V350.367ZM277.043 333.114L278.121 334.192M274.886 378.402H273.808M292.139 433.395L296.452 439.865L300.765 442.021L299.687 445.256L297.53 443.1H294.295L291.06 433.395H292.139ZM256.555 415.064L257.633 412.907L258.712 416.142H256.555V415.064ZM252.242 412.907L253.32 413.986H251.164L252.242 412.907ZM274.886 380.559L275.964 381.637L273.808 380.559L274.886 379.48V380.559Z" stroke="#0000FF" stroke-opacity="0.4" stroke-linecap="round" stroke-linejoin="round"/>
</g>
<path id="7710" class="district" name="An Nhơn" fill-rule="evenodd" clip-rule="evenodd" d="M149.804 370.854L147.648 365.463L142.256 363.306L139.021 355.758L145.491 358.993L147.648 356.836L149.804 357.915L154.117 355.758V353.601L159.509 349.288H161.665L163.822 333.114L160.587 332.036V327.722L156.274 323.409L159.509 324.488L169.214 316.94V313.705H167.057L168.135 302.922L165.979 300.765L171.37 301.843L178.918 311.548L181.075 310.47L182.153 307.235L185.388 309.391L186.466 304L190.779 305.078L194.014 301.843H196.171L198.327 307.235H204.797L208.032 310.47H211.267V308.313H219.893L218.815 306.157L222.05 305.078L225.285 308.313L226.363 307.235V314.783H229.598L231.754 316.94L230.676 319.096L228.52 318.018V320.174L219.893 318.018L216.658 319.096L217.737 321.253L214.502 323.409L205.875 324.488V326.644H208.032L205.875 330.957L209.11 332.036L208.032 336.349L211.267 337.427L208.032 342.819L199.406 351.445L200.484 354.68H196.171L192.936 356.836L188.623 355.758L185.388 358.993L186.466 363.306L185.388 367.619L182.153 368.698L183.231 369.776L179.996 371.932L173.527 369.776L170.292 373.011L169.214 375.167L171.37 378.402L168.135 383.794L162.744 385.95L159.509 382.715L157.352 375.167L151.961 373.011L149.804 370.854Z" fill="#D1475A" fill-opacity="0.5" stroke="#0000FF" stroke-opacity="0.4" stroke-linecap="round" stroke-linejoin="round"/>
<path id="7709" class="district" name="An Lão" fill-rule="evenodd" clip-rule="evenodd" d="M22.5658 107.751H18.2527L16.0961 103.438L18.2527 93.7331L13.9395 86.1851L15.0178 80.7936L12.8612 76.4804L15.0178 73.2456L12.8612 71.089L11.7829 63.5409L13.9395 62.4626L17.1744 64.6192V57.0712L30.1139 50.6014L32.2705 44.1317L35.5053 46.2883L39.8185 45.21L41.9751 37.6619L44.1317 41.9751L51.6797 45.21L52.758 47.3666L64.6192 44.1317V36.5836L66.7758 32.2705L63.5409 17.1744L67.8541 11.7829L72.1673 15.0178H85.1068L90.4982 11.7829L94.8114 5.31317L99.1245 9.62634L100.203 6.39146L103.438 5.31317L108.829 6.39146V8.54804L115.299 9.62634L126.082 5.31317L130.395 1V4.23488L131.473 3.15658L139.021 7.46975L140.1 9.62634L145.491 10.7046L147.648 12.8612L143.335 20.4093L140.1 21.4875V36.5836L137.943 39.8185L139.021 44.1317L136.865 46.2883V49.5231L134.708 50.6014L136.865 52.758L133.63 55.9929L134.708 66.7758L127.16 74.3238L129.317 75.4021L122.847 77.5587L115.299 75.4021L109.907 81.8719L106.673 82.9502L110.986 84.0285L115.299 88.3416L113.142 93.7331L114.221 94.8114L105.594 95.8897L104.516 88.3416L102.359 86.1851L100.203 87.2634V91.5765H94.8114V89.4199L91.5765 86.1851L88.3416 89.4199L86.185 88.3416L84.0285 94.8114L79.7153 90.4982L75.4021 91.5765L73.2455 87.2634L70.0107 90.4982V95.8897L73.2455 102.359L74.3238 110.986L72.1673 119.612L74.3238 127.16L72.1673 135.786L68.9324 137.943V134.708L65.6975 135.786L63.5409 132.552L64.6192 130.395L58.1495 128.238L57.0712 125.004L49.5231 126.082V116.377L45.21 112.064L43.0534 114.221L35.5053 110.986L32.2705 103.438L27.9573 107.751L26.879 106.673L22.5658 107.751Z" fill="#D18847" fill-opacity="0.5" stroke="#0000FF" stroke-opacity="0.4" stroke-linecap="round" stroke-linejoin="round"/>
<path id="7708" class="district" name="Hoài Ân" fill-rule="evenodd" clip-rule="evenodd" d="M103.438 227.441L102.359 224.206L94.8114 219.893L95.8897 213.423L92.6548 212.345L88.3416 206.954V204.797H90.4982L89.4199 198.327L85.1068 192.936L87.2633 189.701L84.0285 188.623V182.153L81.8719 178.918L82.9502 170.292L79.7153 162.744L81.8719 155.196L77.5587 150.883L76.4804 146.569L71.089 144.413L68.9324 137.943L72.1673 135.786L74.3238 127.16L72.1673 122.847L74.3238 115.299V102.359L70.0107 95.8897V91.5765L73.2455 87.2633L75.4021 91.5765L79.7153 90.4982L82.9502 94.8114L85.1068 93.7331L86.185 88.3416L89.4199 89.4199L91.5765 86.1851L94.8114 89.4199V91.5765H100.203L101.281 86.1851L104.516 87.2633L105.594 95.8897L113.142 94.8114L115.299 88.3416L110.986 84.0285H106.673L107.751 81.8719H109.907L115.299 75.4021L122.847 77.5587L129.317 75.4021L127.16 74.3238L131.473 70.0107L132.552 71.089L134.708 64.6192L137.943 63.5409L140.1 67.8541L142.256 66.7758V72.1673L140.1 79.7153L136.865 82.9502L140.1 88.3416L144.413 87.2633L147.648 91.5765L148.726 90.4982L151.961 96.968L147.648 100.203L145.491 107.751L149.804 113.142H154.117L157.352 115.299L155.196 116.377L159.509 119.612L150.883 122.847V125.004H148.726L147.648 127.16L154.117 129.317L157.352 134.708L160.587 133.63L165.979 136.865L170.292 147.648V150.883L165.979 153.039L163.822 156.274L165.979 163.822L163.822 168.135L168.135 177.84L167.057 181.075L163.822 182.153L161.665 187.544L150.883 189.701L146.569 198.327H142.256L139.021 196.171L135.786 200.484H133.63L134.708 202.641L131.473 205.875L118.534 208.032V212.345L116.377 213.423L113.142 223.128L108.829 218.815L106.673 220.972L108.829 224.206L106.673 228.52L104.516 227.441H103.438Z" fill="#B7E830" fill-opacity="0.5" stroke="#0000FF" stroke-opacity="0.4" stroke-linecap="round" stroke-linejoin="round"/>
<g id="7707" class="district" name="Hoài Nhơn">
<path fill-rule="evenodd" clip-rule="evenodd" d="M194.014 121.769L190.779 125.004L191.858 130.395L188.623 132.552L187.544 135.786L181.075 140.1L176.762 137.943L174.605 141.178L171.37 142.256H168.135L165.979 136.865L161.665 135.786L160.587 133.63L157.352 134.708L154.117 129.317L147.648 127.16V125.004H149.804L150.883 122.847L159.509 119.612L155.196 117.456L157.352 116.377L148.726 112.064L145.491 107.751L147.648 100.203L150.883 96.968V92.6548L148.726 90.4982L147.648 91.5765L144.413 87.2633L139.021 88.3416L136.865 82.9502L140.1 79.7153L142.256 66.7758L141.178 67.8541L139.021 66.7758L137.943 63.5409H134.708L133.63 55.9929L136.865 52.758L134.708 50.6014L136.865 49.5231V46.2883L139.021 44.1317L137.943 39.8185L140.1 36.5836V21.4875L143.335 20.4092L147.648 15.0178L156.274 12.8612L159.509 16.0961H164.9V19.331H167.057L175.683 30.1139V39.8185L179.996 43.0534L182.153 47.3665L183.231 46.2883L190.779 51.6797H186.466L185.388 52.758L184.31 54.9146L186.466 65.6975L205.875 103.438L206.954 106.673L204.797 108.829L203.719 116.377L208.032 125.004L204.797 128.238H201.562L195.093 123.925L194.014 121.769Z" fill="#49E830" fill-opacity="0.5"/>
<path d="M185.388 52.758L186.466 51.6797H190.779L183.231 46.2883L182.153 47.3665L179.996 43.0534L175.683 39.8185V30.1139L167.057 19.331H164.9V16.0961H159.509L156.274 12.8612L147.648 15.0178L143.335 20.4092L140.1 21.4875V36.5836L137.943 39.8185L139.021 44.1317L136.865 46.2883V49.5231L134.708 50.6014L136.865 52.758L133.63 55.9929L134.708 63.5409H137.943L139.021 66.7758L141.178 67.8541L142.256 66.7758L140.1 79.7153L136.865 82.9502L139.021 88.3416L144.413 87.2633L147.648 91.5765L148.726 90.4982L150.883 92.6548V96.968L147.648 100.203L145.491 107.751L148.726 112.064L157.352 116.377L155.196 117.456L159.509 119.612L150.883 122.847L149.804 125.004H147.648V127.16L154.117 129.317L157.352 134.708L160.587 133.63L161.665 135.786L165.979 136.865L168.135 142.256H171.37L174.605 141.178L176.762 137.943L181.075 140.1L187.544 135.786L188.623 132.552L191.858 130.395L190.779 125.004L194.014 121.769L195.093 123.925L201.562 128.238H204.797L208.032 125.004L203.719 116.377L204.797 108.829L206.954 106.673L205.875 103.438L186.466 65.6975L184.31 54.9146L185.388 52.758ZM185.388 52.758H188.623" stroke="#0000FF" stroke-opacity="0.4" stroke-linecap="round" stroke-linejoin="round"/>
</g>
<g id="7706" class="district" name="Phù Cát">
<path fill-rule="evenodd" clip-rule="evenodd" d="M256.555 315.861L261.947 325.566L252.242 324.488L250.085 321.253V316.94H244.694V314.783L241.459 318.018L234.989 315.861V313.705L227.441 310.47L228.52 309.391L222.05 305.078L214.502 309.391L211.267 308.313V310.47H206.954L204.797 308.313L199.406 307.235L195.093 301.843L188.623 305.078L186.466 304L185.388 309.391L183.231 307.235L178.918 310.47L173.527 302.922L167.057 300.765L165.979 301.843L163.822 298.609L167.057 294.295V289.982L170.292 287.826L167.057 286.747L165.979 283.512L162.744 281.356H158.431L156.274 283.512L155.196 281.356L151.961 280.278H144.413L141.178 278.121L140.1 274.886L134.708 271.651H130.395L128.238 273.808L127.16 272.73L120.69 255.477L117.456 252.242L115.299 240.381L118.534 238.224V233.911L117.456 231.754L108.829 232.833V230.676H106.673L108.829 224.206L106.673 220.972L108.829 218.815L113.142 223.128L118.534 212.345V208.032L131.473 205.875L134.708 202.641L133.63 200.484H135.786L137.943 196.171L141.178 198.327H146.569L144.413 211.267L149.804 214.502L154.117 220.972L151.961 224.206L154.117 231.754L157.352 236.068L156.274 237.146L159.509 244.694L158.431 245.772L163.822 247.929L162.744 251.164H165.979L168.135 253.32V251.164L174.605 249.007L175.683 246.851V249.007L179.996 247.929L182.153 250.085L190.779 247.929L194.014 240.381L197.249 241.459L198.327 238.224H200.484L203.719 233.911L210.189 234.989L216.658 232.833L217.737 230.676L215.58 228.52L219.893 227.441L223.128 223.128H227.441L230.676 231.754L240.381 234.989L238.224 240.381L242.537 252.242L255.477 275.964L257.633 277.043L255.477 282.434L258.712 291.06L255.477 293.217L257.633 299.687H259.79L257.633 302.922L256.555 301.843L253.32 304L254.399 311.548L256.555 315.861Z" fill="#30E886" fill-opacity="0.5"/>
<path d="M256.555 302.922H255.477M256.555 315.861L261.947 325.566L252.242 324.488L250.085 321.253V316.94H244.694V314.783L241.459 318.018L234.989 315.861V313.705L227.441 310.47L228.52 309.391L222.05 305.078L214.502 309.391L211.267 308.313V310.47H206.954L204.797 308.313L199.406 307.235L195.093 301.843L188.623 305.078L186.466 304L185.388 309.391L183.231 307.235L178.918 310.47L173.527 302.922L167.057 300.765L165.979 301.843L163.822 298.609L167.057 294.295V289.982L170.292 287.826L167.057 286.747L165.979 283.512L162.744 281.356H158.431L156.274 283.512L155.196 281.356L151.961 280.278H144.413L141.178 278.121L140.1 274.886L134.708 271.651H130.395L128.238 273.808L127.16 272.73L120.69 255.477L117.456 252.242L115.299 240.381L118.534 238.224V233.911L117.456 231.754L108.829 232.833V230.676H106.673L108.829 224.206L106.673 220.972L108.829 218.815L113.142 223.128L118.534 212.345V208.032L131.473 205.875L134.708 202.641L133.63 200.484H135.786L137.943 196.171L141.178 198.327H146.569L144.413 211.267L149.804 214.502L154.117 220.972L151.961 224.206L154.117 231.754L157.352 236.068L156.274 237.146L159.509 244.694L158.431 245.772L163.822 247.929L162.744 251.164H165.979L168.135 253.32V251.164L174.605 249.007L175.683 246.851V249.007L179.996 247.929L182.153 250.085L190.779 247.929L194.014 240.381L197.249 241.459L198.327 238.224H200.484L203.719 233.911L210.189 234.989L216.658 232.833L217.737 230.676L215.58 228.52L219.893 227.441L223.128 223.128H227.441L230.676 231.754L240.381 234.989L238.224 240.381L242.537 252.242L255.477 275.964L257.633 277.043L255.477 282.434L258.712 291.06L255.477 293.217L257.633 299.687H259.79L257.633 302.922L256.555 301.843L253.32 304L254.399 311.548L256.555 315.861Z" stroke="#0000FF" stroke-opacity="0.4" stroke-linecap="round" stroke-linejoin="round"/>
</g>
<g id="7705" class="district" name="Phù Mỹ">
<path fill-rule="evenodd" clip-rule="evenodd" d="M227.441 223.128H223.128L219.893 227.441H217.737L215.58 229.598L216.658 232.833L208.032 234.989L203.719 233.911L200.484 238.224L199.406 237.146L197.249 240.381H194.014L190.779 247.929L183.231 250.085L177.84 246.851L176.762 249.007L175.683 246.851L174.605 249.007L172.448 247.929L168.135 250.085V253.32L162.744 250.085L163.822 247.929L158.431 245.772L159.509 244.694L156.274 237.146L157.352 236.068L154.117 231.754L151.961 224.206L154.117 222.05L150.883 214.502L144.413 211.267L146.569 196.171L149.804 194.014V190.779L161.665 187.544L163.822 182.153L167.057 181.075L168.135 175.683L163.822 168.135L165.979 163.822L163.822 156.274L165.979 153.039L170.292 150.883L168.135 142.256L174.605 141.178L176.762 139.021L179.996 140.1L187.544 135.786V132.552L191.858 130.395L190.779 125.004L194.014 121.769L201.562 128.238L208.032 126.082L205.875 129.317V135.786L216.658 154.117L230.676 172.448L228.52 174.605L236.068 190.779L233.911 194.014L230.676 192.936L229.598 196.171L231.754 208.032L244.694 229.598L247.929 230.676L244.694 234.989L230.676 231.754L227.441 223.128Z" fill="#30DCE8" fill-opacity="0.5"/>
<path d="M272.73 230.676H273.808M240.381 184.31V183.231M237.146 191.858H236.068M240.381 186.466V185.388M227.441 223.128H223.128L219.893 227.441H217.737L215.58 229.598L216.658 232.833L208.032 234.989L203.719 233.911L200.484 238.224L199.406 237.146L197.249 240.381H194.014L190.779 247.929L183.231 250.085L177.84 246.851L176.762 249.007L175.683 246.851L174.605 249.007L172.448 247.929L168.135 250.085V253.32L162.744 250.085L163.822 247.929L158.431 245.772L159.509 244.694L156.274 237.146L157.352 236.068L154.117 231.754L151.961 224.206L154.117 222.05L150.883 214.502L144.413 211.267L146.569 196.171L149.804 194.014V190.779L161.665 187.544L163.822 182.153L167.057 181.075L168.135 175.683L163.822 168.135L165.979 163.822L163.822 156.274L165.979 153.039L170.292 150.883L168.135 142.256L174.605 141.178L176.762 139.021L179.996 140.1L187.544 135.786V132.552L191.858 130.395L190.779 125.004L194.014 121.769L201.562 128.238L208.032 126.082L205.875 129.317V135.786L216.658 154.117L230.676 172.448L228.52 174.605L236.068 190.779L233.911 194.014L230.676 192.936L229.598 196.171L231.754 208.032L244.694 229.598L247.929 230.676L244.694 234.989L230.676 231.754L227.441 223.128Z" stroke="#0000FF" stroke-opacity="0.4" stroke-linecap="round" stroke-linejoin="round"/>
</g>
<path id="7704" class="district" name="Tây Sơn" fill-rule="evenodd" clip-rule="evenodd" d="M108.829 363.306L106.673 369.776H104.516L100.203 379.48L95.8897 380.559L92.6548 385.95L89.4199 378.402L90.4982 369.776H88.3416L87.2633 366.541L79.7153 364.384L77.5587 358.993L78.637 352.523L76.4804 350.367L78.637 348.21L76.4804 344.975L72.1673 343.897L64.6192 332.036L65.6975 329.879L62.4626 326.644H60.306L57.0712 322.331L59.2278 320.174V307.235L62.4626 306.157L61.3843 295.374L65.6975 288.904L61.3843 282.434V268.416L68.9324 266.26L73.2456 268.416L77.5587 277.043L82.9502 275.964L85.1068 273.808L87.2633 280.278L89.4199 275.964L92.6548 279.199L104.516 277.043L106.673 269.495L104.516 263.025L105.594 261.947L102.359 260.868L101.281 257.633L104.516 256.555V253.32L100.203 250.085L104.516 247.929L102.359 238.224L110.986 231.754H117.456L119.612 238.224L115.299 240.381L117.456 251.164L120.69 255.477L127.16 272.73L128.238 273.808L132.552 270.573L140.1 274.886L141.178 278.121L144.413 280.278H151.961L155.196 281.356L156.274 283.512L158.431 281.356H161.665L165.979 283.512L167.057 286.747L170.292 287.826L163.822 298.609L168.135 302.922L167.057 313.705H169.214V315.861L165.979 319.096L167.057 320.174L159.509 324.488L156.274 323.409L160.587 326.644V332.036L163.822 333.114V338.505L161.665 341.74V349.288L156.274 351.445L154.117 353.601L155.196 355.758L143.335 358.993L137.943 354.68L132.552 355.758L120.69 353.601V351.445L118.534 354.68V358.993L114.221 361.149L113.142 360.071L110.986 363.306H108.829Z" fill="#306EE8" fill-opacity="0.5" stroke="#0000FF" stroke-opacity="0.4" stroke-linecap="round" stroke-linejoin="round"/>
<path id="7703" class="district" name="Tuy Phước" fill-rule="evenodd" clip-rule="evenodd" d="M211.267 384.872L209.11 389.185L204.797 384.872L205.875 383.794H203.719L201.562 388.107L200.484 385.95L198.327 387.028L194.014 383.794L184.31 384.872L179.996 373.011L181.075 370.854H183.231L182.153 368.697L185.388 367.619V358.993L188.623 355.758L192.936 356.836L199.406 354.68V351.445L205.875 346.053L211.267 338.505L209.11 336.349V332.036H205.875V328.801H208.032V326.644H205.875L206.954 323.409H216.658L218.815 321.253L216.658 320.174L219.893 318.018H224.206L227.441 320.174L228.52 318.018L230.676 319.096L231.754 315.861L227.441 313.705L226.363 314.783L227.441 311.548L234.989 313.705V315.861L241.459 318.018L244.694 314.783V316.939L246.851 314.783L250.085 318.018L249.007 321.253L252.242 324.488L259.79 325.566L258.712 328.801H255.477L254.399 330.957L257.633 346.053L252.242 361.149L246.851 358.993L244.694 362.228H242.537L241.459 360.071L237.146 362.228L227.441 355.758L228.52 360.071H226.363L225.285 363.306L219.893 364.384V366.541L210.189 369.776L211.267 384.872Z" fill="#6130E8" fill-opacity="0.5" stroke="#0000FF" stroke-opacity="0.4" stroke-linecap="round" stroke-linejoin="round"/>
<path id="7702" class="district" name="Vân Canh" fill-rule="evenodd" clip-rule="evenodd" d="M137.943 477.605L132.552 474.37L131.473 475.448L127.16 471.135H116.377L114.221 473.292L106.673 474.37V468.979L102.359 466.822L99.1246 460.352L100.203 453.883L98.0463 449.569L94.8114 447.413L95.8897 444.178L87.2633 423.69L88.3416 419.377L85.1068 408.594L91.5765 406.438L92.6548 403.203L90.4982 398.89L92.6548 395.655L93.7331 383.794L100.203 379.48L102.359 373.011L106.673 369.776L108.829 363.306H110.986L113.142 360.071H118.534L120.69 351.445V353.601L131.473 355.758L137.943 354.68L142.256 363.306L146.569 365.463L151.961 373.011L157.352 374.089L158.431 380.559L161.665 385.95L169.214 382.715L171.37 378.402L169.214 375.167L171.37 370.854L176.762 369.776L177.84 371.932H179.996L183.231 384.872L194.014 383.794L198.327 387.028L200.484 385.95L203.719 393.498V397.811L197.249 401.046L194.014 409.673L196.171 412.907L195.093 419.377L199.406 423.69L196.171 433.395L197.249 439.865L203.719 444.178L204.797 446.335L202.641 449.569L204.797 453.883L201.562 452.804L197.249 454.961V457.117L195.093 459.274H190.779V461.431L178.918 460.352L168.135 476.527L157.352 478.683V480.84L142.256 481.918L137.943 477.605Z" fill="#D030E8" fill-opacity="0.5" stroke="#0000FF" stroke-opacity="0.4" stroke-linecap="round" stroke-linejoin="round"/>
<path id="7701" class="district" name="Vĩnh Thạnh" fill-rule="evenodd" clip-rule="evenodd" d="M105.594 277.043L96.968 279.199H92.6548L89.4199 277.043L87.2633 280.278L85.1068 273.808L77.5587 278.121L75.4021 273.808L76.4804 272.73L72.1673 267.338H61.3843L53.8363 265.181L48.4448 259.79L46.2883 249.007L33.3488 232.833V228.52L31.1922 225.285L32.2705 222.05L29.0356 220.972L27.9573 218.815V216.658L31.1922 213.423L30.1139 212.345L33.3488 209.11L32.2705 203.719L30.1139 201.562L31.1922 195.093H29.0356V192.936L26.879 191.858V184.31L22.5658 181.075L24.7224 172.448L19.331 165.979V157.352L15.0178 148.726V145.491L10.7046 142.256L15.0178 134.708L10.7046 130.395L11.7829 129.317L6.39146 118.534L8.54804 117.456L5.31317 114.221L6.39146 108.829L1 100.203L13.9395 105.594L16.0961 103.438L20.4093 107.751H27.9573L32.2705 103.438L35.5053 110.986H37.6619L38.7402 113.142L43.0534 114.221L45.21 112.064L48.4448 114.221V126.082L57.0712 125.004L58.1495 128.238H63.5409V132.552L65.6975 134.708H68.9324L71.089 144.413L76.4804 146.569L77.5587 150.883L81.8719 155.196L79.7153 162.744L81.8719 177.84L84.0285 181.075V188.623L86.1851 189.701L85.1068 195.093L89.4199 198.327V202.641L91.5765 204.797H88.3416V206.954L95.8897 213.423V220.972L106.673 228.52V230.676H108.829L107.751 234.989L103.438 238.224L104.516 247.929L100.203 250.085L104.516 255.477L101.281 257.633L102.359 260.868L105.594 261.947V273.808V277.043Z" fill="#E83092" fill-opacity="0.5" stroke="#0000FF" stroke-opacity="0.4" stroke-linecap="round" stroke-linejoin="round"/>
</g>
</svg>
