<svg width="357" height="460" viewBox="0 0 357 460" fill="none" xmlns="http://www.w3.org/2000/svg">
<g id="78" name="Phú Yên">
<path id="7809" class="district" name="Tuy Hòa" fill-rule="evenodd" clip-rule="evenodd" d="M302.812 292.852L306.523 297.798L299.101 306.455L297.864 312.638L292.916 316.348L287.969 305.218L289.206 302.745L286.732 300.272V290.378L284.258 291.615L281.784 289.142V285.432L278.073 282.958V280.485L271.888 279.249V276.775H259.519L258.282 273.065L247.15 269.355L245.913 263.172H240.965L238.491 258.225L228.596 250.805L231.07 248.332L229.833 245.859L233.544 243.385L240.965 247.095L243.439 250.805H254.571L258.282 249.569L259.519 242.149H261.993V244.622L266.941 242.149L273.125 244.622L278.073 238.439L281.784 243.385L280.547 250.805L284.258 263.172L297.864 281.722L300.338 287.905L302.812 292.852Z" fill="#D147AC" fill-opacity="0.5" stroke="#0000FF" stroke-opacity="0.4" stroke-linecap="round" stroke-linejoin="round"/>
<g id="7808" class="district" name="Sông Cầu">
<path fill-rule="evenodd" clip-rule="evenodd" d="M261.993 114.773L263.23 111.063V113.536L261.993 114.773ZM271.888 112.299V108.589L273.125 111.063L271.888 112.299ZM253.334 154.346L238.491 151.873L233.544 155.583L231.07 154.346V149.399H224.885L228.596 140.743L227.359 135.796L218.7 130.849H212.516L210.042 128.376L211.279 127.139L205.094 123.429V119.719L200.146 112.299L190.251 107.353L191.488 103.643L196.436 102.406L202.62 97.4595L203.857 88.8029L193.962 72.7263V70.253L197.672 69.0163L201.383 59.123V38.0998L206.331 35.6265L202.62 25.7332L206.331 24.4965L213.753 30.6798L217.463 29.4432V18.3132L219.937 12.1299L218.7 9.65662L223.648 8.41996L224.885 5.94664H231.07L234.78 1L240.965 2.23666L243.439 8.41996L247.15 7.1833L254.571 12.1299L252.098 14.6033L254.571 18.3132L250.861 25.7332L263.23 47.9931L273.125 56.6497L283.021 57.8864V60.3597L280.547 59.123L279.31 62.833L276.836 65.3063L275.599 64.0697V67.7796L273.125 70.253L275.599 76.4363L276.836 75.1996L284.258 80.1462V87.5662L283.021 85.0929L279.31 87.5662L278.073 91.2762L283.021 103.643L286.732 107.353L292.916 106.116L294.153 103.643L297.864 104.879L296.627 108.589L295.39 107.353L291.679 109.826L292.916 116.009L289.206 119.719V130.849L286.732 129.613V132.086L285.495 130.849L284.258 134.559H281.784L280.547 129.613L270.652 130.849L268.178 129.613L269.415 127.139L265.704 124.666L268.178 120.956L271.888 122.193L276.836 116.009L280.547 114.773V111.063L276.836 107.353L275.599 108.589L269.415 99.9328L263.23 98.6961L260.756 93.7495L253.334 97.4595L252.098 99.9328L254.571 103.643L250.861 108.589L249.624 118.483L253.334 123.429H257.045L253.334 125.903L252.098 124.666L250.861 128.376H248.387L249.624 130.849L253.334 132.086L252.098 137.033L248.387 139.506L250.861 141.979L257.045 140.743L259.519 143.216V148.163L263.23 155.583H254.571L253.334 154.346Z" fill="#D1475A" fill-opacity="0.5"/>
<path d="M260.756 138.269L258.282 139.506M280.547 130.849L279.31 129.613M268.178 130.849V129.613M268.178 129.613L270.652 130.849L280.547 129.613L281.784 134.559H284.258L285.495 130.849L286.732 132.086V129.613L289.206 130.849V119.719L292.916 116.009L291.679 109.826L295.39 107.353L296.627 108.589L297.864 104.879L294.153 103.643L292.916 106.116L286.732 107.353L283.021 103.643L278.073 91.2762L279.31 87.5662L283.021 85.0929L284.258 87.5662V80.1462L276.836 75.1996L275.599 76.4363L273.125 70.253L275.599 67.7796V64.0697L276.836 65.3063M268.178 129.613L269.415 127.139L265.704 124.666L268.178 120.956L271.888 122.193L276.836 116.009L280.547 114.773V111.063L276.836 107.353L275.599 108.589L269.415 99.9328L263.23 98.6961L260.756 93.7495L253.334 97.4595L252.098 99.9328L254.571 103.643L250.861 108.589L249.624 118.483L253.334 123.429H257.045L253.334 125.903L252.098 124.666L250.861 128.376H248.387L249.624 130.849L253.334 132.086L252.098 137.033L248.387 139.506L250.861 141.979L257.045 140.743L259.519 143.216V148.163L263.23 155.583H254.571L253.334 154.346L238.491 151.873L233.544 155.583L231.07 154.346V149.399H224.885L228.596 140.743L227.359 135.796L218.7 130.849H212.516L210.042 128.376L211.279 127.139L205.094 123.429V119.719L200.146 112.299L190.251 107.353L191.488 103.643L196.436 102.406L202.62 97.4595L203.857 88.8029L193.962 72.7263V70.253L197.672 69.0163L201.383 59.123V38.0998L206.331 35.6265L202.62 25.7332L206.331 24.4965L213.753 30.6798L217.463 29.4432V18.3132L219.937 12.1299L218.7 9.65662L223.648 8.41996L224.885 5.94664H231.07L234.78 1L240.965 2.23666L243.439 8.41996L247.15 7.1833L254.571 12.1299L252.098 14.6033L254.571 18.3132L250.861 25.7332L263.23 47.9931L273.125 56.6497L283.021 57.8864V60.3597L280.547 59.123L279.31 62.833L276.836 65.3063M252.098 129.613V128.376M284.258 59.123H283.021M276.836 64.0697V65.3063M266.941 106.116V104.879M261.993 114.773L263.23 111.063V113.536L261.993 114.773ZM271.888 112.299V108.589L273.125 111.063L271.888 112.299Z" stroke="#0000FF" stroke-opacity="0.4" stroke-linecap="round" stroke-linejoin="round"/>
</g>
<path id="7807" class="district" name="Đông Hòa" fill-rule="evenodd" clip-rule="evenodd" d="M326.314 401.678L325.077 402.915L327.551 400.441L326.314 401.678ZM297.864 391.785V378.181L290.442 374.471L291.679 370.761L286.732 365.815L284.258 354.685L287.969 349.738L286.732 347.265H284.258L276.836 350.975L271.888 339.845V331.188L274.362 326.242L273.125 321.295L281.784 317.585L275.599 297.798L278.073 294.088H281.784L285.495 290.378L292.916 316.348L297.864 312.638L299.101 307.692L306.523 297.798L321.366 322.532L333.735 338.608L343.631 347.265L342.394 350.975L348.578 359.631L353.526 362.105L352.289 368.288L356 369.525L353.526 373.235L356 375.708L352.289 378.181L353.526 385.601L343.631 389.311L341.157 393.021L338.683 391.785L346.105 381.891V376.945L337.446 379.418L338.683 380.655L334.972 383.128H330.024L328.787 389.311L323.84 394.258L313.944 383.128L302.812 393.021L297.864 391.785Z" fill="#D18847" fill-opacity="0.5" stroke="#0000FF" stroke-opacity="0.4" stroke-linecap="round" stroke-linejoin="round"/>
<path id="7806" class="district" name="Đồng Xuân" fill-rule="evenodd" clip-rule="evenodd" d="M156.854 202.576L154.38 191.446L142.01 170.422L124.693 174.132L120.983 177.842L101.192 164.239L98.7178 159.292L99.9547 155.583L91.2962 148.163L81.4007 150.636L67.7944 144.453L61.6097 137.033V120.956L59.1359 116.009L54.1881 112.299L56.662 103.643H54.1881V106.116L49.2404 104.879L33.1603 111.063L25.7387 107.353H19.554L20.7909 104.879L15.8432 97.4595L20.7909 82.6196L28.2125 77.6729V72.7263L31.9233 65.3063H34.3972L35.6341 60.3597L44.2927 62.833L46.7665 57.8864L49.2404 59.123L54.1881 54.1764L65.3205 55.413L71.5052 61.5963H78.9268L81.4007 59.123L85.1115 66.543L90.0592 69.0163V75.1996L113.561 71.4896L130.878 83.8562L146.958 82.6196L159.328 77.6729L164.275 73.9629V71.4896L172.934 59.123L186.54 60.3597V57.8864H191.488L193.962 52.9397L197.672 50.4664L201.383 51.7031V59.123L197.672 69.0163L193.962 70.253V72.7263L202.62 85.0929V97.4595L196.436 102.406L191.488 103.643L190.251 107.353L202.62 116.009L205.094 123.429L211.279 127.139V130.849H218.7L227.359 135.796L224.885 149.399H231.07V154.346L234.78 161.766H232.307L227.359 171.659H229.833L226.122 174.132L222.411 171.659L216.226 172.896V175.369L208.805 172.896H200.146L196.436 176.606V193.919L198.909 201.339L191.488 207.522L177.882 206.286L174.171 211.232H167.986L165.512 207.522L156.854 202.576Z" fill="#B7E830" fill-opacity="0.5" stroke="#0000FF" stroke-opacity="0.4" stroke-linecap="round" stroke-linejoin="round"/>
<path id="7805" class="district" name="Phú Hòa" fill-rule="evenodd" clip-rule="evenodd" d="M203.857 322.532L201.383 320.058L200.146 307.692L192.725 310.165L189.014 306.455L187.777 297.798L184.066 294.088L187.777 289.142V285.432H190.251L193.962 280.485L196.436 281.722L200.146 271.829L198.909 261.935H208.805L212.516 254.515H214.99L218.7 250.805L221.174 255.752H228.596V250.805L238.491 258.225L239.728 263.172L244.676 261.935L247.15 269.355L249.624 268.119L258.282 273.065L259.519 276.775H266.941L268.178 279.249L270.652 276.775L276.836 279.249L278.073 284.195H281.784V289.142L284.258 291.615L281.784 294.088H278.073L275.599 300.272L261.993 308.928L259.519 313.875L252.098 312.638L240.965 317.585H231.07L229.833 321.295L221.174 326.242L219.937 329.952L217.463 328.715L216.226 325.005L207.568 323.768L203.857 322.532Z" fill="#49E830" fill-opacity="0.5" stroke="#0000FF" stroke-opacity="0.4" stroke-linecap="round" stroke-linejoin="round"/>
<path id="7804" class="district" name="Sơn Hòa" fill-rule="evenodd" clip-rule="evenodd" d="M135.826 305.218L124.693 299.035L118.509 292.852L117.272 289.142H114.798L109.85 297.798L113.561 307.692L101.192 315.112H91.2961L66.5575 294.088L61.6097 279.249H54.1881L49.2404 276.775L41.8188 278.012L39.3449 274.302L40.5818 269.355L45.5296 266.882L40.5818 263.172L41.8188 259.462L44.2926 260.699L49.2404 258.225V254.515L52.9512 256.989L55.425 254.515V256.989L57.8989 252.042H60.3728V254.515L65.3205 248.332L69.0313 250.805L71.5052 245.859H77.6899L76.4529 244.622L78.9268 242.149V238.439H81.4007L80.1637 234.729L83.8745 232.255L80.1637 228.545L82.6376 223.599L81.4007 222.362L85.1115 218.652H87.5853L91.2961 205.049V192.682L88.8223 188.972L86.3484 190.209L82.6376 186.499L71.5052 164.239L62.8467 156.819L64.0836 155.582L61.6097 153.109L60.3728 141.979L62.8467 140.743L61.6097 137.033L67.7944 144.453L83.8745 151.873L91.2961 148.163L95.0069 153.109L99.9547 155.582V163.002L117.272 176.606L120.983 177.842L124.693 174.132L142.01 170.422L154.38 191.446L156.854 197.629L155.617 201.339L165.512 207.522L167.986 211.232H174.171L177.881 206.286L191.488 207.522L198.909 216.179L201.383 222.362H203.857V224.835L206.331 226.072L218.7 250.805L216.226 254.515L212.516 255.752L210.042 261.935H198.909L200.146 271.829L196.435 281.722L195.199 280.485L187.777 284.195V287.905L184.066 294.088L187.777 297.798L186.54 300.272H182.829L181.592 305.218L176.645 310.165L160.564 307.692L153.143 301.508H150.669L143.247 311.402L139.537 310.165L135.826 305.218Z" fill="#30E886" fill-opacity="0.5" stroke="#0000FF" stroke-opacity="0.4" stroke-linecap="round" stroke-linejoin="round"/>
<path id="7803" class="district" name="Sông Hinh" fill-rule="evenodd" clip-rule="evenodd" d="M197.672 427.648L189.014 433.831L190.251 437.541L187.777 441.251L181.592 440.014L180.355 436.304H177.882L175.408 440.014H166.749V442.488L163.038 444.961L160.564 443.724L154.38 448.671L158.091 449.908L144.484 458.564L146.958 451.144L143.247 448.671L142.01 441.251L145.721 432.594L142.01 427.648L143.247 422.701L135.826 418.991L138.3 416.518L135.826 414.044V406.624L122.22 411.571L111.087 409.098L108.613 410.334L106.139 407.861L98.7178 406.624H90.0592L81.4007 397.968L80.1638 388.075H76.453V385.601L64.0836 379.418L57.899 383.128L54.1881 381.891L51.7143 371.998L46.7665 368.288L45.5296 360.868L41.8188 358.395L38.108 347.265L30.6864 346.028L28.2125 343.555H22.0279L23.2648 344.791L18.3171 347.265L19.554 348.501H15.8432L14.6063 346.028L17.0801 338.608L10.8955 334.898V331.188L3.47387 329.952L1 325.005L5.94773 322.532L10.8955 313.875H20.7909L39.3449 306.455L35.6341 279.248L39.3449 275.539L44.2927 278.012L49.2404 276.775L54.1881 279.248H61.6098L66.5575 294.088L91.2962 315.112H101.192L113.561 307.692L109.85 300.272L113.561 289.142H116.035L124.693 299.035L135.826 305.218L139.537 310.165L143.247 311.402L150.669 301.508H153.143L160.564 307.692L175.408 310.165L171.697 311.402L167.986 316.348L170.46 318.822L169.223 322.532H166.749V328.715L160.564 337.372L163.038 344.791L159.328 350.975V362.105L156.854 367.051H154.38L151.906 369.525L153.143 370.761L149.432 373.235V381.891H155.617L163.038 385.601L164.275 388.075L166.749 386.838L170.46 390.548L179.118 386.838H181.592V390.548L185.303 391.785L190.251 389.311L193.962 393.021L190.251 397.968L192.725 410.334L198.909 416.518L201.383 415.281L197.672 426.411V427.648Z" fill="#30DCE8" fill-opacity="0.5" stroke="#0000FF" stroke-opacity="0.4" stroke-linecap="round" stroke-linejoin="round"/>
<path id="7802" class="district" name="Tây Hòa" fill-rule="evenodd" clip-rule="evenodd" d="M187.777 389.311L186.54 391.785H184.066L181.592 390.548V386.838H179.118L170.46 390.548L166.749 386.838L164.275 388.075V385.601L155.617 381.891L151.906 383.128L149.432 380.655V374.471L153.143 370.761L151.906 369.525L154.38 367.051L155.617 368.288L159.328 362.105V352.211L163.038 344.791L160.564 337.372L166.749 329.952L165.512 325.005L169.223 322.532L170.46 318.822L167.986 316.348L170.46 312.638L177.882 308.928L182.829 301.508L187.777 300.272L191.488 310.165L200.146 307.692V315.112L203.857 322.532L216.226 325.005L217.463 328.715L221.174 329.952V326.242L228.596 322.532L231.07 317.585H239.728L250.861 312.638L259.519 313.875L261.993 308.928L275.599 300.272L279.31 306.455V316.348L281.784 317.585L273.125 321.295L274.362 326.242L271.889 329.952V339.845L275.599 350.975L284.258 347.265H286.732L287.969 349.738L284.258 354.685L286.732 365.815L292.916 370.761L290.443 375.708L297.864 378.181L296.627 395.495L292.916 397.968L290.443 396.731V394.258L287.969 396.731L284.258 395.495L278.073 399.205L263.23 396.731V399.205L252.098 406.624V409.098L242.202 400.441L228.596 402.915L224.885 401.678L218.7 409.098V412.808L212.516 422.701L203.857 415.281L200.146 416.518L196.436 412.808H193.962L192.725 406.624L190.251 404.151V397.968L193.962 394.258L190.251 389.311H187.777Z" fill="#306EE8" fill-opacity="0.5" stroke="#0000FF" stroke-opacity="0.4" stroke-linecap="round" stroke-linejoin="round"/>
<g id="7801" class="district" name="Tuy An">
<path fill-rule="evenodd" clip-rule="evenodd" d="M290.442 238.439V242.149L287.969 240.912L289.206 238.439H290.442ZM299.101 188.972L302.812 192.682L300.338 195.156L296.627 191.446L299.101 187.736V188.972ZM252.098 250.805H244.676L233.544 243.385L229.833 245.859L231.07 248.332L228.596 255.752H222.411L218.7 252.042L203.857 222.362H201.383L198.909 216.179L191.488 207.522L198.909 201.339L196.436 193.919V176.606L200.146 172.896H208.805L214.99 175.369L216.226 172.896L222.411 171.659H224.885L226.122 174.132L229.833 172.896L227.359 171.659L232.307 161.766H234.78L233.544 155.583L238.491 151.873L254.571 155.583L260.756 154.346L268.178 158.056L270.652 153.109H281.784L283.021 158.056L280.547 159.293V161.766L283.021 167.949H276.836V176.606L290.442 198.866L291.679 205.049L285.495 206.286L287.969 216.179L281.784 221.126V227.309L286.732 235.965H284.258L281.784 243.385L278.073 238.439L273.125 243.385L266.941 242.149L263.23 244.622L261.993 242.149H259.519V249.569L253.334 250.805H252.098Z" fill="#6130E8" fill-opacity="0.5"/>
<path d="M294.153 244.622H292.916M292.916 243.385V242.149M275.599 146.926V145.689H276.836M284.258 164.239H283.021M283.021 158.056V156.819M283.021 158.056L281.784 153.109H270.652L268.178 158.056L260.756 154.346L254.571 155.583L238.491 151.873L233.544 155.583L234.78 161.766H232.307L227.359 171.659L229.833 172.896L226.122 174.132L224.885 171.659H222.411L216.226 172.896L214.99 175.369L208.805 172.896H200.146L196.436 176.606V193.919L198.909 201.339L191.488 207.522L198.909 216.179L201.383 222.362H203.857L218.7 252.042L222.411 255.752H228.596L231.07 248.332L229.833 245.859L233.544 243.385L244.676 250.805H252.098H253.334L259.519 249.569V242.149H261.993L263.23 244.622L266.941 242.149L273.125 243.385L278.073 238.439L281.784 243.385L284.258 235.965H286.732L281.784 227.309V221.126L287.969 216.179L285.495 206.286L291.679 205.049L290.442 198.866L276.836 176.606V167.949H283.021L280.547 161.766V159.293L283.021 158.056ZM290.442 238.439V242.149L287.969 240.912L289.206 238.439H290.442ZM299.101 188.972L302.812 192.682L300.338 195.156L296.627 191.446L299.101 187.736V188.972Z" stroke="#0000FF" stroke-opacity="0.4" stroke-linecap="round" stroke-linejoin="round"/>
</g>
</g>
</svg>
