<svg width="338" height="473" viewBox="0 0 338 473" fill="none" xmlns="http://www.w3.org/2000/svg">
<g id="79" name="Khánh Hòa">
<g id="7908" class="district" name="TP Cam Ranh">
<path fill-rule="evenodd" clip-rule="evenodd" d="M230.773 466.239L234.237 467.393L233.082 472.011H230.773L229.619 466.239H230.773ZM233.082 438.532L241.165 444.305L243.474 438.532V441.996L246.938 444.305L243.474 446.613L241.165 445.459L240.01 448.922L234.237 444.305L235.392 440.841L233.082 438.532ZM222.691 455.849L219.227 454.695L200.753 458.158H186.897L178.814 453.54L177.66 448.922L171.887 445.459L164.959 433.915L160.34 417.752L154.567 413.135H148.794L141.866 407.363L140.711 395.818L143.021 391.2H148.794L161.495 395.818L166.113 401.59L170.732 395.818L182.278 391.2L183.433 392.355L186.897 386.583L191.515 388.892V391.2L194.979 393.509L200.753 385.428L199.598 384.274L201.907 378.502L199.598 372.729L212.299 366.957H219.227L231.928 362.339L245.783 384.274L253.866 385.428L255.021 394.664H259.639V396.973L256.175 398.127V402.745H251.557L249.247 407.363L250.402 416.598L253.866 420.061L252.711 421.216L255.021 423.525L256.175 422.37L255.021 424.679L258.485 425.834L253.866 433.915L248.093 432.76L244.629 438.532L243.474 431.606L242.32 432.76L241.165 428.142L237.701 425.834L233.082 426.988L231.928 424.679H229.619L220.381 430.451L216.918 433.915V438.532L214.608 441.996L218.072 447.768L216.918 453.54L222.691 455.849Z" fill="#0051E6" fill-opacity="0.4"/>
<path d="M228.464 463.93H227.309M226.155 453.54L225 452.386M276.959 372.729L275.804 371.575M258.485 402.745V401.59M255.021 403.899H253.866V402.745M255.021 435.069V433.915M241.165 431.606L240.01 430.451M230.773 466.239L234.237 467.393L233.082 472.011H230.773L229.619 466.239H230.773ZM233.082 438.532L241.165 444.305L243.474 438.532V441.996L246.938 444.305L243.474 446.613L241.165 445.459L240.01 448.922L234.237 444.305L235.392 440.841L233.082 438.532ZM222.691 455.849L219.227 454.695L200.753 458.158H186.897L178.814 453.54L177.66 448.922L171.887 445.459L164.959 433.915L160.34 417.752L154.567 413.135H148.794L141.866 407.363L140.711 395.818L143.021 391.2H148.794L161.495 395.818L166.113 401.59L170.732 395.818L182.278 391.2L183.433 392.355L186.897 386.583L191.515 388.892V391.2L194.979 393.509L200.753 385.428L199.598 384.274L201.907 378.502L199.598 372.729L212.299 366.957H219.227L231.928 362.339L245.783 384.274L253.866 385.428L255.021 394.664H259.639V396.973L256.175 398.127V402.745H251.557L249.247 407.363L250.402 416.598L253.866 420.061L252.711 421.216L255.021 423.525L256.175 422.37L255.021 424.679L258.485 425.834L253.866 433.915L248.093 432.76L244.629 438.532L243.474 431.606L242.32 432.76L241.165 428.142L237.701 425.834L233.082 426.988L231.928 424.679H229.619L220.381 430.451L216.918 433.915V438.532L214.608 441.996L218.072 447.768L216.918 453.54L222.691 455.849Z" stroke="#0000FF" stroke-opacity="0.4" stroke-linecap="round" stroke-linejoin="round"/>
</g>
<g id="7907" class="district" name="Nha Trang">
<path fill-rule="evenodd" clip-rule="evenodd" d="M268.876 301.154L273.495 303.463L267.722 304.617L265.412 302.309L267.722 301.154H268.876ZM243.474 297.691L245.783 298.845V301.154L240.01 298.845L243.474 297.691ZM234.237 290.764H238.856L235.392 294.228V296.536L233.082 293.073L234.237 289.61V290.764ZM257.33 297.691L256.175 300L255.021 296.536H257.33V297.691ZM252.711 274.602H255.021L256.175 276.911L265.412 275.756L268.876 282.683L272.34 281.529L273.495 276.911L276.959 280.374L278.113 279.22V287.301L281.577 290.764L276.959 293.073V295.382L273.495 294.228L275.804 291.919H265.412L267.722 287.301L266.567 286.146L261.948 290.764L264.258 295.382L263.103 296.536L255.021 294.228L253.866 289.61L242.32 284.992L241.165 278.065L237.701 276.911L238.856 274.602H241.165L244.629 279.22L245.783 278.065L249.247 281.529L252.711 273.448V274.602ZM231.928 219.189H228.464H230.773H231.928ZM293.124 259.594L290.814 258.44H293.124V259.594ZM198.443 301.154L196.134 297.691L197.289 296.536L192.67 294.228L188.052 287.301L194.979 276.911L192.67 271.139L193.825 267.675L190.361 266.521L192.67 261.903L199.598 259.594L193.825 245.741L194.979 236.506L186.897 227.27L189.206 224.961V221.498L194.979 216.88L205.371 215.726V219.189L211.144 220.343L213.454 219.189L209.99 213.417H215.763L220.381 211.108L222.691 212.262L223.845 215.726L222.691 219.189L226.155 230.733L229.619 235.351L242.32 243.432L238.856 248.05L233.082 246.896L228.464 249.204L226.155 253.822L227.309 259.594L223.845 261.903L222.691 265.367L225 278.065L231.928 284.992L230.773 289.61L227.309 293.073L228.464 297.691L226.155 301.154H223.845V303.463L234.237 309.235V312.699L221.536 311.544L220.381 309.235L219.227 311.544L211.144 310.39L204.216 308.081L200.753 303.463L198.443 301.154Z" fill="#25A8F9" fill-opacity="0.4"/>
<path d="M285.041 291.919L283.887 293.073M282.732 291.919L281.577 290.764M281.577 290.764L278.113 287.301V279.22L276.959 280.374L273.495 276.911L272.34 281.529L268.876 282.683L265.412 275.756L256.175 276.911L255.021 274.602H252.711V273.448L249.247 281.529L245.783 278.065L244.629 279.22L241.165 274.602H238.856L237.701 276.911L241.165 278.065L242.32 284.992L253.866 289.61L255.021 294.228L263.103 296.536L264.258 295.382L261.948 290.764L266.567 286.146L267.722 287.301L265.412 291.919H275.804L273.495 294.228L276.959 295.382V293.073L281.577 290.764ZM296.588 256.131V254.977M296.588 253.822L295.433 251.513M227.309 218.035H226.155M242.32 250.359V249.204M228.464 260.749V259.594M268.876 301.154L273.495 303.463L267.722 304.617L265.412 302.309L267.722 301.154H268.876ZM243.474 297.691L245.783 298.845V301.154L240.01 298.845L243.474 297.691ZM234.237 290.764H238.856L235.392 294.228V296.536L233.082 293.073L234.237 289.61V290.764ZM257.33 297.691L256.175 300L255.021 296.536H257.33V297.691ZM231.928 219.189H228.464H230.773H231.928ZM293.124 259.594L290.814 258.44H293.124V259.594ZM198.443 301.154L196.134 297.691L197.289 296.536L192.67 294.228L188.052 287.301L194.979 276.911L192.67 271.139L193.825 267.675L190.361 266.521L192.67 261.903L199.598 259.594L193.825 245.741L194.979 236.506L186.897 227.27L189.206 224.961V221.498L194.979 216.88L205.371 215.726V219.189L211.144 220.343L213.454 219.189L209.99 213.417H215.763L220.381 211.108L222.691 212.262L223.845 215.726L222.691 219.189L226.155 230.733L229.619 235.351L242.32 243.432L238.856 248.05L233.082 246.896L228.464 249.204L226.155 253.822L227.309 259.594L223.845 261.903L222.691 265.367L225 278.065L231.928 284.992L230.773 289.61L227.309 293.073L228.464 297.691L226.155 301.154H223.845V303.463L234.237 309.235V312.699L221.536 311.544L220.381 309.235L219.227 311.544L211.144 310.39L204.216 308.081L200.753 303.463L198.443 301.154Z" stroke="#0000FF" stroke-opacity="0.4" stroke-linecap="round" stroke-linejoin="round"/>
</g>
<g id="7906" class="district" name="Ninh Hòa">
<path fill-rule="evenodd" clip-rule="evenodd" d="M297.742 218.035L300.052 220.343L296.588 219.189V215.726L297.742 218.035ZM237.701 203.027L241.165 206.49V209.953L238.856 211.108L234.237 207.645L236.546 203.027H237.701ZM233.082 203.027L230.773 201.872H233.082V203.027ZM287.35 166.085L289.66 164.93V167.239H291.969L288.505 169.548V167.239H286.196L287.35 163.776V166.085ZM270.031 196.1L274.649 194.946L279.268 199.564H281.577L283.887 204.181L281.577 207.645L278.113 208.799V214.571L274.649 212.262L272.34 207.645L268.876 208.799L264.258 226.116L258.485 223.807L257.33 220.343H251.557L249.247 214.571H251.557V212.262L244.629 206.49L242.32 201.872L243.474 200.718H240.01V197.255H237.701L233.082 191.482L221.536 184.556L215.763 178.784L207.68 189.174V199.564L208.835 198.409V200.718L211.144 201.872L218.072 200.718L221.536 204.181L223.845 203.027L225 207.645L222.691 211.108L216.918 213.417H209.99L213.454 219.189L212.299 220.343L206.526 219.189L205.371 215.726L194.979 216.88L191.515 220.343H189.206L190.361 224.961H188.052L186.897 227.27V224.961H184.588L178.814 219.189L179.969 216.88L161.495 203.027L159.186 199.564H141.866V204.181H139.557L128.01 190.328H123.392L117.619 185.71L116.464 176.475L110.691 173.011L107.227 166.085L93.3711 163.776L86.4433 160.313V154.54L88.7526 152.232L86.4433 149.923L89.9072 142.996L94.5258 139.533L96.835 131.452L94.5258 124.525L93.3711 125.679L89.9072 122.216L85.2886 121.062L81.8247 114.135L88.7526 104.9L94.5258 107.208L102.608 99.1273L104.918 89.8918L99.1443 85.274L101.454 82.9652L116.464 76.0385L124.546 80.6563H131.474L136.093 77.193L133.783 71.4208L148.794 63.3397H146.485V61.0308L151.103 57.5675H156.876V54.1042H164.959L167.268 50.6409H169.577L170.732 54.1042L176.505 55.2586L182.278 61.0308L181.124 62.1853L184.588 63.3397V70.2663L188.052 77.193L185.742 81.8107L194.979 87.5829L189.206 99.1273H196.134L204.216 104.9L206.526 110.672L207.68 123.371L225 121.062L222.691 125.679L225 131.452L226.155 129.143L233.082 126.834L231.928 125.679L236.546 119.907L238.856 118.753L240.01 122.216H242.32L243.474 127.988L241.165 126.834L237.701 132.606V145.305L241.165 155.695L245.783 156.849L257.33 166.085V162.621L260.794 163.776L265.412 169.548L260.794 178.784V183.401L263.103 192.637L265.412 191.482L270.031 196.1ZM272.34 160.313L266.567 166.085L263.103 164.93L264.258 161.467L272.34 160.313Z" fill="#387109" fill-opacity="0.4"/>
<path d="M231.928 209.953V208.799M234.237 203.027V201.872M226.155 201.872L225 203.027M213.454 198.409V197.255M298.897 169.548L297.742 168.394M270.031 169.548H267.722M297.742 218.035L300.052 220.343L296.588 219.189V215.726L297.742 218.035ZM237.701 203.027L241.165 206.49V209.953L238.856 211.108L234.237 207.645L236.546 203.027H237.701ZM233.082 203.027L230.773 201.872H233.082V203.027ZM287.35 166.085L289.66 164.93V167.239H291.969L288.505 169.548V167.239H286.196L287.35 163.776V166.085ZM270.031 196.1L274.649 194.946L279.268 199.564H281.577L283.887 204.181L281.577 207.645L278.113 208.799V214.571L274.649 212.262L272.34 207.645L268.876 208.799L264.258 226.116L258.485 223.807L257.33 220.343H251.557L249.247 214.571H251.557V212.262L244.629 206.49L242.32 201.872L243.474 200.718H240.01V197.255H237.701L233.082 191.482L221.536 184.556L215.763 178.784L207.68 189.174V199.564L208.835 198.409V200.718L211.144 201.872L218.072 200.718L221.536 204.181L223.845 203.027L225 207.645L222.691 211.108L216.918 213.417H209.99L213.454 219.189L212.299 220.343L206.526 219.189L205.371 215.726L194.979 216.88L191.515 220.343H189.206L190.361 224.961H188.052L186.897 227.27V224.961H184.588L178.814 219.189L179.969 216.88L161.495 203.027L159.186 199.564H141.866V204.181H139.557L128.01 190.328H123.392L117.619 185.71L116.464 176.475L110.691 173.011L107.227 166.085L93.3711 163.776L86.4433 160.313V154.54L88.7526 152.232L86.4433 149.923L89.9072 142.996L94.5258 139.533L96.835 131.452L94.5258 124.525L93.3711 125.679L89.9072 122.216L85.2886 121.062L81.8247 114.135L88.7526 104.9L94.5258 107.208L102.608 99.1273L104.918 89.8918L99.1443 85.274L101.454 82.9652L116.464 76.0385L124.546 80.6563H131.474L136.093 77.193L133.783 71.4208L148.794 63.3397H146.485V61.0308L151.103 57.5675H156.876V54.1042H164.959L167.268 50.6409H169.577L170.732 54.1042L176.505 55.2586L182.278 61.0308L181.124 62.1853L184.588 63.3397V70.2663L188.052 77.193L185.742 81.8107L194.979 87.5829L189.206 99.1273H196.134L204.216 104.9L206.526 110.672L207.68 123.371L225 121.062L222.691 125.679L225 131.452L226.155 129.143L233.082 126.834L231.928 125.679L236.546 119.907L238.856 118.753L240.01 122.216H242.32L243.474 127.988L241.165 126.834L237.701 132.606V145.305L241.165 155.695L245.783 156.849L257.33 166.085V162.621L260.794 163.776L265.412 169.548L260.794 178.784V183.401L263.103 192.637L265.412 191.482L270.031 196.1ZM272.34 160.313L266.567 166.085L263.103 164.93L264.258 161.467L272.34 160.313Z" stroke="#0000FF" stroke-opacity="0.4" stroke-linecap="round" stroke-linejoin="round"/>
</g>
<g id="7905" class="district" name="Cam Lâm">
<path fill-rule="evenodd" clip-rule="evenodd" d="M278.113 354.258V360.031L275.804 357.722L276.959 354.258H278.113ZM226.155 364.648L220.381 366.957H212.299L209.99 369.266L201.907 371.575L199.598 373.884L201.907 378.502L199.598 384.274L200.753 385.428L194.979 393.509L188.052 386.583L184.588 388.892L183.433 392.355L182.278 391.2L170.732 395.818L166.113 401.59L161.495 395.818L153.412 394.664L148.794 391.2H143.021V380.81L140.711 378.502L143.021 373.884L140.711 368.112L141.866 363.494L137.247 361.185L143.021 355.413L131.474 343.868L124.546 345.023L116.464 341.56V325.397L123.392 321.934V316.162L126.856 310.39L125.701 305.772L129.165 304.618L130.32 298.845L138.402 302.309L139.557 297.691L146.485 294.228L149.948 297.691L163.804 293.073L162.649 288.455L164.959 286.146L166.113 288.455H168.423L170.732 284.992L176.505 289.61L179.969 287.301L184.588 288.455V286.146L188.052 282.683H190.361L188.052 286.146L190.361 290.764L201.907 305.772L203.062 304.618L204.216 308.081L215.763 311.544H219.227L220.381 309.235L223.845 312.699L229.619 311.544L234.237 313.853L230.773 315.007L229.619 321.934L222.691 324.243L223.845 343.868L231.928 362.339L226.155 364.648Z" fill="#485579" fill-opacity="0.4"/>
<path d="M278.113 354.258V353.104M278.113 354.258V360.031L275.804 357.722L276.959 354.258H278.113ZM226.155 364.648L220.381 366.957H212.299L209.99 369.266L201.907 371.575L199.598 373.884L201.907 378.502L199.598 384.274L200.753 385.428L194.979 393.509L188.052 386.583L184.588 388.892L183.433 392.355L182.278 391.2L170.732 395.818L166.113 401.59L161.495 395.818L153.412 394.664L148.794 391.2H143.021V380.81L140.711 378.502L143.021 373.884L140.711 368.112L141.866 363.494L137.247 361.185L143.021 355.413L131.474 343.868L124.546 345.023L116.464 341.56V325.397L123.392 321.934V316.162L126.856 310.39L125.701 305.772L129.165 304.618L130.32 298.845L138.402 302.309L139.557 297.691L146.485 294.228L149.948 297.691L163.804 293.073L162.649 288.455L164.959 286.146L166.113 288.455H168.423L170.732 284.992L176.505 289.61L179.969 287.301L184.588 288.455V286.146L188.052 282.683H190.361L188.052 286.146L190.361 290.764L201.907 305.772L203.062 304.618L204.216 308.081L215.763 311.544H219.227L220.381 309.235L223.845 312.699L229.619 311.544L234.237 313.853L230.773 315.007L229.619 321.934L222.691 324.243L223.845 343.868L231.928 362.339L226.155 364.648Z" stroke="#0000FF" stroke-opacity="0.4" stroke-linecap="round" stroke-linejoin="round"/>
</g>
<path id="7904" class="district" name="Diên Khánh" fill-rule="evenodd" clip-rule="evenodd" d="M188.052 282.683L184.588 286.146V288.455L181.124 287.301L176.505 290.764L170.732 284.992L166.113 289.61V286.146L162.649 288.455L163.804 293.073L158.031 295.382H153.412L151.103 297.691L146.485 294.228L139.557 297.691L138.402 302.309L131.474 300L125.701 291.919L123.392 283.838L119.928 280.374L121.082 273.448L124.546 271.139L122.237 264.212L124.546 260.749L121.082 249.204L119.928 248.05L117.619 250.359L116.464 244.587L119.928 239.969L113 237.66V230.733L123.392 228.425L125.701 221.498L130.32 222.652V229.579L132.629 230.733L145.33 226.116L146.485 227.27L153.412 221.498L158.031 220.343L167.268 206.49L169.577 209.953L179.969 216.88L178.814 219.189L186.897 224.961L189.206 231.888L194.979 236.506L193.825 244.587L196.134 253.822L197.289 252.668L196.134 256.131H198.443L199.598 259.594L192.67 261.903L190.361 266.521L193.825 267.675L192.67 271.139L194.979 276.911L190.361 282.683H188.052Z" fill="#A79700" fill-opacity="0.4" stroke="#0000FF" stroke-opacity="0.4" stroke-linecap="round" stroke-linejoin="round"/>
<path id="7903" class="district" name="Khánh Sơn" fill-rule="evenodd" clip-rule="evenodd" d="M121.082 403.899L117.619 401.59H113L104.918 395.818L93.3711 396.973V394.664L84.134 388.891H76.0515L77.2062 386.583L74.8969 383.119L80.6701 377.347V370.42L79.5155 366.957L73.7423 365.803L65.6598 361.185L64.5051 357.722L56.4227 355.413L59.8866 349.641L57.5773 346.177L56.4227 338.096L52.9588 334.633L55.268 331.17H52.9588L54.1134 328.861L49.4948 321.934L51.8041 305.772L62.1959 308.081L65.6598 316.162L71.433 315.007L73.7423 324.243L81.8247 326.552L84.134 330.015L91.0618 328.861L93.3711 333.478L96.835 332.324L97.9897 334.633L100.299 333.478L109.536 336.942L111.845 335.787V331.17H114.155L116.464 333.478L117.619 342.714L124.546 345.023L131.474 343.868L143.021 354.258L137.247 361.185L141.866 363.494L140.711 368.112L144.175 371.575L140.711 378.502L143.021 380.81V391.2L140.711 395.818L141.866 407.362L133.783 410.826L126.856 409.671L125.701 407.362L121.082 406.208V403.899Z" fill="#B73A67" fill-opacity="0.4" stroke="#0000FF" stroke-opacity="0.4" stroke-linecap="round" stroke-linejoin="round"/>
<path id="7902" class="district" name="Khánh Vĩnh" fill-rule="evenodd" clip-rule="evenodd" d="M82.9794 328.861L81.8247 326.552L73.7422 324.243L71.433 315.007L66.8144 316.162L63.3505 313.853L62.1959 308.081L49.4948 305.772L48.3402 303.463H46.0309L42.567 309.235L39.1031 306.926H28.7113L25.2474 303.463L21.7835 298.845L22.9381 297.691L20.6288 293.073H18.3196L22.9381 280.374L14.8557 272.293L13.701 268.83L17.1649 265.367L14.8557 260.749L17.1649 258.44L14.8557 256.131V250.359L17.1649 245.741L13.701 241.123H9.08246L6.77318 237.66L5.61854 238.814L7.92782 235.351L4.4639 224.961L10.2371 214.571L6.77318 211.108L7.92782 207.645L4.4639 205.336L3.30926 201.872L5.61854 197.255L0.999985 192.637L13.701 176.475V171.857L16.0103 169.548L20.6288 166.085L22.9381 168.394L31.0206 170.703L32.1752 168.394H34.4845L35.6392 160.313H41.4124L46.0309 156.849L54.1134 160.313V164.93L56.4227 168.394L59.8866 166.085L71.433 175.32L82.9794 179.938H85.2886V174.166L87.5979 173.011L88.7526 168.394L80.6701 162.621L86.4433 156.849V160.313L93.3711 163.776L104.918 164.93L108.381 167.239L110.691 173.011L116.464 175.32L117.619 185.71L128.01 190.328L137.247 201.872L141.866 204.181V199.564H159.186L167.268 205.336V208.799L163.804 211.108L159.186 220.343L153.412 221.498L143.021 228.424L132.629 230.733L130.32 228.424L131.474 224.961L126.856 221.498L124.546 222.652L123.392 228.424L114.155 230.733L111.845 234.197L113 237.66L119.928 239.969L116.464 244.587V250.359L119.928 248.05L123.392 254.977L124.546 260.749L122.237 264.212L124.546 269.984L121.082 273.448L119.928 280.374L123.392 283.838L124.546 289.61L130.32 298.845L129.165 304.617L125.701 305.772L126.856 310.39L123.392 316.162V321.934L116.464 325.397L115.309 330.015L111.845 331.17L110.691 336.942L103.763 334.633L102.608 335.787L101.454 333.478L97.9897 334.633L96.835 332.324L93.3711 333.478L91.0618 332.324V328.861H84.134H82.9794Z" fill="#B0279C" fill-opacity="0.4" stroke="#0000FF" stroke-opacity="0.4" stroke-linecap="round" stroke-linejoin="round"/>
<g id="7901" class="district" name="Vạn Ninh">
<path fill-rule="evenodd" clip-rule="evenodd" d="M275.804 100.282L286.196 104.9L293.124 102.591L302.361 106.054L301.206 110.672L306.979 119.907V129.143H309.289L313.907 134.915L311.598 138.378L305.825 137.224L301.206 130.297H295.433V126.834L282.732 121.062V115.289L280.423 112.981H274.649V115.289L273.495 112.981L270.031 111.826L267.722 106.054L274.649 99.1273L275.804 100.282ZM273.495 96.8184V99.1273L272.34 96.8184H273.495ZM229.619 91.0462L230.773 94.5096H227.309L222.691 97.9729L220.381 103.745V106.054L226.155 109.517V121.062L207.68 123.371L206.526 110.672L204.216 104.9L196.134 99.1273H189.206L194.979 87.5829L185.742 81.8107L188.052 77.193L184.588 70.2663L185.742 65.6486L176.505 56.4131L178.814 49.4864L177.66 48.332L185.742 42.5598L189.206 31.0154H191.515L198.443 37.9421L211.144 18.3166L213.454 19.471L227.309 17.1621L235.392 25.2432L246.938 13.6988L252.711 16.0077H259.639L266.567 12.5444L270.031 13.6988L272.34 11.39V13.6988L274.649 14.8533L278.113 12.5444L279.268 9.08107L283.887 10.2355L294.278 1L297.742 4.46332V6.7722L303.515 11.39L298.897 14.8533H294.278L290.814 20.6255L293.124 24.0888L290.814 26.3977L291.969 35.6332L296.588 48.332L309.289 71.4208L312.753 73.7297L315.062 71.4208L312.753 76.0385L319.68 86.4285L323.144 87.5829L325.454 85.2741L326.608 88.7374L330.072 86.4285L332.381 88.7374V93.3551L334.691 94.5096H327.763L323.144 99.1273L324.299 103.745L321.99 106.054L324.299 110.672L320.835 116.444L321.99 118.753L324.299 117.598L323.144 121.062L325.454 130.297L321.99 132.606L319.68 126.834H315.062L313.907 114.135L310.443 115.289V112.981H306.979V107.208L304.67 104.9L306.979 102.591L312.753 101.436V99.1273L311.598 86.4285H309.289L306.979 80.6563L304.67 84.1196L305.825 85.2741L303.515 86.4285L296.588 84.1196L295.433 85.2741L294.278 87.5829L296.588 91.0462L294.278 93.3551L295.433 96.8184L293.124 97.9729V94.5096H289.66L288.505 89.8918H286.196L282.732 94.5096L280.423 89.8918H278.113L283.887 88.7374L289.66 76.0385L293.124 78.3474L295.433 77.193L296.588 71.4208L300.052 70.2663L288.505 46.0231V31.0154L279.268 33.3243V40.2509L276.959 42.5598V46.0231L272.34 44.8687L271.186 47.1776H268.876L264.258 51.7953V54.1042L258.485 59.8764L257.33 58.722L255.021 61.0308L256.175 62.1853L248.093 70.2663V72.5752L244.629 71.4208L238.856 73.7297L228.464 87.5829L229.619 89.8918V91.0462ZM306.979 93.3551L310.443 94.5096L309.289 97.9729L305.825 95.664V92.2007L306.979 93.3551ZM287.35 94.5096L285.041 97.9729L282.732 95.664L286.196 94.5096H287.35ZM297.742 71.4208H294.278L296.588 70.2663L297.742 71.4208ZM270.031 63.3397H272.34L264.258 69.1119L265.412 64.4942L268.876 63.3397H270.031Z" fill="#5B18C2" fill-opacity="0.4"/>
<path d="M305.825 139.533V138.378M337 94.5096V91.0462M333.536 131.452H334.691M328.918 117.598H327.763M325.454 111.826H324.299M233.082 97.9729H231.928M264.258 100.282H265.412M268.876 117.598L267.722 116.444M267.722 101.436H265.412M270.031 101.436L268.876 100.282M285.041 50.6409L286.196 49.4864M312.753 99.1273V101.436L306.979 102.591L304.67 104.9L306.979 107.208V112.981H310.443V115.289L313.907 114.135L315.062 126.834H319.68L321.99 132.606L325.454 130.297L323.144 121.062L324.299 117.598L321.99 118.753L320.835 116.444L324.299 110.672L321.99 106.054L324.299 103.745L323.144 99.1273L327.763 94.5096H334.691L332.381 93.3551V88.7374L330.072 86.4285L326.608 88.7374L325.454 85.2741L323.144 87.5829L319.68 86.4285L312.753 76.0385L315.062 71.4208L312.753 73.7297L309.289 71.4208L296.588 48.332L291.969 35.6332L290.814 26.3977L293.124 24.0888L290.814 20.6255L294.278 14.8533H298.897L303.515 11.39L297.742 6.7722V4.46332L294.278 1L283.887 10.2355L279.268 9.08107L278.113 12.5444L274.649 14.8533L272.34 13.6988V11.39L270.031 13.6988L266.567 12.5444L259.639 16.0077H252.711L246.938 13.6988L235.392 25.2432L227.309 17.1621L213.454 19.471L211.144 18.3166L198.443 37.9421L191.515 31.0154H189.206L185.742 42.5598L177.66 48.332L178.814 49.4864L176.505 56.4131L185.742 65.6486L184.588 70.2663L188.052 77.193L185.742 81.8107L194.979 87.5829L189.206 99.1273H196.134L204.216 104.9L206.526 110.672L207.68 123.371L226.155 121.062V109.517L220.381 106.054V103.745L222.691 97.9729L227.309 94.5096H230.773L229.619 91.0462V89.8918L228.464 87.5829L238.856 73.7297L244.629 71.4208L248.093 72.5752V70.2663L256.175 62.1853L255.021 61.0308L257.33 58.722L258.485 59.8764L264.258 54.1042V51.7953L268.876 47.1776H271.186L272.34 44.8687L276.959 46.0231V42.5598L279.268 40.2509V33.3243L288.505 31.0154V46.0231L300.052 70.2663L296.588 71.4208L295.433 77.193L293.124 78.3474L289.66 76.0385L283.887 88.7374L278.113 89.8918H280.423L282.732 94.5096L286.196 89.8918H288.505L289.66 94.5096H293.124V97.9729L295.433 96.8184L294.278 93.3551L296.588 91.0462L294.278 87.5829L295.433 85.2741L296.588 84.1196L303.515 86.4285L305.825 85.2741L304.67 84.1196L306.979 80.6563L309.289 86.4285H311.598L312.753 99.1273ZM312.753 99.1273H310.443M310.443 92.2007V91.0462M251.557 82.9652H250.402M258.485 76.0385L260.794 73.7297M261.948 72.5752L263.103 70.2663M275.804 61.0308V59.8764M275.804 100.282L286.196 104.9L293.124 102.591L302.361 106.054L301.206 110.672L306.979 119.907V129.143H309.289L313.907 134.915L311.598 138.378L305.825 137.224L301.206 130.297H295.433V126.834L282.732 121.062V115.289L280.423 112.981H274.649V115.289L273.495 112.981L270.031 111.826L267.722 106.054L274.649 99.1273L275.804 100.282ZM273.495 96.8184V99.1273L272.34 96.8184H273.495ZM306.979 93.3551L310.443 94.5096L309.289 97.9729L305.825 95.664V92.2007L306.979 93.3551ZM287.35 94.5096L285.041 97.9729L282.732 95.664L286.196 94.5096H287.35ZM297.742 71.4208H294.278L296.588 70.2663L297.742 71.4208ZM270.031 63.3397H272.34L264.258 69.1119L265.412 64.4942L268.876 63.3397H270.031Z" stroke="#0000FF" stroke-opacity="0.4" stroke-linecap="round" stroke-linejoin="round"/>
</g>
</g>
</svg>
