<svg width="388" height="452" viewBox="0 0 388 452" fill="none" xmlns="http://www.w3.org/2000/svg">
<g id="81" name="Gia Lai">
<path id="8117" class="district" name="TP Pleiku" fill-rule="evenodd" clip-rule="evenodd" d="M153.02 203.649L139.606 217.06V212.589L142.587 209.609L141.097 208.119L133.645 206.629L127.683 209.609L120.231 205.139H108.308L106.818 197.689H132.154L135.135 193.219L133.645 185.768L138.116 184.278V181.298L144.078 179.808L147.058 172.358L145.568 167.887H139.606V158.947H144.078L147.058 152.987L154.51 154.477L157.491 148.517L163.453 147.026V150.007L160.472 151.497V158.947L164.943 160.437V166.397L169.414 170.868L173.885 169.377L176.866 173.848L169.414 184.278L161.962 185.768L163.453 191.728L157.491 196.199L154.51 202.159L153.02 203.649Z" fill="#D147AC" fill-opacity="0.5" stroke="#0000FF" stroke-opacity="0.4" stroke-linecap="round" stroke-linejoin="round"/>
<path id="8116" class="district" name="An Khê" fill-rule="evenodd" clip-rule="evenodd" d="M352.732 193.219L351.242 194.709L346.771 188.748L339.319 185.768L337.829 181.298L328.886 187.258L321.434 185.768L322.925 170.868L319.944 169.377L322.925 167.887L319.944 164.907L328.886 160.437L325.905 150.007L328.886 145.536V139.576L334.848 135.106L342.3 142.556L348.261 155.967L354.223 157.457L355.713 160.437L354.223 167.887L357.204 172.358L354.223 175.338L355.713 178.318L351.242 190.238L352.732 193.219Z" fill="#D1475A" fill-opacity="0.5" stroke="#0000FF" stroke-opacity="0.4" stroke-linecap="round" stroke-linejoin="round"/>
<g id="8115" class="district" name="Ayun Pa">
<path fill-rule="evenodd" clip-rule="evenodd" d="M273.742 342.225L276.722 346.695L281.194 348.185L284.174 346.695L281.194 342.225H284.174L288.646 346.695V349.676L291.626 346.695L284.174 355.636L281.194 366.066H276.722L273.742 369.046L276.722 382.457L273.742 386.927V395.868L267.78 397.358L263.309 391.397L264.799 382.457L260.328 377.987L251.386 375.007L249.895 364.576L245.424 360.106L243.934 354.146L242.443 355.636L233.501 351.166L237.972 348.185V339.245L243.934 333.285H260.328L264.799 328.815V325.834L266.29 330.305H269.27L275.232 336.265L272.251 340.735L273.742 342.225Z" fill="#D18847" fill-opacity="0.5"/>
<path d="M269.27 330.305H266.29L264.799 325.834V328.815L260.328 333.285H243.934L237.972 339.245V348.185L233.501 351.166L242.443 355.636L243.934 354.146L245.424 360.106L249.895 364.576L251.386 375.007L260.328 377.987L264.799 382.457L263.309 391.397L267.78 397.358L273.742 395.868V386.927L276.722 382.457L273.742 369.046L276.722 366.066H281.194L284.174 355.636L291.626 346.695L288.646 349.676V346.695L284.174 342.225H281.194L284.174 346.695L281.194 348.185L276.722 346.695L273.742 342.225L272.251 340.735L275.232 336.265L269.27 330.305ZM269.27 330.305L267.78 331.795" stroke="#0000FF" stroke-opacity="0.4" stroke-linecap="round" stroke-linejoin="round"/>
</g>
<path id="8114" class="district" name="Chư Păh" fill-rule="evenodd" clip-rule="evenodd" d="M153.02 154.477L145.568 152.987V155.967H139.606V152.987L133.645 147.026L132.154 148.517L129.174 144.046L121.722 141.066H118.741L112.779 148.517H81.4811V141.066H78.5003L75.5196 135.106L63.5964 133.616L60.6156 130.636L59.1253 132.126L57.6349 123.185L60.6156 121.695L62.106 114.245L66.5772 108.285L84.4619 114.245L90.4235 108.285L100.856 111.265V108.285L105.327 103.815V96.3642L108.308 93.3841L121.722 91.894L132.154 102.324L142.587 103.815L147.058 100.834L151.53 103.815L160.472 93.3841L164.943 96.3642L167.924 93.3841L169.414 84.4437L173.885 81.4636L170.905 78.4834L178.357 75.5033L181.337 68.053L184.318 71.0331L188.789 69.543V72.5232H191.77L190.28 71.0331H193.261V68.053H200.712L206.674 62.0927L212.636 60.6026L211.145 66.5629L202.203 75.5033V78.4834L206.674 79.9735L205.184 91.894L208.164 94.8742L202.203 109.775H199.222L194.751 105.305H188.789L185.809 108.285L184.318 106.795L178.357 112.755V115.735H175.376V118.715H172.395L170.905 121.695L173.885 127.656V141.066L170.905 144.046L164.943 141.066L163.453 147.026L156.001 150.007L154.51 154.477H153.02Z" fill="#B7E830" fill-opacity="0.5" stroke="#0000FF" stroke-opacity="0.4" stroke-linecap="round" stroke-linejoin="round"/>
<path id="8113" class="district" name="Chư Prông" fill-rule="evenodd" clip-rule="evenodd" d="M129.174 324.344L130.664 328.815L127.683 343.715L124.703 340.735L118.741 342.225L115.76 339.245L109.799 340.735L106.818 337.755L96.3851 339.245L94.8947 343.715L93.4043 342.225L88.9331 346.695L84.4619 345.205L81.4812 348.185L66.5772 345.205L54.6541 354.146V358.616L51.6733 357.126V360.106L42.731 364.576L48.6925 349.676L45.7118 301.993L33.7886 276.662L39.7502 273.682L42.731 276.662L53.1637 264.742L71.0484 251.331L81.4812 255.801L84.4619 254.311L87.4427 251.331L85.9523 248.351H88.9331L100.856 236.431H103.837L100.856 233.45L103.837 226L102.347 212.589L106.818 209.609V205.139H121.722L126.193 206.629L127.683 209.609L133.645 206.629L141.097 208.119L142.587 209.609L139.606 212.589V217.06L153.02 203.649L148.549 217.06H151.53L154.51 226L151.53 227.49L153.02 231.96L148.549 234.94L151.53 239.411L150.039 249.841L151.53 260.272L154.51 261.762V264.742L153.02 272.192L144.078 275.172L142.587 282.623L136.626 284.113L127.683 300.503V304.974L132.154 309.444L136.626 319.874L129.174 322.854V324.344Z" fill="#49E830" fill-opacity="0.5" stroke="#0000FF" stroke-opacity="0.4" stroke-linecap="round" stroke-linejoin="round"/>
<path id="8112" class="district" name="Chư Pưh" fill-rule="evenodd" clip-rule="evenodd" d="M211.145 330.305V340.735L206.674 342.225L205.184 345.205L181.337 333.285L175.376 336.265L173.885 334.775L170.905 337.755L164.943 334.775L153.02 343.715L145.568 339.245L135.135 345.205L127.683 343.715L130.664 328.815L129.174 321.364L130.664 322.854L135.135 319.874L132.154 307.954L127.683 306.464V301.993L135.135 284.113L142.587 282.623V279.642H147.058L148.549 282.623L154.51 279.642L161.962 287.093L167.924 281.132V275.172L176.866 276.662V269.212L179.847 272.192L188.789 269.212V275.172L202.203 297.523L211.145 300.503L212.636 316.894L205.184 322.854L209.655 328.815L211.145 330.305Z" fill="#30E886" fill-opacity="0.5" stroke="#0000FF" stroke-opacity="0.4" stroke-linecap="round" stroke-linejoin="round"/>
<path id="8111" class="district" name="Chư Sê" fill-rule="evenodd" clip-rule="evenodd" d="M199.222 258.781H212.636L218.597 251.331L229.03 260.272H234.991L232.011 264.742L224.559 263.252V270.702L212.636 287.093V300.503H206.674L199.222 294.543L200.712 293.053L188.789 273.682V269.212L179.847 272.192L178.357 269.212V276.662L169.414 275.172L164.943 284.113L160.472 287.093L156.001 279.642L150.039 282.623L144.078 281.132V276.662L153.02 272.192L154.51 266.232L150.039 251.331L151.53 240.901L148.549 236.43V233.45L151.53 231.96L150.039 227.49L154.51 226L151.53 217.06H148.549L150.039 211.099H169.414L181.337 208.119L185.809 212.589H193.261L197.732 218.55L193.261 223.02V227.49L197.732 231.96H194.751L199.222 240.901V249.841V258.781Z" fill="#30DCE8" fill-opacity="0.5" stroke="#0000FF" stroke-opacity="0.4" stroke-linecap="round" stroke-linejoin="round"/>
<path id="8110" class="district" name="Đăk Đoa" fill-rule="evenodd" clip-rule="evenodd" d="M212.636 203.649L208.164 211.099H200.712V214.079L196.241 215.57L193.261 212.589H184.318L181.337 208.119L169.414 211.099H150.039L157.491 194.709L163.453 191.728L161.962 187.258L169.414 184.278L170.905 179.808L172.395 181.298L175.376 178.318L173.885 176.828L176.866 175.338L172.395 169.377L167.924 170.868V167.887H164.943V160.437L160.472 158.947V151.497L164.943 142.556H170.905L175.376 138.086L170.905 121.695L175.376 118.715V115.735H178.357V112.755L184.318 106.795L185.809 108.285L188.789 105.305H194.751L199.222 109.775H202.203L208.164 93.3841L205.184 91.894L206.674 79.9735L205.184 78.4834L203.693 81.4636L202.203 75.5033L215.616 59.1126L221.578 62.0927L229.03 60.6026L232.011 63.5828L234.991 72.5232V87.4238L237.972 93.3841L236.482 105.305L234.991 103.815L230.52 106.795L226.049 103.815L220.088 112.755L221.578 124.675L217.107 129.146L218.597 127.656L221.578 130.636L223.068 136.596L220.088 138.086L221.578 141.066L218.597 144.046L221.578 148.517L214.126 151.497V148.517H211.145L208.164 150.007L206.674 154.477L212.636 179.808L209.655 185.768L214.126 187.258L211.145 191.728L212.636 193.219H209.655L214.126 194.709L212.636 196.199L215.616 199.179L212.636 202.159V203.649Z" fill="#306EE8" fill-opacity="0.5" stroke="#0000FF" stroke-opacity="0.4" stroke-linecap="round" stroke-linejoin="round"/>
<path id="8109" class="district" name="Đăk Pơ" fill-rule="evenodd" clip-rule="evenodd" d="M366.146 220.04L354.223 228.98L351.242 224.51L349.752 226L346.771 223.02L345.28 217.06L339.319 214.079L328.886 220.04V217.06L319.944 214.079V211.099L312.492 206.629L313.982 203.649L311.001 200.669H302.059L299.078 203.649V199.179L291.626 196.199L288.646 202.159L284.174 193.219L279.703 191.728L272.251 181.298H266.29L261.819 175.338L264.799 167.887L263.309 163.417L267.78 161.927V154.477L270.761 151.497L291.626 166.397H306.53L308.021 170.868L311.001 164.907L313.982 167.887L321.434 164.907L322.925 166.397L319.944 169.377L322.925 176.828V187.258H328.886L337.829 179.808L339.319 185.768L349.752 191.728L352.732 197.689L357.204 200.669L358.694 208.119L364.656 211.099L366.146 218.55V220.04Z" fill="#6130E8" fill-opacity="0.5" stroke="#0000FF" stroke-opacity="0.4" stroke-linecap="round" stroke-linejoin="round"/>
<path id="8108" class="district" name="Đức Cơ" fill-rule="evenodd" clip-rule="evenodd" d="M102.347 226L100.856 231.96L103.837 234.94L99.3659 236.431L97.8755 242.391L85.9523 248.351L87.4427 252.821L85.9523 251.331L82.9716 255.801L71.0484 251.331L66.5772 252.821L57.6349 260.272V263.252L50.1829 266.232V270.702H47.2021L45.7118 275.172L41.2406 276.662H33.7886L32.2982 261.762L26.3367 254.311L23.3559 242.391L1 227.49L3.98078 221.53L2.49039 217.06L6.96157 208.119L18.8847 214.08L29.3174 211.099L35.279 215.57L47.2021 214.08L57.6349 211.099L63.5965 199.179L71.0484 191.729L78.5004 194.709L77.01 196.199L82.9716 202.159L84.4619 200.669L94.8947 205.139H100.856L103.837 226H102.347Z" fill="#D030E8" fill-opacity="0.5" stroke="#0000FF" stroke-opacity="0.4" stroke-linecap="round" stroke-linejoin="round"/>
<path id="8107" class="district" name="la Grai" fill-rule="evenodd" clip-rule="evenodd" d="M139.606 163.417V167.887H145.568L147.058 172.358L144.078 179.808L136.626 181.298L138.116 182.788L133.645 185.768L135.135 193.219L132.154 197.689L106.818 196.199L108.308 202.159L105.327 211.099H102.347L100.856 203.649L94.8947 205.139L84.4619 200.669L82.9715 202.159L77.01 196.199L78.5003 194.709L71.0484 191.728L63.5964 199.179L57.6349 211.099L47.2021 214.079L35.279 215.57L30.8078 211.099L18.8847 214.079L2.49037 206.629V203.649L6.96155 199.179V193.219L2.49037 191.728L5.47116 188.748V182.788L11.4327 181.298L21.8655 173.848L20.3751 166.397L23.3559 167.887L27.827 163.417H39.7502L45.7117 152.987L50.1829 155.967L54.6541 151.497V144.046L57.6349 133.616L60.6156 130.636L63.5964 133.616L75.5196 135.106L78.5003 138.086L77.01 139.576L81.4811 141.066V147.027L84.4619 148.517H112.779L118.741 141.066H121.722L135.135 147.027L139.606 151.497V154.477L145.568 157.457L139.606 158.947V161.927V163.417Z" fill="#E83092" fill-opacity="0.5" stroke="#0000FF" stroke-opacity="0.4" stroke-linecap="round" stroke-linejoin="round"/>
<path id="8106" class="district" name="la Pa" fill-rule="evenodd" clip-rule="evenodd" d="M299.078 343.715L291.626 348.185L290.136 346.695V349.675L282.684 342.225L281.194 343.715L284.174 345.205L282.684 348.185H279.703L272.251 340.735V337.755L275.232 336.265L269.27 330.305H266.29L267.78 325.834L261.819 319.874L264.799 301.993L255.857 297.523V282.623L242.443 279.642L226.049 264.742H232.011L236.482 260.272L240.953 261.762L246.915 257.291L257.347 255.801L272.251 264.742L276.722 263.252L273.742 267.722L279.703 278.152L285.665 279.642L303.55 273.682L305.04 278.152L322.925 279.642L330.377 285.603L346.771 288.583L351.242 294.543L348.261 301.993L342.3 307.954L340.809 313.914L343.79 319.874L337.829 318.384L327.396 327.325V330.305L325.905 328.815L315.473 333.285L308.021 331.795L300.569 342.225L299.078 343.715Z" fill="#E83D30" fill-opacity="0.5" stroke="#0000FF" stroke-opacity="0.4" stroke-linecap="round" stroke-linejoin="round"/>
<path id="8105" class="district" name="KBang" fill-rule="evenodd" clip-rule="evenodd" d="M325.905 148.517L328.886 160.437L325.905 163.417L324.415 161.927L313.982 167.887L311.001 164.907L309.511 170.868L306.53 166.397H290.136L287.155 161.927L270.761 151.497L275.232 145.536V138.086L267.78 123.185H260.328L255.857 126.166L252.876 121.695H249.895L248.405 112.755H245.424L239.463 105.305H236.482L237.972 94.8742L234.991 88.9139V74.0132L229.03 57.6225L237.972 42.7219L254.367 24.8411L249.895 14.4106L246.915 12.9205V8.45033L254.367 1L260.328 3.98013L261.819 9.9404L272.251 15.9007L287.155 17.3907L293.117 14.4106L294.607 8.45033L300.569 6.96027L311.001 12.9205L315.473 21.8609L319.944 17.3907V24.8411L322.925 29.3113L321.434 33.7815L324.415 36.7616L322.925 44.2119L321.434 45.702L312.492 42.7219L315.473 45.702V51.6623L321.434 66.5629L318.453 71.0331L325.905 81.4636L324.415 84.4437L328.886 91.894L327.396 97.8543L331.867 102.325V108.285L333.357 106.795L334.848 117.225L330.377 123.185L336.338 135.106L328.886 139.576V145.536L325.905 148.517Z" fill="#D147AC" fill-opacity="0.5" stroke="#0000FF" stroke-opacity="0.4" stroke-linecap="round" stroke-linejoin="round"/>
<path id="8104" class="district" name="Kông Chro" fill-rule="evenodd" clip-rule="evenodd" d="M360.184 227.49L364.656 220.04L375.088 230.47L373.598 234.94L376.579 239.411V245.371L373.598 248.351L375.088 252.821L370.617 255.801L373.598 261.762L372.108 267.722L378.069 278.152L376.579 281.132L381.05 287.093L379.559 291.563L361.675 288.583L363.165 290.073H360.184L358.694 293.053L352.732 291.563V294.543L346.771 288.583L327.396 285.603L322.925 279.642L305.04 278.152L303.55 273.682L285.665 279.642L275.232 272.192V263.252L273.742 264.742L257.347 255.801H251.386L252.876 252.821L246.915 242.391L245.424 233.45L249.895 224.51L248.405 212.589H251.386L248.405 199.179L251.386 196.199V190.238L263.309 178.318L270.761 181.298L279.703 191.728H282.684L285.665 194.709L287.155 202.159H290.136L291.626 196.199H297.588L299.078 203.649L302.059 200.669H311.001L313.982 203.649V208.119L319.944 214.079L328.886 217.06V220.04H331.867L333.357 215.57H342.3L348.261 226L349.752 224.51L354.223 228.98L360.184 227.49Z" fill="#D1475A" fill-opacity="0.5" stroke="#0000FF" stroke-opacity="0.4" stroke-linecap="round" stroke-linejoin="round"/>
<path id="8103" class="district" name="Krông Pa" fill-rule="evenodd" clip-rule="evenodd" d="M351.242 442.06L337.829 445.04L333.357 451L330.377 448.02L328.886 449.51L324.415 446.53H316.963L313.982 443.55L312.492 445.04L311.001 440.569L305.04 443.55L288.646 439.079L291.626 431.629L282.684 421.199L284.174 419.709L273.742 415.238L276.722 410.768L275.232 406.298L267.78 398.848L273.742 395.867V386.927L276.722 383.947L275.232 375.007L272.251 372.026L276.722 366.066H281.194L285.665 354.146L300.569 342.225L308.021 331.795L315.473 333.285L325.905 328.814L327.396 330.305V327.324L331.867 325.834L333.357 321.364L337.829 318.384L346.771 321.364H355.713L361.675 318.384L366.146 319.874L364.656 321.364L369.127 334.775V351.165L378.069 358.616L381.05 367.556L385.521 369.046L387.011 372.026L384.031 386.927L379.56 389.907L381.05 398.848H378.069V403.318L372.108 406.298L370.617 404.808L367.636 409.278L366.146 406.298V409.278L361.675 407.788L358.694 412.258H355.713V415.238H358.694L355.713 416.728L352.732 424.179L354.223 440.569L351.242 442.06Z" fill="#D18847" fill-opacity="0.5" stroke="#0000FF" stroke-opacity="0.4" stroke-linecap="round" stroke-linejoin="round"/>
<path id="8102" class="district" name="Mang Yang" fill-rule="evenodd" clip-rule="evenodd" d="M199.222 258.781L200.712 240.901L196.241 237.921L197.732 236.43L194.751 233.45L196.241 231.96L193.261 228.98V223.02L197.732 215.57H200.712V212.589L206.674 209.609L208.164 211.099L211.145 208.119L209.655 206.629L215.616 199.179L214.126 193.219H209.655H212.636L211.145 191.728L214.126 185.768H211.145L212.636 181.298L206.674 155.967L209.655 148.517L215.616 151.497L221.578 148.517L218.597 145.536L223.068 136.596L220.088 130.636L221.578 129.146H217.107L221.578 124.676V106.795L224.559 103.815L230.52 106.795L234.991 103.815L237.972 106.795L239.463 105.305L243.934 109.775V112.755H246.915L254.367 126.166L266.29 123.185L275.232 138.086V145.536L267.78 154.477V161.927L263.309 163.417V178.318L258.838 184.278H255.857L254.367 188.748H251.386V196.199L248.405 199.179L251.386 212.589H248.405L249.895 226L245.424 233.45L252.876 255.801L240.953 261.762H232.011L218.597 251.331L212.636 258.781L209.655 257.291L199.222 258.781Z" fill="#B7E830" fill-opacity="0.5" stroke="#0000FF" stroke-opacity="0.4" stroke-linecap="round" stroke-linejoin="round"/>
<path id="8101" class="district" name="Phú Thiện" fill-rule="evenodd" clip-rule="evenodd" d="M261.819 321.364H264.799L267.78 325.834H264.799V328.815L260.328 333.285L258.838 331.795L240.953 334.775L234.991 351.166H227.54L221.578 345.205L208.164 346.695L206.674 343.715L211.145 340.735V330.305L205.184 322.854L212.636 316.894V287.093L224.559 270.702V263.252L227.54 269.212L242.443 279.642H249.895L254.367 282.623V290.073L257.347 294.543L255.857 299.013L264.799 301.993L261.819 319.874V321.364Z" fill="#49E830" fill-opacity="0.5" stroke="#0000FF" stroke-opacity="0.4" stroke-linecap="round" stroke-linejoin="round"/>
</g>
</svg>
