<svg width="348" height="442" viewBox="0 0 348 442" fill="none" xmlns="http://www.w3.org/2000/svg">
<g id="82" name="Kon Tum">
<path id="8210" class="district" name="TP Kon Tum" fill-rule="evenodd" clip-rule="evenodd" d="M210.848 334.523V337.655L207.716 339.221L209.282 340.786L201.452 337.655L193.622 348.616L188.924 345.484L184.225 348.616L171.697 347.05L162.301 336.089L151.339 337.655L149.773 326.694L159.169 314.167L154.471 306.338L152.905 296.943L157.603 290.68L160.735 293.811L165.433 292.246L170.131 296.943V300.075L174.829 301.641L190.49 289.114L188.924 287.548L193.622 285.982L207.716 292.246L210.848 296.943L215.546 293.811L213.98 303.206L217.112 318.865L213.98 321.996L217.112 323.562V326.694H213.98L212.414 331.391L210.848 334.523Z" fill="#D147AC" fill-opacity="0.5" stroke="#0000FF" stroke-opacity="0.4" stroke-linecap="round" stroke-linejoin="round"/>
<path id="8209" class="district" name="Đắk Glei" fill-rule="evenodd" clip-rule="evenodd" d="M110.622 148.189L107.49 163.847H98.0938L94.9617 166.979L93.3957 163.847H74.6034L73.0373 156.018L63.6411 152.886L55.811 145.057L49.5469 143.491V140.359L43.2828 137.228L44.8488 132.53L40.1507 127.833H43.2828L40.1507 124.701L43.2828 116.872L47.9809 118.438L60.5091 109.043L73.0373 115.306L77.7354 109.043H83.9995L77.7354 96.516L83.9995 91.8185L82.4335 87.121L79.3014 85.5552L83.9995 83.9893L85.5656 79.2918L73.0373 65.1993L76.1694 62.0676H83.9995L82.4335 58.9359L87.1316 57.3701L82.4335 47.9751V38.5801L87.1316 27.6192L79.3014 22.9217L80.8675 15.0925L76.1694 10.395L85.5656 1H88.6976L94.9617 8.82918L96.5278 21.3559L109.056 33.8826L115.32 32.3167L113.754 40.1459L116.886 55.8043L115.32 54.2384H121.584L126.282 55.8043V58.9359L137.245 62.0676H156.037L159.169 66.7651L170.131 62.0676L173.263 68.331L177.961 69.8968V73.0285L192.056 77.726L193.622 82.4235L188.923 96.516L184.225 98.0818L185.791 101.214L177.961 107.477L179.527 112.174L176.395 115.306V121.569L166.999 124.701L162.301 115.306L157.603 120.004L148.207 118.438L143.509 123.135L138.811 121.569L129.414 130.964H124.716L123.15 135.662L116.886 138.794L118.452 140.359L112.188 138.794V146.623L110.622 148.189Z" fill="#D1475A" fill-opacity="0.5" stroke="#0000FF" stroke-opacity="0.4" stroke-linecap="round" stroke-linejoin="round"/>
<path id="8208" class="district" name="Đắk Hà" fill-rule="evenodd" clip-rule="evenodd" d="M168.565 296.943L165.433 292.246L159.169 293.811L157.603 282.85L160.735 279.719L159.169 275.021H156.037L152.905 270.324V257.797L157.603 253.1L156.037 249.968L159.169 245.27L162.301 246.836L166.999 239.007V232.744L160.735 235.875L159.169 234.31L160.735 229.612L156.037 220.217L165.433 209.256V206.125L176.395 198.295L192.056 196.73L193.622 188.9L190.49 185.769L203.018 174.808L209.282 179.505L217.112 176.374L221.81 179.505V182.637L231.206 184.203L228.074 192.032L212.414 209.256L213.98 212.388L209.282 218.651L213.98 229.612L209.282 234.31V254.665L215.546 257.797L217.112 256.231L220.244 260.929H223.376V270.324L218.678 276.587H215.546V292.246L210.848 296.943L206.15 290.68H201.452L196.754 284.416H193.622V287.548H190.49V290.68L187.357 289.114L176.395 301.641H171.697L170.131 296.943H168.565Z" fill="#D18847" fill-opacity="0.5" stroke="#0000FF" stroke-opacity="0.4" stroke-linecap="round" stroke-linejoin="round"/>
<path id="8207" class="district" name="Đắk Tô" fill-rule="evenodd" clip-rule="evenodd" d="M152.905 262.495V265.626L145.075 259.363H132.546L127.848 249.968L126.282 239.007L121.584 237.441L120.018 232.744L116.886 231.178L120.018 226.48L118.452 221.783L109.056 210.822L105.924 202.993V196.73L113.754 193.598L116.886 179.505L132.546 170.11L137.245 171.676L138.811 182.637L141.943 185.769L152.905 188.9L165.433 177.939L166.999 187.334L163.867 192.032L174.829 199.861L166.999 204.559L165.433 209.256L156.037 218.651L159.169 232.744L162.301 235.875V232.744H166.999V237.441L162.301 246.836L160.735 245.27L156.037 248.402L157.603 251.534L152.905 257.797V262.495Z" fill="#B7E830" fill-opacity="0.5" stroke="#0000FF" stroke-opacity="0.4" stroke-linecap="round" stroke-linejoin="round"/>
<path id="8206" class="district" name="la H'Drai" fill-rule="evenodd" clip-rule="evenodd" d="M37.0187 441V423.776L33.8866 422.21V419.078H27.6225L22.9244 422.21L15.0943 420.644L8.83015 409.683L11.9622 398.722L13.5282 400.288L16.6603 397.157L1 387.762L10.3962 370.537L8.83015 368.972L15.0943 365.84L22.9244 350.182V329.826L18.2263 325.128V321.996L21.3584 320.431L24.4904 314.167L22.9244 312.601H26.0565L32.3206 306.338L35.4526 296.943L38.5847 300.075H44.8488L47.9809 293.811L58.9431 307.904L66.7732 304.772L69.9053 309.47L68.3393 311.036H71.4713L68.3393 320.431H71.4713L69.9053 328.26L74.6034 340.786L91.8297 347.05L94.9618 343.918V347.05L102.792 354.879L98.0938 367.406L94.9618 368.972L96.5278 376.801L91.8297 389.327V398.722L87.1316 403.42L83.9996 400.288L73.0373 412.815L63.6412 411.249L60.5091 415.947L57.3771 414.381V422.21L46.4148 430.039L40.1507 431.605V437.868L37.0187 441Z" fill="#49E830" fill-opacity="0.5" stroke="#0000FF" stroke-opacity="0.4" stroke-linecap="round" stroke-linejoin="round"/>
<path id="8205" class="district" name="Kon Plông" fill-rule="evenodd" clip-rule="evenodd" d="M251.565 253.1L260.961 234.31L257.829 206.125L251.565 198.295L246.867 196.73L240.602 199.861L228.074 193.598L234.338 171.676L231.206 170.11V160.715L228.074 159.149V156.018L235.904 149.754V143.491L228.074 135.662H234.338L237.47 132.53L234.338 123.135L235.904 115.306L232.772 110.609L237.47 105.911L243.735 107.477L253.131 115.306H262.527L267.225 127.833L273.489 132.53V135.662L281.319 140.359L282.885 148.189L287.583 154.452H290.715L293.847 160.715H296.98L298.546 170.11L307.942 177.939H314.206L317.338 182.637L323.602 185.769L332.998 182.637L334.564 188.9L339.262 190.466L342.394 198.295L339.262 206.125L332.998 212.388L337.696 217.085V220.217L328.3 232.744L331.432 235.875H342.394L347.092 245.27L340.828 256.231H317.338L309.508 249.968V246.836L303.244 240.573L296.98 243.705V246.836H293.847V251.534L286.017 254.665H275.055L262.527 249.968H259.395L260.961 251.534L256.263 254.665L253.131 253.1H251.565Z" fill="#30E886" fill-opacity="0.5" stroke="#0000FF" stroke-opacity="0.4" stroke-linecap="round" stroke-linejoin="round"/>
<path id="8204" class="district" name="Kon Rẫy" fill-rule="evenodd" clip-rule="evenodd" d="M246.867 309.47H240.602L234.338 315.733V312.601L229.64 314.167L224.942 311.036L220.244 320.431H215.546V276.587L223.376 271.89V260.929L209.282 253.1L212.414 242.139L209.282 234.31L213.98 231.178L209.282 220.217L213.98 212.388L212.414 207.69L221.81 201.427L226.508 193.598L240.602 199.861L246.867 196.73L251.565 198.295L257.829 204.559L256.263 206.125L259.395 210.822L257.829 220.217L260.961 228.046V239.007L251.565 251.534L254.697 254.665L260.961 249.968L273.489 254.665H284.451L292.281 251.534L298.546 257.797L296.98 260.929L301.678 264.06L284.451 284.416V289.114L276.621 295.377V301.641L273.489 304.772H267.225L262.527 301.641L246.867 307.904V309.47Z" fill="#30DCE8" fill-opacity="0.5" stroke="#0000FF" stroke-opacity="0.4" stroke-linecap="round" stroke-linejoin="round"/>
<path id="8203" class="district" name="Ngọc Hồi" fill-rule="evenodd" clip-rule="evenodd" d="M105.924 202.993L118.452 221.783L120.018 226.48L116.886 229.612L123.15 237.441L113.754 246.836H99.6598L98.0938 251.534H94.9617L96.5278 253.1L91.8297 262.495H82.4335L63.6411 270.324H55.811L54.245 265.626L58.9431 256.231L54.245 246.836L62.0751 239.007V224.915H65.2072L63.6411 217.085L66.7732 210.822L65.2072 206.125L55.811 204.559L60.5091 199.861V196.73L57.377 190.466L51.1129 187.335V184.203L74.6034 163.847H93.3957L94.9617 166.979L98.0938 163.847H107.49L112.188 146.623L110.622 138.794L116.886 140.359V137.228L118.452 138.794L123.15 135.662L124.716 130.964L126.282 134.096L127.848 130.964V140.359L132.546 148.189V160.715L129.414 163.847L127.848 171.676L116.886 177.94V185.769L113.754 192.032L105.924 196.73L107.49 201.427L105.924 202.993Z" fill="#306EE8" fill-opacity="0.5" stroke="#0000FF" stroke-opacity="0.4" stroke-linecap="round" stroke-linejoin="round"/>
<path id="8202" class="district" name="Sa Thầy" fill-rule="evenodd" clip-rule="evenodd" d="M138.811 356.445L129.414 351.747L124.716 356.445V359.576L99.6598 353.313L94.9618 348.616V343.918L93.3957 347.05L88.6976 343.918L85.5656 345.484L82.4335 342.352H74.6034L69.9053 328.26L71.4713 320.431H68.3393L71.4713 311.036H68.3393L69.9053 309.47L66.7732 304.772L58.9431 309.47L54.245 300.075L46.4149 292.245L51.1129 282.85V270.324H65.2072L80.8675 262.495H91.8297L94.9618 259.363V251.534H98.0938L99.6598 246.836H113.754L123.15 237.441L127.848 240.573L126.282 246.836L132.546 259.363H143.509L149.773 265.626H152.905V270.324L160.735 278.153L157.603 282.85L156.037 293.811L152.905 296.943V303.206L159.169 312.601L149.773 325.128V336.089L145.075 340.786V348.616L140.377 353.313V356.445L138.811 354.879V356.445Z" fill="#6130E8" fill-opacity="0.5" stroke="#0000FF" stroke-opacity="0.4" stroke-linecap="round" stroke-linejoin="round"/>
<path id="8201" class="district" name="Tu Mơ Rông" fill-rule="evenodd" clip-rule="evenodd" d="M174.829 201.427L168.565 193.598L163.867 192.032L166.999 188.9L165.433 177.939L160.735 179.505L152.905 188.9L138.811 184.203L137.245 173.242L134.112 170.11L127.848 171.676L129.414 163.847L132.546 160.715V148.189L127.848 140.359L129.414 132.53L137.245 121.569L143.509 123.135L148.207 118.438L156.037 120.004L162.301 115.306L165.433 124.701L174.829 121.569L179.527 112.174L181.093 118.438L188.923 124.701L192.056 123.135L204.584 126.267L209.282 134.096H215.546L217.112 138.794L228.074 135.662L237.47 149.754L231.206 151.32L228.074 156.018L234.338 174.808L231.206 179.505L232.772 184.203H221.81L218.678 176.374L210.848 179.505L204.584 174.808L190.49 185.769L193.622 188.9L192.056 196.729H182.659L174.829 199.861V201.427Z" fill="#D030E8" fill-opacity="0.5" stroke="#0000FF" stroke-opacity="0.4" stroke-linecap="round" stroke-linejoin="round"/>
</g>
</svg>
