<svg width="463" height="428" viewBox="0 0 463 428" fill="none" xmlns="http://www.w3.org/2000/svg">
<g id="83" name="Sóc Trăng">
<path id="8311" class="district" name="TP Sóc Trăng" fill-rule="evenodd" clip-rule="evenodd" d="M234.829 218.176L244.85 214.835L241.51 203.141L253.201 181.424L258.212 183.094L261.552 189.776L268.233 179.753V174.741L273.243 171.4L284.935 173.071L283.265 178.082L293.286 176.412V184.765L289.945 186.435L303.307 189.776L293.286 204.812L294.956 206.482L288.275 221.518L286.605 219.847L283.265 226.529H278.254L279.924 223.188L273.243 224.859L271.573 221.518L263.222 224.859L258.212 233.212L248.19 229.871L234.829 218.176Z" fill="#D147AC" fill-opacity="0.5" stroke="#0000FF" stroke-opacity="0.4" stroke-linecap="round" stroke-linejoin="round"/>
<path id="8310" class="district" name="Ngã Năm" fill-rule="evenodd" clip-rule="evenodd" d="M34.4041 305.047L24.3828 325.094L2.67017 300.035L0.999969 288.341L9.351 233.212L2.67017 216.506V209.824L9.351 211.494L12.6914 204.812L16.0318 206.482L21.0424 203.141V199.8L32.7339 206.482V203.141L44.4253 194.788L46.0955 199.8L56.1167 196.459L64.4678 193.118L76.1592 183.094L82.84 198.129L81.1698 228.2L86.1804 248.247L97.8719 246.576L99.5421 251.588L92.8613 254.929L91.1911 253.259L87.8506 259.941L91.1911 263.282L89.5208 264.953L81.1698 268.294L79.4996 263.282H71.1486L67.8082 266.624V274.976L62.7976 273.306L56.1167 276.647L51.1061 273.306L42.7551 290.012L34.4041 305.047Z" fill="#D1475A" fill-opacity="0.5" stroke="#0000FF" stroke-opacity="0.4" stroke-linecap="round" stroke-linejoin="round"/>
<path id="8309" class="district" name="Vĩnh Châu" fill-rule="evenodd" clip-rule="evenodd" d="M206.435 413.635L174.701 427L169.691 410.294L173.031 408.624L164.68 368.529L191.403 356.835L198.084 360.177L224.807 346.812H231.488L238.169 341.8L234.829 336.788H238.169L234.829 333.447L236.499 331.777H239.839L241.51 328.435H248.19L249.861 321.753L266.563 313.4L268.233 316.741H271.573L284.935 310.059L289.945 311.729L301.637 300.035L306.648 301.706L316.669 298.365L335.041 310.059L343.392 311.729L366.775 331.777L381.807 318.412L391.828 321.753V345.141L386.817 353.494L361.764 371.871L345.062 376.882L341.722 370.2L206.435 413.635Z" fill="#D18847" fill-opacity="0.5" stroke="#0000FF" stroke-opacity="0.4" stroke-linecap="round" stroke-linejoin="round"/>
<path id="8308" class="district" name="Châu Thành" fill-rule="evenodd" clip-rule="evenodd" d="M249.861 189.776L241.51 203.141L244.85 209.824L239.839 214.835L236.499 211.494L234.829 214.835L216.456 208.153L213.116 211.494L206.435 208.153L198.084 203.141L199.754 198.129L194.744 194.788L198.084 188.106V176.412L183.052 174.741L181.382 169.729L174.701 173.071V166.388H171.361L173.031 163.047L174.701 164.718V143L181.382 146.341V143L156.329 134.647L183.052 116.271L194.744 114.6H203.095V117.941L218.127 119.612L219.797 114.6L226.478 124.624H263.222L259.882 134.647L273.243 136.318L278.254 141.329L274.914 146.341V154.694L271.573 158.035L266.563 176.412L268.233 178.082L261.552 189.776L258.212 183.094L253.201 181.424L249.861 188.106L251.531 189.776H249.861Z" fill="#B7E830" fill-opacity="0.5" stroke="#0000FF" stroke-opacity="0.4" stroke-linecap="round" stroke-linejoin="round"/>
<path id="8307" class="district" name="Cù Lao Dung" fill-rule="evenodd" clip-rule="evenodd" d="M455.296 236.553L440.264 266.624L430.243 274.976H423.562L416.881 279.988L391.828 221.518L348.403 168.059L328.36 124.624L323.35 99.5647L325.02 102.906L335.041 106.247L346.732 114.6L383.477 156.365L423.562 193.118L461.977 216.506L456.966 223.188V229.871L455.296 236.553Z" fill="#49E830" fill-opacity="0.5" stroke="#0000FF" stroke-opacity="0.4" stroke-linecap="round" stroke-linejoin="round"/>
<path id="8306" class="district" name="Kê Sách" fill-rule="evenodd" clip-rule="evenodd" d="M294.956 127.965L291.616 137.988L276.584 139.659L273.243 136.318L259.882 134.647L263.222 124.624L259.882 122.953L226.478 124.624L219.797 114.6L218.127 119.612L203.095 117.941V114.6H183.052L191.403 81.1882H186.393L191.403 59.4706L201.425 34.4118V19.3765L209.776 7.68235L208.105 6.01176H211.446L216.456 1L221.467 4.34118H231.488L254.871 22.7176L276.584 44.4353L281.594 56.1294L293.286 69.4941L309.988 82.8588L323.35 99.5647L316.669 101.235L304.977 94.5529L296.626 104.576L298.297 107.918L291.616 109.588L296.626 114.6L294.956 116.271L299.967 121.282L298.297 122.953L294.956 127.965Z" fill="#30E886" fill-opacity="0.5" stroke="#0000FF" stroke-opacity="0.4" stroke-linecap="round" stroke-linejoin="round"/>
<path id="8305" class="district" name="Long Phú" fill-rule="evenodd" clip-rule="evenodd" d="M391.828 221.518L385.147 224.859L373.456 223.188L371.786 226.529L363.435 228.2L365.105 233.212H360.094V238.224L346.732 234.882V239.894L335.041 244.906L336.711 236.553L326.69 233.212L313.328 218.176H308.318L309.988 216.506L308.318 219.847L303.307 221.518V218.176L294.956 219.847L293.286 216.506V219.847H288.275L294.956 206.482L293.286 204.812L303.307 189.776L289.945 186.435L293.286 184.765V178.082H283.265L284.935 173.071H269.903V169.729L271.573 158.035L276.584 149.682V139.659H288.275L293.286 136.318L294.956 127.965L299.967 121.282L291.616 111.259L296.626 107.918V104.576L304.977 94.5529L316.669 101.235L323.35 99.5647L328.36 124.624L348.403 168.059L380.137 208.153L391.828 221.518Z" fill="#30DCE8" fill-opacity="0.5" stroke="#0000FF" stroke-opacity="0.4" stroke-linecap="round" stroke-linejoin="round"/>
<path id="8304" class="district" name="Mỹ Tú" fill-rule="evenodd" clip-rule="evenodd" d="M219.797 211.494L234.829 214.835L236.499 211.494L239.839 214.835L244.85 209.824L246.52 211.494L239.839 218.176H234.829L236.499 219.847L228.148 226.529L229.818 228.2L216.456 238.224L209.776 251.588L211.446 253.259L206.435 254.929H178.042L173.031 246.576L164.68 243.235L157.999 246.576L152.989 244.906L151.318 241.565H141.297L139.627 234.882L86.1805 248.247L81.1698 228.2L82.8401 198.129L77.8294 188.106L94.5315 171.4L157.999 132.976L156.329 134.647L181.382 143L183.052 146.341L174.701 143V164.718H171.361L174.701 166.388V171.4L179.712 169.729L183.052 174.741L198.084 176.412L194.744 183.094L198.084 186.435L194.744 194.788L199.754 198.129L198.084 203.141L213.116 211.494L216.456 208.153L219.797 211.494Z" fill="#306EE8" fill-opacity="0.5" stroke="#0000FF" stroke-opacity="0.4" stroke-linecap="round" stroke-linejoin="round"/>
<path id="8303" class="district" name="Mỹ Xuyên" fill-rule="evenodd" clip-rule="evenodd" d="M231.488 346.812H224.807L199.754 360.176L191.403 351.824V341.8L183.052 330.106L176.372 331.776L178.042 336.788L174.701 338.459L171.361 335.118L169.691 345.141H166.35L168.02 350.153L156.329 348.482L142.967 336.788L147.978 331.776L139.627 325.094L137.957 326.765L136.287 323.424L139.627 320.082L136.287 316.741L134.616 318.412L129.606 308.388L134.616 305.047L132.946 300.035L142.967 290.012L144.638 281.659L164.68 274.976L168.02 276.647V279.988L169.691 269.965L188.063 268.294L178.042 258.271L179.712 253.259H211.446L209.776 251.588L216.456 239.894L229.818 228.2L228.148 226.529L236.499 219.847L234.829 218.176L254.871 233.212H258.212L263.222 224.859L271.573 221.518L273.243 224.859L279.924 223.188L276.584 228.2L281.594 231.541L278.254 234.882L284.935 246.576L281.594 249.918L276.584 244.906L266.563 246.576L269.903 253.259L258.212 263.282V266.624L263.222 269.965V279.988L258.212 283.329L261.552 285L259.882 291.682L263.222 298.365V315.071L249.861 321.753L248.19 328.435H241.51L239.839 331.776L234.829 333.447L238.169 335.118L234.829 336.788L238.169 340.129L233.158 346.812H231.488Z" fill="#6130E8" fill-opacity="0.5" stroke="#0000FF" stroke-opacity="0.4" stroke-linecap="round" stroke-linejoin="round"/>
<path id="8302" class="district" name="Thạnh Trị" fill-rule="evenodd" clip-rule="evenodd" d="M101.212 341.8L99.5421 345.141H89.5208L79.4996 338.459L69.4784 341.8L64.4678 335.118H57.7869L61.1274 328.435L59.4572 326.765L47.7657 321.753L46.0955 328.435L27.7233 316.741L51.1061 273.306L56.1167 276.647H59.4572L61.1274 273.306L67.8082 274.976L71.1486 263.282H79.4996L81.1698 268.294L89.5208 264.953L91.1911 263.282L87.8506 259.941L91.1911 253.259L92.8613 254.929L99.5421 251.588L97.8719 246.576L116.244 239.894L139.627 234.882V238.224L144.638 243.235L149.648 241.565L156.329 246.576L164.68 243.235L173.031 246.576L176.372 249.918L178.042 258.271L188.063 268.294L169.691 269.965V279.988L166.35 278.318V274.976L144.638 279.988L141.297 295.024L139.627 293.353L136.287 295.024V298.365L134.616 296.694V303.376L131.276 305.047L132.946 306.718L129.606 310.059V313.4L139.627 320.082L136.287 323.424L137.957 325.094H127.936V328.435L126.265 326.765L117.914 335.118L106.223 336.788L99.5421 333.447L101.212 335.118V341.8Z" fill="#D030E8" fill-opacity="0.5" stroke="#0000FF" stroke-opacity="0.4" stroke-linecap="round" stroke-linejoin="round"/>
<path id="8301" class="district" name="Trần Đế" fill-rule="evenodd" clip-rule="evenodd" d="M299.967 303.376L289.945 311.729L284.935 310.059L271.573 316.741L261.552 313.4L263.222 298.365L259.882 291.682L261.552 286.671L258.212 285L263.222 279.988V271.635L258.212 266.624V263.282L269.903 253.259L266.563 246.576L276.584 244.906L281.594 249.918L284.935 246.576L278.254 234.882L281.594 231.541L276.584 226.529H283.265L289.945 218.176H301.637V221.518L308.318 219.847V216.506L309.988 219.847L313.328 218.176L318.339 221.518V224.859H321.679L326.69 233.212L335.041 236.553V244.906L346.732 241.565V234.882L360.094 238.224V233.212H365.105L363.435 228.2H371.786L373.456 224.859H385.147L391.828 221.518L416.881 279.988L406.86 283.329L403.519 298.365L366.775 331.776L343.392 311.729L335.041 310.059L316.669 298.365L308.318 301.706L301.637 300.035L299.967 303.376Z" fill="#E83092" fill-opacity="0.5" stroke="#0000FF" stroke-opacity="0.4" stroke-linecap="round" stroke-linejoin="round"/>
</g>
</svg>
