<svg width="553" height="469" viewBox="0 0 553 469" fill="none" xmlns="http://www.w3.org/2000/svg">
<g id="84" name="Trà Vinh">
<path id="8409" class="district" name="TP Trà Vinh" fill-rule="evenodd" clip-rule="evenodd" d="M335.688 138.5V145.375H337.981L339.127 153.396L344.858 152.25L346.004 162.563L332.25 166L331.104 162.563L320.788 163.708L319.642 156.833L307.034 152.25L299.01 145.375L293.279 147.667L292.133 144.229L294.425 143.083L295.572 139.646V135.063H293.279L307.034 133.917V130.479H309.326L308.18 117.875L310.472 116.729L309.326 114.438L304.741 113.292V109.854H300.156L295.572 96.1042L303.595 72.0417L294.425 64.0208L296.718 59.4375H301.303L308.18 56L329.957 66.3125L356.32 85.7917L366.636 111L365.489 115.583L340.273 90.375L335.688 94.9583L331.104 113.292L334.542 121.313V130.479L335.688 138.5Z" fill="#D147AC" fill-opacity="0.5" stroke="#0000FF" stroke-opacity="0.4" stroke-linecap="round" stroke-linejoin="round"/>
<path id="8408" class="district" name="thị xã Duyên Hải" fill-rule="evenodd" clip-rule="evenodd" d="M517.933 327.563L521.372 326.417L523.664 328.708L525.956 352.771L512.202 383.708L493.863 412.354L480.109 428.396L474.378 431.833H470.939L472.085 434.125L462.916 441L460.623 438.708L457.185 441L442.284 438.708L438.846 439.854V435.271L431.969 426.104L428.53 413.5L435.407 411.208L433.115 400.896L435.407 399.75L428.53 386L425.091 388.292L409.045 386L410.191 374.542L407.898 372.25V365.375L409.045 363.083L421.653 364.229V355.063H423.945L422.799 349.333L426.238 348.188V341.313L423.945 339.021L429.676 334.438L428.53 328.708H431.969L442.284 322.979V325.271L453.746 322.979L454.892 318.396H459.477L474.378 309.229V304.646L481.255 300.063V297.771L490.424 288.604L495.009 278.292L501.886 247.354L524.81 272.563L511.056 287.458L514.494 290.896L517.933 317.25L516.787 326.417L517.933 327.563Z" fill="#D1475A" fill-opacity="0.5" stroke="#0000FF" stroke-opacity="0.4" stroke-linecap="round" stroke-linejoin="round"/>
<path id="8407" class="district" name="Càng Long" fill-rule="evenodd" clip-rule="evenodd" d="M154.59 172.875L147.713 152.25L158.028 137.354L148.859 132.771L135.105 122.458L151.151 101.833L152.297 85.7917L150.005 77.7708L153.444 67.4583V49.125L167.198 54.8542L201.584 47.9792L203.876 49.125L206.169 57.1458L211.899 61.7292L213.046 59.4375H215.338L214.192 61.7292L216.484 62.875L219.923 57.1458H225.654L227.946 53.7083L234.823 50.2708L233.677 34.2292L226.8 33.0833L230.239 29.6458L229.092 21.625L232.531 19.3333H230.239L232.531 7.875H234.823V5.58333L241.701 1L257.747 6.72917L282.963 27.3542L300.156 49.125L308.18 56L302.449 59.4375H296.718L294.425 61.7292V64.0208L303.595 72.0417L295.572 96.1042L296.718 100.687L293.279 107.562L285.256 111L286.402 114.437L284.11 117.875L277.232 120.167L266.917 127.042L262.332 133.917H260.04L262.332 139.646L261.186 141.937L245.139 139.646V141.937L241.701 143.083L237.116 151.104L238.262 156.833L221.069 164.854L213.046 166L210.753 168.292L208.461 166H205.022L203.876 161.417L195.853 164.854L194.707 160.271L176.368 163.708L184.391 184.333L177.514 187.771L171.783 186.625V183.187L161.467 184.333L155.736 175.167L154.59 172.875Z" fill="#D18847" fill-opacity="0.5" stroke="#0000FF" stroke-opacity="0.4" stroke-linecap="round" stroke-linejoin="round"/>
<path id="8406" class="district" name="Cầu Kè" fill-rule="evenodd" clip-rule="evenodd" d="M154.59 172.875L161.467 184.333L170.637 183.187L171.783 186.625H178.66L180.952 187.771V190.062L177.514 192.354L176.368 199.229H174.075L176.368 200.375L175.221 204.958H170.637L155.736 221L148.859 226.729H146.566L147.713 234.75L146.566 235.896L144.274 233.604H139.689L137.397 235.896L139.689 238.187L137.397 242.771L127.081 243.917V246.208L129.374 247.354L123.643 254.229L129.374 258.812L125.935 263.396L133.958 270.271V280.583L124.789 272.562L100.719 259.958L83.5259 237.042L59.4558 217.562L39.9706 191.208L37.6782 183.187L1 135.062L10.1695 136.208L23.9239 146.521L29.6548 153.396L34.2396 148.812L38.8244 149.958L53.7249 140.792L51.4325 133.917L58.3096 127.042L69.7716 131.625L78.9411 122.458L86.9645 119.021L88.1107 115.583L93.8416 114.437L105.304 116.729L113.327 104.125L148.859 132.771L158.028 137.354L147.713 152.25L154.59 170.583V172.875Z" fill="#B7E830" fill-opacity="0.5" stroke="#0000FF" stroke-opacity="0.4" stroke-linecap="round" stroke-linejoin="round"/>
<path id="8405" class="district" name="Cầu Ngang" fill-rule="evenodd" clip-rule="evenodd" d="M375.805 341.313V335.583L370.074 324.125V321.833L372.367 320.688L371.22 319.542L376.951 316.104L375.805 313.813L383.828 317.25L389.559 316.104L387.267 312.667L382.682 311.521L384.975 310.375L381.536 302.354L383.828 301.208L382.682 298.917L380.39 300.063L378.097 293.188L367.782 294.333L366.636 292.042L352.881 300.063L351.735 297.771L348.296 300.063H341.419L340.273 296.625L339.127 297.771L335.688 294.333L325.373 274.854L316.203 276L311.618 269.125L315.057 267.979L320.788 259.958L325.373 261.104L327.665 256.521L326.519 243.917L332.25 246.208L337.981 243.917L349.443 229.021L356.32 226.729L355.174 224.438L358.612 198.083L370.074 194.646L378.097 188.917L380.39 190.063L391.852 185.479H396.437L399.875 188.917L411.337 186.625L412.483 184.333L405.606 166V163.708L411.337 157.979L441.138 186.625L450.308 191.208L482.401 223.292L501.886 247.354L495.009 278.292L490.424 288.604L481.255 297.771V300.063L474.378 304.646V309.229L459.477 318.396H454.892L453.746 322.979L442.284 325.271V322.979L438.846 321.833L413.629 325.271L411.337 327.563L409.045 326.417L375.805 343.604V341.313Z" fill="#49E830" fill-opacity="0.5" stroke="#0000FF" stroke-opacity="0.4" stroke-linecap="round" stroke-linejoin="round"/>
<path id="8404" class="district" name="Châu Thành" fill-rule="evenodd" clip-rule="evenodd" d="M482.401 223.292L450.308 191.208L441.138 186.625L411.337 157.979L405.606 162.562L406.752 171.729L412.483 184.333L411.337 186.625L399.875 188.917L396.437 185.479H391.852L380.39 190.062L379.244 188.917L370.074 194.646L358.612 198.083L356.32 226.729L349.443 229.021L337.981 242.771L332.25 246.208L324.226 242.771L312.764 245.062L299.01 240.479L300.156 242.771H296.718L293.279 237.042L281.817 233.604L280.671 234.75L276.086 229.021L279.525 222.146L273.794 208.396V203.812H271.502L268.063 196.937L266.917 198.083L263.478 195.792L262.332 199.229L261.186 196.937L257.747 199.229L258.893 200.375L248.578 204.958L247.431 202.667H243.993L241.701 200.375L238.262 201.521L233.677 183.187L237.116 182.042L232.531 171.729L229.092 175.167L224.508 162.562L238.262 156.833L237.116 151.104L245.139 139.646L261.186 141.937L262.332 140.792L260.04 133.917H262.332L266.917 127.042L277.232 120.167L284.11 117.875L286.402 114.437L285.256 112.146L288.694 108.708L293.279 107.562L296.718 100.687L300.156 106.417V109.854H303.595L304.741 113.292L309.326 114.437L310.472 116.729L308.18 117.875L309.326 129.333L307.034 130.479V133.917H293.279L295.572 135.062L294.425 143.083L292.133 144.229L293.279 147.667L299.01 145.375L307.034 152.25L319.642 156.833L320.788 163.708L331.104 162.562L332.25 166L346.004 162.562L344.858 152.25L339.127 153.396L337.981 145.375H335.688L333.396 124.75L334.542 122.458L331.104 113.292L335.688 94.9583L340.273 90.375L365.489 115.583L366.636 111L356.32 85.7917L407.898 119.021L438.846 132.771L460.623 152.25L481.255 178.604L520.225 211.833L552.319 248.5L524.81 272.562L490.424 232.458L482.401 223.292Z" fill="#30E886" fill-opacity="0.5" stroke="#0000FF" stroke-opacity="0.4" stroke-linecap="round" stroke-linejoin="round"/>
<path id="8403" class="district" name="huyện Duyên Hải" fill-rule="evenodd" clip-rule="evenodd" d="M434.261 429.542L438.846 435.271V439.854L442.284 438.708L457.185 441L460.623 438.708L462.916 441L448.015 450.167L399.875 466.208L383.828 468.5L381.536 467.354L383.828 465.063L380.39 461.625H378.097L360.905 468.5L352.881 467.354L348.296 463.917V451.313L340.273 445.583L317.349 422.667L299.01 412.354L290.987 420.375L268.063 406.625L270.355 403.188L274.94 400.896L311.618 392.875L305.887 372.25L316.203 363.083L312.764 347.042L340.273 337.875L370.074 324.125L376.951 339.021L375.805 343.604L396.437 333.292L402.168 328.708L409.045 326.417L411.337 328.708L412.483 325.271L438.846 321.833L442.284 322.979L428.53 328.708L429.676 334.438L423.945 339.021L426.238 341.313V348.188L422.799 349.333V364.229L409.045 363.083L407.898 365.375V372.25L410.191 374.542L409.045 386L425.091 388.292L428.53 386L435.407 399.75L433.115 400.896L436.553 411.208H431.969L430.822 413.5H428.53L431.969 426.104L434.261 429.542Z" fill="#30DCE8" fill-opacity="0.5" stroke="#0000FF" stroke-opacity="0.4" stroke-linecap="round" stroke-linejoin="round"/>
<path id="8402" class="district" name="Tiểu Cần" fill-rule="evenodd" clip-rule="evenodd" d="M245.139 267.979L239.408 269.125L240.554 278.292L237.116 279.437L235.97 277.146L232.531 276L215.338 280.583L214.192 279.437L210.753 280.583L211.899 285.167L209.607 287.458L205.022 288.604L203.876 284.021L196.999 290.896L193.56 292.042L191.268 286.312L188.976 287.458L187.829 292.042L170.637 297.771L168.344 294.333L152.297 301.208L133.958 280.583V270.271L125.935 263.396L129.374 258.812L123.643 254.229L129.374 247.354L127.081 243.917L137.397 242.771L139.689 240.479L137.397 235.896L139.689 233.604H144.274L146.566 235.896V226.729H148.859L155.736 221L170.637 204.958H175.221L176.368 200.375H174.075L177.514 192.354L180.952 190.062V187.771L178.66 186.625L184.391 184.333L176.368 163.708L194.707 160.271L195.853 164.854L203.876 161.417L205.022 164.854L210.753 168.292L213.046 166L221.069 164.854L224.508 162.562L229.092 175.167L232.531 171.729L237.116 182.042L233.677 183.187L238.262 200.375L247.431 202.667V204.958L256.601 202.667L258.893 200.375L257.747 199.229L261.186 196.937L262.332 199.229L263.478 195.792L266.917 198.083L268.063 196.937L271.502 203.812H273.794V208.396L279.525 222.146L276.086 229.021L280.671 234.75L281.817 233.604L293.279 237.042L297.864 245.062L293.279 246.208L294.425 250.792L286.402 255.375L266.917 259.958L258.893 263.396V266.833L246.285 267.979H245.139Z" fill="#306EE8" fill-opacity="0.5" stroke="#0000FF" stroke-opacity="0.4" stroke-linecap="round" stroke-linejoin="round"/>
<path id="8401" class="district" name="Trà Cú" fill-rule="evenodd" clip-rule="evenodd" d="M304.741 395.167L274.94 400.896L270.355 403.188L268.063 406.625L249.724 395.167L216.484 366.521L184.391 335.583L152.297 301.208L168.344 294.333L170.637 297.771L187.829 292.042V287.458L190.122 286.313L193.56 289.75V292.042L203.876 284.021L205.022 288.604L209.607 287.458L211.9 285.167L210.753 280.583L214.192 279.438L215.338 280.583L232.531 276L237.116 279.438L240.554 278.292L239.408 269.125L258.893 266.833V263.396L292.133 251.938L294.425 250.792L293.279 246.208L297.864 245.063L296.718 242.771H300.156L299.01 240.479L309.326 245.063L323.08 242.771L326.519 243.917L328.811 254.229L325.373 261.104L320.788 259.958L316.203 264.542V266.833L311.618 269.125L313.911 273.708L316.203 276L325.373 274.854L335.688 294.333L339.127 297.771L340.273 296.625L341.419 300.063L351.735 297.771L352.881 300.063L366.636 292.042L367.782 294.333L378.097 293.188L380.39 300.063L382.682 298.917L383.828 301.208L381.536 302.354L384.975 310.375H382.682L387.267 312.667L389.559 316.104L383.828 317.25L376.951 313.813V316.104L371.22 319.542L372.367 320.688L370.074 321.833V324.125L340.273 337.875L312.764 347.042L316.203 363.083L309.326 366.521V369.958L304.741 372.25L311.618 392.875L304.741 395.167Z" fill="#6130E8" fill-opacity="0.5" stroke="#0000FF" stroke-opacity="0.4" stroke-linecap="round" stroke-linejoin="round"/>
</g>
</svg>
