<svg width="348" height="449" viewBox="0 0 348 449" fill="none" xmlns="http://www.w3.org/2000/svg">
<g id="85" name="Ninh Thuận">
<path id="8507" class="district" name="TP Phan Rang" fill-rule="evenodd" clip-rule="evenodd" d="M243.34 319.057L246.142 321.859L243.34 327.464L237.737 331.667V328.865H241.939L240.538 324.661L229.332 326.062L226.53 321.859L219.526 323.26L213.923 320.458L216.725 317.656L219.526 320.458L220.927 313.452L215.324 310.65L209.721 302.243H202.717L199.915 306.447L192.911 300.842L198.514 298.04L197.113 293.836L194.312 295.238L191.51 292.435L194.312 291.034L197.113 284.028L187.308 274.221L201.316 257.407L213.923 271.418L205.518 284.028H212.522L215.324 286.831L218.126 285.43L233.534 295.238H243.34L240.538 299.441L244.741 300.842L241.939 314.853L243.34 319.057Z" fill="#D147AC" fill-opacity="0.5" stroke="#0000FF" stroke-opacity="0.4" stroke-linecap="round" stroke-linejoin="round"/>
<path id="8506" class="district" name="Bắc Ái" fill-rule="evenodd" clip-rule="evenodd" d="M184.506 258.808L180.304 236.39L171.899 230.785L169.097 225.181L160.692 222.379H145.283L136.879 215.373L134.077 208.367L128.474 205.565L129.874 204.164L124.271 195.757V183.147L118.668 173.339L113.065 167.735V164.932L108.862 162.13L107.462 163.531L104.66 157.927L103.259 159.328L97.6559 156.526V153.723L79.4453 128.503H66.8381L57.0324 132.706L55.6316 125.701L58.4332 114.492L55.6316 111.689L57.0324 106.085L66.8381 94.8758L68.2389 87.8701L65.4372 80.8645L71.0405 72.4577L72.4413 65.452H78.0445L82.247 58.4464L79.4453 50.0396L80.8462 45.8362L78.0445 40.2317L62.6356 24.8192L72.4413 19.2147V10.8079L78.0445 9.40679V6.60452H85.0486L90.6518 2.40113L93.4534 5.20339H108.862L110.263 8.00565L114.466 1L121.47 3.80226L118.668 24.8192L124.271 31.8249L122.87 34.6271H125.672V37.4294L122.87 38.8305L127.073 43.0339V50.0396L131.275 57.0452L127.073 62.6498L145.283 75.2599L153.688 78.0622L156.49 82.2656L155.089 93.4746L149.486 97.678L152.287 101.881L150.887 104.684H160.692L163.494 108.887L166.296 107.486L171.899 111.689V114.492H181.704L185.907 111.689L191.51 118.695L201.316 120.096L205.518 122.898V125.701L212.522 129.904L223.729 131.305L230.733 127.102L239.138 134.107H246.142L253.146 139.712L258.749 159.328L255.947 167.735L257.348 170.537L250.344 174.74L247.543 173.339L225.13 190.153L219.526 209.769L212.522 216.774L223.729 230.785L219.526 232.187L223.729 234.989L226.53 233.588L229.332 250.401L209.721 265.814L201.316 257.407L188.709 253.204L185.907 257.407L184.506 258.808Z" fill="#D1475A" fill-opacity="0.5" stroke="#0000FF" stroke-opacity="0.4" stroke-linecap="round" stroke-linejoin="round"/>
<g id="8505" class="district" name="Ninh Hải">
<path fill-rule="evenodd" clip-rule="evenodd" d="M244.741 303.644V300.842H240.538L243.34 295.237L230.733 293.836L225.13 288.232L218.126 285.43L216.725 286.831L212.522 282.627L209.721 285.43L205.518 284.028L213.923 271.418L209.721 265.814L229.332 250.401L232.134 258.808L236.336 263.011L243.34 264.413V261.61H247.543L248.943 264.413L250.344 257.407L254.547 254.605V249L257.348 244.797V264.413L254.547 270.017L257.348 272.819L262.951 270.017L272.757 271.418V275.622L275.559 274.221L279.761 279.825L283.964 281.226L290.968 278.424L295.17 271.418L292.368 244.797L295.17 234.989L292.368 229.384L300.773 222.379L302.174 213.972L325.988 198.559L337.194 206.966L339.996 215.373H345.599L341.397 219.576H347L345.599 232.187L341.397 234.989L337.194 233.588L334.393 236.39L330.19 229.384L328.789 230.785L332.992 239.192L327.389 244.797V247.599H324.587L325.988 251.802L321.785 256.006H318.984L316.182 275.622L313.381 281.226L314.781 282.627H310.579L303.575 289.633L299.372 305.045H296.571L293.769 309.249V314.853L292.368 309.249L275.559 302.243H268.555L265.753 305.045L254.547 302.243L255.947 306.447L250.344 300.842L246.142 302.243L244.741 303.644Z" fill="#D18847" fill-opacity="0.5"/>
<path d="M302.174 305.045L303.575 306.447M341.397 236.39V234.989M341.397 234.989L345.599 232.187L347 219.576H341.397L345.599 215.373H339.996L337.194 206.966L325.988 198.559L302.174 213.972L300.773 222.379L292.368 229.384L295.17 234.989L292.368 244.797L295.17 271.418L290.968 278.424L283.964 281.226L279.761 279.825L275.559 274.221L272.757 275.622V271.418L262.951 270.017L257.348 272.819L254.547 270.017L257.348 264.413V244.797L254.547 249V254.605L250.344 257.407L248.943 264.413L247.543 261.61H243.34V264.413L236.336 263.011L232.134 258.808L229.332 250.401L209.721 265.814L213.923 271.418L205.518 284.028L209.721 285.43L212.522 282.627L216.725 286.831L218.126 285.43L225.13 288.232L230.733 293.836L243.34 295.237L240.538 300.842H244.741V303.644L246.142 302.243L250.344 300.842L255.947 306.447L254.547 302.243L265.753 305.045L268.555 302.243H275.559L292.368 309.249L293.769 314.853V309.249L296.571 305.045H299.372L303.575 289.633L310.579 282.627H314.781L313.381 281.226L316.182 275.622L318.984 256.006H321.785L325.988 251.802L324.587 247.599H327.389V244.797L332.992 239.192L328.789 230.785L330.19 229.384L334.393 236.39L337.194 233.588L341.397 234.989ZM318.984 270.017L317.583 271.418" stroke="#0000FF" stroke-opacity="0.4" stroke-linecap="round" stroke-linejoin="round"/>
</g>
<path id="8504" class="district" name="Ninh Phước" fill-rule="evenodd" clip-rule="evenodd" d="M208.32 363.893L205.518 359.689L198.514 356.887L197.113 348.48L188.708 342.876L181.704 344.277L183.105 347.079L176.101 354.085L167.696 358.288L163.494 354.085H160.692V349.882L159.291 351.283L156.49 348.48L149.486 352.684L148.085 349.882L146.684 351.283L145.283 349.882L149.486 334.469H142.482L103.259 309.249L93.4534 296.639L92.0526 288.232L97.6559 284.028L106.061 270.017L136.879 275.622L146.684 268.616H163.494V282.627L167.696 281.226L174.7 286.831L190.109 289.633L194.312 295.237H198.514V298.04L192.911 300.842L195.713 303.644H198.514L199.915 306.447L202.717 302.243L206.919 300.842L211.121 303.644L213.923 310.65L220.927 313.452V319.057L219.526 320.458L216.725 317.656L213.923 320.458L219.526 323.26L226.53 321.859L229.332 326.062H241.939V328.865L236.336 330.266L237.737 331.667L234.935 348.48H222.328V363.893L219.526 362.492L212.522 365.294L211.121 359.689L208.32 363.893Z" fill="#B7E830" fill-opacity="0.5" stroke="#0000FF" stroke-opacity="0.4" stroke-linecap="round" stroke-linejoin="round"/>
<path id="8503" class="district" name="Ninh Sơn" fill-rule="evenodd" clip-rule="evenodd" d="M5.20241 274.221L10.8057 275.622L17.8097 274.221L23.4129 270.017H36.0202L51.4291 261.61L59.834 263.011L65.4372 260.209L71.0405 246.198L73.8421 243.396L76.6437 244.797L71.0405 230.785V225.181L58.4332 216.774L57.0324 211.17L62.6356 201.362L59.834 197.158L44.4251 195.757L34.6194 190.153L40.2227 178.944L38.8218 177.543L45.8259 176.141L51.4291 169.136L52.8299 139.712L57.0324 132.706L65.4372 128.503H79.4453L97.6559 153.723V156.526L101.858 159.328L104.66 157.927L113.065 166.333L124.271 183.147V195.757L129.874 202.763L128.474 205.565L135.478 209.769L139.68 218.175L145.283 222.379H160.692L169.097 225.181L171.899 230.785L180.304 236.39L184.506 258.808L188.708 253.204L201.316 257.407L187.308 274.221L195.713 284.028L192.911 292.435L190.109 289.633L174.7 286.831L169.097 281.226L163.494 282.627L162.093 281.226L164.895 271.418L160.692 267.215L153.688 270.017H142.482L136.879 275.622L106.061 270.017L96.255 285.43L92.0526 288.232L93.4534 302.243L82.247 326.062L83.6478 327.464L78.0445 328.865L72.4413 334.469L69.6397 344.277L57.0324 348.48L45.8259 321.859L16.4089 319.057L0.999985 295.238V279.825L5.20241 275.622V274.221Z" fill="#49E830" fill-opacity="0.5" stroke="#0000FF" stroke-opacity="0.4" stroke-linecap="round" stroke-linejoin="round"/>
<path id="8502" class="district" name="Thuận Bắc" fill-rule="evenodd" clip-rule="evenodd" d="M248.943 264.413L247.543 260.209L246.142 263.011L244.741 261.61L243.34 264.413H240.538L230.733 257.407L226.53 241.994V233.588L223.729 234.989L219.526 232.187L223.729 230.785L212.522 216.774L218.126 212.571L223.729 201.362L225.13 191.554L232.134 183.147L241.939 178.944L247.543 173.339L250.344 176.141L257.348 170.537L255.947 167.735L258.749 159.328L267.154 173.339L274.158 177.542L275.559 183.147L282.563 185.949L283.964 188.752H302.174L324.587 184.548L328.789 185.949H325.988L323.186 190.153L325.988 198.559L304.976 211.17L302.174 213.972L300.773 222.379L292.368 229.384L295.17 234.989L292.368 244.797L295.17 270.017L290.968 278.424L285.364 281.226L279.761 279.825L275.559 274.22L272.757 275.622V272.819L267.154 270.017H262.951L260.15 272.819L254.547 271.418L257.348 261.61L255.947 254.605L258.749 251.802V247.599H255.947L257.348 244.797L254.547 249V254.605L250.344 257.407L248.943 264.413Z" fill="#30E886" fill-opacity="0.5" stroke="#0000FF" stroke-opacity="0.4" stroke-linecap="round" stroke-linejoin="round"/>
<path id="8501" class="district" name="Thuận Nam" fill-rule="evenodd" clip-rule="evenodd" d="M208.32 443.757L187.308 447.961V445.158L177.502 438.153V435.351L170.498 432.548L159.291 435.351L164.895 432.548L166.296 424.142H156.49L149.486 418.537V412.932L118.668 405.927V403.125L104.66 394.718L107.462 363.893H89.251L80.8461 368.096L78.0445 365.294L65.4372 362.492L57.0324 348.48L69.6397 345.678L72.4413 334.469L82.2469 327.463L90.6518 310.65L93.4534 296.639L103.259 309.249L142.482 334.469H149.486L145.283 348.48L149.486 352.684L153.688 349.882L155.089 351.283L156.49 348.48L159.291 351.283L160.692 349.882V355.486L163.494 354.085L167.696 358.288L170.498 355.486H176.101L183.105 348.48V342.876H187.308L195.713 345.678V354.085L205.518 359.69L208.32 363.893L211.121 359.69L212.522 365.294L219.526 362.492L220.927 363.893L222.328 349.882L234.935 348.48L236.336 363.893L233.534 377.904L236.336 387.712L232.134 393.317V403.125L239.138 421.339L225.13 426.944L222.328 433.949L209.721 443.757H208.32Z" fill="#30DCE8" fill-opacity="0.5" stroke="#0000FF" stroke-opacity="0.4" stroke-linecap="round" stroke-linejoin="round"/>
</g>
</svg>
