<svg width="598" height="415" viewBox="0 0 598 415" fill="none" xmlns="http://www.w3.org/2000/svg">
<g id="86" name="Bình Thuận">
<g id="8610" class="district" name="TP Phan Thiết">
<path fill-rule="evenodd" clip-rule="evenodd" d="M283.065 241.31L277.861 242.35L271.616 247.552L268.493 246.511L260.167 250.672L254.963 260.035L252.881 258.995V256.914L251.84 257.955L253.922 260.035L244.554 279.801L239.35 301.647L227.901 292.285L228.942 286.043L235.187 271.479L231.024 267.317L239.35 260.035L248.718 254.834L253.922 248.592V242.35H251.84L253.922 241.31V239.229L260.167 236.108L261.208 232.987L259.126 229.866L261.208 228.826L265.371 234.028L267.453 231.947L270.575 234.028H275.779L274.738 235.068L277.861 237.149H286.188L299.718 230.907L301.8 231.947L305.963 218.423L302.841 216.343L321.576 203.859L327.821 206.98H335.107L342.392 213.222L343.433 217.383H349.678L361.127 213.222L363.209 214.262L359.046 227.786V234.028H355.923L352.801 230.907L348.637 231.947L343.433 239.229L342.392 248.592L340.311 249.632L337.188 247.552V240.269L335.107 238.189L321.576 232.987L311.167 234.028L303.882 238.189L302.841 240.269L299.718 239.229L293.473 242.35H283.065V241.31Z" fill="#D147AC" fill-opacity="0.5"/>
<path d="M344.474 249.632L345.515 250.672M283.065 241.31L277.861 242.35L271.616 247.552L268.493 246.511L260.167 250.672L254.963 260.035L252.881 258.995V256.914L251.84 257.955L253.922 260.035L244.554 279.801L239.35 301.647L227.901 292.285L228.942 286.043L235.187 271.479L231.024 267.317L239.35 260.035L248.718 254.834L253.922 248.592V242.35H251.84L253.922 241.31V239.229L260.167 236.108L261.208 232.987L259.126 229.866L261.208 228.826L265.371 234.028L267.453 231.947L270.575 234.028H275.779L274.738 235.068L277.861 237.149H286.188L299.718 230.907L301.8 231.947L305.963 218.423L302.841 216.343L321.576 203.859L327.821 206.98H335.107L342.392 213.222L343.433 217.383H349.678L361.127 213.222L363.209 214.262L359.046 227.786V234.028H355.923L352.801 230.907L348.637 231.947L343.433 239.229L342.392 248.592L340.311 249.632L337.188 247.552V240.269L335.107 238.189L321.576 232.987L311.167 234.028L303.882 238.189L302.841 240.269L299.718 239.229L293.473 242.35H283.065V241.31Z" stroke="#0000FF" stroke-opacity="0.4" stroke-linecap="round" stroke-linejoin="round"/>
</g>
<path id="8609" class="district" name="La Gi" fill-rule="evenodd" clip-rule="evenodd" d="M145.675 349.501L139.43 353.662L126.94 357.824H121.736V340.139L110.287 331.816L117.573 332.856L124.859 329.736L130.063 330.776L133.185 328.695L130.063 326.615L136.308 320.373V318.292H138.39V308.929L133.185 298.526L163.37 294.365L172.737 304.768L171.696 306.849L173.778 311.01L183.145 312.05L182.104 315.171L186.268 317.252L187.309 323.494L178.982 325.574L171.696 329.736H164.41L146.716 348.461L145.675 349.501Z" fill="#D1475A" fill-opacity="0.5" stroke="#0000FF" stroke-opacity="0.4" stroke-linecap="round" stroke-linejoin="round"/>
<path id="8608" class="district" name="Bắc Bình" fill-rule="evenodd" clip-rule="evenodd" d="M368.413 205.94L363.209 214.262L362.168 213.222L349.678 217.383H343.433L342.392 213.222L335.107 206.98H327.821L323.657 204.899L326.78 202.819L328.862 178.892L344.474 177.851L343.433 163.287L346.556 160.166L344.474 156.005L337.188 151.844L331.984 146.642V144.562L314.29 139.36L304.922 138.32L302.841 136.239L300.759 128.957L293.473 122.715L270.575 112.312L271.616 109.191L273.698 108.151V102.95H275.779L276.82 107.111L282.024 101.909L301.8 96.7078L304.922 90.466L314.29 87.3451V85.2645L320.535 79.0227L327.821 76.9421L336.147 66.5391V63.4181L345.515 58.2166L346.556 53.0151L342.392 46.7733L338.229 42.6121L336.147 45.733H334.066L327.821 32.2091L333.025 27.0076L330.943 23.8867L336.147 17.6448L343.433 16.6045L351.76 10.3627H353.841L355.923 14.5239L360.086 11.403L365.291 20.7658L372.576 18.6852V15.5642L375.699 13.4836L380.903 15.5642L385.066 14.5239L388.189 11.403L393.393 17.6448H395.475L397.556 15.5642H406.924L412.128 12.4433L418.373 11.403L422.536 12.4433L423.577 14.5239L429.822 17.6448V19.7255L435.026 20.7658L437.108 17.6448H440.23L442.312 13.4836L443.353 65.4988L461.047 76.9421L464.17 84.2242V95.6675L458.965 106.071L460.006 116.474L457.925 122.715L449.598 133.118H447.516L445.435 142.481L442.312 143.521V146.642L441.271 145.602L429.822 151.844H423.577L420.455 156.005L421.495 166.408L414.21 182.013L410.046 196.577L404.842 200.738L399.638 196.577L392.352 198.657L387.148 204.899L386.107 202.819L378.821 203.859L375.699 201.778L370.495 204.899L368.413 205.94Z" fill="#D18847" fill-opacity="0.5" stroke="#0000FF" stroke-opacity="0.4" stroke-linecap="round" stroke-linejoin="round"/>
<path id="8607" class="district" name="Đức Linh" fill-rule="evenodd" clip-rule="evenodd" d="M46.7965 210.101L43.674 211.141L41.5924 209.06L31.1841 213.222L18.6941 202.819H14.5308L8.28581 197.617L5.16332 198.657L1 196.577L3.08166 194.496L9.32664 196.577V194.496L13.49 190.335L11.4083 187.214L15.5716 183.053L14.5308 182.013H19.7349L23.8983 172.65L19.7349 167.448H17.6533L16.6125 163.287L19.7349 161.207V158.086H24.9391L23.8983 154.965L27.0208 150.804L25.9799 148.723L30.1433 146.642V141.441L31.1841 140.401L32.2249 142.481L31.1841 138.32L33.2657 137.28V139.36L35.3474 136.239L33.2657 135.199L36.3882 132.078L34.3066 129.997L36.3882 128.957L40.5516 131.038L38.4699 127.917H40.5516L39.5107 122.715L40.5516 121.675L41.5924 123.756H43.674L47.8374 118.554H49.919L50.9599 114.393L47.8374 106.071L49.919 103.99V99.8287L47.8374 95.6675L55.1232 89.4257L58.2457 73.8212L66.5723 67.5793H68.654L84.2664 83.1839L100.92 87.3451L103.001 90.466L100.92 95.6675L101.961 98.7884L99.8789 102.95L95.7156 106.071L96.7564 113.353L93.6339 125.836L94.6747 127.917L85.3073 140.401H75.9398V142.481H78.0214L76.9806 145.602H79.0623L76.9806 149.763V158.086L70.7356 170.569L65.5315 175.771H61.3682L62.409 180.972L71.7765 190.335L67.6131 199.698L68.654 201.778L60.3273 205.94L59.2865 208.02L47.8374 210.101H46.7965Z" fill="#B7E830" fill-opacity="0.5" stroke="#0000FF" stroke-opacity="0.4" stroke-linecap="round" stroke-linejoin="round"/>
<path id="8606" class="district" name="Hàm Tân" fill-rule="evenodd" clip-rule="evenodd" d="M121.736 357.824L119.655 356.783L114.451 358.864L103.001 366.146L67.6131 381.751L66.5723 375.509L68.654 369.267L64.4906 363.025H66.5723V360.945L55.1232 339.098L59.2865 332.856L57.2048 329.736L58.2457 328.695L54.0823 322.453H52.0007V320.373L48.8782 317.252H46.7965L41.5924 306.849L42.6332 303.728L49.919 302.688L61.3682 295.406L68.654 287.083L70.7356 279.801L63.4498 266.277L64.4906 251.713L123.818 246.511L137.349 247.552L141.512 249.632L142.553 257.955L138.39 265.237L140.471 268.358H143.594L142.553 271.479L144.635 273.559L145.675 272.519L151.92 275.64L150.88 278.761L152.961 283.962H145.675V296.446L133.185 298.526L138.39 308.929V318.292H136.308V320.373L130.063 326.615L133.185 328.695L130.063 330.776L124.859 329.736L117.573 332.856L110.287 331.816L121.736 340.139L122.777 350.542L120.695 351.582L121.736 357.824Z" fill="#49E830" fill-opacity="0.5" stroke="#0000FF" stroke-opacity="0.4" stroke-linecap="round" stroke-linejoin="round"/>
<path id="8605" class="district" name="Hàm Thuận Bắc" fill-rule="evenodd" clip-rule="evenodd" d="M284.106 236.108L277.861 237.149L274.738 235.068L275.779 234.028H269.534L267.453 231.947L265.371 234.028L259.126 228.826L261.208 232.987L260.167 236.108L258.085 238.189L253.922 236.108L250.799 238.189L249.758 236.108L238.309 231.947L237.269 229.866L239.35 227.786L237.269 225.705H234.146L236.228 222.584L232.064 208.02L237.269 206.98L238.309 188.254H232.064L217.493 180.972L197.717 161.207L196.676 162.247L195.635 160.166H193.554L191.472 153.924L188.349 150.803L189.39 148.723L173.778 147.683L170.655 148.723L172.737 150.803L168.574 151.844L158.165 149.763L168.574 140.4V131.038L176.9 122.715L173.778 114.393V109.191L164.41 106.07L157.125 100.869L155.043 101.909L156.084 95.6675L159.206 90.466L162.329 89.4257V85.2644L165.451 80.0629V75.9017L163.37 72.7808L195.635 74.8614L206.044 77.9823L207.084 81.1032L211.248 82.1435L213.329 80.0629L241.432 89.4257L243.513 103.99L244.554 107.111L247.677 108.151L246.636 115.433L250.799 120.635V122.715L247.677 124.796V132.078L252.881 131.038V121.675L262.248 113.353L270.575 112.312L293.473 122.715L300.759 128.957L304.922 138.32L314.29 139.36L330.943 144.562L337.188 151.844L344.474 156.005L346.556 160.166L343.433 163.287L344.474 177.851L328.862 178.892L326.78 202.819L323.657 204.899L321.576 203.859L303.882 216.343L305.963 218.423L301.8 231.947L299.718 230.907L286.188 237.149L284.106 236.108Z" fill="#30E886" fill-opacity="0.5" stroke="#0000FF" stroke-opacity="0.4" stroke-linecap="round" stroke-linejoin="round"/>
<g id="8604" class="district" name="Hàm Thuận Nam">
<path fill-rule="evenodd" clip-rule="evenodd" d="M236.228 315.171L227.901 330.776L223.738 328.695L216.452 330.776L215.411 328.695L206.044 324.534L187.309 323.494L186.268 317.252L182.104 315.171L183.145 312.05H173.778L171.696 307.889L172.737 304.768L163.37 294.365L145.675 296.446V285.003L150.88 282.922L152.961 283.962L150.88 279.801L151.92 275.64L146.716 274.599L143.594 271.479V268.358H139.43L138.39 265.237L142.553 257.955L140.471 248.592H151.92L159.206 246.511H171.696L182.104 244.431L176.9 242.35L173.778 239.229V237.149H168.574L167.533 225.705L164.41 216.343L166.492 213.222L162.329 208.02L164.41 201.778L163.37 195.537L149.839 190.335L148.798 187.214L150.88 185.133L146.716 180.972L151.92 170.569L150.88 167.448H148.798L144.635 163.287L147.757 162.247L152.961 156.005L154.002 151.844L158.165 149.763L167.533 151.844L171.696 150.804L170.655 149.763L173.778 147.683L189.39 148.723L188.349 150.804L192.513 154.965L191.472 156.005L193.554 160.166H195.635L196.676 162.247L197.717 161.207L217.493 180.972L232.064 188.254H238.309L237.269 206.98L232.064 208.02L236.228 222.584L233.105 225.705H237.269L239.35 227.786L237.269 229.866L241.432 234.028L242.473 232.987L249.758 236.108L250.799 238.189L254.963 236.108L256.003 238.189L252.881 239.229L253.922 240.27L251.84 241.31L254.963 244.431L253.922 248.592L248.718 254.834L239.35 260.035L232.064 267.317L235.187 271.479L227.901 291.244L239.35 301.647L237.269 308.929L236.228 315.171Z" fill="#30DCE8" fill-opacity="0.5"/>
<path d="M227.901 332.856L226.86 331.816M236.228 315.171L227.901 330.776L223.738 328.695L216.452 330.776L215.411 328.695L206.044 324.534L187.309 323.494L186.268 317.252L182.104 315.171L183.145 312.05H173.778L171.696 307.889L172.737 304.768L163.37 294.365L145.675 296.446V285.003L150.88 282.922L152.961 283.962L150.88 279.801L151.92 275.64L146.716 274.599L143.594 271.479V268.358H139.43L138.39 265.237L142.553 257.955L140.471 248.592H151.92L159.206 246.511H171.696L182.104 244.431L176.9 242.35L173.778 239.229V237.149H168.574L167.533 225.705L164.41 216.343L166.492 213.222L162.329 208.02L164.41 201.778L163.37 195.537L149.839 190.335L148.798 187.214L150.88 185.133L146.716 180.972L151.92 170.569L150.88 167.448H148.798L144.635 163.287L147.757 162.247L152.961 156.005L154.002 151.844L158.165 149.763L167.533 151.844L171.696 150.804L170.655 149.763L173.778 147.683L189.39 148.723L188.349 150.804L192.513 154.965L191.472 156.005L193.554 160.166H195.635L196.676 162.247L197.717 161.207L217.493 180.972L232.064 188.254H238.309L237.269 206.98L232.064 208.02L236.228 222.584L233.105 225.705H237.269L239.35 227.786L237.269 229.866L241.432 234.028L242.473 232.987L249.758 236.108L250.799 238.189L254.963 236.108L256.003 238.189L252.881 239.229L253.922 240.27L251.84 241.31L254.963 244.431L253.922 248.592L248.718 254.834L239.35 260.035L232.064 267.317L235.187 271.479L227.901 291.244L239.35 301.647L237.269 308.929L236.228 315.171Z" stroke="#0000FF" stroke-opacity="0.4" stroke-linecap="round" stroke-linejoin="round"/>
</g>
<g id="8603" class="district" name="Phú Quí">
<path fill-rule="evenodd" clip-rule="evenodd" d="M596.355 414L595.314 409.839L597.396 410.879L596.355 412.96V414ZM593.233 396.315L595.314 401.516H597.396V404.637L594.273 406.718H590.11L583.865 402.557L579.702 390.073L581.783 387.992H591.151L593.233 396.315Z" fill="#306EE8" fill-opacity="0.5"/>
<path d="M596.355 414H597.396M596.355 414L595.314 409.839L597.396 410.879L596.355 412.96V414ZM595.314 408.799H596.355M593.233 386.952V385.912M594.273 389.033V387.992M592.192 385.912L591.151 386.952M593.233 396.315L595.314 401.516H597.396V404.637L594.273 406.718H590.11L583.865 402.557L579.702 390.073L581.783 387.992H591.151L593.233 396.315Z" stroke="#0000FF" stroke-opacity="0.4" stroke-linecap="round" stroke-linejoin="round"/>
</g>
<path id="8602" class="district" name="Tánh Linh" fill-rule="evenodd" clip-rule="evenodd" d="M90.5114 248.592L64.4907 251.713L63.4498 240.269L57.2049 223.625L56.164 224.665L54.0824 219.463L43.6741 211.141L50.9599 209.06H59.2865L60.3273 205.94L68.654 201.778L67.6132 199.698L71.7765 191.375L62.409 180.972L61.3682 174.73L65.5315 175.771L70.7356 170.569L76.9806 158.086V149.763L79.0623 146.642L76.9806 145.602L78.0215 142.481L75.9398 143.521L76.9806 139.36L85.3073 140.4L94.6747 127.917L93.6339 125.836L95.7156 123.756L94.6747 120.635L96.7564 116.474L95.7156 106.07L96.7564 103.99L99.8789 102.95L101.961 98.7884L100.92 96.7078L103.001 91.5063L100.92 87.3451L111.328 91.5063L120.696 86.3048L125.9 80.0629L124.859 76.942L126.94 72.7808L125.9 74.8614L127.981 76.942H130.063L131.104 73.8211L137.349 72.7808H163.37L165.451 75.9017V80.0629L162.329 84.2241V89.4257H159.206L156.084 95.6675L155.043 101.909L157.125 100.869L163.37 106.07L170.655 107.111L173.778 109.191V114.393L176.9 122.715L175.86 124.796H173.778V126.877L169.615 127.917L168.574 140.4H166.492L165.451 143.521L154.002 151.844L152.961 156.005L147.757 162.247L144.635 163.287L146.716 166.408L150.88 167.448L151.92 170.569L146.716 180.972L150.88 185.133L148.798 187.214L149.839 190.335L163.37 194.496L164.41 203.859L162.329 208.02L166.492 213.222L164.41 215.302L167.533 225.705L168.574 237.149H173.778V239.229L176.9 242.35L182.104 244.431L171.696 246.511H159.206L151.92 248.592L123.818 246.511L100.92 247.552L90.5114 248.592Z" fill="#6130E8" fill-opacity="0.5" stroke="#0000FF" stroke-opacity="0.4" stroke-linecap="round" stroke-linejoin="round"/>
<path id="8601" class="district" name="Tuy Phong" fill-rule="evenodd" clip-rule="evenodd" d="M546.395 126.877L545.354 129.997L542.232 128.957V126.877L546.395 125.836V126.877ZM444.394 151.844L428.781 157.045L421.495 166.408L420.455 165.368V156.005L423.577 151.844H429.822L441.271 145.602L442.312 146.642V143.521L445.435 142.481L444.394 140.4L447.516 134.159L457.925 122.715L460.006 117.514L458.965 106.071L464.169 95.6675V85.2645L461.047 76.9421L443.353 65.4987L442.312 13.4836L449.598 1L473.537 3.0806L480.823 20.7657L488.109 33.2494L497.476 35.33L498.517 37.4106L505.803 34.2897H519.333L517.252 57.1763L527.66 63.4181V65.4987L550.558 70.7002V74.8615L555.763 79.0227H562.008L563.048 82.1436L560.967 86.3048H552.64L544.313 92.5466L540.15 91.5063L537.028 93.5869L528.701 94.6272L524.538 102.95L516.211 107.111L513.089 125.836L508.925 132.078L506.844 144.562L499.558 148.723L498.517 151.844L496.435 148.723L497.476 147.683L494.354 144.562L477.7 140.4L466.251 144.562L464.169 147.683L463.129 144.562L450.639 145.602L444.394 151.844Z" fill="#D030E8" fill-opacity="0.5" stroke="#0000FF" stroke-opacity="0.4" stroke-linecap="round" stroke-linejoin="round"/>
</g>
</svg>
