<svg width="452" height="441" viewBox="0 0 452 441" fill="none" xmlns="http://www.w3.org/2000/svg">
<g id="88" name="Vĩnh Phúc">
<path id="8809" class="district" name="TP Phúc Yên" fill-rule="evenodd" clip-rule="evenodd" d="M382.899 366.613L376.223 370.616H365.54V377.288L361.534 369.282H356.193L353.522 363.944L354.858 359.941H350.852L361.534 354.604L360.199 351.935L348.181 347.932L349.516 345.263L352.187 346.598L354.858 339.926V331.92L358.864 326.582H370.881L360.199 321.245L362.869 319.911L360.199 314.573H356.193L357.528 313.239L354.858 306.567L353.522 303.898H350.852L357.528 298.561L354.858 295.892H350.852L354.858 287.886L362.869 290.555L364.205 289.22L361.534 286.552L365.54 285.217L364.205 281.214L369.546 277.211V271.874L366.875 270.539L369.546 265.202H365.54V259.865L369.546 255.862V250.524L373.552 249.19L370.881 246.521L373.552 242.518L370.881 231.843L380.229 225.171L377.558 222.503L378.893 218.5L376.223 211.828L381.564 189.144H384.234L381.564 183.806L393.582 171.797L396.252 174.466L406.935 167.794L413.611 166.46L421.623 171.797L428.3 183.806L430.97 194.481L425.629 206.49L433.641 209.159L434.976 214.497H438.982L440.318 223.837L451 226.506V230.509L448.329 231.843L449.665 242.518L441.653 249.19L437.647 261.199L428.3 273.208L418.953 293.223L414.947 291.889L410.941 295.892L409.605 294.558V297.227H406.935L408.27 301.23L405.599 299.895L401.593 303.898L402.929 309.236H400.258L398.923 313.239L392.246 315.907L396.252 319.911L389.576 322.579V338.591L396.252 341.26L392.246 347.932L402.929 349.266L404.264 353.269L402.929 354.604L396.252 351.935L401.593 357.272L390.911 365.279L386.905 359.941V365.279L384.234 367.947L382.899 366.613Z" fill="#D147AC" fill-opacity="0.5" stroke="#0000FF" stroke-opacity="0.4" stroke-linecap="round" stroke-linejoin="round"/>
<path id="8808" class="district" name="TP Vĩnh Yên" fill-rule="evenodd" clip-rule="evenodd" d="M281.415 322.579L274.739 319.911V317.242L277.41 315.908L274.739 311.904H272.068L270.733 307.901L262.721 309.236L258.715 307.901L257.38 303.898V307.901L253.374 309.236L252.039 303.898L246.697 306.567L240.021 305.233V309.236L236.015 310.57V313.239L232.009 315.908L228.003 314.573L225.332 313.239L221.326 298.561L225.332 293.224L222.662 290.555L225.332 287.886L222.662 285.217L221.326 286.552L222.662 282.549L228.003 277.211L230.674 281.214L238.685 277.211L230.674 267.871L226.668 269.205V266.536L230.674 265.202L232.009 267.871L238.685 265.202L237.35 259.865L248.033 257.196L250.703 253.193L257.38 251.859L262.721 243.852L274.739 239.849V243.852L278.745 245.187L282.751 243.852V241.184L289.427 243.852L297.439 261.199L305.451 263.868L304.116 274.543L309.457 286.552L296.104 297.227L293.433 301.23V313.239L289.427 311.904V314.573L292.098 315.908L286.757 318.576V321.245L282.751 323.914L281.415 322.579Z" fill="#D1475A" fill-opacity="0.5" stroke="#0000FF" stroke-opacity="0.4" stroke-linecap="round" stroke-linejoin="round"/>
<path id="8807" class="district" name="Bình Xuyên" fill-rule="evenodd" clip-rule="evenodd" d="M328.151 369.282L313.463 375.953L301.445 371.95L298.774 370.616V366.613L302.78 365.279L300.11 355.938L292.098 358.607L281.415 366.613L272.068 362.61L274.739 350.601L273.404 346.598L278.745 339.926L274.739 334.588L280.08 331.92L281.415 326.582H284.086L282.751 323.914L286.757 318.576L292.098 315.908L289.427 314.573V311.904L293.433 313.239L294.769 299.895L300.11 293.224L309.457 286.552L304.116 274.543L305.451 263.868L298.774 261.199L292.098 253.193L289.427 243.852L280.08 230.509L292.098 237.181L293.433 235.846L292.098 230.509L285.421 223.837L290.763 221.168L292.098 214.497L288.092 206.491L289.427 199.819L293.433 197.15L297.439 199.819L300.11 205.156L298.774 219.834L308.122 233.178L312.128 234.512V237.181L314.798 234.512L316.134 242.518L326.816 237.181V223.837L338.834 214.497L341.504 207.825L337.499 201.153V197.15L341.504 193.147L342.84 183.807L353.522 159.788L356.193 149.113L353.522 142.442L357.528 138.438L365.54 142.442L369.546 139.773L377.558 147.779L378.893 151.782L389.576 149.113L392.246 154.451L388.24 169.129L393.582 171.797L381.564 182.472L384.234 189.144H381.564L378.893 195.816L380.229 205.156L376.223 211.828L378.893 218.5L377.558 222.503L380.229 225.171L370.881 231.843V238.515L373.552 239.849V245.187L370.881 246.521L373.552 249.19L368.211 254.527L369.546 255.862L366.875 257.196L365.54 262.533L366.875 266.536L369.546 265.202L366.875 270.539L369.546 271.874V277.211H366.875L364.205 281.214L365.54 285.217L361.534 286.552L364.205 289.22L360.199 290.555L356.193 287.886L350.852 295.892H354.858L357.528 298.561L350.852 303.898H353.522L357.528 313.239L356.193 314.573H360.199L362.869 319.911L360.199 321.245L369.546 326.582H358.864L353.522 334.588L354.858 339.926L352.187 346.598H348.181L349.516 349.266L361.534 353.269L356.193 355.938H349.516L344.175 363.944L340.169 359.941L342.84 355.938L341.504 353.269L340.169 357.272H337.499L334.828 350.601L332.157 354.604L325.481 355.938L321.475 351.935L313.463 355.938L314.798 363.944L320.139 365.279L322.81 362.61L328.151 367.947V369.282Z" fill="#D18847" fill-opacity="0.5" stroke="#0000FF" stroke-opacity="0.4" stroke-linecap="round" stroke-linejoin="round"/>
<path id="8806" class="district" name="Lập Thạch" fill-rule="evenodd" clip-rule="evenodd" d="M151.89 278.546L141.208 286.552L142.543 289.22L138.537 293.223H133.196V289.22L125.184 287.886L129.19 286.552L131.861 282.549L129.19 273.208L118.507 259.865L123.849 257.196L129.19 247.855L122.513 242.518L118.507 234.512L121.178 227.84L119.843 213.162L125.184 210.494L123.849 203.822L122.513 202.487L119.843 205.156L117.172 201.153L123.849 199.819V191.813L127.855 187.809L126.519 178.469L119.843 169.129L126.519 162.457L122.513 155.785L109.16 150.448L110.496 146.445L106.49 131.767L99.813 125.095V122.426L103.819 118.423L106.49 107.748L103.819 91.736L98.4777 81.0612L101.148 75.7238L105.154 73.0551L121.178 67.7177H129.19L133.196 59.7115L137.202 62.3802L146.549 58.3772L147.884 54.3741L159.902 61.0459L163.908 57.0428L166.579 49.0367L169.249 50.3711L171.92 59.7115L165.243 66.3833L161.237 73.0551V77.0581L165.243 81.0612L169.249 79.7268L175.926 90.4017L187.944 89.0673L193.285 107.748L202.632 125.095L209.309 131.767L205.303 137.104V141.107L194.62 150.448V157.119L197.291 158.454V177.135L201.297 175.8V178.469L194.62 182.472L193.285 186.475H190.614L194.62 193.147L189.279 201.153L190.614 203.822L187.944 206.49H182.602L179.932 213.162L181.267 214.497L190.614 210.494V217.165L186.608 219.834L187.944 222.503H181.267L186.608 229.174V233.178L178.596 238.515L173.255 237.181L171.92 241.184H175.926L179.932 243.852V246.521L169.249 247.855L163.908 243.852L162.573 245.187L161.237 251.858H165.243L166.579 259.865L155.896 263.868L154.561 267.871L158.567 274.542L151.89 278.546Z" fill="#B7E830" fill-opacity="0.5" stroke="#0000FF" stroke-opacity="0.4" stroke-linecap="round" stroke-linejoin="round"/>
<path id="8805" class="district" name="Sông Lô" fill-rule="evenodd" clip-rule="evenodd" d="M46.4006 151.782L33.0475 158.454L30.3769 165.126L22.365 163.791L19.6944 161.122L18.359 158.454L21.0297 137.104L9.01187 95.7391L1 85.0643L2.33531 71.7207L18.359 75.7238L14.3531 70.3864L15.6884 65.049L21.0297 62.3803V59.7116H33.0475L45.0653 53.0398L58.4184 55.7085L62.4243 58.3772L65.095 66.3833L73.1068 67.7177L75.7774 65.049H87.7952L93.1365 70.3864L103.819 91.7361L106.49 106.414L103.819 118.423L99.8131 122.426V125.095L106.49 131.767L110.496 146.445L109.16 150.448L122.513 155.785L126.519 162.457L119.843 169.129L127.855 186.475L123.849 199.819L117.172 201.153L119.843 203.822H123.849L125.184 210.494L119.843 213.162L121.178 227.84L118.507 234.512L122.513 242.518L129.19 247.855L123.849 257.196L118.507 259.865L110.496 253.193L95.8071 247.855L77.1128 235.846L70.4362 225.171L67.7656 213.162V198.484L74.4421 179.803V169.129L67.7656 157.119L62.4243 151.782L51.7418 147.779L49.0712 150.448L46.4006 151.782Z" fill="#49E830" fill-opacity="0.5" stroke="#0000FF" stroke-opacity="0.4" stroke-linecap="round" stroke-linejoin="round"/>
<g id="8804" class="district" name="Tam Đảo">
<path fill-rule="evenodd" clip-rule="evenodd" d="M285.421 223.837L284.086 218.5H281.415L284.086 215.831L282.751 213.162L280.08 210.494L277.41 211.828L274.739 206.49L276.074 203.822L270.733 201.153L272.068 197.15L269.398 199.819L262.721 181.138H257.38L254.709 178.469L248.033 181.138L242.691 186.475L240.021 183.806L236.015 177.135V167.794L233.344 166.46L232.009 161.122L241.356 155.785L240.021 150.448L226.668 149.113L225.332 151.782H222.662V149.113L223.997 145.11L218.656 143.776L219.991 141.107L217.32 134.435L205.303 137.104L209.309 131.767L205.303 129.098L193.285 107.748L187.944 89.0673L175.926 90.4017L170.585 79.7269L165.243 81.0612L161.237 78.3925V73.0551L165.243 66.3833L171.92 61.0459L169.249 54.3741L174.591 49.0367L177.261 50.3711L178.596 46.368L185.273 41.0306L190.614 43.6993L194.62 42.365L202.632 18.3466L214.65 1L217.32 3.66871H223.997L229.338 6.33741L234.68 19.681L242.691 26.3527L254.709 42.365L268.062 45.0337L274.739 49.0367L277.41 54.3741V61.0459L281.415 66.3833V73.0551L286.757 75.7238L288.092 79.7269H292.098L304.116 86.3986L300.11 101.077L313.463 110.417L314.798 115.754L321.475 123.761L329.487 121.092L342.84 122.426L346.846 125.095L354.858 138.438L353.522 142.441L356.193 149.113L353.522 159.788L342.84 183.806L341.504 193.147L337.499 197.15V201.153L341.504 207.825L338.834 214.497L326.816 223.837V237.181L316.134 241.184L314.798 234.512L312.128 237.181V234.512L305.451 229.174L298.774 219.834L300.11 205.156L297.439 199.819L293.433 197.15L289.427 199.819L288.092 206.49L292.098 214.497L289.427 222.503L285.421 223.837Z" fill="#30E886" fill-opacity="0.5"/>
<path d="M222.662 149.113V151.782H225.332L226.668 149.113L240.021 150.448L241.356 155.785L232.009 161.122L233.344 166.46L236.015 167.794V177.135L240.021 183.806L242.691 186.475L248.033 181.138L254.709 178.469L257.38 181.138H262.721L269.398 199.819L272.068 197.15L270.733 201.153L276.074 203.822L274.739 206.49L277.41 211.828L280.08 210.494L282.751 213.162L284.086 215.831L281.415 218.5H284.086L285.421 223.837L289.427 222.503L292.098 214.497L288.092 206.49L289.427 199.819L293.433 197.15L297.439 199.819L300.11 205.156L298.774 219.834L305.451 229.174L312.128 234.512V237.181L314.798 234.512L316.134 241.184L326.816 237.181V223.837L338.834 214.497L341.504 207.825L337.499 201.153V197.15L341.504 193.147L342.84 183.806L353.522 159.788L356.193 149.113L353.522 142.441L354.858 138.438L346.846 125.095L342.84 122.426L329.487 121.092L321.475 123.761L314.798 115.754L313.463 110.417L300.11 101.077L304.116 86.3986L292.098 79.7269H288.092L286.757 75.7238L281.415 73.0551V66.3833L277.41 61.0459V54.3741L274.739 49.0367L268.062 45.0337L254.709 42.365L242.691 26.3527L234.68 19.681L229.338 6.33741L223.997 3.66871H217.32L214.65 1L202.632 18.3466L194.62 42.365L190.614 43.6993L185.273 41.0306L178.596 46.368L177.261 50.3711L174.591 49.0367L169.249 54.3741L171.92 61.0459L165.243 66.3833L161.237 73.0551V78.3925L165.243 81.0612L170.585 79.7269L175.926 90.4017L187.944 89.0673L193.285 107.748L205.303 129.098L209.309 131.767L205.303 137.104L217.32 134.435L219.991 141.107L218.656 143.776L223.997 145.11L222.662 149.113ZM222.662 149.113H218.656" stroke="#0000FF" stroke-opacity="0.4" stroke-linecap="round" stroke-linejoin="round"/>
</g>
<g id="8803" class="district" name="Tam Dương">
<path fill-rule="evenodd" clip-rule="evenodd" d="M265.392 242.518L260.05 246.521L257.38 251.858L250.703 253.193L248.033 257.196L237.35 259.865L238.685 265.202L232.009 267.871L230.674 265.202L228.003 266.536L226.668 269.205L230.674 267.871L238.685 277.211L230.674 281.214L228.003 277.211L221.326 286.552L222.662 285.217L225.332 287.886L222.662 290.555L225.332 293.223L221.326 298.561L225.332 313.239L223.997 314.573L221.326 309.236L218.656 310.57L215.985 306.567H211.979L210.644 303.898L209.309 305.233L203.967 299.895L202.632 293.223L205.303 291.889L203.967 290.555L207.973 289.22L206.638 286.552L209.309 283.883L205.303 278.546L211.979 273.208L199.961 266.536L197.291 269.205L193.285 266.536V269.205H186.608V265.202L183.938 263.868L182.602 259.865L185.273 258.53L183.938 255.862L174.591 251.858L179.932 246.521V243.852L171.92 241.184L173.255 238.515H178.596L186.608 233.178V229.174L181.267 222.503H186.608V219.834L190.614 217.165V210.494L181.267 214.497L179.932 213.162L182.602 206.49L190.614 205.156L189.279 201.153L194.62 193.147L190.614 186.475H193.285L194.62 182.472L201.297 179.803V175.8L198.626 177.135L195.956 166.46L197.291 159.788L194.62 157.119L193.285 150.448L205.303 141.107L206.638 135.77L209.309 137.104L217.321 134.435L219.991 141.107L218.656 143.776L223.997 145.11L222.662 149.113V151.782H225.332L226.668 149.113L240.021 150.448L241.356 155.785L238.685 158.454L232.009 159.788L233.344 166.46L236.015 167.794V177.135L240.021 183.806L242.691 186.475L254.709 178.469L257.38 181.138H262.721L269.398 199.819L272.068 197.15L270.733 201.153L276.074 203.822V210.494H280.08L284.086 215.831L281.415 218.5H284.086L285.421 223.837L292.098 229.174V237.181L288.092 233.178L280.08 230.509L286.757 241.184H284.086L282.751 243.852L280.08 242.518L278.745 245.187L274.739 239.849L268.062 241.184L265.392 242.518Z" fill="#30DCE8" fill-opacity="0.5"/>
<path d="M222.662 149.113L223.997 145.11L218.656 143.776L219.991 141.107L217.321 134.435L209.309 137.104L206.638 135.77L205.303 141.107L193.285 150.448L194.62 157.119L197.291 159.788L195.956 166.46L198.626 177.135L201.297 175.8V179.803L194.62 182.472L193.285 186.475H190.614L194.62 193.147L189.279 201.153L190.614 205.156L182.602 206.49L179.932 213.162L181.267 214.497L190.614 210.494V217.165L186.608 219.834V222.503H181.267L186.608 229.174V233.178L178.596 238.515H173.255L171.92 241.184L179.932 243.852V246.521L174.591 251.858L183.938 255.862L185.273 258.53L182.602 259.865L183.938 263.868L186.608 265.202V269.205H193.285V266.536L197.291 269.205L199.961 266.536L211.979 273.208L205.303 278.546L209.309 283.883L206.638 286.552L207.973 289.22L203.967 290.555L205.303 291.889L202.632 293.223L203.967 299.895L209.309 305.233L210.644 303.898L211.979 306.567H215.985L218.656 310.57L221.326 309.236L223.997 314.573L225.332 313.239L221.326 298.561L225.332 293.223L222.662 290.555L225.332 287.886L222.662 285.217L221.326 286.552L228.003 277.211L230.674 281.214L238.685 277.211L230.674 267.871L226.668 269.205L228.003 266.536L230.674 265.202L232.009 267.871L238.685 265.202L237.35 259.865L248.033 257.196L250.703 253.193L257.38 251.858L260.05 246.521L265.392 242.518L268.062 241.184L274.739 239.849L278.745 245.187L280.08 242.518L282.751 243.852L284.086 241.184H286.757L280.08 230.509L288.092 233.178L292.098 237.181V229.174L285.421 223.837L284.086 218.5H281.415L284.086 215.831L280.08 210.494H276.074V203.822L270.733 201.153L272.068 197.15L269.398 199.819L262.721 181.138H257.38L254.709 178.469L242.691 186.475L240.021 183.806L236.015 177.135V167.794L233.344 166.46L232.009 159.788L238.685 158.454L241.356 155.785L240.021 150.448L226.668 149.113L225.332 151.782H222.662V149.113ZM222.662 149.113H218.656" stroke="#0000FF" stroke-opacity="0.4" stroke-linecap="round" stroke-linejoin="round"/>
</g>
<path id="8802" class="district" name="Vĩnh Tường" fill-rule="evenodd" clip-rule="evenodd" d="M205.303 417.318L209.309 425.324L210.644 438.668L205.303 440.002L167.914 433.331L159.902 430.662L150.555 422.656L141.208 409.312L135.866 367.947L126.519 351.935L121.178 333.254L119.843 323.914H122.513L123.849 306.567L127.855 295.892L123.849 291.889V287.886H133.196L131.861 291.889L138.537 293.223L142.543 289.22L141.208 286.552L158.567 274.542L154.561 267.871L155.896 265.202L166.579 259.865L165.243 251.858H161.237L163.908 243.852L169.249 247.855H177.261L174.591 251.858L183.938 255.862L186.608 269.205H191.95L193.285 266.536L197.291 269.205L199.961 266.536L211.979 273.208L205.303 278.546L209.309 283.883L206.638 286.552L207.973 289.22L203.967 290.555L205.303 291.889L202.632 293.223L203.967 299.895L206.638 302.564L202.632 305.233L203.967 306.567L195.956 315.907L194.62 321.245L195.956 319.911L198.626 325.248L197.291 327.917L205.303 334.588L206.638 331.92L210.644 335.923L213.315 334.588V339.926L210.644 341.26L211.979 346.598L218.656 354.604L209.309 373.285V377.288L214.65 390.631L213.315 393.3L217.321 398.637L207.973 402.64L209.309 407.978L205.303 406.644L201.297 409.312L205.303 417.318Z" fill="#306EE8" fill-opacity="0.5" stroke="#0000FF" stroke-opacity="0.4" stroke-linecap="round" stroke-linejoin="round"/>
<path id="8801" class="district" name="Yên Lạc" fill-rule="evenodd" clip-rule="evenodd" d="M217.321 435.999L210.644 438.668L209.309 425.325L201.297 409.312L205.303 406.644L209.309 407.978L207.973 402.64L217.321 398.637L213.315 393.3L214.65 390.631L209.309 373.285L218.656 354.604L211.979 347.932L210.644 342.595L213.315 339.926V334.588L211.979 335.923L210.644 333.254L206.638 331.92L205.303 334.588L197.291 327.917V319.911L194.62 321.245L195.956 315.907L203.967 306.567L202.632 305.233L206.638 303.898L215.985 306.567L218.656 310.57L221.326 309.236L223.997 314.573L225.332 313.239L232.009 315.907L236.015 313.239V310.57L240.021 309.236V305.233L246.697 306.567L252.039 303.898L253.374 309.236L257.38 307.901V303.898L258.715 306.567L262.721 307.901H270.733L272.068 311.904H274.739L277.41 315.907L274.739 318.576L281.415 321.245L284.086 325.248L282.751 327.917L281.415 326.582L280.08 331.92L274.739 334.588L278.745 339.926L273.404 345.263L274.739 350.601L272.068 362.61L281.415 366.613L292.098 358.607L300.11 355.938L304.116 365.279H300.11L298.775 370.616L305.451 373.285L308.122 383.96L301.445 382.625L298.775 379.956L290.763 385.294L286.757 382.625L285.421 383.96L286.757 389.297L292.098 391.966L290.763 397.303L294.769 399.972V403.975L298.775 407.978L297.439 411.981H293.433L296.104 414.65L294.769 417.318L286.757 413.315L278.745 415.984L270.733 423.99L246.697 429.328L241.356 433.331L225.332 435.999H217.321Z" fill="#6130E8" fill-opacity="0.5" stroke="#0000FF" stroke-opacity="0.4" stroke-linecap="round" stroke-linejoin="round"/>
</g>
</svg>
