<svg width="410" height="472" viewBox="0 0 410 472" fill="none" xmlns="http://www.w3.org/2000/svg">
<g id="89" name="Hưng Yên">
<path id="8911" class="district" name="TP Hưng Yên" fill-rule="evenodd" clip-rule="evenodd" d="M212.969 412.809L214.462 417.286L211.476 415.794L223.418 418.778V423.254L227.896 426.238L226.404 429.222L217.447 426.238L218.94 430.714L224.911 433.698L221.925 436.682L239.838 430.714L245.809 432.206L254.766 439.667V442.651L220.433 456.079L199.534 471H192.071L174.158 460.555L154.752 438.175L150.274 427.73V421.762L156.245 400.873V385.952L142.81 363.571L139.825 360.587L120.419 354.619V348.651L129.376 350.143L145.796 341.19L144.303 348.651H147.288L150.274 339.698L160.723 342.682L171.172 351.635L172.665 350.143L166.694 345.667L169.679 344.175L168.187 341.19L175.65 339.698V345.667H178.636L180.129 348.651H186.1V362.079L189.085 365.063L201.027 363.571L205.505 372.524L202.52 374.016L211.476 372.524L215.954 377L217.447 375.508V382.968L214.462 385.952L218.94 393.413L215.954 396.397L205.505 397.889L214.462 409.825L212.969 412.809Z" fill="#D147AC" fill-opacity="0.5" stroke="#0000FF" stroke-opacity="0.4" stroke-linecap="round" stroke-linejoin="round"/>
<path id="8910" class="district" name="Mỹ Hào" fill-rule="evenodd" clip-rule="evenodd" d="M235.36 141.254L215.954 157.667V153.19L209.983 145.73L208.491 147.222L206.998 138.27H202.52L198.042 124.841H195.056V111.413L187.592 97.9841L189.085 96.492L184.607 92.0159L186.1 90.5238H178.636L163.709 84.5555L162.216 86.0476L156.245 80.0793L150.274 78.5873V63.6667L156.245 65.1587V60.6825H159.23L162.216 65.1587V59.1905L165.201 57.6984L171.172 60.6825V57.6984L175.65 56.2063L174.158 53.2222L192.071 51.7301L190.578 41.2857H187.592L190.578 35.3174L206.998 44.2698L209.983 38.3016L214.462 39.7936L218.94 42.7778L217.447 45.7619L221.925 47.254V50.2381H226.404V53.2222L235.36 54.7143V57.6984L239.838 59.1905H248.795L254.766 56.2063L256.258 59.1905L262.229 56.2063H278.649V60.6825H283.128L289.099 66.6508L287.606 71.127L280.142 72.619L278.649 77.0952H281.635V87.5397H278.649L277.157 96.492L284.62 100.968V105.444L271.186 112.905L272.678 114.397L269.693 118.873L263.722 121.857L266.708 133.794H260.737L251.78 129.317L235.36 141.254Z" fill="#D1475A" fill-opacity="0.5" stroke="#0000FF" stroke-opacity="0.4" stroke-linecap="round" stroke-linejoin="round"/>
<path id="8908" class="district" name="Ân Thi" fill-rule="evenodd" clip-rule="evenodd" d="M221.925 326.27L223.418 309.857L215.954 293.444L218.94 291.952L214.462 285.984H208.491L209.983 283L204.012 278.524L190.578 274.048L183.114 250.175H187.592L186.1 247.19L181.621 248.683L172.665 224.81L157.738 233.762L154.752 230.778L157.738 227.794L151.767 215.857L157.738 214.365V206.905H162.216L157.738 200.936L162.216 197.952L163.709 199.444L169.679 193.476V189L172.665 191.984L174.158 187.508L178.636 191.984L184.607 190.492L192.071 180.048V175.571L198.042 174.079L195.056 163.635L198.042 159.159L196.549 153.19L209.983 145.73L215.954 153.19V157.667L235.36 141.254L251.78 129.317H254.766L256.258 132.302L271.186 135.286L275.664 139.762V145.73L271.186 151.698L269.693 172.587L263.722 183.032L253.273 186.016L256.258 189V199.444L250.287 206.905L257.751 208.397L266.708 220.333L268.2 226.302L263.722 232.27L257.751 233.762L268.2 245.698L269.693 244.206V250.175L278.649 262.111L277.157 266.587L280.142 268.079L281.635 275.54H277.157L275.664 278.524L278.649 283L277.157 290.46L274.171 291.952L275.664 296.429H278.649V299.413H283.128L277.157 305.381V309.857L262.229 311.349L263.722 312.841L244.316 321.794L224.911 326.27H221.925Z" fill="#D18847" fill-opacity="0.5" stroke="#0000FF" stroke-opacity="0.4" stroke-linecap="round" stroke-linejoin="round"/>
<path id="8907" class="district" name="Khoái Châu" fill-rule="evenodd" clip-rule="evenodd" d="M126.39 287.476L124.897 291.952L98.0281 288.968L80.1152 290.46L83.1007 278.524L77.1297 268.079L38.3185 259.127L27.8693 245.698L18.9129 217.349L20.4056 202.429L27.8693 191.984L41.304 184.524L45.7822 177.063L47.2749 168.111L41.304 156.175L23.3911 144.238L29.3621 139.762L33.8403 141.254L45.7822 132.302L48.7677 133.794L47.2749 141.254L57.7241 139.762L54.7386 132.302L56.2314 123.349H78.6225L75.637 136.778H80.1152V142.746L77.1297 145.73L75.637 153.19L93.5498 154.683L90.5644 162.143H95.0426L92.0571 166.619H111.463L109.97 165.127L123.405 163.635L124.897 171.095L127.883 172.587V175.571L133.854 178.556L138.332 187.508L142.81 184.524L150.274 193.476L157.738 191.984L159.23 194.968L154.752 196.46L162.216 206.905H157.738L159.23 211.381L151.767 215.857L157.738 227.794L154.752 230.778L157.738 233.762L147.288 239.73L148.781 241.222L133.854 248.683L129.376 247.19L126.39 263.603L129.376 269.571L132.361 268.079L133.854 281.508L132.361 280.016V287.476L126.39 285.984V287.476Z" fill="#B7E830" fill-opacity="0.5" stroke="#0000FF" stroke-opacity="0.4" stroke-linecap="round" stroke-linejoin="round"/>
<path id="8906" class="district" name="Kim Đông" fill-rule="evenodd" clip-rule="evenodd" d="M201.027 345.667V357.603L205.505 359.095L202.52 365.063H190.578L186.1 362.079V348.651H180.129L178.636 345.667H175.65V339.698L168.187 341.19L169.679 344.175L166.694 345.667L172.665 350.143L171.172 351.635L160.723 342.683L150.274 339.698L147.288 348.651H144.303L145.796 341.19L130.868 350.143L120.419 348.651V354.619H103.999L93.5498 360.587L87.5789 359.095L78.6224 347.159L74.1442 330.746V327.762L83.1006 318.81L80.1152 290.46L98.028 288.968L124.897 291.952L126.39 287.476H132.361L135.347 275.54L132.361 268.079L129.376 269.571L126.39 263.603L129.376 247.19L133.854 248.683L148.781 241.222L147.288 239.73L166.694 226.302L172.665 224.81L181.621 248.683H187.592L183.114 250.175L184.607 262.111L190.578 274.048L204.012 278.524L209.983 283L208.491 285.984H214.462L218.94 291.952L215.954 293.444L223.418 309.857L221.925 326.27L215.954 327.762L217.447 330.746L211.476 332.238V329.254L205.505 327.762V333.73H201.027V345.667Z" fill="#49E830" fill-opacity="0.5" stroke="#0000FF" stroke-opacity="0.4" stroke-linecap="round" stroke-linejoin="round"/>
<path id="8905" class="district" name="Phù Cừ" fill-rule="evenodd" clip-rule="evenodd" d="M350.301 426.238L336.866 424.746L321.939 414.302V406.841H324.924L326.417 402.365L329.403 400.873L330.895 387.444L321.939 375.508H317.461V371.032H308.504L305.519 362.079L301.041 365.063V362.079H304.026L295.07 348.651L286.113 347.159L283.128 350.143L280.142 345.667L268.2 353.127L266.708 341.19L263.722 338.206L244.316 333.73V321.794L263.722 312.841L262.229 311.349L277.157 309.857V305.381L283.128 299.413H278.649V296.429H275.664L274.171 293.444L277.157 291.952L278.649 283L275.664 278.524L281.635 275.54L280.142 268.079L277.157 266.587L278.649 262.111L286.113 266.587L292.084 260.619H295.07L302.533 269.571H307.011L305.519 272.556L312.982 285.984H315.968L318.953 281.508H323.432L332.388 294.936L336.866 297.921L348.808 299.413L351.794 303.889L353.286 321.794H345.823L359.257 338.206L360.75 348.651L363.736 353.127L381.648 363.571L386.127 374.016L396.576 372.524L401.054 377L408.518 375.508V378.492L399.561 384.46L375.677 394.905L371.199 403.857L366.721 406.841L351.794 411.317L360.75 424.746L354.779 426.238H350.301Z" fill="#30E886" fill-opacity="0.5" stroke="#0000FF" stroke-opacity="0.4" stroke-linecap="round" stroke-linejoin="round"/>
<path id="8904" class="district" name="Tiên Lữ" fill-rule="evenodd" clip-rule="evenodd" d="M257.751 414.302L253.273 418.778L239.838 421.762L235.36 426.238L239.838 430.714L224.911 436.683H221.925L224.911 433.698L218.94 432.206L220.433 430.714L217.447 426.238L226.404 429.222L227.896 426.238L223.418 424.746V417.286L220.433 420.27L217.447 417.286H211.476H214.462V409.825L205.505 397.889L215.954 396.397L218.94 393.413L215.954 385.952L217.447 377L211.476 372.524L202.52 375.508L205.505 372.524L202.52 365.064L205.505 359.095L201.027 357.603L199.534 345.667L201.027 333.73H205.505V327.762L211.476 329.254V332.238L217.447 330.746L215.954 327.762L244.316 321.794V333.73L263.722 338.206L266.708 341.191L268.2 353.127L280.142 345.667L283.128 350.143L286.113 347.159L295.07 348.651L304.026 362.079H301.041V365.064L305.519 362.079L308.504 371.032H317.461V375.508H321.939L326.417 384.46L330.895 387.444V400.873L321.939 406.841V414.302L305.519 406.841L301.041 409.825V418.778L296.562 423.254L292.084 421.762L275.664 406.841L271.186 405.349L262.229 408.333L257.751 414.302Z" fill="#30DCE8" fill-opacity="0.5" stroke="#0000FF" stroke-opacity="0.4" stroke-linecap="round" stroke-linejoin="round"/>
<path id="8903" class="district" name="Văn Giang" fill-rule="evenodd" clip-rule="evenodd" d="M23.3911 144.238L5.47823 136.778L1.00002 129.317L2.49275 124.841L24.8838 103.952V100.968L17.4201 95L23.3911 83.0635L11.4492 71.127L15.9274 53.2222L24.8838 38.3016L42.7967 41.2857L48.7677 47.254L59.2168 45.7619L71.1587 48.746L72.6515 51.7301H77.1297V56.2063L81.6079 60.6825L87.5789 56.2063V48.746L93.5498 45.7619L112.955 65.1587L114.448 69.6349H123.405L126.39 77.0952L138.332 86.0476L127.883 96.4921L130.868 97.9841L129.376 99.4762L124.897 95L112.955 102.46H108.477L105.492 99.4762H96.5353V108.429L87.5789 109.921L78.6224 123.349H56.2313L54.7386 132.302L57.7241 139.762L47.2749 141.254L48.7677 133.794L45.7822 132.302L33.8403 139.762H29.362L23.3911 144.238Z" fill="#306EE8" fill-opacity="0.5" stroke="#0000FF" stroke-opacity="0.4" stroke-linecap="round" stroke-linejoin="round"/>
<g id="8902" class="district" name="Văn Lâm">
<path fill-rule="evenodd" clip-rule="evenodd" d="M221.925 50.2381V47.254L217.447 45.7619L218.94 42.7778L209.983 38.3016L206.998 44.2698L190.578 35.3175L187.592 41.2857H190.578L192.071 51.7302L174.158 53.2222L175.65 56.2063L171.172 57.6984V60.6825L165.201 57.6984L162.216 59.1905V65.1587L159.23 60.6825H156.245V65.1587L148.781 62.1746L147.288 66.6508L145.796 65.1587L142.81 68.1429L139.825 78.5873L133.854 81.5714L126.39 77.0952L123.405 69.6349H114.448L112.955 65.1587L93.5498 45.7619L87.5789 48.746V56.2063L81.6079 60.6825L77.1297 56.2063V41.2857L74.1442 38.3016V30.8413L78.6224 27.8571L74.1442 23.381L77.1297 20.3968H80.1152L81.6079 23.381L86.0861 21.8889L84.5934 15.9206L92.0571 9.95238L95.0426 12.9365H102.506L106.984 8.46032H120.419L121.912 11.4444H127.883L129.376 6.96825H133.854L138.332 15.9206L142.81 14.4286L147.288 17.4127L160.723 5.47619H169.679L171.172 1L174.158 3.98413L177.143 5.47619L178.636 9.95238L189.085 8.46032L196.549 14.4286H202.52L206.998 8.46032V3.98413L211.476 5.47619L212.969 1L226.404 12.9365L233.867 9.95238L238.345 14.4286H241.331V29.3492H254.766V32.3333H257.751L265.215 39.7936L260.737 45.7619L262.229 56.2063L256.258 59.1905L254.766 56.2063L239.838 59.1905L235.36 57.6984V54.7143L226.404 53.2222V50.2381H221.925Z" fill="#6130E8" fill-opacity="0.5"/>
<path d="M174.158 3.98413L171.172 1L169.679 5.47619H160.723L147.288 17.4127L142.81 14.4286L138.332 15.9206L133.854 6.96825H129.376L127.883 11.4444H121.912L120.419 8.46032H106.984L102.506 12.9365H95.0426L92.0571 9.95238L84.5934 15.9206L86.0861 21.8889L81.6079 23.381L80.1152 20.3968H77.1297L74.1442 23.381L78.6224 27.8571L74.1442 30.8413V38.3016L77.1297 41.2857V56.2063L81.6079 60.6825L87.5789 56.2063V48.746L93.5498 45.7619L112.955 65.1587L114.448 69.6349H123.405L126.39 77.0952L133.854 81.5714L139.825 78.5873L142.81 68.1429L145.796 65.1587L147.288 66.6508L148.781 62.1746L156.245 65.1587V60.6825H159.23L162.216 65.1587V59.1905L165.201 57.6984L171.172 60.6825V57.6984L175.65 56.2063L174.158 53.2222L192.071 51.7302L190.578 41.2857H187.592L190.578 35.3175L206.998 44.2698L209.983 38.3016L218.94 42.7778L217.447 45.7619L221.925 47.254V50.2381H226.404V53.2222L235.36 54.7143V57.6984L239.838 59.1905L254.766 56.2063L256.258 59.1905L262.229 56.2063L260.737 45.7619L265.215 39.7936L257.751 32.3333H254.766V29.3492H241.331V14.4286H238.345L233.867 9.95238L226.404 12.9365L212.969 1L211.476 5.47619L206.998 3.98413V8.46032L202.52 14.4286H196.549L189.085 8.46032L178.636 9.95238L177.143 5.47619L174.158 3.98413ZM174.158 3.98413L175.65 2.49206" stroke="#0000FF" stroke-opacity="0.4" stroke-linecap="round" stroke-linejoin="round"/>
</g>
<path id="8901" class="district" name="Yên Mĩ" fill-rule="evenodd" clip-rule="evenodd" d="M157.738 200.936L154.752 196.46L159.23 194.968L157.738 191.984L150.274 193.476L142.81 184.524L138.332 187.508L133.854 178.556L127.883 175.571L123.405 165.127L92.0571 166.619L95.0426 162.143H90.5643L93.5498 154.683H75.637V150.206L80.1152 142.746V136.778L75.637 138.27V130.81L87.5789 109.921L96.5353 108.429V99.4762H105.492L108.477 102.46H112.955L124.897 95L129.376 99.4762L130.868 97.9841L127.883 96.492L138.332 86.0476L133.854 81.5714L139.825 78.5873L142.81 74.1111V68.1428L145.796 65.1587L147.288 66.6508L148.781 62.1746L150.274 78.5873L156.245 80.0794L162.216 86.0476L163.709 84.5555L178.636 90.5238H186.1L184.607 92.0159L189.085 96.492L187.592 97.9841L195.056 111.413V124.841H198.042L202.52 138.27H206.998L208.491 141.254V147.222L196.549 153.19L198.042 159.159L195.056 163.635L198.042 174.079L192.071 175.571L193.563 180.048L184.607 190.492L178.636 191.984L174.158 187.508L172.665 191.984L169.679 189V193.476L163.709 199.444L162.216 197.952L157.738 200.936Z" fill="#D030E8" fill-opacity="0.5" stroke="#0000FF" stroke-opacity="0.4" stroke-linecap="round" stroke-linejoin="round"/>
</g>
</svg>
