<svg width="522" height="460" viewBox="0 0 522 460" fill="none" xmlns="http://www.w3.org/2000/svg">
<g id="90" name="Hà Nam">
<path id="9006" class="district" name="Phủ Lý" fill-rule="evenodd" clip-rule="evenodd" d="M185.851 260.04L189.306 282.491H185.851V291.125L180.668 292.852V296.306H175.485V289.398H168.575L170.302 272.129L159.937 265.221L156.482 270.402L147.844 263.494L142.661 251.406L135.751 253.133L139.206 258.313L134.023 256.587L130.568 249.679L135.751 247.952L139.206 242.771H144.389L132.296 218.594L135.751 220.321L140.934 213.413L151.299 216.867L156.482 213.413L153.027 209.959L154.754 206.505L159.937 204.778L153.027 190.963V178.874L146.116 173.694L147.844 168.513L154.754 166.786L158.209 170.24V166.786L163.392 165.059L166.847 168.513L178.94 158.151L191.033 159.878L192.761 151.243H197.944L192.761 137.428L208.309 135.701V139.155L225.585 146.063L223.857 151.243L235.95 161.605L234.223 156.424H241.133L248.043 166.786H242.86L239.405 177.148L251.498 194.417L254.953 196.144L275.684 187.509V184.055L284.322 187.509L282.595 201.325L268.774 206.505L272.229 215.14L279.14 220.321L289.505 222.048V242.771L284.322 244.498V249.679H277.412L273.957 242.771L261.864 235.863V249.679L254.953 253.133L222.13 254.86V251.406L215.219 254.86L211.764 249.679L199.671 254.86L187.578 253.133L185.851 260.04Z" fill="#D147AC" fill-opacity="0.5" stroke="#0000FF" stroke-opacity="0.4" stroke-linecap="round" stroke-linejoin="round"/>
<path id="9005" class="district" name="Bình Lục" fill-rule="evenodd" clip-rule="evenodd" d="M317.146 382.653L315.419 387.834L325.784 405.103L308.508 408.557L296.415 405.103L292.96 413.738V403.376L289.505 405.103L291.233 413.738L286.05 415.465L284.322 413.738L287.777 410.284H284.322L280.867 403.376H277.412L279.14 384.38L284.322 372.291L282.595 368.837H273.957L272.229 365.383L268.774 367.11L267.047 355.022L279.14 342.933L270.502 323.937V315.302L272.229 311.848L277.412 310.121L275.684 303.214L270.502 299.76V296.306H267.047V285.944L268.774 287.671L270.502 280.764L273.957 279.037L270.502 277.31L277.412 249.679H284.322V244.498L289.505 242.771V222.048L279.14 220.321L272.229 215.14L268.774 206.505L282.595 201.324L284.322 187.509L294.688 194.417L296.415 192.69L298.143 184.055L292.96 177.147L296.415 165.059L301.598 163.332L318.874 165.059L327.512 171.967L324.056 194.417L325.784 213.413L334.422 230.682L362.063 232.409L381.066 241.044L398.342 228.955H403.525L410.435 232.409L413.89 241.044L412.163 256.586L415.618 260.04L424.256 261.767L439.804 260.04L460.535 242.771L465.718 244.498L469.173 251.406L467.445 280.764H460.535L453.625 273.856L446.714 279.037H436.349L431.166 285.944L419.073 289.398L415.618 292.852L419.073 294.579V299.76H415.618L417.346 301.487L413.89 303.214L422.528 311.848L424.256 320.483L417.346 334.299L406.98 332.572L398.342 320.483L394.887 325.664H389.704L384.522 317.029L372.429 320.483L362.063 310.121L346.515 313.575L343.06 330.845L344.787 341.206L339.605 346.387L327.512 348.114L329.239 353.295L322.329 363.656L320.601 377.472L317.146 382.653Z" fill="#D1475A" fill-opacity="0.5" stroke="#0000FF" stroke-opacity="0.4" stroke-linecap="round" stroke-linejoin="round"/>
<path id="9004" class="district" name="Duy Tiên" fill-rule="evenodd" clip-rule="evenodd" d="M298.143 187.509L294.688 194.417L289.505 189.236L277.412 184.055L275.684 187.509L254.953 196.144L249.771 192.69L248.043 187.509L241.133 184.055L239.405 173.694L242.86 166.786H248.043L242.86 156.424H234.223L235.95 161.605L225.585 154.697V146.063L215.219 144.336L208.309 139.155V135.701L192.761 137.428L187.578 127.066L191.033 130.52H194.488V127.066H191.033V121.885L184.123 113.251H178.94L170.302 97.7084L172.03 85.6198L161.664 87.3468L154.754 76.9852L159.937 70.0774V47.6273L172.03 52.8081V47.6273L187.578 40.7195L189.306 37.2656L220.402 30.3579L223.857 37.2656V47.6273L220.402 52.8081L222.13 66.6236L237.678 71.8044V63.1697L241.133 57.9889L249.771 52.8081L263.591 51.0811V40.7195L272.229 32.0848L277.412 28.631L282.595 30.3579L280.867 33.8118H287.777L279.14 19.9963L287.777 16.5424L286.05 9.63468L296.415 1L318.874 7.90774L337.877 37.2656V54.535L332.694 68.3505L330.967 85.6198L336.149 97.7084L348.243 113.251H334.422L329.239 116.705L324.056 114.978L308.508 120.159L294.688 114.978L287.777 102.889L284.322 104.616L267.047 140.882L268.774 156.424L282.595 173.694L292.96 177.147L298.143 184.055V187.509Z" fill="#D18847" fill-opacity="0.5" stroke="#0000FF" stroke-opacity="0.4" stroke-linecap="round" stroke-linejoin="round"/>
<path id="9003" class="district" name="Kim Bảng" fill-rule="evenodd" clip-rule="evenodd" d="M135.751 258.313L121.93 261.767L118.475 266.948L120.203 273.856L116.748 285.944L108.11 291.125V299.76L104.654 303.214H94.289L90.8339 299.76L87.3787 301.487L77.0133 291.125L70.103 289.398L64.9203 282.49L63.1927 266.948L56.2824 270.402L52.8272 275.583H49.3721L39.0066 256.586L33.8239 258.313L18.2757 220.321L2.72757 201.324L1 187.509L33.8239 184.055L40.7342 161.605V149.516L49.3721 130.52L45.9169 127.066L56.2824 116.705L52.8272 102.889L56.2824 94.2545L82.196 76.9851V73.5313L63.1927 57.9889L66.6478 56.2619V52.808L90.8339 59.7158L89.1063 63.1697L94.289 66.6235L96.0166 63.1697L113.292 80.439L123.658 78.7121L140.934 82.1659L154.754 75.2582L161.664 87.3468L172.03 85.6198L170.302 97.7084L178.94 113.251H184.123L191.033 121.885V127.066H194.488V130.52H191.033L189.306 127.066L197.944 151.243H192.761L191.033 159.878L178.94 158.151L166.847 168.513L163.392 165.059L158.209 166.786V170.24L154.754 166.786L149.571 168.513L146.116 173.694L153.027 178.874V190.963L159.937 204.778L154.754 206.505L153.027 209.959L156.482 211.686L151.299 216.867L140.934 213.413L135.751 220.321L132.296 218.594L144.389 242.771H139.206L135.751 247.952L130.568 249.679L134.023 256.586L135.751 258.313Z" fill="#B7E830" fill-opacity="0.5" stroke="#0000FF" stroke-opacity="0.4" stroke-linecap="round" stroke-linejoin="round"/>
<path id="9002" class="district" name="Lý Nhân" fill-rule="evenodd" clip-rule="evenodd" d="M453.625 249.679L436.349 261.767H424.256L415.618 260.04L412.163 256.586L413.89 241.044L410.435 232.409L403.525 228.956H398.342L381.066 241.044L362.063 232.409L334.422 230.682L325.784 215.14L324.056 194.417L327.512 171.967L318.874 165.059L301.598 163.332L296.415 165.059L294.688 177.147L282.595 173.694L268.774 156.424L267.047 142.609L270.502 130.52L279.14 118.432L284.322 104.616L287.777 102.889L294.688 114.978L308.508 120.159L324.056 114.978L329.239 116.705L334.422 113.251H348.243L358.608 123.612L379.339 135.701H387.977L420.801 114.978L427.711 116.705L439.804 125.339L453.625 146.063V168.513L458.807 175.421L467.445 180.601L495.086 189.236L507.179 206.505L515.817 247.952V280.764L521 294.579L517.545 301.487H514.09L507.179 310.121L488.176 311.848L477.811 317.029L467.445 308.395L465.718 296.306L469.173 251.406L467.445 246.225L460.535 242.771L453.625 249.679Z" fill="#49E830" fill-opacity="0.5" stroke="#0000FF" stroke-opacity="0.4" stroke-linecap="round" stroke-linejoin="round"/>
<path id="9001" class="district" name="Thanh Liêm" fill-rule="evenodd" clip-rule="evenodd" d="M199.671 410.284L194.488 413.738L197.944 432.734L204.854 441.369H211.764L208.309 451.73L196.216 458.638H191.033L185.85 444.822L180.668 439.642L177.213 444.822H168.575L154.754 424.099H149.571V420.645L139.206 410.284L132.296 398.195L125.385 394.741L121.93 384.38H118.475L115.02 375.745L108.11 368.837L104.654 337.752V303.214L108.11 299.76V291.125L116.748 285.944L120.203 273.856L118.475 266.948L121.93 261.767L139.206 258.313L135.751 253.133L137.478 251.406H142.661L147.844 263.494L154.754 270.402L159.937 265.221L170.302 272.129L168.575 289.398H175.485V296.306H180.668V292.852L185.85 291.125V282.491H189.306L185.85 260.04L187.578 253.133L199.671 254.86L203.126 251.406L211.764 249.679L215.219 254.86L222.13 251.406V254.86L254.953 253.133L261.864 249.679V235.863L268.774 237.59L277.412 249.679L270.502 277.31L273.957 279.037L268.774 287.671L267.047 285.944V296.306H270.502V299.76L275.684 303.214L277.412 310.122H272.229L270.502 315.302L273.957 317.029L270.502 322.21V329.118L279.14 339.479V342.933L275.684 348.114L270.502 349.841V353.295H265.319L261.864 356.749L258.409 377.472L246.316 374.018L237.678 386.107L225.585 391.287L229.04 403.376L218.674 410.284L216.947 408.557L204.854 412.011L199.671 410.284Z" fill="#30E886" fill-opacity="0.5" stroke="#0000FF" stroke-opacity="0.4" stroke-linecap="round" stroke-linejoin="round"/>
</g>
</svg>
