<svg width="645" height="489" viewBox="0 0 645 489" fill="none" xmlns="http://www.w3.org/2000/svg">
<g id="92" name="Quảng nam">
<g class="district" id="9218" name="TP Hội An">
<path id="Vector" fill-rule="evenodd" clip-rule="evenodd" d="M624.386 109.837L626.694 113.298L623.233 112.145L624.386 109.837ZM536.701 53.2913L534.394 57.9072L533.241 55.5993L535.548 53.2913H536.701ZM544.777 39.4434L548.239 41.7514L547.085 44.0593L550.547 47.5214L559.776 49.8293V63.6772L557.469 64.8312L551.7 56.7532L549.392 57.9072L545.932 50.9833L547.085 49.8293L543.624 47.5214L541.317 49.8293L539.009 46.3674H536.701L540.162 41.7514L544.777 39.4434ZM522.856 39.4434L521.703 45.2134L519.395 42.9054L521.703 39.4434H522.856ZM477.86 91.373H470.938L467.477 92.5269L468.63 93.6809H465.169L462.862 91.373L461.708 92.5269V87.9109L462.862 89.0649L465.169 84.449L459.4 86.757L458.247 82.141L454.785 79.833L455.939 75.217L465.169 68.2932L467.477 71.7551L469.783 70.6011L472.091 64.8312L495.167 79.833L499.782 85.603L488.244 92.5269L480.168 90.2189L477.86 91.373ZM498.627 79.833L503.242 83.2951L497.474 79.833H498.627ZM560.93 68.2932V72.9091H558.623L557.469 71.7551L560.93 68.2932Z" fill="#D147AC" fill-opacity="0.5"/>
<path id="Vector_2" d="M532.086 60.2153H530.933M509.012 41.7514L507.858 42.9054M510.165 41.7514L511.319 42.9054M624.386 109.837L626.694 113.298L623.233 112.145L624.386 109.837ZM536.701 53.2913L534.394 57.9072L533.241 55.5993L535.548 53.2913H536.701ZM544.777 39.4434L548.239 41.7514L547.085 44.0593L550.547 47.5214L559.776 49.8293V63.6772L557.469 64.8312L551.7 56.7532L549.392 57.9072L545.932 50.9833L547.085 49.8293L543.624 47.5214L541.317 49.8293L539.009 46.3674H536.701L540.162 41.7514L544.777 39.4434ZM522.856 39.4434L521.703 45.2134L519.395 42.9054L521.703 39.4434H522.856ZM477.86 91.373H470.938L467.477 92.5269L468.63 93.6809H465.169L462.862 91.373L461.708 92.5269V87.9109L462.862 89.0649L465.169 84.449L459.4 86.757L458.247 82.141L454.785 79.833L455.939 75.217L465.169 68.2932L467.477 71.7551L469.783 70.6011L472.091 64.8312L495.167 79.833L499.782 85.603L488.244 92.5269L480.168 90.2189L477.86 91.373ZM498.627 79.833L503.242 83.2951L497.474 79.833H498.627ZM560.93 68.2932V72.9091H558.623L557.469 71.7551L560.93 68.2932Z" stroke="#0000FF" stroke-opacity="0.4" stroke-linecap="round" stroke-linejoin="round"/>
</g>
<path class="district" id="9217" name="TP Tam Kỳ" fill-rule="evenodd" clip-rule="evenodd" d="M535.547 246.008L532.086 242.546L533.241 237.929L530.933 235.622V228.698L520.549 225.236L521.703 218.312L528.626 204.464L524.01 202.156L519.395 191.77L536.701 189.462L539.009 191.77L544.777 187.155L549.392 186L567.853 211.388L560.93 212.541L563.238 216.003L558.623 219.465L552.854 218.312L554.008 221.774L551.7 225.236L543.624 226.389L541.317 232.16L542.47 234.467L540.162 237.929L536.701 239.084L535.547 246.008Z" fill="#D1475A" fill-opacity="0.5" stroke="#0000FF" stroke-opacity="0.4" stroke-linecap="round" stroke-linejoin="round"/>
<path class="district" id="9216" name="Điện Bàn" fill-rule="evenodd" clip-rule="evenodd" d="M419.019 102.913L404.02 104.067L397.098 94.8349L394.791 95.9889V89.0649L390.175 87.911L391.329 83.295L389.021 82.141L390.175 80.987L387.868 76.3711L390.175 77.5251L391.329 71.7551L389.021 67.1391L397.098 63.6772V60.2152H394.791L395.944 52.1373H401.713L405.174 56.7533H407.482L409.789 54.4453L408.635 50.9833L410.942 48.6753V45.2134L413.25 47.5214L417.865 46.3674L419.019 52.1373L422.48 55.5993L424.788 52.1373V54.4453L427.095 53.2913L425.942 52.1373L427.095 49.8293H429.403V47.5214L437.479 42.9054H442.094L443.248 46.3674L445.556 45.2134L447.863 47.5214L453.632 42.9054L462.862 56.7533L472.091 64.8312L468.63 71.7551L465.169 68.2931L455.939 75.217L454.785 79.833L458.247 82.141V84.449H465.169L462.862 89.0649L451.324 87.911L444.401 91.3729L440.941 93.6809V99.4508L437.479 102.913V105.221H435.171L434.018 102.913L436.325 100.605L432.864 97.1429L430.556 100.605L428.249 99.4508L421.327 102.913H419.019Z" fill="#D18847" fill-opacity="0.5" stroke="#0000FF" stroke-opacity="0.4" stroke-linecap="round" stroke-linejoin="round"/>
<path class="district" id="9215" name="Bắc Trà My" fill-rule="evenodd" clip-rule="evenodd" d="M461.708 391.41L455.939 394.872L449.017 405.258L450.17 407.566L442.094 415.644L430.556 409.874L423.635 400.642L424.788 392.565L427.095 390.256L425.941 387.948H423.635L421.327 381.024V383.332L412.097 391.41L409.789 386.794L406.327 384.486L405.174 385.641L404.02 382.179L395.944 375.254L383.253 370.639L384.406 369.484L382.099 367.177V361.406L379.792 359.098L380.945 356.791L375.177 352.175L365.947 332.557L356.717 330.249L353.256 331.403L349.794 336.019H347.486L344.026 331.403L341.718 332.557L337.103 330.249L335.949 333.71L334.795 331.403L329.027 334.865L314.027 338.327L311.721 337.172L310.566 332.557L318.642 325.632L312.874 312.939L315.182 306.015L327.873 307.169L331.335 304.861L333.642 306.015L339.41 303.707L341.718 301.399L338.256 299.091V295.629H340.564L341.718 293.321L340.564 284.089L346.333 285.243V287.551L352.101 291.013L356.717 289.86L369.408 295.629L375.177 291.013L372.869 287.551L380.945 277.165L384.406 280.627L390.176 277.165L394.791 279.474L392.483 284.089L397.098 294.475L406.327 301.399H412.097L415.558 296.783L427.095 297.937L431.71 296.783L434.018 293.321L443.248 294.475L457.092 291.013L465.169 292.167L469.783 295.629L470.938 293.321L475.553 292.167L483.629 300.245L491.705 297.937L492.859 294.475L519.395 295.629L527.471 293.321L529.779 299.091V311.784L524.01 317.555V319.863L513.626 324.479L512.473 329.095H505.55L502.089 332.557V336.019L498.627 337.172L496.32 334.865H491.705L485.936 338.327H481.321L468.63 334.865L461.708 340.634L459.4 345.251L461.708 349.867L460.554 354.482L455.939 356.791V359.098L451.324 360.253L454.785 364.868L453.632 367.177L462.862 369.484L460.554 375.254L455.939 378.716L457.092 382.179H460.554L459.4 387.948L461.708 391.41Z" fill="#B7E830" fill-opacity="0.5" stroke="#0000FF" stroke-opacity="0.4" stroke-linecap="round" stroke-linejoin="round"/>
<path class="district" id="9214" name="Đại Lộc" fill-rule="evenodd" clip-rule="evenodd" d="M387.868 98.2968L380.945 99.4509L372.869 107.529H367.1L362.485 112.145L361.332 117.915L349.794 127.146L352.101 135.224L345.179 142.148L342.871 140.995L335.95 147.919L334.795 146.764L317.489 152.534L312.874 149.072L308.259 150.226L299.029 143.303H282.877L281.723 136.379L280.569 134.071H278.262L277.108 130.609L278.262 128.3L272.492 120.222L269.032 117.915L265.571 120.222L262.109 115.607L260.956 116.76L263.263 113.298V108.683L259.801 109.837L257.494 107.529H254.033L252.879 105.221L250.571 106.375L251.725 101.759L255.186 99.4509L254.033 94.8349L262.109 91.373V87.911L264.417 86.757V71.7551L269.032 67.1391V60.2153L274.8 57.9072L280.569 61.3693H285.184L292.106 68.2932L301.336 69.4472L304.798 67.1391V63.6772L307.106 65.9852L319.797 62.5232L323.257 65.9852H329.027L350.948 59.0612H359.024V61.3693L367.1 63.6772L378.638 53.2913L391.329 61.3693L397.098 60.2153V62.5232L389.021 68.2932L391.329 71.7551V77.5251L389.021 76.3711V82.141L391.329 85.603L390.176 86.757L394.791 90.2189L393.636 98.2968L389.021 99.4509L387.868 98.2968Z" fill="#49E830" fill-opacity="0.5" stroke="#0000FF" stroke-opacity="0.4" stroke-linecap="round" stroke-linejoin="round"/>
<path class="district" id="9213" name="Đông Giang" fill-rule="evenodd" clip-rule="evenodd" d="M160.579 131.762L167.501 124.838L162.886 120.222L169.809 117.915L167.501 109.837L168.656 104.067L170.963 101.759L162.886 89.065V82.141L159.425 80.987L161.733 77.5251L169.809 72.9091L170.963 65.9852H168.656V63.6772L172.116 60.2153L169.809 59.0612L170.963 46.3674L179.039 33.6735L184.807 30.2116L185.962 26.7495H188.269L189.423 22.1336H191.73L198.653 31.3655L210.191 32.5195L218.266 25.5956V17.5176L233.265 8.28574H236.727L239.034 3.66978L237.88 1.3618L241.342 3.66978L242.495 1.3618L251.725 7.13174H263.263L266.724 3.66978H274.8L280.569 8.28574L287.492 9.43972L292.106 15.2097L297.876 10.5937L316.335 2.51579L315.182 14.0557L320.95 22.1336L326.719 25.5956L325.565 35.9814L314.027 45.2134L315.182 48.6754H312.874L311.721 53.2914L326.719 65.9852L319.797 62.5232L316.335 64.8312L308.259 65.9852L304.798 63.6772L303.644 68.2932L297.876 69.4472L292.106 68.2932L282.877 60.2153L280.569 61.3693L274.8 57.9072L271.339 59.0612L269.032 60.2153V67.1391L264.416 71.7551V86.757L260.956 92.527L252.879 94.8349L255.186 98.2969L249.418 106.375H244.803L239.034 110.991H232.112L229.804 114.453H222.882L221.728 120.222L212.498 128.3L204.421 127.147L199.807 129.455L192.884 127.147L190.577 132.917L187.115 135.224L177.886 136.379L164.041 131.762H160.579Z" fill="#30E886" fill-opacity="0.5" stroke="#0000FF" stroke-opacity="0.4" stroke-linecap="round" stroke-linejoin="round"/>
<path class="district" id="9212" name="Duy Xuyên" fill-rule="evenodd" clip-rule="evenodd" d="M447.862 109.837V116.76L443.248 121.377L445.556 131.762H443.248L438.633 137.533H435.171L432.864 140.995L424.788 145.61L421.327 144.457L420.173 140.995L414.404 142.148L412.097 146.764L406.327 147.919L404.02 155.996L392.483 149.072L390.176 145.61L382.099 144.457L374.023 147.919L364.792 145.61L365.947 143.303L363.639 136.379L360.177 134.071L355.563 135.224L349.794 129.455V127.146L361.332 117.915L363.639 110.991L367.1 107.529H371.715L383.253 98.2968L389.021 99.4508L393.636 98.2968L397.098 94.8349L404.02 104.067H417.865L427.095 99.4508L430.556 100.605L432.864 97.1429L436.326 100.605L434.018 102.913L436.326 105.221L440.941 99.4508V93.6809L451.324 87.911H461.708L460.554 91.373L467.477 93.6809L470.938 91.373L480.168 90.2189L488.244 92.527L496.32 86.757H503.242V98.2968L506.704 109.837L503.242 110.991L500.935 114.453L497.474 107.529L498.627 106.375L495.167 104.067L491.706 108.683L489.398 105.221L484.783 107.529L476.706 105.221L472.091 107.529L473.245 108.683L470.938 113.298L467.477 109.837L461.708 107.529L459.4 108.683V106.375L455.939 105.221L454.785 107.529L452.477 105.221L449.017 108.683L447.862 109.837Z" fill="#30DCE8" fill-opacity="0.5" stroke="#0000FF" stroke-opacity="0.4" stroke-linecap="round" stroke-linejoin="round"/>
<path class="district" id="9211" name="Hiệp Đức" fill-rule="evenodd" clip-rule="evenodd" d="M375.177 291.013L369.408 295.629L362.485 294.475L357.87 289.86H349.794L339.41 280.627L337.103 271.395L329.027 262.163L330.18 259.855L327.873 255.239L334.795 250.624L331.335 242.546L329.027 241.391L330.18 236.776L329.027 234.467L322.104 232.16L318.642 225.236L312.874 224.082L311.721 221.774L320.95 218.312L324.412 212.541L335.949 202.156L349.794 196.386H354.409L375.177 186L379.791 188.308L383.253 186L386.714 187.155L398.251 196.386L424.788 195.232L425.941 197.54L427.095 195.232H430.556V198.694L435.171 202.156H439.786L440.941 204.464L439.786 209.079L432.864 212.541V214.85L424.788 218.312L425.941 221.774L419.019 225.236L420.173 226.389L417.865 233.314L420.173 236.776L421.327 235.622V237.929L422.48 236.776L424.788 244.853L423.635 246.008L424.788 248.315H427.095L425.941 250.624L422.48 252.931L420.173 250.624L405.174 246.008V249.469L401.712 250.624L394.791 246.008H390.175L386.714 252.931L387.868 255.239L397.098 259.855L395.944 270.241L389.021 276.011L390.175 277.165L384.406 280.627L380.945 277.165L378.638 278.319L372.869 287.551L374.023 291.013H375.177Z" fill="#306EE8" fill-opacity="0.5" stroke="#0000FF" stroke-opacity="0.4" stroke-linecap="round" stroke-linejoin="round"/>
<path class="district" id="9210" name="Nam Giang" fill-rule="evenodd" clip-rule="evenodd" d="M262.109 218.312L258.648 217.158V213.696H241.342L240.188 216.003L233.265 218.312L229.804 216.003L215.959 222.927L213.651 221.774L212.498 224.082L205.575 221.774V227.543L209.036 236.776L207.883 235.622L206.729 237.929L210.191 242.546L207.883 246.008L209.036 250.624L205.575 254.086L210.191 256.393L204.421 263.317L205.575 264.472L200.96 266.779L197.5 278.319L198.653 285.243L194.038 289.86L190.577 299.091L188.269 293.321L182.5 289.86L181.347 285.243L175.578 286.398L166.348 282.935L165.194 286.398H160.579L152.503 294.475H150.195L142.119 289.86H135.197V287.551L130.582 285.243L134.043 273.703L129.428 259.855H122.506L120.198 257.548L113.275 258.701L115.583 254.086L110.968 249.469H106.353L104.045 247.162H95.9692L93.6617 249.469L94.8155 252.931H89.0467L86.7392 250.624L85.5855 252.931L78.663 250.624L72.8942 251.777V243.7L69.433 232.16L65.9718 228.698V218.312L56.7418 216.003L59.0492 213.696L57.8954 212.541L61.3568 210.234L60.203 204.464L56.7418 203.31L57.8954 199.848L53.2805 195.232H35.9742L29.0518 190.616L27.898 186L30.2056 183.693L24.4368 181.384L29.0518 169.844V159.458H26.7442V157.15L24.4368 155.996L25.5906 154.843L20.9756 151.381L19.8218 152.534L17.5142 147.919L22.1292 149.072L25.5906 144.457L29.0518 146.764H40.5892L41.743 143.303L44.0506 142.148L42.8968 140.995L48.6654 138.686L59.0492 143.303V149.072L62.5105 145.61L67.1255 150.226H71.7405L76.3555 145.61L82.1242 143.303L90.2005 145.61L101.738 140.995L107.507 131.762L124.813 134.071L127.121 131.762L129.428 132.917L132.889 129.455L140.965 127.146L143.273 131.762H150.195L151.35 129.455L157.118 128.3L160.579 131.762L175.578 136.379L187.115 135.224L190.577 132.917L192.884 127.146L199.807 129.455L204.421 127.146L212.498 128.3L218.266 123.684L224.036 114.453H229.804L232.112 110.991H239.034L244.803 106.375L252.879 105.221L259.801 109.837L262.109 108.683L263.263 112.145L260.956 116.76L262.109 115.607L265.571 120.222L269.032 117.915L278.262 128.3V134.071H280.569L281.723 142.148L285.184 144.457L286.338 147.919L284.03 155.996L281.723 157.15V160.612H279.415L277.108 164.074L274.8 162.92L271.339 166.382H266.724L264.416 168.69L271.339 174.46V176.768L277.108 183.693H280.569L284.03 190.616V196.386L281.723 201.002H279.415L275.954 209.079L278.262 212.541L271.339 216.003V220.62L273.647 224.082L269.032 222.927L264.416 218.312H262.109Z" fill="#6130E8" fill-opacity="0.5" stroke="#0000FF" stroke-opacity="0.4" stroke-linecap="round" stroke-linejoin="round"/>
<path class="district" id="9209" name="Nam Trà My" fill-rule="evenodd" clip-rule="evenodd" d="M442.094 422.568L439.786 428.337L431.71 432.954L435.171 438.724L432.864 444.494V446.801L435.171 447.956L432.864 452.572H421.327L417.865 447.956L414.404 449.11L410.942 443.339L405.174 439.877H401.713L397.098 444.494L394.791 447.956L397.098 450.263L395.944 466.42L398.251 467.573L401.713 477.959L395.944 482.575L389.021 484.884L384.406 483.729L378.638 487.191L370.562 488.346L369.408 482.575L360.177 480.267L353.256 469.882L340.564 465.265L337.103 467.573L334.795 465.265L330.18 467.573L325.565 462.958L320.95 461.803L322.104 460.649L316.335 452.572L314.027 441.032L323.258 436.415V430.646L326.719 428.337L333.642 414.489L332.488 411.028L334.795 404.104L333.642 398.334L312.874 390.256L311.721 385.641L304.798 382.179L305.951 379.87L302.491 375.254V370.639L307.106 366.022L305.951 362.56L308.259 355.636L310.567 354.482L309.413 344.096L307.106 341.789L308.259 339.481L311.721 337.172L312.874 338.327L326.719 336.019L333.642 331.403L335.949 333.71V330.249L341.718 332.557L342.871 331.403L346.333 336.019H349.794L353.256 331.403L356.717 330.249L361.332 332.557L365.947 331.403V334.865L372.869 345.251L371.715 346.405L375.177 349.867V352.175L380.945 356.791L379.792 357.944L382.099 360.253V366.022L384.406 369.484L383.253 370.639L385.56 369.484L387.868 372.946H392.483L413.25 391.41L417.865 385.641L421.327 384.486V381.024L423.635 387.948H425.941L427.095 390.256L424.788 392.565L423.635 400.642L430.556 409.874L442.094 414.489V421.413V422.568Z" fill="#D030E8" fill-opacity="0.5" stroke="#0000FF" stroke-opacity="0.4" stroke-linecap="round" stroke-linejoin="round"/>
<path class="district" id="9208" name="Nông Sơn" fill-rule="evenodd" clip-rule="evenodd" d="M400.559 166.382L379.792 188.308L375.177 186L354.409 196.386H349.794L334.795 203.31L324.412 212.541L320.95 218.312L311.721 221.774H304.798L297.875 226.389L299.029 228.698L293.26 233.314V231.005L288.645 227.543L275.954 232.16L273.647 227.543H271.339L273.647 224.082L271.339 220.62V216.003L278.262 212.541L277.107 205.617L279.415 201.002H281.723L284.03 197.54V190.616L280.569 183.693L272.492 179.076L271.339 174.46L264.416 168.69L282.877 159.458L281.723 158.305L284.03 155.996L286.338 147.919L285.184 145.61L289.8 142.148L297.875 144.457L299.029 143.303L308.259 150.226L312.874 149.072L319.797 152.534L320.95 150.226H327.873L334.795 146.764L335.948 147.919L342.871 140.995L345.179 142.148L352.101 135.224V132.917L355.563 135.224L360.177 134.071L363.639 136.379L362.485 139.841L365.947 143.303L364.792 145.61L371.715 147.919L382.099 144.457L390.175 145.61L392.483 149.072L404.02 155.996V159.458L400.559 164.074V166.382Z" fill="#E83092" fill-opacity="0.5" stroke="#0000FF" stroke-opacity="0.4" stroke-linecap="round" stroke-linejoin="round"/>
<g class="district" id="9207" name="Núi Thành">
<path id="Vector_3" fill-rule="evenodd" clip-rule="evenodd" d="M573.621 317.555L569.006 321.017L562.083 319.863L554.008 326.787H549.392L545.932 324.479L539.009 331.403L535.547 332.557L534.394 330.248H518.241L515.933 329.095V324.479H513.626L525.164 318.708L524.01 317.555L529.779 309.477V299.091L524.01 287.551L521.703 285.243H517.088L513.626 280.627L510.165 273.703L511.319 269.087L515.933 266.779H527.471L529.779 267.934V270.241L530.933 269.087L533.241 271.395L534.394 267.934L530.933 264.472L532.086 263.317H529.779L532.086 261.01L530.933 257.548L536.701 259.855L539.009 256.393L543.624 254.086L544.777 255.239L547.085 252.931L543.624 250.624L545.932 248.315L544.777 247.162L541.317 248.315L535.547 246.008L536.701 239.084L542.47 235.622L541.317 233.314L543.624 226.389L551.7 225.236L554.008 221.774L552.854 219.465L555.162 218.312L558.623 220.62L563.238 216.003L560.93 212.541L563.238 211.388H567.853L593.235 242.546L602.465 248.315L614.003 249.469L617.464 244.853L616.31 242.546L618.618 243.7L619.771 246.008L617.464 247.162L616.31 255.239L619.771 258.701L620.926 255.239L624.386 256.393V261.01L627.847 266.779L625.54 270.241V274.857L644 293.321L632.462 304.861L627.847 303.707L626.694 306.015H617.464L615.156 308.322L611.695 306.015H603.618L599.004 310.631L587.467 312.939L586.312 316.401L581.697 315.246L579.39 317.555H574.776H573.621Z" fill="#E83D30" fill-opacity="0.5"/>
<path id="Vector_4" d="M623.233 248.315H622.079M622.079 247.162V246.008M573.621 317.555L569.006 321.017L562.083 319.863L554.008 326.787H549.392L545.932 324.479L539.009 331.403L535.547 332.557L534.394 330.248H518.241L515.933 329.095V324.479H513.626L525.164 318.708L524.01 317.555L529.779 309.477V299.091L524.01 287.551L521.703 285.243H517.088L513.626 280.627L510.165 273.703L511.319 269.087L515.933 266.779H527.471L529.779 267.934V270.241L530.933 269.087L533.241 271.395L534.394 267.934L530.933 264.472L532.086 263.317H529.779L532.086 261.01L530.933 257.548L536.701 259.855L539.009 256.393L543.624 254.086L544.777 255.239L547.085 252.931L543.624 250.624L545.932 248.315L544.777 247.162L541.317 248.315L535.547 246.008L536.701 239.084L542.47 235.622L541.317 233.314L543.624 226.389L551.7 225.236L554.008 221.774L552.854 219.465L555.162 218.312L558.623 220.62L563.238 216.003L560.93 212.541L563.238 211.388H567.853L593.235 242.546L602.465 248.315L614.003 249.469L617.464 244.853L616.31 242.546L618.618 243.7L619.771 246.008L617.464 247.162L616.31 255.239L619.771 258.701L620.926 255.239L624.386 256.393V261.01L627.847 266.779L625.54 270.241V274.857L644 293.321L632.462 304.861L627.847 303.707L626.694 306.015H617.464L615.156 308.322L611.695 306.015H603.618L599.004 310.631L587.467 312.939L586.312 316.401L581.697 315.246L579.39 317.555H574.776H573.621Z" stroke="#0000FF" stroke-opacity="0.4" stroke-linecap="round" stroke-linejoin="round"/>
</g>
<path class="district" id="9206" name="Phú Ninh" fill-rule="evenodd" clip-rule="evenodd" d="M528.626 293.321L519.395 295.629L492.859 294.475L489.397 286.398L490.551 282.936H492.859L490.551 281.781L492.859 278.319L490.551 277.165L498.627 262.163L491.705 244.853L492.859 241.391L488.244 237.929L489.397 229.852L488.244 227.543L481.321 228.698L477.86 226.389L475.553 227.543L468.63 225.236V221.774L466.323 219.465H468.63L472.091 214.85L468.63 210.234L473.245 204.464L481.321 202.156L483.629 203.31L490.551 199.848L491.705 202.156H494.012L496.32 199.848L497.474 194.078L502.089 191.77L503.242 192.924L507.858 190.616V195.232L512.473 196.386L519.395 192.924L524.01 202.156L528.626 204.464L520.549 224.082L522.856 226.389L524.01 225.236L525.164 227.543L530.933 228.698V235.622L533.24 239.084L532.086 241.391L534.394 244.853L545.932 249.469L543.624 250.624L547.085 254.086L545.932 255.239L543.624 254.086L539.009 256.393L536.701 259.855L534.394 257.548H530.933L532.086 261.01L529.779 263.317H532.086L530.933 264.472L534.394 267.934L533.24 271.395L530.933 269.087L529.779 270.241V267.934L527.471 266.779H515.933L511.318 269.087V278.319L515.933 285.243L524.01 286.398L527.471 292.167L528.626 293.321Z" fill="#D147AC" fill-opacity="0.5" stroke="#0000FF" stroke-opacity="0.4" stroke-linecap="round" stroke-linejoin="round"/>
<path class="district" id="9205" name="Phước Sơn" fill-rule="evenodd" clip-rule="evenodd" d="M302.491 375.254L296.721 374.1L295.568 376.408H292.106L287.492 382.179L279.415 375.254L264.416 376.408L258.648 372.946L250.571 374.1L248.264 371.792H240.188L236.727 369.484V367.177L230.957 363.715L228.65 366.022H221.728V363.715H224.035L220.574 356.791L218.266 340.634V334.865L220.574 333.71L213.651 332.557L210.191 334.865L200.96 324.479L198.653 318.708L194.038 316.401L191.73 312.939L190.577 304.861V299.091L198.653 282.936L197.5 281.781L199.807 269.087L210.191 256.393L205.575 254.086L209.036 250.624L207.883 246.008L210.191 242.546L206.729 237.929L207.883 235.622L209.036 236.776L205.575 222.927L212.498 224.082L213.651 221.774H218.266L228.65 216.003L233.265 218.312L240.188 216.003V213.696H258.648V217.158L264.416 218.312L269.032 222.927L273.647 224.082L271.339 227.543H273.647L275.954 232.16H279.415L282.877 228.698L288.645 227.543L293.26 231.005V233.314L296.721 229.852L297.875 231.005V226.389L309.413 220.62L312.874 224.082L318.642 225.236L322.104 232.16L329.027 234.467V241.391L334.795 248.315V250.624L327.873 255.239L330.18 259.855L329.027 262.163L334.795 267.934L339.41 276.011V279.474L342.871 282.936L340.564 284.089L341.718 293.321L340.564 295.629H338.256V299.091L341.718 301.399L340.564 303.707L333.642 306.015L331.335 304.861L327.873 307.169H314.027V317.555L318.642 325.632L310.566 332.557L311.72 336.019L307.106 341.789L309.413 344.096L308.259 346.405L311.72 354.482L308.259 355.636L305.951 361.406L307.106 366.022L302.491 370.639L303.644 374.1L302.491 375.254Z" fill="#D1475A" fill-opacity="0.5" stroke="#0000FF" stroke-opacity="0.4" stroke-linecap="round" stroke-linejoin="round"/>
<path class="district" id="9204" name="Quế Sơn" fill-rule="evenodd" clip-rule="evenodd" d="M424.788 195.232L398.251 196.386L393.636 194.078L387.868 187.155L383.253 186L400.559 166.382L404.02 159.458L406.327 147.919L412.097 146.764L415.558 140.995H420.173L421.327 144.457L424.788 145.61L445.556 131.762L443.248 121.377L447.862 116.76V110.991L452.477 105.221L454.785 107.529L455.939 105.221H459.4V107.529L467.477 109.837L470.938 113.298L472.091 110.991L477.86 119.069L481.321 128.3L479.014 132.917V130.608L474.399 132.917V137.533L469.783 145.61V152.534L466.323 160.612L462.862 164.074L458.247 159.458V161.767L453.632 160.612L449.017 162.92L451.324 168.69L453.632 167.536L454.785 169.844L445.556 175.614L442.094 179.076V181.384H438.633V184.846H435.171V188.308L429.403 190.616L428.249 194.078L424.788 195.232Z" fill="#D18847" fill-opacity="0.5" stroke="#0000FF" stroke-opacity="0.4" stroke-linecap="round" stroke-linejoin="round"/>
<path class="district" id="9203" name="Tây Giang" fill-rule="evenodd" clip-rule="evenodd" d="M2.5155 144.457L4.823 128.3L8.28425 124.838L9.438 125.993V116.76L1.36176 106.375L5.97676 105.221V102.913L10.5917 99.4508L16.3605 101.759L20.9755 97.1428L26.7442 95.9889V92.5269L29.0518 91.3729L32.513 92.5269L38.2818 87.9109L40.5892 90.2189L45.2042 87.9109L46.358 82.141L54.4342 78.679L68.2792 77.5251L72.8942 80.987L80.9704 77.5251V75.217H83.278V72.9091L89.0467 65.9851V62.5232L92.508 61.3692L94.8154 49.8293L100.584 39.4434L99.4304 35.9814L102.892 34.8274L108.66 20.9795L113.275 15.2097L117.891 12.9016L124.813 17.5176L127.121 23.2876L144.427 25.5955L149.042 20.9795V17.5176L145.58 12.9016L150.195 8.28571L165.194 5.97773L173.271 2.51576L175.578 5.97773L173.271 16.3636L182.5 18.6716L185.962 22.1336H189.423L188.269 26.7495H185.962L184.807 30.2115L179.039 33.6734L170.963 46.3674L169.809 57.9072L172.116 59.0612L168.656 63.6772V65.9851H170.963L169.809 72.9091L161.733 77.5251L159.425 80.987L162.886 82.141L164.041 91.3729L170.963 101.759L168.656 104.067L167.501 109.837L169.809 117.915L162.886 120.222L167.501 124.838L160.579 131.762L157.118 128.3L145.58 131.762H143.273L140.965 128.3H137.504L131.736 130.608L130.582 132.917L127.121 131.762L124.813 134.071L108.66 131.762L104.045 136.379L102.892 140.995L90.2004 145.61H85.5854L82.1242 143.303L75.2017 146.764L72.8942 150.226H67.1254L63.6642 145.61L60.203 149.072L59.0492 143.303H56.7418L54.4342 139.841L52.1268 140.995L48.6654 138.686L42.8968 139.841L40.5892 146.764H30.2055L25.5905 144.457L22.1292 149.072H18.668L19.8218 145.61L17.5142 142.148L2.5155 144.457Z" fill="#B7E830" fill-opacity="0.5" stroke="#0000FF" stroke-opacity="0.4" stroke-linecap="round" stroke-linejoin="round"/>
<path class="district" id="9202" name="Thăng Bình" fill-rule="evenodd" clip-rule="evenodd" d="M444.401 207.926L439.786 209.079V202.156L432.864 201.002L430.556 196.386L424.788 195.232L428.249 194.078L429.403 190.616L435.171 188.308L434.018 186L437.479 184.846V181.384H442.094V179.076L445.556 175.614L454.785 169.844L453.632 167.536H450.17L449.017 162.92L453.632 160.612L458.247 161.767V159.458L461.708 164.074L466.323 161.767L469.785 153.688L468.63 147.919L474.399 137.533V132.917L479.014 130.609V132.917L481.321 129.455L477.86 119.069L472.091 110.991V107.529L476.706 105.221L484.783 107.529L489.398 105.221L491.706 108.683L495.167 104.067L500.935 113.298L506.704 109.837L514.78 129.455L549.392 186L539.009 191.77L536.701 189.462L527.471 191.77L519.395 190.616V192.924L515.933 194.078L517.088 195.232L514.78 196.386L509.012 195.232L507.858 190.616L503.242 192.924L502.089 191.77L498.627 194.078L494.012 202.156H491.706L490.551 199.848L484.783 203.31L482.476 202.156L474.399 204.464L468.63 210.234H464.015L460.554 212.541L457.092 211.388L455.939 203.31L450.17 204.464L447.862 206.772L444.401 207.926Z" fill="#49E830" fill-opacity="0.5" stroke="#0000FF" stroke-opacity="0.4" stroke-linecap="round" stroke-linejoin="round"/>
<path class="district" id="9201" name="Tiên Phước" fill-rule="evenodd" clip-rule="evenodd" d="M492.859 294.475L491.705 297.937L483.629 300.245L475.553 292.167L467.476 294.475L466.323 292.167L457.092 291.013L443.248 294.475L434.018 293.321L431.71 296.783L427.095 297.937L415.558 296.783L412.097 301.399H406.327L397.098 294.475L392.483 285.243L394.791 279.473L390.176 278.319L389.021 276.011L395.944 270.241L397.098 261.01L391.329 255.239L386.714 254.086L389.021 248.315L394.791 246.008L401.712 250.624L405.174 249.469V246.008L420.173 250.624L422.48 252.931L425.941 250.624L427.095 248.315H424.788L423.633 246.008L424.788 244.853L422.48 236.776L421.327 237.929V235.622L420.173 236.776L417.865 234.467L420.173 227.543L419.019 225.236L425.941 220.62L424.788 218.312L432.864 214.85V212.541L436.326 210.234L443.248 209.079L450.17 204.464L455.939 203.31L457.092 210.234L459.4 212.541L464.015 210.234L468.63 211.388L472.091 214.85L468.63 219.465H466.323L468.63 221.774V225.236L475.553 227.543L477.86 226.389L481.321 228.698L487.091 227.543L489.398 229.851L488.244 239.084L492.859 241.391L491.705 244.853L498.627 262.163L495.167 271.395L490.551 276.011L492.859 278.319L489.398 286.398L492.859 293.321V294.475Z" fill="#30E886" fill-opacity="0.5" stroke="#0000FF" stroke-opacity="0.4" stroke-linecap="round" stroke-linejoin="round"/>
</g>
</svg>
