<svg width="481" height="481" viewBox="0 0 481 481" fill="none" xmlns="http://www.w3.org/2000/svg">
<g id="93" name="Bình Phước">
<path id="9311" class="district" name="Đồng Xoài" fill-rule="evenodd" clip-rule="evenodd" d="M231.392 399.735L226.215 394.557H219.743L200.328 399.735L196.445 398.44L193.856 403.619H189.973L186.09 398.44V393.262L183.502 389.378H178.324L169.264 394.557L167.969 391.968L162.792 390.673L167.969 388.084L165.381 386.789V384.2L169.264 380.316V377.727L166.675 376.432L167.969 373.843L164.086 372.549L169.264 364.781L166.675 360.897L179.618 357.013L178.324 355.719L180.913 353.13L184.796 355.719L192.562 354.424V359.603L199.034 360.897L204.211 355.719L210.683 357.013V351.835H228.803L231.392 349.246L235.275 350.54L243.041 347.951V355.719L237.864 363.486H240.452L243.041 368.665L244.335 367.37L246.924 372.549L244.335 373.843L246.924 375.138H244.335L245.63 380.316L243.041 382.905L241.747 381.611L243.041 389.378L239.158 390.673L240.452 394.557L239.158 393.262L236.569 397.146H232.686L231.392 399.735Z" fill="#D147AC" fill-opacity="0.5" stroke="#0000FF" stroke-opacity="0.4" stroke-linecap="round" stroke-linejoin="round"/>
<path id="9310" class="district" name="Bình Long" fill-rule="evenodd" clip-rule="evenodd" d="M98.0753 320.765V332.416L91.6036 335.005L79.9546 332.416L76.0716 315.586L70.8942 310.408L73.4829 302.64L70.8942 297.462L63.1282 296.168L52.7735 289.695H42.4188L41.1245 288.4L43.7132 280.632L47.5962 276.749L55.3622 275.454L64.4225 274.159L69.5999 276.749V274.159H77.3659L79.9546 270.276H96.781L99.3696 274.159L98.0753 275.454L100.664 274.159L101.958 276.749H105.841L112.313 284.516L104.547 296.168V301.346L107.136 303.935L103.253 310.408L101.958 322.059L98.0753 320.765Z" fill="#D1475A" fill-opacity="0.5" stroke="#0000FF" stroke-opacity="0.4" stroke-linecap="round" stroke-linejoin="round"/>
<path id="9309" class="district" name="Phước Long" fill-rule="evenodd" clip-rule="evenodd" d="M262.456 250.857V246.973L257.279 243.089L254.69 245.678L249.513 237.911L246.924 240.5V235.322L243.041 231.438V228.849H245.63L250.807 222.376V215.903L244.335 210.724V206.841L259.867 202.957L261.162 205.546H271.516V208.135H268.928L272.811 212.019L283.165 206.841L287.048 212.019L293.52 215.903L294.814 219.787L302.58 218.492L307.758 223.67L315.524 219.787L312.935 223.67L315.524 239.205L301.286 248.268H294.814L292.226 243.089H288.343L277.988 253.446L270.222 249.562L265.045 252.151L262.456 250.857Z" fill="#D18847" fill-opacity="0.5" stroke="#0000FF" stroke-opacity="0.4" stroke-linecap="round" stroke-linejoin="round"/>
<path id="9308" class="district" name="Bù Đăng" fill-rule="evenodd" clip-rule="evenodd" d="M437.192 362.192L340.116 384.2L341.411 380.316L338.822 377.727V371.254L336.233 366.076L341.411 354.424L346.588 349.246L343.999 347.951L340.116 350.541L331.056 342.773L323.29 344.068L318.113 336.3L319.407 333.711L316.818 332.416V327.238L306.464 322.059L305.169 310.408L302.581 309.113L303.875 305.23L307.758 303.935L303.875 301.346V297.462L306.464 294.873H311.641L312.935 285.811L315.524 281.927V274.159L312.935 271.57L309.052 272.865L306.464 268.981L309.052 265.097L307.758 262.508L309.052 261.213L310.347 263.803L311.641 259.919H314.23V254.741L316.818 252.151L312.935 226.259L315.524 219.786L312.935 192.6L321.996 186.127L324.584 179.654H328.467L329.762 175.77L333.645 177.065V160.235L337.528 157.646V155.057L341.411 156.351L350.471 151.173L347.882 148.584L351.765 145.995V143.405H359.531L363.414 139.522L360.826 138.227L359.531 133.049L363.414 134.343L368.592 127.87L372.475 130.459L373.769 127.87L381.535 131.754L382.829 130.459H380.241L382.829 127.87L388.007 130.459L393.184 125.281V131.754H395.773L399.656 135.638L402.244 134.343L408.716 138.227V135.638L410.01 138.227L412.599 135.638L415.188 136.932L416.482 134.343L415.188 135.638L417.776 136.932V139.522H421.659L424.248 142.111H432.014V144.7L444.958 161.53V171.886L447.546 175.77H450.135L460.49 183.538L464.373 193.895L468.256 197.778L466.961 200.368L469.55 208.135L477.316 209.43L479.905 212.019V219.786L478.61 218.492L474.727 222.376V226.259V223.67L470.844 228.849V239.205L464.373 241.795V249.562L466.961 252.151L463.078 256.035L460.49 253.446L450.135 258.624H446.252L444.958 263.803L432.014 265.097L426.837 268.981H421.659L417.776 274.159H415.188L412.599 289.695L410.01 292.284L412.599 294.873L403.539 309.113L407.422 312.997L404.833 315.586L406.127 318.176L412.599 320.765L421.659 328.532L420.365 333.711L422.954 336.3L419.071 346.657L425.543 350.541H420.365L424.248 358.308H435.897V360.897L437.192 362.192Z" fill="#B7E830" fill-opacity="0.5" stroke="#0000FF" stroke-opacity="0.4" stroke-linecap="round" stroke-linejoin="round"/>
<g id="9307" class="district" name="Bù Đốp">
<path fill-rule="evenodd" clip-rule="evenodd" d="M175.735 190.011L171.852 191.305L173.147 193.895L170.558 197.778L167.969 196.484L162.792 199.073V201.662H160.203L157.615 197.778H152.437L147.26 192.6L133.022 184.832L131.728 171.887L126.551 165.414V160.235L123.962 161.53V158.941L126.551 155.057V157.646L130.434 161.53L148.554 157.646L147.26 156.351L161.498 138.227L158.909 136.932V134.343H161.498V131.754L162.792 133.049L165.381 130.459V127.87L164.086 129.165L170.558 121.397L169.264 120.103L183.501 103.273L184.796 105.862L196.445 104.568L200.328 109.746L206.8 108.451L208.094 111.041L209.388 109.746V112.335L221.037 108.451L228.803 112.335H236.569L239.158 114.924L252.101 112.335L259.867 107.157L274.105 103.273L275.399 104.568L268.928 109.746H274.105L270.222 112.335L268.928 116.219L265.045 117.514L267.633 118.808H263.75L261.162 121.397L262.456 122.692L259.867 129.165L263.75 130.459L265.045 135.638L261.162 138.227L262.456 143.405L259.867 145.995L257.279 143.405H250.807L246.924 148.584H243.041L232.686 156.351L223.626 153.762V151.173L218.449 152.468L214.566 149.878L215.86 153.762L204.211 160.235V169.297L201.622 171.887V175.77L204.211 178.359L201.622 182.243L193.856 188.716H186.09L184.796 193.895L174.441 192.6L175.735 190.011Z" fill="#49E830" fill-opacity="0.5"/>
<path d="M275.399 99.3892V101.978M161.498 134.343H158.909V136.932L161.498 138.227L147.26 156.351L148.554 157.646L130.434 161.53L126.551 157.646V155.057L123.962 158.941V161.53L126.551 160.235V165.414L131.728 171.887L133.022 184.832L147.26 192.6L152.437 197.778H157.615L160.203 201.662H162.792V199.073L167.969 196.484L170.558 197.778L173.147 193.895L171.852 191.305L175.735 190.011L174.441 192.6L184.796 193.895L186.09 188.716H193.856L201.622 182.243L204.211 178.359L201.622 175.77V171.887L204.211 169.297V160.235L215.86 153.762L214.566 149.878L218.449 152.468L223.626 151.173V153.762L232.686 156.351L243.041 148.584H246.924L250.807 143.405H257.279L259.867 145.995L262.456 143.405L261.162 138.227L265.045 135.638L263.75 130.459L259.867 129.165L262.456 122.692L261.162 121.397L263.75 118.808H267.633L265.045 117.514L268.928 116.219L270.222 112.335L274.105 109.746H268.928L275.399 104.568L274.105 103.273L259.867 107.157L252.101 112.335L239.158 114.924L236.569 112.335H228.803L221.037 108.451L209.388 112.335V109.746L208.094 111.041L206.8 108.451L200.328 109.746L196.445 104.568L184.796 105.862L183.501 103.273L169.264 120.103L170.558 121.397L164.086 129.165L165.381 127.87V130.459L162.792 133.049L161.498 131.754V134.343ZM161.498 134.343L160.203 133.049" stroke="#0000FF" stroke-opacity="0.4" stroke-linecap="round" stroke-linejoin="round"/>
</g>
<path id="9306" class="district" name="Bù Gia Mập" fill-rule="evenodd" clip-rule="evenodd" d="M166.675 227.554L162.792 219.786L164.086 208.135L160.203 206.841V201.662L173.147 195.189L171.852 192.6L174.441 190.011V192.6L177.03 193.895H184.796L186.09 188.716H193.856L201.622 183.538L204.211 179.654L201.622 175.77L204.211 170.592V160.235L214.566 155.057V149.878L218.449 152.468L222.332 151.173L223.626 153.762L232.686 156.351L250.807 144.7L257.279 143.405L259.867 145.995L262.456 143.405L261.162 138.227L265.045 135.638V130.459L259.867 129.165V126.576L263.75 122.692L261.162 121.397L263.75 118.808L266.339 120.103L267.633 118.808L265.045 117.514L268.928 116.219L270.222 112.335L274.105 109.746H268.928L274.105 107.157V101.978H276.694L275.399 99.3892H279.282V96.8L283.165 95.5054L280.577 92.9162L285.754 90.327L280.577 89.0324H283.165L284.46 86.4432H289.637V82.5595L290.931 86.4432L296.109 81.2649H299.992V78.6757L302.58 79.9703L301.286 76.0865L305.169 74.7919V68.3189L315.524 65.7297L316.818 61.8459L311.641 59.2568L314.23 52.7838L319.407 54.0784V56.6676L321.996 57.9622L324.584 54.0784V48.9L327.173 43.7216L331.056 41.1324V38.5432L332.35 39.8378L334.939 35.9541L337.528 37.2487V34.6595L338.822 35.9541L345.294 32.0703V29.4811L342.705 30.7757V28.1865L343.999 29.4811V24.3027H346.588L347.882 21.7135L346.588 16.5351H349.177L353.06 10.0622L362.12 8.76757L360.826 7.47297L373.769 1L386.712 78.6757L382.829 83.8541L386.712 89.0324H391.89L386.712 103.273L389.301 122.692L388.007 129.165L386.712 130.459L382.829 127.87L380.241 130.459H382.829L381.535 131.754L373.769 127.87L372.475 130.459L369.886 127.87L366.003 129.165L364.709 134.343L359.531 133.049L362.12 139.522L359.531 143.405H353.06V145.995L347.882 149.878H350.471L349.177 152.468L342.705 156.351L338.822 155.057L336.233 158.941H333.645V175.77H329.762L328.467 179.654H324.584L321.996 186.127L312.935 192.6L315.524 219.786L307.758 223.67L303.875 218.492L294.814 219.786L293.52 215.903L287.048 212.019L283.165 206.841L274.105 212.019L268.928 208.135H271.516V205.546H261.162L259.867 202.957H254.69L245.63 206.841L240.452 205.546V213.314L232.686 218.492L227.509 217.197L223.626 224.965L222.332 223.67L213.271 228.849V214.608L206.8 215.903L202.917 209.43H189.973L186.09 213.314H183.501L179.618 219.786L166.675 228.849V227.554Z" fill="#30E886" fill-opacity="0.5" stroke="#0000FF" stroke-opacity="0.4" stroke-linecap="round" stroke-linejoin="round"/>
<path id="9305" class="district" name="Chơn Thành" fill-rule="evenodd" clip-rule="evenodd" d="M78.6602 443.751L73.4829 447.635H69.5999L61.8338 438.573L65.7168 430.806V425.627L61.8338 421.743L65.7168 415.27H68.3055L77.3659 407.503L69.5999 391.968L78.6602 388.084V380.316H92.8979L100.664 377.727L103.253 379.022L109.724 376.433H117.49L116.196 377.727L120.079 381.611V376.433L126.551 369.96V367.37H135.611L131.728 364.781L130.434 357.014L133.022 333.711L136.905 338.889L142.083 341.479L143.377 340.184L148.554 344.068L158.909 335.006H162.792L169.264 338.889L170.558 344.068H167.969V346.657L171.852 350.541L170.558 351.835L173.147 358.308L166.675 359.603L169.264 364.781L165.381 367.37L166.675 369.96L164.086 372.549H166.675V376.433L169.264 377.727V380.316L165.381 382.906V386.789L167.969 388.084L162.792 390.673L169.264 393.262L162.792 395.851L161.498 406.208L164.086 407.503L161.498 411.387L156.32 413.976L155.026 417.86H149.849V421.743L145.966 423.038L139.494 434.689L135.611 432.1L130.434 434.689L126.551 432.1L127.845 439.868L125.256 441.162L127.845 445.046L125.256 455.403L114.902 452.814H101.958L98.0753 450.224L96.7809 438.573L81.2489 442.457L78.6602 443.751Z" fill="#30DCE8" fill-opacity="0.5" stroke="#0000FF" stroke-opacity="0.4" stroke-linecap="round" stroke-linejoin="round"/>
<g id="9304" class="district" name="Đồng Phú">
<path fill-rule="evenodd" clip-rule="evenodd" d="M231.392 461.876H224.92L218.449 468.349L217.154 470.938L219.743 477.411L215.86 474.822H213.271L210.683 470.938V467.054L214.566 461.876L213.271 459.287H210.683V445.046H204.211L200.328 442.457L189.973 445.046L184.796 442.457H177.03L178.324 433.395H171.852L170.558 420.449H174.441L187.385 408.797L188.679 403.619H193.856L196.445 399.735H202.917L204.211 397.146L219.743 394.557H226.215L231.392 399.735L235.275 397.146L236.569 398.441L237.864 393.262L240.452 394.557L239.158 390.673L243.041 389.378L241.747 382.905L245.63 380.316L244.335 373.843H246.924L245.63 369.959L240.452 366.076V363.487H237.864V359.603L243.041 357.014L240.452 351.835H243.041V349.246L240.452 347.951L228.803 351.835H210.683V357.014L204.211 355.719L199.034 360.897L192.562 359.603V354.424L184.796 355.719L182.207 353.13L178.324 355.719L179.618 357.014L173.147 358.308L170.558 351.835L171.852 350.541L167.969 346.657V344.068H170.558V340.184L167.969 337.595L169.264 333.711L173.147 335.005L175.735 332.416H180.913V324.649L184.796 323.354L187.385 325.943L189.973 320.765L196.445 323.354L195.151 320.765L197.739 322.059L196.445 320.765L199.034 319.47L196.445 318.176V314.292H204.211L206.8 311.703L208.094 312.997V310.408L213.271 311.703H218.449L217.154 312.997L222.332 318.176L224.92 312.997L230.098 310.408H235.275L237.864 312.997L241.747 309.114L243.041 314.292H246.924L254.69 309.114L262.456 316.881L263.75 320.765L268.928 318.176L267.633 316.881L271.516 314.292L272.811 315.586L280.577 311.703L289.637 318.176V323.354L296.109 320.765L302.58 314.292H305.169L306.463 322.059L318.113 327.238L316.818 332.416L321.996 344.068L331.056 342.773L338.822 350.541L343.999 347.951L346.588 349.246L341.411 353.13L336.233 364.781L341.411 382.905L336.233 388.084L334.939 393.262H325.879L321.996 401.03H319.407L314.23 407.503L312.935 406.208V408.797H310.347V420.449L311.641 419.154L314.23 425.627L312.935 424.332L310.347 426.922L311.641 430.805L305.169 433.395L307.758 438.573L305.169 442.457L306.463 443.751H303.875V446.341L298.697 443.751V446.341H294.814L298.697 448.93H296.109V451.519L292.226 455.403L290.931 454.108L287.048 457.992L285.754 456.697L283.165 459.287L285.754 461.876L280.577 463.17V465.759L277.988 464.465L279.282 465.759L275.399 467.054L276.694 468.349L274.105 465.759H270.222L268.928 467.054L271.516 474.822L265.045 473.527L266.339 472.232L262.456 474.822L261.162 473.527L257.279 480L252.101 476.116L248.218 477.411L255.984 469.643V463.17L250.807 456.697L245.63 454.108H237.864L232.686 457.992V460.581L231.392 461.876Z" fill="#306EE8" fill-opacity="0.5"/>
<path d="M215.86 474.822L219.743 477.411L217.154 470.938L218.449 468.349L224.92 461.876H231.392L232.686 460.581V457.992L237.864 454.108H245.63L250.807 456.697L255.984 463.17V469.643L248.218 477.411L252.101 476.116L257.279 480L261.162 473.527L262.456 474.822L266.339 472.232L265.045 473.527L271.516 474.822L268.928 467.054L270.222 465.759H274.105L276.694 468.349L275.399 467.054L279.282 465.759L277.988 464.465L280.577 465.759V463.17L285.754 461.876L283.165 459.287L285.754 456.697L287.048 457.992L290.931 454.108L292.226 455.403L296.109 451.519V448.93H298.697L294.814 446.341H298.697V443.751L303.875 446.341V443.751H306.463L305.169 442.457L307.758 438.573L305.169 433.395L311.641 430.805L310.347 426.922L312.935 424.332L314.23 425.627L311.641 419.154L310.347 420.449V408.797H312.935V406.208L314.23 407.503L319.407 401.03H321.996L325.879 393.262H334.939L336.233 388.084L341.411 382.905L336.233 364.781L341.411 353.13L346.588 349.246L343.999 347.951L338.822 350.541L331.056 342.773L321.996 344.068L316.818 332.416L318.113 327.238L306.463 322.059L305.169 314.292H302.58L296.109 320.765L289.637 323.354V318.176L280.577 311.703L272.811 315.586L271.516 314.292L267.633 316.881L268.928 318.176L263.75 320.765L262.456 316.881L254.69 309.114L246.924 314.292H243.041L241.747 309.114L237.864 312.997L235.275 310.408H230.098L224.92 312.997L222.332 318.176L217.154 312.997L218.449 311.703H213.271M215.86 474.822L214.566 476.116M215.86 474.822H213.271L210.683 470.938V467.054L214.566 461.876L213.271 459.287H210.683V445.046H204.211L200.328 442.457L189.973 445.046L184.796 442.457H177.03L178.324 433.395H171.852L170.558 420.449H174.441L187.385 408.797L188.679 403.619H193.856L196.445 399.735H202.917L204.211 397.146L219.743 394.557H226.215L231.392 399.735L235.275 397.146L236.569 398.441L237.864 393.262L240.452 394.557L239.158 390.673L243.041 389.378L241.747 382.905L245.63 380.316L244.335 373.843H246.924L245.63 369.959L240.452 366.076V363.487H237.864V359.603L243.041 357.014L240.452 351.835H243.041V349.246L240.452 347.951L228.803 351.835H210.683V357.014L204.211 355.719L199.034 360.897L192.562 359.603V354.424L184.796 355.719L182.207 353.13L178.324 355.719L179.618 357.014L173.147 358.308L170.558 351.835L171.852 350.541L167.969 346.657V344.068H170.558V340.184L167.969 337.595L169.264 333.711L173.147 335.005L175.735 332.416H180.913V324.649L184.796 323.354L187.385 325.943L189.973 320.765L196.445 323.354L195.151 320.765L197.739 322.059L196.445 320.765L199.034 319.47L196.445 318.176V314.292H204.211L206.8 311.703L208.094 312.997V310.408L213.271 311.703M213.271 311.703V314.292" stroke="#0000FF" stroke-opacity="0.4" stroke-linecap="round" stroke-linejoin="round"/>
</g>
<g id="9303" class="district" name="Hớn Quản">
<path fill-rule="evenodd" clip-rule="evenodd" d="M51.4791 393.262L38.5358 385.495L28.1811 386.789L12.649 384.2L8.76601 386.789L6.17734 382.905L10.0603 377.727L8.76601 368.665L12.649 367.37L15.2377 362.192L20.415 364.781L24.2981 362.192L26.8867 364.781L29.4754 362.192H33.3584V358.308L38.5358 351.835V346.657L34.6527 338.889L37.2414 335.005L32.0641 332.416V329.827H28.1811L25.5924 324.649L26.8867 318.176L23.0037 315.587L24.2981 312.997L20.415 310.408L25.5924 307.819L23.0037 305.23L26.8867 298.757V294.873L34.6527 290.989L35.9471 292.284L38.5358 289.695H52.7735L59.2451 292.284L61.8338 296.168L70.8942 297.462L73.4829 302.641L69.5998 310.408L76.0715 315.587L79.9545 332.416L91.6036 335.005L99.3696 331.122L98.0753 320.765L101.958 322.059L103.253 310.408L105.841 309.114L107.136 303.935L104.547 301.346V297.462L112.313 285.811L105.841 276.749L104.547 278.043L98.0753 275.454L99.3696 274.159L96.7809 271.57L104.547 265.097H111.019L113.607 267.686L116.196 266.392L126.551 254.741L133.022 252.151L134.317 253.446L157.615 248.268L161.498 249.562L164.086 262.508L170.558 271.57L167.969 272.865L169.264 274.159L166.675 276.749L161.498 279.338L164.086 281.927L158.909 288.4H156.32L158.909 293.578L167.969 297.462L170.558 301.346L167.969 302.641L175.735 309.114L174.441 320.765H171.852V328.532L174.441 329.827L173.147 335.005L170.558 333.711L167.969 337.595L158.909 335.005L149.849 340.184L148.554 344.068L143.377 340.184L142.083 341.478L136.905 338.889L134.317 333.711L130.434 357.014L131.728 364.781L135.611 367.37H126.551L123.962 373.843L120.079 376.432L121.373 381.611L116.196 379.022L118.785 376.432H109.724L103.253 379.022L100.664 377.727L92.8979 381.611L78.6602 380.316V388.084L73.4829 389.378L63.1282 401.03L51.4791 393.262Z" fill="#6130E8" fill-opacity="0.5"/>
<path d="M29.4754 362.192L26.8867 364.781L24.2981 362.192L20.415 364.781L15.2377 362.192L12.649 367.37L8.76601 368.665L10.0603 377.727L6.17734 382.905L8.76601 386.789L12.649 384.2L28.1811 386.789L38.5358 385.495L51.4791 393.262L63.1282 401.03L73.4829 389.378L78.6602 388.084V380.316L92.8979 381.611L100.664 377.727L103.253 379.022L109.724 376.432H118.785L116.196 379.022L121.373 381.611L120.079 376.432L123.962 373.843L126.551 367.37H135.611L131.728 364.781L130.434 357.014L134.317 333.711L136.905 338.889L142.083 341.478L143.377 340.184L148.554 344.068L149.849 340.184L158.909 335.005L167.969 337.595L170.558 333.711L173.147 335.005L174.441 329.827L171.852 328.532V320.765H174.441L175.735 309.114L167.969 302.641L170.558 301.346L167.969 297.462L158.909 293.578L156.32 288.4H158.909L164.086 281.927L161.498 279.338L166.675 276.749L169.264 274.159L167.969 272.865L170.558 271.57L164.086 262.508L161.498 249.562L157.615 248.268L134.317 253.446L133.022 252.151L126.551 254.741L116.196 266.392L113.607 267.686L111.019 265.097H104.547L96.7809 271.57L99.3696 274.159L98.0753 275.454L104.547 278.043L105.841 276.749L112.313 285.811L104.547 297.462V301.346L107.136 303.935L105.841 309.114L103.253 310.408L101.958 322.059L98.0753 320.765L99.3696 331.122L91.6036 335.005L79.9545 332.416L76.0715 315.587L69.5998 310.408L73.4829 302.641L70.8942 297.462L61.8338 296.168L59.2451 292.284L52.7735 289.695H38.5358L35.9471 292.284L34.6527 290.989L26.8867 294.873V298.757L23.0037 305.23L25.5924 307.819L20.415 310.408L24.2981 312.997L23.0037 315.587L26.8867 318.176L25.5924 324.649L28.1811 329.827H32.0641V332.416L37.2414 335.005L34.6527 338.889L38.5358 346.657V351.835L33.3584 358.308V362.192H29.4754ZM29.4754 362.192L30.7697 363.487" stroke="#0000FF" stroke-opacity="0.4" stroke-linecap="round" stroke-linejoin="round"/>
</g>
<path id="9302" class="district" name="Lộc Ninh" fill-rule="evenodd" clip-rule="evenodd" d="M24.2981 307.819L23.0037 309.114L19.1207 305.23L21.7094 297.462L20.4151 293.578L13.9434 285.811L11.3547 280.632L12.649 279.338L6.17735 270.276L7.47168 268.981L2.29434 256.035L4.88301 254.741L3.58867 253.446L8.76602 246.973L11.3547 241.795L10.0604 240.5H12.649L11.3547 237.911L19.1207 227.554L13.9434 222.376V215.903L17.8264 208.135L24.2981 210.724L26.8867 206.841L1 156.351L12.649 157.646L11.3547 156.351L16.532 149.878H21.7094L25.5924 151.173L29.4754 157.646L35.9471 158.941H41.1244L48.8905 153.762L57.9508 155.057L56.6565 158.941L103.253 156.351L104.547 162.824H107.136L108.43 156.351H111.019V161.53H118.785L113.607 155.057V152.468L118.785 149.878L122.668 155.057H125.256L122.668 161.53H126.551V165.414L131.728 171.887L133.022 184.832L152.437 197.778H157.615L160.203 201.662V206.841L164.086 208.135L162.792 219.787L166.675 224.965L164.086 249.562L157.615 248.268L138.2 253.446L133.022 252.151L126.551 254.741L114.902 267.687L105.841 265.097L99.3696 270.276H79.9545L77.3659 274.16L73.4829 272.865V275.454L70.8942 274.16L68.3055 275.454L69.5999 276.749L64.4225 274.16L55.3621 275.454L54.0678 278.043L50.1848 276.749L43.7131 280.632L41.1244 288.4L37.2414 292.284L30.7697 290.989L25.5924 300.051L26.8867 301.346L23.0037 305.23L25.5924 307.819H24.2981Z" fill="#D030E8" fill-opacity="0.5" stroke="#0000FF" stroke-opacity="0.4" stroke-linecap="round" stroke-linejoin="round"/>
<path id="9301" class="district" name="Phú Riềng" fill-rule="evenodd" clip-rule="evenodd" d="M199.034 315.587L197.739 314.292L196.445 316.881L199.034 319.47L195.151 320.765L196.445 323.354L192.562 322.06L193.856 320.765H191.268L187.385 324.649L184.796 323.354L179.618 328.533L182.207 332.416L173.147 333.711L174.441 329.827L171.852 322.06L174.441 319.47L175.735 309.114L167.969 302.641V297.462L156.32 289.695L164.086 281.927L161.498 279.338L166.675 278.043L170.558 270.276L164.086 262.508L161.498 250.857L165.381 239.205V232.733L170.558 224.965H173.147L182.207 217.197L180.913 215.903L183.502 213.314L186.09 214.608L191.268 209.43L202.917 208.135L206.8 215.903L213.271 214.608V228.849L221.037 223.67L223.626 224.965L226.215 217.197L232.686 218.492L240.452 213.314L241.747 205.546L244.335 206.841V210.724L248.218 213.314L250.807 219.787L249.513 224.965L245.63 228.849H243.041V231.438L246.924 235.322V239.205L249.513 237.911L254.69 245.678L257.279 243.089L265.045 252.151L270.222 249.562L275.399 250.857L276.694 253.446L287.048 243.089H292.226L294.814 248.268H301.286L315.524 239.205L316.818 252.151L314.23 253.446V259.919H311.641L310.347 263.803L309.052 261.214L307.758 262.508L309.052 265.097L306.464 268.981L310.347 272.865L311.641 271.57L315.524 274.16V281.927L311.641 292.284L312.935 294.873L306.464 293.578L303.875 296.168V301.346L307.758 303.935L303.875 305.23V314.292L298.697 315.587L294.814 322.06H289.637V318.176L281.871 311.703H277.988V314.292H270.222V316.881H267.633L268.928 318.176L263.75 320.765L262.456 316.881L254.69 309.114L246.924 314.292H244.335L241.747 309.114L237.864 311.703L230.098 310.408L224.92 312.997L222.332 318.176L217.154 314.292V311.703H214.566V314.292L208.094 310.408V312.997L206.8 310.408L205.505 314.292L204.211 312.997L199.034 315.587Z" fill="#E83092" fill-opacity="0.5" stroke="#0000FF" stroke-opacity="0.4" stroke-linecap="round" stroke-linejoin="round"/>
</g>
</svg>
