<svg width="484" height="486" viewBox="0 0 484 486" fill="none" xmlns="http://www.w3.org/2000/svg">
<g id="94 7">
<g id="94" name="Bạc Liêu">
<path id="9607" class="district" name="TP Bạc Liêu" fill-rule="evenodd" clip-rule="evenodd" d="M396.944 337.528L391.69 338.579L390.641 341.728L383.288 343.829L375.934 323.873L367.53 327.025V320.722L368.581 319.673L369.632 321.772H371.731V319.673L375.934 318.623L373.833 313.37L369.632 314.421L367.53 307.069L372.782 304.968L366.479 286.063L354.925 297.617V291.313L352.823 288.164L353.874 283.962L354.925 285.012L349.673 276.61L350.722 275.56L348.622 273.459L349.673 272.408L347.571 270.307V267.158L343.37 262.956L345.47 261.905V259.804L365.428 252.453L366.479 255.604L373.833 252.453H378.034L382.237 247.202L385.387 248.25L387.489 254.554L394.842 264.006L399.043 259.804L406.397 256.655L410.6 251.402H415.852L419.002 248.25L445.265 233.547L455.769 281.861L450.517 285.012L456.82 307.069L447.365 311.269L444.214 314.421L442.113 313.37L440.011 315.471L427.406 319.673L423.205 323.873L419.002 324.924L416.902 328.075L400.094 337.528H396.944Z" fill="#D147AC" fill-opacity="0.5" stroke="#0000FF" stroke-opacity="0.4" stroke-linecap="round" stroke-linejoin="round"/>
<path id="9406" class="district" name="Giá Rai" fill-rule="evenodd" clip-rule="evenodd" d="M24.0293 358.534L17.7265 342.779L10.3733 338.579L8.27239 341.728L7.22192 340.68L6.17147 332.275L1.96962 331.225V322.823L7.22192 321.772L28.2312 295.516L37.6854 290.263L68.1487 261.905L81.8047 272.408L86.0066 268.208L93.3598 265.057L119.621 238.798L124.873 228.295L130.126 223.044L146.933 228.295L161.64 227.246L171.094 231.446H184.75L213.113 240.899V243L217.314 245.101H212.062V254.554L219.415 256.655V271.358L217.314 274.509H224.667V272.408H227.82L226.769 274.509L229.919 273.459L232.021 276.61H241.476L242.524 278.711L239.374 285.012L241.476 288.164L240.425 292.364L243.575 293.415V295.516L196.305 308.12L198.406 312.32L197.355 314.421L186.851 312.32L180.548 316.522L183.699 319.673L179.498 325.974L165.842 322.823L161.64 334.376L149.034 329.126H146.933V331.225L136.429 332.275L135.378 323.873L116.47 329.126L53.4423 353.282L37.6854 361.684L33.4835 355.383L27.1806 356.433L26.1303 358.534L25.0797 357.484L24.0293 358.534Z" fill="#D1475A" fill-opacity="0.5" stroke="#0000FF" stroke-opacity="0.4" stroke-linecap="round" stroke-linejoin="round"/>
<path id="9405" class="district" name="Đông Hải" fill-rule="evenodd" clip-rule="evenodd" d="M142.731 483.521L144.832 468.816L137.479 461.464L138.53 457.262L128.025 449.911L124.873 444.658H121.722L113.318 452.012L110.167 448.86L103.864 449.911L97.5617 447.81V441.509L84.956 440.458L81.8047 444.658L67.0981 440.458L66.0478 437.307L60.7955 435.206L57.644 431.006L49.2404 425.753L33.4835 431.006L25.0797 423.652L17.7265 425.753V423.652L12.4742 421.553L11.4238 418.401L15.6256 415.25L13.5247 409.999L15.6256 403.696L13.5247 401.597L18.777 390.044L25.0797 386.892V379.541L28.2312 374.288L35.5844 370.088H38.7357L37.6854 361.684L53.4423 353.282L116.47 329.126L135.378 323.873L136.429 332.275L146.933 331.225V329.126H149.034L161.64 334.376L165.842 322.823L179.498 325.974L183.699 319.673L180.548 316.522L186.851 312.32L197.355 314.421L198.406 312.32L196.305 308.12L242.524 295.516L269.836 392.145L239.374 403.696L198.406 427.854L177.397 445.709L164.791 459.363L149.034 480.37L142.731 483.521Z" fill="#D18847" fill-opacity="0.5" stroke="#0000FF" stroke-opacity="0.4" stroke-linecap="round" stroke-linejoin="round"/>
<path id="9404" class="district" name="Hòa Bình" fill-rule="evenodd" clip-rule="evenodd" d="M326.562 367.987L316.058 374.288L309.756 375.338L269.836 392.145L242.524 295.516L243.575 293.415L240.425 292.364L242.524 288.164L239.374 285.012L242.524 278.711L241.476 276.61H232.021L230.97 273.459L226.769 274.509L227.82 272.408H224.667V274.509H217.314L219.415 271.358V256.655L212.062 254.554V245.101H226.769L225.718 231.446L229.919 232.497L230.97 224.095L238.323 223.044L244.626 202.038L263.534 225.145L264.585 218.842L284.543 217.792L287.696 214.642L288.746 216.743L300.301 215.693L324.46 240.899L312.906 248.25L311.855 253.503L317.107 262.956L315.008 266.107L321.31 268.208L326.562 291.313L328.664 294.465L337.068 292.364L338.116 290.263L341.269 289.215L340.218 285.012L351.772 279.76L354.925 285.012L353.874 283.962L352.823 288.164L354.925 291.313V297.617L366.479 286.063L372.782 304.968L367.53 307.069L369.632 314.421L373.833 313.37L375.934 318.623L371.731 319.673V321.772H369.632L368.581 319.673V322.823L366.479 323.873L367.53 327.025L375.934 323.873L383.288 343.829L367.53 349.082L338.116 362.734L339.167 365.886L336.017 364.835L329.714 366.936L326.562 367.987Z" fill="#B7E830" fill-opacity="0.5" stroke="#0000FF" stroke-opacity="0.4" stroke-linecap="round" stroke-linejoin="round"/>
<path id="9401" class="district" name="Hồng Dân" fill-rule="evenodd" clip-rule="evenodd" d="M240.425 146.372L221.517 125.366L217.314 123.265L216.263 124.315L214.164 122.215L199.456 135.869L194.204 130.617L193.154 124.315L166.892 115.913L160.589 114.862L157.438 119.064L149.034 116.963L145.883 128.516L144.832 127.466L68.1487 199.937H60.7955L59.7449 195.736L56.5936 192.585L52.3917 193.636L51.3414 195.736L38.7357 188.384L37.6853 190.485L25.0797 187.334L36.6348 161.076L40.8367 158.975L49.2404 160.026L47.1395 133.768L50.2908 123.265L49.2404 118.013L52.3917 113.812V105.41L54.4927 103.309L57.644 106.46L60.7955 103.309L64.9974 107.51L66.0477 101.209L71.3 95.957L69.1991 89.6551H74.4515L76.5525 87.5545L73.4009 84.4036V78.1017L70.2496 73.9004L72.3506 64.4476L66.0477 62.347L60.7955 65.4979L58.6946 63.3973L62.8964 52.8944L49.2404 43.4416L46.0889 35.0391L42.9376 31.8882L45.0385 20.3348L42.9376 11.9324L46.0889 8.78143L47.1395 2.4796H49.2404L52.3917 8.78143H56.5936L55.543 14.033L59.7449 25.5863H64.9974L74.4515 31.8882L76.5525 30.8379L77.6028 27.6869H81.8047L84.956 21.3851L87.057 29.7876L90.2083 30.8379L88.1075 37.1397H102.814L107.016 41.341L108.066 33.9888H110.167L112.268 37.1397V41.341L114.369 42.3913L122.773 39.2404L125.924 40.2907L130.126 36.0894L129.075 32.9385H138.53L141.681 29.7876L143.782 30.8379V37.1397L152.186 35.0391V30.8379H154.286L161.64 35.0391L165.842 33.9888L167.942 41.341L173.195 39.2404L177.397 41.341L182.649 38.1901V33.9888L188.952 38.1901L187.901 43.4416H195.255L198.406 45.5422L201.557 42.3913V38.1901H209.961V41.341L215.212 43.4416L217.314 40.2907H221.517L223.616 38.1901V35.0391H229.919L233.071 32.9385L235.173 38.1901L240.425 42.3913L248.827 56.0454L241.476 120.114L242.524 123.265L240.425 131.667L241.476 147.422L240.425 146.372Z" fill="#49E830" fill-opacity="0.5" stroke="#0000FF" stroke-opacity="0.4" stroke-linecap="round" stroke-linejoin="round"/>
<path id="9402" class="district" name="Phước Long" fill-rule="evenodd" clip-rule="evenodd" d="M49.2404 279.76L16.6761 247.202L13.5247 236.699L16.6761 231.446L51.3414 196.787L52.3917 193.636L56.5936 192.585L59.7449 195.736L60.7955 199.937H68.1487L144.832 127.466L145.883 128.516L149.034 116.963L157.438 119.064L160.589 114.863L193.154 124.315L194.204 130.617L199.456 135.869L214.164 122.215L216.263 124.315L217.314 123.265L221.517 125.366L266.686 175.78L246.727 194.686L238.323 223.044L230.97 224.095L229.919 232.497L225.718 231.446L226.769 245.101H217.314L213.113 243V240.899L184.75 231.446H171.094L161.64 227.246L146.933 228.295L131.176 223.044L124.873 228.295L119.621 238.798L95.4607 262.956L90.2083 267.158L86.0066 268.208L81.8047 272.408L68.1487 261.905L49.2404 279.76Z" fill="#30E886" fill-opacity="0.5" stroke="#0000FF" stroke-opacity="0.4" stroke-linecap="round" stroke-linejoin="round"/>
<path id="9403" class="district" name="Vĩnh Lợi" opacity="0.94" fill-rule="evenodd" clip-rule="evenodd" d="M312.906 248.25L324.46 240.899L301.352 215.693L288.746 216.743L287.696 214.642L284.543 217.792L264.585 218.842L263.534 225.145L244.626 202.038L246.727 194.686L266.686 175.78L268.788 177.881L274.04 168.428L279.291 171.579L283.492 168.428L285.594 170.529L284.543 172.629L288.746 176.831H291.897L292.947 181.032H295.049L298.199 174.73L312.906 179.982L313.957 185.233L310.804 189.434L315.008 191.535L319.209 190.485L321.31 192.585V195.736H323.412L324.46 197.837L339.167 193.636L342.32 198.887H346.521L350.722 203.088L354.925 202.038L363.329 204.139L365.428 190.485L363.329 189.434L367.53 188.384V190.485H369.632L371.731 193.636H378.034V191.535L380.135 192.585L381.186 189.434L384.338 191.535L387.489 190.485V185.233L390.641 186.283L394.842 184.183L395.893 181.032H399.043V177.881L400.094 179.982L402.196 177.881H406.397V175.78L407.447 177.881H410.6L412.699 179.982L414.801 177.881L419.002 184.183L425.307 186.283H423.205L419.002 193.636L425.307 199.937L428.457 198.887V202.038L430.558 204.139H433.709L434.759 206.239L440.011 205.189L445.265 209.39H449.466V207.29L446.314 204.139L450.517 203.088L453.667 197.837L451.568 191.535L452.616 190.485L457.87 193.636L461.021 192.585L463.122 187.334H459.97L461.021 185.233L464.173 186.283L467.323 183.132L469.425 184.183L468.374 186.283L473.626 189.434L472.577 193.636L476.778 195.736L475.727 197.837L479.928 198.887L476.778 200.988L479.928 207.29V211.491L482.03 213.592L480.979 217.792L478.88 216.743L471.526 221.994L458.921 226.196L436.861 237.75L415.852 251.402H410.6L406.397 256.655L399.043 259.804L394.842 264.006L383.288 247.202L374.883 253.503L373.833 252.453L366.479 255.604L365.428 252.453L345.47 259.804L344.419 262.956L347.571 267.158L351.772 279.76L340.218 285.012L341.269 289.215L338.116 290.263L337.068 292.364L328.664 294.465L326.562 291.313L321.31 268.208L315.008 266.107L317.107 262.956L311.855 253.503L312.906 248.25Z" fill="#30DCE8" fill-opacity="0.5" stroke="#0000FF" stroke-opacity="0.4" stroke-linecap="round" stroke-linejoin="round"/>
</g>
</g>
</svg>
