<svg width="582" height="427" viewBox="0 0 582 427" fill="none" xmlns="http://www.w3.org/2000/svg">
<g id="95" name="Hậu Giang">
<path id="9508" class="district" name="TP Vị Thanh" fill-rule="evenodd" clip-rule="evenodd" d="M12.1538 324.328V315.966L1 304.817L3.78846 302.03L12.1538 300.636L28.8846 292.274L33.0673 289.487L42.8269 275.55L51.1923 269.976L65.1346 267.188L67.9231 260.22L79.0769 251.858L84.6538 254.645L87.4423 251.858L90.2308 247.677L88.8365 243.496H83.2596L79.0769 233.741L88.8365 230.953H84.6538L86.0481 223.985L90.2308 228.166L91.625 226.772L88.8365 223.985L90.2308 222.591L94.4135 225.379L91.625 221.198L94.4135 218.41L97.2019 223.985V217.017L99.9904 219.804L102.779 218.41L99.9904 215.623L101.385 214.229L109.75 211.442L111.144 208.655L112.538 210.048L105.567 184.963L136.24 175.207L140.423 190.537L147.394 189.144L157.154 182.175V191.931L159.942 196.112L164.125 198.899L171.096 193.325L179.462 203.08L178.067 211.442L172.49 210.048L171.096 218.41H166.913L168.308 219.804L165.519 223.985L159.942 258.826H146L144.606 261.614L133.452 267.188L136.24 272.763L134.846 278.338L130.663 283.912L129.269 290.88L118.115 292.274V302.03L115.327 303.423L109.75 300.636V295.061L106.962 293.668L99.9904 297.849L104.173 304.817L102.779 308.998L98.5962 310.392L90.2308 304.817H84.6538L81.8654 307.604L80.4712 315.966H77.6827L73.5 313.179L76.2885 304.817L72.1058 302.03L65.1346 306.211L56.7692 321.541H52.5865L51.1923 311.785L45.6154 313.179L38.6442 318.754L30.2788 320.147H26.0962L23.3077 314.573L19.125 315.966L20.5192 324.328L16.3365 325.722L12.1538 324.328Z" fill="#D147AC" fill-opacity="0.5" stroke="#0000FF" stroke-opacity="0.4" stroke-linecap="round" stroke-linejoin="round"/>
<path id="9507" class="district" name="Long Mỹ" fill-rule="evenodd" clip-rule="evenodd" d="M325.856 378.681L324.462 381.468L317.49 382.862L313.308 388.436L310.519 387.043L303.548 391.224H295.183L296.577 387.043L293.788 384.255L289.606 388.436L285.423 387.043L274.269 398.192L254.75 342.446L238.019 348.02L236.625 338.265L224.077 334.084V327.115L233.837 315.966L236.625 307.604L231.048 299.242L236.625 292.274L233.837 288.093L243.596 272.763L242.202 265.795L246.385 263.007L243.596 240.709L246.385 236.528L258.933 237.921L267.298 225.379L272.875 233.74L267.298 247.677L270.087 251.858L279.846 249.071L286.817 250.464L289.606 260.22L293.788 263.007V271.369L296.577 276.944L297.971 275.55L302.154 279.731L350.952 302.03L367.683 352.201L371.865 349.414L348.163 373.106L345.375 366.138L346.769 364.744L339.798 366.138L338.404 370.319L327.25 371.712V375.893L325.856 378.681Z" fill="#D1475A" fill-opacity="0.5" stroke="#0000FF" stroke-opacity="0.4" stroke-linecap="round" stroke-linejoin="round"/>
<path id="9506" class="district" name="Ngã Bảy" fill-rule="evenodd" clip-rule="evenodd" d="M530.808 193.324L536.385 196.112L526.625 237.921L509.894 218.41L477.827 205.867L480.615 200.293L469.462 204.474L466.673 203.08L469.462 183.569L459.702 173.813L456.913 164.058L454.125 161.27L452.731 164.058L449.942 161.27L447.154 162.664L448.548 150.121H455.519L462.49 144.547L469.462 143.153L476.433 130.61L479.221 133.397L491.769 136.185V118.067L507.106 116.673L515.471 120.854L514.077 125.035L518.26 126.429H529.413L528.019 129.216L540.567 130.61L539.173 132.004L541.962 133.397L543.356 129.216H548.933L546.144 147.334L543.356 145.94L537.779 159.877L530.808 193.324Z" fill="#D18847" fill-opacity="0.5" stroke="#0000FF" stroke-opacity="0.4" stroke-linecap="round" stroke-linejoin="round"/>
<path id="9505" class="district" name="Châu Thành" fill-rule="evenodd" clip-rule="evenodd" d="M502.923 116.673L491.769 118.067V136.185L479.221 133.397L476.433 130.61L470.856 140.366L466.673 138.972L465.279 134.791L455.519 130.61L456.913 118.067L452.731 106.918L440.183 101.343L434.606 94.3749H437.394L436 91.5876L434.606 92.9813V88.8003L431.817 87.4067L436 79.0447L434.606 67.8955L424.846 69.2891L422.058 65.1082V55.3526L406.721 60.9272L409.51 52.5653L415.087 51.1716L413.692 48.3843L423.452 35.8414L422.058 28.8731L440.183 38.6287L456.913 42.8097L459.702 38.6287L500.135 31.6604L502.923 27.4795L525.231 13.5429L558.692 45.597L581 59.5335L574.029 67.8955L565.663 69.2891L567.058 73.4701L562.875 76.2574V79.0447L557.298 81.832V88.8003H554.51L555.904 98.5559L550.327 108.311H554.51L550.327 113.886L554.51 118.067L551.721 119.461L548.933 129.216H543.356V133.397L539.173 132.004L540.567 130.61L528.019 129.216L529.413 126.429L514.077 125.035L515.471 120.854L507.106 116.673L505.712 118.067L502.923 116.673Z" fill="#B7E830" fill-opacity="0.5" stroke="#0000FF" stroke-opacity="0.4" stroke-linecap="round" stroke-linejoin="round"/>
<path id="9504" class="district" name="Châu Thành A" fill-rule="evenodd" clip-rule="evenodd" d="M284.029 120.854L270.087 134.791L210.135 79.0447L218.5 55.3526L222.683 56.7462L228.26 45.597L226.865 44.2033L232.442 38.6287L228.26 35.8414L240.808 9.36193L246.385 12.1492L251.962 1L263.115 6.57462L260.327 12.1492L297.971 51.1716L306.337 46.9906L307.731 40.0224L311.913 37.235L314.702 38.6287L324.462 31.6604L325.856 20.5112L337.01 24.6921V30.2668H346.769L352.346 33.0541L337.01 46.9906L349.558 58.1399L355.135 52.5653L356.529 53.9589L357.923 49.7779L373.26 44.2033V41.416L383.019 42.8097V38.6287L392.779 37.235L403.933 20.5112L409.51 26.0858H416.481L422.058 28.8731L423.452 35.8414L413.692 48.3843L415.087 51.1716L409.51 52.5653L406.721 60.9272L422.058 55.3526V65.1082L424.846 69.2891L434.606 67.8955L436 79.0447L433.212 87.4067H427.635L401.144 74.8637L381.625 84.6193H377.442L343.981 102.737L330.038 99.9496L323.067 90.194L296.577 108.311L284.029 120.854Z" fill="#49E830" fill-opacity="0.5" stroke="#0000FF" stroke-opacity="0.4" stroke-linecap="round" stroke-linejoin="round"/>
<path id="9503" class="district" name="Long Mỹ" fill-rule="evenodd" clip-rule="evenodd" d="M238.019 348.02L253.356 342.446L274.269 398.192L272.875 403.767H270.087V399.586L264.51 398.192V394.011L261.721 395.405L253.356 391.224L251.962 398.192L246.385 403.767L239.413 400.979L235.231 403.767L233.837 410.735H224.077L225.471 414.916L222.683 421.884L214.317 416.309L211.529 409.341L207.346 412.128H198.981L197.587 419.097L190.615 417.703L189.221 423.278L180.856 421.884V416.309H169.702V421.884L165.519 426.065L161.337 423.278H151.577L152.971 416.309L146 410.735L144.606 416.309L137.635 420.49L134.846 417.703L126.481 420.49L123.692 419.097L122.298 410.735L118.115 412.128L106.962 406.554H104.173V412.128H98.5961L94.4135 414.916L91.625 412.128V405.16L86.0481 409.341H73.5L74.8942 413.522L70.7115 419.097L66.5288 417.703L53.9808 421.884L51.1923 420.49V414.916L48.4038 410.735L51.1923 407.948L49.7981 396.798L55.375 387.043L62.3461 384.255L65.1346 380.074L66.5288 382.862L74.8942 384.255L73.5 378.681L81.8654 361.957H76.2885V359.17L81.8654 353.595H79.0769L67.9231 345.233L60.9519 348.02L51.1923 343.839L45.6154 346.627L42.8269 345.233V342.446L48.4038 335.477L47.0096 332.69L31.6731 336.871L28.8846 335.477L27.4904 328.509L13.5481 329.903L12.1538 324.328H20.5192L19.125 315.966L21.9135 314.573L26.0961 320.147H30.2788L38.6442 318.754L49.7981 311.785L52.5865 313.179V320.147L55.375 321.541L58.1635 320.147L65.1346 306.211L72.1058 302.03L76.2885 304.817L73.5 313.179L80.4711 315.966L83.2596 304.817H90.2308L97.2019 310.392L102.779 308.998L104.173 304.817L99.9904 297.849L102.779 295.061L106.962 293.668L109.75 299.242L115.327 303.423L119.51 300.636L116.721 295.061L118.115 292.274L122.298 290.88L126.481 292.274L132.058 299.242L125.087 306.211L126.481 308.998L129.269 310.392L134.846 307.604L139.029 310.392L141.817 315.966L155.76 303.423L190.615 283.912L197.587 271.369L210.135 281.125V295.061L217.106 297.849L226.865 292.274L231.048 295.061L232.442 303.423L236.625 307.604L233.837 315.966L224.077 327.115V334.084L236.625 338.265L238.019 348.02Z" fill="#30E886" fill-opacity="0.5" stroke="#0000FF" stroke-opacity="0.4" stroke-linecap="round" stroke-linejoin="round"/>
<path id="9502" class="district" name="Phụng Hiệp" fill-rule="evenodd" clip-rule="evenodd" d="M477.827 205.867L509.894 218.41L512.683 221.198L526.625 237.921L525.231 254.645L480.615 282.518L437.394 306.211L367.683 352.201L350.952 302.03L302.154 279.731L297.971 275.55L296.577 276.944L293.788 271.369V263.007L289.606 260.22L286.817 250.464L279.846 249.071L270.087 251.858L267.298 247.677L272.875 233.741L263.115 221.198L272.875 214.229L285.423 198.899L304.942 166.845L270.087 134.791L296.577 108.312L323.067 90.194L330.038 99.9496L341.192 102.737L348.163 101.343L377.442 84.6194H381.625L401.144 74.8638L427.635 87.4067L430.423 86.013L434.606 88.8003L433.212 90.194L437.394 94.375H434.606L440.183 101.343L452.731 105.524L456.913 118.067L455.519 130.61L465.279 134.791L469.462 143.153L448.548 150.121L447.154 162.664L454.125 161.27L461.096 176.601L465.279 177.994L469.462 183.569L466.673 203.08L469.462 204.474L480.615 200.293L477.827 205.867Z" fill="#30DCE8" fill-opacity="0.5" stroke="#0000FF" stroke-opacity="0.4" stroke-linecap="round" stroke-linejoin="round"/>
<path id="9501" class="district" name="Vị Thủy" fill-rule="evenodd" clip-rule="evenodd" d="M155.76 303.423L143.212 315.966L134.846 307.604L129.269 310.392L126.481 308.998L125.087 306.211L132.058 299.242L126.481 292.274L129.269 290.88L130.663 283.912L134.846 278.338L136.24 272.763L133.452 267.188L144.606 261.614L146 258.826H159.942L165.519 221.198L171.096 218.41L172.49 210.048L178.067 211.442L179.462 203.08L171.096 193.325L164.125 198.899L159.942 197.506L157.154 191.931V183.569H152.971L147.394 189.144L141.817 190.537L137.635 175.207L143.212 169.632L152.971 168.239L197.587 140.366L193.404 136.185L217.106 84.6194L304.942 166.845L288.212 193.325L286.817 198.899L272.875 215.623L263.115 221.198L267.298 225.379L258.933 237.922L246.385 236.528L243.596 240.709L246.385 263.007L242.202 265.795L243.596 271.369L233.837 288.093L236.625 290.88L233.837 293.668V297.849L228.26 292.274L217.106 297.849L210.135 295.061V281.125L197.587 271.369L190.615 283.912L186.433 286.699L155.76 303.423Z" fill="#306EE8" fill-opacity="0.5" stroke="#0000FF" stroke-opacity="0.4" stroke-linecap="round" stroke-linejoin="round"/>
</g>
</svg>
