<svg width="358" height="443" viewBox="0 0 358 443" fill="none" xmlns="http://www.w3.org/2000/svg">
<g id="97" name="Bắc kạn">
<path id="9708" class="district" name="TP Bắc Kạn" fill-rule="evenodd" clip-rule="evenodd" d="M199.018 286.213V291.006L201.418 292.205L207.418 289.807L217.019 294.602L215.819 301.791L219.419 307.783L217.019 312.576L214.619 310.18H212.219L211.019 312.576L207.418 310.18L203.818 317.371L197.817 314.973L193.017 323.363L190.617 324.559L187.017 317.371L188.217 312.576L185.816 307.783L178.616 306.586L175.015 310.18H172.615L169.015 306.586L163.014 305.387L160.614 301.791V298.197L163.014 295.799L161.814 291.006L164.215 286.213L161.814 287.412L159.414 281.42L152.213 277.823V269.436L154.614 267.038L153.414 263.444L159.414 259.847L166.615 258.651L167.815 257.452L165.415 250.261H167.815L175.015 253.855L176.215 256.253H181.016L187.017 262.245L191.817 263.444L190.617 269.436L194.217 270.635V273.03L199.018 275.428L201.418 279.022L199.018 283.815V286.213Z" fill="#D147AC" fill-opacity="0.5" stroke="#0000FF" stroke-opacity="0.4" stroke-linecap="round" stroke-linejoin="round"/>
<path id="9707" class="district" name="Ba Bể" fill-rule="evenodd" clip-rule="evenodd" d="M157.014 215.509L158.214 216.707L151.013 220.302L149.813 222.699L128.211 221.501L119.811 209.517L101.809 214.31L97.0085 211.913L93.4082 205.922L85.0075 204.723V195.136L87.4077 191.541L97.0085 187.946L98.2086 181.954L91.008 179.557L93.4082 174.764L92.2081 171.169L87.4077 167.574L85.0075 166.375L81.4072 168.772L77.8069 165.177H75.4067L71.8062 169.971L65.8057 167.574L63.4055 161.582L64.6056 157.987L62.2055 154.392L55.0049 156.788V148.4L52.6047 144.805L57.4051 138.813V132.821L74.2064 119.639L75.4067 120.837L80.2071 117.242L87.4077 116.044L92.2081 118.44L98.2086 112.449L103.009 114.845L105.409 112.449L111.41 111.25V118.44L113.81 123.234L124.611 119.639L130.612 120.837L134.212 124.432L143.813 122.036L146.213 120.837V108.854L143.813 100.465L152.213 95.6714L155.814 90.8778L164.215 104.06L171.415 105.258L176.215 102.862L177.416 107.655H181.016L187.017 104.06L206.218 111.25L205.018 112.449L208.619 118.44L205.018 126.829L201.418 128.027L199.018 131.623V140.011L193.017 148.4L194.217 156.788L189.417 160.384L185.816 166.375L188.217 173.566L184.616 178.359L196.617 187.946L201.418 198.732L200.218 201.128H195.417L194.217 205.922H176.215L172.615 210.715L166.615 214.31L159.414 215.509H157.014Z" fill="#D1475A" fill-opacity="0.5" stroke="#0000FF" stroke-opacity="0.4" stroke-linecap="round" stroke-linejoin="round"/>
<path id="9706" class="district" name="Bạch Thông" fill-rule="evenodd" clip-rule="evenodd" d="M103.009 307.783L100.609 304.188H98.2085V296.998L106.609 293.404L109.01 287.412H113.81L112.61 281.42L116.21 276.627L111.41 268.237L113.81 264.643L112.61 258.651L115.01 257.452L113.81 255.054L118.61 251.46L115.01 244.269H123.411L124.611 238.278L121.011 227.492L125.811 226.294L131.812 221.501L149.813 222.699L151.013 220.302L157.014 217.905V215.509L166.615 214.31L176.215 205.922H194.217L195.417 201.128H200.218L211.019 214.31H214.619L217.019 216.707L219.419 215.509L220.619 209.517L230.22 211.913L232.621 215.509L236.221 214.31V211.913L241.021 215.509L244.623 222.699V226.294L241.021 232.286L244.623 233.484L251.823 241.873L255.423 238.278L271.025 251.46L267.423 257.452L256.624 263.444L254.224 274.229L248.222 276.627L241.021 271.831L239.821 273.03L238.621 280.221L236.221 283.815H233.821V291.006L232.621 293.404L229.02 294.602L221.82 291.006L213.419 293.404L207.418 289.807L202.618 292.205L199.018 291.006L200.218 279.022L194.217 270.635L190.617 269.436L191.817 263.444H187.017L184.616 258.651L165.415 250.261L167.815 257.452L155.814 262.245L152.213 271.831V277.823L159.414 281.42L161.814 287.412L164.215 286.213L161.814 291.006V302.99H146.213V305.387L139.012 304.188L135.412 306.586L121.011 302.99L117.41 310.18L115.01 307.783H104.209H103.009Z" fill="#D18847" fill-opacity="0.5" stroke="#0000FF" stroke-opacity="0.4" stroke-linecap="round" stroke-linejoin="round"/>
<path id="9705" class="district" name="Chợ Đồn" fill-rule="evenodd" clip-rule="evenodd" d="M70.6061 347.331L65.8057 358.116L67.0058 366.503H64.6056V370.099L61.0053 371.296L53.8048 367.702H49.0041L41.8036 359.315L38.2033 356.917L37.0032 358.116V355.718L33.4029 352.124V346.132L28.6025 344.933L26.2023 329.355L20.2017 323.363V318.568H17.8015V316.172L15.4013 314.973L17.8015 313.775L20.2017 304.188L19.0016 301.791H16.6014L15.4013 296.998L17.8015 292.205L21.4018 289.807L20.2017 286.213L27.4024 279.022L28.6025 275.428L21.4018 273.03L17.8015 275.428L14.2012 268.237V261.046H9.40076V258.651L1 249.062L3.40021 247.866L2.20012 246.667L5.80043 240.674L3.40021 235.881V228.691L10.6009 226.294L11.801 223.897L15.4013 226.294L19.0016 222.699L14.2012 216.707H19.0016L26.2023 211.913L22.6019 207.12V202.327L26.2023 199.93H31.0027L29.8026 189.144L38.2033 185.549L37.0032 181.954L39.4034 178.359L37.0032 173.566L40.6035 166.375L39.4034 161.582L43.0037 159.185L45.4039 160.384L46.604 157.987L57.4051 160.384L59.8052 159.185L62.2054 153.193L64.6056 156.788L63.4055 161.582L68.2059 168.772L71.8062 169.971L75.4065 165.177H77.8069L81.4072 168.772L85.0075 166.375L92.2081 171.169L91.008 179.557L98.2085 181.954L97.0084 187.946L86.2076 192.74L83.8074 203.525L87.4077 205.922H93.4082L94.6083 209.517L101.809 214.31L119.81 209.517L125.811 216.707V219.104L130.612 221.501L125.811 226.294L121.011 227.492L124.611 238.278L123.411 244.269H115.01L117.41 245.468L118.61 251.46L113.81 255.054L115.01 257.452L112.61 258.651L113.81 264.643L111.41 268.237L113.81 274.229L116.21 275.428L112.61 281.42L113.81 287.412H109.01L106.609 293.404L100.609 295.799L98.2085 299.395V304.188H100.609L103.009 307.783H115.01L117.41 310.18V332.949L105.409 328.156L101.809 336.543L98.2085 338.941L93.4082 337.742L88.6078 341.339H83.8074L82.6073 344.933L81.4072 343.734L73.0063 346.132L70.6061 347.331Z" fill="#B7E830" fill-opacity="0.5" stroke="#0000FF" stroke-opacity="0.4" stroke-linecap="round" stroke-linejoin="round"/>
<path id="9704" class="district" name="Chợ Mới" fill-rule="evenodd" clip-rule="evenodd" d="M143.813 430.016L149.813 415.637V406.051L153.413 402.454L147.413 390.471L153.413 382.083L151.013 378.487L152.213 372.495H149.813L145.013 365.306L146.213 356.917L142.613 350.925V344.933L136.612 341.339L133.012 343.734L128.211 338.941L122.211 340.14L117.41 335.347L116.21 328.156L118.61 326.957V324.559L116.21 318.568V311.379L119.811 307.783L121.011 302.99L135.412 306.586L139.012 304.188L146.213 305.387V302.99H161.814L172.615 310.18L181.016 306.586L185.816 307.783L188.217 312.576L187.017 317.371L190.617 324.559H193.017V320.965L197.817 314.973H200.218L203.818 318.568V314.973L207.418 310.18L211.019 312.576L212.219 310.18H214.619L217.019 312.576L219.419 308.982L215.819 302.99V292.205L218.219 291.006L226.62 293.404L224.22 296.998L229.02 299.395L227.82 301.791H237.421L238.621 304.188L247.023 308.982L248.222 307.783L249.423 312.576L247.023 313.775L249.423 316.172L244.62 319.766L242.221 318.568L238.621 320.965L232.621 331.75L235.021 332.949L233.821 337.742H230.22L229.02 340.14L223.02 342.535V349.726L218.219 354.519L219.419 356.917L223.02 358.116V360.511L238.621 359.315L239.821 362.909L248.222 371.296L256.624 368.901V366.503H259.024L260.223 364.108V370.1L257.823 371.296L259.024 374.893L255.422 379.686L251.823 380.884L250.622 383.28L244.62 382.083L239.821 378.487L237.421 379.686V385.678L232.621 388.075V391.669L218.219 400.059H211.019L202.618 408.446L200.218 415.637L194.217 418.035L189.417 415.637V422.828L169.015 424.027L164.215 428.82V436.008L161.814 442H157.014L145.013 436.008V430.016H143.813Z" fill="#49E830" fill-opacity="0.5" stroke="#0000FF" stroke-opacity="0.4" stroke-linecap="round" stroke-linejoin="round"/>
<path id="9703" class="district" name="Na Ri" fill-rule="evenodd" clip-rule="evenodd" d="M277.024 378.487L269.824 371.296V368.901L262.623 365.306L260.223 367.702V365.306L256.624 366.503V368.901L248.222 371.296L238.621 359.315L224.22 360.511L218.219 355.718L220.619 353.323L221.82 344.933L224.22 341.339L235.021 335.347V332.949L232.621 331.75L238.621 320.965L241.021 318.568L244.623 319.766L249.423 316.172L247.023 313.775L249.423 312.576V307.783L247.023 308.981L237.421 302.99L227.82 301.791L229.02 299.395L224.22 296.998L225.42 294.602L233.821 292.205V283.815H236.221L238.621 280.221V275.428L241.021 271.831L248.222 276.627L254.224 274.229L256.624 263.444L267.423 257.452L271.025 251.46L255.423 238.278L251.823 241.873L244.623 233.484L241.021 232.286L244.623 226.294V222.699L236.221 211.913L239.821 208.318L254.224 207.12L257.823 203.525L271.025 202.327L272.224 204.723H274.624L283.026 198.732H301.026V189.144L311.828 181.954L313.027 178.359L317.827 175.963L322.628 168.772L329.828 167.574L333.43 173.566L338.23 174.764L344.23 180.756L346.63 185.549L340.631 191.541L341.829 192.74L339.429 193.938L337.029 204.723L341.829 213.112L347.831 214.31V217.905H350.231L357.432 225.096L353.83 246.667H351.43L346.63 252.659L347.831 261.046L352.631 264.643V267.038L347.831 271.831H344.23L343.031 275.428L334.629 283.815L333.43 282.619L332.229 287.412L328.63 289.807L331.03 291.006V293.404L321.429 301.791L319.029 312.576L303.426 310.18L299.827 316.172H293.826L292.627 318.568L295.027 329.355L291.425 332.949L298.626 343.734L297.427 352.124L299.827 353.323V365.306L298.626 368.901L297.427 367.702L292.627 370.099V372.495L298.626 373.694L292.627 379.686L279.424 377.288L277.024 378.487Z" fill="#30E886" fill-opacity="0.5" stroke="#0000FF" stroke-opacity="0.4" stroke-linecap="round" stroke-linejoin="round"/>
<path id="9702" class="district" name="Ngân Sơn" fill-rule="evenodd" clip-rule="evenodd" d="M236.221 211.913V214.31L232.621 215.509L230.22 211.913L220.619 209.517V215.509L217.019 216.707L208.619 211.913L207.418 208.318H205.018L200.218 201.128L201.418 198.732L197.817 187.946L184.616 178.359L188.217 173.566L185.816 166.375L188.217 160.384L194.217 156.788L193.017 148.4L199.018 140.011V131.623L206.218 124.432L208.619 118.44L207.418 117.242L212.219 116.044L218.219 102.862L226.62 101.663L229.02 104.06L235.021 101.663L237.421 96.8698L250.622 92.0762L257.823 86.0846L261.424 87.2829L268.625 83.6878L271.025 77.6959L279.424 82.4894L280.626 80.0926H285.426L286.625 81.291L281.825 88.4813L287.826 89.6795L291.425 93.2746L290.226 98.0681H293.826L291.425 100.465L295.027 104.06L293.826 106.457L302.227 108.854L299.827 123.234L302.227 128.027L291.425 140.011L295.027 151.995L292.627 155.59L296.226 157.987L298.626 162.78L302.227 160.384L303.426 162.78L305.826 161.582L310.627 165.177L317.827 156.788L323.829 157.987L322.628 159.185L326.229 160.384V162.78L331.03 167.574L321.429 169.971L320.228 173.566L311.828 181.954L301.026 189.144V197.533L295.027 201.128L292.627 198.732H283.026L274.624 204.723H272.224L271.025 202.327H266.225L259.024 203.525L254.224 207.12L238.621 209.517L236.221 211.913Z" fill="#30DCE8" fill-opacity="0.5" stroke="#0000FF" stroke-opacity="0.4" stroke-linecap="round" stroke-linejoin="round"/>
<path id="9701" class="district" name="Pác Nặm" opacity="0.9" fill-rule="evenodd" clip-rule="evenodd" d="M74.2064 119.639L71.8062 114.845L74.2064 105.258L70.6061 93.2746L62.2054 84.8862L58.6052 86.0845L59.8052 83.6878L51.4046 74.1007L52.6047 68.1088L44.2038 58.522V53.7285L49.0041 50.1333V44.1414L52.6047 40.5463H57.4051L59.8052 36.9511H65.8057L67.0058 34.5543L76.6068 35.7527L75.4065 26.1659L85.0075 20.174L95.8084 21.3723L99.4086 12.9837L104.209 8.19023L113.81 11.7853L117.41 6.99187L118.61 11.7853L123.411 6.99187V4.59513L128.211 5.79349L130.612 2.19836L135.412 1L145.013 10.587L141.412 14.1821L143.813 20.174L152.213 23.7691L145.013 34.5543H142.613L136.612 46.5382L130.612 50.1333V52.5301L135.412 53.7285L136.612 57.3236L141.412 60.9185L142.613 64.5137L139.012 68.1088L141.412 74.1007L147.413 72.9023L153.414 78.8943L148.613 88.4811L151.013 89.6794L149.813 90.8778L153.414 92.0762L152.213 95.6714L143.813 99.2665L146.213 108.854V120.837L134.212 124.432L130.612 120.837L124.611 119.639L113.81 123.234L111.41 118.44V111.25L105.409 112.449L100.609 116.044L98.2085 112.449L92.2081 118.44L87.4077 116.044L80.2071 117.242L75.4065 120.837L74.2064 119.639Z" fill="#306EE8" fill-opacity="0.5" stroke="#0000FF" stroke-opacity="0.4" stroke-linecap="round" stroke-linejoin="round"/>
</g>
</svg>
