<svg width="496" height="235" viewBox="0 0 496 235" fill="none" xmlns="http://www.w3.org/2000/svg">
<g id="98" name="Bắc Giang">
<path id="9810" class="district" name="TP Bắc Giang" fill-rule="evenodd" clip-rule="evenodd" d="M142.212 179.869L143.389 183.399L141.035 189.283L136.328 186.929L133.975 183.399L136.328 179.869L135.152 177.515H137.505V173.985L135.152 172.808L133.975 175.162L126.914 178.692L118.677 166.924L115.146 164.571L112.793 165.747V161.04L113.97 162.217V159.864L119.854 157.51L121.03 152.803L116.323 148.096L118.677 144.566L126.914 146.919V144.566H129.268L130.444 142.212L137.505 145.742L138.682 149.273L142.212 151.626L144.566 150.45L151.626 153.98L153.98 151.626L156.333 153.98H161.04L159.864 155.157L162.217 157.51V162.217L161.04 163.394L156.333 161.04L150.45 164.571L149.273 166.924L152.803 176.338H150.45L149.273 181.045H144.566L142.212 179.869Z" fill="#D147AC" fill-opacity="0.5" stroke="#0000FF" stroke-opacity="0.4" stroke-linecap="round" stroke-linejoin="round"/>
<path id="9809" class="district" name="Hiệp Hòa" fill-rule="evenodd" clip-rule="evenodd" d="M36.303 183.399L33.9495 184.576L31.596 181.045L28.0657 182.222L24.5354 179.869L25.7121 177.515L22.1818 169.278L18.6515 165.747V157.51L22.1818 155.157L17.4747 153.98L16.298 149.273H9.23737V139.859L1 135.152L3.35354 130.444L8.06061 131.621L12.7677 129.268V126.914L8.06061 128.091L13.9444 116.323L24.5354 118.677L28.0657 116.323L26.8889 104.556L28.0657 105.732L31.596 103.379L33.9495 105.732V90.4343L36.303 88.0808L44.5404 99.8485L46.8939 98.6717L50.4242 102.202H55.1313L58.6616 105.732L57.4848 111.616L63.3687 110.439L64.5455 113.97H57.4848L55.1313 116.323V119.854L58.6616 123.384H63.3687L66.899 129.268V133.975L62.1919 139.859L64.5455 145.742V158.687L69.2525 161.04L65.7222 165.747H57.4848L52.7778 170.455L49.2475 168.101L45.7172 173.985L48.0707 181.045L44.5404 182.222L42.1869 186.929L37.4798 184.576L36.303 183.399Z" fill="#D1475A" fill-opacity="0.5" stroke="#0000FF" stroke-opacity="0.4" stroke-linecap="round" stroke-linejoin="round"/>
<path id="9808" class="district" name="Lạng Giang" fill-rule="evenodd" clip-rule="evenodd" d="M177.515 137.505V149.273L181.045 151.626L186.929 149.273L189.283 152.803V157.51H175.162L169.278 161.04L170.455 164.571L164.571 161.04H161.04V153.98L159.864 155.157L153.98 151.626L151.626 153.98L148.096 150.449L142.212 151.626L137.505 145.742L130.444 142.212L129.268 141.035L135.152 130.444V125.737H132.798V122.207H129.268L131.621 118.677L128.091 115.146L126.914 109.263L123.384 108.086V102.202L130.444 92.7879L129.268 90.4343L131.621 89.2576L133.975 92.7879L136.328 91.6111V85.7273L141.035 86.904L142.212 84.5505H138.682L144.566 79.8434L145.742 83.3737L148.096 81.0202L151.626 83.3737L153.98 76.3131V79.8434L156.333 82.197L161.04 77.4899V81.0202L166.924 83.3737L175.162 79.8434V82.197L178.692 85.7273H183.399L182.222 84.5505L184.576 81.0202L188.106 84.5505L191.636 83.3737L195.167 89.2576L190.46 98.6717L197.52 106.909L201.051 104.556L202.227 106.909L190.46 117.5L188.106 116.323L185.753 118.677V133.975L178.692 137.505H177.515Z" fill="#D18847" fill-opacity="0.5" stroke="#0000FF" stroke-opacity="0.4" stroke-linecap="round" stroke-linejoin="round"/>
<g id="9807" class="district" name="Lục Nam">
<path fill-rule="evenodd" clip-rule="evenodd" d="M345.793 192.813L341.086 196.343V198.697L343.439 199.874L341.086 201.051L342.263 211.641L329.318 208.111L326.965 205.758L325.788 211.641H314.02L311.667 206.934H304.606L305.783 204.581L301.076 201.051H284.601L278.717 186.929L276.364 185.753L271.657 188.106L263.419 184.576L261.066 179.869V183.399H255.182L251.652 185.753L246.944 182.222L242.237 184.576L234 183.399L232.823 186.929H230.47L229.293 193.99L221.056 196.343L216.348 199.874L213.995 198.697L210.465 206.934L209.288 205.758L206.934 210.465L201.05 209.288L199.874 212.818L191.636 204.581V201.051L196.343 198.697L191.636 190.46L192.813 182.222L188.106 179.869L189.283 178.692L186.929 176.338L183.399 175.162V170.455L179.869 171.631L182.222 164.571L181.045 158.687L188.106 157.51L189.283 152.803L186.929 150.449L182.222 151.626L178.692 149.273V144.566L176.338 141.035L178.692 139.859L177.515 137.505L186.929 131.621L185.753 118.677L188.106 116.323L190.46 117.5L202.227 106.909L209.288 105.732L213.995 108.086L218.702 106.909L221.056 103.379H228.116L230.47 98.6717L226.939 96.3182L225.763 91.6111L230.47 88.0808H236.354L238.707 85.7273L244.591 89.2576L249.298 88.0808L248.121 99.8485L251.652 103.379H254.005L257.535 112.793V115.146L251.652 119.854L255.182 124.561L257.535 123.384L256.359 124.561L261.066 130.444H258.712L255.182 133.975L252.828 131.621L244.591 133.975L242.237 138.682L246.944 144.566H243.414L245.768 148.096L248.121 143.389L252.828 145.742L256.359 137.505L264.596 143.389L268.126 141.035L270.48 143.389L269.303 149.273L277.54 151.626L282.247 145.742L288.131 149.273L286.955 150.449L290.485 157.51L297.545 156.333L299.899 159.864L304.606 157.51L309.313 164.571L314.02 166.924H319.904L328.141 161.04H343.439L344.616 164.571L348.146 165.747L346.97 173.985L344.616 176.338L346.97 181.045L345.793 191.636V192.813Z" fill="#B7E830" fill-opacity="0.5"/>
<path d="M255.182 133.975L258.712 130.444H261.066L256.359 124.561L257.535 123.384L255.182 124.561L251.652 119.854L257.535 115.146V112.793L254.005 103.379H251.652L248.121 99.8485L249.298 88.0808L244.591 89.2576L238.707 85.7273L236.354 88.0808H230.47L225.763 91.6111L226.939 96.3182L230.47 98.6717L228.116 103.379H221.056L218.702 106.909L213.995 108.086L209.288 105.732L202.227 106.909L190.46 117.5L188.106 116.323L185.753 118.677L186.929 131.621L177.515 137.505L178.692 139.859L176.338 141.035L178.692 144.566V149.273L182.222 151.626L186.929 150.449L189.283 152.803L188.106 157.51L181.045 158.687L182.222 164.571L179.869 171.631L183.399 170.455V175.162L186.929 176.338L189.283 178.692L188.106 179.869L192.813 182.222L191.636 190.46L196.343 198.697L191.636 201.051V204.581L199.874 212.818L201.05 209.288L206.934 210.465L209.288 205.758L210.465 206.934L213.995 198.697L216.348 199.874L221.056 196.343L229.293 193.99L230.47 186.929H232.823L234 183.399L242.237 184.576L246.944 182.222L251.652 185.753L255.182 183.399H261.066V179.869L263.419 184.576L271.657 188.106L276.364 185.753L278.717 186.929L284.601 201.051H301.076L305.783 204.581L304.606 206.934H311.667L314.02 211.641H325.788L326.965 205.758L329.318 208.111L342.263 211.641L341.086 201.051L343.439 199.874L341.086 198.697V196.343L345.793 192.813V191.636L346.97 181.045L344.616 176.338L346.97 173.985L348.146 165.747L344.616 164.571L343.439 161.04H328.141L319.904 166.924H314.02L309.313 164.571L304.606 157.51L299.899 159.864L297.545 156.333L290.485 157.51L286.955 150.449L288.131 149.273L282.247 145.742L277.54 151.626L269.303 149.273L270.48 143.389L268.126 141.035L264.596 143.389L256.359 137.505L252.828 145.742L248.121 143.389L245.768 148.096L243.414 144.566H246.944L242.237 138.682L244.591 133.975L252.828 131.621L255.182 133.975ZM255.182 133.975L256.359 131.621" stroke="#0000FF" stroke-opacity="0.4" stroke-linecap="round" stroke-linejoin="round"/>
</g>
<g id="9806" class="district" name="Lục Ngạn">
<path fill-rule="evenodd" clip-rule="evenodd" d="M328.141 161.04L322.258 165.747L314.02 166.924L304.606 157.51L299.899 159.864L297.545 156.333L291.662 157.51L286.955 151.626L288.131 149.273L283.424 145.742L277.54 151.626L271.657 150.449L268.126 146.919L270.48 145.742L268.126 141.035L265.773 143.389L257.535 137.505H255.182L252.828 145.742L250.475 143.389H248.121L245.768 148.096L243.414 145.742L245.768 144.566L244.591 139.859L242.237 138.682L245.768 132.798L252.828 131.621L255.182 133.975L261.066 130.444L256.359 125.737L257.535 123.384L255.182 124.561L252.828 122.207V117.5H255.182L257.535 112.793L256.359 105.732L251.652 103.379L249.298 99.8485L248.121 101.025L249.298 88.0808L254.005 86.904V84.5505L257.535 83.3737L263.419 71.6061V66.899L269.303 65.7222L274.01 62.1919L275.187 59.8384L269.303 49.2475L272.833 44.5404L276.364 43.3636L278.717 36.303L277.54 32.7727L289.308 21.005L288.131 18.6515L296.369 13.9444H306.96L315.197 10.4141L324.611 12.7677L330.495 10.4141L336.379 11.5909L338.732 9.23737L352.854 16.298L351.677 25.7121L356.384 31.596L364.621 35.1263L366.975 38.6566L374.035 41.0101L377.566 38.6566L376.389 37.4798L378.742 33.9495L376.389 32.7727V28.0656L379.919 25.7121L382.273 26.8889L389.333 23.3586V26.8889L397.571 32.7727L403.455 30.4192L411.692 31.596L415.222 35.1263L416.399 39.8333L422.283 43.3636V46.8939L421.106 49.2475L417.576 48.0707L416.399 51.601L411.692 53.9545L410.515 58.6616L398.747 57.4848L392.864 64.5454V68.0758L390.51 69.2525L388.157 77.4899L384.626 81.0202L386.98 88.0808V92.7879L384.626 96.3182L386.98 101.025V105.732L384.626 108.086L385.803 111.616L383.45 113.97H379.919L378.742 119.854H375.212L372.859 126.914L375.212 130.444L383.45 135.152L382.273 139.859L378.742 142.212L376.389 141.035L375.212 146.919L378.742 151.626L370.505 153.98L366.975 157.51V162.217L356.384 164.571V166.924L346.97 165.747L344.616 164.571L343.439 161.04L331.672 162.217L328.141 161.04Z" fill="#49E830" fill-opacity="0.5"/>
<path d="M255.182 133.975L252.828 131.621L245.768 132.798L242.237 138.682L244.591 139.859L245.768 144.566L243.414 145.742L245.768 148.096L248.121 143.389H250.475L252.828 145.742L255.182 137.505H257.535L265.773 143.389L268.126 141.035L270.48 145.742L268.126 146.919L271.657 150.449L277.54 151.626L283.424 145.742L288.131 149.273L286.955 151.626L291.662 157.51L297.545 156.333L299.899 159.864L304.606 157.51L314.02 166.924L322.258 165.747L328.141 161.04L331.672 162.217L343.439 161.04L344.616 164.571L346.97 165.747L356.384 166.924V164.571L366.975 162.217V157.51L370.505 153.98L378.742 151.626L375.212 146.919L376.389 141.035L378.742 142.212L382.273 139.859L383.45 135.152L375.212 130.444L372.859 126.914L375.212 119.854H378.742L379.919 113.97H383.45L385.803 111.616L384.626 108.086L386.98 105.732V101.025L384.626 96.3182L386.98 92.7879V88.0808L384.626 81.0202L388.157 77.4899L390.51 69.2525L392.864 68.0758V64.5454L398.747 57.4848L410.515 58.6616L411.692 53.9545L416.399 51.601L417.576 48.0707L421.106 49.2475L422.283 46.8939V43.3636L416.399 39.8333L415.222 35.1263L411.692 31.596L403.455 30.4192L397.571 32.7727L389.333 26.8889V23.3586L382.273 26.8889L379.919 25.7121L376.389 28.0656V32.7727L378.742 33.9495L376.389 37.4798L377.566 38.6566L374.035 41.0101L366.975 38.6566L364.621 35.1263L356.384 31.596L351.677 25.7121L352.854 16.298L338.732 9.23737L336.379 11.5909L330.495 10.4141L324.611 12.7677L315.197 10.4141L306.96 13.9444H296.369L288.131 18.6515L289.308 21.005L277.54 32.7727L278.717 36.303L276.364 43.3636L272.833 44.5404L269.303 49.2475L275.187 59.8384L274.01 62.1919L269.303 65.7222L263.419 66.899V71.6061L257.535 83.3737L254.005 84.5505V86.904L249.298 88.0808L248.121 101.025L249.298 99.8485L251.652 103.379L256.359 105.732L257.535 112.793L255.182 117.5H252.828V122.207L255.182 124.561L257.535 123.384L256.359 125.737L261.066 130.444L255.182 133.975ZM255.182 133.975L256.359 131.621" stroke="#0000FF" stroke-opacity="0.4" stroke-linecap="round" stroke-linejoin="round"/>
</g>
<path id="9805" class="district" name="Sơn Động" fill-rule="evenodd" clip-rule="evenodd" d="M415.222 203.404L405.808 202.227V212.818L409.338 218.702L403.455 217.525L392.864 221.056L365.798 215.172L362.268 216.348L350.5 210.465L344.616 212.818L341.086 204.581V201.051L343.439 199.874L341.086 198.697V196.343L345.793 192.813L346.97 181.045L344.616 177.515L346.97 173.985L348.146 165.747L356.384 166.924V164.571L358.737 163.394L366.975 162.217V157.51L370.505 153.98L378.742 151.626V149.273L375.212 146.919L376.389 141.035L377.566 142.212L383.449 138.682V135.152L372.859 128.091L374.035 122.207L378.742 119.854L381.096 112.793L383.449 113.97L386.98 111.616L384.626 110.439L386.98 105.732V101.025L384.626 98.6717L386.98 93.9646L384.626 81.0202L388.157 78.6667L392.864 64.5455L398.747 57.4849L410.515 58.6616V56.3081L412.869 57.4849L414.045 62.1919L416.399 59.8384L428.167 61.0152L434.05 64.5455V70.4293L438.758 72.7828L436.404 77.4899H434.05V82.197L442.288 91.6111H444.641L449.348 86.904L450.525 92.7879L457.586 89.2576L459.939 93.9646H463.47L467 89.2576L475.237 86.904L477.591 91.6111L482.298 95.1414L476.414 99.8485L477.591 102.202L474.061 104.556L477.591 113.97L475.237 123.384L481.121 128.091L488.182 130.444L490.535 135.152L489.359 137.505L495.242 141.035L494.066 146.919L489.359 151.626L484.652 153.98H476.414L468.177 158.687L469.354 163.394L474.061 166.924L472.884 177.515L470.53 178.692L471.707 185.753H467L464.646 192.813L462.293 193.99L461.116 201.051L457.586 202.227L455.232 210.465H450.525L444.641 204.581L437.581 206.934L430.52 204.581L426.99 209.288H422.283L419.929 208.111V203.404L416.399 202.227L415.222 203.404Z" fill="#30E886" fill-opacity="0.5" stroke="#0000FF" stroke-opacity="0.4" stroke-linecap="round" stroke-linejoin="round"/>
<g id="9804" class="district" name="Tân Yên">
<path fill-rule="evenodd" clip-rule="evenodd" d="M117.5 145.742L116.323 141.035L113.97 139.859L115.146 137.505L110.439 136.328V133.975L105.732 135.152L103.379 137.505L104.556 138.682L101.025 137.505L97.495 139.859L95.1414 137.505L90.4343 138.682L84.5505 133.975L82.197 136.328L81.0202 132.798L76.3131 131.621V133.975L70.4293 135.152L65.7222 131.621L63.3687 122.207L58.6616 124.561L55.1313 119.854L57.4849 113.97H65.7222L62.1919 110.439H57.4849V104.556L58.6616 103.379L63.3687 109.263L64.5455 108.086L63.3687 105.732L66.899 101.025L65.7222 93.9646L63.3687 91.6111L66.899 86.904L68.0758 88.0808L72.7828 84.5505L73.9596 73.9596H76.3131L78.6667 78.6667L85.7273 83.3737H91.6111L95.1414 76.3131L98.6717 83.3737H109.263L117.5 88.0808L118.677 86.904L123.384 91.6111L128.091 95.1414L124.561 98.6717L123.384 108.086L125.737 106.909L129.268 117.5H131.621L129.268 121.03L130.444 123.384L132.798 122.207V125.737H135.152V130.444L126.914 146.919H121.03L118.677 144.566L117.5 145.742Z" fill="#30DCE8" fill-opacity="0.5"/>
<path d="M123.384 91.6111L118.677 86.904L117.5 88.0808L109.263 83.3737H98.6717L95.1414 76.3131L91.6111 83.3737H85.7273L78.6667 78.6667L76.3131 73.9596H73.9596L72.7828 84.5505L68.0758 88.0808L66.899 86.904L63.3687 91.6111L65.7222 93.9646L66.899 101.025L63.3687 105.732L64.5455 108.086L63.3687 109.263L58.6616 103.379L57.4849 104.556V110.439H62.1919L65.7222 113.97H57.4849L55.1313 119.854L58.6616 124.561L63.3687 122.207L65.7222 131.621L70.4293 135.152L76.3131 133.975V131.621L81.0202 132.798L82.197 136.328L84.5505 133.975L90.4343 138.682L95.1414 137.505L97.495 139.859L101.025 137.505L104.556 138.682L103.379 137.505L105.732 135.152L110.439 133.975V136.328L115.146 137.505L113.97 139.859L116.323 141.035L117.5 145.742L118.677 144.566L121.03 146.919H126.914L135.152 130.444V125.737H132.798V122.207L130.444 123.384L129.268 121.03L131.621 117.5H129.268L125.737 106.909L123.384 108.086L124.561 98.6717L128.091 95.1414L123.384 91.6111ZM123.384 91.6111L122.207 92.7879" stroke="#0000FF" stroke-opacity="0.4" stroke-linecap="round" stroke-linejoin="round"/>
</g>
<path id="9803" class="district" name="Việt Yên" fill-rule="evenodd" clip-rule="evenodd" d="M72.7828 185.753V188.106L70.4293 189.283V192.813L72.7828 195.167L69.2525 196.343L66.899 192.813L68.0758 176.338L57.4848 170.455H53.9545L57.4848 165.747H64.5455L69.2525 161.04L64.5455 158.687L65.7222 155.157L63.3687 152.803L64.5455 145.742L62.1919 141.035L64.5455 136.328L66.899 133.975L73.9596 135.152L76.3131 133.975L75.1364 131.621L79.8434 132.798L82.197 136.328L84.5505 133.975L89.2576 138.682L95.1414 137.505L97.4949 139.859L99.8485 137.505L103.379 138.682L108.086 135.152L109.263 136.328L110.439 133.975V136.328H113.97V139.859L116.323 141.035L117.5 145.742L116.323 146.919L121.03 152.803L119.854 156.333L113.97 161.04L112.793 165.747L115.146 164.571L123.384 173.985L119.854 177.515L117.5 175.162L113.97 176.338L112.793 182.222L116.323 183.399L117.5 185.753L116.323 192.813L110.439 189.283L106.909 190.46L104.556 198.697L90.4343 195.167L86.904 188.106L84.5505 189.283L73.9596 184.576L72.7828 185.753Z" fill="#306EE8" fill-opacity="0.5" stroke="#0000FF" stroke-opacity="0.4" stroke-linecap="round" stroke-linejoin="round"/>
<path id="9802" class="district" name="Yên Dũng" fill-rule="evenodd" clip-rule="evenodd" d="M185.753 229.293L179.869 234L176.338 229.293H170.455L165.747 221.056L162.217 218.702L161.04 210.465L155.157 211.641L146.919 218.702H143.389L141.035 217.525L146.919 210.465V208.111L136.328 205.758L128.091 208.111L116.323 192.813L117.5 185.753L112.793 182.222L113.97 176.338L117.5 175.162L118.677 177.515L123.384 173.985L129.268 178.692L133.975 175.162L135.152 171.631L137.505 177.515H135.152L136.328 179.869L133.975 183.399L139.859 189.283L143.389 183.399L142.212 179.869L149.273 181.045L150.45 177.515L152.803 176.338V172.808L149.273 166.924L150.45 164.571L156.333 161.04H159.864V163.394L164.571 161.04L169.278 164.571L170.455 161.04L173.985 159.864L175.162 157.51L181.045 158.687L182.222 164.571L179.869 171.631L183.399 170.455V176.338L189.283 177.515L188.106 178.692L191.636 182.222V190.46L196.343 198.697L191.636 201.051L186.929 199.874L184.576 202.227V205.758L190.46 218.702V223.409L188.106 226.939L185.753 229.293Z" fill="#6130E8" fill-opacity="0.5" stroke="#0000FF" stroke-opacity="0.4" stroke-linecap="round" stroke-linejoin="round"/>
<g id="9801" class="district" name="Yên Thế">
<path fill-rule="evenodd" clip-rule="evenodd" d="M116.323 88.0808L109.263 83.3737H98.6717L95.1414 76.3131L91.6111 83.3737H85.7273L84.5505 81.0202L78.6667 78.6667L76.3131 73.9596L71.6061 76.3131L69.2525 72.7828L72.7828 68.0758L68.0758 63.3687L71.6061 55.1313V52.7778L69.2525 51.601L71.6061 50.4242L75.1364 42.1869L73.9596 38.6566L76.3131 36.303L72.7828 33.9495L73.9596 32.7727L64.5455 30.4192L75.1364 18.6515L73.9596 16.298L76.3131 11.5909H81.0202L85.7273 5.70707L91.6111 2.17677L105.732 5.70707L112.793 2.17677L113.97 3.35354L121.03 1L126.914 9.23737L131.621 11.5909L124.561 15.1212V53.9545L143.389 61.0151L153.98 62.1919L155.157 65.7222H157.51V68.0758L158.687 65.7222H162.217L164.571 63.3687H173.985L172.808 71.6061L175.162 72.7828V75.1364L173.985 79.8434L169.278 83.3737L161.04 82.197V77.4899L159.864 79.8434H157.51L156.333 83.3737L153.98 79.8434L155.157 76.3131L151.626 79.8434V83.3737L149.273 81.0202L145.742 83.3737V79.8434L141.035 82.197L138.682 85.7273L141.035 84.5505V86.904L136.328 85.7273L135.152 92.7879L131.621 89.2576L129.268 90.4343L130.444 91.6111L128.091 95.1414L123.384 91.6111L118.677 86.904L116.323 88.0808Z" fill="#D030E8" fill-opacity="0.5"/>
<path d="M123.384 91.6111L128.091 95.1414L130.444 91.6111L129.268 90.4343L131.621 89.2576L135.152 92.7879L136.328 85.7273L141.035 86.904V84.5505L138.682 85.7273L141.035 82.197L145.742 79.8434V83.3737L149.273 81.0202L151.626 83.3737V79.8434L155.157 76.3131L153.98 79.8434L156.333 83.3737L157.51 79.8434H159.864L161.04 77.4899V82.197L169.278 83.3737L173.985 79.8434L175.162 75.1364V72.7828L172.808 71.6061L173.985 63.3687H164.571L162.217 65.7222H158.687L157.51 68.0758V65.7222H155.157L153.98 62.1919L143.389 61.0151L124.561 53.9545V15.1212L131.621 11.5909L126.914 9.23737L121.03 1L113.97 3.35354L112.793 2.17677L105.732 5.70707L91.6111 2.17677L85.7273 5.70707L81.0202 11.5909H76.3131L73.9596 16.298L75.1364 18.6515L64.5455 30.4192L73.9596 32.7727L72.7828 33.9495L76.3131 36.303L73.9596 38.6566L75.1364 42.1869L71.6061 50.4242L69.2525 51.601L71.6061 52.7778V55.1313L68.0758 63.3687L72.7828 68.0758L69.2525 72.7828L71.6061 76.3131L76.3131 73.9596L78.6667 78.6667L84.5505 81.0202L85.7273 83.3737H91.6111L95.1414 76.3131L98.6717 83.3737H109.263L116.323 88.0808L118.677 86.904L123.384 91.6111ZM123.384 91.6111L122.207 92.7879" stroke="#0000FF" stroke-opacity="0.4" stroke-linecap="round" stroke-linejoin="round"/>
</g>
</g>
</svg>
