<svg width="596" height="463" viewBox="0 0 596 463" fill="none" xmlns="http://www.w3.org/2000/svg">
<g id="99" name="Bắc Ninh">
<path id="9908" class="district" name="TP Bắc Ninh" fill-rule="evenodd" clip-rule="evenodd" d="M232 221L233 218L230 217L231 214L212 210L207 202L205 204L202 201L212 194V184L214 183L212 181L203 184L202 182L200 184L192 180L195 175L188 170L180 161L183 159L182 147L171 141L174 122H182L181 124L186 123V121L190 122L193 114H191V104L199 98L196 91L197 90L206 100L211 96L205 87L206 75L211 70L218 59L222 58L234 61L241 65L250 76L262 70L269 78L270 81L268 88L274 94L309 101L321 105L319 112L313 114L311 119L313 121H311L310 124L309 123L310 125L307 130V133L302 135L303 131L300 133V130L292 129L291 135L288 137L290 139L285 144L286 146H289L293 151H300V154L307 159L308 161L306 163L311 165L310 167H313L311 173L325 177L331 184L332 183L333 186L336 185L337 192L339 195L334 210L327 209L331 215L326 217V214H322V211H319L316 205L309 208L310 206L308 205L307 207L296 208L298 217L293 218L292 215L287 217L284 214L276 211L273 217L270 216L269 218L267 217V219L262 217H254V215H250L249 221L242 224L232 221Z" fill="#D147AC" fill-opacity="0.5" stroke="#0000FF" stroke-opacity="0.4" stroke-linecap="round" stroke-linejoin="round"/>
<path id="9907" class="district" name="Từ Sơn" fill-rule="evenodd" clip-rule="evenodd" d="M111 305L97 301V299L87 292L84 276L81 271L64 281L56 284L55 277L57 275L53 267L50 268L47 263L50 255L46 251L48 250L42 244L43 242L40 238L37 239L28 232L32 226L30 224L28 229L20 228V223L16 216L18 214L20 216L25 211L23 208L29 203L30 205L33 204L34 201L32 198L35 195L34 193L36 188L34 187V184H31L26 171L30 160L34 157H51L62 159L64 157L67 161L69 160L73 163L69 169L75 170L81 169L80 157L89 153L93 155L95 160L102 162L107 160H128V162L133 161L142 170L143 169L150 173V186L142 183L139 193L140 201H142L135 204L138 212V220L132 224L131 222L121 235L127 238L123 241L126 247L120 251L118 257L113 253L108 256L107 253L108 260L116 269L114 278L117 282L114 289L120 305H111Z" fill="#D1475A" fill-opacity="0.5" stroke="#0000FF" stroke-opacity="0.4" stroke-linecap="round" stroke-linejoin="round"/>
<path id="9906" class="district" name="Gia Bình" fill-rule="evenodd" clip-rule="evenodd" d="M400 392L398 386L399 382H397L399 376V358L394 361L388 358L385 354H381L379 349H376L374 345L372 346L367 357L363 358L360 368L366 369L365 371L369 373L365 382L350 375L351 370L345 369L342 365L344 359L342 355L348 350L346 349V345H348L349 335L344 334L334 301L331 302L329 298L333 297L336 291H344L350 287L353 281L358 250L363 244L369 242L384 243L391 245L419 264L432 262L455 253L463 246H476L475 236L481 235L494 237L513 232L545 243L557 253L565 244L573 245L583 277V299L585 305L580 308V311L579 310L576 312L577 309H573L572 312L567 309L568 305L558 300L556 297L555 305L551 301L550 297L546 298L540 288L536 299L537 302L531 315L526 319H508L506 316H502L491 326L489 323H483L479 317L471 319L469 324H464V328L458 327L457 331L453 335L456 339L454 352L446 364L442 361V358L437 355L436 350L429 354L419 353L416 356H406L400 358V362H404V360L412 362V366L409 368H411L410 372L415 374L416 380L419 381L416 393L410 394L403 392H400Z" fill="#D18847" fill-opacity="0.5" stroke="#0000FF" stroke-opacity="0.4" stroke-linecap="round" stroke-linejoin="round"/>
<path id="9905" class="district" name="Lương Tài" fill-rule="evenodd" clip-rule="evenodd" d="M550 399L544 403L539 412L540 427H538L532 433L527 432L524 429H520L519 425H517L510 419L506 420L501 417L499 427H493L490 424L488 425L483 421L478 425L477 423L464 421L465 430L456 431L453 435H451L448 438L438 440L437 442L422 446L416 444L414 447H408L407 449L402 450L401 453L399 451L397 452L396 455L387 462L385 461L386 458L380 452L390 438L387 433L385 431L383 433L375 429H373L371 432L362 431L360 426L356 423H352L351 418L346 416L344 412H347V401H350V399L347 398L348 374L365 382V379L369 373L365 371L366 369L360 368L363 358L367 357L372 346L374 345L376 349H379L381 354H385L388 358L394 361L399 358V376L397 382H399V392L410 394L416 393L419 381L416 380L415 374L410 372L411 368H409L411 366L412 367V362L408 360L400 362V358L406 356H416L419 353L429 354L436 350L437 355L442 358V361L446 364L454 352L456 339L453 335L457 331L458 327L464 328V324H469L471 319L476 317H479L483 323H489L491 326L502 316H506L508 319H526L531 315L537 302L536 299L540 288L546 298L548 296L550 297L554 305L556 304V297L558 300L568 305L567 309L572 312L573 309H577L576 312L579 311L580 308L585 305L595 322L594 327L569 352L568 360L572 371L573 380L570 385L561 391L550 399Z" fill="#B7E830" fill-opacity="0.5" stroke="#0000FF" stroke-opacity="0.4" stroke-linecap="round" stroke-linejoin="round"/>
<path id="9904" class="district" name="Quế Võ" fill-rule="evenodd" clip-rule="evenodd" d="M311 269L305 267L302 269L298 288L296 292L288 299L286 294L283 295L281 291L283 290L273 275L277 273L275 271V262L277 261V249L290 247L303 250L306 249L302 227L300 224L296 208L307 207V205L310 206L309 208L316 206L319 211H322V214H326V217L331 215L327 209L334 210L339 195L337 192L336 185L333 186L332 183L331 184L325 177L311 173L313 167H310L311 165L306 163L308 161L303 155L300 154V151H293L289 146H286L285 144L290 139L288 137L292 129L300 130V133L303 131L302 134L307 133V130L310 125L309 123L310 124L311 121H313L311 119L313 114L319 112L321 105L324 102V86L329 78L335 75L357 82L362 85L366 89L377 108L384 117L392 132L401 137L408 139L413 138L418 131L429 129L451 139H465V145L445 169L447 172H466L473 170L492 152L504 146L510 145L514 147L519 155L515 165L516 176L528 184L532 189L537 202L541 208L544 209L549 207H556L567 211L574 217L578 224L574 236L573 245L565 244L557 253L545 243L513 232L494 237L481 235L475 236L476 246H463L455 253L432 262L419 264L391 245L384 243L369 242L363 244L358 250L353 281L350 287L344 291H336L330 289L316 272L311 269Z" fill="#49E830" fill-opacity="0.5" stroke="#0000FF" stroke-opacity="0.4" stroke-linecap="round" stroke-linejoin="round"/>
<path id="9903" class="district" name="Thuận Thành" fill-rule="evenodd" clip-rule="evenodd" d="M184 425L179 420L176 423L169 418L167 411L161 410L159 416H151L149 411L144 413L141 404L150 401H155L156 397H158L157 394L149 396L152 390L148 387L149 379L153 376H157L152 369L162 366L167 360L172 349V340L163 334L165 332L163 330L164 327L157 325L156 327L153 324L157 317L156 314L152 315L146 305L171 299H178L194 303L204 302L233 285L252 286L259 291L268 303L274 305L288 299L296 292L298 288L301 271L305 267L316 272L330 289L336 291L333 297L329 298L331 302L334 301L344 334H349L348 345H346V349L348 350L342 355L344 359L342 365L345 369L351 370L350 375L348 374L347 390V398H350V401H347V412L335 415L333 422L334 423L331 425V433L328 439L317 437L314 440H311L309 433L311 430V420L307 419L302 414L291 418L285 411H282V409L274 403L271 407L267 405L263 412V415L259 420L255 419V421L253 419L252 420L245 417L246 416L241 413H227L222 407L223 404H221V406L217 403L214 406L216 408H204L197 416L189 420L186 425H184Z" fill="#30E886" fill-opacity="0.5" stroke="#0000FF" stroke-opacity="0.4" stroke-linecap="round" stroke-linejoin="round"/>
<path id="9902" class="district" name="Tiên Du" fill-rule="evenodd" clip-rule="evenodd" d="M204 302L194 303L178 299H171L144 306L142 298L133 306L120 305L114 289L117 282L114 278L116 269L108 260L107 253L108 256L113 253L118 257L120 251L126 247L123 241L127 238L121 235L128 224L131 222L132 224L138 220V212L135 204L142 201H140L139 193L142 183L150 186L151 180L150 173L143 169L142 170L133 161L128 162V160L107 159L102 162L97 160L103 155L104 147H109L112 143H115V140L120 134L124 138L141 127L154 129L160 135L168 134L171 141L182 147L183 159L180 161L188 170L195 175L192 180L200 184L202 182L203 184L212 181L214 183L212 184V194L202 201L205 204L207 202L212 210L231 214L230 217L233 218L232 221L242 224L246 223L249 221L250 215H254V217L257 216L267 219V217H273L276 211L284 214L287 217L292 215L293 218L298 217L302 227L306 249L303 250L290 247L277 249V261L275 262V271L277 273L273 275L283 290L281 291L283 295L286 294L288 299L274 305L268 303L259 291L252 286L243 285H233L211 298L204 302Z" fill="#30DCE8" fill-opacity="0.5" stroke="#0000FF" stroke-opacity="0.4" stroke-linecap="round" stroke-linejoin="round"/>
<path id="9901" class="district" name="Yên Phong" fill-rule="evenodd" clip-rule="evenodd" d="M194 101L191 104V114H193L190 122L186 121V123L183 124H181L182 122H174L171 141L168 134L160 135L154 129L141 127L124 138L120 134L115 140V143H112L109 147H104L103 155L97 160H95L93 155L89 153L80 157L81 169H69L73 163L69 160L67 161L64 157L62 159L51 157H34L30 160L25 159L22 152V146H24L23 143H28L27 139L29 138L26 135L32 129L19 122L20 119L15 117V114L7 113L5 106L1 100V98L13 100L17 96L13 94L12 90L19 89L20 87L18 73L10 63L4 67L2 64L3 59L7 56L5 54L7 51L10 53H15L16 51L23 53L27 52V48L38 39L35 33L48 31L52 34L48 43L58 50L60 51L68 47H73L79 59L81 60L86 55H91L93 56L94 61L96 63L105 66L111 64L114 53L130 43V38L124 27L123 21L124 16L131 3L134 1L143 11H161L183 21L195 31L191 43V48L194 56L193 75L197 90L196 91L199 98L194 101Z" fill="#306EE8" fill-opacity="0.5" stroke="#0000FF" stroke-opacity="0.4" stroke-linecap="round" stroke-linejoin="round"/>
</g>
</svg>
